<?xml version="1.0" encoding="UTF-8"?>
<svg id="Layer_2" xmlns="http://www.w3.org/2000/svg" viewBox="0 0 1413 776.9">
  <defs>
    <style>
      .cls-1 {
        stroke-dasharray: 0 5.2;
        stroke-width: 1.1px;
      }

      .cls-1, .cls-2, .cls-3, .cls-4, .cls-5, .cls-6, .cls-7, .cls-8, .cls-9, .cls-10, .cls-11, .cls-12, .cls-13, .cls-14, .cls-15, .cls-16, .cls-17, .cls-18, .cls-19, .cls-20, .cls-21, .cls-22, .cls-23, .cls-24, .cls-25, .cls-26, .cls-27, .cls-28, .cls-29, .cls-30, .cls-31 {
        fill: none;
        stroke: #ff8d86;
        stroke-linecap: round;
        stroke-linejoin: round;
      }

      .cls-2 {
        stroke-dasharray: 0 25.84;
        stroke-width: 5.47px;
      }

      .cls-3 {
        stroke-dasharray: 0 8.33;
        stroke-width: 1.76px;
      }

      .cls-4 {
        stroke-dasharray: 0 14.67;
        stroke-width: 3.11px;
      }

      .cls-5 {
        stroke-dasharray: 0 11.06;
        stroke-width: 2.34px;
      }

      .cls-6 {
        stroke-dasharray: 0 10.06;
        stroke-width: 2.13px;
      }

      .cls-7 {
        stroke-dasharray: 0 31.2;
        stroke-width: 6.61px;
      }

      .cls-8 {
        stroke-dasharray: 0 45.5;
        stroke-width: 9.63px;
      }

      .cls-9 {
        stroke-dasharray: 0 2.95;
        stroke-width: .63px;
      }

      .cls-10 {
        stroke-dasharray: 0 7.58;
        stroke-width: 1.61px;
      }

      .cls-11 {
        stroke-dasharray: 0 19.47;
        stroke-width: 4.12px;
      }

      .cls-12 {
        stroke-dasharray: 0 4.31;
        stroke-width: .91px;
      }

      .cls-13 {
        stroke-dasharray: 0 12.15;
        stroke-width: 2.57px;
      }

      .cls-14 {
        stroke-dasharray: 0 50;
        stroke-width: 10.59px;
      }

      .cls-15 {
        stroke-dasharray: 0 6.9;
        stroke-width: 1.46px;
      }

      .cls-16 {
        stroke-dasharray: 0 17.72;
        stroke-width: 3.75px;
      }

      .cls-17 {
        stroke-dasharray: 0 13.35;
        stroke-width: 2.83px;
      }

      .cls-18 {
        stroke-dasharray: 0 28.39;
        stroke-width: 6.01px;
      }

      .cls-19 {
        stroke-dasharray: 0 3.24;
        stroke-width: .69px;
      }

      .cls-32 {
        fill: #ff8d86;
      }

      .cls-20 {
        stroke-dasharray: 0 4.73;
        stroke-width: 1px;
      }

      .cls-21 {
        stroke-dasharray: 0 6.28;
        stroke-width: 1.33px;
      }

      .cls-22 {
        stroke-dasharray: 0 21.4;
        stroke-width: 4.53px;
      }

      .cls-23 {
        stroke-dasharray: 0 5.71;
        stroke-width: 1.21px;
      }

      .cls-24 {
        stroke-dasharray: 0 3.57;
        stroke-width: .75px;
      }

      .cls-25 {
        stroke-dasharray: 0 9.16;
        stroke-width: 1.94px;
      }

      .cls-26 {
        stroke-dasharray: 0 3.92;
        stroke-width: .83px;
      }

      .cls-27 {
        stroke-dasharray: 0 41.4;
        stroke-width: 8.77px;
      }

      .cls-28 {
        stroke-dasharray: 0 23.51;
        stroke-width: 4.98px;
      }

      .cls-29 {
        stroke-dasharray: 0 34.29;
        stroke-width: 7.26px;
      }

      .cls-30 {
        stroke-dasharray: 0 37.68;
        stroke-width: 7.98px;
      }

      .cls-31 {
        stroke-dasharray: 0 16.12;
        stroke-width: 3.41px;
      }
    </style>
  </defs>
  <g id="high_good">
    <g>
      <g>
        <g>
          <circle class="cls-9" cx="749.88" cy="393.62" r="15.63"/>
          <circle class="cls-9" cx="725.61" cy="392.97" r="15.63"/>
          <circle class="cls-9" cx="705.28" cy="407.39" r="15.63"/>
        </g>
        <g>
          <circle class="cls-19" cx="752.74" cy="396.15" r="17.17"/>
          <circle class="cls-19" cx="726.36" cy="392.2" r="17.17"/>
          <circle class="cls-19" cx="702.25" cy="405.19" r="17.17"/>
        </g>
        <g>
          <circle class="cls-24" cx="755.53" cy="399.29" r="18.87"/>
          <circle class="cls-24" cx="727.28" cy="391.45" r="18.87"/>
          <circle class="cls-24" cx="699.24" cy="402.39" r="18.87"/>
        </g>
        <g>
          <circle class="cls-26" cx="758.14" cy="403.09" r="20.74"/>
          <circle class="cls-26" cx="728.39" cy="390.76" r="20.74"/>
          <circle class="cls-26" cx="696.34" cy="398.94" r="20.74"/>
        </g>
        <g>
          <circle class="cls-12" cx="760.49" cy="407.59" r="22.79"/>
          <circle class="cls-12" cx="729.68" cy="390.15" r="22.79"/>
          <circle class="cls-12" cx="693.63" cy="394.78" r="22.79"/>
        </g>
        <g>
          <circle class="cls-20" cx="762.44" cy="412.81" r="25.04"/>
          <circle class="cls-20" cx="731.18" cy="389.66" r="25.04"/>
          <circle class="cls-20" cx="691.24" cy="389.88" r="25.04"/>
        </g>
        <g>
          <circle class="cls-1" cx="763.87" cy="418.76" r="27.52"/>
          <circle class="cls-1" cx="732.88" cy="389.33" r="27.52"/>
          <circle class="cls-1" cx="689.28" cy="384.22" r="27.52"/>
        </g>
        <g>
          <circle class="cls-23" cx="764.64" cy="425.45" r="30.24"/>
          <circle class="cls-23" cx="734.77" cy="389.19" r="30.24"/>
          <circle class="cls-23" cx="687.9" cy="377.79" r="30.24"/>
        </g>
        <g>
          <circle class="cls-21" cx="764.58" cy="432.84" r="33.23"/>
          <circle class="cls-21" cx="736.86" cy="389.3" r="33.23"/>
          <circle class="cls-21" cx="687.27" cy="370.58" r="33.23"/>
        </g>
        <g>
          <circle class="cls-15" cx="763.52" cy="440.9" r="36.52"/>
          <circle class="cls-15" cx="739.12" cy="389.69" r="36.52"/>
          <circle class="cls-15" cx="687.53" cy="362.64" r="36.52"/>
        </g>
        <g>
          <circle class="cls-10" cx="761.29" cy="449.54" r="40.13"/>
          <circle class="cls-10" cx="741.53" cy="390.42" r="40.13"/>
          <circle class="cls-10" cx="688.89" cy="354.01" r="40.13"/>
        </g>
        <g>
          <circle class="cls-3" cx="757.7" cy="458.68" r="44.1"/>
          <circle class="cls-3" cx="744.07" cy="391.55" r="44.1"/>
          <circle class="cls-3" cx="691.53" cy="344.78" r="44.1"/>
        </g>
        <g>
          <circle class="cls-25" cx="752.56" cy="468.15" r="48.47"/>
          <circle class="cls-25" cx="746.68" cy="393.11" r="48.47"/>
          <circle class="cls-25" cx="695.64" cy="335.06" r="48.47"/>
        </g>
        <g>
          <circle class="cls-6" cx="745.68" cy="477.8" r="53.26"/>
          <circle class="cls-6" cx="749.32" cy="395.17" r="53.26"/>
          <circle class="cls-6" cx="701.42" cy="325.02" r="53.26"/>
        </g>
        <g>
          <circle class="cls-5" cx="736.89" cy="487.41" r="58.53"/>
          <circle class="cls-5" cx="751.93" cy="397.76" r="58.53"/>
          <circle class="cls-5" cx="709.08" cy="314.83" r="58.53"/>
        </g>
        <g>
          <circle class="cls-13" cx="726.01" cy="496.71" r="64.31"/>
          <circle class="cls-13" cx="754.42" cy="400.94" r="64.31"/>
          <circle class="cls-13" cx="718.79" cy="304.75" r="64.31"/>
        </g>
        <g>
          <circle class="cls-17" cx="712.91" cy="505.39" r="70.67"/>
          <circle class="cls-17" cx="756.71" cy="404.74" r="70.67"/>
          <circle class="cls-17" cx="730.74" cy="295.06" r="70.67"/>
        </g>
        <g>
          <circle class="cls-4" cx="697.45" cy="513.11" r="77.66"/>
          <circle class="cls-4" cx="758.71" cy="409.2" r="77.66"/>
          <circle class="cls-4" cx="745.06" cy="286.09" r="77.66"/>
        </g>
        <g>
          <circle class="cls-31" cx="679.55" cy="519.46" r="85.35"/>
          <circle class="cls-31" cx="760.28" cy="414.33" r="85.35"/>
          <circle class="cls-31" cx="761.89" cy="278.22" r="85.35"/>
        </g>
        <g>
          <circle class="cls-16" cx="659.18" cy="523.99" r="93.79"/>
          <circle class="cls-16" cx="761.32" cy="420.13" r="93.79"/>
          <circle class="cls-16" cx="781.29" cy="271.89" r="93.79"/>
        </g>
        <g>
          <circle class="cls-11" cx="636.36" cy="526.2" r="103.06"/>
          <circle class="cls-11" cx="761.67" cy="426.59" r="103.06"/>
          <circle class="cls-11" cx="803.31" cy="267.59" r="103.06"/>
        </g>
        <g>
          <circle class="cls-22" cx="611.17" cy="525.55" r="113.26"/>
          <circle class="cls-22" cx="761.18" cy="433.7" r="113.26"/>
          <circle class="cls-22" cx="827.9" cy="265.84" r="113.26"/>
        </g>
        <g>
          <circle class="cls-28" cx="583.78" cy="521.47" r="124.46"/>
          <circle class="cls-28" cx="759.7" cy="441.38" r="124.46"/>
          <circle class="cls-28" cx="854.95" cy="267.23" r="124.46"/>
        </g>
        <g>
          <circle class="cls-2" cx="554.45" cy="513.36" r="136.76"/>
          <circle class="cls-2" cx="757.06" cy="449.55" r="136.76"/>
          <circle class="cls-2" cx="884.27" cy="272.36" r="136.76"/>
        </g>
        <g>
          <circle class="cls-18" cx="523.55" cy="500.58" r="150.29"/>
          <circle class="cls-18" cx="753.09" cy="458.12" r="150.29"/>
          <circle class="cls-18" cx="915.56" cy="281.89" r="150.29"/>
        </g>
        <g>
          <circle class="cls-7" cx="491.56" cy="482.5" r="165.16"/>
          <circle class="cls-7" cx="747.6" cy="466.93" r="165.16"/>
          <circle class="cls-7" cx="948.42" cy="296.48" r="165.16"/>
        </g>
        <g>
          <circle class="cls-29" cx="459.09" cy="458.5" r="181.49"/>
          <circle class="cls-29" cx="740.44" cy="475.81" r="181.49"/>
          <circle class="cls-29" cx="982.3" cy="316.79" r="181.49"/>
        </g>
        <g>
          <circle class="cls-30" cx="426.89" cy="427.97" r="199.44"/>
          <circle class="cls-30" cx="731.44" cy="484.53" r="199.44"/>
          <circle class="cls-30" cx="1016.54" cy="343.47" r="199.44"/>
        </g>
        <g>
          <circle class="cls-27" cx="395.85" cy="390.36" r="219.16"/>
          <circle class="cls-27" cx="720.46" cy="492.84" r="219.16"/>
          <circle class="cls-27" cx="1050.3" cy="377.17" r="219.16"/>
        </g>
        <g>
          <circle class="cls-8" cx="367.04" cy="345.18" r="240.84"/>
          <circle class="cls-8" cx="707.36" cy="500.43" r="240.84"/>
          <circle class="cls-8" cx="1082.62" cy="418.44" r="240.84"/>
        </g>
        <g>
          <circle class="cls-14" cx="341.66" cy="292.05" r="264.66"/>
          <circle class="cls-14" cx="692.07" cy="506.95" r="264.66"/>
          <circle class="cls-14" cx="1112.34" cy="467.78" r="264.66"/>
        </g>
      </g>
      <circle class="cls-32" cx="1203" cy="188" r="5"/>
      <circle class="cls-32" cx="1267" cy="176" r="5"/>
      <circle class="cls-32" cx="1243" cy="208" r="5"/>
      <circle class="cls-32" cx="1314" cy="265" r="5"/>
      <circle class="cls-32" cx="1408" cy="422" r="5"/>
      <circle class="cls-32" cx="1277" cy="712" r="5"/>
      <circle class="cls-32" cx="1350" cy="675" r="5"/>
      <circle class="cls-32" cx="122" cy="84" r="5"/>
      <circle class="cls-32" cx="220" cy="44" r="5"/>
      <circle class="cls-32" cx="196" cy="5" r="5"/>
      <circle class="cls-32" cx="297" cy="10" r="5"/>
      <circle class="cls-32" cx="132" cy="20" r="5"/>
      <circle class="cls-32" cx="94" cy="147" r="5"/>
      <circle class="cls-32" cx="142" cy="526" r="5"/>
      <circle class="cls-32" cx="38" cy="432" r="5"/>
      <circle class="cls-32" cx="48" cy="386" r="5"/>
      <circle class="cls-32" cx="38" cy="270" r="5"/>
      <circle class="cls-32" cx="599" cy="116" r="5"/>
      <circle class="cls-32" cx="541" cy="25" r="5"/>
      <circle class="cls-32" cx="557.5" cy="87.5" r="3.5"/>
      <circle class="cls-32" cx="253.5" cy="8.5" r="3.5"/>
      <circle class="cls-32" cx="164.5" cy="52.5" r="3.5"/>
      <circle class="cls-32" cx="3.5" cy="332.5" r="3.5"/>
      <circle class="cls-32" cx="92.5" cy="471.5" r="3.5"/>
      <circle class="cls-32" cx="1322.5" cy="720.5" r="3.5"/>
      <circle class="cls-32" cx="1394.5" cy="365.5" r="3.5"/>
      <circle class="cls-32" cx="1285.5" cy="216.5" r="3.5"/>
      <circle class="cls-32" cx="1241.5" cy="748.5" r="3.5"/>
      <circle class="cls-32" cx="46.5" cy="184.5" r="3.5"/>
      <circle class="cls-32" cx="508.5" cy="52.5" r="3.5"/>
    </g>
  </g>
</svg>