<?xml version="1.0" encoding="UTF-8"?>
<svg id="Layer_2" xmlns="http://www.w3.org/2000/svg" viewBox="0 0 1010 749.94">
  <defs>
    <style>
      .cls-1 {
        stroke-dasharray: 0 4.31;
        stroke-width: .86px;
      }

      .cls-1, .cls-2, .cls-3, .cls-4, .cls-5, .cls-6, .cls-7, .cls-8, .cls-9, .cls-10, .cls-11, .cls-12, .cls-13, .cls-14, .cls-15, .cls-16, .cls-17, .cls-18, .cls-19, .cls-20, .cls-21, .cls-22, .cls-23, .cls-24, .cls-25, .cls-26, .cls-27, .cls-28, .cls-29, .cls-30, .cls-31 {
        fill: none;
        stroke: #8aceca;
        stroke-linecap: round;
        stroke-linejoin: round;
      }

      .cls-2 {
        stroke-dasharray: 0 23.51;
        stroke-width: 4.7px;
      }

      .cls-3 {
        stroke-dasharray: 0 14.67;
        stroke-width: 2.93px;
      }

      .cls-4 {
        stroke-dasharray: 0 34.29;
        stroke-width: 6.86px;
      }

      .cls-5 {
        stroke-dasharray: 0 11.06;
        stroke-width: 2.21px;
      }

      .cls-6 {
        stroke-dasharray: 0 50;
        stroke-width: 10px;
      }

      .cls-7 {
        stroke-dasharray: 0 7.58;
        stroke-width: 1.52px;
      }

      .cls-8 {
        stroke-dasharray: 0 5.2;
        stroke-width: 1.04px;
      }

      .cls-9 {
        stroke-dasharray: 0 41.4;
        stroke-width: 8.28px;
      }

      .cls-32 {
        fill: #8aceca;
      }

      .cls-10 {
        stroke-dasharray: 0 10.06;
        stroke-width: 2.01px;
      }

      .cls-11 {
        stroke-dasharray: 0 31.2;
        stroke-width: 6.24px;
      }

      .cls-12 {
        stroke-dasharray: 0 21.4;
        stroke-width: 4.28px;
      }

      .cls-13 {
        stroke-dasharray: 0 3.57;
        stroke-width: .71px;
      }

      .cls-14 {
        stroke-dasharray: 0 28.39;
        stroke-width: 5.68px;
      }

      .cls-15 {
        stroke-dasharray: 0 5.71;
        stroke-width: 1.14px;
      }

      .cls-16 {
        stroke-dasharray: 0 16.12;
        stroke-width: 3.22px;
      }

      .cls-17 {
        stroke-dasharray: 0 2.95;
        stroke-width: .59px;
      }

      .cls-18 {
        stroke-dasharray: 0 25.84;
        stroke-width: 5.17px;
      }

      .cls-19 {
        stroke-dasharray: 0 9.16;
        stroke-width: 1.83px;
      }

      .cls-20 {
        stroke-dasharray: 0 4.73;
        stroke-width: .95px;
      }

      .cls-21 {
        stroke-dasharray: 0 13.35;
        stroke-width: 2.67px;
      }

      .cls-22 {
        stroke-dasharray: 0 37.68;
        stroke-width: 7.54px;
      }

      .cls-23 {
        stroke-dasharray: 0 3.92;
        stroke-width: .78px;
      }

      .cls-24 {
        stroke-dasharray: 0 19.47;
        stroke-width: 3.89px;
      }

      .cls-25 {
        stroke-dasharray: 0 8.33;
        stroke-width: 1.67px;
      }

      .cls-26 {
        stroke-dasharray: 0 6.9;
        stroke-width: 1.38px;
      }

      .cls-27 {
        stroke-dasharray: 0 3.24;
        stroke-width: .65px;
      }

      .cls-28 {
        stroke-dasharray: 0 45.5;
        stroke-width: 9.1px;
      }

      .cls-29 {
        stroke-dasharray: 0 6.28;
        stroke-width: 1.26px;
      }

      .cls-30 {
        stroke-dasharray: 0 12.15;
        stroke-width: 2.43px;
      }

      .cls-31 {
        stroke-dasharray: 0 17.72;
        stroke-width: 3.54px;
      }
    </style>
  </defs>
  <g id="low_good">
    <g>
      <g>
        <path class="cls-17" d="M357.99,506.03c3.86,3.45,8.41,5.43,11.33,6.5,3.76,1.37,8.16,2.97,11.97,2.14,2.28-.5,4.07-1.81,4.21-3.21.13-1.27-1.11-2.45-2.75-3.13-.98-.4-4.03-1.41-15.21.41-10.01,1.63-10.98,3-20.71,4.36-4.3.6-8.91,1.01-13.59.16-3.91-.7-5.29-1.81-5.66-2.14-.38-.33-1.72-1.51-.81-2.63.77-.95,2.73-1.31,4.53-1.64,1.22-.23,3.74-.59,7.28-.33,3.59.26,6.13,1.01,7.93,1.56,7.7,2.35,11.55,3.52,14.56,4.93,6.27,2.95,11.44,5.37,11.33,8.72-.08,2.4-2.84,4.26-4.21,5.18-3.75,2.53-6.53,2.14-11.81,5.35-.59.36-3.18,1.96-4.53,4.36-.87,1.54-.55,2.21-.16,2.63.85.93,2.85,1.62,5.02,1.64,3.27.03,5.11-1.48,5.5-1.81,1.52-1.25,1.15-2.57.97-3.13-.25-.79-.8-1.45-3.72-3.54-4.32-3.09-6.47-4.63-8.9-5.43-1.89-.62-3.31-.85-4.69-1.81-1.53-1.07-1.83-2.23-1.94-2.71-.22-.93-.39-1.68.49-2.39,1.53-1.23,4.88-1.24,5.18-1.23,3.25.02,5.3,1.3,5.99,1.73,2.21,1.37,2.28,2.94,2.27,3.45"/>
        <path class="cls-27" d="M356.83,506.28c4.61,3.33,9.81,4.97,13.12,5.8,4.27,1.07,9.26,2.31,13.33.96,2.43-.81,4.24-2.45,4.23-3.99,0-1.4-1.5-2.55-3.37-3.1-1.12-.33-4.57-1.08-16.57,2.2-10.75,2.93-11.66,4.54-22.13,7.14-4.63,1.15-9.62,2.12-14.83,1.74-4.35-.32-5.99-1.37-6.43-1.69-.45-.32-2.05-1.46-1.19-2.78.74-1.13,2.84-1.75,4.76-2.32,1.31-.39,4.02-1.07,7.92-1.2,3.95-.12,6.81.4,8.84.8,8.68,1.68,13.03,2.52,16.48,3.72,7.19,2.5,13.12,4.56,13.38,8.23.19,2.63-2.62,4.98-4,6.15-3.8,3.2-6.89,3.08-12.29,7.2-.61.46-3.25,2.51-4.45,5.28-.77,1.79-.34,2.48.13,2.89,1.03.92,3.3,1.45,5.67,1.22,3.58-.34,5.41-2.21,5.8-2.61,1.52-1.54.96-2.94.7-3.53-.36-.84-1.04-1.49-4.47-3.44-5.07-2.88-7.61-4.32-10.35-4.91-2.14-.46-3.72-.54-5.34-1.44-1.8-1-2.26-2.23-2.43-2.74-.34-.99-.62-1.79.26-2.66,1.53-1.52,5.2-1.91,5.52-1.94,3.55-.35,5.94.81,6.74,1.2,2.57,1.25,2.83,2.95,2.87,3.52"/>
        <path class="cls-13" d="M355.59,506.7c5.42,3.11,11.29,4.31,15.01,4.83,4.79.67,10.39,1.46,14.68-.48,2.56-1.16,4.35-3.16,4.16-4.85-.17-1.53-1.93-2.62-4.03-3-1.26-.23-5.12-.65-17.86,4.3-11.41,4.44-12.22,6.3-23.37,10.35-4.93,1.79-10.27,3.43-16.01,3.61-4.8.15-6.71-.81-7.23-1.1-.53-.3-2.41-1.35-1.62-2.91.68-1.32,2.9-2.24,4.94-3.08,1.39-.57,4.27-1.63,8.52-2.22,4.31-.59,7.49-.34,9.76-.14,9.68.84,14.53,1.26,18.44,2.17,8.14,1.91,14.86,3.48,15.57,7.45.51,2.85-2.29,5.75-3.67,7.18-3.79,3.93-7.17,4.16-12.61,9.28-.61.57-3.26,3.12-4.26,6.29-.64,2.04-.09,2.75.47,3.15,1.23.88,3.78,1.2,6.34.68,3.87-.78,5.66-3.03,6.04-3.52,1.48-1.86.71-3.32.36-3.94-.49-.87-1.31-1.51-5.28-3.24-5.87-2.56-8.81-3.85-11.87-4.18-2.39-.26-4.13-.17-6-.96-2.08-.88-2.72-2.18-2.97-2.72-.49-1.04-.88-1.88-.03-2.94,1.5-1.84,5.46-2.69,5.81-2.76,3.84-.79,6.58.2,7.5.54,2.96,1.07,3.44,2.9,3.54,3.51"/>
        <path class="cls-23" d="M354.29,507.3c6.28,2.77,12.84,3.41,16.96,3.56,5.31.19,11.52.41,15.99-2.21,2.67-1.56,4.39-3.95,3.99-5.77-.36-1.65-2.41-2.64-4.75-2.82-1.4-.11-5.67-.13-19.03,6.76-11.96,6.16-12.63,8.29-24.35,13.99-5.18,2.52-10.83,4.92-17.09,5.78-5.22.72-7.42-.12-8.02-.38-.61-.26-2.79-1.2-2.1-2.99.59-1.52,2.91-2.78,5.04-3.93,1.45-.78,4.48-2.28,9.05-3.4,4.64-1.14,8.15-1.23,10.65-1.28,10.68-.2,16.02-.29,20.4.26,9.12,1.15,16.64,2.09,17.87,6.36.88,3.06-1.84,6.54-3.18,8.26-3.69,4.73-7.36,5.37-12.71,11.59-.6.7-3.21,3.78-3.93,7.36-.47,2.31.22,3.01.88,3.39,1.45.82,4.26.88,7,.02,4.14-1.3,5.84-3.97,6.2-4.54,1.4-2.21.39-3.71-.06-4.34-.64-.9-1.61-1.5-6.15-2.94-6.71-2.13-10.07-3.19-13.46-3.2-2.64,0-4.53.29-6.66-.36-2.37-.72-3.22-2.07-3.56-2.63-.66-1.09-1.18-1.96-.37-3.21,1.42-2.18,5.66-3.56,6.03-3.68,4.11-1.3,7.22-.53,8.26-.28,3.35.83,4.09,2.77,4.28,3.43"/>
        <path class="cls-1" d="M352.94,508.1c7.18,2.31,14.42,2.25,18.94,1.94,5.82-.41,12.64-.88,17.22-4.25,2.74-2.02,4.34-4.82,3.7-6.77-.58-1.76-2.94-2.61-5.52-2.53-1.55.05-6.21.51-20.02,9.57-12.36,8.11-12.85,10.51-25,18.09-5.37,3.35-11.27,6.63-18.01,8.28-5.63,1.38-8.13.72-8.81.51-.7-.22-3.19-.99-2.64-3.03.47-1.73,2.86-3.37,5.06-4.88,1.49-1.02,4.63-3,9.5-4.76,4.94-1.78,8.76-2.28,11.49-2.62,11.65-1.44,17.47-2.16,22.33-2.06,10.1.21,18.43.38,20.26,4.9,1.31,3.24-1.26,7.36-2.53,9.4-3.49,5.59-7.43,6.72-12.56,14.13-.58.83-3.07,4.5-3.45,8.49-.24,2.57.58,3.27,1.35,3.6,1.68.73,4.76.47,7.66-.78,4.37-1.89,5.92-5.01,6.26-5.67,1.28-2.57,0-4.1-.56-4.74-.8-.91-1.93-1.45-7.06-2.5-7.58-1.55-11.37-2.33-15.07-1.95-2.88.29-4.92.84-7.32.37-2.68-.52-3.76-1.89-4.2-2.46-.84-1.11-1.52-2-.77-3.47,1.31-2.55,5.77-4.54,6.17-4.71,4.34-1.9,7.83-1.41,9-1.25,3.76.52,4.79,2.56,5.07,3.26"/>
        <path class="cls-20" d="M351.55,509.14c8.12,1.7,16.02.81,20.92-.06,6.32-1.11,13.71-2.41,18.33-6.63,2.76-2.52,4.19-5.77,3.27-7.82-.84-1.86-3.51-2.51-6.32-2.13-1.68.23-6.73,1.27-20.78,12.76-12.58,10.28-12.84,12.96-25.25,22.64-5.48,4.28-11.56,8.54-18.73,11.12-5.99,2.16-8.8,1.73-9.57,1.57-.79-.16-3.6-.72-3.23-3,.31-1.94,2.74-4.01,4.97-5.91,1.51-1.29,4.72-3.81,9.84-6.29,5.19-2.51,9.31-3.5,12.25-4.18,12.57-2.91,18.85-4.37,24.16-4.82,11.06-.94,20.18-1.71,22.7,3.02,1.81,3.39-.53,8.19-1.69,10.56-3.17,6.51-7.35,8.19-12.11,16.88-.53.98-2.84,5.27-2.79,9.68.03,2.84,1.01,3.51,1.88,3.78,1.92.61,5.26-.03,8.28-1.74,4.56-2.57,5.9-6.15,6.18-6.92,1.1-2.96-.47-4.48-1.16-5.12-.98-.9-2.28-1.37-8-1.93-8.46-.83-12.7-1.24-16.7-.4-3.12.65-5.28,1.48-7.96,1.25-2.99-.26-4.33-1.63-4.87-2.21-1.05-1.12-1.89-2.02-1.24-3.7,1.13-2.94,5.79-5.63,6.2-5.86,4.52-2.57,8.39-2.44,9.69-2.4,4.17.14,5.53,2.25,5.91,2.98"/>
        <path class="cls-8" d="M350.15,510.42c9.06.92,17.6-.96,22.86-2.47,6.78-1.94,14.71-4.21,19.27-9.35,2.72-3.07,3.92-6.79,2.67-8.92-1.13-1.94-4.12-2.34-7.15-1.61-1.81.44-7.2,2.16-21.24,16.33-12.57,12.68-12.54,15.64-24.99,27.65-5.5,5.31-11.65,10.66-19.19,14.3-6.3,3.05-9.42,2.9-10.28,2.82-.88-.08-4.01-.37-3.88-2.91.12-2.16,2.53-4.7,4.75-7.03,1.51-1.58,4.72-4.71,10.03-8.01,5.39-3.34,9.78-4.9,12.91-5.98,13.4-4.63,20.1-6.94,25.85-8.04,11.98-2.29,21.86-4.18,25.16.7,2.36,3.5.36,9.01-.63,11.74-2.72,7.48-7.09,9.8-11.29,19.84-.47,1.13-2.5,6.09-1.94,10.9.36,3.1,1.51,3.71,2.49,3.92,2.17.45,5.74-.64,8.85-2.85,4.69-3.34,5.74-7.4,5.96-8.27.87-3.36-1.02-4.84-1.85-5.46-1.17-.87-2.65-1.23-8.96-1.19-9.35.07-14.02.1-18.3,1.48-3.33,1.07-5.6,2.23-8.56,2.28-3.29.06-4.92-1.29-5.58-1.86-1.27-1.1-2.29-1.99-1.78-3.9.9-3.34,5.68-6.82,6.1-7.12,4.65-3.33,8.89-3.63,10.32-3.74,4.57-.33,6.3,1.82,6.8,2.58"/>
        <path class="cls-15" d="M348.77,511.99c10.01-.03,19.12-3.07,24.7-5.32,7.18-2.9,15.59-6.29,19.99-12.43,2.63-3.66,3.5-7.87,1.9-10.06-1.46-1.99-4.78-2.09-8-.93-1.93.69-7.62,3.19-21.34,20.28-12.28,15.3-11.91,18.53-24.14,33.09-5.4,6.43-11.51,12.98-19.33,17.84-6.53,4.05-9.96,4.25-10.91,4.26-.97.01-4.43.05-4.57-2.74-.12-2.37,2.23-5.43,4.39-8.23,1.46-1.9,4.62-5.69,10.04-9.9,5.5-4.27,10.12-6.47,13.42-8.02,14.11-6.6,21.17-9.89,27.33-11.76,12.83-3.88,23.41-7.08,27.58-2.13,2.99,3.55,1.43,9.81.66,12.9-2.11,8.49-6.62,11.52-10.06,22.98-.39,1.29-2.03,6.94-.87,12.13.75,3.35,2.08,3.89,3.18,3.99,2.42.24,6.2-1.36,9.34-4.13,4.74-4.18,5.42-8.75,5.57-9.73.56-3.77-1.68-5.18-2.65-5.75-1.38-.82-3.03-1.04-9.93-.27-10.21,1.15-15.31,1.72-19.83,3.72-3.52,1.55-5.86,3.08-9.09,3.47-3.59.44-5.52-.84-6.31-1.39-1.52-1.06-2.74-1.91-2.39-4.06.6-3.75,5.42-8.1,5.85-8.48,4.7-4.17,9.3-4.99,10.85-5.27,4.96-.88,7.09,1.27,7.73,2.03"/>
        <path class="cls-29" d="M347.44,513.87c10.94-1.19,20.55-5.55,26.38-8.65,7.52-3.99,16.32-8.67,20.42-15.88,2.45-4.31,2.92-9,.92-11.21-1.82-2-5.46-1.73-8.85-.1-2.03.98-7.97,4.36-20.99,24.62-11.66,18.14-10.89,21.62-22.58,38.93-5.17,7.65-11.09,15.51-19.08,21.71-6.68,5.18-10.4,5.78-11.44,5.91-1.06.12-4.84.57-5.31-2.47-.4-2.58,1.81-6.19,3.85-9.5,1.38-2.25,4.39-6.75,9.84-11.97,5.52-5.3,10.32-8.24,13.75-10.31,14.66-8.83,22-13.24,28.52-15.99,13.57-5.72,24.77-10.43,29.89-5.49,3.67,3.54,2.69,10.56,2.2,14.02-1.33,9.52-5.91,13.35-8.36,26.27-.27,1.45-1.42,7.82.44,13.36,1.2,3.57,2.72,4.01,3.93,4,2.67-.02,6.62-2.2,9.74-5.59,4.7-5.12,4.92-10.18,4.97-11.27.18-4.18-2.43-5.46-3.56-5.98-1.61-.73-3.43-.79-10.88.85-11.02,2.43-16.53,3.64-21.24,6.34-3.67,2.1-6.05,4.03-9.54,4.84-3.87.9-6.13-.29-7.05-.79-1.78-.98-3.21-1.77-3.08-4.16.23-4.17,5-9.48,5.42-9.94,4.65-5.1,9.59-6.52,11.25-7,5.32-1.54,7.89.57,8.68,1.34"/>
        <path class="cls-26" d="M346.2,516.07c11.82-2.55,21.82-8.43,27.84-12.49,7.76-5.23,16.84-11.35,20.49-19.7,2.18-4.99,2.16-10.17-.29-12.36-2.22-1.98-6.17-1.27-9.69.91-2.11,1.3-8.21,5.68-20.11,29.32-10.66,21.16-9.42,24.88-20.21,45.14-4.77,8.95-10.33,18.22-18.36,25.92-6.7,6.43-10.7,7.52-11.82,7.77-1.14.26-5.22,1.17-6.09-2.09-.74-2.77,1.27-6.97,3.11-10.82,1.25-2.62,4.02-7.88,9.38-14.22,5.43-6.42,10.33-10.19,13.84-12.84,15.01-11.33,22.52-17,29.33-20.75,14.18-7.81,25.87-14.24,32.04-9.44,4.42,3.44,4.15,11.23,4.02,15.07-.36,10.56-4.93,15.27-6.12,29.67-.13,1.62-.65,8.71,2.02,14.55,1.72,3.77,3.43,4.07,4.75,3.92,2.92-.33,6.98-3.16,10-7.22,4.55-6.13,4.21-11.69,4.14-12.89-.28-4.59-3.28-5.69-4.58-6.13-1.84-.62-3.84-.47-11.8,2.18-11.77,3.92-17.65,5.88-22.49,9.37-3.77,2.72-6.15,5.1-9.87,6.39-4.13,1.42-6.74.39-7.8-.06-2.06-.87-3.71-1.57-3.84-4.19-.23-4.59,4.37-10.93,4.78-11.48,4.5-6.11,9.73-8.23,11.49-8.95,5.63-2.29,8.69-.28,9.64.46"/>
        <path class="cls-7" d="M345.1,518.61c12.62-4.15,22.88-11.72,28.99-16.85,7.88-6.61,17.1-14.34,20.13-23.88,1.81-5.7,1.2-11.37-1.73-13.47-2.65-1.91-6.88-.68-10.48,2.1-2.15,1.66-8.31,7.15-18.61,34.35-9.22,24.35-7.43,28.27-16.9,51.65-4.18,10.33-9.2,21.1-17.08,30.44-6.59,7.79-10.83,9.44-12.03,9.85-1.22.41-5.57,1.88-6.89-1.58-1.12-2.94.59-7.77,2.16-12.19,1.07-3,3.49-9.07,8.62-16.61,5.2-7.64,10.12-12.32,13.65-15.63,15.1-14.11,22.66-21.17,29.67-26.05,14.6-10.16,26.64-18.54,33.93-13.99,5.22,3.26,5.83,11.79,6.12,16.01.82,11.58-3.63,17.26-3.28,33.13.04,1.78.29,9.59,3.88,15.67,2.32,3.92,4.21,4.05,5.65,3.74,3.15-.69,7.27-4.26,10.1-9.04,4.27-7.23,3.26-13.26,3.04-14.56-.84-4.99-4.24-5.84-5.7-6.17-2.08-.46-4.26-.07-12.64,3.74-12.41,5.63-18.61,8.45-23.5,12.82-3.81,3.4-6.14,6.28-10.05,8.11-4.35,2.03-7.32,1.2-8.53.83-2.35-.71-4.23-1.28-4.68-4.14-.78-4.99,3.52-12.45,3.9-13.1,4.22-7.19,9.69-10.11,11.53-11.1,5.9-3.15,9.47-1.31,10.59-.6"/>
        <path class="cls-25" d="M344.19,521.52c13.32-5.98,23.66-15.43,29.75-21.74,7.85-8.13,17.04-17.63,19.26-28.41,1.32-6.44,0-12.56-3.44-14.53-3.12-1.78-7.6.05-11.21,3.5-2.16,2.07-8.27,8.77-16.4,39.68-7.28,27.67-4.88,31.75-12.53,58.39-3.38,11.77-7.63,24.12-15.18,35.23-6.3,9.27-10.75,11.56-12.01,12.14-1.29.59-5.87,2.7-7.71-.94-1.57-3.09-.25-8.55.96-13.57.82-3.41,2.77-10.32,7.51-19.15,4.8-8.95,9.64-14.63,13.13-18.64,14.89-17.16,22.33-25.74,29.44-31.88,14.79-12.78,26.99-23.32,35.47-19.19,6.08,2.96,7.72,12.22,8.53,16.79,2.22,12.56-1.99,19.28.23,36.59.25,1.94,1.41,10.45,6.04,16.68,2.98,4.02,5.07,3.95,6.6,3.44,3.37-1.12,7.46-5.49,10-11.04,3.84-8.39,2.04-14.87,1.65-16.26-1.49-5.35-5.3-5.9-6.94-6.09-2.33-.27-4.66.41-13.39,5.53-12.92,7.58-19.37,11.37-24.21,16.71-3.77,4.16-5.98,7.57-10.05,10.02-4.52,2.72-7.86,2.15-9.23,1.89-2.65-.51-4.78-.92-5.59-3.99-1.42-5.36,2.42-14.01,2.76-14.76,3.78-8.34,9.43-12.17,11.32-13.45,6.08-4.12,10.2-2.52,11.51-1.87"/>
        <path class="cls-19" d="M343.53,524.81c13.87-8.07,24.08-19.58,30.02-27.18,7.65-9.78,16.6-21.23,17.78-33.26.71-7.19-1.44-13.73-5.43-15.48-3.61-1.59-8.3.93-11.85,5.12-2.13,2.51-8.03,10.54-13.36,45.25-4.78,31.08-1.68,35.26-6.99,65.26-2.35,13.26-5.57,27.24-12.54,40.24-5.82,10.86-10.42,13.87-11.73,14.65-1.34.79-6.11,3.62-8.54-.14-2.07-3.2-1.25-9.32-.51-14.94.51-3.82,1.85-11.59,6.01-21.79,4.22-10.33,8.86-17.09,12.21-21.88,14.3-20.46,21.45-30.69,28.51-38.22,14.69-15.66,26.81-28.59,36.57-25.05,6.99,2.54,9.84,12.47,11.25,17.37,3.87,13.48.04,21.29,4.45,39.96.49,2.09,2.75,11.26,8.51,17.54,3.72,4.05,6,3.73,7.61,3,3.55-1.61,7.52-6.86,9.66-13.22,3.23-9.61.52-16.48-.06-17.96-2.24-5.68-6.47-5.84-8.29-5.86-2.57-.03-5.04.98-14,7.59-13.24,9.77-19.87,14.66-24.54,21.04-3.64,4.98-5.67,8.96-9.83,12.1-4.63,3.49-8.34,3.26-9.87,3.13-2.95-.25-5.32-.45-6.57-3.72-2.17-5.69,1.04-15.59,1.32-16.45,3.18-9.55,8.91-14.38,10.83-16,6.17-5.2,10.86-3.92,12.36-3.37"/>
        <path class="cls-10" d="M343.19,528.47c14.23-10.41,24.07-24.17,29.68-33.15,7.23-11.57,15.7-25.11,15.61-38.39-.05-7.94-3.15-14.83-7.71-16.29-4.13-1.32-8.96,1.97-12.37,6.95-2.04,2.98-7.56,12.44-9.4,50.99-1.65,34.51,2.21,38.73-.14,72.12-1.04,14.76-2.96,30.41-9.08,45.42-5.12,12.54-9.79,16.36-11.14,17.36-1.37,1.02-6.26,4.66-9.35.83-2.63-3.26-2.44-10.04-2.27-16.27.11-4.23.69-12.88,4.06-24.5,3.42-11.78,7.72-19.7,10.83-25.32,13.28-24,19.91-36,26.77-45.04,14.26-18.81,26.02-34.32,37.08-31.58,7.93,1.97,12.19,12.5,14.29,17.69,5.78,14.28,2.49,23.27,9.45,43.16.78,2.23,4.29,11.99,11.32,18.19,4.53,4,6.98,3.39,8.66,2.4,3.7-2.16,7.43-8.36,9.04-15.55,2.43-10.87-1.33-18.07-2.13-19.62-3.1-5.95-7.74-5.64-9.73-5.45-2.82.27-5.4,1.65-14.43,9.9-13.35,12.2-20.03,18.3-24.4,25.82-3.41,5.86-5.17,10.45-9.36,14.36-4.66,4.35-8.74,4.52-10.42,4.55-3.26.06-5.87.12-7.61-3.31-3.03-5.97-.66-17.16-.44-18.13,2.37-10.8,8.08-16.74,10-18.73,6.15-6.39,11.41-5.53,13.12-5.1"/>
        <path class="cls-5" d="M343.23,532.52c14.35-13.01,23.53-29.18,28.63-39.64,6.58-13.47,14.27-29.24,12.65-43.75-.97-8.67-5.15-15.85-10.3-16.92-4.66-.97-9.57,3.18-12.72,9.02-1.88,3.5-6.83,14.46-4.42,56.8,2.16,37.91,6.87,42.07,8.13,78.84.56,16.25.26,33.57-4.71,50.68-4.15,14.29-8.82,19-10.18,20.25-1.38,1.27-6.3,5.81-10.12,1.98-3.24-3.26-3.82-10.69-4.35-17.52-.36-4.63-.73-14.16,1.62-27.24,2.39-13.27,6.17-22.42,8.92-28.91,11.75-27.76,17.63-41.64,24.08-52.3,13.42-22.19,24.5-40.5,36.9-38.77,8.89,1.24,14.76,12.26,17.65,17.7,7.96,14.94,5.4,25.14,15.29,46.08,1.11,2.35,6.07,12.61,14.46,18.58,5.41,3.85,8.02,2.9,9.74,1.63,3.79-2.79,7.16-9.98,8.09-18.04,1.4-12.16-3.53-19.6-4.59-21.2-4.08-6.15-9.11-5.27-11.26-4.84-3.05.62-5.71,2.43-14.63,12.47-13.19,14.87-19.79,22.3-23.7,31.02-3.05,6.79-4.45,12.01-8.58,16.77-4.59,5.29-9.03,5.94-10.87,6.17-3.55.44-6.4.8-8.69-2.74-3.99-6.18-2.69-18.68-2.57-19.77,1.35-12.08,6.91-19.22,8.78-21.62,5.99-7.69,11.84-7.36,13.75-7.08"/>
        <path class="cls-30" d="M343.75,536.93c14.19-15.87,22.36-34.59,26.74-46.61,5.64-15.48,12.24-33.6,8.8-49.27-2.06-9.36-7.45-16.73-13.2-17.31-5.21-.53-10.09,4.58-12.86,11.32-1.66,4.04-5.81,16.59,1.69,62.59,6.71,41.18,12.33,45.19,17.94,85.22,2.48,17.69,4.14,36.66.68,55.93-2.89,16.09-7.46,21.78-8.8,23.3-1.36,1.55-6.22,7.08-10.83,3.33-3.92-3.19-5.41-11.25-6.77-18.64-.93-5.02-2.42-15.39-1.35-29.96,1.08-14.77,4.17-25.21,6.43-32.63,9.66-31.69,14.48-47.53,20.31-59.92,12.12-25.8,22.12-47.07,35.88-46.61,9.86.34,17.53,11.7,21.32,17.31,10.41,15.42,8.79,26.86,22,48.6,1.48,2.44,8.08,13.09,17.94,18.64,6.36,3.58,9.1,2.25,10.83.67,3.82-3.48,6.68-11.73,6.77-20.64.14-13.45-6.11-21.01-7.45-22.64-5.16-6.25-10.56-4.72-12.86-3.99-3.26,1.02-5.96,3.31-14.55,15.31-12.71,17.76-19.06,26.64-22.34,36.62-2.55,7.77-3.48,13.64-7.45,19.31-4.41,6.31-9.19,7.53-11.17,7.99-3.83.89-6.91,1.61-9.82-2-5.08-6.29-5.09-20.1-5.08-21.31.09-13.36,5.34-21.8,7.11-24.64,5.66-9.09,12.09-9.4,14.22-9.32"/>
        <path class="cls-21" d="M344.81,541.7c13.69-18.98,20.46-40.37,23.87-54.01,4.39-17.57,9.52-38.12,3.96-54.86-3.32-10-10.06-17.43-16.41-17.4-5.75.02-10.51,6.16-12.76,13.85-1.35,4.6-4.44,18.8,9.04,68.21,12.07,44.23,18.67,47.97,29.39,91.08,4.74,19.05,8.74,39.59,7.16,61.05-1.31,17.92-5.65,24.66-6.94,26.48-1.31,1.85-5.99,8.45-11.45,4.88-4.65-3.03-7.2-11.67-9.54-19.6-1.59-5.38-4.42-16.54-4.92-32.59-.51-16.27,1.66-28.03,3.28-36.39,6.91-35.74,10.37-53.61,15.31-67.82,10.28-29.58,18.77-53.99,33.85-55.06,10.81-.77,20.51,10.77,25.29,16.47,13.15,15.66,12.69,28.34,29.63,50.59,1.9,2.5,10.34,13.37,21.75,18.31,7.36,3.19,10.2,1.41,11.91-.52,3.78-4.25,5.95-13.59,5.03-23.33-1.39-14.72-9.09-22.27-10.74-23.89-6.36-6.24-12.09-3.94-14.51-2.89-3.45,1.49-6.14,4.3-14.15,18.41-11.85,20.87-17.77,31.31-20.21,42.59-1.9,8.79-2.24,15.3-5.92,21.96-4.1,7.4-9.18,9.28-11.29,10.01-4.08,1.42-7.36,2.55-10.96-1.06-6.27-6.3-7.87-21.38-8-22.7-1.43-14.61,3.34-24.44,4.94-27.74,5.14-10.59,12.13-11.67,14.46-11.82"/>
        <path class="cls-3" d="M346.53,546.79c12.78-22.31,17.73-46.47,19.88-61.77,2.78-19.7,6.02-42.76-1.98-60.41-4.78-10.55-13-17.89-19.94-17.13-6.29.69-10.77,7.94-12.35,16.6-.94,5.18-2.7,21.05,17.71,73.5,18.27,46.96,25.92,50.28,42.59,96.16,7.37,20.28,14.1,42.26,14.84,65.89.62,19.73-3.34,27.6-4.54,29.74-1.22,2.18-5.57,9.92-11.96,6.65-5.43-2.78-9.21-11.93-12.68-20.32-2.36-5.7-6.73-17.57-9.12-35.05-2.43-17.72-1.4-30.82-.6-40.15,3.45-39.85,5.17-59.78,8.94-75.88,7.84-33.51,14.31-61.16,30.68-64.06,11.73-2.08,23.65,9.42,29.53,15.09,16.17,15.6,17.12,29.52,38.19,51.89,2.36,2.51,12.83,13.43,25.87,17.52,8.41,2.64,11.31.37,12.96-1.93,3.64-5.08,4.94-15.54,2.81-26.08-3.21-15.92-12.49-23.29-14.48-24.87-7.66-6.09-13.66-2.92-16.19-1.49-3.59,2.03-6.21,5.4-13.35,21.74-10.55,24.17-15.83,36.26-17.19,48.86-1.06,9.82-.69,16.98-3.95,24.68-3.63,8.56-8.97,11.2-11.19,12.24-4.3,2.02-7.75,3.64-12.1.1-7.58-6.16-11.05-22.47-11.35-23.89-3.25-15.8.84-27.09,2.21-30.88,4.4-12.16,11.92-14.14,14.45-14.58"/>
        <path class="cls-16" d="M348.99,552.15c11.4-25.85,14.04-52.83,14.63-69.79.77-21.85,1.67-47.42-9.1-65.79-6.43-10.98-16.26-18.06-23.76-16.44-6.79,1.47-10.86,9.92-11.59,19.56-.44,5.77-.53,23.32,27.8,78.29,25.36,49.22,34.1,51.97,57.59,100.2,10.38,21.31,20.26,44.57,23.79,70.31,2.95,21.5-.48,30.55-1.55,33.02-1.09,2.52-4.95,11.48-12.3,8.64-6.25-2.41-11.43-11.98-16.19-20.75-3.23-5.96-9.37-18.43-14-37.26-4.69-19.09-5.07-33.52-5.26-43.81-.81-43.95-1.21-65.92,1.06-83.95,4.72-37.53,8.61-68.48,26.17-73.53,12.58-3.62,26.93,7.58,34.01,13.1,19.46,15.19,22.1,30.29,47.7,52.32,2.87,2.47,15.57,13.2,30.28,16.17,9.49,1.92,12.4-.89,13.94-3.6,3.39-5.97,3.62-17.55.08-28.83-5.34-17.03-16.32-24.02-18.68-25.52-9.07-5.77-15.27-1.62-17.87.23-3.7,2.63-6.17,6.62-12.09,25.3-8.75,27.63-13.13,41.44-13.18,55.38-.03,10.86,1.2,18.64-1.48,27.42-2.98,9.77-8.51,13.27-10.82,14.66-4.47,2.7-8.06,4.86-13.21,1.5-8.99-5.86-14.66-23.28-15.14-24.81-5.36-16.9-2.2-29.7-1.13-34.01,3.41-13.8,11.4-16.83,14.12-17.59"/>
        <path class="cls-31" d="M352.29,557.73c9.49-29.56,9.27-59.34,7.98-77.95-1.67-23.97-3.62-52.02-17.5-70.86-8.29-11.26-19.85-17.87-27.85-15.23-7.25,2.39-10.73,12.09-10.42,22.71.19,6.36,2.1,25.54,39.38,82.37,33.37,50.88,43.23,52.88,74.45,102.9,13.79,22.1,27.26,46.38,34.07,74.11,5.69,23.15,2.98,33.44,2.1,36.26-.9,2.88-4.09,13.12-12.45,10.86-7.11-1.92-13.87-11.78-20.08-20.82-4.21-6.14-12.36-19.06-19.57-39.11-7.32-20.32-9.4-36.05-10.78-47.28-5.93-47.94-8.9-71.91-8.49-91.87.85-41.55,1.54-75.83,20.15-83.37,13.33-5.4,30.3,5.19,38.67,10.41,23.02,14.37,27.63,30.57,58.14,51.7,3.42,2.37,18.53,12.64,34.95,14.2,10.59,1,13.45-2.4,14.82-5.54,3.02-6.91,1.94-19.59-3.22-31.51-7.79-18-20.6-24.37-23.35-25.74-10.58-5.27-16.87-.02-19.5,2.31-3.74,3.3-5.98,7.94-10.31,29.03-6.39,31.2-9.59,46.8-8.04,62.03,1.21,11.87,3.45,20.23,1.53,30.14-2.14,11.02-7.78,15.48-10.14,17.27-4.57,3.46-8.24,6.24-14.26,3.16-10.5-5.37-18.7-23.76-19.4-25.37-7.8-17.85-5.81-32.21-5.14-37.03,2.14-15.47,10.53-19.7,13.41-20.85"/>
        <path class="cls-24" d="M356.55,563.44c6.98-33.4,3.32-65.92-.24-86.1-4.58-26-9.93-56.43-27.27-75.43-10.36-11.35-23.74-17.25-32.19-13.45-7.65,3.44-10.34,14.44-8.78,26.01.94,6.93,5.23,27.67,52.5,85.5,42.31,51.77,53.32,52.83,93.18,103.9,17.61,22.57,35.12,47.56,45.75,77.07,8.88,24.65,7.1,36.2,6.46,39.39-.65,3.25-2.97,14.81-12.36,13.3-7.99-1.28-16.51-11.28-24.33-20.45-5.31-6.23-15.69-19.41-25.89-40.5-10.33-21.37-14.41-38.32-17.22-50.43-11.99-51.71-17.98-77.57-19.83-99.43-3.85-45.51-7.02-83.05,12.45-93.43,13.95-7.43,33.71,2.19,43.46,6.94,26.8,13.06,33.71,30.23,69.47,49.83,4.01,2.2,21.7,11.69,39.83,11.5,11.69-.12,14.42-4.17,15.56-7.75,2.51-7.9-.14-21.64-7.14-34.07-10.59-18.78-25.31-24.27-28.47-25.45-12.17-4.54-18.44,1.92-21.05,4.76-3.71,4.03-5.63,9.37-7.93,32.91-3.4,34.83-5.11,52.25-1.66,68.72,2.69,12.83,6.1,21.72,5.14,32.76-1.07,12.28-6.72,17.81-9.1,20.04-4.6,4.31-8.29,7.77-15.22,5.09-12.09-4.67-23.16-23.82-24.12-25.5-10.58-18.61-10.05-34.53-9.87-39.88.57-17.15,9.25-22.74,12.26-24.33"/>
        <path class="cls-12" d="M361.85,569.2c3.79-37.3-3.95-72.43-10.15-94.07-7.99-27.89-17.34-60.53-38.46-79.3-12.62-11.21-27.93-16.13-36.72-11-7.97,4.64-9.64,16.97-6.61,29.44,1.82,7.47,8.9,29.64,67.19,87.41,52.19,51.72,64.35,51.61,113.77,102.85,21.84,22.64,43.85,47.94,58.85,78.98,12.53,25.92,11.92,38.75,11.58,42.31-.34,3.62-1.54,16.52-11.98,15.95-8.88-.48-19.34-10.43-28.94-19.55-6.52-6.2-19.38-19.41-32.94-41.28-13.75-22.17-20.15-40.23-24.61-53.14-19.04-55.14-28.56-82.7-33.09-106.39-9.43-49.3-17.21-89.96,2.87-103.53,14.39-9.73,37.09-1.48,48.3,2.59,30.79,11.19,40.32,29.17,81.65,46.47,4.64,1.94,25.06,10.28,44.85,7.99,12.76-1.47,15.29-6.21,16.12-10.26,1.84-8.92-2.63-23.63-11.72-36.41-13.73-19.31-30.45-23.62-34.04-24.54-13.82-3.56-19.93,4.22-22.46,7.62-3.59,4.83-5.07,10.89-4.88,36.88.28,38.46.42,57.69,6.08,75.29,4.41,13.72,9.16,23.03,9.38,35.22.24,13.55-5.3,20.24-7.64,22.94-4.53,5.24-8.17,9.44-16.05,7.31-13.75-3.71-28.05-23.37-29.29-25.1-13.7-19.13-14.95-36.59-15.37-42.45-1.35-18.81,7.49-25.91,10.6-27.99"/>
        <path class="cls-2" d="M368.3,574.88c-.14-41.2-12.63-78.7-21.9-101.65-11.93-29.57-25.9-64.16-51.14-82.25-15.08-10.81-32.38-14.42-41.4-7.8-8.17,5.99-8.59,19.65-3.84,32.93,2.84,7.95,13.13,31.38,83.47,87.81,62.98,50.53,76.25,49.01,136.15,99.33,26.47,22.24,53.43,47.36,73.39,79.55,16.67,26.89,17.47,40.98,17.52,44.91.05,4,.21,18.23-11.26,18.81-9.76.49-22.34-9.18-33.87-18.05-7.84-6.02-23.41-18.99-40.74-41.33-17.57-22.65-26.64-41.65-33-55.24-27.14-58.07-40.71-87.1-48.39-112.47-15.97-52.79-29.15-96.34-8.76-113.48,14.61-12.28,40.36-5.88,53.08-2.71,34.94,8.69,47.41,27.25,94.57,41.41,5.29,1.59,28.57,8.35,49.94,3.58,13.78-3.08,15.99-8.55,16.44-13.07.98-9.96-5.59-25.52-16.99-38.45-17.22-19.52-35.99-22.31-40.02-22.91-15.51-2.31-21.3,6.9-23.67,10.91-3.36,5.69-4.29,12.48-1.1,40.87,4.73,42,7.09,63,15.29,81.59,6.39,14.48,12.65,24.12,14.29,37.41,1.82,14.78-3.47,22.73-5.72,25.95-4.35,6.24-7.85,11.26-16.7,9.84-15.45-2.48-33.34-22.32-34.89-24.07-17.17-19.33-20.54-38.27-21.68-44.63-3.64-20.4,5.21-29.18,8.37-31.81"/>
        <path class="cls-18" d="M376.01,580.36c-4.89-45.01-22.85-84.56-35.61-108.57-16.44-30.94-35.68-67.15-65.34-84.01-17.72-10.08-37.04-12.04-46.14-3.77-8.24,7.48-7.13,22.47-.41,36.43,4.02,8.36,17.95,32.78,101.31,86.38,74.63,47.99,88.96,44.81,160.21,92.92,31.48,21.26,63.83,45.62,89.35,78.51,21.31,27.47,23.8,42.78,24.31,47.07.51,4.36,2.33,19.9-10.15,21.85-10.61,1.66-25.47-7.46-39.09-15.83-9.26-5.68-27.77-18.07-49.28-40.49-21.8-22.73-33.9-42.46-42.41-56.59-36.33-60.35-54.5-90.52-65.8-117.36-23.52-55.86-42.92-101.94-22.6-123.01,14.56-15.1,43.44-11.06,57.7-9.06,39.18,5.49,54.94,24.33,108.11,34.39,5.97,1.13,32.18,5.85,54.99-1.82,14.71-4.95,16.49-11.18,16.46-16.17-.07-11-9.04-27.25-22.99-40.07-21.06-19.36-41.9-20.25-46.37-20.44-17.22-.74-22.48,9.98-24.61,14.64-3.02,6.61-3.26,14.13,3.49,44.79,9.99,45.36,14.98,68.03,26.09,87.41,8.65,15.1,16.6,24.91,19.92,39.24,3.69,15.94-1.18,25.24-3.27,29.02-4.04,7.32-7.28,13.2-17.12,12.67-17.17-.94-39-20.57-40.89-22.29-20.98-19.15-26.85-39.46-28.82-46.29-6.32-21.88,2.35-32.49,5.5-35.73"/>
        <path class="cls-14" d="M385.07,585.45c-10.51-48.63-34.68-89.79-51.39-114.57-21.52-31.93-46.7-69.29-81.06-84.31-20.53-8.98-41.86-8.9-50.86,1.18-8.15,9.13-5.21,25.37,3.73,39.86,5.36,8.68,23.38,33.76,120.65,82.77,87.08,43.87,102.37,38.75,185.76,83.15,36.85,19.62,75,42.52,106.66,75.54,26.45,27.58,30.93,44.02,31.97,48.65,1.06,4.71,4.83,21.48-8.58,25.05-11.41,3.03-28.69-5.23-44.54-12.81-10.77-5.15-32.42-16.55-58.5-38.59-26.44-22.34-41.93-42.51-52.85-56.97-46.64-61.78-69.96-92.67-85.39-120.7-32.12-58.35-58.62-106.48-38.83-131.84,14.18-18.18,46.2-17.08,62.02-16.53,43.45,1.5,62.84,20.28,122.11,25.17,6.65.55,35.84,2.69,59.88-8.31,15.51-7.09,16.74-14.11,16.14-19.56-1.34-12.01-13.01-28.74-29.72-41.15-25.24-18.74-48.12-17.32-53.03-17.02-18.9,1.17-23.42,13.49-25.22,18.83-2.55,7.57-1.94,15.82,8.96,48.55,16.13,48.42,24.19,72.63,38.55,92.53,11.19,15.5,21,25.31,26.28,40.6,5.86,17,1.61,27.72-.24,32.09-3.57,8.47-6.44,15.27-17.26,15.81-18.87.95-44.99-18-47.25-19.67-25.13-18.52-33.87-40.04-36.81-47.27-9.42-23.19-1.17-35.77,1.9-39.68"/>
        <path class="cls-11" d="M395.55,589.97c-17.07-51.94-48.22-94.14-69.32-119.31-27.19-32.42-59-70.36-98.27-82.83-23.47-7.45-46.77-4.92-55.45,7.13-7.86,10.91-2.78,28.33,8.66,43.14,6.85,8.87,29.43,34.21,141.36,76.6,100.2,37.94,116.33,30.59,212.56,69.53,42.53,17.21,86.85,37.86,125.25,70.31,32.07,27.1,38.86,44.55,40.53,49.49,1.7,5.03,7.75,22.92-6.5,28.36-12.12,4.62-31.95-2.42-50.15-8.88-12.36-4.39-37.33-14.37-68.37-35.46-31.46-21.38-50.7-41.64-64.3-56.19-58.07-62.16-87.1-93.24-107.19-122.1-41.8-60.08-76.29-109.63-57.59-139.63,13.4-21.5,48.53-23.97,65.88-25.19,47.66-3.36,71.01,14.94,136.34,13.48,7.33-.16,39.48-1.17,64.49-15.96,16.13-9.53,16.68-17.34,15.39-23.23-2.84-12.97-17.52-29.92-37.21-41.56-29.74-17.58-54.58-13.4-59.9-12.51-20.52,3.45-24.05,17.44-25.4,23.47-1.91,8.56-.3,17.51,15.37,52.03,23.19,51.07,34.78,76.6,52.76,96.7,14.01,15.66,25.86,25.25,33.38,41.35,8.36,17.9,4.94,30.11,3.43,35.1-2.93,9.66-5.29,17.43-17.04,19.26-20.52,3.21-51.23-14.5-53.9-16.07-29.59-17.36-41.62-39.87-45.66-47.44-12.96-24.26-5.39-38.96-2.48-43.58"/>
        <path class="cls-4" d="M407.52,593.72c-24.62-54.8-63.51-97.35-89.46-122.42-33.44-32.31-72.56-70.12-116.92-79.24-26.5-5.45-51.68,0-59.78,14.16-7.33,12.83.21,31.28,14.42,46.15,8.5,8.9,36.1,34.01,163.29,67.47,113.87,29.96,130.65,20.07,240.29,51.58,48.45,13.92,99.26,31.4,144.96,62.45,38.16,25.93,47.58,44.23,49.98,49.43,2.43,5.3,11.1,24.16-3.85,31.74-12.71,6.44-35.2,1.02-55.83-3.95-14.01-3.38-42.45-11.41-78.79-30.9-36.84-19.75-60.2-39.68-76.72-54.02-70.6-61.26-105.9-91.89-131.17-121.13-52.59-60.85-95.97-111.05-78.97-145.98,12.18-25.03,50.29-31.77,69.1-35.1,51.7-9.14,79.32,8.18,150.55-.93,7.99-1.02,43.02-5.82,68.65-24.85,16.53-12.27,16.23-20.87,14.15-27.16-4.6-13.85-22.59-30.68-45.44-41.14-34.52-15.8-61.18-8.38-66.91-6.79-22.03,6.13-24.28,21.82-25.06,28.57-1.11,9.58,1.68,19.17,22.77,55.1,31.21,53.15,46.81,79.72,68.77,99.62,17.11,15.5,31.16,24.63,41.23,41.36,11.19,18.61,8.86,32.34,7.78,37.96-2.09,10.9-3.77,19.65-16.42,23.01-22.05,5.86-57.66-9.96-60.75-11.37-34.33-15.57-50.06-38.8-55.35-46.6-16.95-25.02-10.36-41.96-7.71-47.34"/>
        <path class="cls-22" d="M421.04,596.43c-33.21-57.07-80.59-99.09-111.83-123.52-40.25-31.47-87.36-68.29-136.88-73.17-29.59-2.91-56.48,5.93-63.7,22.34-6.54,14.86,3.83,34.16,21.06,48.78,10.32,8.75,43.36,33.02,186.21,54.98,127.88,19.66,145.09,6.92,268.54,28.76,54.55,9.65,112.09,22.91,165.6,51.6,44.69,23.96,57.08,42.87,60.3,48.28,3.27,5.51,14.91,25.13-.56,35.13-13.15,8.5-38.35,5.16-61.47,2.1-15.7-2.08-47.71-7.6-89.66-24.72-42.53-17.35-70.35-36.46-90.06-50.23-84.2-58.84-126.29-88.26-157.27-117.31-64.46-60.46-117.64-110.34-103.08-150.47,10.44-28.76,51.31-40.5,71.49-46.3,55.45-15.93,87.63-.18,164.43-18.31,8.62-2.03,46.34-11.3,72.17-35.04,16.66-15.31,15.34-24.67,12.34-31.3-6.62-14.61-28.21-30.94-54.39-39.74-39.54-13.3-67.83-2.13-73.9.27-23.38,9.23-24.03,26.63-24.11,34.1-.11,10.59,4.04,20.76,31.22,57.6,40.21,54.5,60.31,81.75,86.6,100.97,20.48,14.98,36.89,23.33,49.81,40.46,14.37,19.05,13.4,34.32,12.86,40.6-1.04,12.15-1.87,21.91-15.3,27.03-23.43,8.94-64.16-4.27-67.7-5.44-39.31-13.07-59.17-36.65-65.84-44.57-21.4-25.4-16.15-44.67-13.87-50.86"/>
        <path class="cls-9" d="M436.12,597.85c-42.85-58.55-99.46-99.04-136.41-122.15-47.61-29.77-103.32-64.6-158-64.24-32.67.22-61.05,12.97-67.05,31.73-5.44,16.99,8.11,36.89,28.62,50.89,12.28,8.38,51.18,31.11,209.82,38.7,142.02,6.8,159.36-9.1,296.78.59,60.73,4.28,125.13,12.17,186.9,37.37,51.59,21.05,67.31,40.29,71.44,45.84,4.21,5.65,19.18,25.76,3.42,38.46-13.4,10.8-41.32,10.05-66.94,9.35-17.4-.47-53.01-2.82-100.83-16.72-48.47-14.08-81.07-31.76-104.19-44.55-98.78-54.63-148.16-81.95-185.35-110.14-77.4-58.68-141.24-107.08-129.93-152.61,8.1-32.63,51.42-50.15,72.81-58.81,58.77-23.78,95.75-10.26,177.6-38.89,9.19-3.21,49.35-17.67,74.85-46.58,16.45-18.65,13.94-28.73,9.89-35.63-8.91-15.21-34.38-30.57-64-37.19-44.74-9.99-74.37,5.46-80.73,8.78-24.49,12.77-23.2,31.87-22.43,40.04,1.1,11.59,6.8,22.22,40.73,59.36,50.2,54.94,75.3,82.41,106.24,100.4,24.1,14.02,42.99,21.26,59.08,38.5,17.89,19.17,18.58,35.97,18.72,42.89.26,13.4.48,24.16-13.61,31.3-24.58,12.46-70.61,2.71-74.62,1.83-44.46-9.77-68.88-33.26-77.08-41.15-26.3-25.3-22.78-46.96-21-53.99"/>
        <path class="cls-28" d="M452.77,597.66c-53.55-59.07-120.07-96.81-163.11-117.82-55.45-27.06-120.33-58.74-180.05-52.06-35.68,3.99-65.23,21.19-69.64,42.38-4,19.19,13.1,39.39,37.12,52.33,14.38,7.75,59.5,28.12,233.75,18.2,155.99-8.89,173.12-28.25,324.42-33.45,66.86-2.3,138.15-1.08,208.56,19.37,58.8,17.08,78.19,36.3,83.34,41.89,5.24,5.69,23.92,25.95,8.16,41.64-13.4,13.35-44.01,15.73-72.08,17.91-19.07,1.48-58.26,3-112.11-6.69-54.59-9.82-92.25-25.4-118.99-36.72-114.23-48.36-171.34-72.54-215.22-99.08-91.32-55.24-166.66-100.8-159.53-151.85,5.11-36.59,50.44-60.72,72.82-72.63,61.5-32.74,103.46-22.21,189.63-62.91,9.67-4.57,51.9-24.98,76.45-59.51,15.83-22.27,11.93-33,6.72-40.07-11.48-15.59-41.09-29.46-74.22-33.29-50.04-5.78-80.65,14.51-87.22,18.87-25.29,16.77-21.7,37.49-19.91,46.33,2.53,12.54,9.98,23.51,51.34,60.19,61.18,54.28,91.77,81.42,127.64,97.53,27.95,12.55,49.43,18.3,69,35.29,21.76,18.89,24.44,37.18,25.38,44.72,1.83,14.61,3.3,26.35-11.28,35.77-25.43,16.44-76.85,11.07-81.34,10.57-49.71-5.57-79.09-28.43-88.96-36.11-31.65-24.63-30.29-48.71-29.15-56.59"/>
        <path class="cls-6" d="M470.94,595.54c-65.31-58.4-142.35-92.01-191.79-110.03-63.7-23.21-138.26-50.37-202.75-36.21-38.54,8.46-68.85,30.65-71.24,54.32-2.16,21.44,18.84,41.54,46.58,52.93,16.61,6.82,68.26,23.9,257.55-6.96,169.46-27.63,185.95-50.76,350.71-73.82,72.81-10.19,150.86-17.05,230.15-2.79,66.22,11.91,89.62,30.69,95.9,36.21,6.39,5.62,29.12,25.61,13.7,44.57-13.11,16.13-46.29,22.24-76.72,27.86-20.67,3.81-63.32,9.97-123.3,5.57-60.79-4.46-103.73-17.16-134.25-26.46-130.39-39.73-195.59-59.6-246.59-83.57-106.15-49.88-193.72-91.02-191.79-147.63,1.38-40.57,48.15-72.15,71.24-87.74,63.45-42.84,110.52-36.16,200.01-90.53,10.04-6.1,53.85-33.26,76.72-73.82,14.75-26.16,9.25-37.43,2.74-44.57-14.34-15.72-48.29-27.48-84.94-27.86-55.35-.57-86.48,25.13-93.16,30.64-25.72,21.23-19.41,43.47-16.44,52.93,4.21,13.42,13.61,24.54,63.02,59.89,73.09,52.29,109.64,78.44,150.69,91.92,31.99,10.51,56.12,14.32,79.46,30.64,25.95,18.15,30.98,37.82,32.88,45.96,3.68,15.76,6.63,28.42-8.22,40.39-25.9,20.89-82.72,20.93-87.68,20.89-54.97-.38-89.71-21.99-101.38-29.25-37.42-23.28-38.69-49.76-38.36-58.5"/>
      </g>
      <ellipse class="cls-32" cx="716.57" cy="387.04" rx="5" ry="3.49"/>
      <ellipse class="cls-32" cx="753.57" cy="350.78" rx="5" ry="3.49"/>
      <ellipse class="cls-32" cx="726.57" cy="309.64" rx="5" ry="3.49"/>
      <circle class="cls-32" cx="196.57" cy="321.5" r="5"/>
      <circle class="cls-32" cx="220.57" cy="304.06" r="5"/>
      <circle class="cls-32" cx="244.57" cy="248.97" r="5"/>
      <circle class="cls-32" cx="889.57" cy="641.38" r="3.5"/>
      <circle class="cls-32" cx="949.57" cy="637.38" r="5"/>
      <circle class="cls-32" cx="979.57" cy="599.03" r="5"/>
      <circle class="cls-32" cx="936.07" cy="622.21" r="3.5"/>
      <ellipse class="cls-32" cx="730.07" cy="356.71" rx="3.5" ry="2.44"/>
      <ellipse class="cls-32" cx="715.07" cy="422.26" rx="3.5" ry="2.44"/>
      <ellipse class="cls-32" cx="700.07" cy="271.64" rx="3.5" ry="2.44"/>
      <circle class="cls-32" cx="219.07" cy="276.52" r="3.5"/>
      <circle class="cls-32" cx="285.07" cy="243.05" r="3.5"/>
    </g>
  </g>
</svg>