<?xml version="1.0" encoding="UTF-8"?>
<svg id="Layer_2" xmlns="http://www.w3.org/2000/svg" viewBox="0 0 1041 615.15">
  <defs>
    <style>
      .cls-1 {
        stroke-dasharray: 0 8.58;
        stroke-width: 3.02px;
      }

      .cls-1, .cls-2, .cls-3, .cls-4, .cls-5, .cls-6, .cls-7, .cls-8, .cls-9, .cls-10, .cls-11, .cls-12, .cls-13, .cls-14, .cls-15, .cls-16, .cls-17, .cls-18, .cls-19, .cls-20, .cls-21, .cls-22, .cls-23, .cls-24, .cls-25, .cls-26, .cls-27, .cls-28, .cls-29, .cls-30, .cls-31 {
        fill: none;
        stroke: #87b4db;
        stroke-linecap: round;
        stroke-linejoin: round;
      }

      .cls-2 {
        stroke-dasharray: 0 12.51;
        stroke-width: 4.4px;
      }

      .cls-3 {
        stroke-dasharray: 0 5.35;
        stroke-width: 1.88px;
      }

      .cls-4 {
        stroke-dasharray: 0 29.23;
        stroke-width: 10.29px;
      }

      .cls-5 {
        stroke-dasharray: 0 38.78;
        stroke-width: 13.65px;
      }

      .cls-6 {
        stroke-dasharray: 0 3.34;
        stroke-width: 1.18px;
      }

      .cls-7 {
        stroke-dasharray: 0 4.87;
        stroke-width: 1.71px;
      }

      .cls-8 {
        stroke-dasharray: 0 2.52;
        stroke-width: .89px;
      }

      .cls-9 {
        stroke-dasharray: 0 7.1;
        stroke-width: 2.5px;
      }

      .cls-10 {
        stroke-dasharray: 0 7.8;
        stroke-width: 2.75px;
      }

      .cls-11 {
        stroke-dasharray: 0 6.46;
        stroke-width: 2.27px;
      }

      .cls-12 {
        stroke-dasharray: 0 26.6;
        stroke-width: 9.36px;
      }

      .cls-13 {
        stroke-dasharray: 0 20.04;
        stroke-width: 7.05px;
      }

      .cls-14 {
        stroke-dasharray: 0 15.1;
        stroke-width: 5.32px;
      }

      .cls-15 {
        stroke-dasharray: 0 5.88;
        stroke-width: 2.07px;
      }

      .cls-16 {
        stroke-dasharray: 0 35.29;
        stroke-width: 12.42px;
      }

      .cls-17 {
        stroke-dasharray: 0 11.38;
        stroke-width: 4.01px;
      }

      .cls-18 {
        stroke-dasharray: 0 3.67;
        stroke-width: 1.29px;
      }

      .cls-19 {
        stroke-dasharray: 0 9.42;
        stroke-width: 3.32px;
      }

      .cls-20 {
        stroke-dasharray: 0 32.12;
        stroke-width: 11.3px;
      }

      .cls-21 {
        stroke-dasharray: 0 22.02;
        stroke-width: 7.75px;
      }

      .cls-22 {
        stroke-dasharray: 0 3.04;
        stroke-width: 1.07px;
      }

      .cls-23 {
        stroke-dasharray: 0 13.74;
        stroke-width: 4.84px;
      }

      .cls-24 {
        stroke-dasharray: 0 24.2;
        stroke-width: 8.52px;
      }

      .cls-25 {
        stroke-dasharray: 0 16.6;
        stroke-width: 5.84px;
      }

      .cls-26 {
        stroke-dasharray: 0 18.24;
        stroke-width: 6.42px;
      }

      .cls-27 {
        stroke-dasharray: 0 4.03;
        stroke-width: 1.42px;
      }

      .cls-28 {
        stroke-dasharray: 0 2.77;
        stroke-width: .97px;
      }

      .cls-29 {
        stroke-dasharray: 0 10.36;
        stroke-width: 3.65px;
      }

      .cls-30 {
        stroke-dasharray: 0 4.43;
        stroke-width: 1.56px;
      }

      .cls-32 {
        fill: #87b4db;
      }

      .cls-31 {
        stroke-dasharray: 0 42.62;
        stroke-width: 15px;
      }
    </style>
  </defs>
  <g id="low_bad">
    <g>
      <g>
        <g>
          <line class="cls-8" x1="509.33" y1="279.04" x2="539.62" y2="331.52"/>
          <line class="cls-8" x1="500.56" y1="284.11" x2="530.85" y2="336.58"/>
          <line class="cls-8" x1="497.71" y1="303.55" x2="543.29" y2="311.6"/>
        </g>
        <g>
          <line class="cls-28" x1="507.14" y1="276.67" x2="542.42" y2="333.13"/>
          <line class="cls-28" x1="497.7" y1="282.57" x2="532.98" y2="339.03"/>
          <line class="cls-28" x1="495.32" y1="304.03" x2="545.68" y2="311.12"/>
        </g>
        <g>
          <line class="cls-22" x1="504.64" y1="274.15" x2="545.55" y2="334.8"/>
          <line class="cls-22" x1="494.5" y1="280.98" x2="535.42" y2="341.64"/>
          <line class="cls-22" x1="492.71" y1="304.64" x2="548.29" y2="310.51"/>
        </g>
        <g>
          <line class="cls-6" x1="501.8" y1="271.47" x2="549.06" y2="336.52"/>
          <line class="cls-6" x1="490.93" y1="279.37" x2="538.19" y2="344.42"/>
          <line class="cls-6" x1="489.87" y1="305.42" x2="551.13" y2="309.73"/>
        </g>
        <g>
          <line class="cls-18" x1="498.58" y1="268.64" x2="552.97" y2="338.26"/>
          <line class="cls-18" x1="486.94" y1="277.73" x2="541.34" y2="347.36"/>
          <line class="cls-18" x1="486.78" y1="306.38" x2="554.22" y2="308.77"/>
        </g>
        <g>
          <line class="cls-27" x1="494.93" y1="265.66" x2="557.34" y2="340.03"/>
          <line class="cls-27" x1="482.5" y1="276.09" x2="544.91" y2="350.46"/>
          <line class="cls-27" x1="483.42" y1="307.56" x2="557.58" y2="307.59"/>
        </g>
        <g>
          <line class="cls-30" x1="490.81" y1="262.52" x2="562.2" y2="341.81"/>
          <line class="cls-30" x1="477.56" y1="274.45" x2="548.95" y2="353.74"/>
          <line class="cls-30" x1="479.78" y1="308.98" x2="561.22" y2="306.17"/>
        </g>
        <g>
          <line class="cls-7" x1="486.17" y1="259.23" x2="567.61" y2="343.57"/>
          <line class="cls-7" x1="472.07" y1="272.85" x2="553.52" y2="357.19"/>
          <line class="cls-7" x1="475.83" y1="310.68" x2="565.17" y2="304.47"/>
        </g>
        <g>
          <line class="cls-3" x1="480.94" y1="255.8" x2="573.62" y2="345.3"/>
          <line class="cls-3" x1="465.98" y1="271.29" x2="558.66" y2="360.79"/>
          <line class="cls-3" x1="471.56" y1="312.7" x2="569.44" y2="302.45"/>
        </g>
        <g>
          <line class="cls-15" x1="475.07" y1="252.23" x2="580.29" y2="346.97"/>
          <line class="cls-15" x1="459.24" y1="269.82" x2="564.45" y2="364.56"/>
          <line class="cls-15" x1="466.95" y1="315.08" x2="574.05" y2="300.07"/>
        </g>
        <g>
          <line class="cls-11" x1="468.48" y1="248.54" x2="587.67" y2="348.55"/>
          <line class="cls-11" x1="451.77" y1="268.46" x2="570.96" y2="368.47"/>
          <line class="cls-11" x1="461.98" y1="317.87" x2="579.02" y2="297.28"/>
        </g>
        <g>
          <line class="cls-9" x1="461.11" y1="244.73" x2="595.84" y2="350"/>
          <line class="cls-9" x1="443.52" y1="267.25" x2="578.25" y2="372.51"/>
          <line class="cls-9" x1="456.62" y1="321.13" x2="584.38" y2="294.02"/>
        </g>
        <g>
          <line class="cls-10" x1="452.87" y1="240.84" x2="604.87" y2="351.28"/>
          <line class="cls-10" x1="434.41" y1="266.24" x2="586.41" y2="376.68"/>
          <line class="cls-10" x1="450.87" y1="324.91" x2="590.13" y2="290.24"/>
        </g>
        <g>
          <line class="cls-1" x1="443.66" y1="236.88" x2="614.83" y2="352.33"/>
          <line class="cls-1" x1="424.37" y1="265.48" x2="595.54" y2="380.94"/>
          <line class="cls-1" x1="444.69" y1="329.28" x2="596.31" y2="285.87"/>
        </g>
        <g>
          <line class="cls-19" x1="433.4" y1="232.88" x2="625.82" y2="353.11"/>
          <line class="cls-19" x1="413.31" y1="265.04" x2="605.72" y2="385.27"/>
          <line class="cls-19" x1="438.08" y1="334.32" x2="602.92" y2="280.83"/>
        </g>
        <g>
          <line class="cls-29" x1="421.98" y1="228.88" x2="637.91" y2="353.55"/>
          <line class="cls-29" x1="401.15" y1="264.97" x2="617.07" y2="389.63"/>
          <line class="cls-29" x1="431.01" y1="340.11" x2="609.99" y2="275.04"/>
        </g>
        <g>
          <line class="cls-17" x1="409.29" y1="224.93" x2="651.2" y2="353.56"/>
          <line class="cls-17" x1="387.79" y1="265.36" x2="629.71" y2="393.99"/>
          <line class="cls-17" x1="423.46" y1="346.73" x2="617.54" y2="268.41"/>
        </g>
        <g>
          <line class="cls-2" x1="395.2" y1="221.08" x2="665.81" y2="353.06"/>
          <line class="cls-2" x1="373.14" y1="266.3" x2="643.75" y2="398.29"/>
          <line class="cls-2" x1="415.43" y1="354.3" x2="625.57" y2="260.85"/>
        </g>
        <g>
          <line class="cls-23" x1="379.57" y1="217.39" x2="681.82" y2="351.96"/>
          <line class="cls-23" x1="357.08" y1="267.9" x2="659.33" y2="402.47"/>
          <line class="cls-23" x1="406.9" y1="362.92" x2="634.1" y2="252.23"/>
        </g>
        <g>
          <line class="cls-14" x1="362.27" y1="213.93" x2="699.37" y2="350.13"/>
          <line class="cls-14" x1="339.5" y1="270.27" x2="676.61" y2="406.47"/>
          <line class="cls-14" x1="397.87" y1="372.72" x2="643.13" y2="242.43"/>
        </g>
        <g>
          <line class="cls-25" x1="343.13" y1="210.8" x2="718.58" y2="347.45"/>
          <line class="cls-25" x1="320.29" y1="273.55" x2="695.74" y2="410.2"/>
          <line class="cls-25" x1="388.32" y1="383.82" x2="652.68" y2="231.33"/>
        </g>
        <g>
          <line class="cls-26" x1="322" y1="208.1" x2="739.56" y2="343.77"/>
          <line class="cls-26" x1="299.32" y1="277.88" x2="716.89" y2="413.56"/>
          <line class="cls-26" x1="378.26" y1="396.38" x2="662.74" y2="218.77"/>
        </g>
        <g>
          <line class="cls-13" x1="298.68" y1="205.94" x2="762.47" y2="338.93"/>
          <line class="cls-13" x1="276.46" y1="283.45" x2="740.25" y2="416.44"/>
          <line class="cls-13" x1="367.69" y1="410.56" x2="673.31" y2="204.59"/>
        </g>
        <g>
          <line class="cls-21" x1="273" y1="204.46" x2="787.44" y2="332.73"/>
          <line class="cls-21" x1="251.56" y1="290.44" x2="766.01" y2="418.7"/>
          <line class="cls-21" x1="356.63" y1="426.53" x2="684.37" y2="188.62"/>
        </g>
        <g>
          <line class="cls-24" x1="244.73" y1="203.82" x2="814.63" y2="324.96"/>
          <line class="cls-24" x1="224.48" y1="299.07" x2="794.38" y2="420.21"/>
          <line class="cls-24" x1="345.1" y1="444.5" x2="695.9" y2="170.65"/>
        </g>
        <g>
          <line class="cls-12" x1="213.66" y1="204.21" x2="844.19" y2="315.39"/>
          <line class="cls-12" x1="195.08" y1="309.59" x2="825.61" y2="420.77"/>
          <line class="cls-12" x1="333.12" y1="464.68" x2="707.88" y2="150.47"/>
        </g>
        <g>
          <line class="cls-4" x1="179.55" y1="205.82" x2="876.29" y2="303.74"/>
          <line class="cls-4" x1="163.19" y1="322.26" x2="859.92" y2="420.18"/>
          <line class="cls-4" x1="320.73" y1="487.3" x2="720.27" y2="127.85"/>
        </g>
        <g>
          <line class="cls-20" x1="142.16" y1="208.9" x2="911.09" y2="289.72"/>
          <line class="cls-20" x1="128.65" y1="337.41" x2="897.58" y2="418.23"/>
          <line class="cls-20" x1="308" y1="512.61" x2="733" y2="102.54"/>
        </g>
        <g>
          <line class="cls-16" x1="101.21" y1="213.72" x2="948.77" y2="272.99"/>
          <line class="cls-16" x1="91.31" y1="355.37" x2="938.87" y2="414.64"/>
          <line class="cls-16" x1="294.99" y1="540.9" x2="746.01" y2="74.25"/>
        </g>
        <g>
          <line class="cls-5" x1="56.42" y1="220.58" x2="989.51" y2="253.16"/>
          <line class="cls-5" x1="50.98" y1="376.52" x2="984.07" y2="409.11"/>
          <line class="cls-5" x1="281.79" y1="572.47" x2="759.21" y2="42.68"/>
        </g>
        <g>
          <line class="cls-31" x1="7.5" y1="229.83" x2="1033.5" y2="229.83"/>
          <line class="cls-31" x1="7.5" y1="401.3" x2="1033.5" y2="401.3"/>
          <line class="cls-31" x1="268.5" y1="607.65" x2="772.5" y2="7.5"/>
        </g>
      </g>
      <circle class="cls-32" cx="405" cy="476" r="7.5"/>
      <circle class="cls-32" cx="423" cy="512" r="7.5"/>
      <circle class="cls-32" cx="378" cy="522" r="7.5"/>
      <circle class="cls-32" cx="650" cy="101" r="7.5"/>
      <circle class="cls-32" cx="650" cy="74" r="7.5"/>
      <circle class="cls-32" cx="628" cy="157" r="7.5"/>
      <circle class="cls-32" cx="615" cy="124" r="7.5"/>
      <circle class="cls-32" cx="682.5" cy="74.5" r="5"/>
      <circle class="cls-32" cx="633.84" cy="111.15" r="5"/>
      <circle class="cls-32" cx="602.5" cy="145.5" r="5"/>
      <circle class="cls-32" cx="399.5" cy="536.5" r="5"/>
      <circle class="cls-32" cx="360.5" cy="549.5" r="5"/>
      <circle class="cls-32" cx="440.5" cy="459.5" r="5"/>
      <circle class="cls-32" cx="396.5" cy="497.5" r="5"/>
    </g>
  </g>
</svg>