<?xml version="1.0" encoding="UTF-8"?>
<svg id="Layer_2" xmlns="http://www.w3.org/2000/svg" viewBox="0 0 1000 914.11">
  <defs>
    <style>
      .cls-1 {
        stroke-dasharray: 0 11.54;
        stroke-width: 2.31px;
      }

      .cls-1, .cls-2, .cls-3, .cls-4, .cls-5, .cls-6, .cls-7, .cls-8, .cls-9, .cls-10, .cls-11, .cls-12, .cls-13, .cls-14, .cls-15, .cls-16, .cls-17, .cls-18, .cls-19, .cls-20, .cls-21, .cls-22, .cls-23, .cls-24, .cls-25, .cls-26, .cls-27, .cls-28, .cls-29, .cls-30, .cls-31 {
        fill: none;
        stroke: #ee472c;
        stroke-linecap: round;
        stroke-linejoin: round;
      }

      .cls-2 {
        stroke-dasharray: 0 4.5;
        stroke-width: .9px;
      }

      .cls-3 {
        stroke-dasharray: 0 2.32;
        stroke-width: .46px;
      }

      .cls-4 {
        stroke-dasharray: 0 2.55;
        stroke-width: .51px;
      }

      .cls-5 {
        stroke-dasharray: 0 26.98;
        stroke-width: 5.4px;
      }

      .cls-6 {
        stroke-dasharray: 0 3.08;
        stroke-width: .62px;
      }

      .cls-7 {
        stroke-dasharray: 0 22.34;
        stroke-width: 4.47px;
      }

      .cls-8 {
        stroke-dasharray: 0 15.32;
        stroke-width: 3.06px;
      }

      .cls-9 {
        stroke-dasharray: 0 39.34;
        stroke-width: 7.87px;
      }

      .cls-10 {
        stroke-dasharray: 0 8.7;
        stroke-width: 1.74px;
      }

      .cls-11 {
        stroke-dasharray: 0 5.43;
        stroke-width: 1.09px;
      }

      .cls-12 {
        stroke-dasharray: 0 7.2;
        stroke-width: 1.44px;
      }

      .cls-32 {
        fill: #ee472c;
      }

      .cls-13 {
        stroke-dasharray: 0 16.83;
        stroke-width: 3.37px;
      }

      .cls-14 {
        stroke-dasharray: 0 5.97;
        stroke-width: 1.19px;
      }

      .cls-15 {
        stroke-dasharray: 0 24.55;
        stroke-width: 4.91px;
      }

      .cls-16 {
        stroke-dasharray: 0 18.5;
        stroke-width: 3.7px;
      }

      .cls-17 {
        stroke-dasharray: 0 2.81;
        stroke-width: .56px;
      }

      .cls-18 {
        stroke-dasharray: 0 32.58;
        stroke-width: 6.52px;
      }

      .cls-19 {
        stroke-dasharray: 0 20.33;
        stroke-width: 4.07px;
      }

      .cls-20 {
        stroke-dasharray: 0 6.56;
        stroke-width: 1.31px;
      }

      .cls-21 {
        stroke-dasharray: 0 12.69;
        stroke-width: 2.54px;
      }

      .cls-22 {
        stroke-dasharray: 0 9.56;
        stroke-width: 1.91px;
      }

      .cls-23 {
        stroke-dasharray: 0 29.64;
        stroke-width: 5.93px;
      }

      .cls-24 {
        stroke-dasharray: 0 35.8;
        stroke-width: 7.16px;
      }

      .cls-25 {
        stroke-dasharray: 0 7.92;
        stroke-width: 1.58px;
      }

      .cls-26 {
        stroke-dasharray: 0 4.94;
        stroke-width: .99px;
      }

      .cls-27 {
        stroke-dasharray: 0 4.09;
        stroke-width: .82px;
      }

      .cls-28 {
        stroke-dasharray: 0 3.39;
        stroke-width: .68px;
      }

      .cls-29 {
        stroke-dasharray: 0 3.72;
        stroke-width: .74px;
      }

      .cls-30 {
        stroke-dasharray: 0 13.94;
        stroke-width: 2.79px;
      }

      .cls-31 {
        stroke-dasharray: 0 10.51;
        stroke-width: 2.1px;
      }
    </style>
  </defs>
  <g id="high_bad">
    <g>
      <g>
        <g>
          <line class="cls-3" x1="682.18" y1="500.52" x2="635.72" y2="546.98"/>
          <line class="cls-4" x1="690.22" y1="502.85" x2="631.8" y2="545.29"/>
          <line class="cls-17" x1="698.54" y1="506.77" x2="627.84" y2="542.79"/>
          <line class="cls-6" x1="706.9" y1="512.45" x2="623.97" y2="539.4"/>
          <line class="cls-28" x1="714.99" y1="520.06" x2="620.35" y2="535.04"/>
          <line class="cls-29" x1="722.47" y1="529.7" x2="617.17" y2="529.7"/>
          <line class="cls-27" x1="728.93" y1="541.45" x2="614.64" y2="523.35"/>
          <line class="cls-2" x1="733.92" y1="555.32" x2="612.99" y2="516.03"/>
          <line class="cls-26" x1="736.95" y1="571.23" x2="612.45" y2="507.79"/>
          <line class="cls-11" x1="737.5" y1="589.01" x2="613.28" y2="498.76"/>
          <line class="cls-14" x1="735.05" y1="608.42" x2="615.74" y2="489.1"/>
          <line class="cls-20" x1="729.05" y1="629.05" x2="620.06" y2="479.04"/>
          <line class="cls-12" x1="718.99" y1="650.42" x2="626.48" y2="468.87"/>
          <line class="cls-25" x1="704.4" y1="671.88" x2="635.21" y2="458.93"/>
          <line class="cls-10" x1="684.87" y1="692.66" x2="646.38" y2="449.64"/>
          <line class="cls-22" x1="660.11" y1="711.87" x2="660.11" y2="441.48"/>
          <line class="cls-31" x1="629.92" y1="728.45" x2="676.41" y2="434.98"/>
          <line class="cls-1" x1="594.32" y1="741.26" x2="695.22" y2="430.72"/>
          <line class="cls-21" x1="553.46" y1="749.05" x2="716.36" y2="429.34"/>
          <line class="cls-30" x1="507.79" y1="750.47" x2="739.55" y2="431.48"/>
          <line class="cls-8" x1="457.97" y1="744.17" x2="764.35" y2="437.78"/>
          <line class="cls-13" x1="404.97" y1="728.76" x2="790.19" y2="448.89"/>
          <line class="cls-16" x1="350.11" y1="702.93" x2="816.32" y2="465.38"/>
          <line class="cls-19" x1="295" y1="665.46" x2="841.84" y2="487.78"/>
          <line class="cls-7" x1="241.62" y1="615.32" x2="865.7" y2="516.47"/>
          <line class="cls-15" x1="192.31" y1="551.72" x2="886.66" y2="551.72"/>
          <line class="cls-5" x1="149.73" y1="474.22" x2="903.35" y2="593.58"/>
          <line class="cls-23" x1="116.83" y1="382.78" x2="914.27" y2="641.88"/>
          <line class="cls-18" x1="96.84" y1="277.87" x2="917.82" y2="696.18"/>
          <line class="cls-24" x1="93.17" y1="160.58" x2="912.33" y2="755.73"/>
          <line class="cls-9" x1="109.36" y1="32.64" x2="896.14" y2="819.42"/>
        </g>
        <g>
          <line class="cls-3" x1="635.72" y1="500.61" x2="682.18" y2="547.07"/>
          <line class="cls-4" x1="639.79" y1="494.96" x2="682.23" y2="553.37"/>
          <line class="cls-17" x1="645.18" y1="489.52" x2="681.2" y2="560.22"/>
          <line class="cls-6" x1="651.96" y1="484.55" x2="678.91" y2="567.48"/>
          <line class="cls-28" x1="660.18" y1="480.32" x2="675.17" y2="574.96"/>
          <line class="cls-29" x1="669.82" y1="477.15" x2="669.82" y2="582.44"/>
          <line class="cls-27" x1="680.84" y1="475.35" x2="662.73" y2="589.64"/>
          <line class="cls-2" x1="693.1" y1="475.3" x2="653.81" y2="596.23"/>
          <line class="cls-26" x1="706.42" y1="477.35" x2="642.98" y2="601.85"/>
          <line class="cls-11" x1="720.52" y1="481.87" x2="630.27" y2="606.09"/>
          <line class="cls-14" x1="735.05" y1="489.2" x2="615.74" y2="608.51"/>
          <line class="cls-20" x1="749.56" y1="499.65" x2="599.55" y2="608.63"/>
          <line class="cls-12" x1="763.51" y1="513.48" x2="581.96" y2="605.99"/>
          <line class="cls-25" x1="776.28" y1="530.9" x2="563.33" y2="600.09"/>
          <line class="cls-10" x1="787.14" y1="552" x2="544.11" y2="590.49"/>
          <line class="cls-22" x1="795.3" y1="576.76" x2="524.91" y2="576.76"/>
          <line class="cls-31" x1="799.9" y1="605.05" x2="506.43" y2="558.57"/>
          <line class="cls-1" x1="800.03" y1="636.54" x2="489.5" y2="535.64"/>
          <line class="cls-21" x1="794.76" y1="670.74" x2="475.06" y2="507.84"/>
          <line class="cls-30" x1="783.17" y1="706.95" x2="464.17" y2="475.19"/>
          <line class="cls-8" x1="764.35" y1="744.26" x2="457.97" y2="437.88"/>
          <line class="cls-13" x1="737.52" y1="781.52" x2="457.64" y2="396.31"/>
          <line class="cls-16" x1="701.99" y1="817.35" x2="464.44" y2="351.14"/>
          <line class="cls-19" x1="657.26" y1="850.14" x2="479.58" y2="303.29"/>
          <line class="cls-7" x1="603.08" y1="878.03" x2="504.24" y2="253.95"/>
          <line class="cls-15" x1="539.49" y1="898.99" x2="539.49" y2="204.64"/>
          <line class="cls-5" x1="466.86" y1="910.8" x2="586.22" y2="157.18"/>
          <line class="cls-23" x1="386" y1="911.14" x2="645.1" y2="113.7"/>
          <line class="cls-18" x1="298.17" y1="897.61" x2="716.48" y2="76.63"/>
          <line class="cls-24" x1="205.18" y1="867.83" x2="800.33" y2="48.67"/>
          <line class="cls-9" x1="109.36" y1="819.51" x2="896.14" y2="32.73"/>
        </g>
      </g>
      <circle class="cls-32" cx="916.6" cy="840.28" r="3.93"/>
      <circle class="cls-32" cx="929.19" cy="770.26" r="3.93"/>
      <circle class="cls-32" cx="937.06" cy="707.32" r="3.93"/>
      <circle class="cls-32" cx="966.17" cy="724.63" r="3.93"/>
      <circle class="cls-32" cx="992.92" cy="745.08" r="3.93"/>
      <circle class="cls-32" cx="84.97" cy="3.93" r="3.93"/>
      <circle class="cls-32" cx="70.81" cy="262" r="3.93"/>
      <circle class="cls-32" cx="36.98" cy="240.76" r="3.93"/>
      <circle class="cls-32" cx="3.93" cy="217.94" r="3.93"/>
      <circle class="cls-32" cx="997.25" cy="717.94" r="2.75"/>
      <circle class="cls-32" cx="936.66" cy="738.39" r="2.75"/>
      <circle class="cls-32" cx="846.18" cy="815.5" r="2.75"/>
      <circle class="cls-32" cx="920.14" cy="815.5" r="2.75"/>
      <circle class="cls-32" cx="905.19" cy="865.07" r="2.75"/>
      <circle class="cls-32" cx="899.69" cy="783.24" r="2.75"/>
      <circle class="cls-32" cx="32.65" cy="211.25" r="2.75"/>
      <circle class="cls-32" cx="40.52" cy="295.44" r="2.75"/>
      <circle class="cls-32" cx="7.47" cy="261.61" r="2.75"/>
      <circle class="cls-32" cx="119.2" cy="102.68" r="2.75"/>
      <circle class="cls-32" cx="138.08" cy="31.86" r="2.75"/>
      <circle class="cls-32" cx="56.25" cy="41.31" r="2.75"/>
    </g>
  </g>
</svg>