<?xml version="1.0" encoding="UTF-8"?>
<svg id="Layer_2" xmlns="http://www.w3.org/2000/svg" viewBox="0 0 1010 755.05">
  <defs>
    <style>
      .cls-1 {
        stroke-dasharray: 0 10.31;
      }

      .cls-1, .cls-2, .cls-3, .cls-4, .cls-5, .cls-6, .cls-7, .cls-8, .cls-9, .cls-10, .cls-11, .cls-12, .cls-13, .cls-14, .cls-15, .cls-16, .cls-17, .cls-18, .cls-19, .cls-20, .cls-21, .cls-22, .cls-23, .cls-24, .cls-25, .cls-26, .cls-27, .cls-28, .cls-29, .cls-30, .cls-31, .cls-32, .cls-33, .cls-34, .cls-35, .cls-36, .cls-37, .cls-38, .cls-39, .cls-40, .cls-41, .cls-42, .cls-43, .cls-44, .cls-45, .cls-46, .cls-47, .cls-48, .cls-49, .cls-50, .cls-51, .cls-52, .cls-53, .cls-54, .cls-55, .cls-56, .cls-57, .cls-58, .cls-59, .cls-60, .cls-61, .cls-62 {
        fill: none;
        stroke: #8aceca;
        stroke-linecap: round;
        stroke-linejoin: round;
      }

      .cls-1, .cls-60 {
        stroke-width: 2.43px;
      }

      .cls-2 {
        stroke-dasharray: 0 3.03;
      }

      .cls-2, .cls-25 {
        stroke-width: .71px;
      }

      .cls-3 {
        stroke-dasharray: 0 4.31;
      }

      .cls-3, .cls-10 {
        stroke-width: .86px;
      }

      .cls-4 {
        stroke-dasharray: 0 23.51;
      }

      .cls-4, .cls-23 {
        stroke-width: 4.7px;
      }

      .cls-5 {
        stroke-dasharray: 0 29.09;
      }

      .cls-5, .cls-9 {
        stroke-width: 6.86px;
      }

      .cls-6 {
        stroke-dasharray: 0 18.16;
      }

      .cls-6, .cls-22 {
        stroke-width: 4.28px;
      }

      .cls-7 {
        stroke-dasharray: 0 14.67;
      }

      .cls-7, .cls-11 {
        stroke-width: 2.93px;
      }

      .cls-8 {
        stroke-dasharray: 0 2.75;
      }

      .cls-8, .cls-55 {
        stroke-width: .65px;
      }

      .cls-9 {
        stroke-dasharray: 0 34.29;
      }

      .cls-10 {
        stroke-dasharray: 0 3.65;
      }

      .cls-11 {
        stroke-dasharray: 0 12.45;
      }

      .cls-12 {
        stroke-dasharray: 0 11.06;
      }

      .cls-12, .cls-57 {
        stroke-width: 2.21px;
      }

      .cls-13 {
        stroke-dasharray: 0 50;
      }

      .cls-13, .cls-38 {
        stroke-width: 10px;
      }

      .cls-14 {
        stroke-dasharray: 0 7.58;
      }

      .cls-14, .cls-43 {
        stroke-width: 1.52px;
      }

      .cls-15 {
        stroke-dasharray: 0 5.2;
      }

      .cls-15, .cls-53 {
        stroke-width: 1.04px;
      }

      .cls-16 {
        stroke-dasharray: 0 21.92;
      }

      .cls-16, .cls-33 {
        stroke-width: 5.17px;
      }

      .cls-17 {
        stroke-dasharray: 0 41.4;
      }

      .cls-17, .cls-46 {
        stroke-width: 8.28px;
      }

      .cls-63 {
        fill: #8aceca;
      }

      .cls-18 {
        stroke-dasharray: 0 26.48;
      }

      .cls-18, .cls-20 {
        stroke-width: 6.24px;
      }

      .cls-19 {
        stroke-dasharray: 0 10.06;
      }

      .cls-19, .cls-39 {
        stroke-width: 2.01px;
      }

      .cls-20 {
        stroke-dasharray: 0 31.2;
      }

      .cls-21 {
        stroke-dasharray: 0 4.01;
      }

      .cls-21, .cls-37 {
        stroke-width: .95px;
      }

      .cls-22 {
        stroke-dasharray: 0 21.4;
      }

      .cls-23 {
        stroke-dasharray: 0 19.95;
      }

      .cls-24 {
        stroke-dasharray: 0 38.61;
      }

      .cls-24, .cls-56 {
        stroke-width: 9.1px;
      }

      .cls-25 {
        stroke-dasharray: 0 3.57;
      }

      .cls-26 {
        stroke-dasharray: 0 24.09;
      }

      .cls-26, .cls-27 {
        stroke-width: 5.68px;
      }

      .cls-27 {
        stroke-dasharray: 0 28.39;
      }

      .cls-28 {
        stroke-dasharray: 0 5.71;
      }

      .cls-28, .cls-44 {
        stroke-width: 1.14px;
      }

      .cls-29 {
        stroke-dasharray: 0 16.12;
      }

      .cls-29, .cls-34 {
        stroke-width: 3.22px;
      }

      .cls-30 {
        stroke-dasharray: 0 7.77;
      }

      .cls-30, .cls-35 {
        stroke-width: 1.83px;
      }

      .cls-31 {
        stroke-dasharray: 0 2.95;
      }

      .cls-31, .cls-42 {
        stroke-width: .59px;
      }

      .cls-32 {
        stroke-dasharray: 0 5.85;
      }

      .cls-32, .cls-54 {
        stroke-width: 1.38px;
      }

      .cls-33 {
        stroke-dasharray: 0 25.84;
      }

      .cls-34 {
        stroke-dasharray: 0 13.68;
      }

      .cls-35 {
        stroke-dasharray: 0 9.16;
      }

      .cls-36 {
        stroke-dasharray: 0 16.52;
      }

      .cls-36, .cls-50 {
        stroke-width: 3.89px;
      }

      .cls-37 {
        stroke-dasharray: 0 4.73;
      }

      .cls-38 {
        stroke-dasharray: 0 42.43;
      }

      .cls-39 {
        stroke-dasharray: 0 8.54;
      }

      .cls-40 {
        stroke-dasharray: 0 31.97;
      }

      .cls-40, .cls-45 {
        stroke-width: 7.54px;
      }

      .cls-41 {
        stroke-dasharray: 0 13.35;
      }

      .cls-41, .cls-52 {
        stroke-width: 2.67px;
      }

      .cls-42 {
        stroke-dasharray: 0 2.51;
      }

      .cls-43 {
        stroke-dasharray: 0 6.43;
      }

      .cls-44 {
        stroke-dasharray: 0 4.85;
      }

      .cls-45 {
        stroke-dasharray: 0 37.68;
      }

      .cls-46 {
        stroke-dasharray: 0 35.13;
      }

      .cls-47 {
        stroke-dasharray: 0 15.04;
      }

      .cls-47, .cls-62 {
        stroke-width: 3.54px;
      }

      .cls-48 {
        stroke-dasharray: 0 7.07;
      }

      .cls-48, .cls-51 {
        stroke-width: 1.67px;
      }

      .cls-49 {
        stroke-dasharray: 0 3.92;
      }

      .cls-49, .cls-61 {
        stroke-width: .78px;
      }

      .cls-50 {
        stroke-dasharray: 0 19.47;
      }

      .cls-51 {
        stroke-dasharray: 0 8.33;
      }

      .cls-52 {
        stroke-dasharray: 0 11.33;
      }

      .cls-53 {
        stroke-dasharray: 0 4.41;
      }

      .cls-54 {
        stroke-dasharray: 0 6.9;
      }

      .cls-55 {
        stroke-dasharray: 0 3.24;
      }

      .cls-56 {
        stroke-dasharray: 0 45.5;
      }

      .cls-57 {
        stroke-dasharray: 0 9.38;
      }

      .cls-58 {
        stroke-dasharray: 0 5.33;
      }

      .cls-58, .cls-59 {
        stroke-width: 1.26px;
      }

      .cls-59 {
        stroke-dasharray: 0 6.28;
      }

      .cls-60 {
        stroke-dasharray: 0 12.15;
      }

      .cls-61 {
        stroke-dasharray: 0 3.32;
      }

      .cls-62 {
        stroke-dasharray: 0 17.72;
      }
    </style>
  </defs>
  <g id="low_good">
    <g>
      <g>
        <path class="cls-31" d="M464.4,612.77c4.26-2.46,6.06-6.39,3.52-7.75-6.67-3.56-18.99-1.8-30.79,5.01s-19.48,16.61-19.73,24.16c-.09,2.88,4.2,3.29,8.47.83l38.54-22.25Z"/>
        <path class="cls-55" d="M466.23,615.86c4.98-2.11,7.46-6.16,4.87-7.98-6.79-4.78-20.47-4.51-34.25,1.34-13.78,5.85-23.47,15.5-24.76,23.71-.49,3.12,4.15,4.15,9.12,2.03l45.01-19.11Z"/>
        <path class="cls-25" d="M467.81,619.48c5.71-1.64,8.96-5.72,6.38-8.05-6.77-6.12-21.72-7.66-37.54-3.13-15.82,4.54-27.68,13.77-30.18,22.54-.95,3.34,3.97,5.08,9.68,3.44l51.65-14.81Z"/>
        <path class="cls-49" d="M469.06,623.63c6.45-1.02,10.54-5.03,8.04-7.92-6.57-7.58-22.67-11.27-40.53-8.44-17.86,2.83-32.03,11.31-35.94,20.55-1.49,3.52,3.65,6.07,10.1,5.05l58.32-9.24Z"/>
        <path class="cls-3" d="M469.86,628.34c7.17-.25,12.17-4.08,9.83-7.56-6.15-9.15-23.21-15.32-43.07-14.63s-36.45,8.04-41.95,17.6c-2.09,3.64,3.16,7.11,10.34,6.86l64.85-2.26Z"/>
        <path class="cls-37" d="M470.1,633.57c7.86.69,13.82-2.82,11.74-6.93-5.48-10.8-23.27-19.82-45.02-21.73s-40.84,3.89-48.11,13.58c-2.77,3.69,2.5,8.18,10.35,8.87l71.04,6.21Z"/>
        <path class="cls-15" d="M469.66,639.32c8.48,1.8,15.45-1.22,13.73-5.99-4.53-12.52-22.72-24.74-46.19-29.73-23.47-4.99-45.06-1.23-54.29,8.37-3.51,3.65,1.63,9.25,10.11,11.06l76.65,16.29Z"/>
        <path class="cls-28" d="M468.42,645.52c9.01,3.1,17.02.73,15.78-4.69-3.26-14.26-21.47-30.02-46.4-38.61-24.93-8.58-48.99-7.37-60.34,1.86-4.32,3.51.54,10.31,9.54,13.41l81.42,28.04Z"/>
        <path class="cls-59" d="M466.23,652.13c9.41,4.59,18.47,3.08,17.84-3.01-1.65-15.99-19.4-35.62-45.44-48.33-26.04-12.7-52.44-14.6-66.06-6.06-5.18,3.25-.8,11.32,8.61,15.91l85.05,41.48Z"/>
        <path class="cls-54" d="M462.96,659.04c9.65,6.26,19.73,5.83,19.86-.89.34-17.66-16.39-41.45-43.09-58.79-26.7-17.34-55.25-22.95-71.24-15.45-6.09,2.85-2.38,12.24,7.26,18.5l87.21,56.63Z"/>
        <path class="cls-14" d="M458.46,666.13c9.68,8.12,20.74,9,21.78,1.69,2.74-19.22-12.32-47.41-39.13-69.9-26.8-22.49-57.18-32.43-75.63-26.4-7.02,2.3-4.24,13.03,5.44,21.16l87.54,73.45Z"/>
        <path class="cls-51" d="M452.61,673.27c9.47,10.16,21.41,12.6,23.53,4.76,5.56-20.59-7.09-53.36-33.32-81.48-26.22-28.12-58.03-43.03-78.96-38.92-7.97,1.57-6.37,13.65,3.1,23.8l85.64,91.84Z"/>
        <path class="cls-35" d="M445.27,680.27c8.97,12.35,21.67,16.61,25.03,8.34,8.82-21.72-.59-59.15-25.43-93.33-24.84-34.18-57.53-54.7-80.91-53.02-8.9.64-8.77,14.03.2,26.38l81.11,111.64Z"/>
        <path class="cls-19" d="M436.33,686.93c8.13,14.67,21.41,21.02,26.18,12.45,12.53-22.5,7.28-64.59-15.23-105.2-22.51-40.61-55.42-67.37-81.15-68.67-9.79-.49-11.45,14.13-3.32,28.8l73.52,132.63Z"/>
        <path class="cls-12" d="M425.68,692.99c6.9,17.09,20.54,25.79,26.89,17.08,16.68-22.87,16.59-69.48-2.53-116.79-19.11-47.31-51.43-80.9-79.31-85.76-10.62-1.85-14.38,13.88-7.47,30.97l62.42,154.5Z"/>
        <path class="cls-60" d="M413.26,698.17c5.24,19.56,18.94,30.88,27.04,22.23,21.26-22.71,27.4-73.56,12.89-127.72-14.51-54.16-45.26-95.13-75.02-104.17-11.33-3.44-17.54,13.21-12.3,32.77l47.39,176.88Z"/>
        <path class="cls-41" d="M399.02,702.17c3.1,22.04,16.53,36.22,26.51,27.87,26.23-21.92,39.73-76.56,31.16-137.58s-36.62-109.82-67.87-123.66c-11.9-5.27-20.9,12.06-17.8,34.1l28.01,199.27Z"/>
        <path class="cls-7" d="M382.95,704.61c.43,24.46,13.18,41.72,25.19,33.95,31.54-20.4,53.59-78.18,52.41-145.89-1.18-67.7-25.24-124.69-57.47-143.97-12.27-7.34-24.41,10.35-23.99,34.81l3.86,221.09Z"/>
        <path class="cls-29" d="M365.09,705.13c-2.81,26.73,8.79,47.26,22.92,40.4,37.13-18.02,68.92-78.1,76.7-152.1,7.78-74-10.83-139.38-43.4-164.72-12.4-9.65-28.01,8.02-30.82,34.75l-25.4,241.67Z"/>
        <path class="cls-62" d="M345.55,703.3c-6.64,28.78,3.25,52.73,19.59,47.14,42.92-14.68,85.64-75.95,104.03-155.62,18.39-79.67,6.86-153.47-25.28-185.48-12.24-12.19-31.63,5-38.27,33.78l-60.07,260.19Z"/>
        <path class="cls-50" d="M324.47,698.69c-11.1,30.5-3.51,57.95,15.06,54.04,48.78-10.27,103.58-71.37,134.31-155.81,30.73-84.44,28.03-166.47-2.73-205.69-11.71-14.93-35.17,1.22-46.27,31.72l-100.36,275.74Z"/>
        <path class="cls-22" d="M302.11,690.84c-16.19,31.78-11.59,62.73,9.19,60.96,54.57-4.67,122.53-63.98,167.36-151.96,44.83-87.98,52.87-177.82,24.57-224.71-10.78-17.86-38.52-3.38-54.71,28.4l-146.39,287.32Z"/>
        <path class="cls-4" d="M278.76,679.28c-21.92,32.49-21.05,66.87,1.86,67.72,60.15,2.22,142.21-53.37,202.89-143.33,60.68-89.96,81.48-186.87,56.89-241.81-9.36-20.92-41.56-8.85-63.48,23.65l-198.15,293.77Z"/>
        <path class="cls-33" d="M254.85,663.54c-28.26,32.51-31.91,70.12-7.04,74.11,65.31,10.48,162.26-39.17,240.49-129.16,78.23-89.99,113.89-192.91,94.43-256.12-7.41-24.07-44.15-15.22-72.41,17.29l-255.47,293.88Z"/>
        <path class="cls-27" d="M230.87,643.18c-35.17,31.67-44.2,72.2-17.61,79.89,69.83,20.17,182.22-20.99,279.6-108.67,97.37-87.68,150.06-195.15,137.3-266.71-4.86-27.25-46.11-22.51-81.29,9.16l-318,286.33Z"/>
        <path class="cls-20" d="M207.45,617.76c-42.61,29.83-57.87,72.84-29.9,84.77,73.46,31.35,201.56,1.51,319.51-81.08,117.95-82.59,189.81-192.76,185.47-272.51-1.65-30.37-47.28-30.73-89.89-.9l-385.19,269.72Z"/>
        <path class="cls-9" d="M185.31,586.89c-50.47,26.83-72.88,71.69-43.97,88.46,75.93,44.04,219.65,28.64,359.36-45.64,139.71-74.28,232.84-184.82,238.79-272.39,2.27-33.34-47.46-39.85-97.92-13.01l-456.25,242.59Z"/>
        <path class="cls-45" d="M165.29,550.26c-58.64,22.51-89.09,68.44-59.8,90.6,76.92,58.2,235.74,60.65,398.07-1.66,162.33-62.31,278.71-170.41,296.93-265.12,6.94-36.06-46.43-49.82-105.06-27.31l-530.13,203.5Z"/>
        <path class="cls-17" d="M148.36,507.63c-66.97,16.7-106.34,62.71-77.36,90.8,76.1,73.78,249,97.73,434.4,51.5s326.82-148.54,359.37-249.41c12.4-38.41-43.96-60.55-110.94-43.86L148.36,507.63Z"/>
        <path class="cls-56" d="M135.61,458.86c-75.28,9.24-124.38,54.16-96.54,88.68,73.12,90.66,258.49,139.94,466.9,114.35s376.35-118.24,425.37-223.9c18.66-40.23-39.84-71.93-115.12-62.69l-680.61,83.57Z"/>
        <path class="cls-13" d="M128.23,403.96c-83.35,0-142.92,42.41-117.17,83.8,67.62,108.68,263.2,187.25,493.94,187.25s426.33-78.57,493.94-187.25c25.74-41.38-33.82-83.8-117.17-83.8H128.23Z"/>
      </g>
      <g>
        <path class="cls-31" d="M597.33,276.66c2.79-1.27,4.49-3.8,3.33-4.99-3.04-3.12-10.15-3.14-17.88.39-7.73,3.52-13.72,9.51-15.21,14.7-.57,1.97,1.73,2.69,4.52,1.41l25.24-11.51Z"/>
        <path class="cls-55" d="M599.12,278.27c3.22-1.01,5.4-3.55,4.3-5-2.9-3.81-10.65-4.78-19.55-1.97-8.9,2.81-16.24,8.54-18.56,13.99-.88,2.08,1.53,3.16,4.74,2.15l29.07-9.17Z"/>
        <path class="cls-25" d="M600.86,280.27c3.64-.68,6.37-3.15,5.36-4.88-2.65-4.54-10.98-6.64-21.06-4.77s-18.86,7.14-22.12,12.77c-1.24,2.15,1.24,3.65,4.88,2.98l32.94-6.11Z"/>
        <path class="cls-49" d="M602.48,282.69c4.06-.25,7.37-2.58,6.5-4.6-2.28-5.31-11.08-8.71-22.33-8.02-11.25.69-21.52,5.26-25.84,10.97-1.64,2.18.87,4.15,4.93,3.9l36.74-2.25Z"/>
        <path class="cls-3" d="M603.93,285.54c4.47.27,8.38-1.83,7.7-4.15-1.78-6.1-10.92-10.99-23.29-11.74-12.36-.76-24.18,2.85-29.65,8.51-2.08,2.15.39,4.64,4.85,4.91l40.38,2.47Z"/>
        <path class="cls-37" d="M605.14,288.85c4.83.9,9.38-.87,8.96-3.49-1.12-6.89-10.44-13.44-23.83-15.92-13.38-2.48-26.76-.13-33.48,5.31-2.56,2.07-.2,5.11,4.64,6.01l43.71,8.1Z"/>
        <path class="cls-15" d="M606,292.62c5.15,1.62,10.35.31,10.24-2.61-.3-7.66-9.59-16.06-23.85-20.56-14.27-4.5-29.17-3.72-37.23,1.3-3.07,1.91-.9,5.55,4.25,7.18l46.59,14.69Z"/>
        <path class="cls-28" d="M606.44,296.84c5.4,2.46,11.25,1.72,11.52-1.47.7-8.4-8.31-18.8-23.26-25.62-14.96-6.82-31.31-7.97-40.78-3.56-3.6,1.68-1.73,5.93,3.68,8.4l48.85,22.26Z"/>
        <path class="cls-59" d="M606.36,301.51c5.56,3.41,12.04,3.39,12.76-.07,1.89-9.07-6.54-21.62-21.94-31.06-15.4-9.44-33.09-12.88-44-9.35-4.16,1.35-2.68,6.24,2.89,9.65l50.3,30.82Z"/>
        <path class="cls-54" d="M605.64,306.59c5.61,4.46,12.68,5.31,13.92,1.64,3.27-9.64-4.24-24.46-19.77-36.82s-34.36-18.48-46.74-16.09c-4.71.91-3.76,6.45,1.86,10.91l50.74,40.35Z"/>
        <path class="cls-14" d="M604.18,312.04c5.52,5.62,13.12,7.49,14.97,3.65,4.86-10.07-1.35-27.24-16.64-42.8-15.29-15.56-35-24.76-48.83-23.81-5.26.36-4.96,6.53.56,12.15l49.93,50.81Z"/>
        <path class="cls-51" d="M601.85,317.78c5.27,6.87,13.3,9.92,15.84,5.99,6.65-10.33,2.18-29.9-12.41-48.91-14.59-19.02-34.86-31.69-50.07-32.51-5.79-.31-6.29,6.46-1.01,13.33l47.66,62.11Z"/>
        <path class="cls-35" d="M598.55,323.73c4.83,8.2,13.18,12.6,16.47,8.65,8.64-10.38,6.38-32.32-6.99-55.01-13.37-22.7-33.78-39.24-50.25-42.16-6.27-1.11-7.72,6.2-2.89,14.4l43.67,74.12Z"/>
        <path class="cls-19" d="M594.14,329.78c4.17,9.59,12.69,15.51,16.81,11.64,10.81-10.17,11.29-34.39-.26-60.94-11.54-26.55-31.59-47.32-49.17-52.71-6.69-2.05-9.25,5.73-5.08,15.32l37.7,86.69Z"/>
        <path class="cls-12" d="M588.53,335.79c3.26,11.02,11.76,18.62,16.77,14.95,13.15-9.64,16.92-36,7.88-66.5-9.04-30.5-28.12-55.85-46.57-64.08-7.02-3.14-10.86,5.01-7.59,16.03l29.51,99.61Z"/>
        <path class="cls-60" d="M581.61,341.59c2.08,12.45,10.34,21.88,16.29,18.55,15.64-8.75,23.27-37,17.5-71.48-5.77-34.48-23.19-64.68-42.21-76.13-7.24-4.36-12.52,4.01-10.43,16.47l18.85,112.59Z"/>
        <path class="cls-41" d="M573.28,346.99c.61,13.86,8.34,25.25,15.29,22.41,18.23-7.45,30.34-37.24,28.66-75.62-1.68-38.38-16.63-73.65-35.84-88.69-7.31-5.73-14.19,2.7-13.58,16.56l5.48,125.33Z"/>
        <path class="cls-7" d="M563.47,351.77c-1.2,15.2,5.72,28.66,13.67,26.49,20.88-5.69,38.08-36.56,41.39-78.64,3.31-42.08-8.28-82.56-27.22-101.53-7.21-7.23-15.84,1.05-17.03,16.25l-10.81,137.43Z"/>
        <path class="cls-29" d="M552.13,355.66c-3.34,16.42,2.4,32.02,11.36,30.73,23.54-3.41,46.43-34.77,55.68-80.23,9.25-45.46,2.03-91.16-16.09-114.39-6.9-8.85-17.41-.98-20.75,15.44l-30.2,148.45Z"/>
        <path class="cls-62" d="M539.24,358.39c-5.84,17.46-1.67,35.25,8.28,35.04,26.13-.56,55.3-31.71,71.47-80.05,16.17-48.34,14.42-99.15-2.23-126.92-6.34-10.57-18.86-3.4-24.7,14.06l-52.82,157.87Z"/>
        <path class="cls-50" d="M524.82,359.64c-8.71,18.26-6.54,38.22,4.34,39.32,28.57,2.88,64.56-27.18,88.67-77.74,24.11-50.56,29.01-106.21,14.57-138.73-5.5-12.38-20.12-6.24-28.83,12.03l-78.75,165.12Z"/>
        <path class="cls-22" d="M508.92,359.07c-11.95,18.75-12.26,40.82-.54,43.47,30.78,6.97,74.06-21,107.13-72.92,33.07-51.92,45.86-111.97,34.47-149.36-4.34-14.24-21.11-9.5-33.05,9.26l-108.01,169.55Z"/>
        <path class="cls-4" d="M491.65,356.33c-15.54,18.86-18.83,42.88-6.41,47.34,32.64,11.73,83.59-12.99,126.61-65.18,43.03-52.2,65.02-115.98,57.6-158.3-2.83-16.11-21.75-13.18-37.29,5.67l-140.51,170.47Z"/>
        <path class="cls-33" d="M473.19,351.02c-19.48,18.48-26.28,44.24-13.33,50.78,34.03,17.16,92.91-2.97,146.83-54.14,53.92-51.17,86.45-117.79,84.02-164.94-.92-17.95-21.96-17.29-41.43,1.19l-176.09,167.11Z"/>
        <path class="cls-27" d="M453.76,342.75c-23.72,17.55-34.59,44.74-21.34,53.6,34.82,23.27,101.73,9.2,167.4-39.39,65.66-48.59,110.06-116.9,113.73-168.65,1.4-19.71-21.63-21.8-45.35-4.25l-214.44,158.69Z"/>
        <path class="cls-20" d="M433.68,331.14c-28.22,15.97-43.72,44.16-30.45,55.6,34.86,30.05,109.73,23.66,187.86-20.54,78.13-44.21,135.7-112.76,146.63-168.72,4.16-21.31-20.68-26.68-48.9-10.71l-255.14,144.37Z"/>
        <path class="cls-9" d="M413.33,315.78c-32.92,13.64-53.6,42.31-40.66,56.57,33.99,37.44,116.51,40.5,207.65,2.75,91.13-37.75,163.11-104.82,182.53-164.39,7.39-22.68-18.98-31.86-51.9-18.23l-297.62,123.29Z"/>
        <path class="cls-45" d="M393.19,296.3c-37.73,10.47-64.13,38.97-51.92,56.26,32.06,45.39,121.66,59.78,226.12,30.81,104.46-28.97,191.95-92.48,221.1-154.85,11.1-23.75-16.43-37.3-54.17-26.83l-341.13,94.62Z"/>
        <path class="cls-17" d="M373.83,272.36c-42.56,6.36-75.17,33.92-64.17,54.41,28.89,53.8,124.69,81.5,242.5,63.89s221.75-75.17,261.9-139.29c15.29-24.42-12.93-42.88-55.49-36.52l-384.75,57.52Z"/>
        <path class="cls-56" d="M355.92,243.65c-47.27,1.24-86.53,26.93-77.27,50.75,24.31,62.55,125.08,105.59,255.94,102.16s251.93-52.29,304.31-116.85c19.95-24.58-8.36-48.5-55.63-47.26l-427.35,11.21Z"/>
        <path class="cls-13" d="M340.24,209.95c-51.72-4.98-97.99,17.78-91.08,45,18.14,71.48,122.29,131.92,265.48,145.7s281.78-23.29,347.56-86.7c25.05-24.14-2.62-54.02-54.34-59l-467.62-45.01Z"/>
      </g>
      <g>
        <circle class="cls-42" cx="550.15" cy="169.65" r="6.4" transform="translate(-24.94 196.41) rotate(-19.8)"/>
        <circle class="cls-8" cx="550.29" cy="169.97" r="7.04" transform="translate(-23.98 126.16) rotate(-12.8)"/>
        <circle class="cls-2" cx="550.4" cy="170.34" r="7.73" transform="translate(-14.4 56.51) rotate(-5.8)"/>
        <circle class="cls-61" cx="550.46" cy="170.76" r="8.5" transform="translate(368.23 717.53) rotate(-88.8)"/>
        <circle class="cls-10" cx="550.48" cy="171.23" r="9.34" transform="translate(302.51 691.67) rotate(-81.8)"/>
        <circle class="cls-21" cx="550.44" cy="171.74" r="10.26" transform="translate(240.4 657.9) rotate(-74.8)"/>
        <circle class="cls-53" cx="550.32" cy="172.29" r="11.27" transform="translate(182.88 616.73) rotate(-67.8)"/>
        <circle class="cls-44" cx="550.12" cy="172.88" r="12.39" transform="translate(130.84 568.76) rotate(-60.8)"/>
        <circle class="cls-58" cx="549.82" cy="173.49" r="13.61" transform="translate(85.11 514.72) rotate(-53.8)"/>
        <circle class="cls-32" cx="549.41" cy="174.12" r="14.96" transform="translate(46.4 455.44) rotate(-46.8)"/>
        <circle class="cls-43" cx="548.88" cy="174.75" r="16.44" transform="translate(15.34 391.85) rotate(-39.8)"/>
        <circle class="cls-48" cx="548.22" cy="175.36" r="18.07" transform="translate(-7.59 324.95) rotate(-32.8)"/>
        <ellipse class="cls-30" cx="547.42" cy="175.94" rx="19.85" ry="19.86" transform="translate(-22.01 255.81) rotate(-25.8)"/>
        <ellipse class="cls-39" cx="546.46" cy="176.47" rx="21.82" ry="21.82" transform="translate(-27.72 185.54) rotate(-18.8)"/>
        <ellipse class="cls-57" cx="545.35" cy="176.92" rx="23.98" ry="23.98" transform="translate(-24.66 115.28) rotate(-11.8)"/>
        <ellipse class="cls-1" cx="544.08" cy="177.26" rx="26.35" ry="26.35" transform="translate(-12.93 46.17) rotate(-4.8)"/>
        <ellipse class="cls-52" cx="542.65" cy="177.47" rx="28.96" ry="28.95" transform="translate(344.5 712.91) rotate(-87.8)"/>
        <ellipse class="cls-11" cx="541.06" cy="177.49" rx="31.82" ry="31.82" transform="translate(279.36 683.22) rotate(-80.8)"/>
        <ellipse class="cls-34" cx="539.32" cy="177.31" rx="34.97" ry="34.96" transform="translate(218.6 645.76) rotate(-73.8)"/>
        <ellipse class="cls-47" cx="537.44" cy="176.88" rx="38.43" ry="38.42" transform="translate(163.16 601.2) rotate(-66.8)"/>
        <ellipse class="cls-36" cx="535.46" cy="176.16" rx="42.23" ry="42.22" transform="translate(113.88 550.35) rotate(-59.8)"/>
        <ellipse class="cls-6" cx="533.39" cy="175.1" rx="46.4" ry="46.4" transform="translate(71.44 494.12) rotate(-52.8)"/>
        <ellipse class="cls-23" cx="531.28" cy="173.68" rx="50.99" ry="50.98" transform="translate(36.39 433.49) rotate(-45.8)"/>
        <ellipse class="cls-16" cx="529.17" cy="171.84" rx="56.04" ry="56.03" transform="translate(9.1 369.51) rotate(-38.8)"/>
        <ellipse class="cls-26" cx="527.11" cy="169.55" rx="61.58" ry="61.57" transform="translate(-10.22 303.23) rotate(-31.8)"/>
        <ellipse class="cls-18" cx="525.17" cy="166.78" rx="67.67" ry="67.66" transform="translate(-21.52 235.68) rotate(-24.8)"/>
        <ellipse class="cls-5" cx="523.42" cy="163.5" rx="74.36" ry="74.35" transform="translate(-24.92 167.85) rotate(-17.8)"/>
        <ellipse class="cls-40" cx="521.96" cy="159.68" rx="81.72" ry="81.7" transform="translate(-20.68 100.65) rotate(-10.8)"/>
        <ellipse class="cls-46" cx="520.87" cy="155.33" rx="89.8" ry="89.78" transform="translate(-9.15 34.88) rotate(-3.8)"/>
        <ellipse class="cls-24" cx="520.27" cy="150.43" rx="98.66" ry="98.68" transform="translate(341.05 661.5) rotate(-86.8)"/>
        <ellipse class="cls-38" cx="520.27" cy="145.01" rx="108.42" ry="108.44" transform="translate(285.44 631.38) rotate(-79.8)"/>
      </g>
      <circle class="cls-63" cx="389" cy="150" r="5"/>
      <circle class="cls-63" cx="653" cy="150" r="5"/>
      <circle class="cls-63" cx="615" cy="47" r="5"/>
      <circle class="cls-63" cx="565" cy="39" r="5"/>
      <circle class="cls-63" cx="471" cy="31" r="5"/>
      <circle class="cls-63" cx="410" cy="47" r="5"/>
      <circle class="cls-63" cx="633.5" cy="99.5" r="3.5"/>
      <circle class="cls-63" cx="406.5" cy="188.5" r="3.5"/>
      <circle class="cls-63" cx="392.5" cy="111.5" r="3.5"/>
      <circle class="cls-63" cx="366.5" cy="76.5" r="3.5"/>
      <circle class="cls-63" cx="520.5" cy="3.5" r="3.5"/>
    </g>
  </g>
</svg>