<?xml version="1.0" encoding="UTF-8"?>
<svg id="Layer_2" xmlns="http://www.w3.org/2000/svg" viewBox="0 0 985.28 544.08">
  <defs>
    <style>
      .cls-1 {
        stroke-dasharray: 0 4.31;
        stroke-width: 1.29px;
      }

      .cls-1, .cls-2, .cls-3, .cls-4, .cls-5, .cls-6, .cls-7, .cls-8, .cls-9, .cls-10, .cls-11, .cls-12, .cls-13, .cls-14, .cls-15, .cls-16, .cls-17, .cls-18, .cls-19, .cls-20, .cls-21, .cls-22, .cls-23, .cls-24, .cls-25, .cls-26, .cls-27, .cls-28, .cls-29, .cls-30, .cls-31 {
        fill: none;
        stroke: #8aceca;
        stroke-linecap: round;
        stroke-linejoin: round;
      }

      .cls-2 {
        stroke-dasharray: 0 11.06;
        stroke-width: 3.32px;
      }

      .cls-3 {
        stroke-dasharray: 0 23.51;
        stroke-width: 7.05px;
      }

      .cls-4 {
        stroke-dasharray: 0 14.67;
        stroke-width: 4.4px;
      }

      .cls-5 {
        stroke-dasharray: 0 7.58;
        stroke-width: 2.27px;
      }

      .cls-6 {
        stroke-dasharray: 0 34.29;
        stroke-width: 10.29px;
      }

      .cls-7 {
        stroke-dasharray: 0 6.28;
        stroke-width: 1.88px;
      }

      .cls-8 {
        stroke-dasharray: 0 41.4;
        stroke-width: 12.42px;
      }

      .cls-9 {
        stroke-dasharray: 0 50;
        stroke-width: 15px;
      }

      .cls-10 {
        stroke-dasharray: 0 5.2;
        stroke-width: 1.56px;
      }

      .cls-32 {
        fill: #8aceca;
      }

      .cls-11 {
        stroke-dasharray: 0 21.4;
        stroke-width: 6.42px;
      }

      .cls-12 {
        stroke-dasharray: 0 31.2;
        stroke-width: 9.36px;
      }

      .cls-13 {
        stroke-dasharray: 0 16.12;
        stroke-width: 4.84px;
      }

      .cls-14 {
        stroke-dasharray: 0 3.57;
        stroke-width: 1.07px;
      }

      .cls-15 {
        stroke-dasharray: 0 2.95;
        stroke-width: .89px;
      }

      .cls-16 {
        stroke-dasharray: 0 5.71;
        stroke-width: 1.71px;
      }

      .cls-17 {
        stroke-dasharray: 0 28.39;
        stroke-width: 8.52px;
      }

      .cls-18 {
        stroke-dasharray: 0 25.84;
        stroke-width: 7.75px;
      }

      .cls-19 {
        stroke-dasharray: 0 4.73;
        stroke-width: 1.42px;
      }

      .cls-20 {
        stroke-dasharray: 0 3.24;
        stroke-width: .97px;
      }

      .cls-21 {
        stroke-dasharray: 0 13.35;
        stroke-width: 4.01px;
      }

      .cls-22 {
        stroke-dasharray: 0 10.06;
        stroke-width: 3.02px;
      }

      .cls-23 {
        stroke-dasharray: 0 8.33;
        stroke-width: 2.5px;
      }

      .cls-24 {
        stroke-dasharray: 0 37.68;
        stroke-width: 11.3px;
      }

      .cls-25 {
        stroke-dasharray: 0 3.92;
        stroke-width: 1.18px;
      }

      .cls-26 {
        stroke-dasharray: 0 19.47;
        stroke-width: 5.84px;
      }

      .cls-27 {
        stroke-dasharray: 0 9.16;
        stroke-width: 2.75px;
      }

      .cls-28 {
        stroke-dasharray: 0 45.5;
        stroke-width: 13.65px;
      }

      .cls-29 {
        stroke-dasharray: 0 12.15;
        stroke-width: 3.65px;
      }

      .cls-30 {
        stroke-dasharray: 0 6.9;
        stroke-width: 2.07px;
      }

      .cls-31 {
        stroke-dasharray: 0 17.72;
        stroke-width: 5.32px;
      }
    </style>
  </defs>
  <g id="low_good">
    <g>
      <g>
        <path class="cls-15" d="M166.58,260.55c3.06-5.85,6.6-9.26,9.22-11.27,5.8-4.46,10.36-4.59,15.51-9.73,3.14-3.13,4.86-6.49,5.81-8.74.14-.14,1.37-1.37,1.13-3.24-.14-1.14-.79-2.22-1.9-2.86-2.19.7-5.02,1.21-6.65-.21-2.28-1.99-.22-6-2.25-8.87-1.21-1.72-4.05-3.25-11.14-2.49-.17-.1-1.69-.94-3.42-.21-1.06.45-1.92,1.36-2.23,2.6,2.43,5.5,4.24,11.31,1.98,13.37-1.44,1.31-3.54.19-5.55.75-3.64,1.02-6.73,7.5-6.92,27.19-.01.38-.01.87.04,1.45.34,4.12,2.76,8.36,4.25,8.16.69-.09,1.55-1.19,2.13-5.91Z"/>
        <path class="cls-20" d="M167.45,265.45c2.91-6.65,6.53-10.66,9.24-13.06,6.02-5.33,11-5.83,16.25-11.86,3.2-3.67,4.83-7.49,5.69-10.02.14-.16,1.39-1.61,1-3.63-.24-1.24-1.04-2.37-2.3-2.99-2.35.93-5.41,1.72-7.31.27-2.66-2.01-.71-6.56-3.14-9.55-1.46-1.79-4.69-3.26-12.4-1.88-.19-.09-1.93-.9-3.77.03-1.13.57-2,1.64-2.25,3.02,3.09,5.85,5.52,12.08,3.2,14.5-1.48,1.55-3.87.48-6.02,1.25-3.92,1.39-6.8,8.74-5.5,30.34.02.41.05.96.15,1.59.69,4.49,3.67,8.95,5.29,8.62.75-.15,1.61-1.42,1.88-6.64Z"/>
        <path class="cls-14" d="M168.77,270.75c2.68-7.52,6.34-12.18,9.13-15.03,6.19-6.31,11.62-7.23,16.91-14.24,3.22-4.27,4.72-8.58,5.47-11.42.14-.19,1.4-1.87.81-4.06-.36-1.34-1.32-2.52-2.75-3.1-2.51,1.2-5.79,2.3-7.99.86-3.07-2-1.28-7.13-4.18-10.22-1.74-1.85-5.39-3.21-13.74-1.11-.22-.09-2.18-.84-4.13.32-1.19.71-2.07,1.95-2.24,3.48,3.83,6.17,6.97,12.82,4.61,15.65-1.5,1.81-4.21.83-6.51,1.83-4.19,1.83-6.78,10.1-3.71,33.68.05.45.13,1.05.29,1.73,1.1,4.87,4.71,9.53,6.46,9.04.81-.23,1.65-1.68,1.55-7.42Z"/>
        <path class="cls-25" d="M170.63,276.46c2.36-8.45,6.02-13.84,8.86-17.17,6.3-7.39,12.18-8.82,17.44-16.91,3.21-4.93,4.52-9.77,5.13-12.94.14-.21,1.39-2.16.58-4.51-.5-1.44-1.64-2.66-3.25-3.19-2.66,1.51-6.18,2.96-8.7,1.56-3.52-1.96-1.95-7.72-5.36-10.89-2.05-1.9-6.15-3.11-15.15-.16-.25-.08-2.46-.76-4.5.67-1.25.87-2.12,2.3-2.18,3.99,4.67,6.47,8.63,13.52,6.26,16.81-1.51,2.1-4.55,1.23-6.99,2.51-4.45,2.32-6.66,11.6-1.48,37.2.09.49.22,1.14.45,1.88,1.58,5.25,5.89,10.09,7.77,9.42.87-.31,1.68-1.97,1.13-8.25Z"/>
        <path class="cls-1" d="M173.1,282.57c1.94-9.44,5.53-15.63,8.39-19.51,6.34-8.59,12.68-10.6,17.82-19.87,3.14-5.65,4.2-11.05,4.63-14.58.14-.25,1.36-2.48.29-4.99-.66-1.54-2-2.79-3.81-3.24-2.8,1.86-6.54,3.72-9.41,2.37-4-1.88-2.73-8.32-6.71-11.52-2.39-1.92-6.98-2.93-16.62.99-.28-.07-2.75-.64-4.88,1.08-1.31,1.05-2.14,2.68-2.09,4.54,5.62,6.74,10.49,14.15,8.15,17.94-1.49,2.42-4.89,1.7-7.48,3.28-4.7,2.89-6.41,13.22,1.23,40.9.13.53.33,1.23.63,2.02,2.14,5.64,7.23,10.6,9.24,9.73.93-.41,1.69-2.29.61-9.13Z"/>
        <path class="cls-19" d="M176.28,289.09c1.41-10.5,4.87-17.56,7.71-22.03,6.29-9.9,13.08-12.6,18.02-23.15,3.01-6.43,3.76-12.44,3.95-16.34.14-.28,1.3-2.82-.07-5.49-.84-1.64-2.41-2.91-4.42-3.26-2.92,2.25-6.89,4.58-10.14,3.32-4.53-1.75-3.63-8.91-8.24-12.12-2.77-1.93-7.88-2.68-18.14,2.36-.31-.05-3.07-.49-5.27,1.55-1.35,1.25-2.15,3.1-1.94,5.14,6.68,6.95,12.59,14.71,10.31,19.05-1.45,2.76-5.23,2.23-7.94,4.17-4.93,3.53-6.02,14.99,4.48,44.74.19.57.46,1.32.85,2.17,2.77,6.02,8.74,11.07,10.88,9.95.99-.52,1.68-2.64-.03-10.06Z"/>
        <path class="cls-10" d="M180.27,295.98c.74-11.61,3.99-19.63,6.76-24.74,6.14-11.33,13.38-14.81,17.97-26.76,2.8-7.28,3.17-13.92,3.08-18.21.13-.32,1.21-3.19-.49-6.02-1.05-1.73-2.86-3-5.1-3.24-3.03,2.69-7.2,5.55-10.86,4.42-5.1-1.57-4.66-9.49-9.96-12.65-3.18-1.9-8.84-2.33-19.71,3.97-.34-.04-3.4-.3-5.66,2.11-1.38,1.48-2.11,3.57-1.73,5.78,7.85,7.11,14.92,15.16,12.76,20.09-1.38,3.14-5.56,2.85-8.39,5.18-5.13,4.24-5.45,16.89,8.34,48.7.25.61.61,1.41,1.1,2.31,3.5,6.38,10.43,11.47,12.69,10.08,1.05-.64,1.64-3.03-.81-11.03Z"/>
        <path class="cls-16" d="M185.16,303.24c-.08-12.79,2.87-21.82,5.51-27.63,5.86-12.89,13.53-17.26,17.65-30.71,2.51-8.2,2.41-15.51,1.98-20.2.11-.36,1.09-3.59-1-6.56-1.28-1.82-3.37-3.07-5.83-3.16-3.12,3.18-7.47,6.63-11.57,5.68-5.72-1.33-5.83-10.04-11.89-13.11-3.63-1.84-9.87-1.88-21.3,5.87-.38-.01-3.75-.07-6.04,2.74-1.4,1.73-2.04,4.07-1.46,6.47,9.15,7.19,17.52,15.48,15.53,21.04-1.27,3.55-5.88,3.55-8.8,6.32-5.3,5.04-4.68,18.93,12.88,52.75.32.65.77,1.5,1.38,2.45,4.33,6.73,12.32,11.77,14.68,10.07,1.1-.79,1.57-3.44-1.73-12.03Z"/>
        <path class="cls-7" d="M191.09,310.81c-1.07-14.01,1.47-24.14,3.93-30.72,5.44-14.58,13.51-19.96,17-35.02,2.13-9.18,1.45-17.18.62-22.3.1-.4.92-4.02-1.6-7.11-1.54-1.9-3.92-3.11-6.64-3.02-3.17,3.73-7.68,7.84-12.24,7.11-6.37-1.02-7.16-10.56-14.04-13.46-4.12-1.74-10.96-1.31-22.9,8.06-.41.01-4.12.21-6.41,3.47-1.41,2-1.93,4.62-1.1,7.21,10.59,7.18,20.4,15.62,18.64,21.88-1.12,3.99-6.17,4.34-9.16,7.61-5.43,5.94-3.68,21.11,18.16,56.83.4.69.96,1.59,1.7,2.58,5.26,7.05,14.4,11.96,16.86,9.92,1.14-.95,1.45-3.89-2.82-13.05Z"/>
        <path class="cls-30" d="M198.16,318.67c-2.25-15.28-.23-26.57,1.95-33.97,4.84-16.4,13.27-22.92,15.95-39.7,1.63-10.23.27-18.95-1.03-24.49.08-.45.7-4.47-2.3-7.67-1.84-1.96-4.54-3.11-7.51-2.8-3.19,4.33-7.82,9.19-12.88,8.73-7.06-.63-8.66-11.03-16.42-13.68-4.65-1.59-12.12-.59-24.49,10.59-.45.05-4.5.54-6.76,4.3-1.39,2.3-1.76,5.21-.65,7.98,12.16,7.06,23.56,15.56,22.11,22.55-.92,4.46-6.43,5.23-9.46,9.04-5.49,6.92-2.41,23.43,24.26,60.91.49.73,1.18,1.67,2.06,2.7,6.31,7.32,16.71,12,19.25,9.58,1.18-1.13,1.29-4.38-4.09-14.09Z"/>
        <path class="cls-5" d="M206.52,326.73c-3.63-16.58-2.29-29.11-.47-37.39,4.05-18.35,12.8-26.14,14.44-44.74,1-11.34-1.15-20.79-3-26.77.05-.5.42-4.96-3.11-8.24-2.16-2.01-5.22-3.06-8.44-2.49-3.17,4.99-7.86,10.67-13.45,10.56-7.79-.15-10.34-11.43-19.05-13.73-5.22-1.38-13.33.28-26.03,13.49-.49.09-4.89.94-7.08,5.23-1.35,2.63-1.53,5.85-.11,8.8,13.87,6.81,27.02,15.26,25.96,23.03-.67,4.96-6.65,6.23-9.67,10.64-5.49,8.01-.85,25.86,31.27,64.91.6.76,1.42,1.74,2.47,2.8,7.47,7.54,19.23,11.88,21.83,9.03,1.21-1.32,1.08-4.9-5.56-15.13Z"/>
        <path class="cls-23" d="M216.31,334.93c-5.26-17.89-4.75-31.74-3.38-40.95,3.04-20.43,12.02-29.63,12.4-50.15.23-12.5-2.86-22.71-5.34-29.12.02-.55.08-5.47-4.04-8.79-2.53-2.04-5.95-2.96-9.45-2.08-3.09,5.72-7.8,12.3-13.93,12.61-8.55.43-12.21-11.73-21.94-13.59-5.83-1.12-14.59,1.33-27.5,16.78-.53.13-5.28,1.41-7.36,6.28-1.27,2.98-1.23,6.53.56,9.66,15.72,6.4,30.79,14.65,30.23,23.26-.36,5.48-6.82,7.34-9.79,12.4-5.41,9.2,1.05,28.42,39.25,68.76.71.79,1.69,1.8,2.92,2.88,8.77,7.69,21.99,11.55,24.63,8.22,1.22-1.54.81-5.46-7.26-16.16Z"/>
        <path class="cls-27" d="M227.66,343.17c-7.13-19.21-7.64-34.43-6.84-44.64,1.76-22.63,10.91-33.41,9.75-55.93-.71-13.72-4.87-24.67-8.09-31.51-.02-.6-.33-6-5.1-9.33-2.93-2.04-6.75-2.78-10.52-1.56-2.95,6.5-7.61,14.08-14.3,14.89-9.34,1.13-14.29-11.93-25.09-13.22-6.48-.78-15.89,2.58-28.86,20.51-.57.19-5.68,1.95-7.59,7.44-1.17,3.37-.85,7.25,1.35,10.54,17.73,5.81,34.87,13.7,34.92,23.18.03,6.04-6.91,8.57-9.78,14.35-5.22,10.5,3.33,31.07,48.3,72.37.84.81,1.99,1.84,3.43,2.93,10.21,7.76,25,10.97,27.63,7.13,1.22-1.79.47-6.04-9.19-17.16Z"/>
        <path class="cls-22" d="M240.73,351.34c-9.29-20.51-11.01-37.16-10.92-48.41.2-24.94,9.4-37.46,6.4-62.05-1.83-14.99-7.23-26.67-11.28-33.92-.07-.66-.82-6.55-6.31-9.83-3.36-2.01-7.62-2.53-11.65-.9-2.73,7.35-7.26,16.02-14.54,17.42-10.15,1.95-16.58-11.98-28.52-12.57-7.16-.35-17.22,4.04-30.06,24.69-.61.25-6.08,2.57-7.75,8.74-1.02,3.78-.37,8.02,2.29,11.46,19.88,5.02,39.28,12.35,40.05,22.73.5,6.62-6.92,9.92-9.62,16.48-4.92,11.91,6.04,33.81,58.49,75.63.98.82,2.32,1.87,3.98,2.95,11.78,7.73,28.24,10.11,30.83,5.69,1.2-2.05.05-6.66-11.39-18.11Z"/>
        <path class="cls-2" d="M255.69,359.28c-11.76-21.78-14.92-39.89-15.68-52.23-1.7-27.36,7.43-41.78,2.26-68.52-3.15-16.29-9.98-28.68-14.97-36.32-.13-.72-1.4-7.12-7.67-10.3-3.84-1.95-8.54-2.19-12.84-.1-2.43,8.27-6.73,18.12-14.6,20.21-10.98,2.92-19.09-11.86-32.23-11.59-7.88.16-18.57,5.75-31.06,29.37-.65.32-6.47,3.28-7.83,10.18-.83,4.22.21,8.82,3.39,12.38,22.18,3.97,44,10.53,45.65,21.85,1.05,7.22-6.82,11.41-9.28,18.8-4.48,13.44,9.21,36.6,69.92,78.43,1.14.83,2.69,1.87,4.59,2.93,13.51,7.57,31.73,8.92,34.23,3.88,1.16-2.34-.45-7.31-13.88-18.98Z"/>
        <path class="cls-29" d="M272.7,366.85c-14.56-22.97-19.41-42.58-21.2-56.05-3.96-29.86,4.94-46.37-2.78-75.28-4.7-17.62-13.13-30.68-19.19-38.67-.2-.78-2.08-7.7-9.2-10.7-4.36-1.84-9.53-1.75-14.08.88-2.03,9.25-5.99,20.38-14.46,23.27-11.81,4.04-21.84-11.54-36.22-10.24-8.62.78-19.92,7.73-31.8,34.58-.69.4-6.84,4.1-7.8,11.76-.59,4.69.9,9.65,4.67,13.31,24.62,2.66,49.04,8.17,51.72,20.45,1.71,7.83-6.6,13.03-8.74,21.32-3.88,15.07,12.9,39.41,82.66,80.61,1.32.82,3.09,1.84,5.26,2.86,15.39,7.26,35.47,7.35,37.82,1.63,1.09-2.66-1.06-7.97-16.67-19.74Z"/>
        <path class="cls-21" d="M291.93,373.84c-17.72-24.06-24.54-45.19-27.53-59.82-6.63-32.43,1.86-51.21-8.81-82.31-6.51-18.95-16.75-32.62-24-40.92-.28-.84-2.87-8.28-10.9-11.02-4.92-1.68-10.58-1.19-15.37,2.04-1.52,10.3-5.01,22.8-14.07,26.62-12.64,5.33-24.82-10.98-40.49-8.45-9.39,1.52-21.24,10-32.21,40.35-.73.49-7.19,5.01-7.65,13.49-.28,5.19,1.73,10.51,6.14,14.24,27.19,1.03,54.39,5.19,58.26,18.45,2.47,8.45-6.24,14.79-7.94,24.04-3.1,16.82,17.16,42.22,96.79,82.03,1.5.8,3.53,1.78,5.98,2.74,17.43,6.78,39.45,5.34,41.59-1.12.99-2.99-1.77-8.66-19.79-20.36Z"/>
        <path class="cls-4" d="M313.54,380.02c-21.27-25.02-30.37-47.66-34.77-63.46-9.75-35.04-1.88-56.28-15.97-89.56-8.59-20.28-20.86-34.48-29.45-43.01-.37-.89-3.79-8.85-12.8-11.25-5.52-1.47-11.69-.49-16.69,3.41-.87,11.41-3.74,25.38-13.38,30.26-13.44,6.81-28.05-10.13-45.03-6.16-10.18,2.38-22.52,12.59-32.22,46.7-.76.6-7.49,6.05-7.35,15.37.09,5.71,2.7,11.39,7.82,15.14,29.88-.96,60.02,1.52,65.28,15.76,3.35,9.08-5.71,16.69-6.86,26.96-2.1,18.68,22.05,44.96,112.39,82.51,1.71.76,4,1.68,6.77,2.54,19.62,6.09,43.65,2.82,45.5-4.41.86-3.36-2.6-9.36-23.25-20.8Z"/>
        <path class="cls-13" d="M337.7,385.15c-25.23-25.8-36.95-49.92-42.98-66.91-13.37-37.67-6.38-61.56-24.37-96.95-10.97-21.57-25.51-36.2-35.58-44.9-.47-.95-4.83-9.42-14.89-11.35-6.17-1.18-12.86.36-18.04,5.02-.08,12.57-2.16,28.1-12.35,34.2-14.21,8.5-31.53-8.95-49.83-3.3-10.98,3.39-23.72,15.53-31.74,53.66-.79.71-7.75,7.2-6.88,17.41.53,6.26,3.84,12.28,9.73,15.99,32.68-3.34,65.91-2.93,72.77,12.28,4.37,9.69-4.98,18.73-5.46,30.08-.88,20.63,27.62,47.6,129.53,81.83,1.93.7,4.52,1.54,7.61,2.27,21.98,5.18,48.07-.25,49.55-8.32.68-3.75-3.57-10.06-27.08-21.02Z"/>
        <path class="cls-31" d="M364.58,388.92c-29.64-26.35-44.33-51.89-52.24-70.05-17.55-40.27-11.71-66.99-34.15-104.41-13.68-22.81-30.74-37.73-42.45-46.49-.59-1.01-6.02-9.95-17.19-11.3-6.85-.83-14.07,1.38-19.39,6.89.87,13.79-.21,30.97-10.91,38.44-14.93,10.41-35.25-7.4-54.88.21-11.77,4.56-24.81,18.84-30.68,61.26-.81.84-7.94,8.49-6.21,19.61,1.06,6.82,5.15,13.16,11.89,16.79,35.57-6.17,72.03-8.26,80.72,7.88,5.54,10.29-4.02,20.92-3.68,33.4.62,22.69,33.92,50.06,148.27,79.78,2.17.62,5.07,1.34,8.52,1.9,24.49,3.99,52.68-3.96,53.67-12.92.46-4.16-4.69-10.75-31.3-20.97Z"/>
        <path class="cls-26" d="M394.34,390.99c-34.51-26.61-52.57-53.48-62.64-72.78-22.32-42.8-17.97-72.54-45.44-111.84-16.74-23.95-36.59-39-50.1-47.71-.72-1.06-7.36-10.45-19.71-11.07-7.57-.38-15.31,2.59-20.72,9.04,2.01,15.05,2.15,33.97-9.02,42.97-15.57,12.55-39.21-5.41-60.15,4.43-12.56,5.9-25.76,22.55-28.93,69.5-.82.98-8.06,9.92-5.3,21.98,1.69,7.39,6.65,14.03,14.32,17.49,38.52-9.49,78.33-14.58,89.09,2.45,6.86,10.86-2.8,23.24-1.47,36.89,2.42,24.82,41.03,52.28,168.65,76.09,2.43.51,5.66,1.08,9.48,1.43,27.15,2.5,57.44-8.38,57.85-18.28.19-4.6-5.96-11.43-35.92-20.59Z"/>
        <path class="cls-11" d="M427.12,390.97c-39.87-26.52-61.73-54.6-74.24-74.99-27.75-45.2-25.26-78.14-58.39-119.12-20.19-24.97-43.1-39.95-58.57-48.46-.87-1.11-8.87-10.89-22.46-10.62-8.33.16-16.59,4.01-22.02,11.5,3.36,16.34,4.96,37.07-6.59,47.8-16.1,14.96-43.39-2.92-65.59,9.47-13.31,7.43-26.51,26.7-26.39,78.41-.83,1.14-8.07,11.49-4.13,24.5,2.42,7.97,8.37,14.88,17.04,18.08,41.5-13.36,84.75-21.99,97.85-4.14,8.35,11.38-1.29,25.69,1.21,40.55,4.56,27.02,48.98,54.16,190.71,70.48,2.7.38,6.29.75,10.51.84,29.95.65,62.33-13.59,62.01-24.47-.15-5.05-7.41-12.07-40.95-19.82Z"/>
        <path class="cls-3" d="M463.05,388.45c-45.74-26.02-71.85-55.12-87.14-76.51-33.89-47.43-33.68-83.72-73.14-126.11-24.04-25.83-50.31-40.49-67.92-48.63-1.04-1.15-10.55-11.26-25.43-9.92-9.12.82-17.88,5.67-23.26,14.29,4.94,17.66,8.28,40.26-3.56,52.9-16.51,17.63-47.79.12-71.18,15.41-14.02,9.17-27.01,31.3-22.92,87.98-.82,1.31-7.97,13.21-2.65,27.17,3.26,8.55,10.31,15.67,20.07,18.51,44.47-17.82,91.22-30.6,106.95-12.04,10.03,11.83.55,28.26,4.44,44.36,7.07,29.28,57.85,55.62,214.47,62.64,2.99.2,6.95.34,11.58.12,32.89-1.58,67.28-19.67,66.1-31.58-.55-5.53-9.05-12.67-46.41-18.58Z"/>
        <path class="cls-18" d="M502.25,382.92c-52.14-25.02-82.99-54.92-101.39-77.19-40.78-49.39-43.34-89.2-89.84-132.63-28.34-26.47-58.26-40.53-78.19-48.11-1.23-1.18-12.43-11.53-28.64-8.93-9.93,1.6-19.16,7.59-24.41,17.45,6.76,18.98,12.16,43.5.15,58.26-16.74,20.59-52.38,3.8-76.85,22.35-14.67,11.12-27.21,36.38-18.38,98.2-.8,1.5-7.72,15.1-.82,29.99,4.23,9.13,12.5,16.38,23.42,18.75,47.39-22.95,97.65-40.54,116.31-21.4,11.9,12.2,2.77,30.94,8.27,48.29,9.99,31.55,67.68,56.54,239.91,52.23,3.29,0,7.64-.16,12.7-.76,35.93-4.25,72.25-26.72,70.04-39.69-1.02-6.02-10.89-13.19-52.3-16.81Z"/>
        <path class="cls-17" d="M544.79,373.86c-59.07-23.43-95.19-53.84-117.06-76.85-48.49-51.02-54.35-94.46-108.65-138.51-33.09-26.85-66.97-39.96-89.4-46.74-1.44-1.2-14.51-11.69-32.08-7.59-10.77,2.51-20.42,9.79-25.42,21,8.87,20.28,16.66,46.76,4.63,63.86-16.78,23.86-57.13,8.18-82.53,30.39-15.23,13.32-27.04,41.97-12.62,109.06-.76,1.71-7.31,17.14,1.4,32.94,5.34,9.68,14.96,17,27.11,18.76,50.19-28.79,103.94-51.92,125.87-32.38,13.98,12.46,5.41,33.7,12.77,52.3,13.37,33.82,78.52,56.79,267,38.86,3.61-.26,8.37-.76,13.87-1.8,39.06-7.41,77.15-34.83,73.74-48.88-1.58-6.52-12.95-13.63-58.62-14.42Z"/>
        <path class="cls-12" d="M590.74,360.66c-66.55-21.15-108.48-51.73-134.21-75.27-57.07-52.21-66.82-99.38-129.73-143.51-38.34-26.89-76.48-38.67-101.58-44.39-1.67-1.2-16.8-11.7-35.75-5.86-11.61,3.58-21.64,12.29-26.25,24.97,11.28,21.56,21.85,49.98,9.97,69.65-16.56,27.44-62,13.34-88.14,39.64-15.67,15.77-26.42,48.08-5.48,120.52-.7,1.93-6.7,19.35,4.06,36,6.6,10.2,17.71,17.49,31.16,18.49,52.81-35.41,109.96-64.89,135.5-45.14,16.28,12.59,8.51,36.53,18,56.36,17.25,36.05,90.43,56.24,295.67,22.14,3.94-.56,9.11-1.47,15.07-3.04,42.25-11.12,81.91-44.1,77.09-59.23-2.24-7.03-15.24-13.94-65.37-11.32Z"/>
        <path class="cls-6" d="M640.09,342.68c-74.58-18.09-122.88-48.39-152.9-72.23-66.56-52.86-80.87-103.82-153.21-147.37-44.09-26.54-86.8-36.53-114.76-40.87-1.92-1.19-19.32-11.54-39.64-3.69-12.45,4.81-22.78,15.13-26.86,29.38,14.02,22.77,27.78,53.11,16.27,75.59-16.05,31.35-66.94,19.38-93.58,50.21-15.97,18.49-25.28,54.73,3.23,132.54-.62,2.17-5.86,21.73,7.21,39.15,8.01,10.68,20.75,17.82,35.57,17.88,55.18-42.86,115.57-79.56,145.07-59.87,18.81,12.55,12.13,39.39,24.06,60.4,21.67,38.2,103.44,54.72,325.81,1.6,4.28-.92,9.88-2.31,16.28-4.49,45.47-15.43,86.41-54.62,79.97-70.84-2.99-7.53-17.78-14.12-72.53-7.39Z"/>
        <path class="cls-24" d="M692.81,319.18c-83.14-14.11-138.41-43.63-173.15-67.46-77.02-52.84-96.61-107.61-179.25-149.81-50.36-25.72-97.95-33.39-128.94-36-2.2-1.16-22.06-11.17-43.74-1-13.28,6.23-23.81,18.34-27.2,34.27,17.11,23.88,34.53,56.09,23.63,81.61-15.2,35.59-71.9,26.38-98.74,62.22-16.09,21.49-23.52,61.94,13.71,145.04-.52,2.43-4.76,24.27,10.91,42.37,9.6,11.09,24.11,17.94,40.36,16.87,57.2-51.21,120.59-96.08,154.44-76.75,21.58,12.32,16.32,42.25,31,64.37,26.69,40.21,117.59,52.05,357.29-23.22,4.62-1.33,10.65-3.29,17.5-6.17,48.66-20.4,90.54-66.5,82.23-83.79-3.85-8.03-20.57-14.11-80.08-2.55Z"/>
        <path class="cls-8" d="M748.81,289.38c-92.22-9.09-155.07-37.21-194.98-60.68-88.48-52.02-114.15-110.56-207.98-150.48-57.18-24.33-109.94-29.1-144.1-29.59-2.5-1.1-25.04-10.55-48.02,2.25-14.08,7.85-24.7,21.93-27.19,39.65,20.59,24.87,42.15,58.84,32.16,87.65-13.93,40.18-76.8,34.43-103.47,75.77-15.99,24.79-21.03,69.7,26.14,157.95-.38,2.7-3.36,26.97,15.21,45.61,11.38,11.43,27.81,17.82,45.54,15.4,58.78-60.53,124.83-114.56,163.42-95.98,24.6,11.85,21.13,45.07,38.92,68.19,32.34,42.04,132.9,48.05,389.89-52.84,4.96-1.81,11.42-4.43,18.72-8.1,51.78-26.09,94.15-79.84,83.72-98.16-4.84-8.5-23.63-13.9-87.98,3.35Z"/>
        <path class="cls-28" d="M807.91,252.41c-101.8-2.9-172.85-28.91-218.39-51.57-100.98-50.25-133.61-112.45-239.53-149.02-64.55-22.29-122.75-23.47-160.24-21.39-2.82-1.01-28.26-9.65-52.47,6.15-14.84,9.68-25.39,25.93-26.76,45.55,24.47,25.68,50.72,61.27,41.98,93.62-12.19,45.12-81.55,43.63-107.62,90.99-15.63,28.4-17.71,78.02,40.77,171.14-.21,2.99-1.61,29.82,20.16,48.83,13.35,11.65,31.85,17.4,51.11,13.39,59.79-70.86,128.06-135.16,171.79-117.74,27.88,11.1,26.62,47.78,47.89,71.77,38.67,43.6,149.37,42.48,423.35-87.81,5.3-2.37,12.18-5.73,19.9-10.32,54.76-32.57,97.09-94.74,84.25-114.02-5.96-8.95-26.97-13.42-96.18,10.41Z"/>
        <path class="cls-9" d="M869.86,207.37c-111.81,4.62-191.7-18.44-243.36-39.79-114.55-47.34-155.09-113.03-274-145C280.03,3.09,216.14,6.26,175.2,11.42c-3.17-.89-31.72-8.41-57.05,10.76-15.52,11.75-25.85,30.37-25.85,51.98,28.8,26.28,60.29,63.28,53.19,99.41-9.9,50.39-86.05,54.08-111,108-14.96,32.33-13.44,86.88,57.81,184.49,0,3.29.52,32.81,25.85,51.98,15.52,11.75,36.25,16.63,57.05,10.76,60.12-82.26,130.02-157.98,179.3-142.24,31.41,10.04,32.84,50.34,58,75,45.74,44.83,167,35.12,457.36-128.71,5.62-3,12.91-7.21,21.02-12.84,57.53-39.91,99.17-111.3,83.62-131.45-7.22-9.35-30.59-12.65-104.64,18.79Z"/>
      </g>
      <circle class="cls-32" cx="92.5" cy="524.58" r="7.5"/>
      <circle class="cls-32" cx="56.5" cy="486.58" r="7.5"/>
      <circle class="cls-32" cx="66.5" cy="468.58" r="7.5"/>
      <circle class="cls-32" cx="26.5" cy="442.58" r="7.5"/>
      <circle class="cls-32" cx="46.5" cy="424.58" r="7.5"/>
      <circle class="cls-32" cx="215.5" cy="536.58" r="7.5"/>
      <circle class="cls-32" cx="232.5" cy="502.58" r="7.5"/>
      <circle class="cls-32" cx="197" cy="523.08" r="5"/>
      <circle class="cls-32" cx="25" cy="490.08" r="5"/>
      <circle class="cls-32" cx="83" cy="506.08" r="5"/>
      <circle class="cls-32" cx="32" cy="413.08" r="5"/>
      <circle class="cls-32" cx="5" cy="397.08" r="5"/>
      <circle class="cls-32" cx="257" cy="485.08" r="5"/>
    </g>
  </g>
</svg>