<?xml version="1.0" encoding="UTF-8"?>
<svg id="Layer_2" xmlns="http://www.w3.org/2000/svg" viewBox="0 0 1031.41 694">
  <defs>
    <style>
      .cls-1 {
        stroke-dasharray: 0 4.31;
        stroke-width: .86px;
      }

      .cls-1, .cls-2, .cls-3, .cls-4, .cls-5, .cls-6, .cls-7, .cls-8, .cls-9, .cls-10, .cls-11, .cls-12, .cls-13, .cls-14, .cls-15, .cls-16, .cls-17, .cls-18, .cls-19, .cls-20, .cls-21, .cls-22, .cls-23, .cls-24, .cls-25, .cls-26, .cls-27, .cls-28, .cls-29, .cls-30, .cls-31 {
        fill: none;
        stroke: #8aceca;
        stroke-linecap: round;
        stroke-linejoin: round;
      }

      .cls-2 {
        stroke-dasharray: 0 23.51;
        stroke-width: 4.7px;
      }

      .cls-3 {
        stroke-dasharray: 0 14.67;
        stroke-width: 2.93px;
      }

      .cls-4 {
        stroke-dasharray: 0 34.29;
        stroke-width: 6.86px;
      }

      .cls-5 {
        stroke-dasharray: 0 11.06;
        stroke-width: 2.21px;
      }

      .cls-6 {
        stroke-dasharray: 0 50;
        stroke-width: 10px;
      }

      .cls-7 {
        stroke-dasharray: 0 7.58;
        stroke-width: 1.52px;
      }

      .cls-8 {
        stroke-dasharray: 0 5.2;
        stroke-width: 1.04px;
      }

      .cls-9 {
        stroke-dasharray: 0 41.4;
        stroke-width: 8.28px;
      }

      .cls-32 {
        fill: #8aceca;
      }

      .cls-10 {
        stroke-dasharray: 0 10.06;
        stroke-width: 2.01px;
      }

      .cls-11 {
        stroke-dasharray: 0 31.2;
        stroke-width: 6.24px;
      }

      .cls-12 {
        stroke-dasharray: 0 21.4;
        stroke-width: 4.28px;
      }

      .cls-13 {
        stroke-dasharray: 0 3.57;
        stroke-width: .71px;
      }

      .cls-14 {
        stroke-dasharray: 0 28.39;
        stroke-width: 5.68px;
      }

      .cls-15 {
        stroke-dasharray: 0 5.71;
        stroke-width: 1.14px;
      }

      .cls-16 {
        stroke-dasharray: 0 16.12;
        stroke-width: 3.22px;
      }

      .cls-17 {
        stroke-dasharray: 0 2.95;
        stroke-width: .59px;
      }

      .cls-18 {
        stroke-dasharray: 0 25.84;
        stroke-width: 5.17px;
      }

      .cls-19 {
        stroke-dasharray: 0 9.16;
        stroke-width: 1.83px;
      }

      .cls-20 {
        stroke-dasharray: 0 4.73;
        stroke-width: .95px;
      }

      .cls-21 {
        stroke-dasharray: 0 13.35;
        stroke-width: 2.67px;
      }

      .cls-22 {
        stroke-dasharray: 0 37.68;
        stroke-width: 7.54px;
      }

      .cls-23 {
        stroke-dasharray: 0 3.92;
        stroke-width: .78px;
      }

      .cls-24 {
        stroke-dasharray: 0 19.47;
        stroke-width: 3.89px;
      }

      .cls-25 {
        stroke-dasharray: 0 8.33;
        stroke-width: 1.67px;
      }

      .cls-26 {
        stroke-dasharray: 0 6.9;
        stroke-width: 1.38px;
      }

      .cls-27 {
        stroke-dasharray: 0 3.24;
        stroke-width: .65px;
      }

      .cls-28 {
        stroke-dasharray: 0 45.5;
        stroke-width: 9.1px;
      }

      .cls-29 {
        stroke-dasharray: 0 6.28;
        stroke-width: 1.26px;
      }

      .cls-30 {
        stroke-dasharray: 0 12.15;
        stroke-width: 2.43px;
      }

      .cls-31 {
        stroke-dasharray: 0 17.72;
        stroke-width: 3.54px;
      }
    </style>
  </defs>
  <g id="low_good">
    <g>
      <g>
        <path class="cls-17" d="M511.05,333.75c5.76,1.09,6.15,8.14,11.73,9.99,3.22,1.07,7.23.08,9.45-2.14,4.9-4.89.53-15.12,0-16.32-3.47-7.87-11.53-13.88-20.06-15.34-18.47-3.16-38.45,15.13-36.56,25.77.94,5.27,7.54,10.38,12.75,9.81,6.18-.67,8.4-9.11,18.42-11.41,1.71-.39,2.82-.63,4.28-.36Z"/>
        <path class="cls-27" d="M499.1,320.12c-6.17-1.86-5.78-9.61-11.67-12.26-3.4-1.54-7.89-.92-10.58,1.25-5.92,4.78-2.31,16.47-1.87,17.84,2.89,9,11.01,16.49,20.17,19.07,19.83,5.58,43.76-12.11,42.92-23.97-.42-5.87-7.05-12.21-12.81-12.19-6.83.03-10.22,8.99-21.44,10.36-1.91.23-3.15.37-4.72-.1Z"/>
        <path class="cls-13" d="M510.59,336.39c6.53,2.74,5.22,11.16,11.34,14.74,3.54,2.07,8.52,1.91,11.7-.15,7.02-4.54,4.42-17.73,4.1-19.28-2.13-10.16-10.13-19.29-19.85-23.16-21.03-8.37-49.22,8.21-49.66,21.26-.22,6.47,6.31,14.15,12.6,14.79,7.47.75,12.21-8.65,24.62-8.86,2.12-.04,3.49-.04,5.15.65Z"/>
        <path class="cls-23" d="M499.9,317.29c-6.82-3.74-4.42-12.8-10.7-17.41-3.63-2.67-9.09-3.06-12.81-1.18-8.19,4.16-6.87,18.87-6.69,20.6,1.16,11.35,8.86,22.24,19.03,27.59,22.02,11.56,54.73-3.32,56.71-17.53.98-7.04-5.27-16.19-12.07-17.61-8.07-1.68-14.33,8.06-27.92,6.85-2.32-.21-3.81-.35-5.55-1.31Z"/>
        <path class="cls-1" d="M509.39,339.39c7.02,4.87,3.36,14.49,9.7,20.26,3.66,3.33,9.58,4.39,13.86,2.76,9.43-3.61,9.67-19.83,9.68-21.74.04-12.54-7.13-25.33-17.63-32.33-22.74-15.17-60.2-2.66-63.99,12.65-1.88,7.58,3.9,18.3,11.17,20.63,8.63,2.77,16.59-7.16,31.3-4.28,2.51.49,4.13.82,5.91,2.06Z"/>
        <path class="cls-20" d="M501.56,314.15c-7.11-6.13-2.01-16.23-8.27-23.26-3.62-4.06-9.97-5.9-14.83-4.6-10.72,2.86-12.85,20.56-13.08,22.65-1.48,13.7,4.88,28.5,15.56,37.36,23.1,19.19,65.48,9.82,71.39-6.47,2.93-8.07-2.15-20.45-9.84-23.83-9.11-4.01-18.95,5.92-34.7,1.09-2.69-.82-4.42-1.38-6.23-2.93Z"/>
        <path class="cls-8" d="M507.22,342.63c7.07,7.52.33,17.96,6.37,26.37,3.49,4.86,10.22,7.59,15.68,6.74,12.04-1.89,16.41-21,16.89-23.25,3.19-14.8-2.06-31.7-12.71-42.62-23.05-23.62-70.44-18.25-78.77-1.13-4.13,8.48,0,22.59,8.01,27.17,9.5,5.43,21.4-4.29,38.05,2.8,2.84,1.21,4.67,2.01,6.47,3.92Z"/>
        <path class="cls-15" d="M504.31,310.86c-6.86-9.03,1.7-19.67-3.93-29.55-3.26-5.71-10.29-9.47-16.37-9.16-13.38.68-20.34,21.06-21.13,23.47-5.19,15.81-1.39,34.89,8.99,48.04,22.47,28.47,74.88,28.04,85.95,10.28,5.48-8.8,2.59-24.69-5.64-30.62-9.76-7.03-23.87,2.23-41.26-7.43-2.97-1.65-4.87-2.73-6.62-5.03Z"/>
        <path class="cls-29" d="M503.84,345.92c6.46,10.65-4.12,21.3.9,32.74,2.9,6.61,10.16,11.53,16.83,11.89,14.7.79,24.65-20.68,25.79-23.22,7.49-16.68,5.53-37.97-4.31-53.53-21.29-33.69-78.62-39.24-92.75-21.11-7,8.99-5.67,26.69,2.64,34.11,9.86,8.8,26.35.31,44.24,12.86,3.06,2.14,5.01,3.55,6.65,6.26Z"/>
        <path class="cls-26" d="M508.38,307.65c-5.84-12.39,6.95-22.81,2.77-35.89-2.41-7.56-9.78-13.77-17.03-14.93-15.98-2.55-29.32,19.77-30.85,22.42-10.1,17.37-10.4,40.86-1.44,59,19.4,39.27,81.41,51.92,98.94,33.72,8.69-9.02,9.26-28.52,1.03-37.58-9.76-10.75-28.76-3.36-46.87-19.14-3.09-2.69-5.07-4.45-6.55-7.6Z"/>
        <path class="cls-7" d="M499.02,348.95c4.96,14.21-10.21,24.13-7.16,38.9,1.77,8.54,9.11,16.18,16.9,18.27,17.17,4.62,34.31-18.24,36.29-20.95,13.03-17.82,16.06-43.46,8.35-64.32-16.69-45.14-83.01-66.09-104.26-48.22-10.53,8.85-13.39,30.1-5.44,40.96,9.43,12.87,31.05,6.98,49.03,26.3,3.07,3.3,5.03,5.45,6.29,9.06Z"/>
        <path class="cls-25" d="M513.99,304.89c-3.79-16.1,13.94-25.2,12.29-41.69-.95-9.54-8.09-18.72-16.37-21.91-18.23-7.03-39.59,16-42.07,18.73-16.29,17.98-22.54,45.65-16.51,69.33,13.06,51.25,83.13,81.77,108.41,64.68,12.52-8.47,18.09-31.36,10.65-44.13-8.83-15.15-33.13-11.19-50.56-34.37-2.98-3.96-4.87-6.53-5.83-10.63Z"/>
        <path class="cls-19" d="M492.57,351.32c2.29,18.03-18.12,25.94-18.22,44.16-.06,10.53,6.69,21.39,15.37,25.83,19.12,9.77,45.11-12.93,48.13-15.64,19.87-17.78,29.88-47.3,26.01-73.87-8.38-57.51-81.46-98.91-111.05-83.14-14.66,7.82-23.38,32.2-16.71,47.01,7.91,17.57,34.92,16.04,51.31,43.37,2.8,4.67,4.57,7.7,5.15,12.28Z"/>
        <path class="cls-10" d="M521.31,303.04c-.44-19.96,22.79-26.26,24.98-46.16,1.27-11.5-4.86-24.15-13.83-29.99-19.77-12.88-50.78,8.95-54.4,11.56-23.76,17.15-38.09,48.26-36.91,77.75,2.55,63.82,77.67,117.45,111.81,103.61,16.92-6.86,29.25-32.5,23.66-49.46-6.62-20.11-36.32-21.54-51.1-53.29-2.52-5.42-4.11-8.94-4.22-14.02Z"/>
        <path class="cls-5" d="M484.36,352.51c-1.82,21.87-27.92,26.09-32.61,47.58-2.71,12.43,2.54,26.95,11.67,34.37,20.13,16.34,56.53-3.95,60.78-6.39,27.93-16.01,47.17-48.37,49.27-80.73,4.54-70.04-71.39-137.28-110.29-126.08-19.28,5.55-35.7,32.16-31.54,51.33,4.93,22.74,37.22,27.71,49.72,64.11,2.13,6.22,3.47,10.24,3,15.8Z"/>
        <path class="cls-30" d="M530.43,302.69c4.5-23.69,33.51-25.3,41.1-48.26,4.39-13.27.32-29.74-8.81-38.9-20.12-20.17-62.23-2.17-67.16,0-32.37,14.29-57.11,47.44-63.12,82.57-13.01,76.02,62.25,158.24,106.05,150.46,21.71-3.85,42.71-31.05,40.37-52.48-2.78-25.42-37.5-34.56-46.97-75.78-1.62-7.04-2.61-11.59-1.47-17.61Z"/>
        <path class="cls-21" d="M474.35,351.84c-7.64,25.38-39.53,23.8-50.46,48.02-6.32,14-3.77,32.47,5.16,43.52,19.67,24.36,67.76,9.52,73.39,7.71,37.02-11.9,67.86-45.29,78.47-82.99,22.95-81.59-49.85-180.08-98.62-176.62-24.16,1.72-50.24,29.02-50.14,52.71.11,28.1,37.01,42.07,42.63,88.21.96,7.88,1.52,12.96-.42,19.42Z"/>
        <path class="cls-3" d="M541.28,304.57c11.26-26.86,45.93-21.47,60.66-46.68,8.51-14.57,7.85-35.05-.64-48.16-18.7-28.88-72.96-18.19-79.32-16.86-41.82,8.75-79.37,41.7-95.29,81.68-34.45,86.53,33.8,202.54,87.5,204.35,26.61.9,58.24-25.95,60.86-51.85,3.1-30.72-35.61-50.23-36.46-101.3-.14-8.72-.18-14.34,2.69-21.17Z"/>
        <path class="cls-16" d="M462.71,348.54c-15.39,28.06-52.67,18.19-71.66,44.05-10.98,14.95-12.61,37.41-4.84,52.7,17.12,33.71,77.65,28.26,84.76,27.54,46.71-4.76,91.53-36.46,113.52-78.32,47.59-90.61-13.67-225.23-72.15-233.38-28.97-4.04-66.63,21.67-72.47,49.68-6.92,33.22,33.15,58.99,28.21,114.9-.84,9.55-1.45,15.7-5.37,22.83Z"/>
        <path class="cls-31" d="M553.63,309.51c20.04-28.89,59.65-13.83,83.38-39.91,13.71-15.07,18.07-39.43,11.34-57.04-14.84-38.81-81.61-39.81-89.46-39.83-51.6-.16-104.22,29.33-133.06,72.56-62.42,93.56-10.93,247.72,52.04,263.34,31.2,7.74,75.31-16.03,84.9-45.97,11.38-35.51-29.45-68.28-17.63-128.81,2.02-10.34,3.39-16.99,8.49-24.34Z"/>
        <path class="cls-24" d="M449.78,341.73c-25.23,29.27-66.78,8.26-95.7,34.04-16.72,14.9-24.28,41.02-18.94,61.04,11.76,44.12,84.62,52.88,93.2,53.81,56.37,6.1,117.27-20.08,153.75-64.01,78.96-95.08,40.4-269.47-26.63-293.78-33.21-12.04-84.14,8.87-98.07,40.48-16.51,37.5,24.35,78,4.47,142.8-3.39,11.07-5.66,18.17-12.08,25.62Z"/>
        <path class="cls-12" d="M566.98,318.44c30.93-29.1,73.93-1.36,108.5-26.21,19.98-14.36,31.25-42.04,27.72-64.53-7.78-49.57-86.41-67.51-95.67-69.51-60.9-13.14-130.47,8.48-175.39,52.3-97.21,94.84-75.1,289.86-4.64,324.13,34.91,16.98,92.98-.03,111.83-32.98,22.36-39.09-17.65-88.04,11.52-156.58,4.98-11.7,8.27-19.21,16.14-26.61Z"/>
        <path class="cls-2" d="M436.22,330.43c-37.15,28.25-80.95-7-121.59,16.18-23.49,13.4-38.98,42.36-37.7,67.34,2.81,55.06,86.68,83.71,96.58,86.96,65.05,21.36,143.56,5.72,197.69-37.01,117.14-92.48,115.37-308.16,42.31-353.7-36.2-22.56-101.62-10.65-126,23.2-28.92,40.15,9.18,98.25-30.57,169.8-6.79,12.22-11.25,20.05-20.7,27.23Z"/>
        <path class="cls-18" d="M580.5,332.35c43.84-26.6,87.66,16.95,134.74-3.71,27.21-11.95,47.47-41.81,48.94-69.27,3.25-60.5-85.11-101.44-95.56-106.13-68.64-30.82-156.24-22.74-220.3,17.74-138.64,87.62-161.49,323.53-86.86,381.69,36.97,28.82,109.83,23.31,140.37-10.88,36.22-40.56,1.26-108.43,52.92-182.06,8.82-12.57,14.6-20.62,25.75-27.38Z"/>
        <path class="cls-14" d="M423.04,313.68c-50.97,24.04-93.86-28.6-147.69-11.42-31.11,9.93-56.68,40.24-61.44,70.08-10.5,65.75,81.37,120.64,92.24,126.96,71.47,41.56,168.14,42.8,242.8,5.92,161.58-79.83,213.65-335.03,138.78-407.16-37.1-35.74-117.35-38.1-154.66-4.24-44.24,40.16-13.83,118.35-78.75,192.89-11.08,12.73-18.32,20.85-31.28,26.97Z"/>
        <path class="cls-11" d="M592.98,352.17c58.46-20.42,99.29,42.04,160.09,29.44,35.14-7.28,66.56-37.47,75.2-69.53,19.03-70.65-75.07-141.19-86.23-149.35-73.34-53.63-178.84-66.09-264.67-34.36-185.76,68.68-271.98,341.6-198.43,429.04,36.44,43.32,123.88,55.11,168.53,22.39,52.97-38.81,28.71-127.76,108.22-201.76,13.58-12.64,22.42-20.69,37.29-25.88Z"/>
        <path class="cls-4" d="M411.68,290.58c-66.24,15.6-103.69-57.35-171.58-50.57-39.24,3.92-77.05,33.31-90.17,67.35-28.91,75.02,65.82,162.92,77.08,173.12,73.99,67.04,187.85,92.77,285.31,67.95,210.9-53.73,336.48-342.09,266.15-446.1-34.85-51.53-129.05-74.46-181.62-43.83-62.34,36.33-46.05,136.33-141.44,208.07-16.29,12.25-26.87,20.03-43.72,24Z"/>
        <path class="cls-22" d="M602.74,378.72c74.18-9.44,106.73,74.58,181.71,74.97,43.34.23,88.03-27.55,106.28-63.25,40.21-78.67-53.22-185.62-64.35-198.06-73.16-81.77-194.65-122.97-304-107.03-236.66,34.49-407.02,335.22-342.11,456.96,32.16,60.32,132.49,96.2,193.45,68.76,72.31-32.54,65.99-143.7,178.48-211.15,19.21-11.52,31.67-18.81,50.54-21.21Z"/>
        <path class="cls-9" d="M404.06,260.45c-82.16,1.79-108.08-93.77-189.97-102.81-47.33-5.23-99.37,20-123.42,56.92-52.99,81.36,36.84,208.97,47.58,223.85,70.56,97.76,198.6,156.75,319.94,151.89,262.61-10.51,483.33-319.6,426.37-460.11-28.22-69.62-133.74-120.36-203.52-97.37-82.76,27.26-88.62,149.47-219.31,210.26-22.32,10.38-36.77,16.92-57.67,17.37Z"/>
        <path class="cls-28" d="M607.61,412.52c89.99,7.48,107.34,114.89,195.81,134.18,51.13,11.15,110.9-10.44,141.42-48.03,67.25-82.83-16.26-232.61-26.29-250.1-65.89-114.95-199.04-194.12-332.21-202.75C298.13,27.14,21.4,339.59,67.51,499.69c22.85,79.33,132.34,146.9,211.24,129.79,93.58-20.29,114.02-153.17,263.83-204.6,25.58-8.78,42.13-14.26,65.03-12.36Z"/>
        <path class="cls-6" d="M402.62,222.94c-97.49-18.51-104.12-137.89-198.58-169.13-54.6-18.06-122.4-1.33-160.07,36.24-83.01,82.8-8.95,256.09,0,276.35,58.8,133.2,195.23,235.01,339.78,259.74,312.83,53.52,651.15-256.16,619.15-436.43-15.86-89.32-127.76-175.74-215.95-166.11-104.6,11.42-142.21,154.3-311.84,193.3-28.97,6.66-47.68,10.75-72.49,6.04Z"/>
      </g>
      <circle class="cls-32" cx="1015.41" cy="296" r="5"/>
      <circle class="cls-32" cx="930.41" cy="47" r="5"/>
      <circle class="cls-32" cx="645.41" cy="637" r="5"/>
      <circle class="cls-32" cx="593.41" cy="642" r="5"/>
      <circle class="cls-32" cx="727.41" cy="612" r="5"/>
      <circle class="cls-32" cx="552.41" cy="689" r="5"/>
      <circle class="cls-32" cx="359.41" cy="57" r="5"/>
      <circle class="cls-32" cx="454.41" cy="5" r="5"/>
      <circle class="cls-32" cx="504.41" cy="33" r="5"/>
      <circle class="cls-32" cx="404.91" cy="50.5" r="3.5"/>
      <circle class="cls-32" cx="447.91" cy="41.5" r="3.5"/>
      <circle class="cls-32" cx="998.91" cy="100.5" r="3.5"/>
      <circle class="cls-32" cx="1023.91" cy="177.5" r="3.5"/>
      <circle class="cls-32" cx="550.91" cy="650.5" r="3.5"/>
      <circle class="cls-32" cx="601.91" cy="677.5" r="3.5"/>
      <circle class="cls-32" cx="687.91" cy="610.5" r="3.5"/>
      <circle class="cls-32" cx="768.91" cy="580.5" r="3.5"/>
      <circle class="cls-32" cx="964.91" cy="85.5" r="3.5"/>
      <circle class="cls-32" cx="1027.91" cy="241.5" r="3.5"/>
      <circle class="cls-32" cx="483.91" cy="31.5" r="3.5"/>
    </g>
  </g>
</svg>