<?xml version="1.0" encoding="UTF-8"?>
<svg id="Layer_2" xmlns="http://www.w3.org/2000/svg" viewBox="0 0 1109 485">
  <defs>
    <style>
      .cls-1 {
        stroke-dasharray: 0 4.31;
        stroke-width: .86px;
      }

      .cls-1, .cls-2, .cls-3, .cls-4, .cls-5, .cls-6, .cls-7, .cls-8, .cls-9, .cls-10, .cls-11, .cls-12, .cls-13, .cls-14, .cls-15, .cls-16, .cls-17, .cls-18, .cls-19, .cls-20, .cls-21, .cls-22, .cls-23, .cls-24, .cls-25, .cls-26, .cls-27, .cls-28, .cls-29, .cls-30, .cls-31 {
        fill: none;
        stroke: #8aceca;
        stroke-linecap: round;
        stroke-linejoin: round;
      }

      .cls-2 {
        stroke-dasharray: 0 23.51;
        stroke-width: 4.7px;
      }

      .cls-3 {
        stroke-dasharray: 0 14.67;
        stroke-width: 2.93px;
      }

      .cls-4 {
        stroke-dasharray: 0 34.29;
        stroke-width: 6.86px;
      }

      .cls-5 {
        stroke-dasharray: 0 11.06;
        stroke-width: 2.21px;
      }

      .cls-6 {
        stroke-dasharray: 0 50;
        stroke-width: 10px;
      }

      .cls-7 {
        stroke-dasharray: 0 7.58;
        stroke-width: 1.52px;
      }

      .cls-8 {
        stroke-dasharray: 0 5.2;
        stroke-width: 1.04px;
      }

      .cls-9 {
        stroke-dasharray: 0 41.4;
        stroke-width: 8.28px;
      }

      .cls-32 {
        fill: #8aceca;
      }

      .cls-10 {
        stroke-dasharray: 0 10.06;
        stroke-width: 2.01px;
      }

      .cls-11 {
        stroke-dasharray: 0 31.2;
        stroke-width: 6.24px;
      }

      .cls-12 {
        stroke-dasharray: 0 21.4;
        stroke-width: 4.28px;
      }

      .cls-13 {
        stroke-dasharray: 0 3.57;
        stroke-width: .71px;
      }

      .cls-14 {
        stroke-dasharray: 0 28.39;
        stroke-width: 5.68px;
      }

      .cls-15 {
        stroke-dasharray: 0 5.71;
        stroke-width: 1.14px;
      }

      .cls-16 {
        stroke-dasharray: 0 16.12;
        stroke-width: 3.22px;
      }

      .cls-17 {
        stroke-dasharray: 0 2.95;
        stroke-width: .59px;
      }

      .cls-18 {
        stroke-dasharray: 0 25.84;
        stroke-width: 5.17px;
      }

      .cls-19 {
        stroke-dasharray: 0 9.16;
        stroke-width: 1.83px;
      }

      .cls-20 {
        stroke-dasharray: 0 4.73;
        stroke-width: .95px;
      }

      .cls-21 {
        stroke-dasharray: 0 13.35;
        stroke-width: 2.67px;
      }

      .cls-22 {
        stroke-dasharray: 0 37.68;
        stroke-width: 7.54px;
      }

      .cls-23 {
        stroke-dasharray: 0 3.92;
        stroke-width: .78px;
      }

      .cls-24 {
        stroke-dasharray: 0 19.47;
        stroke-width: 3.89px;
      }

      .cls-25 {
        stroke-dasharray: 0 8.33;
        stroke-width: 1.67px;
      }

      .cls-26 {
        stroke-dasharray: 0 6.9;
        stroke-width: 1.38px;
      }

      .cls-27 {
        stroke-dasharray: 0 3.24;
        stroke-width: .65px;
      }

      .cls-28 {
        stroke-dasharray: 0 45.5;
        stroke-width: 9.1px;
      }

      .cls-29 {
        stroke-dasharray: 0 6.28;
        stroke-width: 1.26px;
      }

      .cls-30 {
        stroke-dasharray: 0 12.15;
        stroke-width: 2.43px;
      }

      .cls-31 {
        stroke-dasharray: 0 17.72;
        stroke-width: 3.54px;
      }
    </style>
  </defs>
  <g id="low_good">
    <g>
      <g>
        <g>
          <path class="cls-17" d="M567.28,276.89c-5.2-6.89-7.8-10.34-8.04-13.52-.12-1.56.38-.85,1.36-7.37.8-5.34.57-6.47.26-7.3-.15-.4-1.75-4.49-6.18-4.88-3-.27-6.93,1.19-7.77,3.22-.28.69-.3,1.66.27,2.04.93.63,2.57-.87,4.49-.78,2.26.11,3.43,2.36,3.9,3.25,1.35,2.6.56,4.62.44,8.91-.05,1.92-.14,4.96.7,8.21.41,1.6,2.5,8.84,8.02,10.04.31.07,2.56.56,3.08-.13.37-.49-.28-1.36-.54-1.7Z"/>
          <path class="cls-17" d="M566.34,261.1c2.98-2.13,6.01-5.85,6.94-10.06,1.51-6.83-2.81-13.47-8.89-15.4-5.01-1.59-7.13,1.32-11.32-.62-5.94-2.75-5.39-10.31-10.19-10.25-.23,0-1.77.02-2.41.84-.48.61-.42,1.62,1.54,4.59,2.1,3.19,3.17,4.8,5.54,6.51,2.08,1.5,4.06,2.93,7.22,3.18,2.64.21,3.33-.63,5.71-.19,3.2.59,4.95,2.66,5.56,3.4.36.44,2.76,3.48,2.03,7.82-.33,1.97-1.3,3.83-3.25,7.55-1.19,2.28-2.14,3.74-1.68,4.08.57.42,2.87-1.23,3.19-1.46Z"/>
        </g>
        <g>
          <path class="cls-27" d="M565.81,280.16c-5.17-7.95-7.75-11.93-7.78-15.44-.01-1.72.48-.9,2.06-7.97,1.29-5.79,1.12-7.05.84-7.99-.13-.45-1.57-5.05-6.4-5.82-3.27-.52-7.69.78-8.76,2.93-.36.73-.45,1.79.14,2.26.98.76,2.88-.76,4.99-.51,2.47.3,3.58,2.85,4.02,3.87,1.29,2.96.26,5.11-.2,9.8-.21,2.11-.53,5.42.14,9.05.33,1.79,2.06,9.88,8.02,11.62.33.1,2.76.81,3.39.09.45-.51-.21-1.51-.46-1.9Z"/>
          <path class="cls-27" d="M565.99,262.78c3.43-2.11,7.03-5.96,8.38-10.5,2.18-7.37-2.05-14.98-8.57-17.56-5.37-2.13-7.92.9-12.37-1.54-6.3-3.47-5.12-11.71-10.38-12.01-.25-.01-1.94-.11-2.71.74-.57.63-.59,1.74,1.34,5.15,2.06,3.66,3.11,5.51,5.58,7.57,2.17,1.81,4.23,3.52,7.67,4.04,2.88.43,3.7-.43,6.28.23,3.47.89,5.22,3.29,5.83,4.15.36.51,2.76,4.02,1.63,8.73-.51,2.13-1.72,4.1-4.14,8.02-1.48,2.4-2.63,3.94-2.15,4.34.59.5,3.24-1.13,3.61-1.36Z"/>
        </g>
        <g>
          <path class="cls-13" d="M563.95,283.63c-5.06-9.12-7.59-13.67-7.34-17.52.12-1.89.6-.95,2.87-8.58,1.86-6.25,1.76-7.64,1.54-8.69-.11-.51-1.33-5.66-6.57-6.87-3.54-.82-8.49.26-9.83,2.54-.46.78-.63,1.93-.02,2.49,1.01.91,3.22-.61,5.5-.17,2.69.52,3.71,3.39,4.11,4.55,1.18,3.34-.11,5.62-.98,10.73-.39,2.29-1,5.9-.54,9.93.23,1.98,1.5,10.99,7.9,13.35.35.13,2.96,1.1,3.71.36.53-.52-.11-1.67-.36-2.12Z"/>
          <path class="cls-13" d="M565.48,264.59c3.92-2.05,8.17-5.99,9.99-10.87,2.96-7.91-1.1-16.58-8.04-19.91-5.73-2.75-8.75.38-13.44-2.64-6.64-4.28-4.72-13.23-10.46-13.97-.27-.03-2.12-.27-3.02.6-.67.65-.78,1.87,1.07,5.75,1.98,4.17,2.99,6.28,5.54,8.72,2.24,2.15,4.37,4.19,8.1,5.02,3.12.69,4.09-.19,6.86.74,3.73,1.25,5.47,4.01,6.08,4.99.35.58,2.72,4.62,1.11,9.7-.73,2.3-2.2,4.36-5.15,8.48-1.81,2.52-3.18,4.12-2.69,4.6.61.6,3.64-.99,4.06-1.21Z"/>
        </g>
        <g>
          <path class="cls-23" d="M561.65,287.29c-4.85-10.38-7.27-15.57-6.71-19.77.28-2.06.73-.99,3.8-9.19,2.51-6.7,2.52-8.24,2.35-9.41-.08-.56-1.03-6.31-6.68-8.04-3.82-1.17-9.33-.36-10.97,2.03-.56.82-.84,2.07-.21,2.73,1.04,1.08,3.57-.42,6.05.23,2.9.77,3.8,4.01,4.16,5.3,1.04,3.75-.55,6.15-1.89,11.69-.6,2.48-1.55,6.4-1.35,10.85.1,2.19.8,12.16,7.64,15.24.38.17,3.17,1.43,4.04.68.62-.53,0-1.84-.23-2.35Z"/>
          <path class="cls-23" d="M564.79,266.54c4.45-1.95,9.41-5.94,11.79-11.15,3.85-8.44.07-18.26-7.29-22.44-6.07-3.45-9.62-.25-14.53-3.93-6.95-5.2-4.16-14.87-10.39-16.11-.29-.06-2.3-.46-3.36.43-.79.66-1,1.99.73,6.38,1.85,4.72,2.79,7.11,5.4,9.99,2.29,2.53,4.47,4.92,8.49,6.12,3.37,1,4.5.11,7.47,1.33,4,1.65,5.69,4.81,6.28,5.94.34.67,2.63,5.28.48,10.72-.97,2.47-2.75,4.61-6.3,8.9-2.17,2.63-3.8,4.27-3.31,4.83.62.7,4.06-.8,4.55-1.01Z"/>
        </g>
        <g>
          <path class="cls-1" d="M558.84,291.13c-4.52-11.75-6.77-17.63-5.84-22.18.46-2.24.87-1.03,4.87-9.78,3.27-7.16,3.39-8.84,3.3-10.13-.05-.62-.64-6.99-6.7-9.32-4.1-1.58-10.19-1.11-12.18,1.39-.68.85-1.08,2.2-.44,2.97,1.06,1.26,3.95-.19,6.61.72,3.13,1.07,3.86,4.68,4.15,6.13.85,4.19-1.08,6.7-2.97,12.67-.85,2.68-2.19,6.89-2.31,11.79-.06,2.41-.05,13.39,7.21,17.3.4.22,3.36,1.81,4.37,1.06.72-.53.15-2.02-.08-2.6Z"/>
          <path class="cls-1" d="M563.87,268.63c5.03-1.79,10.77-5.79,13.77-11.31,4.87-8.96,1.47-20.01-6.27-25.16-6.39-4.25-10.53-1.02-15.62-5.42-7.22-6.24-3.42-16.62-10.16-18.46-.32-.09-2.49-.68-3.72.21-.91.66-1.24,2.1.31,7.05,1.67,5.31,2.52,8.01,5.15,11.36,2.32,2.94,4.52,5.74,8.84,7.36,3.61,1.35,4.92.46,8.08,2.03,4.25,2.12,5.87,5.71,6.43,6.99.33.76,2.47,5.99-.3,11.78-1.26,2.63-3.37,4.84-7.58,9.27-2.58,2.71-4.5,4.39-3.99,5.04.63.82,4.51-.57,5.06-.76Z"/>
        </g>
        <g>
          <path class="cls-20" d="M555.47,295.13c-4.05-13.23-6.07-19.84-4.7-24.77.68-2.42,1.04-1.06,6.09-10.35,4.13-7.59,4.4-9.43,4.39-10.86,0-.69-.17-7.71-6.63-10.73-4.37-2.05-11.09-2-13.46.59-.81.88-1.36,2.33-.71,3.23,1.06,1.46,4.34.09,7.19,1.29,3.34,1.41,3.87,5.43,4.08,7.04.61,4.66-1.7,7.27-4.23,13.66-1.14,2.87-2.92,7.39-3.44,12.75-.25,2.64-1.08,14.68,6.57,19.51.42.27,3.55,2.24,4.71,1.5.83-.53.32-2.2.12-2.85Z"/>
          <path class="cls-20" d="M562.71,270.84c5.65-1.58,12.26-5.52,15.97-11.35,6.02-9.45,3.15-21.82-4.95-28.06-6.68-5.15-11.46-1.92-16.71-7.14-7.44-7.39-2.47-18.48-9.72-21.01-.34-.12-2.68-.94-4.09-.05-1.05.66-1.52,2.21-.2,7.76,1.42,5.95,2.14,8.97,4.78,12.85,2.32,3.41,4.51,6.64,9.12,8.74,3.86,1.76,5.36.88,8.7,2.85,4.5,2.65,6,6.71,6.51,8.16.3.85,2.25,6.75-1.23,12.9-1.58,2.78-4.06,5.05-9.03,9.58-3.04,2.78-5.27,4.47-4.77,5.22.62.94,4.99-.28,5.61-.45Z"/>
        </g>
        <g>
          <path class="cls-8" d="M551.46,299.25c-3.42-14.81-5.14-22.22-3.25-27.51.93-2.6,1.22-1.09,7.47-10.88,5.11-8.01,5.54-10,5.65-11.57.05-.75.4-8.47-6.45-12.28-4.64-2.58-12-3.04-14.8-.39-.95.9-1.67,2.45-1.02,3.48,1.05,1.69,4.75.44,7.79,1.97,3.56,1.8,3.83,6.25,3.94,8.03.31,5.16-2.42,7.83-5.68,14.65-1.46,3.06-3.77,7.87-4.75,13.71-.48,2.87-2.31,16,5.71,21.89.44.33,3.72,2.73,5.05,2,.95-.52.51-2.39.34-3.12Z"/>
          <path class="cls-8" d="M561.26,273.18c6.32-1.3,13.86-5.11,18.37-11.21,7.33-9.9,5.12-23.68-3.27-31.14-6.93-6.15-12.42-2.98-17.77-9.1-7.59-8.67-1.29-20.45-9.05-23.78-.37-.16-2.86-1.23-4.48-.37-1.2.64-1.84,2.3-.81,8.49,1.1,6.64,1.66,10,4.25,14.45,2.28,3.91,4.44,7.62,9.33,10.28,4.1,2.23,5.81,1.38,9.32,3.79,4.73,3.25,6.06,7.82,6.51,9.44.26.96,1.95,7.57-2.34,14.04-1.94,2.93-4.84,5.23-10.63,9.81-3.55,2.81-6.12,4.49-5.63,5.36.61,1.08,5.49.08,6.18-.06Z"/>
        </g>
        <g>
          <path class="cls-15" d="M546.76,303.46c-2.62-16.5-3.93-24.75-1.45-30.41,1.22-2.78,1.42-1.1,9.02-11.35,6.22-8.39,6.84-10.54,7.08-12.25.11-.82,1.09-9.25-6.13-13.95-4.89-3.18-12.93-4.26-16.19-1.56-1.11.92-2.01,2.56-1.39,3.74,1.02,1.93,5.18.84,8.38,2.76,3.76,2.25,3.72,7.14,3.7,9.1-.05,5.68-3.25,8.4-7.35,15.63-1.84,3.24-4.74,8.34-6.26,14.66-.75,3.11-3.76,17.37,4.58,24.44.46.39,3.86,3.27,5.39,2.58,1.08-.49.75-2.58.62-3.39Z"/>
          <path class="cls-15" d="M559.5,275.64c7.03-.94,15.58-4.54,21-10.89,8.79-10.29,7.43-25.57-1.2-34.39-7.12-7.28-13.39-4.22-18.79-11.34-7.65-10.09.15-22.51-8.09-26.76-.39-.2-3.04-1.57-4.88-.75-1.37.61-2.19,2.38-1.54,9.24.7,7.36,1.06,11.09,3.56,16.17,2.2,4.46,4.28,8.7,9.44,11.99,4.32,2.75,6.26,1.95,9.93,4.87,4.94,3.92,6.05,9.03,6.41,10.85.21,1.07,1.56,8.45-3.64,15.21-2.35,3.06-5.7,5.36-12.4,9.94-4.1,2.81-7.05,4.45-6.58,5.45.59,1.23,6.02.51,6.78.41Z"/>
        </g>
        <g>
          <path class="cls-29" d="M541.28,307.72c-1.61-18.29-2.41-27.43.74-33.44,1.55-2.96,1.64-1.1,10.76-11.75,7.46-8.72,8.31-11.02,8.7-12.88.18-.89,1.91-10.06-5.65-15.76-5.11-3.86-13.84-5.66-17.63-2.95-1.29.92-2.4,2.65-1.81,3.99.97,2.19,5.61,1.32,8.98,3.66,3.95,2.75,3.53,8.11,3.36,10.26-.49,6.22-4.21,8.96-9.25,16.57-2.26,3.41-5.83,8.78-7.98,15.6-1.06,3.35-5.46,18.75,3.15,27.14.48.46,3.99,3.89,5.71,3.24,1.22-.46,1.02-2.77.94-3.67Z"/>
          <path class="cls-29" d="M557.38,278.19c7.77-.49,17.43-3.79,23.86-10.32,10.42-10.6,10.11-27.46,1.32-37.79-7.25-8.52-14.35-5.66-19.72-13.87-7.61-11.64,1.89-24.67-6.82-29.96-.41-.25-3.21-1.95-5.29-1.2-1.55.56-2.59,2.44-2.4,10.01.2,8.12.31,12.23,2.66,18,2.07,5.06,4.03,9.86,9.43,13.87,4.52,3.35,6.71,2.62,10.51,6.1,5.11,4.68,5.94,10.37,6.2,12.39.15,1.19,1.06,9.38-5.15,16.4-2.82,3.18-6.66,5.44-14.36,9.95-4.71,2.76-8.07,4.34-7.63,5.47.55,1.4,6.56,1.02,7.4.96Z"/>
        </g>
        <g>
          <path class="cls-26" d="M534.95,311.96c-.36-20.17-.54-30.26,3.37-36.6,1.92-3.12,1.88-1.08,12.69-12.06,8.85-8.98,9.95-11.45,10.52-13.45.27-.96,2.86-10.88-4.98-17.71-5.31-4.63-14.74-7.26-19.1-4.59-1.48.91-2.84,2.72-2.29,4.24.9,2.48,6.05,1.88,9.56,4.71,4.12,3.32,3.25,9.17,2.9,11.5-1.01,6.78-5.3,9.5-11.42,17.45-2.74,3.56-7.07,9.18-9.95,16.48-1.42,3.59-7.42,20.14,1.37,29.99.49.55,4.07,4.57,6.01,3.99,1.38-.41,1.33-2.96,1.31-3.95Z"/>
          <path class="cls-26" d="M554.86,280.83c8.56.06,19.4-2.81,26.94-9.49,12.24-10.82,13.18-29.33,4.34-41.32-7.29-9.9-15.3-7.3-20.56-16.72-7.45-13.35,3.96-26.9-5.18-33.36-.43-.31-3.37-2.39-5.71-1.72-1.74.5-3.02,2.48-3.4,10.79-.4,8.92-.6,13.44,1.54,19.93,1.88,5.7,3.66,11.12,9.28,15.92,4.7,4.02,7.16,3.39,11.06,7.49,5.25,5.52,5.71,11.82,5.84,14.05.08,1.32.44,10.37-6.91,17.58-3.33,3.27-7.72,5.45-16.5,9.81-5.38,2.67-9.18,4.14-8.78,5.41.49,1.57,7.11,1.62,8.04,1.62Z"/>
        </g>
        <g>
          <path class="cls-7" d="M527.68,316.13c1.15-22.14,1.73-33.21,6.5-39.87,2.35-3.28,2.14-1.04,14.84-12.24,10.39-9.17,11.79-11.79,12.56-13.94.37-1.04,3.97-11.71-4.1-19.8-5.47-5.48-15.6-9.09-20.58-6.49-1.7.89-3.32,2.77-2.84,4.47.79,2.79,6.49,2.52,10.12,5.89,4.26,3.96,2.86,10.3,2.29,12.83-1.63,7.35-6.54,10.01-13.85,18.25-3.28,3.7-8.45,9.52-12.17,17.31-1.83,3.83-9.68,21.51-.8,32.98.49.64,4.11,5.32,6.28,4.84,1.54-.34,1.68-3.14,1.74-4.23Z"/>
          <path class="cls-7" d="M551.9,283.53c9.38.72,21.48-1.6,30.26-8.34,14.25-10.93,16.7-31.14,7.93-44.97-7.24-11.41-16.21-9.18-21.26-19.91-7.15-15.2,6.4-29.18-3.12-36.97-.45-.37-3.52-2.88-6.13-2.32-1.95.41-3.51,2.49-4.55,11.57-1.12,9.74-1.69,14.68.16,21.97,1.62,6.4,3.16,12.47,8.95,18.17,4.85,4.77,7.58,4.26,11.54,9.06,5.33,6.45,5.36,13.39,5.33,15.85-.02,1.45-.31,11.4-8.92,18.75-3.9,3.33-8.88,5.38-18.84,9.48-6.1,2.51-10.38,3.84-10.04,5.25.42,1.76,7.67,2.32,8.69,2.4Z"/>
        </g>
        <g>
          <path class="cls-25" d="M519.39,320.14c2.96-24.18,4.44-36.27,10.18-43.21,2.82-3.41,2.43-.97,17.21-12.28,12.09-9.26,13.83-12.02,14.84-14.32.49-1.11,5.25-12.53-2.98-22.02-5.57-6.42-16.41-11.16-22.07-8.7-1.93.84-3.85,2.78-3.45,4.68.66,3.11,6.92,3.26,10.64,7.23,4.37,4.66,2.34,11.51,1.53,14.24-2.35,7.94-7.93,10.47-16.58,18.95-3.88,3.8-10,9.79-14.66,18.04-2.3,4.06-12.26,22.83-3.4,36.1.49.73,4.1,6.14,6.51,5.78,1.71-.26,2.08-3.31,2.23-4.51Z"/>
          <path class="cls-25" d="M548.44,286.26c10.23,1.51,23.67-.11,33.82-6.82,16.46-10.89,20.69-32.85,12.14-48.69-7.06-13.06-17.07-11.3-21.78-23.45-6.67-17.21,9.26-31.5-.59-40.77-.47-.44-3.63-3.42-6.54-3.02-2.16.3-4.03,2.46-5.88,12.34-1.98,10.6-2.98,15.97-1.51,24.09,1.28,7.14,2.5,13.91,8.42,20.6,4.95,5.6,7.99,5.26,11.96,10.82,5.35,7.48,4.85,15.09,4.63,17.79-.13,1.59-1.21,12.47-11.21,19.87-4.53,3.35-10.15,5.22-21.38,8.95-6.88,2.29-11.67,3.41-11.41,4.99.33,1.97,8.23,3.13,9.34,3.29Z"/>
        </g>
        <g>
          <path class="cls-19" d="M510,323.9c5.1-26.28,7.65-39.42,14.48-46.58,3.36-3.52,2.74-.88,19.8-12.15,13.96-9.22,16.08-12.11,17.37-14.56.62-1.18,6.72-13.33-1.58-24.37-5.62-7.47-17.13-13.49-23.52-11.22-2.18.77-4.44,2.75-4.14,4.87.48,3.46,7.34,4.11,11.11,8.75,4.43,5.45,1.69,12.79.59,15.73-3.19,8.52-9.5,10.87-19.63,19.5-4.55,3.87-11.71,9.97-17.46,18.65-2.83,4.28-15.19,24.09-6.5,39.31.48.84,4.02,7.05,6.7,6.84,1.9-.15,2.54-3.47,2.79-4.77Z"/>
          <path class="cls-19" d="M544.44,288.99c11.09,2.44,25.96,1.7,37.59-4.88,18.87-10.67,25.2-34.43,17.04-52.44-6.74-14.86-17.84-13.7-22.07-27.38-5.99-19.38,12.56-33.82,2.48-44.74-.48-.52-3.72-4.03-6.94-3.81-2.4.16-4.61,2.39-7.39,13.07-2.98,11.46-4.49,17.27-3.51,26.29.86,7.92,1.68,15.44,7.65,23.23,4.99,6.51,8.35,6.37,12.28,12.78,5.29,8.61,4.15,16.92,3.71,19.85-.26,1.73-2.28,13.58-13.82,20.92-5.23,3.32-11.53,4.94-24.13,8.18-7.72,1.98-13.06,2.84-12.89,4.6.21,2.18,8.78,4.06,9.99,4.33Z"/>
        </g>
        <g>
          <path class="cls-10" d="M499.42,327.31c7.6-28.42,11.41-42.63,19.44-49.96,3.95-3.6,3.07-.75,22.64-11.8,16.01-9.04,18.56-12.05,20.15-14.63.77-1.24,8.39-14.1.14-26.83-5.58-8.62-17.75-16.11-24.93-14.11-2.45.68-5.07,2.68-4.91,5.02.26,3.84,7.73,5.06,11.51,10.44,4.44,6.31.87,14.15-.56,17.29-4.15,9.1-11.24,11.19-23.02,19.87-5.28,3.89-13.6,10.03-20.57,19.11-3.43,4.47-18.49,25.24-10.14,42.6.46.96,3.87,8.04,6.82,8.01,2.09-.02,3.05-3.61,3.42-5.02Z"/>
          <path class="cls-10" d="M539.85,291.67c11.97,3.52,28.32,3.85,41.58-2.47,21.51-10.25,30.27-35.81,22.7-56.18-6.24-16.8-18.51-16.38-22.1-31.7-5.08-21.71,16.36-36.11,6.15-48.85-.48-.6-3.77-4.7-7.31-4.71-2.64,0-5.24,2.26-9.1,13.77-4.14,12.34-6.24,18.59-5.86,28.56.34,8.75.66,17.06,6.6,26.05,4.98,7.52,8.67,7.63,12.49,14.95,5.14,9.84,3.26,18.86,2.54,22.05-.42,1.88-3.54,14.71-16.75,21.87-5.98,3.24-13.01,4.53-27.08,7.11-8.61,1.58-14.53,2.12-14.48,4.05.06,2.4,9.31,5.13,10.62,5.51Z"/>
        </g>
        <g>
          <path class="cls-5" d="M487.55,330.23c10.51-30.57,15.77-45.86,25.14-53.27,4.61-3.65,3.42-.59,25.72-11.2,18.25-8.68,21.27-11.78,23.21-14.49.94-1.3,10.27-14.82,2.21-29.4-5.46-9.87-18.22-19.02-26.24-17.38-2.73.56-5.77,2.54-5.77,5.13,0,4.22,8.08,6.14,11.82,12.33,4.39,7.26-.13,15.58-1.94,18.91-5.24,9.65-13.18,11.41-26.75,20.02-6.09,3.86-15.68,9.95-24.01,19.37-4.1,4.64-22.21,26.26-14.38,45.92.43,1.09,3.63,9.11,6.86,9.3,2.29.14,3.62-3.72,4.14-5.24Z"/>
          <path class="cls-5" d="M534.61,294.26c12.86,4.78,30.75,6.39,45.77.48,24.36-9.59,35.93-36.93,29.19-59.85-5.56-18.9-19.04-19.38-21.79-36.45-3.91-24.19,20.71-38.33,10.48-53.08-.48-.7-3.77-5.44-7.66-5.72-2.89-.21-5.91,2.08-11.03,14.39-5.49,13.21-8.27,19.9-8.61,30.85-.3,9.62-.59,18.75,5.24,29.06,4.88,8.63,8.92,9.03,12.54,17.34,4.87,11.19,2.12,20.93,1.1,24.37-.61,2.03-5.01,15.86-20.04,22.69-6.81,3.1-14.61,3.97-30.23,5.72-9.56,1.07-16.09,1.21-16.19,3.33-.12,2.64,9.82,6.33,11.22,6.85Z"/>
        </g>
        <g>
          <path class="cls-30" d="M474.33,332.52c13.87-32.71,20.8-49.06,31.64-56.47,5.33-3.65,3.79-.38,29.06-10.3,20.67-8.12,24.21-11.29,26.56-14.11,1.13-1.36,12.4-15.45,4.67-32.06-5.23-11.24-18.51-22.24-27.44-21.06-3.04.4-6.52,2.35-6.72,5.18-.33,4.63,8.39,7.35,12.01,14.42,4.25,8.29-1.34,17.07-3.58,20.58-6.49,10.18-15.33,11.49-30.86,19.9-6.97,3.77-17.95,9.71-27.81,19.4-4.85,4.77-26.36,27.08-19.28,49.23.39,1.23,3.28,10.26,6.81,10.72,2.5.33,4.25-3.8,4.94-5.42Z"/>
          <path class="cls-30" d="M528.66,296.7c13.73,6.22,33.22,9.37,50.14,4.04,27.44-8.65,42.21-37.73,36.59-63.37-4.64-21.14-19.38-22.7-21.1-41.62-2.43-26.81,25.64-40.43,15.56-57.39-.48-.8-3.72-6.26-7.95-6.86-3.15-.45-6.64,1.83-13.19,14.93-7.03,14.06-10.59,21.18-11.81,33.16-1.07,10.52-2.08,20.51,3.52,32.26,4.69,9.83,9.08,10.58,12.42,19.97,4.49,12.64.72,23.11-.67,26.79-.82,2.17-6.71,17-23.7,23.34-7.7,2.87-16.32,3.23-33.57,3.95-10.56.44-17.73.09-18,2.41-.33,2.89,10.28,7.7,11.77,8.37Z"/>
        </g>
        <g>
          <path class="cls-21" d="M459.65,334.02c17.71-34.79,26.57-52.19,39.02-59.48,6.12-3.59,4.19-.13,32.64-9.07,23.28-7.31,27.41-10.52,30.2-13.43,1.34-1.4,14.77-15.99,7.58-34.79-4.87-12.73-18.59-25.8-28.46-25.19-3.36.21-7.32,2.07-7.76,5.16-.72,5.05,8.63,8.71,12.06,16.73,4.02,9.42-2.78,18.61-5.5,22.29-7.89,10.66-17.68,11.43-35.36,19.45-7.93,3.6-20.42,9.26-31.97,19.13-5.69,4.86-30.97,27.66-24.91,52.49.34,1.38,2.81,11.5,6.64,12.28,2.72.55,4.95-3.84,5.83-5.57Z"/>
          <path class="cls-21" d="M521.96,298.92c14.57,7.87,35.7,12.81,54.66,8.27,30.75-7.38,49.17-38.13,44.96-66.66-3.47-23.54-19.51-26.37-19.94-47.25-.61-29.58,31.2-42.36,21.46-61.72-.46-.91-3.6-7.14-8.19-8.13-3.42-.73-7.42,1.49-15.61,15.36-8.78,14.87-13.23,22.41-15.48,35.45-1.98,11.45-3.85,22.32,1.38,35.64,4.38,11.14,9.15,12.29,12.08,22.84,3.95,14.2-.98,25.39-2.78,29.32-1.07,2.32-8.66,18.12-27.77,23.77-8.66,2.56-18.14,2.29-37.11,1.76-11.61-.33-19.45-1.26-19.92,1.26-.59,3.14,10.68,9.22,12.26,10.08Z"/>
        </g>
        <g>
          <path class="cls-3" d="M443.44,334.54c22.08-36.78,33.12-55.17,47.33-62.21,6.99-3.46,4.6.18,36.48-7.44,26.08-6.23,30.85-9.43,34.13-12.41,1.58-1.43,17.42-16.4,10.98-37.56-4.36-14.32-18.4-29.71-29.27-29.79-3.7-.03-8.19,1.71-8.91,5.06-1.18,5.48,8.8,10.2,11.94,19.26,3.69,10.63-4.47,20.19-7.74,24.01-9.47,11.08-20.26,11.17-40.25,18.61-8.97,3.34-23.09,8.59-36.51,18.52-6.6,4.89-36.07,27.95-31.33,55.63.26,1.53,2.2,12.82,6.34,13.97,2.94.82,5.72-3.84,6.81-5.65Z"/>
          <path class="cls-3" d="M514.44,300.83c15.37,9.75,38.15,16.78,59.28,13.25,34.27-5.73,56.82-38.03,54.4-69.63-2-26.07-19.36-30.4-18.23-53.32,1.6-32.47,37.45-44.04,28.25-66.01-.43-1.04-3.4-8.11-8.36-9.54-3.7-1.07-8.25,1.07-18.29,15.64-10.77,15.63-16.22,23.55-19.69,37.67-3.05,12.4-5.94,24.18-1.22,39.17,3.95,12.55,9.08,14.18,11.49,25.97,3.24,15.86-3.02,27.75-5.3,31.93-1.35,2.46-10.88,19.2-32.27,23.93-9.69,2.14-20.06,1.12-40.81-.91-12.7-1.25-21.22-2.87-21.93-.14-.88,3.4,11,10.93,12.67,11.99Z"/>
        </g>
        <g>
          <path class="cls-16" d="M425.64,333.86c27.03-38.63,40.54-57.94,56.65-64.57,7.92-3.26,5.03.55,40.56-5.36,29.06-4.83,34.55-7.97,38.37-10.99,1.84-1.45,20.36-16.64,14.91-40.33-3.69-16.04-17.9-33.98-29.8-34.9-4.06-.32-9.11,1.25-10.15,4.87-1.71,5.92,8.86,11.86,11.61,22.03,3.23,11.94-6.45,21.79-10.32,25.73-11.23,11.42-23.07,10.69-45.55,17.31-10.08,2.97-25.97,7.65-41.44,17.5-7.61,4.85-41.68,27.88-38.61,58.59.17,1.7,1.43,14.22,5.88,15.8,3.16,1.12,6.57-3.77,7.9-5.68Z"/>
          <path class="cls-16" d="M506.06,302.36c16.1,11.86,40.54,21.32,63.97,19.07,38.01-3.65,65.2-37.33,64.97-72.16-.19-28.73-18.89-34.81-15.9-59.85,4.24-35.47,44.43-45.41,36.03-70.19-.4-1.17-3.1-9.15-8.43-11.1-3.97-1.45-9.13.54-21.25,15.74-13,16.31-19.59,24.57-24.47,39.79-4.29,13.36-8.36,26.05-4.34,42.85,3.37,14.06,8.87,16.24,10.61,29.35,2.34,17.64-5.43,30.19-8.26,34.59-1.66,2.6-13.4,20.21-37.21,23.76-10.79,1.61-22.08-.31-44.67-4.13-13.83-2.34-23.04-4.78-24.03-1.84-1.23,3.65,11.22,12.82,12.97,14.12Z"/>
        </g>
        <g>
          <path class="cls-31" d="M406.18,331.76c32.59-40.27,48.88-60.41,67.05-66.44,8.94-2.97,5.47.99,44.87-2.77,32.23-3.07,38.48-6.09,42.9-9.1,2.12-1.45,23.59-16.68,19.44-43.07-2.81-17.86-17.01-38.62-29.99-40.55-4.42-.66-10.08.67-11.5,4.56-2.33,6.36,8.81,13.68,11.04,25.04,2.63,13.33-8.74,23.39-13.29,27.41-13.18,11.66-26.11,9.95-51.26,15.48-11.28,2.48-29.06,6.39-46.77,16.01-8.72,4.73-47.83,27.36-46.81,61.26.06,1.88.47,15.7,5.23,17.77,3.38,1.47,7.49-3.62,9.1-5.62Z"/>
          <path class="cls-31" d="M496.74,303.39c16.74,14.24,42.81,26.48,68.66,25.81,41.94-1.09,74.34-35.93,76.75-74.12,1.99-31.51-18.04-39.61-12.84-66.83,7.37-38.56,52.19-46.37,44.88-74.19-.35-1.31-2.7-10.26-8.39-12.81-4.24-1.9-10.05-.11-24.5,15.63-15.5,16.88-23.36,25.44-29.88,41.74-5.73,14.32-11.16,27.91-8.04,46.64,2.62,15.67,8.48,18.48,9.38,32.99,1.21,19.51-8.27,32.68-11.7,37.29-2.02,2.72-16.24,21.13-42.61,23.19-11.95.93-24.18-2.03-48.65-7.95-14.98-3.63-24.89-7-26.2-3.86-1.63,3.91,11.31,14.92,13.14,16.47Z"/>
        </g>
        <g>
          <path class="cls-24" d="M385,327.96c38.81-41.65,58.22-62.47,78.6-67.7,10.02-2.57,5.92,1.5,49.4.41,35.57-.89,42.65-3.72,47.73-6.69,2.44-1.42,27.14-16.48,24.61-45.72-1.71-19.8-15.69-43.64-29.77-46.75-4.8-1.06-11.1-.04-12.96,4.12-3.04,6.79,8.6,15.67,10.19,28.3,1.86,14.82-11.38,24.97-16.67,29.03-15.35,11.77-29.38,8.91-57.38,13.05-12.56,1.86-32.34,4.78-52.5,13.97-9.92,4.52-54.53,26.33-56.01,63.57-.08,2.06-.69,17.25,4.37,19.88,3.59,1.87,8.48-3.4,10.4-5.46Z"/>
          <path class="cls-24" d="M486.46,303.8c17.26,16.89,44.89,32.31,73.29,33.56,46.06,2.02,84.25-33.68,89.82-75.37,4.6-34.39-16.74-44.81-8.96-74.24,11.03-41.71,60.77-46.83,54.89-77.89-.28-1.47-2.17-11.46-8.22-14.69-4.51-2.4-11-.89-28.05,15.25-18.29,17.32-27.56,26.09-35.95,43.47-7.38,15.26-14.38,29.74-12.39,50.51,1.67,17.38,7.88,20.91,7.75,36.88-.17,21.49-11.57,35.19-15.69,39.98-2.43,2.82-19.42,21.92-48.49,22.15-13.17.11-26.35-4.08-52.72-12.45-16.15-5.12-26.75-9.58-28.42-6.24-2.08,4.16,11.26,17.22,13.14,19.06Z"/>
        </g>
        <g>
          <path class="cls-12" d="M362.08,322.17c45.74-42.68,68.61-64.02,91.35-68.19,11.19-2.05,6.38,2.1,54.12,4.23,39.06,1.75,47.04-.81,52.83-3.68,2.78-1.38,31.01-15.98,30.48-48.23-.36-21.83-13.85-49.04-29.05-53.53-5.18-1.53-12.17-.89-14.52,3.52-3.85,7.21,8.23,17.84,9,31.8.9,16.39-14.39,26.5-20.5,30.55-17.73,11.73-32.89,7.51-63.9,9.9-13.91,1.07-35.82,2.76-58.63,11.29-11.22,4.2-61.8,24.68-66.28,65.39-.25,2.25-2.07,18.85,3.27,22.13,3.79,2.32,9.56-3.08,11.82-5.19Z"/>
          <path class="cls-12" d="M475.15,303.47c17.63,19.84,46.74,38.86,77.77,42.41,50.34,5.75,94.94-30.47,104.24-75.74,7.68-37.34-14.92-50.4-4.13-82.07,15.29-44.88,70.2-46.68,66.14-81.17-.19-1.63-1.5-12.73-7.89-16.73-4.75-2.98-11.99-1.82-31.92,14.57-21.38,17.58-32.21,26.49-42.75,44.9-9.25,16.16-18.04,31.5-17.45,54.42.49,19.17,7.04,23.52,5.67,41.02-1.83,23.54-15.38,37.69-20.26,42.63-2.88,2.91-22.97,22.54-54.85,20.57-14.45-.89-28.58-6.49-56.84-17.69-17.31-6.85-28.59-12.56-30.68-9.02-2.6,4.4,11.02,19.74,12.94,21.9Z"/>
        </g>
        <g>
          <path class="cls-2" d="M337.39,314.07c53.41-43.28,80.12-64.92,105.37-67.74,12.42-1.39,6.83,2.79,59.01,8.79,42.68,4.91,51.63,2.71,58.2.02,3.16-1.29,35.22-15.14,37.11-50.54,1.28-23.96-11.43-54.82-27.75-60.91-5.56-2.07-13.27-1.91-16.19,2.74-4.77,7.61,7.66,20.19,7.43,35.55-.27,18.03-17.8,27.95-24.81,31.92-20.33,11.5-36.63,5.71-70.81,5.96-15.33.11-39.48.28-65.13,7.88-12.62,3.74-69.64,22.32-77.67,66.61-.44,2.45-3.72,20.51,1.89,24.51,3.98,2.84,10.72-2.64,13.36-4.78Z"/>
          <path class="cls-2" d="M462.78,302.23c17.8,23.1,48.26,46.19,82.01,52.45,54.74,10.16,106.41-26.12,120.08-75.03,11.28-40.35-12.49-56.39,1.77-90.29,20.2-48.02,80.54-45.79,78.72-83.91-.09-1.8-.67-14.07-7.36-18.94-4.98-3.63-13.01-2.91-36.11,13.53-24.78,17.64-37.34,26.57-50.3,45.94-11.38,17.01-22.19,33.15-23.3,58.32-.93,21.06,5.91,26.33,3.07,45.41-3.81,25.66-19.75,40.14-25.48,45.17-3.38,2.97-26.91,22.95-61.71,18.34-15.77-2.09-30.83-9.31-60.96-23.74-18.45-8.84-30.38-15.96-32.94-12.23-3.19,4.63,10.57,22.49,12.51,25Z"/>
        </g>
        <g>
          <path class="cls-18" d="M310.96,303.3c61.87-43.35,92.8-65.03,120.7-66.19,13.72-.57,7.27,3.58,64.01,14.16,46.41,8.65,56.39,6.93,63.8,4.48,3.56-1.18,39.77-13.9,44.56-52.56,3.24-26.17-8.33-60.98-25.75-68.89-5.94-2.7-14.4-3.11-17.96,1.77-5.82,7.98,6.85,22.72,5.42,39.54-1.68,19.75-21.66,29.27-29.65,33.08-23.17,11.05-40.59,3.46-78.08,1.1-16.81-1.06-43.3-2.72-72,3.64-14.13,3.13-78.05,19.13-90.25,67.06-.68,2.65-5.65,22.2.19,27.01,4.15,3.42,11.95-2.07,15.01-4.22Z"/>
          <path class="cls-18" d="M449.31,299.93c17.74,26.69,49.36,54.33,85.88,63.78,59.23,15.33,118.65-20.48,137.38-73.05,15.45-43.36-9.37-62.78,8.86-98.84,25.83-51.09,91.8-44.02,92.73-85.95.04-1.98.34-15.47-6.62-21.33-5.18-4.36-14.04-4.19-40.62,12.06-28.52,17.43-42.97,26.27-58.66,46.5-13.78,17.77-26.87,34.64-30.01,62.14-2.63,23.01,4.46,29.31-.11,50.01-6.15,27.84-24.73,42.49-31.4,47.57-3.93,3-31.26,23.09-69.05,15.38-17.12-3.5-33.08-12.56-65-30.7-19.54-11.11-32.08-19.82-35.17-15.94-3.85,4.83,9.86,25.46,11.8,28.37Z"/>
        </g>
        <g>
          <path class="cls-14" d="M282.8,289.46c71.15-42.78,106.72-64.17,137.39-63.3,15.08.43,7.7,4.48,69.09,20.43,50.22,13.04,61.28,11.92,69.59,9.81,3.99-1.02,44.66-12.19,52.87-54.2,5.56-28.44-4.45-67.48-22.94-77.5-6.3-3.41-15.55-4.52-19.82.56-6.99,8.3,5.76,25.43,2.91,43.76-3.35,21.52-25.99,30.43-35.04,34-26.25,10.34-44.77.68-85.68-4.78-18.35-2.45-47.26-6.3-79.21-1.52-15.72,2.35-87.03,14.99-104.07,66.6-.94,2.86-7.89,23.9-1.86,29.62,4.28,4.06,13.26-1.36,16.78-3.47Z"/>
          <path class="cls-14" d="M434.73,296.38c17.41,30.62,49.94,63.34,89.25,76.5,63.76,21.35,131.64-13.35,156.2-69.55,20.27-46.35-5.46-69.54,17.29-107.67,32.23-54.03,104-41.22,108.24-87.12.2-2.17,1.56-16.93-5.62-23.89-5.35-5.18-15.07-5.67-45.46,10.11-32.6,16.93-49.12,25.5-67.87,46.48-16.47,18.42-32.11,35.92-37.66,65.82-4.65,25.03,2.64,32.48-3.95,54.81-8.87,30.05-30.37,44.68-38.06,49.74-4.54,2.98-36.04,22.92-76.87,11.57-18.5-5.14-35.3-16.31-68.9-38.64-20.57-13.67-33.65-24.19-37.34-20.17-4.59,5,8.86,28.66,10.76,32Z"/>
        </g>
        <g>
          <path class="cls-11" d="M252.99,272.14c81.27-41.44,121.91-62.17,155.46-58.86,16.5,1.63,8.1,5.5,74.17,27.69,54.05,18.15,66.27,17.77,75.54,16.08,4.46-.81,49.9-9.94,62.12-55.36,8.27-30.75.29-74.32-19.21-86.71-6.65-4.23-16.69-6.14-21.77-.91-8.3,8.56,4.37,28.32-.17,48.2-5.33,23.33-30.82,31.37-41.01,34.58-29.56,9.32-49.13-2.69-93.55-11.8-19.93-4.09-51.33-10.53-86.72-7.74-17.42,1.37-96.55,9.76-119.19,65.03-1.25,3.06-10.49,25.59-4.31,32.33,4.38,4.78,14.64-.47,18.66-2.52Z"/>
          <path class="cls-11" d="M419.01,291.37c16.73,34.9,49.89,73.26,91.97,90.7,68.26,28.29,145.33-4.55,176.57-64.26,25.77-49.26-.66-76.65,27.2-116.71,39.47-56.76,117.17-37.22,125.34-87.2.39-2.36,3.01-18.44-4.33-26.62-5.47-6.09-16.08-7.37-50.6,7.6-37.03,16.06-55.8,24.19-77.97,45.75-19.47,18.93-37.95,36.91-46.33,69.27-7.01,27.08.41,35.8-8.54,59.79-12.03,32.26-36.72,46.65-45.54,51.61-5.2,2.92-41.26,22.36-85.16,6.79-19.89-7.06-37.45-20.58-72.57-47.64-21.5-16.56-35.03-29.09-39.38-24.97-5.42,5.13,7.52,32.1,9.34,35.91Z"/>
        </g>
        <g>
          <path class="cls-4" d="M221.65,250.86c92.27-39.2,138.4-58.8,174.93-52.61,17.97,3.05,8.45,6.66,79.18,36.04,57.86,24.04,71.28,24.56,81.57,23.42,4.95-.54,55.46-7.07,72.34-55.93,11.42-33.08,6.02-81.44-14.41-96.53-6.96-5.14-17.83-8.01-23.8-2.66-9.75,8.75,2.62,31.38-3.88,52.82-7.63,25.17-36.19,32.02-47.61,34.76-33.12,7.95-53.65-6.71-101.65-20.11-21.53-6.01-55.46-15.48-94.47-15.13-19.2.17-106.59,3.3-135.64,62.15-1.61,3.26-13.46,27.25-7.21,35.11,4.44,5.58,16.08.61,20.65-1.33Z"/>
          <path class="cls-4" d="M402.17,284.66c15.67,39.54,49.08,84.14,93.87,106.48,72.66,36.24,159.66,6.15,198.48-56.91,32.02-52.02,5.16-84.07,38.77-125.85,47.62-59.2,131.3-31.81,144.08-85.98.6-2.56,4.72-19.99-2.71-29.51-5.53-7.09-17.06-9.31-56.06,4.45-41.83,14.76-63.02,22.24-88.97,44.18-22.79,19.26-44.43,37.55-56.1,72.38-9.76,29.15-2.3,39.28-13.94,64.88-15.66,34.44-43.82,48.32-53.88,53.08-5.93,2.81-46.94,21.35-93.87.91-21.26-9.26-39.48-25.44-75.9-57.79-22.3-19.81-36.17-34.58-41.26-30.39-6.33,5.21,5.78,35.77,7.49,40.08Z"/>
        </g>
        <g>
          <path class="cls-22" d="M188.92,225.13c104.15-35.9,156.23-53.85,195.8-44.26,19.46,4.72,8.76,7.94,84.04,45.58,61.58,30.79,76.26,32.38,87.62,31.93,5.46-.22,61.34-3.5,83.58-55.76,15.06-35.38,12.84-88.82-8.4-106.92-7.24-6.17-18.93-10.15-25.88-4.74-11.36,8.84.46,34.6-8.3,57.61-10.29,27.01-42.13,32.33-54.86,34.46-36.92,6.17-58.29-11.47-109.89-29.84-23.14-8.24-59.61-21.22-102.4-23.83-21.06-1.29-117.1-4.55-153.46,57.73-2.01,3.45-16.84,28.84-10.59,37.94,4.44,6.46,17.58,1.9,22.74.12Z"/>
          <path class="cls-22" d="M384.21,276.03c14.15,44.55,47.35,96,94.74,123.92,76.87,45.3,174.55,18.98,221.94-47.18,39.09-54.57,12.1-91.77,52.15-134.99,56.74-61.24,146.37-24.81,164.54-83.21.86-2.76,6.7-21.55-.7-32.56-5.51-8.2-17.99-11.52-61.79.58-46.98,12.98-70.79,19.55-100.92,41.61-26.46,19.37-51.59,37.76-67.05,75.05-12.94,31.2-5.53,42.88-20.26,70.06-19.81,36.56-51.75,49.61-63.13,54.06-6.71,2.62-53.1,19.81-102.97-6.2-22.6-11.78-41.33-30.91-78.78-69.16-22.93-23.42-37-40.68-42.9-36.48-7.34,5.22,3.59,39.65,5.13,44.51Z"/>
        </g>
        <g>
          <path class="cls-9" d="M155.01,194.42c116.93-31.37,175.39-47.06,218.03-33.51,20.97,6.66,8.99,9.38,88.63,56.4,65.15,38.47,81.11,41.34,93.61,41.72,6.01.18,67.51.87,95.9-54.72,19.22-37.63,20.88-96.38-1.01-117.85-7.46-7.32-19.98-12.58-28.01-7.18-13.13,8.82-2.14,37.96-13.52,62.51-13.35,28.82-48.66,32.21-62.78,33.57-40.95,3.94-63.02-17.05-118.18-41.13-24.74-10.8-63.72-27.83-110.42-33.98-22.99-3.03-128.02-13.97-172.65,51.52-2.47,3.63-20.67,30.33-14.52,40.77,4.37,7.42,19.13,3.43,24.91,1.88Z"/>
          <path class="cls-9" d="M365.2,265.18c12.09,49.92,44.55,108.86,94.36,143.11,80.79,55.55,189.89,34.19,246.92-34.7,47.04-56.83,20.3-99.67,67.51-143.98,66.9-62.78,162.36-15.98,186.75-78.61,1.15-2.96,9-23.11,1.73-35.75-5.42-9.41-18.84-14.01-67.78-4.1-52.5,10.62-79.1,16.01-113.82,37.87-30.49,19.21-59.45,37.44-79.25,77.13-16.57,33.21-9.35,46.58-27.58,75.25-24.52,38.56-60.53,50.42-73.35,54.42-7.56,2.36-59.73,17.64-112.41-14.69-23.87-14.65-42.93-37.05-81.06-81.86-23.34-27.43-37.44-47.43-44.23-43.28-8.45,5.16.9,43.74,2.22,49.18Z"/>
        </g>
        <g>
          <path class="cls-28" d="M120.19,158.15c130.58-25.43,195.87-38.14,241.58-20.02,22.48,8.91,9.14,10.97,92.83,68.63,68.47,47.17,85.75,51.54,99.42,52.91,6.57.66,73.94,6.13,109.32-52.64,23.96-39.78,30.28-104.06,7.93-129.27-7.62-8.59-20.93-15.32-30.15-10.02-15.07,8.66-5.26,41.45-19.61,67.49-16.84,30.56-55.81,31.58-71.39,31.99-45.19,1.18-67.78-23.52-126.4-54.15-26.29-13.74-67.71-35.39-118.44-45.71-24.97-5.08-139.26-25.12-193.22,43.25-2.99,3.79-24.99,31.66-19.04,43.59,4.22,8.47,20.71,5.23,27.17,3.97Z"/>
          <path class="cls-28" d="M345.18,251.84c9.43,55.65,40.49,122.75,92.47,164.11,84.31,67.09,205.54,52.04,273.33-19.11,55.92-58.69,29.89-107.71,85.04-152.66,78.15-63.7,179.21-5.07,210.74-71.86,1.49-3.16,11.64-24.64,4.63-39.06-5.22-10.73-19.58-16.8-73.99-9.69-58.37,7.62-87.94,11.48-127.68,32.79-34.9,18.72-68.04,36.49-92.79,78.48-20.72,35.14-13.82,50.35-36,80.37-29.83,40.39-70.22,50.63-84.58,54.04-8.47,2.01-66.83,14.76-122.1-24.72-25.04-17.89-44.22-43.91-82.58-95.95-23.49-31.86-37.41-54.86-45.17-50.83-9.65,5.01-2.37,48.02-1.34,54.08Z"/>
        </g>
        <g>
          <path class="cls-6" d="M84.8,115.73c145.1-17.87,217.65-26.8,266.36-3.43,23.96,11.49,9.18,12.73,96.51,82.35,71.44,56.95,90.05,63.07,104.93,65.62,7.15,1.22,80.58,12.38,123.88-49.32,29.31-41.77,41.17-111.75,18.6-141.1-7.69-10.01-21.77-18.4-32.29-13.3-17.18,8.34-8.94,45.04-26.67,72.48-20.81,32.21-63.6,30.34-80.71,29.59-49.63-2.17-72.5-30.98-134.41-69.05-27.77-17.08-71.52-43.99-126.34-59.19-26.98-7.48-150.74-38.22-215.12,32.6-3.57,3.92-29.82,32.79-24.21,46.32,3.98,9.61,22.3,7.32,29.48,6.43Z"/>
          <path class="cls-6" d="M324.26,235.67c6.07,61.73,34.98,137.67,88.79,186.99,87.28,80.01,221.33,72.8,301.1,0,65.8-60.05,41.02-115.78,104.93-160.83,90.55-63.84,196.84,8.18,236.53-62.62,1.88-3.35,14.65-26.12,8.07-42.46-4.9-12.16-20.18-19.91-80.36-16.3-64.57,3.88-97.28,5.85-142.48,26.16-39.69,17.84-77.38,34.78-107.74,78.92-25.4,36.93-19.01,54.14-45.62,85.35-35.8,41.99-80.85,50.12-96.86,52.75-9.44,1.55-74.39,11.06-131.95-36.46-26.08-21.53-45.11-51.52-83.17-111.51-23.3-36.73-36.81-63.01-45.62-59.19-10.97,4.76-6.28,52.46-5.61,59.19Z"/>
        </g>
      </g>
      <circle class="cls-32" cx="35" cy="90" r="5"/>
      <circle class="cls-32" cx="45" cy="165" r="5"/>
      <circle class="cls-32" cx="103" cy="192" r="5"/>
      <circle class="cls-32" cx="60" cy="36" r="5"/>
      <circle class="cls-32" cx="1015" cy="267" r="5"/>
      <circle class="cls-32" cx="1097" cy="245" r="5"/>
      <circle class="cls-32" cx="1097" cy="172" r="5"/>
      <circle class="cls-32" cx="1062.5" cy="243.5" r="3.5"/>
      <circle class="cls-32" cx="1105.5" cy="213.5" r="3.5"/>
      <circle class="cls-32" cx="1089.5" cy="134.5" r="3.5"/>
      <circle class="cls-32" cx="3.5" cy="134.5" r="3.5"/>
      <circle class="cls-32" cx="75.5" cy="157.5" r="3.5"/>
      <circle class="cls-32" cx="58.5" cy="78.5" r="3.5"/>
      <circle class="cls-32" cx="92.5" cy="3.5" r="3.5"/>
      <circle class="cls-32" cx="33.5" cy="20.5" r="3.5"/>
    </g>
  </g>
</svg>