<?xml version="1.0" encoding="UTF-8"?>
<svg id="Layer_2" xmlns="http://www.w3.org/2000/svg" viewBox="0 0 962.57 608.76">
  <defs>
    <style>
      .cls-1 {
        stroke-dasharray: 0 4.31;
        stroke-width: .86px;
      }

      .cls-1, .cls-2, .cls-3, .cls-4, .cls-5, .cls-6, .cls-7, .cls-8, .cls-9, .cls-10, .cls-11, .cls-12, .cls-13, .cls-14, .cls-15, .cls-16, .cls-17, .cls-18, .cls-19, .cls-20, .cls-21, .cls-22, .cls-23, .cls-24, .cls-25, .cls-26, .cls-27, .cls-28, .cls-29, .cls-30, .cls-31 {
        fill: none;
        stroke: #8aceca;
        stroke-linecap: round;
        stroke-linejoin: round;
      }

      .cls-2 {
        stroke-dasharray: 0 23.51;
        stroke-width: 4.7px;
      }

      .cls-3 {
        stroke-dasharray: 0 14.67;
        stroke-width: 2.93px;
      }

      .cls-4 {
        stroke-dasharray: 0 34.29;
        stroke-width: 6.86px;
      }

      .cls-5 {
        stroke-dasharray: 0 11.06;
        stroke-width: 2.21px;
      }

      .cls-6 {
        stroke-dasharray: 0 50;
        stroke-width: 10px;
      }

      .cls-7 {
        stroke-dasharray: 0 7.58;
        stroke-width: 1.52px;
      }

      .cls-8 {
        stroke-dasharray: 0 5.2;
        stroke-width: 1.04px;
      }

      .cls-9 {
        stroke-dasharray: 0 41.4;
        stroke-width: 8.28px;
      }

      .cls-32 {
        fill: #8aceca;
      }

      .cls-10 {
        stroke-dasharray: 0 10.06;
        stroke-width: 2.01px;
      }

      .cls-11 {
        stroke-dasharray: 0 31.2;
        stroke-width: 6.24px;
      }

      .cls-12 {
        stroke-dasharray: 0 21.4;
        stroke-width: 4.28px;
      }

      .cls-13 {
        stroke-dasharray: 0 3.57;
        stroke-width: .71px;
      }

      .cls-14 {
        stroke-dasharray: 0 28.39;
        stroke-width: 5.68px;
      }

      .cls-15 {
        stroke-dasharray: 0 5.71;
        stroke-width: 1.14px;
      }

      .cls-16 {
        stroke-dasharray: 0 16.12;
        stroke-width: 3.22px;
      }

      .cls-17 {
        stroke-dasharray: 0 2.95;
        stroke-width: .59px;
      }

      .cls-18 {
        stroke-dasharray: 0 25.84;
        stroke-width: 5.17px;
      }

      .cls-19 {
        stroke-dasharray: 0 9.16;
        stroke-width: 1.83px;
      }

      .cls-20 {
        stroke-dasharray: 0 4.73;
        stroke-width: .95px;
      }

      .cls-21 {
        stroke-dasharray: 0 13.35;
        stroke-width: 2.67px;
      }

      .cls-22 {
        stroke-dasharray: 0 37.68;
        stroke-width: 7.54px;
      }

      .cls-23 {
        stroke-dasharray: 0 3.92;
        stroke-width: .78px;
      }

      .cls-24 {
        stroke-dasharray: 0 19.47;
        stroke-width: 3.89px;
      }

      .cls-25 {
        stroke-dasharray: 0 8.33;
        stroke-width: 1.67px;
      }

      .cls-26 {
        stroke-dasharray: 0 6.9;
        stroke-width: 1.38px;
      }

      .cls-27 {
        stroke-dasharray: 0 3.24;
        stroke-width: .65px;
      }

      .cls-28 {
        stroke-dasharray: 0 45.5;
        stroke-width: 9.1px;
      }

      .cls-29 {
        stroke-dasharray: 0 6.28;
        stroke-width: 1.26px;
      }

      .cls-30 {
        stroke-dasharray: 0 12.15;
        stroke-width: 2.43px;
      }

      .cls-31 {
        stroke-dasharray: 0 17.72;
        stroke-width: 3.54px;
      }
    </style>
  </defs>
  <g id="low_good">
    <g>
      <g>
        <path class="cls-17" d="M449.93,294.39c.63-4.41,10.84-7.82,16.92-8.82,5.47-.9,10.79-.39,12.72-3.73,1.1-1.9-.03-3.26.92-4.33,5.1-5.75,32.52,8.68,31.23,13.91-.55,2.22-5.82.99-10.69,6.07-3.42,3.56-2.01,5.8-4.71,7.37-4.57,2.67-9.78-2.8-16.59.27-1.67.75-1.67,1.22-3,1.91-2.01,1.05-27.86-5.3-26.81-12.65Z"/>
        <path class="cls-27" d="M447.02,290.24c1.28-4.73,12.87-7.07,19.64-7.35,6.08-.25,11.82,1.02,14.38-2.37,1.45-1.92.4-3.56,1.59-4.6,6.33-5.59,34.31,13.82,32.2,19.35-.89,2.35-6.48.3-12.48,5.19-4.2,3.43-2.97,6.05-6.12,7.41-5.34,2.3-10.29-4.36-18.13-1.93-1.92.59-1.99,1.11-3.53,1.69-2.34.88-29.68-9.51-27.55-17.39Z"/>
        <path class="cls-13" d="M444.39,285.32c2.03-4.99,14.99-5.99,22.4-5.39,6.67.54,12.75,2.7,16-.66,1.84-1.9.91-3.83,2.35-4.81,7.66-5.25,35.57,19.67,32.53,25.42-1.29,2.44-7.1-.54-14.3,3.99-5.04,3.18-4.05,6.2-7.67,7.26-6.13,1.79-10.64-6.13-19.51-4.53-2.17.39-2.32.94-4.07,1.37-2.67.65-31.1-14.35-27.72-22.65Z"/>
        <path class="cls-23" d="M442.19,279.61c2.88-5.17,17.15-4.53,25.16-2.88,7.2,1.48,13.55,4.65,17.54,1.43,2.26-1.83,1.51-4.05,3.2-4.93,9.05-4.7,36.16,26.22,32.07,32.08-1.73,2.49-7.67-1.54-16.14,2.44-5.93,2.79-5.25,6.22-9.34,6.89-6.93,1.13-10.79-8.12-20.68-7.56-2.42.14-2.66.72-4.63.95-3,.35-32-19.82-27.2-28.42Z"/>
        <path class="cls-1" d="M440.55,273.08c3.84-5.25,19.31-2.64,27.82.23,7.66,2.58,14.15,6.88,18.94,3.9,2.72-1.69,2.19-4.22,4.15-4.95,10.5-3.91,35.93,33.44,30.69,39.29-2.22,2.48-8.16-2.71-17.93.5-6.84,2.25-6.56,6.08-11.11,6.26-7.71.3-10.68-10.3-21.54-11.01-2.66-.17-2.99.43-5.17.41-3.32-.02-32.25-25.9-25.86-34.64Z"/>
        <path class="cls-20" d="M439.63,265.74c4.89-5.21,21.42-.29,30.32,3.98,8,3.84,14.52,9.4,20.14,6.8,3.19-1.48,2.95-4.31,5.19-4.84,11.98-2.86,34.72,41.28,28.21,46.96-2.76,2.41-8.54-4.05-19.62-1.85-7.76,1.54-7.97,5.76-12.95,5.34-8.45-.7-10.27-12.66-22.02-14.89-2.88-.55-3.32.06-5.7-.24-3.61-.47-31.7-32.57-23.57-41.24Z"/>
        <path class="cls-8" d="M439.62,257.61c6.03-5.03,23.4,2.55,32.53,8.4,8.22,5.26,14.57,12.2,21.05,10.11,3.67-1.19,3.79-4.3,6.31-4.59,13.45-1.51,32.34,49.68,24.48,55-3.33,2.26-8.78-5.56-21.15-4.65-8.67.64-9.47,5.21-14.84,4.09-9.12-1.89-9.51-15.18-22.02-19.19-3.06-.98-3.63-.37-6.18-1.03-3.88-.99-30.22-39.77-20.18-48.14Z"/>
        <path class="cls-15" d="M440.69,248.75c7.25-4.68,25.18,5.91,34.36,13.51,8.26,6.84,14.26,15.26,21.61,13.84,4.17-.8,4.71-4.19,7.5-4.16,14.87.15,28.62,58.51,19.33,63.27-3.94,2.02-8.83-7.24-22.45-7.9-9.54-.47-11.02,4.42-16.74,2.48-9.7-3.29-8.34-17.83-21.45-23.88-3.21-1.48-3.91-.89-6.6-1.95-4.1-1.6-27.63-47.42-15.57-55.21Z"/>
        <path class="cls-29" d="M443.05,239.22c8.53-4.13,26.67,9.82,35.67,19.34,8.09,8.56,13.51,18.55,21.71,17.99,4.65-.32,5.7-3.93,8.74-3.53,16.2,2.16,23.38,67.65,12.61,71.6-4.56,1.67-8.66-9.08-23.42-11.63-10.34-1.79-12.61,3.34-18.59.46-10.13-4.89-6.7-20.57-20.2-28.92-3.3-2.05-4.14-1.5-6.94-3.01-4.25-2.3-23.79-55.43-9.58-62.3Z"/>
        <path class="cls-26" d="M446.89,229.14c9.86-3.36,27.78,14.28,36.31,25.87,7.68,10.42,12.25,22.05,21.27,22.53,5.12.28,6.75-3.53,10-2.68,17.38,4.52,16.44,76.92,4.17,79.78-5.2,1.21-8.23-11.06-23.99-15.82-11.04-3.33-14.2,1.95-20.34-1.99-10.4-6.69-4.56-23.33-18.15-34.25-3.33-2.67-4.32-2.19-7.17-4.21-4.33-3.08-18.52-63.64-2.11-69.24Z"/>
        <path class="cls-7" d="M452.44,218.67c11.2-2.35,28.38,19.3,36.14,33.08,6.98,12.4,10.41,25.69,20.19,27.43,5.54.99,7.83-2.94,11.27-1.58,18.35,7.26,7.62,86.1-6.14,87.58-5.84.63-7.49-13.16-24.05-20.47-11.59-5.11-15.75.23-21.92-4.89-10.45-8.68-1.85-26.06-15.21-39.79-3.27-3.36-4.42-2.97-7.25-5.55-4.31-3.93-11.68-71.89,6.97-75.8Z"/>
        <path class="cls-25" d="M459.89,207.99c12.54-1.06,28.37,24.85,34.99,40.92,5.95,14.46,7.92,29.41,18.34,32.62,5.91,1.82,8.94-2.16,12.5-.22,19.05,10.38-3.21,94.93-18.42,94.7-6.45-.1-6.41-15.36-23.49-25.54-11.96-7.13-17.21-1.86-23.25-8.27-10.23-10.87,1.48-28.67-11.27-45.44-3.12-4.1-4.42-3.83-7.17-7.03-4.18-4.87-3.11-79.98,17.76-81.74Z"/>
        <path class="cls-19" d="M469.45,197.33c13.81.52,27.62,30.91,32.68,49.32,4.55,16.56,4.7,33.14,15.64,38.03,6.21,2.78,10.04-1.16,13.67,1.44,19.38,13.87-16.22,103.11-32.77,100.82-7.02-.97-4.94-17.61-22.2-31.01-12.09-9.38-18.53-4.33-24.25-12.13-9.7-13.23,5.45-31.07-6.2-51.07-2.85-4.89-4.31-4.77-6.88-8.63-3.9-5.87,7.32-87.65,30.32-86.78Z"/>
        <path class="cls-10" d="M481.3,187c15,2.42,25.99,37.41,29.04,58.17,2.75,18.68.68,36.77,11.96,43.58,6.4,3.86,11.1.08,14.71,3.4,19.29,17.72-31.5,110.29-49.25,105.58-7.53-2-3.02-19.87-20.06-36.79-11.93-11.85-19.63-7.21-24.82-16.48-8.81-15.73,10.11-33.16.07-56.53-2.46-5.72-4.06-5.78-6.34-10.33-3.47-6.93,19.72-94.62,44.69-90.59Z"/>
        <path class="cls-5" d="M495.61,177.3c16.03,4.65,23.33,44.28,23.88,67.34.5,20.74-4.18,40.2,7.21,49.13,6.46,5.07,12.1,1.57,15.59,5.68,18.66,21.91-49.13,116.08-67.86,108.56-7.94-3.19-.64-22.08-16.95-42.82-11.43-14.52-20.44-10.49-24.87-21.3-7.51-18.33,15.46-34.82,7.65-61.65-1.91-6.57-3.66-6.85-5.54-12.12-2.86-8.02,34.18-100.56,60.87-92.83Z"/>
        <path class="cls-30" d="M512.51,168.65c16.87,7.21,19.52,51.42,17.03,76.65-2.24,22.69-9.94,43.29,1.29,54.56,6.37,6.39,12.98,3.33,16.25,8.28,17.42,26.4-69.13,120.03-88.55,109.32-8.24-4.54,2.26-24.17-12.76-48.97-10.52-17.37-20.89-14.18-24.27-26.56-5.73-21,21.53-35.9,16.6-66.22-1.21-7.42-3.07-7.96-4.42-13.96-2.04-9.13,50.75-105.1,78.83-93.1Z"/>
        <path class="cls-21" d="M532.11,161.48c17.43,10.13,14.4,58.7,8.31,85.88-5.48,24.45-16.64,45.88-5.9,59.68,6.09,7.83,13.72,5.38,16.61,11.21,15.46,31.13-91.47,121.66-111.22,107.38-8.37-6.06,5.7-26.06-7.36-55.12-9.15-20.35-20.89-18.26-22.92-32.22-3.44-23.68,28.29-36.28,26.98-70-.32-8.25-2.29-9.09-2.95-15.81-1.01-10.23,69.43-107.84,98.44-90.98Z"/>
        <path class="cls-3" d="M554.45,156.28c17.66,13.38,7.85,65.96-2.43,94.78-9.25,25.93-24.29,47.82-14.43,64.3,5.6,9.35,14.24,7.7,16.62,14.45,12.7,36.02-116.06,120.44-135.69,102.22-8.32-7.73,9.71-27.66-.64-61.11-7.25-23.43-20.34-22.72-20.68-38.22-.58-26.28,35.72-35.78,38.8-72.74.75-9.05-1.28-10.22-1.1-17.64.27-11.29,90.17-108.33,119.56-86.05Z"/>
        <path class="cls-16" d="M579.51,153.6c17.47,16.96-.27,72.99-15.35,103.06-13.56,27.04-32.9,48.9-24.35,68.2,4.85,10.95,14.5,10.31,16.19,17.99,9.02,40.99-142.72,115.83-161.69,93.32-8.04-9.54,14.29-28.87,7.48-66.73-4.77-26.52-19.14-27.5-17.44-44.45,2.89-28.75,43.75-34.24,52.06-74.14,2.03-9.77-.02-11.32,1.17-19.39,1.81-12.28,112.86-106.08,141.93-77.85Z"/>
        <path class="cls-31" d="M607.2,154.03c16.78,20.84-10.07,79.57-30.54,110.35-18.41,27.68-42.43,48.93-35.69,71.13,3.82,12.59,14.44,13.18,15.25,21.79,4.35,45.92-171.18,107.22-188.86,80.13-7.49-11.49,19.46-29.57,17.1-71.79-1.65-29.57-17.19-32.56-13.07-50.82,7-30.97,52.3-31.49,66.71-73.89,3.53-10.38,1.49-12.35,3.87-20.99,3.62-13.15,137.3-100.58,165.23-65.9Z"/>
        <path class="cls-24" d="M637.35,158.21c15.51,24.97-21.64,85.44-48.09,116.27-23.79,27.72-52.84,47.69-48.46,72.8,2.49,14.25,13.98,16.31,13.72,25.8-1.4,50.67-201.07,94.02-216.72,62.11-6.64-13.53,25.18-29.65,28.26-76.01,2.16-32.47-14.39-37.82-7.45-57.18,11.78-32.84,61.26-27.34,82.66-71.66,5.24-10.85,3.28-13.27,7.03-22.38,5.71-13.86,163.23-91.32,189.04-49.75Z"/>
        <path class="cls-12" d="M669.67,166.81c13.57,29.32-35.05,90.3-68.02,120.37-29.66,27.05-64.02,44.93-62.6,72.91.8,15.87,13.06,19.66,11.51,29.98-8.31,55.07-231.9,75.62-244.69,38.72-5.43-15.65,31.44-28.96,41.01-79.12,6.7-35.13-10.63-43.17-.46-63.36,17.25-34.24,70.48-21.62,99.75-67.09,7.16-11.13,5.35-14.03,10.67-23.47,8.08-14.36,190.26-77.74,212.85-28.95Z"/>
        <path class="cls-2" d="M703.77,180.51c10.88,33.79-50.32,93.79-90.32,122.18-35.97,25.54-75.84,40.44-78.04,71.14-1.25,17.42,11.62,23.2,8.54,34.24-16.44,58.96-263.06,51.42-272.08,9.46-3.82-17.79,38.17-27.38,55.32-80.8,12.01-37.41-5.82-48.51,7.98-69.17,23.4-35.04,79.77-14.14,117.78-59.82,9.31-11.18,7.72-14.59,14.78-24.17,10.74-14.58,217.93-59.32,236.04-3.07Z"/>
        <path class="cls-18" d="M739.13,200.03c7.34,38.31-67.45,95.56-114.87,121.17-42.66,23.03-88.14,33.95-94.65,67.14-3.7,18.83,9.56,26.86,4.72,38.49-25.83,62.1-293.81,20.86-298.02-26.12-1.79-19.92,45.3-24.75,71.16-80.72,18.11-39.2.15-53.69,17.97-74.38,30.21-35.08,88.9-4.74,136.48-49.47,11.65-10.95,10.37-14.88,19.35-24.38,13.66-14.46,245.64-35.51,257.86,28.27Z"/>
        <path class="cls-14" d="M775.08,226.05c2.87,42.77-86.36,95.2-141.52,116.78-49.61,19.41-100.68,25.23-112.23,60.56-6.55,20.04,6.83,30.57,0,42.62-36.49,64.28-323.26-16.6-321.56-68.4.72-21.96,52.72-20.93,88.43-78.52,25.01-40.33,7.36-58.54,29.56-78.72,37.65-34.22,97.6,6.74,155.48-35.68,14.17-10.38,13.31-14.84,24.38-24,16.84-13.94,272.68-5.83,277.46,65.36Z"/>
        <path class="cls-11" d="M810.81,259.25c-2.59,47.04-106.95,92.27-170,108.42-56.71,14.53-113.19,14.03-130.52,51.02-9.83,20.98,3.36,34.26-5.71,46.48-48.41,65.22-350.35-61.39-341.57-117.67,3.73-23.86,60.31-15.77,106.96-73.8,32.68-40.64,15.87-62.87,42.78-81.9,45.65-32.28,105.55,20.42,174.37-18.09,16.85-9.43,16.5-14.4,29.8-22.92,20.23-12.95,298.2,30.15,293.88,108.45Z"/>
        <path class="cls-4" d="M845.33,300.24c-9.13,50.96-129,86.31-199.94,95.49-63.8,8.25-125.33.14-149.19,38.17-13.53,21.57-.92,37.82-12.45,49.93-61.53,64.65-373.91-113.88-356.79-174.08,7.26-25.53,67.89-9.12,126.55-66.17,41.08-39.95,25.73-66.45,57.63-83.6,54.11-29.09,112.39,36.41,192.61,3.62,19.64-8.03,19.93-13.5,35.57-21,23.8-11.42,321.21,72.83,306.01,157.64Z"/>
        <path class="cls-22" d="M877.5,349.57c-16.78,54.36-152.27,76.87-230.86,77.37-70.69.45-136.72-16.63-167.84,21.65-17.65,21.72-6.07,41.13-20.27,52.79-75.77,62.28-392.58-174.29-365.84-237.66,11.34-26.87,75.27-.86,146.89-55.22,50.16-38.07,36.96-69.03,74.06-83.46,62.92-24.49,117.7,54.76,209.59,29.74,22.49-6.13,23.54-12.05,41.61-18.14,27.49-9.26,340.59,122.45,312.66,212.93Z"/>
        <path class="cls-9" d="M905.97,407.69c-25.58,57.04-176.37,63.45-262.16,53.47-77.17-8.97-146.9-36.45-185.96,1.14-22.16,21.32-12.13,44.04-29.18,54.87C337.68,574.95,23.82,274.5,61.47,208.96c15.96-27.79,82.21,9.14,167.61-40.56,59.81-34.81,49.55-70.34,91.95-81.12,71.9-18.28,121.05,75.49,224.62,60.5,25.35-3.67,27.29-9.99,47.82-14.22,31.22-6.42,355.09,179.17,312.5,274.11Z"/>
        <path class="cls-28" d="M929.25,474.89c-35.54,58.79-200.87,45.58-293.1,23.22-82.96-20.12-155.34-59.42-202.98-23.66-27.02,20.29-19.13,46.41-39.17,55.94C287.01,581.22-15.08,211.48,34.76,145.04c21.13-28.17,88.44,20.98,188.24-21.79,69.89-29.95,63.47-70.08,111.15-76.16,80.87-10.31,121.92,98.55,236.9,96.08,28.14-.61,31.1-7.25,54.06-9.1,34.92-2.82,363.31,242.98,304.14,340.83Z"/>
        <path class="cls-6" d="M945.64,551.31c-46.64,59.36-225.19,22.82-322.8-13.93-87.79-33.05-161.47-85.62-218.23-52.99-32.19,18.51-27.08,48.06-50.22,55.77C230.9,581.27-49.08,137.53,14.18,71.74c26.82-27.9,93.66,34.73,208.24,1.44C302.66,49.88,301.03,5.25,353.85,5c89.59-.41,119.78,123.82,245.52,136.52,30.78,3.11,34.9-3.74,60.18-2.69,38.46,1.6,363.72,313.67,286.09,412.48Z"/>
      </g>
      <circle class="cls-32" cx="692.65" cy="133.37" r="5"/>
      <circle class="cls-32" cx="768.2" cy="178.64" r="5"/>
      <circle class="cls-32" cx="614.56" cy="117.82" r="5"/>
      <circle class="cls-32" cx="272.67" cy="542.41" r="5"/>
      <circle class="cls-32" cx="341.52" cy="603.76" r="5"/>
      <circle class="cls-32" cx="392.37" cy="558.59" r="5"/>
      <circle class="cls-32" cx="326.78" cy="567.7" r="5"/>
      <circle class="cls-32" cx="231.77" cy="529.13" r="5"/>
      <circle class="cls-32" cx="438.05" cy="537.42" r="5"/>
      <circle class="cls-32" cx="673.7" cy="109.64" r="3.5"/>
      <circle class="cls-32" cx="748.93" cy="155.86" r="3.5"/>
      <circle class="cls-32" cx="415.04" cy="549.37" r="3.5"/>
      <circle class="cls-32" cx="361.2" cy="570.4" r="3.5"/>
      <circle class="cls-32" cx="295.54" cy="596.63" r="3.5"/>
      <circle class="cls-32" cx="248.81" cy="565.68" r="3.5"/>
      <circle class="cls-32" cx="199.42" cy="517.04" r="3.5"/>
    </g>
  </g>
</svg>