<?xml version="1.0" encoding="UTF-8"?>
<svg id="Layer_2" xmlns="http://www.w3.org/2000/svg" viewBox="0 0 713.55 589.04">
  <defs>
    <style>
      .cls-1 {
        stroke-dasharray: 0 4.31;
        stroke-width: .86px;
      }

      .cls-1, .cls-2, .cls-3, .cls-4, .cls-5, .cls-6, .cls-7, .cls-8, .cls-9, .cls-10, .cls-11, .cls-12, .cls-13, .cls-14, .cls-15, .cls-16, .cls-17, .cls-18, .cls-19, .cls-20, .cls-21, .cls-22, .cls-23, .cls-24, .cls-25, .cls-26, .cls-27, .cls-28, .cls-29, .cls-30, .cls-31 {
        fill: none;
        stroke: #8aceca;
        stroke-linecap: round;
        stroke-linejoin: round;
      }

      .cls-2 {
        stroke-dasharray: 0 23.51;
        stroke-width: 4.7px;
      }

      .cls-3 {
        stroke-dasharray: 0 14.67;
        stroke-width: 2.93px;
      }

      .cls-4 {
        stroke-dasharray: 0 34.29;
        stroke-width: 6.86px;
      }

      .cls-5 {
        stroke-dasharray: 0 11.06;
        stroke-width: 2.21px;
      }

      .cls-6 {
        stroke-dasharray: 0 50;
        stroke-width: 10px;
      }

      .cls-7 {
        stroke-dasharray: 0 7.58;
        stroke-width: 1.52px;
      }

      .cls-8 {
        stroke-dasharray: 0 5.2;
        stroke-width: 1.04px;
      }

      .cls-9 {
        stroke-dasharray: 0 41.4;
        stroke-width: 8.28px;
      }

      .cls-32 {
        fill: #8aceca;
      }

      .cls-10 {
        stroke-dasharray: 0 10.06;
        stroke-width: 2.01px;
      }

      .cls-11 {
        stroke-dasharray: 0 31.2;
        stroke-width: 6.24px;
      }

      .cls-12 {
        stroke-dasharray: 0 21.4;
        stroke-width: 4.28px;
      }

      .cls-13 {
        stroke-dasharray: 0 3.57;
        stroke-width: .71px;
      }

      .cls-14 {
        stroke-dasharray: 0 28.39;
        stroke-width: 5.68px;
      }

      .cls-15 {
        stroke-dasharray: 0 5.71;
        stroke-width: 1.14px;
      }

      .cls-16 {
        stroke-dasharray: 0 16.12;
        stroke-width: 3.22px;
      }

      .cls-17 {
        stroke-dasharray: 0 2.95;
        stroke-width: .59px;
      }

      .cls-18 {
        stroke-dasharray: 0 25.84;
        stroke-width: 5.17px;
      }

      .cls-19 {
        stroke-dasharray: 0 9.16;
        stroke-width: 1.83px;
      }

      .cls-20 {
        stroke-dasharray: 0 4.73;
        stroke-width: .95px;
      }

      .cls-21 {
        stroke-dasharray: 0 13.35;
        stroke-width: 2.67px;
      }

      .cls-22 {
        stroke-dasharray: 0 37.68;
        stroke-width: 7.54px;
      }

      .cls-23 {
        stroke-dasharray: 0 3.92;
        stroke-width: .78px;
      }

      .cls-24 {
        stroke-dasharray: 0 19.47;
        stroke-width: 3.89px;
      }

      .cls-25 {
        stroke-dasharray: 0 8.33;
        stroke-width: 1.67px;
      }

      .cls-26 {
        stroke-dasharray: 0 6.9;
        stroke-width: 1.38px;
      }

      .cls-27 {
        stroke-dasharray: 0 3.24;
        stroke-width: .65px;
      }

      .cls-28 {
        stroke-dasharray: 0 45.5;
        stroke-width: 9.1px;
      }

      .cls-29 {
        stroke-dasharray: 0 6.28;
        stroke-width: 1.26px;
      }

      .cls-30 {
        stroke-dasharray: 0 12.15;
        stroke-width: 2.43px;
      }

      .cls-31 {
        stroke-dasharray: 0 17.72;
        stroke-width: 3.54px;
      }
    </style>
  </defs>
  <g id="low_good">
    <g>
      <g>
        <g>
          <circle class="cls-17" cx="556.49" cy="217.59" r="4.43"/>
          <circle class="cls-17" cx="551.17" cy="225.61" r="8.86"/>
          <circle class="cls-17" cx="541.68" cy="239.15" r="13.29"/>
        </g>
        <g>
          <circle class="cls-27" cx="558.46" cy="218.02" r="4.87"/>
          <circle class="cls-27" cx="552.15" cy="226.51" r="9.73"/>
          <circle class="cls-27" cx="540.96" cy="240.83" r="14.6"/>
        </g>
        <g>
          <circle class="cls-13" cx="560.59" cy="218.61" r="5.35"/>
          <circle class="cls-13" cx="553.18" cy="227.56" r="10.7"/>
          <circle class="cls-13" cx="540.07" cy="242.63" r="16.05"/>
        </g>
        <g>
          <circle class="cls-23" cx="562.89" cy="219.37" r="5.88"/>
          <circle class="cls-23" cx="554.25" cy="228.78" r="11.75"/>
          <circle class="cls-23" cx="538.99" cy="244.56" r="17.63"/>
        </g>
        <g>
          <circle class="cls-1" cx="565.38" cy="220.34" r="6.46"/>
          <circle class="cls-1" cx="555.35" cy="230.17" r="12.92"/>
          <circle class="cls-1" cx="537.7" cy="246.61" r="19.38"/>
        </g>
        <g>
          <circle class="cls-20" cx="568.04" cy="221.55" r="7.1"/>
          <circle class="cls-20" cx="556.48" cy="231.76" r="14.19"/>
          <circle class="cls-20" cx="536.16" cy="248.78" r="21.29"/>
        </g>
        <g>
          <circle class="cls-8" cx="570.91" cy="223.04" r="7.8"/>
          <circle class="cls-8" cx="557.62" cy="233.57" r="15.6"/>
          <circle class="cls-8" cx="534.35" cy="251.08" r="23.4"/>
        </g>
        <g>
          <circle class="cls-15" cx="573.96" cy="224.83" r="8.57"/>
          <circle class="cls-15" cx="558.78" cy="235.62" r="17.14"/>
          <circle class="cls-15" cx="532.23" cy="253.5" r="25.71"/>
        </g>
        <g>
          <circle class="cls-29" cx="577.21" cy="226.96" r="9.42"/>
          <circle class="cls-29" cx="559.93" cy="237.93" r="18.84"/>
          <circle class="cls-29" cx="529.77" cy="256.04" r="28.25"/>
        </g>
        <g>
          <circle class="cls-26" cx="580.65" cy="229.5" r="10.35"/>
          <circle class="cls-26" cx="561.05" cy="240.54" r="20.7"/>
          <circle class="cls-26" cx="526.92" cy="258.67" r="31.05"/>
        </g>
        <g>
          <circle class="cls-7" cx="584.28" cy="232.48" r="11.37"/>
          <circle class="cls-7" cx="562.14" cy="243.47" r="22.75"/>
          <circle class="cls-7" cx="523.64" cy="261.41" r="34.12"/>
        </g>
        <g>
          <circle class="cls-25" cx="588.09" cy="235.96" r="12.5"/>
          <circle class="cls-25" cx="563.17" cy="246.75" r="25"/>
          <circle class="cls-25" cx="519.88" cy="264.21" r="37.49"/>
        </g>
        <g>
          <circle class="cls-19" cx="592.08" cy="240" r="13.73"/>
          <circle class="cls-19" cx="564.1" cy="250.4" r="27.47"/>
          <circle class="cls-19" cx="515.6" cy="267.08" r="41.2"/>
        </g>
        <g>
          <circle class="cls-10" cx="596.22" cy="244.65" r="15.09"/>
          <circle class="cls-10" cx="564.92" cy="254.47" r="30.19"/>
          <circle class="cls-10" cx="510.73" cy="269.98" r="45.28"/>
        </g>
        <g>
          <circle class="cls-5" cx="600.49" cy="250.01" r="16.59"/>
          <circle class="cls-5" cx="565.58" cy="258.97" r="33.17"/>
          <circle class="cls-5" cx="505.22" cy="272.88" r="49.76"/>
        </g>
        <g>
          <circle class="cls-30" cx="604.88" cy="256.12" r="18.23"/>
          <circle class="cls-30" cx="566.05" cy="263.96" r="36.45"/>
          <circle class="cls-30" cx="499.02" cy="275.75" r="54.68"/>
        </g>
        <g>
          <circle class="cls-21" cx="609.34" cy="263.09" r="20.03"/>
          <circle class="cls-21" cx="566.28" cy="269.45" r="40.06"/>
          <circle class="cls-21" cx="492.04" cy="278.53" r="60.08"/>
        </g>
        <g>
          <circle class="cls-3" cx="613.83" cy="270.99" r="22.01"/>
          <circle class="cls-3" cx="566.21" cy="275.5" r="44.02"/>
          <circle class="cls-3" cx="484.22" cy="281.19" r="66.03"/>
        </g>
        <g>
          <circle class="cls-16" cx="618.31" cy="279.92" r="24.19"/>
          <circle class="cls-16" cx="565.79" cy="282.13" r="48.37"/>
          <circle class="cls-16" cx="475.48" cy="283.66" r="72.56"/>
        </g>
        <g>
          <circle class="cls-31" cx="622.71" cy="289.98" r="26.58"/>
          <circle class="cls-31" cx="564.95" cy="289.38" r="53.16"/>
          <circle class="cls-31" cx="465.76" cy="285.87" r="79.73"/>
        </g>
        <g>
          <circle class="cls-24" cx="626.96" cy="301.27" r="29.21"/>
          <circle class="cls-24" cx="563.61" cy="297.29" r="58.41"/>
          <circle class="cls-24" cx="454.95" cy="287.73" r="87.62"/>
        </g>
        <g>
          <circle class="cls-12" cx="630.97" cy="313.9" r="32.09"/>
          <circle class="cls-12" cx="561.68" cy="305.89" r="64.19"/>
          <circle class="cls-12" cx="442.99" cy="289.15" r="96.28"/>
        </g>
        <g>
          <circle class="cls-2" cx="634.65" cy="327.99" r="35.27"/>
          <circle class="cls-2" cx="559.07" cy="315.22" r="70.54"/>
          <circle class="cls-2" cx="429.79" cy="290.03" r="105.81"/>
        </g>
        <g>
          <circle class="cls-18" cx="637.87" cy="343.67" r="38.76"/>
          <circle class="cls-18" cx="555.67" cy="325.3" r="77.51"/>
          <circle class="cls-18" cx="415.24" cy="290.22" r="116.27"/>
        </g>
        <g>
          <circle class="cls-14" cx="640.51" cy="361.06" r="42.59"/>
          <circle class="cls-14" cx="551.36" cy="336.18" r="85.18"/>
          <circle class="cls-14" cx="399.27" cy="289.6" r="127.77"/>
        </g>
        <g>
          <circle class="cls-11" cx="642.41" cy="380.3" r="46.8"/>
          <circle class="cls-11" cx="546" cy="347.86" r="93.6"/>
          <circle class="cls-11" cx="381.78" cy="288.01" r="140.41"/>
        </g>
        <g>
          <circle class="cls-4" cx="643.38" cy="401.51" r="51.43"/>
          <circle class="cls-4" cx="539.45" cy="360.38" r="102.86"/>
          <circle class="cls-4" cx="362.68" cy="285.25" r="154.29"/>
        </g>
        <g>
          <circle class="cls-22" cx="643.23" cy="424.85" r="56.52"/>
          <circle class="cls-22" cx="531.54" cy="373.73" r="113.04"/>
          <circle class="cls-22" cx="341.88" cy="281.12" r="169.55"/>
        </g>
        <g>
          <circle class="cls-9" cx="641.72" cy="450.46" r="62.11"/>
          <circle class="cls-9" cx="522.09" cy="387.94" r="124.21"/>
          <circle class="cls-9" cx="319.28" cy="275.4" r="186.32"/>
        </g>
        <g>
          <circle class="cls-28" cx="638.59" cy="478.47" r="68.25"/>
          <circle class="cls-28" cx="510.91" cy="402.98" r="136.5"/>
          <circle class="cls-28" cx="294.82" cy="267.81" r="204.75"/>
        </g>
        <g>
          <circle class="cls-6" cx="633.54" cy="509.03" r="75"/>
          <circle class="cls-6" cx="497.77" cy="418.84" r="150"/>
          <circle class="cls-6" cx="268.41" cy="258.09" r="225"/>
        </g>
      </g>
      <circle class="cls-32" cx="5" cy="304.01" r="5"/>
      <circle class="cls-32" cx="96.91" cy="37.33" r="5"/>
      <circle class="cls-32" cx="215.29" cy="9.12" r="5"/>
      <circle class="cls-32" cx="353.68" cy="5" r="5"/>
      <circle class="cls-32" cx="117.85" cy="448.6" r="5"/>
      <circle class="cls-32" cx="279.08" cy="504.08" r="5"/>
      <circle class="cls-32" cx="515.7" cy="196.66" r="5"/>
      <circle class="cls-32" cx="36.94" cy="161.96" r="5"/>
      <circle class="cls-32" cx="31.64" cy="393.14" r="3.5"/>
      <circle class="cls-32" cx="85.75" cy="82.14" r="3.5"/>
      <circle class="cls-32" cx="26.24" cy="319.93" r="3.5"/>
      <circle class="cls-32" cx="516.58" cy="140.21" r="3.5"/>
      <circle class="cls-32" cx="381.59" cy="25.34" r="3.5"/>
      <circle class="cls-32" cx="227.92" cy="511.51" r="3.5"/>
    </g>
  </g>
</svg>