<?xml version="1.0" encoding="UTF-8"?>
<svg id="Layer_2" xmlns="http://www.w3.org/2000/svg" viewBox="0 0 1092 561.3">
  <defs>
    <style>
      .cls-1 {
        stroke-dasharray: 0 4.31;
        stroke-width: 1.29px;
      }

      .cls-1, .cls-2, .cls-3, .cls-4, .cls-5, .cls-6, .cls-7, .cls-8, .cls-9, .cls-10, .cls-11, .cls-12, .cls-13, .cls-14, .cls-15, .cls-16, .cls-17, .cls-18, .cls-19, .cls-20, .cls-21, .cls-22, .cls-23, .cls-24, .cls-25, .cls-26, .cls-27, .cls-28, .cls-29, .cls-30, .cls-31 {
        fill: none;
        stroke: #87b4db;
        stroke-linecap: round;
        stroke-linejoin: round;
      }

      .cls-2 {
        stroke-dasharray: 0 13.35;
        stroke-width: 4.01px;
      }

      .cls-3 {
        stroke-dasharray: 0 5.2;
        stroke-width: 1.56px;
      }

      .cls-4 {
        stroke-dasharray: 0 41.4;
        stroke-width: 12.42px;
      }

      .cls-5 {
        stroke-dasharray: 0 6.9;
        stroke-width: 2.07px;
      }

      .cls-6 {
        stroke-dasharray: 0 6.28;
        stroke-width: 1.88px;
      }

      .cls-7 {
        stroke-dasharray: 0 7.58;
        stroke-width: 2.27px;
      }

      .cls-8 {
        stroke-dasharray: 0 3.92;
        stroke-width: 1.18px;
      }

      .cls-9 {
        stroke-dasharray: 0 19.47;
        stroke-width: 5.84px;
      }

      .cls-10 {
        stroke-dasharray: 0 31.2;
        stroke-width: 9.36px;
      }

      .cls-11 {
        stroke-dasharray: 0 21.4;
        stroke-width: 6.42px;
      }

      .cls-12 {
        stroke-dasharray: 0 17.72;
        stroke-width: 5.32px;
      }

      .cls-13 {
        stroke-dasharray: 0 34.29;
        stroke-width: 10.29px;
      }

      .cls-14 {
        stroke-dasharray: 0 4.73;
        stroke-width: 1.42px;
      }

      .cls-15 {
        stroke-dasharray: 0 14.67;
        stroke-width: 4.4px;
      }

      .cls-16 {
        stroke-dasharray: 0 3.57;
        stroke-width: 1.07px;
      }

      .cls-17 {
        stroke-dasharray: 0 50;
        stroke-width: 15px;
      }

      .cls-18 {
        stroke-dasharray: 0 3.24;
        stroke-width: .97px;
      }

      .cls-19 {
        stroke-dasharray: 0 37.68;
        stroke-width: 11.3px;
      }

      .cls-20 {
        stroke-dasharray: 0 8.33;
        stroke-width: 2.5px;
      }

      .cls-21 {
        stroke-dasharray: 0 16.12;
        stroke-width: 4.84px;
      }

      .cls-22 {
        stroke-dasharray: 0 10.06;
        stroke-width: 3.02px;
      }

      .cls-23 {
        stroke-dasharray: 0 28.39;
        stroke-width: 8.52px;
      }

      .cls-24 {
        stroke-dasharray: 0 11.06;
        stroke-width: 3.32px;
      }

      .cls-25 {
        stroke-dasharray: 0 25.84;
        stroke-width: 7.75px;
      }

      .cls-26 {
        stroke-dasharray: 0 45.5;
        stroke-width: 13.65px;
      }

      .cls-27 {
        stroke-dasharray: 0 23.51;
        stroke-width: 7.05px;
      }

      .cls-28 {
        stroke-dasharray: 0 9.16;
        stroke-width: 2.75px;
      }

      .cls-29 {
        stroke-dasharray: 0 5.71;
        stroke-width: 1.71px;
      }

      .cls-30 {
        stroke-dasharray: 0 12.15;
        stroke-width: 3.65px;
      }

      .cls-31 {
        stroke-dasharray: 0 2.95;
        stroke-width: .89px;
      }

      .cls-32 {
        fill: #87b4db;
      }
    </style>
  </defs>
  <g id="low_bad">
    <g>
      <g>
        <g>
          <path class="cls-31" d="M502.1,297.78c5.7-9.87,21.77-11.27,35.89-3.12,14.12,8.15,20.95,22.77,15.25,32.64"/>
          <polygon class="cls-31" points="521.86 322.61 536.15 317.44 533.15 303.06 519.65 307.91 521.86 322.61"/>
        </g>
        <g>
          <path class="cls-18" d="M500.35,294.31c7.19-10.26,24.91-10.25,39.59.03s20.75,26.93,13.57,37.2"/>
          <polygon class="cls-18" points="519.61 323.38 535.74 319.1 533.83 303.07 518.59 307.08 519.61 323.38"/>
        </g>
        <g>
          <path class="cls-16" d="M498.76,290.34c8.85-10.55,28.25-8.84,43.34,3.82,15.09,12.66,20.14,31.47,11.29,42.02"/>
          <polygon class="cls-16" points="517.06 324.01 535.14 320.87 534.58 303.14 517.51 306.07 517.06 324.01"/>
        </g>
        <g>
          <path class="cls-8" d="M497.41,285.85c10.7-10.7,31.78-6.97,47.08,8.33s19.03,36.38,8.33,47.08"/>
          <polygon class="cls-8" points="514.22 324.45 534.3 322.75 535.39 303.28 516.42 304.86 514.22 324.45"/>
        </g>
        <g>
          <path class="cls-1" d="M496.35,280.8c12.74-10.69,35.45-4.58,50.74,13.63s17.35,41.65,4.61,52.34"/>
          <polygon class="cls-1" points="511.06 324.67 533.21 324.72 536.26 303.52 515.35 303.43 511.06 324.67"/>
        </g>
        <g>
          <path class="cls-14" d="M495.68,275.17c14.97-10.48,39.25-1.62,54.24,19.78,14.99,21.41,15.01,47.25.04,57.73"/>
          <polygon class="cls-14" points="507.58 324.6 531.83 326.78 537.2 303.86 514.31 301.77 507.58 324.6"/>
        </g>
        <g>
          <path class="cls-3" d="M495.49,268.94c17.39-10.04,43.12,1.98,57.48,26.85s11.9,53.17-5.49,63.21"/>
          <polygon class="cls-3" points="503.77 324.2 530.11 328.91 538.18 304.33 513.33 299.84 503.77 324.2"/>
        </g>
        <g>
          <path class="cls-29" d="M495.87,262.1c20-9.32,47.02,6.3,60.36,34.9,13.34,28.6,7.94,59.34-12.06,68.67"/>
          <polygon class="cls-29" points="499.65 323.39 528.03 331.07 539.22 304.94 512.45 297.64 499.65 323.39"/>
        </g>
        <g>
          <path class="cls-6" d="M496.95,254.66c22.78-8.29,50.87,11.4,62.73,43.99s3,65.72-19.78,74.02"/>
          <polygon class="cls-6" points="495.22 322.11 525.55 333.23 540.3 305.7 511.69 295.15 495.22 322.11"/>
        </g>
        <g>
          <path class="cls-5" d="M498.84,246.61c25.74-6.9,54.6,17.35,64.46,54.16,9.86,36.81-3.01,72.24-28.74,79.13"/>
          <polygon class="cls-5" points="490.48 320.28 522.62 335.36 541.41 306.63 511.1 292.35 490.48 320.28"/>
        </g>
        <g>
          <path class="cls-7" d="M501.68,237.98c28.84-5.08,58.11,24.22,65.38,65.46,7.27,41.24-10.21,78.79-39.04,83.88"/>
          <polygon class="cls-7" points="485.47 317.83 519.21 337.42 542.53 307.77 510.72 289.22 485.47 317.83"/>
        </g>
        <g>
          <path class="cls-20" d="M505.62,228.8c32.05-2.8,61.29,32.08,65.3,77.93,4.01,45.84-18.72,85.28-50.78,88.08"/>
          <polygon class="cls-20" points="480.23 314.66 515.29 339.34 543.66 309.11 510.6 285.76 480.23 314.66"/>
        </g>
        <g>
          <path class="cls-28" d="M510.8,219.13c35.36,0,64.02,40.99,64.02,91.56,0,50.57-28.66,91.56-64.02,91.56"/>
          <polygon class="cls-28" points="474.79 310.7 510.8 341.07 544.76 310.7 510.8 281.97 474.79 310.7"/>
        </g>
        <g>
          <path class="cls-22" d="M517.41,209.05c38.71,3.39,66.16,51.01,61.32,106.37-4.84,55.36-40.15,97.49-78.86,94.1"/>
          <polygon class="cls-22" points="469.21 305.83 505.73 342.53 545.81 312.53 511.39 277.83 469.21 305.83"/>
        </g>
        <g>
          <path class="cls-24" d="M525.61,198.64c42.05,7.41,67.54,62.18,56.94,122.31-10.6,60.14-53.29,102.88-95.34,95.46"/>
          <polygon class="cls-24" points="463.57 299.97 500.04 343.65 546.78 314.65 512.43 273.36 463.57 299.97"/>
        </g>
        <g>
          <path class="cls-30" d="M535.58,188.03c45.32,12.14,67.98,74.53,50.62,139.35-17.37,64.82-68.19,107.52-113.51,95.38"/>
          <polygon class="cls-30" points="457.96 293.02 493.7 344.32 547.65 317.05 514 268.57 457.96 293.02"/>
        </g>
        <g>
          <path class="cls-2" d="M547.51,177.36c48.45,17.64,67.28,88.11,42.06,157.4-25.22,69.29-84.94,111.17-133.4,93.54"/>
          <polygon class="cls-2" points="452.48 284.87 486.69 344.45 548.36 319.77 516.17 263.47 452.48 284.87"/>
        </g>
        <g>
          <path class="cls-15" d="M561.59,166.84c51.35,23.95,65.22,102.89,30.97,176.34s-103.64,113.57-154.99,89.62"/>
          <polygon class="cls-15" points="447.27 275.42 479.01 343.93 548.89 322.81 519.04 258.09 447.27 275.42"/>
        </g>
        <g>
          <path class="cls-21" d="M578.01,156.66c53.92,31.13,61.54,118.89,17.02,196.01-44.52,77.12-124.33,114.4-178.25,83.27"/>
          <polygon class="cls-21" points="442.47 264.58 470.65 342.62 549.17 326.19 522.69 252.49 442.47 264.58"/>
        </g>
        <g>
          <path class="cls-12" d="M596.97,147.09c56.05,39.25,55.98,136.04-.14,216.2-56.13,80.16-147.07,113.33-203.11,74.08"/>
          <polygon class="cls-12" points="438.24 252.26 461.63 340.38 549.16 329.92 527.22 246.7 438.24 252.26"/>
        </g>
        <g>
          <path class="cls-9" d="M618.63,138.43c57.6,48.33,48.26,154.29-20.86,236.67-69.12,82.38-171.85,109.97-229.45,61.64"/>
          <polygon class="cls-9" points="434.8 238.36 451.96 337.07 548.78 334 532.75 240.79 434.8 238.36"/>
        </g>
        <g>
          <path class="cls-11" d="M643.18,131.03c58.43,58.43,38.05,173.53-45.51,257.08-83.56,83.56-198.66,103.93-257.08,45.51"/>
          <polygon class="cls-11" points="432.37 222.81 441.7 332.51 547.99 338.43 539.35 234.86 432.37 222.81"/>
        </g>
        <g>
          <path class="cls-27" d="M670.76,125.28c58.36,69.56,25.04,193.61-74.44,277.08-99.48,83.47-227.43,94.75-285.79,25.2"/>
          <polygon class="cls-27" points="431.19 205.56 430.9 326.55 546.69 343.2 547.16 228.99 431.19 205.56"/>
        </g>
        <g>
          <path class="cls-25" d="M701.51,121.62c57.23,81.73,8.86,214.34-108.03,296.19-116.89,81.85-258.05,81.94-315.28.21"/>
          <polygon class="cls-25" points="431.56 186.56 419.65 318.98 544.81 348.3 556.26 223.32 431.56 186.56"/>
        </g>
        <g>
          <path class="cls-23" d="M735.52,120.56c54.82,94.96-10.82,235.49-146.63,313.9-135.8,78.41-290.34,64.99-345.16-29.97"/>
          <polygon class="cls-23" points="433.78 165.8 408.05 309.62 542.26 353.7 566.77 217.99 433.78 165.8"/>
        </g>
        <g>
          <path class="cls-10" d="M772.85,122.66c50.92,109.2-34.4,256.76-190.58,329.59-156.18,72.83-324.06,43.34-374.98-65.86"/>
          <polygon class="cls-10" points="438.19 143.28 396.26 298.26 538.96 359.38 578.79 213.15 438.19 143.28"/>
        </g>
        <g>
          <path class="cls-13" d="M813.51,128.53c45.29,124.42-62.26,277.79-240.2,342.56-177.94,64.77-358.91,16.41-404.19-108.02"/>
          <polygon class="cls-13" points="445.18 119.06 384.44 284.7 534.8 365.27 592.4 209.01 445.18 119.06"/>
        </g>
        <g>
          <path class="cls-19" d="M857.47,138.85c37.66,140.54-94.76,298.14-295.76,352-201,53.86-394.48-16.41-432.13-156.96"/>
          <polygon class="cls-19" points="455.16 93.21 372.79 268.72 529.68 371.32 607.71 205.78 455.16 93.21"/>
        </g>
        <g>
          <path class="cls-4" d="M904.6,154.36c27.77,157.46-132.29,317.3-357.49,357.01s-430.27-55.75-458.03-213.21"/>
          <polygon class="cls-4" points="468.55 65.86 361.58 250.11 523.5 377.46 624.77 203.71 468.55 65.86"/>
        </g>
        <g>
          <path class="cls-26" d="M954.7,175.86c15.31,175.04-175.21,334.69-425.54,356.59S63.48,430.21,48.17,255.17"/>
          <polygon class="cls-26" points="485.84 37.21 351.08 228.67 516.14 383.58 643.65 203.07 485.84 37.21"/>
        </g>
        <g>
          <path class="cls-17" d="M1007.5,204.19c0,193.08-223.86,349.61-500,349.61S7.5,397.27,7.5,204.19"/>
          <polygon class="cls-17" points="507.5 7.5 341.64 204.19 507.5 389.58 664.38 204.19 507.5 7.5"/>
        </g>
      </g>
      <circle class="cls-32" cx="998.5" cy="373.8" r="7.5"/>
      <circle class="cls-32" cx="920.5" cy="449.8" r="7.5"/>
      <circle class="cls-32" cx="1042.5" cy="280.8" r="7.5"/>
      <circle class="cls-32" cx="1036.5" cy="408.8" r="7.5"/>
      <circle class="cls-32" cx="954.5" cy="408.8" r="7.5"/>
      <circle class="cls-32" cx="1046.5" cy="348.8" r="7.5"/>
      <circle class="cls-32" cx="1002" cy="340.3" r="5"/>
      <circle class="cls-32" cx="994" cy="417.3" r="5"/>
      <circle class="cls-32" cx="974" cy="458.3" r="5"/>
      <circle class="cls-32" cx="1087" cy="396.3" r="5"/>
    </g>
  </g>
</svg>