<?xml version="1.0" encoding="UTF-8"?>
<svg id="Layer_2" xmlns="http://www.w3.org/2000/svg" viewBox="0 0 1086 889">
  <defs>
    <style>
      .cls-1 {
        stroke-dasharray: 0 10.21;
        stroke-width: 2.67px;
      }

      .cls-1, .cls-2, .cls-3, .cls-4, .cls-5, .cls-6, .cls-7, .cls-8, .cls-9, .cls-10, .cls-11, .cls-12, .cls-13, .cls-14, .cls-15, .cls-16, .cls-17, .cls-18, .cls-19, .cls-20, .cls-21, .cls-22, .cls-23, .cls-24, .cls-25, .cls-26, .cls-27, .cls-28, .cls-29, .cls-30, .cls-31 {
        fill: none;
        stroke: #ee472c;
        stroke-linecap: round;
        stroke-linejoin: round;
      }

      .cls-2 {
        stroke-dasharray: 0 2.48;
        stroke-width: .65px;
      }

      .cls-3 {
        stroke-dasharray: 0 7.7;
        stroke-width: 2.01px;
      }

      .cls-4 {
        stroke-dasharray: 0 2.26;
        stroke-width: .59px;
      }

      .cls-5 {
        stroke-dasharray: 0 26.23;
        stroke-width: 6.86px;
      }

      .cls-6 {
        stroke-dasharray: 0 28.82;
        stroke-width: 7.54px;
      }

      .cls-7 {
        stroke-dasharray: 0 34.81;
        stroke-width: 9.1px;
      }

      .cls-8 {
        stroke-dasharray: 0 38.25;
        stroke-width: 10px;
      }

      .cls-9 {
        stroke-dasharray: 0 12.33;
        stroke-width: 3.22px;
      }

      .cls-10 {
        stroke-dasharray: 0 3.98;
        stroke-width: 1.04px;
      }

      .cls-11 {
        stroke-dasharray: 0 3.62;
        stroke-width: .95px;
      }

      .cls-12 {
        stroke-dasharray: 0 31.67;
        stroke-width: 8.28px;
      }

      .cls-13 {
        stroke-dasharray: 0 5.28;
        stroke-width: 1.38px;
      }

      .cls-32 {
        fill: #ee472c;
      }

      .cls-14 {
        stroke-dasharray: 0 17.99;
        stroke-width: 4.7px;
      }

      .cls-15 {
        stroke-dasharray: 0 7;
        stroke-width: 1.83px;
      }

      .cls-16 {
        stroke-dasharray: 0 3;
        stroke-width: .78px;
      }

      .cls-17 {
        stroke-dasharray: 0 8.46;
        stroke-width: 2.21px;
      }

      .cls-18 {
        stroke-dasharray: 0 9.3;
        stroke-width: 2.43px;
      }

      .cls-19 {
        stroke-dasharray: 0 13.55;
        stroke-width: 3.54px;
      }

      .cls-20 {
        stroke-dasharray: 0 6.37;
        stroke-width: 1.67px;
      }

      .cls-21 {
        stroke-dasharray: 0 4.8;
        stroke-width: 1.26px;
      }

      .cls-22 {
        stroke-dasharray: 0 3.29;
        stroke-width: .86px;
      }

      .cls-23 {
        stroke-dasharray: 0 19.77;
        stroke-width: 5.17px;
      }

      .cls-24 {
        stroke-dasharray: 0 23.87;
        stroke-width: 6.24px;
      }

      .cls-25 {
        stroke-dasharray: 0 2.73;
        stroke-width: .71px;
      }

      .cls-26 {
        stroke-dasharray: 0 21.72;
        stroke-width: 5.68px;
      }

      .cls-27 {
        stroke-dasharray: 0 4.37;
        stroke-width: 1.14px;
      }

      .cls-28 {
        stroke-dasharray: 0 16.37;
        stroke-width: 4.28px;
      }

      .cls-29 {
        stroke-dasharray: 0 5.8;
        stroke-width: 1.52px;
      }

      .cls-30 {
        stroke-dasharray: 0 14.9;
        stroke-width: 3.89px;
      }

      .cls-31 {
        stroke-dasharray: 0 11.22;
        stroke-width: 2.93px;
      }
    </style>
  </defs>
  <g id="high_bad">
    <g>
      <g>
        <path class="cls-4" d="M515.29,594.11c37.77,12.46,57.47,16.86,59.11,13.2.79-1.76-2.6-5.39-10.16-10.88-8.71-5.03-17.42-10.06-26.13-15.09-7.46-4.06-10.94-6.84-10.46-8.32,1.08-3.32,21.96-.23,62.64,9.29-25,3.93-50,7.87-75,11.8Z"/>
        <path class="cls-2" d="M510.09,591.41c40.15,17.26,61.3,23.97,63.45,20.11,1.03-1.85-2.33-6.15-10.08-12.88-9.05-6.34-18.11-12.68-27.16-19.02-7.77-5.16-11.33-8.53-10.66-10.12,1.5-3.53,24.06,1.86,67.69,16.17-27.75,1.91-55.49,3.82-83.24,5.73Z"/>
        <path class="cls-25" d="M504.66,587.96c42.3,22.74,64.81,32.11,67.53,28.09,1.31-1.93-1.96-6.95-9.8-15.07-9.3-7.81-18.61-15.61-27.91-23.42-8.02-6.39-11.58-10.43-10.7-12.09,1.98-3.73,26.16,4.34,72.55,24.19-30.56-.56-61.11-1.13-91.67-1.69Z"/>
        <path class="cls-16" d="M499.04,583.66c44.13,28.95,67.88,41.36,71.24,37.22,1.61-1.99-1.48-7.8-9.29-17.43-9.44-9.44-18.88-18.88-28.31-28.31-8.16-7.77-11.68-12.52-10.55-14.26,2.52-3.89,28.22,7.25,77.11,33.43-33.4-3.55-66.79-7.09-100.19-10.64Z"/>
        <path class="cls-22" d="M493.3,578.41c45.54,35.92,70.35,51.77,74.42,47.57,1.96-2.02-.88-8.68-8.5-19.97-9.43-11.24-18.86-22.47-28.28-33.71-8.19-9.29-11.59-14.83-10.18-16.63,3.13-4.02,30.2,10.64,81.21,43.98-36.22-7.08-72.44-14.16-108.66-21.24Z"/>
        <path class="cls-11" d="M487.52,572.12c46.41,43.68,72.05,63.42,76.91,59.2,2.34-2.03-.13-9.59-7.39-22.68-9.24-13.2-18.49-26.41-27.73-39.61-8.08-10.95-11.27-17.34-9.56-19.18,3.82-4.1,32.04,14.54,84.69,55.92-38.97-11.22-77.95-22.44-116.92-33.66Z"/>
        <path class="cls-10" d="M481.8,564.68c46.63,52.26,72.8,76.32,78.53,72.17,2.75-2,.78-10.51-5.92-25.54-8.86-15.34-17.71-30.68-26.57-46.02-7.8-12.76-10.67-20.06-8.63-21.91,4.57-4.12,33.69,18.99,87.35,69.33-41.59-16.01-83.18-32.03-124.77-48.04Z"/>
        <path class="cls-27" d="M476.25,555.99c46.04,61.68,72.39,90.52,79.05,86.53,3.2-1.92,1.86-11.43-4.03-28.52-8.23-17.64-16.45-35.28-24.68-52.92-7.31-14.72-9.76-22.99-7.34-24.81,5.4-4.07,35.06,24.02,88.99,84.26-44-21.51-87.99-43.03-131.99-64.54Z"/>
        <path class="cls-21" d="M471.01,545.94c44.49,71.93,70.57,106.03,78.25,102.3,3.69-1.8,3.13-12.33-1.68-31.61-7.32-20.1-14.63-40.2-21.95-60.3-6.6-16.81-8.48-26.1-5.66-27.86,6.3-3.94,36.08,29.65,89.34,100.77-46.1-27.77-92.2-55.53-138.31-83.3Z"/>
        <path class="cls-13" d="M466.23,534.43c41.81,83.01,67.1,122.83,75.87,119.48,4.21-1.61,4.61-13.2,1.19-34.77-6.08-22.7-12.17-45.41-18.25-68.11-5.61-19.03-6.79-29.38-3.53-31.04,7.27-3.71,36.66,35.91,88.16,118.87-47.81-34.81-95.62-69.62-143.43-104.43Z"/>
        <path class="cls-29" d="M462.1,521.38c37.82,94.87,61.69,140.9,71.61,138.06,4.77-1.36,6.31-14.01,4.63-37.94-4.49-25.44-8.97-50.87-13.46-76.31-4.32-21.37-4.62-32.82-.89-34.32,8.32-3.37,36.69,42.82,85.12,138.57-49-42.69-98.01-85.37-147.01-128.06Z"/>
        <path class="cls-20" d="M458.83,506.7c32.32,107.48,54.04,160.15,65.17,158,5.35-1.03,8.25-14.73,8.7-41.1-2.47-28.27-4.95-56.55-7.42-84.82-2.68-23.81-1.91-36.37,2.31-37.66,9.43-2.89,36.06,50.39,79.91,159.85-49.56-51.42-99.11-102.85-148.67-154.27Z"/>
        <path class="cls-15" d="M456.65,490.31c25.09,120.76,43.82,180.5,56.21,179.21,5.95-.62,10.44-15.34,13.46-44.16v-93.57c-.65-26.32,1.39-39.99,6.13-41,10.59-2.26,34.65,58.62,72.17,182.65-49.33-61.04-98.65-122.08-147.98-183.12Z"/>
        <path class="cls-3" d="M455.84,472.16c15.9,134.6,30.69,201.79,44.37,201.57,6.58-.11,12.9-15.79,18.96-47.05l8.96-102.43c1.81-28.88,5.35-43.65,10.64-44.3,11.81-1.46,32.32,67.49,61.51,206.86-48.15-71.55-96.3-143.09-144.45-214.64Z"/>
        <path class="cls-17" d="M456.69,452.22c4.51,148.87,14.27,223.84,29.27,224.91,7.21.51,15.63-16.05,25.27-49.69,6.54-37.09,13.08-74.18,19.62-111.28,4.74-31.44,10.04-47.27,15.89-47.48,13.07-.46,28.92,76.98,47.53,232.34-45.86-82.94-91.72-165.87-137.58-248.81Z"/>
        <path class="cls-18" d="M459.53,430.47c-9.32,163.4-5.82,246.41,10.5,249.01,7.84,1.25,18.65-16.07,32.42-51.98,10.71-39.98,21.42-79.96,32.14-119.94,8.2-33.97,15.52-50.79,21.95-50.45,14.36.74,24.28,87.04,29.78,258.9-42.26-95.18-84.52-190.37-126.78-285.55Z"/>
        <path class="cls-1" d="M464.72,406.93c-25.85,177.99-29.97,269.19-12.35,273.61,8.47,2.12,21.96-15.81,40.47-53.79,15.56-42.74,31.11-85.48,46.67-128.22,12.23-36.4,21.85-54.11,28.86-53.13,15.64,2.19,18.25,97.61,7.8,286.28-37.15-108.25-74.29-216.49-111.44-324.74Z"/>
        <path class="cls-31" d="M472.66,381.65c-45.35,192.37-58.59,291.82-39.73,298.34,9.07,3.13,25.55-15.21,49.45-55.01,21.12-45.3,42.25-90.6,63.37-135.89,16.88-38.67,29.11-57.14,36.68-55.4,16.92,3.89,10.63,108.6-18.88,314.14-30.3-122.06-60.6-244.12-90.9-366.17Z"/>
        <path class="cls-9" d="M483.77,354.75c-68.07,206.25-92.09,313.85-72.06,322.79,9.63,4.3,29.43-14.2,59.4-55.49,27.46-47.57,54.92-95.13,82.39-142.7,22.18-40.72,37.33-59.77,45.46-57.13,18.15,5.88,1.23,119.91-50.75,342.09-21.48-136.52-42.96-273.04-64.43-409.56Z"/>
        <path class="cls-19" d="M498.51,326.36c-94.27,219.27-130.87,334.76-109.81,346.46,10.13,5.63,33.57-12.73,70.35-55.05,34.62-49.44,69.24-98.88,103.86-148.32,28.18-42.45,46.6-61.85,55.24-58.19,19.3,8.18-10.14,131.38-88.32,369.63-10.44-151.51-20.87-303.02-31.31-454.53Z"/>
        <path class="cls-30" d="M517.37,296.69c-124.2,231.01-175.33,353.93-153.39,368.76,10.55,7.13,37.97-10.71,82.28-53.53,42.63-50.81,85.27-101.62,127.9-152.42,34.92-43.78,56.93-63.25,66.04-58.41,20.35,10.8-23.68,142.86-132.09,396.18,3.09-166.86,6.17-333.72,9.26-500.58Z"/>
        <path class="cls-28" d="M540.86,266.02c-158.09,240.99-225.83,370.67-203.24,389,10.86,8.81,42.6-8.09,95.2-50.72,51.54-51.54,103.08-103.08,154.61-154.61,42.42-44.58,68.38-63.79,77.89-57.62,21.24,13.77-39.61,154.12-182.55,421.06,19.36-182.37,38.72-364.74,58.08-547.11Z"/>
        <path class="cls-14" d="M569.5,234.69c-196.14,248.68-282.73,384.14-259.74,406.38,11.05,10.69,47.41-4.78,109.08-46.41,61.36-51.48,122.71-102.97,184.07-154.45,50.71-44.74,80.97-63.28,90.79-55.62,21.93,17.11-58.12,164.93-240.16,443.46,38.66-197.79,77.32-395.58,115.98-593.37Z"/>
        <path class="cls-23" d="M603.86,203.14c-238.54,253.45-346.3,393.45-323.27,420,11.07,12.76,52.35-.69,123.85-40.36,72.1-50.48,144.2-100.97,216.29-151.45,59.79-44.12,94.7-61.52,104.72-52.19,22.37,20.83-79.42,174.98-305.38,462.46,61.26-212.82,122.53-425.64,183.79-638.46Z"/>
        <path class="cls-26" d="M644.5,171.89c-285.4,254.61-416.78,397.55-394.11,428.82,10.9,15.03,57.38,4.26,139.45-32.32,83.76-48.36,167.52-96.72,251.29-145.08,69.68-42.57,109.56-58.27,119.63-47.1,22.49,24.95-103.7,183.95-378.6,477.01,87.45-227.11,174.9-454.22,262.35-681.34Z"/>
        <path class="cls-24" d="M691.98,141.57c-336.82,251.39-494.34,395.29-472.52,431.69,10.49,17.5,62.41,10.15,155.75-22.02,96.33-44.92,192.65-89.84,288.98-134.75,80.36-39.93,125.52-53.3,135.47-40.11,22.23,29.47-131.14,191.44-460.15,485.94,117.48-240.25,234.97-480.5,352.45-720.74Z"/>
        <path class="cls-5" d="M746.85,112.93C354.05,355.88,167.84,498.32,188.24,540.26c9.81,20.16,67.34,17.09,172.62-9.19,109.75-39.95,219.51-79.89,329.26-119.84,91.8-36.02,142.51-46.33,152.15-30.93,21.52,34.39-161.9,197.01-550.28,487.89,151.62-251.75,303.25-503.5,454.87-755.26Z"/>
        <path class="cls-6" d="M809.67,86.84C356.4,315.17,138.9,453.27,157.22,501.14c8.8,23.01,72.09,25.16,189.85,6.47,123.98-33.22,247.95-66.44,371.93-99.66,103.94-30.64,160.45-37.07,169.52-19.29,20.26,39.71-196.1,200.17-649.13,481.4C429.48,608.99,619.58,347.91,809.67,86.84Z"/>
        <path class="cls-12" d="M880.94,64.28C362.86,270.83,111.54,401.18,127.01,455.33c7.43,26.03,76.5,34.45,207.21,25.27,138.9-24.49,277.8-48.98,416.7-73.48,116.72-23.58,179.2-25.21,187.43-4.88,18.38,45.41-233.85,200.35-756.72,464.83C414.73,599.48,647.84,331.88,880.94,64.28Z"/>
        <path class="cls-7" d="M961.12,46.42C374.19,222.91,86.58,341.54,98.32,402.3c5.65,29.2,80.45,45.04,224.42,47.51,154.4-13.51,308.8-27.02,463.21-40.53,130.03-14.64,198.59-10.44,205.65,12.61,15.77,51.47-275.19,196.93-872.91,436.38C399.49,587.66,680.31,317.04,961.12,46.42Z"/>
        <path class="cls-8" d="M1050.61,34.54C391.18,171.54,64.96,273.86,72,341.5c3.38,32.51,83.76,57.01,241.12,73.5h510.96c143.75-3.57,218.39,7.6,223.92,33.5,12.34,57.85-320.11,189.22-997.39,394.11C383.94,573.26,717.28,303.9,1050.61,34.54Z"/>
      </g>
      <circle class="cls-32" cx="769" cy="71" r="5"/>
      <circle class="cls-32" cx="828" cy="5" r="5"/>
      <circle class="cls-32" cx="814" cy="61" r="5"/>
      <circle class="cls-32" cx="856" cy="41" r="5"/>
      <circle class="cls-32" cx="992" cy="19" r="5"/>
      <circle class="cls-32" cx="1039" cy="87" r="5"/>
      <circle class="cls-32" cx="985" cy="143" r="5"/>
      <circle class="cls-32" cx="1034" cy="133" r="5"/>
      <circle class="cls-32" cx="1081" cy="76" r="5"/>
      <circle class="cls-32" cx="793" cy="36" r="5"/>
      <circle class="cls-32" cx="81" cy="875" r="5"/>
      <circle class="cls-32" cx="86" cy="779" r="5"/>
      <circle class="cls-32" cx="96" cy="729" r="5"/>
      <circle class="cls-32" cx="31" cy="875" r="5"/>
      <circle class="cls-32" cx="1004.5" cy="113.5" r="3.5"/>
      <circle class="cls-32" cx="1079.5" cy="120.5" r="3.5"/>
      <circle class="cls-32" cx="1047.5" cy="69.5" r="3.5"/>
      <circle class="cls-32" cx="1058.5" cy="106.5" r="3.5"/>
      <circle class="cls-32" cx="822.5" cy="35.5" r="3.5"/>
      <circle class="cls-32" cx="789.5" cy="3.5" r="3.5"/>
      <circle class="cls-32" cx="864.5" cy="17.5" r="3.5"/>
      <circle class="cls-32" cx="113.5" cy="885.5" r="3.5"/>
      <circle class="cls-32" cx="106.5" cy="761.5" r="3.5"/>
      <circle class="cls-32" cx="44.5" cy="808.5" r="3.5"/>
      <circle class="cls-32" cx="3.5" cy="845.5" r="3.5"/>
    </g>
  </g>
</svg>