<?xml version="1.0" encoding="UTF-8"?>
<svg id="Layer_2" xmlns="http://www.w3.org/2000/svg" viewBox="0 0 1093 515.65">
  <defs>
    <style>
      .cls-1 {
        stroke-dasharray: 0 4.31;
        stroke-width: 1.29px;
      }

      .cls-1, .cls-2, .cls-3, .cls-4, .cls-5, .cls-6, .cls-7, .cls-8, .cls-9, .cls-10, .cls-11, .cls-12, .cls-13, .cls-14, .cls-15, .cls-16, .cls-17, .cls-18, .cls-19, .cls-20, .cls-21, .cls-22, .cls-23, .cls-24, .cls-25, .cls-26, .cls-27, .cls-28, .cls-29, .cls-30, .cls-31 {
        fill: none;
        stroke: #87b4db;
        stroke-linecap: round;
        stroke-linejoin: round;
      }

      .cls-2 {
        stroke-dasharray: 0 13.35;
        stroke-width: 4.01px;
      }

      .cls-3 {
        stroke-dasharray: 0 5.2;
        stroke-width: 1.56px;
      }

      .cls-4 {
        stroke-dasharray: 0 41.4;
        stroke-width: 12.42px;
      }

      .cls-5 {
        stroke-dasharray: 0 6.9;
        stroke-width: 2.07px;
      }

      .cls-6 {
        stroke-dasharray: 0 6.28;
        stroke-width: 1.88px;
      }

      .cls-7 {
        stroke-dasharray: 0 7.58;
        stroke-width: 2.27px;
      }

      .cls-8 {
        stroke-dasharray: 0 3.92;
        stroke-width: 1.18px;
      }

      .cls-9 {
        stroke-dasharray: 0 19.47;
        stroke-width: 5.84px;
      }

      .cls-10 {
        stroke-dasharray: 0 31.2;
        stroke-width: 9.36px;
      }

      .cls-11 {
        stroke-dasharray: 0 21.4;
        stroke-width: 6.42px;
      }

      .cls-12 {
        stroke-dasharray: 0 17.72;
        stroke-width: 5.32px;
      }

      .cls-13 {
        stroke-dasharray: 0 34.29;
        stroke-width: 10.29px;
      }

      .cls-14 {
        stroke-dasharray: 0 4.73;
        stroke-width: 1.42px;
      }

      .cls-15 {
        stroke-dasharray: 0 14.67;
        stroke-width: 4.4px;
      }

      .cls-16 {
        stroke-dasharray: 0 3.57;
        stroke-width: 1.07px;
      }

      .cls-17 {
        stroke-dasharray: 0 50;
        stroke-width: 15px;
      }

      .cls-18 {
        stroke-dasharray: 0 3.24;
        stroke-width: .97px;
      }

      .cls-19 {
        stroke-dasharray: 0 37.68;
        stroke-width: 11.3px;
      }

      .cls-20 {
        stroke-dasharray: 0 8.33;
        stroke-width: 2.5px;
      }

      .cls-21 {
        stroke-dasharray: 0 16.12;
        stroke-width: 4.84px;
      }

      .cls-22 {
        stroke-dasharray: 0 10.06;
        stroke-width: 3.02px;
      }

      .cls-23 {
        stroke-dasharray: 0 28.39;
        stroke-width: 8.52px;
      }

      .cls-24 {
        stroke-dasharray: 0 11.06;
        stroke-width: 3.32px;
      }

      .cls-25 {
        stroke-dasharray: 0 25.84;
        stroke-width: 7.75px;
      }

      .cls-26 {
        stroke-dasharray: 0 45.5;
        stroke-width: 13.65px;
      }

      .cls-27 {
        stroke-dasharray: 0 23.51;
        stroke-width: 7.05px;
      }

      .cls-28 {
        stroke-dasharray: 0 9.16;
        stroke-width: 2.75px;
      }

      .cls-29 {
        stroke-dasharray: 0 5.71;
        stroke-width: 1.71px;
      }

      .cls-30 {
        stroke-dasharray: 0 12.15;
        stroke-width: 3.65px;
      }

      .cls-31 {
        stroke-dasharray: 0 2.95;
        stroke-width: .89px;
      }

      .cls-32 {
        fill: #87b4db;
      }
    </style>
  </defs>
  <g id="low_bad">
    <g>
      <g>
        <path class="cls-31" d="M546.26,228.3c-1.47,1.1-14.76,11.44-14.76,29.53,0,1.84.3,18.68,14.76,29.53-3.69-.96-8.69-1.88-14.65-1.89-6.06-.01-11.15.92-14.88,1.89,0-19.68,0-39.37,0-59.05,4,.77,8.93,1.4,14.59,1.42,5.81.01,10.87-.63,14.94-1.42Z"/>
        <path class="cls-18" d="M549.4,226.27c-1.68,1.13-16.86,11.71-17.9,31.55-.11,2.02-.75,20.51,14.5,33.25-4-1.27-9.43-2.56-15.96-2.92-6.65-.36-12.29.37-16.44,1.22,1.13-21.6,2.26-43.2,3.4-64.8,4.34,1.08,9.72,2.05,15.93,2.39,6.38.35,11.96-.06,16.48-.7Z"/>
        <path class="cls-16" d="M552.96,224.23c-1.91,1.14-19.17,11.88-21.46,33.6-.23,2.21-2,22.47,14,37.32-4.31-1.62-10.2-3.35-17.35-4.12-7.28-.78-13.51-.3-18.11.39,2.48-23.64,4.97-47.28,7.45-70.92,4.7,1.43,10.55,2.81,17.34,3.54,6.98.75,13.13.62,18.12.18Z"/>
        <path class="cls-8" d="M556.98,222.19c-2.16,1.14-21.73,11.93-25.48,35.63-.38,2.41-3.49,24.54,13.22,41.76-4.64-2.03-11-4.27-18.8-5.52-7.94-1.27-14.8-1.11-19.9-.61,4.09-25.8,8.17-51.6,12.26-77.4,5.08,1.84,11.41,3.69,18.82,4.89,7.61,1.22,14.38,1.43,19.88,1.24Z"/>
        <path class="cls-1" d="M561.51,220.19c-2.43,1.13-24.53,11.84-30.01,37.64-.56,2.62-5.24,26.73,12.11,46.59-4.97-2.49-11.83-5.31-20.32-7.14-8.64-1.86-16.18-2.07-21.8-1.82,5.97-28.08,11.94-56.16,17.9-84.23,5.46,2.32,12.31,4.71,20.38,6.44,8.29,1.78,15.69,2.4,21.74,2.51Z"/>
        <path class="cls-14" d="M566.6,218.25c-2.73,1.1-27.6,11.59-35.1,39.58-.76,2.85-7.29,29.03,10.61,51.83-5.32-3.02-12.68-6.51-21.89-9-9.38-2.53-17.64-3.2-23.82-3.25,8.16-30.47,16.33-60.94,24.49-91.41,5.86,2.86,13.24,5.88,21.99,8.24,8.99,2.43,17.08,3.54,23.71,4Z"/>
        <path class="cls-3" d="M572.29,216.41c-3.06,1.05-30.95,11.13-40.79,41.42-1,3.08-9.67,31.44,8.66,57.48-5.66-3.62-13.54-7.88-23.5-11.13-10.15-3.32-19.17-4.53-25.95-4.93,10.71-32.97,21.42-65.93,32.13-98.9,6.27,3.47,14.19,7.21,23.66,10.31,9.73,3.18,18.54,4.86,25.79,5.76Z"/>
        <path class="cls-29" d="M578.65,214.72c-3.42.97-34.61,10.43-47.15,43.1-1.27,3.32-12.42,33.94,6.19,63.58-6-4.3-14.4-9.42-25.15-13.57-10.94-4.23-20.78-6.07-28.2-6.91,13.65-35.56,27.3-71.12,40.95-106.69,6.68,4.17,15.16,8.73,25.37,12.68,10.49,4.05,20.07,6.4,27.97,7.8Z"/>
        <path class="cls-6" d="M585.72,213.24c-3.81.87-38.58,9.46-54.22,44.59-1.59,3.57-15.58,36.54,3.14,70.13-6.34-5.06-15.26-11.17-26.82-16.34-11.77-5.27-22.45-7.86-30.54-9.2,17.03-38.24,34.05-76.48,51.08-114.72,7.09,4.96,16.13,10.45,27.11,15.37,11.28,5.05,21.66,8.18,30.25,10.17Z"/>
        <path class="cls-5" d="M593.56,212.01c-4.23.74-42.88,8.16-62.06,45.82-1.95,3.83-19.2,39.2-.59,77.14-6.67-5.92-16.11-13.13-28.49-19.47-12.61-6.46-24.19-9.92-32.99-11.85,20.88-40.99,41.77-81.97,62.65-122.96,7.5,5.85,17.1,12.4,28.87,18.43,12.09,6.19,23.3,10.22,32.61,12.9Z"/>
        <path class="cls-7" d="M602.24,211.12c-4.69.56-47.52,6.49-70.74,46.71-2.36,4.09-23.32,41.91-5.08,84.62-6.98-6.88-16.92-15.34-30.14-23.01-13.47-7.81-25.97-12.27-35.52-14.9,25.27-43.78,50.55-87.55,75.82-131.33,7.89,6.85,18.05,14.59,30.62,21.88,12.91,7.49,24.98,12.56,35.05,16.03Z"/>
        <path class="cls-20" d="M611.82,210.64c-5.18.35-52.52,4.39-80.32,47.19-2.83,4.35-28,44.65-10.44,92.57-7.26-7.95-17.69-17.8-31.76-26.98-14.33-9.35-27.8-14.96-38.12-18.4,30.25-46.59,60.51-93.17,90.76-139.76,8.27,7.97,18.97,17.05,32.34,25.77,13.73,8.96,26.69,15.22,37.54,19.61Z"/>
        <path class="cls-28" d="M622.36,210.66c-5.7.09-57.89,1.79-90.86,47.17-3.35,4.61-33.3,47.39-16.78,100.98-7.51-9.14-18.39-20.56-33.3-31.43-15.19-11.08-29.64-18.02-40.78-22.38,35.88-49.38,71.76-98.77,107.64-148.15,8.61,9.23,19.84,19.8,34.01,30.14,14.56,10.63,28.41,18.23,40.07,23.68Z"/>
        <path class="cls-22" d="M633.92,211.29c-6.26-.23-63.63-1.36-102.42,46.53-3.94,4.87-39.27,50.09-24.22,109.85-7.72-10.46-18.99-23.61-34.73-36.41-16.03-13.03-31.5-21.48-43.46-26.91,42.21-52.13,84.43-104.26,126.64-156.39,8.92,10.62,20.63,22.87,35.59,35.03,15.36,12.5,30.13,21.64,42.61,28.29Z"/>
        <path class="cls-24" d="M646.57,212.65c-6.86-.62-69.75-5.15-115.07,45.18-4.61,5.12-45.97,52.71-32.9,119.16-7.87-11.92-19.49-27.01-36.02-41.96-16.84-15.23-33.33-25.38-46.15-32.03,49.32-54.78,98.65-109.56,147.97-164.34,9.18,12.17,21.33,26.28,37.04,40.49,16.14,14.6,31.82,25.49,45.13,33.49Z"/>
        <path class="cls-30" d="M660.37,214.87c-7.49-1.07-76.25-9.67-128.87,42.96-5.35,5.35-53.48,55.2-42.96,128.87-7.95-13.54-19.83-30.76-37.12-48.11-17.61-17.68-35.11-29.77-48.8-37.8,57.28-57.28,114.56-114.56,171.83-171.83,9.37,13.88,21.9,30.07,38.32,46.57,16.87,16.95,33.45,29.8,47.6,39.35Z"/>
        <path class="cls-2" d="M675.4,218.1c-8.16-1.6-83.12-14.99-143.9,39.73-6.18,5.56-61.87,57.5-54.55,138.96-7.94-15.31-19.99-34.89-37.96-54.93-18.3-20.41-36.82-34.69-51.38-44.29,66.15-59.56,132.3-119.12,198.45-178.69,9.49,15.77,22.3,34.26,39.37,53.31,17.54,19.57,35,34.62,49.97,45.92Z"/>
        <path class="cls-15" d="M691.7,222.5c-8.86-2.23-90.35-21.23-160.2,35.32-7.1,5.75-71.2,59.54-67.86,149.35-7.83-17.26-19.93-39.44-38.5-62.47-18.91-23.45-38.41-40.18-53.84-51.56,76.02-61.56,152.04-123.12,228.06-184.68,9.51,17.85,22.5,38.87,40.14,60.76,18.12,22.49,36.42,40.01,52.2,53.27Z"/>
        <path class="cls-21" d="M709.33,228.27c-9.59-2.96-97.93-28.5-177.83,29.55-8.12,5.9-81.56,61.25-83.06,160-7.6-19.39-19.61-44.43-38.66-70.77-19.41-26.82-39.84-46.31-56.11-59.68,86.96-63.18,173.93-126.36,260.89-189.55,9.4,20.14,22.46,43.95,40.56,68.99,18.6,25.72,37.66,46,54.22,61.46Z"/>
        <path class="cls-12" d="M728.35,235.62c-10.36-3.8-105.83-36.91-196.85,22.2-9.25,6.01-93.02,62.52-100.35,170.8-7.23-21.72-18.96-49.88-38.35-79.88-19.75-30.55-41.06-53.11-58.15-68.72,99.07-64.33,198.13-128.67,297.2-193,9.16,22.64,22.11,49.53,40.54,78.04,18.93,29.29,38.68,52.65,55.96,70.56Z"/>
        <path class="cls-9" d="M748.8,244.78c-11.15-4.76-114.02-46.59-217.3,13.04-10.5,6.06-105.68,63.26-119.95,181.67-6.68-24.25-17.94-55.83-37.5-89.87-19.92-34.66-42.01-60.64-59.86-78.75,112.41-64.9,224.83-129.81,337.24-194.71,8.75,25.37,21.42,55.62,40,87.97,19.09,33.23,39.42,60,57.36,80.65Z"/>
        <path class="cls-11" d="M770.71,256.01c-11.96-5.87-122.44-57.68-239.21,1.82-11.87,6.05-119.61,63.35-142.08,192.46-5.94-27-16.47-62.3-35.98-100.78-19.87-39.19-42.61-68.97-61.16-89.87,127.1-64.76,254.19-129.52,381.29-194.28,8.15,28.35,20.31,62.27,38.84,98.84,19.03,37.57,39.81,68.11,58.3,91.8Z"/>
        <path class="cls-27" d="M794.12,269.59c-12.79-7.13-131.05-70.34-262.62-11.76-13.37,5.95-134.9,62.64-166.98,203.03-4.97-29.97-14.5-69.32-33.69-112.66-19.55-44.15-42.79-78.13-61.95-102.14,143.2-63.76,286.4-127.51,429.6-191.27,7.31,31.58,18.7,69.51,36.93,110.7,18.73,42.32,39.77,77.03,58.7,104.1Z"/>
        <path class="cls-25" d="M819.02,285.84c-13.62-8.56-139.77-84.73-287.52-28.01-15.02,5.77-151.65,60.98-194.92,213.2-3.73-33.17-11.92-76.9-30.49-125.57-18.91-49.57-42.47-88.2-62.11-115.65,160.81-61.73,321.63-123.46,482.44-185.19,6.2,35.07,16.53,77.35,34.16,123.61,18.12,47.52,39.22,86.82,58.43,117.61Z"/>
        <path class="cls-23" d="M845.41,305.1c-14.46-10.17-148.51-101.02-313.91-47.28-16.81,5.46-169.92,58.2-226.17,222.76-2.18-36.62-8.66-85.08-26.24-139.55-17.9-55.49-41.53-99.24-61.5-130.48,180.03-58.49,360.05-116.99,540.08-175.48,4.79,38.84,13.69,85.83,30.38,137.61,17.15,53.19,38.04,97.54,57.36,132.43Z"/>
        <path class="cls-10" d="M873.26,327.76c-15.28-12-157.16-119.4-341.76-69.94-18.77,5.03-189.82,54.09-261.01,231.45-.29-40.31-4.61-93.86-20.77-154.66-16.46-61.92-39.87-111.29-59.99-146.73,200.92-53.84,401.85-107.67,602.77-161.51,3.02,42.9,10.09,94.98,25.43,152.76,15.76,59.36,36.14,109.22,55.33,148.62Z"/>
        <path class="cls-13" d="M902.53,354.23c-16.08-14.04-165.6-140.07-371.03-96.4-20.88,4.44-211.42,48.44-299.74,238.98,2-44.25.34-103.27-13.89-170.91-14.5-68.9-37.35-124.42-57.39-164.47,223.59-47.53,447.18-95.05,670.76-142.58.85,47.25,5.61,104.81,19.12,169.1,13.88,66.05,33.38,121.94,52.17,166.28Z"/>
        <path class="cls-19" d="M933.12,384.96c-16.84-16.34-173.68-163.23-401.62-127.13-23.17,3.67-234.79,41-342.68,245.02,4.74-48.44,6.31-113.31-5.42-188.36-11.95-76.44-33.83-138.69-53.52-183.79C377.98,91.4,626.08,52.11,874.18,12.81c-1.78,51.91.12,115.34,11.25,186.67,11.43,73.28,29.62,135.73,47.69,185.48Z"/>
        <path class="cls-4" d="M964.92,420.44c-17.54-18.89-181.21-189.12-433.42-162.61-25.64,2.69-260.02,31.49-390.14,249.17,7.99-52.89,13.45-123.98,4.89-207.01-8.72-84.57-29.15-154.14-48.17-204.77C372.6,66.36,647.12,37.51,921.64,8.66c-4.94,56.86-6.5,126.58,1.61,205.5,8.33,81.07,24.69,150.66,41.67,206.28Z"/>
        <path class="cls-26" d="M997.78,461.2c-18.16-21.74-187.98-217.96-466.28-203.38-28.29,1.48-287.15,19.61-442.47,251,11.81-57.58,21.88-135.28,17.27-226.89-4.7-93.31-23.13-170.83-41.08-227.48C368.13,38.58,671.05,22.7,973.97,6.82c-8.69,62.11-14.41,138.54-10.05,225.6,4.48,89.45,18.43,166.75,33.86,228.77Z"/>
        <path class="cls-17" d="M1031.5,507.83c-18.68-24.91-193.75-250-500-250-31.13,0-316.25,5-500,250,16.27-62.51,31.8-147.2,32-248,.21-102.67-15.55-188.8-32-252h1000c-13.11,67.66-23.78,151.2-24,247-.22,98.42,10.64,184.05,24,253Z"/>
      </g>
      <circle class="cls-32" cx="1052.5" cy="154.83" r="7.5"/>
      <circle class="cls-32" cx="1036.5" cy="253.83" r="7.5"/>
      <circle class="cls-32" cx="7.5" cy="403.83" r="7.5"/>
      <circle class="cls-32" cx="1048.5" cy="313.83" r="7.5"/>
      <circle class="cls-32" cx="1085.5" cy="336.83" r="7.5"/>
      <circle class="cls-32" cx="1050.5" cy="374.83" r="7.5"/>
      <circle class="cls-32" cx="1042" cy="169.33" r="5"/>
      <circle class="cls-32" cx="28" cy="433.33" r="5"/>
      <circle class="cls-32" cx="12" cy="482.33" r="5"/>
      <circle class="cls-32" cx="1054" cy="471.33" r="3.5"/>
      <circle class="cls-32" cx="1042" cy="422.33" r="3.5"/>
      <circle class="cls-32" cx="14" cy="361.33" r="5"/>
      <circle class="cls-32" cx="1031" cy="224.33" r="5"/>
      <circle class="cls-32" cx="1075" cy="202.33" r="5"/>
      <circle class="cls-32" cx="1045" cy="205.33" r="5"/>
    </g>
  </g>
</svg>