<?xml version="1.0" encoding="UTF-8"?>
<svg id="Layer_2" xmlns="http://www.w3.org/2000/svg" viewBox="0 0 1062.78 1059.56">
  <defs>
    <style>
      .cls-1 {
        stroke-dasharray: 0 9.47;
        stroke-width: 3.65px;
      }

      .cls-1, .cls-2, .cls-3, .cls-4, .cls-5, .cls-6, .cls-7, .cls-8, .cls-9, .cls-10, .cls-11, .cls-12, .cls-13, .cls-14, .cls-15, .cls-16, .cls-17, .cls-18, .cls-19, .cls-20, .cls-21, .cls-22, .cls-23, .cls-24, .cls-25, .cls-26, .cls-27, .cls-28, .cls-29, .cls-30, .cls-31 {
        fill: none;
        stroke: #ee472c;
        stroke-linecap: round;
        stroke-linejoin: round;
      }

      .cls-2 {
        stroke-dasharray: 0 6.5;
        stroke-width: 2.5px;
      }

      .cls-3 {
        stroke-dasharray: 0 16.68;
        stroke-width: 6.42px;
      }

      .cls-4 {
        stroke-dasharray: 0 12.57;
        stroke-width: 4.84px;
      }

      .cls-5 {
        stroke-dasharray: 0 8.62;
        stroke-width: 3.32px;
      }

      .cls-6 {
        stroke-dasharray: 0 7.14;
        stroke-width: 2.75px;
      }

      .cls-7 {
        stroke-dasharray: 0 26.73;
        stroke-width: 10.29px;
      }

      .cls-8 {
        stroke-dasharray: 0 20.14;
        stroke-width: 7.75px;
      }

      .cls-32 {
        fill: #ee472c;
      }

      .cls-9 {
        stroke-dasharray: 0 15.18;
        stroke-width: 5.84px;
      }

      .cls-10 {
        stroke-dasharray: 0 32.28;
        stroke-width: 12.42px;
      }

      .cls-11 {
        stroke-dasharray: 0 4.45;
        stroke-width: 1.71px;
      }

      .cls-12 {
        stroke-dasharray: 0 7.84;
        stroke-width: 3.02px;
      }

      .cls-13 {
        stroke-dasharray: 0 10.41;
        stroke-width: 4.01px;
      }

      .cls-14 {
        stroke-dasharray: 0 18.33;
        stroke-width: 7.05px;
      }

      .cls-15 {
        stroke-dasharray: 0 5.91;
        stroke-width: 2.27px;
      }

      .cls-16 {
        stroke-dasharray: 0 2.78;
        stroke-width: 1.07px;
      }

      .cls-17 {
        stroke-dasharray: 0 2.53;
        stroke-width: .97px;
      }

      .cls-18 {
        stroke-dasharray: 0 24.33;
        stroke-width: 9.36px;
      }

      .cls-19 {
        stroke-dasharray: 0 13.81;
        stroke-width: 5.32px;
      }

      .cls-20 {
        stroke-dasharray: 0 35.47;
        stroke-width: 13.65px;
      }

      .cls-21 {
        stroke-dasharray: 0 11.44;
        stroke-width: 4.4px;
      }

      .cls-22 {
        stroke-dasharray: 0 5.38;
        stroke-width: 2.07px;
      }

      .cls-23 {
        stroke-dasharray: 0 29.38;
        stroke-width: 11.3px;
      }

      .cls-24 {
        stroke-dasharray: 0 3.05;
        stroke-width: 1.18px;
      }

      .cls-25 {
        stroke-dasharray: 0 22.14;
        stroke-width: 8.52px;
      }

      .cls-26 {
        stroke-dasharray: 0 3.36;
        stroke-width: 1.29px;
      }

      .cls-27 {
        stroke-dasharray: 0 38.98;
        stroke-width: 15px;
      }

      .cls-28 {
        stroke-dasharray: 0 4.05;
        stroke-width: 1.56px;
      }

      .cls-29 {
        stroke-dasharray: 0 2.3;
        stroke-width: .89px;
      }

      .cls-30 {
        stroke-dasharray: 0 3.69;
        stroke-width: 1.42px;
      }

      .cls-31 {
        stroke-dasharray: 0 4.9;
        stroke-width: 1.88px;
      }
    </style>
  </defs>
  <g id="high_bad">
    <g>
      <g>
        <path class="cls-29" d="M305.53,709.03l61.68,11.27c-4.42-4.52-10.38-11.74-14.91-21.92-6.96-15.65-6.79-29.87-6.17-37.14-.02,3.81-.56,19.02-12.36,32.23-10.8,12.08-24.21,14.87-28.23,15.56Z"/>
        <path class="cls-17" d="M298.85,705.07l66.45,18.24c-4.41-5.37-10.24-13.84-14.23-25.42-6.12-17.8-4.57-33.35-3.2-41.25-.39,4.17-2.44,20.77-16.62,34.1-12.97,12.19-27.92,13.97-32.4,14.33Z"/>
        <path class="cls-16" d="M291.91,700.1l71,26.33c-4.31-6.3-9.89-16.13-13.14-29.19-5-20.07-1.81-36.95.45-45.46-.83,4.52-4.66,22.5-21.46,35.74-15.37,12.11-31.91,12.61-36.84,12.58Z"/>
        <path class="cls-24" d="M284.79,694l75.2,35.63c-4.11-7.31-9.28-18.61-11.59-33.21-3.55-22.45,1.56-40.62,4.84-49.72-1.34,4.87-7.25,24.18-26.92,37.07-17.99,11.78-36.14,10.75-41.53,10.25Z"/>
        <path class="cls-26" d="M277.58,686.63l78.91,46.2c-3.8-8.4-8.38-21.26-9.51-37.47-1.74-24.92,5.6-44.32,10.06-53.97-1.93,5.2-10.26,25.78-33.02,38-20.82,11.17-40.59,8.31-46.45,7.24Z"/>
        <path class="cls-30" d="M270.39,677.88l81.96,58.14c-3.36-9.56-7.13-24.08-6.82-41.93.48-27.45,10.37-47.98,16.19-58.12-2.61,5.51-13.7,27.24-39.79,38.43-23.86,10.24-45.23,5.21-51.54,3.48Z"/>
        <path class="cls-28" d="M263.36,667.61l84.15,71.49c-2.76-10.78-5.5-27.04-3.45-46.55,3.16-30,15.95-51.53,23.29-62.07-3.39,5.78-17.6,28.51-47.23,38.26-27.1,8.92-50.01,1.37-56.76-1.13Z"/>
        <path class="cls-11" d="M256.65,655.69l85.28,86.32c-1.99-12.07-3.43-30.13.68-51.29,6.33-32.54,22.4-54.88,31.44-65.72-4.26,6.01-22,29.52-55.37,37.37-30.52,7.17-54.88-3.29-62.02-6.68Z"/>
        <path class="cls-31" d="M250.44,642l85.09,102.67c-1.02-13.4-.87-33.31,5.66-56.09,10.05-35.01,29.78-57.93,40.71-68.93-5.24,6.17-26.91,30.21-64.2,35.6-34.1,4.93-59.76-8.86-67.26-13.25Z"/>
        <path class="cls-22" d="M244.96,626.42l83.31,120.54c.16-14.77,2.23-36.55,11.57-60.86,14.35-37.37,38.15-60.57,51.17-71.57-6.33,6.25-32.35,30.5-73.69,32.82-37.8,2.13-64.58-15.42-72.36-20.94Z"/>
        <path class="cls-15" d="M240.45,608.84l79.66,139.94c1.59-16.15,5.95-39.8,18.49-65.51,19.29-39.53,47.56-62.65,62.87-73.44-7.53,6.24-38.34,30.29-83.81,28.88-41.59-1.29-69.22-23.06-77.21-29.86Z"/>
        <path class="cls-2" d="M237.2,589.16l73.8,160.82c3.29-17.53,10.32-43,26.52-69.95,24.9-41.43,58.07-64.03,75.86-74.38-8.84,6.11-44.87,29.48-94.52,23.58-45.4-5.4-73.56-31.88-81.66-40.08Z"/>
        <path class="cls-6" d="M235.52,567.31l65.39,183.12c5.28-18.88,15.42-46.08,35.73-74.03,31.23-42.97,69.7-64.54,90.16-74.16-10.26,5.84-51.95,27.98-105.73,16.77-49.19-10.26-77.48-41.94-85.56-51.7Z"/>
        <path class="cls-12" d="M235.78,543.22l54.04,206.73c7.59-20.16,21.29-48.97,46.21-77.62,38.3-44.05,82.48-63.97,105.81-72.55-11.79,5.41-59.55,25.65-117.35,8.23-52.87-15.94-80.8-53.34-88.71-64.79Z"/>
        <path class="cls-5" d="M238.37,516.88l39.36,231.49c10.24-21.34,28-51.57,58.02-80.55,46.15-44.55,96.42-62.13,122.78-69.29-13.43,4.79-67.64,22.38-129.25-2.23-56.35-22.51-83.34-66.13-90.91-79.42Z"/>
        <path class="cls-1" d="M243.72,488.29l20.92,257.19c13.25-22.38,35.59-53.78,71.23-82.62,54.79-44.35,111.5-58.79,141.04-64.09-15.16,3.96-76.19,18.02-141.28-14.82-59.53-30.04-84.91-80.37-91.91-95.65Z"/>
        <path class="cls-13" d="M252.32,457.51l-1.73,283.55c16.65-23.23,44.11-55.46,85.89-83.63,64.23-43.3,127.7-53.67,160.54-56.65-16.97,2.88-85.14,12.43-153.24-29.76-62.29-38.59-85.25-96.12-91.46-113.52Z"/>
        <path class="cls-21" d="M264.69,424.63l-29.05,310.24c20.45-23.84,53.6-56.49,102.03-83.32,74.46-41.25,144.93-46.53,181.17-46.64-18.86,1.53-94.39,5.45-164.91-47.25-64.49-48.21-84.12-113.39-89.25-133.03Z"/>
        <path class="cls-4" d="M281.37,389.83l-61.52,336.85c24.68-24.14,64.09-56.71,119.67-81.44,85.46-38.03,163.12-37.05,202.8-33.71-20.79-.13-103.85-3.07-176-67.52-65.99-58.95-81.23-132.18-84.96-154.18Z"/>
        <path class="cls-19" d="M302.97,353.33l-99.6,362.86c29.32-24.06,75.59-55.94,138.81-77.69,97.2-33.45,182.12-24.94,225.24-17.48-22.75-2.14-113.4-13.31-186.2-90.77-66.59-70.85-76.26-152.48-78.24-176.92Z"/>
        <path class="cls-9" d="M330.11,315.43l-143.79,387.69c34.41-23.53,88.11-54,159.4-71.76,109.61-27.31,201.75-9.86,248.25,2.44-24.7-4.52-122.86-25.43-195.15-117.21-66.11-83.94-68.88-174.23-68.71-201.17Z"/>
        <path class="cls-3" d="M363.45,276.55l-194.54,410.64c39.92-22.46,101.62-50.68,181.37-63.29,122.61-19.39,221.81,8.53,271.53,26.45-26.6-7.31-132.07-39.6-202.4-147-64.33-98.22-58.72-197.33-55.95-226.8Z"/>
        <path class="cls-14" d="M403.67,237.18l-252.3,430.9c45.85-20.77,116.1-45.74,204.61-51.91,136.08-9.49,242,30.58,294.71,54.96-28.42-10.55-140.78-56-207.5-180.31-61.02-113.69-45.38-221.65-39.53-253.64Z"/>
        <path class="cls-8" d="M451.48,197.93l-317.47,447.55c52.18-18.34,131.48-38.96,228.96-37.23,149.88,2.65,262,56.65,317.36,88.39-30.1-14.27-148.75-74.79-209.88-217.26-55.91-130.3-28.45-246.99-18.98-281.45Z"/>
        <path class="cls-25" d="M507.56,159.54L117.16,619.08c58.88-15.08,147.66-30.05,254.22-18.83,163.82,17.25,281.39,87.11,338.96,127.16-31.59-18.51-155.68-96.12-208.95-257.94-48.73-148-7.49-273.11,6.18-309.93Z"/>
        <path class="cls-18" d="M572.64,122.89L101.25,588.57c65.9-10.87,164.53-18.76,280.1,3.73,177.68,34.58,299.69,122.31,358.89,171.67-32.81-23.29-161.22-120.14-204.04-302.38-39.17-166.69,17.96-299.69,36.45-338.69Z"/>
        <path class="cls-7" d="M647.4,89L86.75,553.63c73.19-5.59,181.91-4.78,306.27,30.91,191.2,54.87,316.37,162.6,376.44,222.3-33.68-28.64-164.98-146.96-194.41-350.57-26.91-186.22,48.36-326.36,72.34-367.28Z"/>
        <path class="cls-23" d="M732.48,59.05L74.23,514.01c80.66.89,199.6,12.19,332.32,63.17,204.06,78.38,330.76,208.31,390.8,279.41-34.13-34.57-166.53-176.68-179.25-402.39-11.63-206.44,84.2-352.64,114.37-395.14Z"/>
        <path class="cls-10" d="M828.49,34.43L64.31,469.43c88.21,8.7,217.33,32.47,357.75,100.99,215.88,105.34,342.14,259.71,401.06,343.31-34.05-41.12-165.39-209.36-157.69-457.68,7.04-227.11,125.95-377.98,163.05-421.62Z"/>
        <path class="cls-20" d="M935.94,16.66L57.73,419.67c95.73,17.97,234.81,56.36,381.96,144.82,226.24,136,349.67,317.08,406.17,414.23-33.34-48.27-161-245.03-128.79-516.13,29.46-247.95,174.08-401.71,218.87-445.94Z"/>
        <path class="cls-27" d="M1055.28,7.5L55.28,364.58c103.08,28.84,251.65,84.18,404.27,195.12,234.64,170.55,352.42,380.61,404.96,492.37-31.88-56.04-152.78-283.66-91.55-577.35C828.97,206.1,1002.02,51.62,1055.28,7.5Z"/>
      </g>
      <circle class="cls-32" cx="799.5" cy="822.15" r="7.5"/>
      <circle class="cls-32" cx="802.5" cy="788.15" r="7.5"/>
      <circle class="cls-32" cx="823.5" cy="812.15" r="7.5"/>
      <circle class="cls-32" cx="845.5" cy="934.15" r="7.5"/>
      <circle class="cls-32" cx="826.5" cy="1033.15" r="7.5"/>
      <circle class="cls-32" cx="1025.5" cy="63.15" r="7.5"/>
      <circle class="cls-32" cx="939.5" cy="76.15" r="5"/>
      <circle class="cls-32" cx="331.5" cy="239.15" r="7.5"/>
      <circle class="cls-32" cx="350.5" cy="239.15" r="5"/>
      <circle class="cls-32" cx="350.5" cy="201.15" r="7.5"/>
      <circle class="cls-32" cx="287.5" cy="255.15" r="7.5"/>
      <circle class="cls-32" cx="304.5" cy="214.15" r="7.5"/>
      <circle class="cls-32" cx="47.5" cy="395.15" r="7.5"/>
      <circle class="cls-32" cx="34.5" cy="452.15" r="7.5"/>
      <circle class="cls-32" cx="932.5" cy="178.15" r="7.5"/>
      <circle class="cls-32" cx="942.5" cy="210.15" r="7.5"/>
      <circle class="cls-32" cx="913.43" cy="194.25" r="7.5"/>
      <ellipse class="cls-32" cx="895.5" cy="249.15" rx="5" ry="7.5"/>
      <circle class="cls-32" cx="978.5" cy="183.15" r="7.5"/>
      <ellipse class="cls-32" cx="969" cy="209.65" rx="5" ry="3.5"/>
      <ellipse class="cls-32" cx="904" cy="225.65" rx="5" ry="3.5"/>
      <ellipse class="cls-32" cx="997" cy="203.65" rx="5" ry="3.5"/>
      <ellipse class="cls-32" cx="955" cy="149.65" rx="5" ry="3.5"/>
      <ellipse class="cls-32" cx="1054" cy="47.65" rx="5" ry="3.5"/>
      <ellipse class="cls-32" cx="330" cy="182.65" rx="5" ry="3.5"/>
      <ellipse class="cls-32" cx="384" cy="213.65" rx="5" ry="3.5"/>
      <ellipse class="cls-32" cx="258" cy="260.65" rx="5" ry="3.5"/>
      <ellipse class="cls-32" cx="59" cy="445.65" rx="5" ry="3.5"/>
      <ellipse class="cls-32" cx="5" cy="416.65" rx="5" ry="3.5"/>
      <ellipse class="cls-32" cx="866" cy="947.65" rx="5" ry="3.5"/>
      <ellipse class="cls-32" cx="835" cy="783.65" rx="5" ry="3.5"/>
      <ellipse class="cls-32" cx="885" cy="934.65" rx="5" ry="3.5"/>
      <ellipse class="cls-32" cx="795" cy="728.65" rx="5" ry="3.5"/>
    </g>
  </g>
</svg>