<?xml version="1.0" encoding="UTF-8"?>
<svg id="Layer_2" xmlns="http://www.w3.org/2000/svg" viewBox="0 0 1053.67 1010">
  <defs>
    <style>
      .cls-1 {
        stroke-dasharray: 0 41.4;
        stroke-width: 8.28px;
      }

      .cls-1, .cls-2, .cls-3, .cls-4, .cls-5, .cls-6, .cls-7, .cls-8, .cls-9, .cls-10, .cls-11, .cls-12, .cls-13, .cls-14, .cls-15, .cls-16, .cls-17, .cls-18, .cls-19, .cls-20, .cls-21, .cls-22, .cls-23, .cls-24, .cls-25, .cls-26, .cls-27, .cls-28, .cls-29, .cls-30, .cls-31 {
        fill: none;
        stroke: #ee472c;
        stroke-linecap: round;
        stroke-linejoin: round;
      }

      .cls-2 {
        stroke-dasharray: 0 23.51;
        stroke-width: 4.7px;
      }

      .cls-3 {
        stroke-dasharray: 0 3.57;
        stroke-width: .71px;
      }

      .cls-4 {
        stroke-dasharray: 0 13.35;
        stroke-width: 2.67px;
      }

      .cls-5 {
        stroke-dasharray: 0 25.84;
        stroke-width: 5.17px;
      }

      .cls-6 {
        stroke-dasharray: 0 12.15;
        stroke-width: 2.43px;
      }

      .cls-7 {
        stroke-dasharray: 0 31.2;
        stroke-width: 6.24px;
      }

      .cls-8 {
        stroke-dasharray: 0 11.06;
        stroke-width: 2.21px;
      }

      .cls-9 {
        stroke-dasharray: 0 3.24;
        stroke-width: .65px;
      }

      .cls-10 {
        stroke-dasharray: 0 37.68;
        stroke-width: 7.54px;
      }

      .cls-11 {
        stroke-dasharray: 0 21.4;
        stroke-width: 4.28px;
      }

      .cls-12 {
        stroke-dasharray: 0 19.47;
        stroke-width: 3.89px;
      }

      .cls-32 {
        fill: #ee472c;
      }

      .cls-13 {
        stroke-dasharray: 0 4.73;
        stroke-width: .95px;
      }

      .cls-14 {
        stroke-dasharray: 0 34.29;
        stroke-width: 6.86px;
      }

      .cls-15 {
        stroke-dasharray: 0 5.71;
        stroke-width: 1.14px;
      }

      .cls-16 {
        stroke-dasharray: 0 6.9;
        stroke-width: 1.38px;
      }

      .cls-17 {
        stroke-dasharray: 0 3.92;
        stroke-width: .78px;
      }

      .cls-18 {
        stroke-dasharray: 0 45.5;
        stroke-width: 9.1px;
      }

      .cls-19 {
        stroke-dasharray: 0 16.12;
        stroke-width: 3.22px;
      }

      .cls-20 {
        stroke-dasharray: 0 17.72;
        stroke-width: 3.54px;
      }

      .cls-21 {
        stroke-dasharray: 0 2.95;
        stroke-width: .59px;
      }

      .cls-22 {
        stroke-dasharray: 0 4.31;
        stroke-width: .86px;
      }

      .cls-23 {
        stroke-dasharray: 0 6.28;
        stroke-width: 1.26px;
      }

      .cls-24 {
        stroke-dasharray: 0 7.58;
        stroke-width: 1.52px;
      }

      .cls-25 {
        stroke-dasharray: 0 10.06;
        stroke-width: 2.01px;
      }

      .cls-26 {
        stroke-dasharray: 0 50;
        stroke-width: 10px;
      }

      .cls-27 {
        stroke-dasharray: 0 8.33;
        stroke-width: 1.67px;
      }

      .cls-28 {
        stroke-dasharray: 0 5.2;
        stroke-width: 1.04px;
      }

      .cls-29 {
        stroke-dasharray: 0 9.16;
        stroke-width: 1.83px;
      }

      .cls-30 {
        stroke-dasharray: 0 14.67;
        stroke-width: 2.93px;
      }

      .cls-31 {
        stroke-dasharray: 0 28.39;
        stroke-width: 5.68px;
      }
    </style>
  </defs>
  <g id="high_bad">
    <g>
      <g>
        <path class="cls-21" d="M579.89,701.53c-1.13-2.47-4.67-11.03-1.98-21.67,2.83-11.19,10.66-17.15,12.78-18.67-1.67.93-12.25,6.57-24.59,2.23-9.68-3.41-14.45-10.85-15.74-13.04-3.6,13.44-7.2,26.89-10.81,40.33,2.09-1.06,11.2-5.35,22.47-2.24,10.97,3.03,16.54,11.03,17.86,13.04Z"/>
        <path class="cls-9" d="M577.22,707.28c-.9-2.84-3.61-12.65.75-23.9,4.59-11.83,13.92-17.28,16.44-18.65-1.95.79-14.24,5.53-27.12-.86-10.11-5.01-14.31-13.77-15.43-16.33-5.73,14.18-11.46,28.36-17.19,42.55,2.42-.87,12.93-4.34,24.81.57,11.56,4.78,16.56,14.24,17.73,16.62Z"/>
        <path class="cls-3" d="M573.54,713.18c-.6-3.22-2.25-14.29,4.02-25.97,6.59-12.29,17.5-16.98,20.43-18.14-2.23.6-16.27,4.12-29.46-4.57-10.35-6.82-13.76-16.93-14.64-19.88-8.15,14.7-16.3,29.4-24.45,44.1,2.76-.63,14.68-3,26.99,3.95,11.97,6.76,16.16,17.75,17.12,20.5Z"/>
        <path class="cls-17" d="M568.73,719.13c-.22-3.59-.54-15.88,7.86-27.78,8.83-12.52,21.36-16.18,24.71-17.05-2.51.35-18.3,2.32-31.52-8.93-10.38-8.83-12.74-20.31-13.3-23.64-10.86,14.94-21.71,29.89-32.57,44.83,3.09-.31,16.42-1.31,28.9,7.92,12.15,8.98,15.25,21.52,15.92,24.65Z"/>
        <path class="cls-22" d="M562.69,724.98c.24-3.95,1.54-17.4,12.29-29.25,11.31-12.47,25.46-14.79,29.24-15.28-2.78.05-20.27.08-33.19-13.96-10.14-11.02-11.18-23.86-11.35-27.56-13.84,14.84-27.69,29.69-41.53,44.53,3.42.07,18.08.77,30.47,12.51,12.05,11.42,13.75,25.52,14.07,29.02Z"/>
        <path class="cls-13" d="M555.32,730.55c.79-4.27,4.01-18.77,17.32-30.26,14.01-12.09,29.75-12.72,33.94-12.75-3.04-.32-22.12-2.63-34.33-19.67-9.58-13.37-9-27.52-8.68-31.58-17.09,14.34-34.17,28.67-51.26,43.01,3.72.54,19.62,3.26,31.55,17.72,11.61,14.07,11.58,29.67,11.46,33.54Z"/>
        <path class="cls-28" d="M546.54,735.63c1.43-4.55,6.89-19.93,22.95-30.68,16.9-11.31,34.15-9.89,38.72-9.36-3.28-.75-23.77-5.83-34.81-26.06-8.66-15.87-6.13-31.22-5.24-35.61-20.56,13.35-41.11,26.7-61.67,40.05,3.98,1.08,20.96,6.19,32.04,23.56,10.78,16.9,8.65,33.92,8.01,38.11Z"/>
        <path class="cls-15" d="M536.28,740c2.17-4.78,10.18-20.82,29.14-30.39,19.94-10.07,38.58-6.21,43.49-5.03-3.47-1.26-25.15-9.54-34.48-33.08-7.32-18.47-2.5-34.88-.95-39.55-24.21,11.81-48.42,23.61-72.63,35.42,4.2,1.72,22.03,9.56,31.8,29.98,9.5,19.88,4.9,38.15,3.63,42.64Z"/>
        <path class="cls-23" d="M524.5,743.39c3.01-4.92,13.89-21.34,35.85-29.25,23.1-8.32,42.91-1.61,48.11.34-3.62-1.84-26.15-13.77-33.17-40.7-5.51-21.12,1.94-38.37,4.26-43.26-27.99,9.64-55.97,19.27-83.96,28.91,4.35,2.43,22.75,13.37,30.66,36.96,7.7,22.95.23,42.27-1.75,47Z"/>
        <path class="cls-16" d="M511.2,745.52c3.94-4.96,18.01-21.42,43.02-27.1,26.31-5.98,47.01,3.99,52.42,6.81-3.7-2.49-26.68-18.52-30.73-48.83-3.18-23.78,7.26-41.59,10.44-46.61-31.82,6.76-63.63,13.53-95.45,20.29,4.42,3.24,23.03,17.63,28.5,44.42,5.32,26.06-5.41,46.13-8.21,51.03Z"/>
        <path class="cls-24" d="M496.41,746.05c4.96-4.88,22.51-20.95,50.55-23.8,29.5-3,50.74,10.65,56.27,14.45-3.7-3.21-26.62-23.78-26.98-57.38-.28-26.36,13.49-44.4,17.63-49.44-35.61,3.12-71.21,6.23-106.82,9.35,4.39,4.12,22.75,22.32,25.13,52.27,2.31,29.14-12.08,49.59-15.79,54.55Z"/>
        <path class="cls-27" d="M480.21,744.65c6.07-4.66,27.36-19.83,58.33-19.19,32.58.68,53.92,18.41,59.44,23.3-3.61-4-25.85-29.5-21.74-66.2,3.22-28.79,20.66-46.62,25.85-51.57-39.25-1.37-78.51-2.74-117.76-4.11,4.23,5.08,21.83,27.39,20.41,60.37-1.38,32.09-19.82,52.47-24.52,57.39Z"/>
        <path class="cls-29" d="M462.72,740.96c7.24-4.27,32.5-17.97,66.19-13.12,35.44,5.11,56.35,27.31,61.71,33.37-3.4-4.85-24.24-35.64-14.85-75.11,7.37-30.97,28.77-48.08,35.1-52.78-42.63-6.75-85.26-13.5-127.89-20.26,3.93,6.11,20.14,32.79,14.18,68.58-5.8,34.82-28.64,54.58-34.43,59.31Z"/>
        <path class="cls-25" d="M444.14,734.59c8.47-3.69,37.86-15.25,73.95-5.44,37.97,10.31,57.8,37.33,62.84,44.66-3.06-5.74-21.67-42.11-6.14-83.92,12.18-32.79,37.82-48.59,45.36-52.87-45.59-13.07-91.19-26.15-136.78-39.22,3.47,7.19,17.57,38.47,6.28,76.7-10.99,37.2-38.55,55.7-45.5,60.08Z"/>
        <path class="cls-8" d="M424.74,725.15c9.73-2.89,43.33-11.56,81.38,3.97,40.03,16.34,58.04,48.46,62.55,57.13-2.57-6.67-17.99-48.84,4.55-92.35,17.68-34.13,47.76-47.93,56.55-51.59-47.98-20.37-95.96-40.73-143.94-61.1,2.82,8.31,14.02,44.31-3.42,84.5-16.97,39.1-49.5,55.59-57.67,59.44Z"/>
        <path class="cls-6" d="M404.83,712.25c11-1.85,48.81-6.8,88.23,15.23,41.48,23.18,56.82,60.62,60.58,70.69-1.91-7.62-13.09-55.68,17.33-100.12,23.86-34.86,58.51-45.88,68.59-48.69-49.6-28.64-99.21-57.28-148.81-85.92,1.97,9.44,9.35,50.21-15.05,91.71-23.75,40.38-61.44,54-70.87,57.1Z"/>
        <path class="cls-4" d="M384.84,695.53c12.25-.54,54.15-.89,94.2,28.42,42.14,30.84,53.85,73.73,56.61,85.21-1.06-8.57-6.82-62.48,32.31-106.88,30.69-34.83,69.96-42.2,81.33-43.93-50.27-37.88-100.54-75.76-150.8-113.64.88,10.56,3.48,56.01-28.7,98.01-31.31,40.86-74.24,50.67-84.94,52.79Z"/>
        <path class="cls-30" d="M365.29,674.6c13.43,1.05,59.18,6.29,98.94,43.62,41.83,39.28,48.87,87.63,50.33,100.52,0-9.49.93-69.06,49.55-112.25,38.14-33.88,81.96-36.66,94.59-37.02-49.75-48.05-99.51-96.1-149.26-144.14-.45,11.64-3.71,61.56-44.43,103.06-39.62,40.38-87.76,45.32-99.72,46.21Z"/>
        <path class="cls-19" d="M346.76,649.16c14.51,2.94,63.71,14.78,102.07,60.82,40.36,48.44,41.56,102.13,41.43,116.38,1.26-10.35,10.27-75.2,69.08-115.79,46.14-31.84,94.31-29.01,108.13-27.71-47.83-59.07-95.67-118.14-143.5-177.21-2.05,12.63-12.29,66.65-62.26,106.46-48.62,38.73-101.79,37.68-114.95,37.04Z"/>
        <path class="cls-20" d="M329.95,618.93c15.43,5.15,67.5,24.65,103.18,80.01,37.54,58.24,31.65,116.96,29.6,132.49,2.76-11.12,21.27-80.65,90.85-117.05,54.58-28.56,106.75-19.01,121.65-15.74-44.26-70.83-88.52-141.67-132.79-212.5-3.93,13.5-22.33,71.05-82.16,107.78-58.22,35.73-116.07,27.46-130.34,25.01Z"/>
        <path class="cls-12" d="M315.67,583.71c16.14,7.69,70.33,35.93,101.83,101.09,33.14,68.55,18.86,131.81,14.55,148.47,4.5-11.76,34-85.11,114.77-115.5,63.36-23.84,118.98-6.44,134.79-.88-38.79-83.19-77.58-166.37-116.37-249.56-6.1,14.2-33.87,74.5-104.05,106.55-68.28,31.18-130.28,14.41-145.51,9.82Z"/>
        <path class="cls-11" d="M304.82,543.38c16.58,10.55,71.89,48.61,97.53,123.89,26.97,79.21,2.92,146.29-4.02,163.89,6.49-12.22,48.48-88.28,140.64-110.6,72.3-17.51,130.63,8.91,147.14,17.1-31.17-95.93-62.34-191.85-93.51-287.78-8.55,14.67-46.92,76.73-127.76,102.28-78.65,24.86-144.03-1.73-160.02-8.77Z"/>
        <path class="cls-2" d="M298.38,497.94c16.67,13.72,71.9,62.65,89.78,148.19,18.81,90-16.4,159.95-26.33,178.22,8.71-12.46,64.7-89.8,168.21-101.8,81.2-9.42,141.29,27.21,158.2,38.35-21.15-108.8-42.3-217.61-63.45-326.41-11.29,14.86-61.45,77.4-153.04,94.45-89.12,16.58-156.86-21.18-173.36-31Z"/>
        <path class="cls-5" d="M297.44,447.52c16.34,17.2,70.04,77.96,78.08,173.66,8.46,100.69-39.31,172.26-52.59,190.86,11.17-12.43,82.6-89.28,197.11-88.51,89.83.6,150.46,48.6,167.41,63.02-8.5-121.51-16.99-243.01-25.49-364.52-14.31,14.7-77.39,76.19-179.58,82.52-99.42,6.15-168.25-44.1-184.94-57.03Z"/>
        <path class="cls-31" d="M303.16,392.39c15.52,20.95,65.95,94.41,61.9,199.87-4.26,110.95-65.95,182.62-82.92,201.13,13.85-12.06,102.04-86.31,226.84-70.14,97.9,12.69,157.6,73.16,174.16,91.15,7.01-133.66,14.01-267.33,21.02-400.99-17.58,14.11-94.61,72.74-206.92,65.96-109.27-6.6-177.61-70.64-194.08-86.97Z"/>
        <path class="cls-7" d="M316.79,333.03c14.12,24.93,59.29,111.81,40.75,226.29-19.5,120.45-96.39,190.36-117.37,208.26,16.72-11.3,122.86-80.48,256.81-46.12,105.08,26.95,162.1,100.9,177.75,122.75,25.54-144.85,51.08-289.7,76.62-434.55-21.06,13.04-112.94,66.67-234.52,44.23-118.29-21.83-184.26-100.83-200.03-120.85Z"/>
        <path class="cls-14" d="M339.61,270.12c12.07,29.08,49.69,129.89,14.14,252.27-37.4,128.76-130.62,194.71-155.91,211.44,19.75-10.09,144.78-71.32,286.28-15.91,111,43.47,163.29,131.76,177.43,157.68,47.26-154.57,94.51-309.14,141.77-463.71-24.72,11.4-132.11,57.59-261.72,16.83-126.1-39.66-187.47-134.65-201.99-158.6Z"/>
        <path class="cls-10" d="M372.92,204.55c9.27,33.34,36.81,148.32-18.36,277.05-58.04,135.43-168.55,194.88-198.37,209.74,22.89-8.35,167.47-58.4,314.38,20.98,115.25,62.28,160.46,165.58,172.41,195.75,72.24-162.26,144.49-324.52,216.73-486.79-28.49,9.13-151.81,45.12-287.71-16.69-132.23-60.14-186.44-171.98-199.08-200.04Z"/>
        <path class="cls-1" d="M418.03,137.49c5.64,37.6,20.28,166.71-57.13,299.72-81.44,139.94-209.94,189.99-244.45,202.2,26.09-6.05,190.48-41.27,340.09,64.99,117.36,83.36,152.84,202.09,161.83,236.6,100.53-167.31,201.06-334.61,301.58-501.92-32.29,6.14-171.62,28.89-311.57-56.73-136.17-83.31-180.33-212.54-190.35-244.85Z"/>
        <path class="cls-18" d="M476.22,70.39c1.12,41.77-.2,184.55-102.45,319.26-107.57,141.73-254.42,179.11-293.71,187.8,29.26-3.1,213.28-19.51,362.23,116.43,116.85,106.64,139.64,240.89,144.83,279.73,132.05-169.02,264.11-338.04,396.16-507.06-36.04,2.37-191.06,8.52-332.24-103.61-137.36-109.1-168.22-255.97-174.82-292.55Z"/>
        <path class="cls-26" d="M548.67,5c-4.37,45.7-24.94,201.26-154.5,334.5C257.86,479.68,92.68,500.78,48.67,505c32.33.54,235.24,7.29,379.5,175.5,113.17,131.96,120.04,281.44,120.5,324.5,166.67-166.67,333.33-333.33,500-500-39.63-2.24-209.53-16.29-348.5-157.5C564.96,210.11,550.97,45.78,548.67,5Z"/>
      </g>
      <circle class="cls-32" cx="725" cy="867.57" r="5"/>
      <circle class="cls-32" cx="82" cy="632.57" r="5"/>
      <circle class="cls-32" cx="462" cy="878.57" r="5"/>
      <circle class="cls-32" cx="92" cy="343.57" r="5"/>
      <circle class="cls-32" cx="182" cy="441.57" r="5"/>
      <circle class="cls-32" cx="5" cy="622.57" r="5"/>
      <circle class="cls-32" cx="738" cy="335.57" r="5"/>
      <circle class="cls-32" cx="815" cy="284.57" r="5"/>
      <circle class="cls-32" cx="891" cy="330.57" r="5"/>
      <circle class="cls-32" cx="1044" cy="555.57" r="5"/>
      <circle class="cls-32" cx="790" cy="363.57" r="5"/>
      <circle class="cls-32" cx="836.5" cy="340.07" r="3.5"/>
      <circle class="cls-32" cx="119.5" cy="412.07" r="3.5"/>
      <circle class="cls-32" cx="314.5" cy="223.07" r="3.5"/>
      <circle class="cls-32" cx="776.5" cy="846.07" r="3.5"/>
      <circle class="cls-32" cx="826.5" cy="850.07" r="3.5"/>
      <circle class="cls-32" cx="403.5" cy="892.07" r="3.5"/>
      <circle class="cls-32" cx="795.5" cy="326.07" r="3.5"/>
      <circle class="cls-32" cx="453.5" cy="919.07" r="3.5"/>
    </g>
  </g>
</svg>