<?xml version="1.0" encoding="UTF-8"?>
<svg id="Layer_2" xmlns="http://www.w3.org/2000/svg" viewBox="0 0 1170.61 1069.11">
  <defs>
    <style>
      .cls-1 {
        stroke-dasharray: 0 5.86;
        stroke-width: 1.26px;
      }

      .cls-1, .cls-2, .cls-3, .cls-4, .cls-5, .cls-6, .cls-7, .cls-8, .cls-9, .cls-10, .cls-11, .cls-12, .cls-13, .cls-14, .cls-15, .cls-16, .cls-17, .cls-18, .cls-19, .cls-20, .cls-21, .cls-22, .cls-23, .cls-24, .cls-25, .cls-26, .cls-27, .cls-28, .cls-29, .cls-30, .cls-31 {
        fill: none;
        stroke: #ee472c;
        stroke-linecap: round;
        stroke-linejoin: round;
      }

      .cls-2 {
        stroke-dasharray: 0 4.02;
        stroke-width: .86px;
      }

      .cls-3 {
        stroke-dasharray: 0 13.69;
        stroke-width: 2.93px;
      }

      .cls-4 {
        stroke-dasharray: 0 46.66;
        stroke-width: 10px;
      }

      .cls-5 {
        stroke-dasharray: 0 42.46;
        stroke-width: 9.1px;
      }

      .cls-6 {
        stroke-dasharray: 0 38.64;
        stroke-width: 8.28px;
      }

      .cls-7 {
        stroke-dasharray: 0 4.42;
        stroke-width: .95px;
      }

      .cls-32 {
        fill: #ee472c;
      }

      .cls-8 {
        stroke-dasharray: 0 15.05;
        stroke-width: 3.22px;
      }

      .cls-9 {
        stroke-dasharray: 0 3.66;
        stroke-width: .78px;
      }

      .cls-10 {
        stroke-dasharray: 0 4.85;
        stroke-width: 1.04px;
      }

      .cls-11 {
        stroke-dasharray: 0 3.33;
        stroke-width: .71px;
      }

      .cls-12 {
        stroke-dasharray: 0 12.46;
        stroke-width: 2.67px;
      }

      .cls-13 {
        stroke-dasharray: 0 9.39;
        stroke-width: 2.01px;
      }

      .cls-14 {
        stroke-dasharray: 0 35.16;
        stroke-width: 7.54px;
      }

      .cls-15 {
        stroke-dasharray: 0 7.08;
        stroke-width: 1.52px;
      }

      .cls-16 {
        stroke-dasharray: 0 5.33;
        stroke-width: 1.14px;
      }

      .cls-17 {
        stroke-dasharray: 0 21.94;
        stroke-width: 4.7px;
      }

      .cls-18 {
        stroke-dasharray: 0 29.12;
        stroke-width: 6.24px;
      }

      .cls-19 {
        stroke-dasharray: 0 18.17;
        stroke-width: 3.89px;
      }

      .cls-20 {
        stroke-dasharray: 0 6.44;
        stroke-width: 1.38px;
      }

      .cls-21 {
        stroke-dasharray: 0 8.55;
        stroke-width: 1.83px;
      }

      .cls-22 {
        stroke-dasharray: 0 3.03;
        stroke-width: .65px;
      }

      .cls-23 {
        stroke-dasharray: 0 19.97;
        stroke-width: 4.28px;
      }

      .cls-24 {
        stroke-dasharray: 0 11.34;
        stroke-width: 2.43px;
      }

      .cls-25 {
        stroke-dasharray: 0 24.11;
        stroke-width: 5.17px;
      }

      .cls-26 {
        stroke-dasharray: 0 10.32;
        stroke-width: 2.21px;
      }

      .cls-27 {
        stroke-dasharray: 0 7.78;
        stroke-width: 1.67px;
      }

      .cls-28 {
        stroke-dasharray: 0 26.5;
        stroke-width: 5.68px;
      }

      .cls-29 {
        stroke-dasharray: 0 2.76;
        stroke-width: .59px;
      }

      .cls-30 {
        stroke-dasharray: 0 32;
        stroke-width: 6.86px;
      }

      .cls-31 {
        stroke-dasharray: 0 16.54;
        stroke-width: 3.54px;
      }
    </style>
  </defs>
  <g id="high_bad">
    <g>
      <g>
        <g>
          <line class="cls-29" x1="443.32" y1="886.8" x2="505.86" y2="886.8"/>
          <line class="cls-22" x1="438.55" y1="883.23" x2="507.18" y2="886.82"/>
          <line class="cls-11" x1="433.52" y1="879.02" x2="508.63" y2="886.92"/>
          <line class="cls-9" x1="428.24" y1="874.12" x2="510.21" y2="887.11"/>
          <line class="cls-2" x1="422.73" y1="868.44" x2="511.94" y2="887.41"/>
          <line class="cls-7" x1="417.01" y1="861.89" x2="513.81" y2="887.83"/>
          <line class="cls-10" x1="411.1" y1="854.37" x2="515.85" y2="888.41"/>
          <line class="cls-16" x1="405.06" y1="845.78" x2="518.05" y2="889.16"/>
          <line class="cls-1" x1="398.92" y1="836.01" x2="520.42" y2="890.11"/>
          <line class="cls-20" x1="392.74" y1="824.93" x2="522.97" y2="891.28"/>
          <line class="cls-15" x1="386.6" y1="812.42" x2="525.7" y2="892.72"/>
          <line class="cls-27" x1="380.59" y1="798.33" x2="528.61" y2="894.46"/>
          <line class="cls-21" x1="374.79" y1="782.53" x2="531.7" y2="896.53"/>
          <line class="cls-13" x1="369.34" y1="764.85" x2="534.98" y2="898.98"/>
          <line class="cls-26" x1="364.38" y1="745.14" x2="538.43" y2="901.86"/>
          <line class="cls-24" x1="360.07" y1="723.23" x2="542.06" y2="905.22"/>
          <line class="cls-12" x1="356.6" y1="698.93" x2="545.84" y2="909.11"/>
          <line class="cls-3" x1="354.18" y1="672.06" x2="549.77" y2="913.6"/>
          <line class="cls-8" x1="353.08" y1="642.44" x2="553.83" y2="918.75"/>
          <line class="cls-31" x1="353.57" y1="609.88" x2="557.98" y2="924.64"/>
          <line class="cls-19" x1="355.98" y1="574.16" x2="562.2" y2="931.34"/>
          <line class="cls-23" x1="360.69" y1="535.11" x2="566.45" y2="938.94"/>
          <line class="cls-17" x1="368.09" y1="492.53" x2="570.67" y2="947.52"/>
          <line class="cls-25" x1="378.67" y1="446.23" x2="574.81" y2="957.18"/>
          <line class="cls-28" x1="392.94" y1="396.02" x2="578.79" y2="968.02"/>
          <line class="cls-18" x1="411.49" y1="341.74" x2="582.55" y2="980.14"/>
          <line class="cls-30" x1="434.96" y1="283.25" x2="585.97" y2="993.66"/>
          <line class="cls-14" x1="464.09" y1="220.4" x2="588.94" y2="1008.69"/>
          <line class="cls-6" x1="499.67" y1="153.12" x2="591.34" y2="1025.36"/>
          <line class="cls-5" x1="542.58" y1="81.32" x2="593.02" y2="1043.79"/>
          <line class="cls-4" x1="593.8" y1="5" x2="593.8" y2="1064.11"/>
        </g>
        <g>
          <line class="cls-29" x1="466.1" y1="921.07" x2="466.1" y2="852.54"/>
          <line class="cls-22" x1="462.4" y1="922.63" x2="466.34" y2="847.42"/>
          <line class="cls-11" x1="458.25" y1="924.13" x2="466.91" y2="841.82"/>
          <line class="cls-9" x1="453.62" y1="925.53" x2="467.85" y2="835.7"/>
          <line class="cls-2" x1="448.45" y1="926.8" x2="469.23" y2="829.04"/>
          <line class="cls-7" x1="442.7" y1="927.91" x2="471.13" y2="821.82"/>
          <line class="cls-10" x1="436.33" y1="928.78" x2="473.63" y2="814"/>
          <line class="cls-16" x1="429.29" y1="929.38" x2="476.82" y2="805.56"/>
          <line class="cls-1" x1="421.54" y1="929.63" x2="480.82" y2="796.48"/>
          <line class="cls-20" x1="413.01" y1="929.46" x2="485.72" y2="786.75"/>
          <line class="cls-15" x1="403.66" y1="928.78" x2="491.66" y2="776.36"/>
          <line class="cls-27" x1="393.43" y1="927.5" x2="498.77" y2="765.29"/>
          <line class="cls-21" x1="382.29" y1="925.5" x2="507.22" y2="753.56"/>
          <line class="cls-13" x1="370.18" y1="922.67" x2="517.16" y2="741.16"/>
          <line class="cls-26" x1="357.04" y1="918.87" x2="528.78" y2="728.13"/>
          <line class="cls-24" x1="342.85" y1="913.94" x2="542.28" y2="714.51"/>
          <line class="cls-12" x1="327.56" y1="907.71" x2="557.89" y2="700.33"/>
          <line class="cls-3" x1="311.14" y1="900" x2="575.83" y2="685.66"/>
          <line class="cls-8" x1="293.56" y1="890.59" x2="596.35" y2="670.6"/>
          <line class="cls-31" x1="274.82" y1="879.26" x2="619.75" y2="655.26"/>
          <line class="cls-19" x1="254.89" y1="865.74" x2="646.3" y2="639.76"/>
          <line class="cls-23" x1="233.81" y1="849.77" x2="676.34" y2="624.29"/>
          <line class="cls-17" x1="211.59" y1="831.02" x2="710.18" y2="609.03"/>
          <line class="cls-25" x1="188.28" y1="809.17" x2="748.21" y2="594.23"/>
          <line class="cls-28" x1="163.96" y1="783.85" x2="790.78" y2="580.18"/>
          <line class="cls-18" x1="138.73" y1="754.67" x2="838.31" y2="567.21"/>
          <line class="cls-30" x1="112.72" y1="721.19" x2="891.22" y2="555.71"/>
          <line class="cls-14" x1="86.1" y1="682.96" x2="949.94" y2="546.14"/>
          <line class="cls-6" x1="59.09" y1="639.47" x2="1014.93" y2="539"/>
          <line class="cls-5" x1="31.95" y1="590.19" x2="1086.66" y2="534.92"/>
          <line class="cls-4" x1="5" y1="534.55" x2="1165.61" y2="534.55"/>
        </g>
        <g>
          <line class="cls-29" x1="494.6" y1="897.33" x2="459.58" y2="858.18"/>
          <line class="cls-22" x1="493.45" y1="898.46" x2="457.28" y2="853.48"/>
          <line class="cls-11" x1="492.13" y1="899.64" x2="455.02" y2="848.2"/>
          <line class="cls-9" x1="490.61" y1="900.86" x2="452.84" y2="842.27"/>
          <line class="cls-2" x1="488.87" y1="902.1" x2="450.79" y2="835.64"/>
          <line class="cls-7" x1="486.89" y1="903.37" x2="448.93" y2="828.25"/>
          <line class="cls-10" x1="484.65" y1="904.65" x2="447.3" y2="820.02"/>
          <line class="cls-16" x1="482.11" y1="905.93" x2="446" y2="810.91"/>
          <line class="cls-1" x1="479.25" y1="907.18" x2="445.09" y2="800.83"/>
          <line class="cls-20" x1="476.04" y1="908.39" x2="444.67" y2="789.72"/>
          <line class="cls-15" x1="472.45" y1="909.53" x2="444.85" y2="777.5"/>
          <line class="cls-27" x1="468.45" y1="910.58" x2="445.74" y2="764.1"/>
          <line class="cls-21" x1="463.99" y1="911.5" x2="447.5" y2="749.45"/>
          <line class="cls-13" x1="459.05" y1="912.26" x2="450.27" y2="733.47"/>
          <line class="cls-26" x1="453.58" y1="912.8" x2="454.23" y2="716.1"/>
          <line class="cls-24" x1="447.55" y1="913.08" x2="459.58" y2="697.26"/>
          <line class="cls-12" x1="440.91" y1="913.04" x2="466.53" y2="676.89"/>
          <line class="cls-3" x1="433.63" y1="912.62" x2="475.32" y2="654.94"/>
          <line class="cls-8" x1="425.67" y1="911.73" x2="486.24" y2="631.36"/>
          <line class="cls-31" x1="416.98" y1="910.31" x2="499.57" y2="606.11"/>
          <line class="cls-19" x1="407.53" y1="908.24" x2="515.66" y2="579.16"/>
          <line class="cls-23" x1="397.27" y1="905.43" x2="534.86" y2="550.52"/>
          <line class="cls-17" x1="386.18" y1="901.75" x2="557.58" y2="520.19"/>
          <line class="cls-25" x1="374.22" y1="897.08" x2="584.26" y2="488.22"/>
          <line class="cls-28" x1="361.36" y1="891.27" x2="615.37" y2="454.66"/>
          <line class="cls-18" x1="347.59" y1="884.15" x2="651.45" y2="419.63"/>
          <line class="cls-30" x1="332.88" y1="875.54" x2="693.05" y2="383.25"/>
          <line class="cls-14" x1="317.24" y1="865.26" x2="740.8" y2="345.73"/>
          <line class="cls-6" x1="300.66" y1="853.06" x2="795.35" y2="307.3"/>
          <line class="cls-5" x1="283.17" y1="838.73" x2="857.43" y2="268.27"/>
          <line class="cls-4" x1="264.8" y1="822" x2="927.8" y2="229"/>
        </g>
        <g>
          <line class="cls-29" x1="483.61" y1="859.84" x2="448.59" y2="895.66"/>
          <line class="cls-22" x1="484.62" y1="857.32" x2="444.13" y2="894.62"/>
          <line class="cls-11" x1="485.87" y1="854.62" x2="439.29" y2="893.22"/>
          <line class="cls-9" x1="487.4" y1="851.72" x2="434.06" y2="891.41"/>
          <line class="cls-2" x1="489.24" y1="848.63" x2="428.43" y2="889.11"/>
          <line class="cls-7" x1="491.45" y1="845.34" x2="422.38" y2="886.27"/>
          <line class="cls-10" x1="494.05" y1="841.87" x2="415.91" y2="882.81"/>
          <line class="cls-16" x1="497.11" y1="838.2" x2="409" y2="878.64"/>
          <line class="cls-1" x1="500.68" y1="834.35" x2="401.67" y2="873.66"/>
          <line class="cls-20" x1="504.82" y1="830.33" x2="393.9" y2="867.78"/>
          <line class="cls-15" x1="509.59" y1="826.16" x2="385.72" y2="860.87"/>
          <line class="cls-27" x1="515.07" y1="821.86" x2="377.13" y2="852.83"/>
          <line class="cls-21" x1="521.33" y1="817.45" x2="368.18" y2="843.5"/>
          <line class="cls-13" x1="528.45" y1="812.97" x2="358.88" y2="832.75"/>
          <line class="cls-26" x1="536.52" y1="808.47" x2="349.3" y2="820.42"/>
          <line class="cls-24" x1="545.64" y1="803.99" x2="339.5" y2="806.34"/>
          <line class="cls-12" x1="555.9" y1="799.6" x2="329.55" y2="790.33"/>
          <line class="cls-3" x1="567.42" y1="795.38" x2="319.55" y2="772.18"/>
          <line class="cls-8" x1="580.3" y1="791.4" x2="309.62" y2="751.69"/>
          <line class="cls-31" x1="594.66" y1="787.78" x2="299.9" y2="728.63"/>
          <line class="cls-19" x1="610.63" y1="784.63" x2="290.57" y2="702.77"/>
          <line class="cls-23" x1="628.34" y1="782.09" x2="281.81" y2="673.85"/>
          <line class="cls-17" x1="647.91" y1="780.33" x2="273.86" y2="641.62"/>
          <line class="cls-25" x1="669.5" y1="779.52" x2="266.99" y2="605.78"/>
          <line class="cls-28" x1="693.23" y1="779.87" x2="261.52" y2="566.06"/>
          <line class="cls-18" x1="719.26" y1="781.62" x2="257.79" y2="522.16"/>
          <line class="cls-30" x1="747.71" y1="785.03" x2="256.23" y2="473.77"/>
          <line class="cls-14" x1="778.75" y1="790.42" x2="257.29" y2="420.57"/>
          <line class="cls-6" x1="812.5" y1="798.11" x2="261.52" y2="362.25"/>
          <line class="cls-5" x1="849.09" y1="808.5" x2="269.52" y2="298.5"/>
          <line class="cls-4" x1="888.65" y1="822" x2="281.96" y2="229"/>
        </g>
      </g>
      <circle class="cls-32" cx="228.8" cy="394" r="5"/>
      <circle class="cls-32" cx="241.8" cy="333" r="5"/>
      <circle class="cls-32" cx="174.8" cy="384" r="5"/>
      <circle class="cls-32" cx="218.8" cy="446" r="5"/>
      <circle class="cls-32" cx="231.8" cy="298" r="5"/>
      <circle class="cls-32" cx="285.3" cy="276.5" r="3.5"/>
      <circle class="cls-32" cx="250.3" cy="276.5" r="3.5"/>
      <circle class="cls-32" cx="214.3" cy="361.5" r="3.5"/>
      <circle class="cls-32" cx="178.3" cy="324.5" r="3.5"/>
      <circle class="cls-32" cx="204.3" cy="411.5" r="3.5"/>
      <circle class="cls-32" cx="241.3" cy="228.5" r="3.5"/>
      <circle class="cls-32" cx="359.3" cy="254.5" r="3.5"/>
      <circle class="cls-32" cx="200.3" cy="276.5" r="3.5"/>
      <circle class="cls-32" cx="148.3" cy="289.5" r="3.5"/>
      <circle class="cls-32" cx="223.3" cy="496.5" r="3.5"/>
    </g>
  </g>
</svg>