<?xml version="1.0" encoding="UTF-8"?>
<svg id="Layer_2" xmlns="http://www.w3.org/2000/svg" viewBox="0 0 1016.85 687.66">
  <defs>
    <style>
      .cls-1 {
        stroke-dasharray: 0 5.2;
        stroke-width: 1.56px;
      }

      .cls-1, .cls-2, .cls-3, .cls-4, .cls-5, .cls-6, .cls-7, .cls-8, .cls-9, .cls-10, .cls-11, .cls-12, .cls-13, .cls-14, .cls-15, .cls-16, .cls-17, .cls-18, .cls-19, .cls-20, .cls-21, .cls-22, .cls-23, .cls-24, .cls-25, .cls-26, .cls-27, .cls-28, .cls-29, .cls-30, .cls-31 {
        fill: none;
        stroke: #ff8d86;
        stroke-linecap: round;
        stroke-linejoin: round;
      }

      .cls-2 {
        stroke-dasharray: 0 25.84;
        stroke-width: 7.75px;
      }

      .cls-3 {
        stroke-dasharray: 0 7.58;
        stroke-width: 2.27px;
      }

      .cls-4 {
        stroke-dasharray: 0 23.51;
        stroke-width: 7.05px;
      }

      .cls-5 {
        stroke-dasharray: 0 31.2;
        stroke-width: 9.36px;
      }

      .cls-6 {
        stroke-dasharray: 0 45.5;
        stroke-width: 13.65px;
      }

      .cls-7 {
        stroke-dasharray: 0 2.95;
        stroke-width: .89px;
      }

      .cls-8 {
        stroke-dasharray: 0 14.67;
        stroke-width: 4.4px;
      }

      .cls-9 {
        stroke-dasharray: 0 19.47;
        stroke-width: 5.84px;
      }

      .cls-10 {
        stroke-dasharray: 0 6.28;
        stroke-width: 1.88px;
      }

      .cls-11 {
        stroke-dasharray: 0 50;
        stroke-width: 15px;
      }

      .cls-12 {
        stroke-dasharray: 0 4.31;
        stroke-width: 1.29px;
      }

      .cls-13 {
        stroke-dasharray: 0 12.15;
        stroke-width: 3.65px;
      }

      .cls-14 {
        stroke-dasharray: 0 17.72;
        stroke-width: 5.32px;
      }

      .cls-15 {
        stroke-dasharray: 0 10.06;
        stroke-width: 3.02px;
      }

      .cls-16 {
        stroke-dasharray: 0 13.35;
        stroke-width: 4.01px;
      }

      .cls-17 {
        stroke-dasharray: 0 3.24;
        stroke-width: .97px;
      }

      .cls-18 {
        stroke-dasharray: 0 28.39;
        stroke-width: 8.52px;
      }

      .cls-32 {
        fill: #ff8d86;
      }

      .cls-19 {
        stroke-dasharray: 0 4.73;
        stroke-width: 1.42px;
      }

      .cls-20 {
        stroke-dasharray: 0 37.68;
        stroke-width: 11.3px;
      }

      .cls-21 {
        stroke-dasharray: 0 5.71;
        stroke-width: 1.71px;
      }

      .cls-22 {
        stroke-dasharray: 0 21.4;
        stroke-width: 6.42px;
      }

      .cls-23 {
        stroke-dasharray: 0 9.16;
        stroke-width: 2.75px;
      }

      .cls-24 {
        stroke-dasharray: 0 8.33;
        stroke-width: 2.5px;
      }

      .cls-25 {
        stroke-dasharray: 0 6.9;
        stroke-width: 2.07px;
      }

      .cls-26 {
        stroke-dasharray: 0 3.57;
        stroke-width: 1.07px;
      }

      .cls-27 {
        stroke-dasharray: 0 3.92;
        stroke-width: 1.18px;
      }

      .cls-28 {
        stroke-dasharray: 0 41.4;
        stroke-width: 12.42px;
      }

      .cls-29 {
        stroke-dasharray: 0 11.06;
        stroke-width: 3.32px;
      }

      .cls-30 {
        stroke-dasharray: 0 34.29;
        stroke-width: 10.29px;
      }

      .cls-31 {
        stroke-dasharray: 0 16.12;
        stroke-width: 4.84px;
      }
    </style>
  </defs>
  <g id="high_good">
    <g>
      <g>
        <g>
          <circle class="cls-7" cx="508.42" cy="361.55" r="5.91"/>
          <path class="cls-7" d="M483.03,346.37c5.07-8.78,20.63-9.3,34.75-1.14,14.97,8.65,19.24,28.69,16.39,30.67-1.52,1.06-4.05-3.72-10.7-5.09-10.47-2.15-15.82,7.33-24.05,6.23-10.92-1.46-22.06-20.84-16.39-30.67Z"/>
        </g>
        <g>
          <circle class="cls-17" cx="508.42" cy="361.55" r="6.49"/>
          <path class="cls-17" d="M484.21,339.85c7.31-8.41,24.2-5.7,37.73,6.06,14.34,12.47,14.74,34.98,11.25,36.52-1.87.82-3.59-4.87-10.48-7.73-10.84-4.51-18.6,4.59-27.25,1.68-11.47-3.87-19.43-27.1-11.25-36.52Z"/>
        </g>
        <g>
          <circle class="cls-26" cx="508.42" cy="361.55" r="7.13"/>
          <path class="cls-26" d="M486.86,333.06c9.65-7.54,27.3-1.07,39.43,14.44,12.85,16.45,8.56,40.82,4.48,41.75-2.19.5-2.86-6-9.68-10.54-10.75-7.14-21.03,1.05-29.75-3.91-11.56-6.58-15.28-33.31-4.48-41.75Z"/>
        </g>
        <g>
          <circle class="cls-27" cx="508.42" cy="361.55" r="7.84"/>
          <path class="cls-27" d="M491.13,326.3c11.99-6.11,29.68,4.57,39.5,23.85,10.42,20.44.68,45.83-3.93,45.98-2.46.08-1.82-7.07-8.23-13.4-10.1-9.96-22.91-3.27-31.27-10.45-11.09-9.52-9.5-39.14,3.93-45.98Z"/>
        </g>
        <g>
          <circle class="cls-12" cx="508.42" cy="361.55" r="8.61"/>
          <path class="cls-12" d="M497.16,319.9c14.22-4.08,31.06,11.15,37.61,34.01,6.95,24.24-8.88,49.58-13.88,48.77-2.67-.43-.48-8.01-6.07-16.18-8.81-12.86-24.02-8.33-31.54-17.83-9.97-12.6-2.04-44.21,13.88-48.77Z"/>
        </g>
        <g>
          <circle class="cls-19" cx="508.42" cy="361.55" r="9.46"/>
          <path class="cls-19" d="M505.01,314.26c16.19-1.42,31.16,18.54,33.44,44.57,2.41,27.6-19.97,51.62-25.19,49.7-2.79-1.03,1.16-8.74-3.16-18.72-6.8-15.72-24.17-14.03-30.28-25.85-8.11-15.68,7.07-48.12,25.19-49.7Z"/>
        </g>
        <g>
          <circle class="cls-1" cx="508.42" cy="361.55" r="10.4"/>
          <path class="cls-1" d="M514.65,309.82c17.76,1.87,29.73,26.53,26.73,55.09-3.18,30.28-32.37,51.49-37.6,48.33-2.8-1.69,3.08-9.19.52-20.86-4.04-18.39-23.13-20.2-27.25-34.23-5.46-18.61,17.72-50.42,37.6-48.33Z"/>
        </g>
        <g>
          <circle class="cls-21" cx="508.42" cy="361.55" r="11.43"/>
          <path class="cls-21" d="M525.99,307.06c18.77,5.74,26.51,34.85,17.28,65.03-9.78,32-45.71,48.76-50.69,44.25-2.66-2.41,5.25-9.27,4.93-22.39-.5-20.68-20.71-26.64-22.21-42.64-1.99-21.22,29.68-50.67,50.69-44.25Z"/>
        </g>
        <g>
          <circle class="cls-10" cx="508.42" cy="361.55" r="12.56"/>
          <path class="cls-10" d="M538.8,306.45c19.04,10.13,21.29,43.16,5.01,73.77-17.26,32.46-59.54,43.01-63.96,37.1-2.37-3.16,7.61-8.89,10.02-23.12,3.79-22.41-16.76-33.08-15.02-50.66,2.3-23.31,42.65-48.44,63.96-37.1Z"/>
        </g>
        <g>
          <circle class="cls-25" cx="508.42" cy="361.55" r="13.8"/>
          <path class="cls-25" d="M552.74,308.49c18.42,14.92,13.91,51.02-10.07,80.63-25.43,31.4-73.24,33.91-76.77,26.61-1.89-3.9,10.07-8,15.65-22.84,8.79-23.38-11.14-39.19-5.58-57.79,7.37-24.66,56.16-43.31,76.77-26.61Z"/>
        </g>
        <g>
          <circle class="cls-3" cx="508.42" cy="361.55" r="15.16"/>
          <path class="cls-3" d="M567.36,313.6c16.74,19.95,4.31,57.95-27.77,84.87-34.01,28.54-86.12,21.23-88.4,12.61-1.22-4.61,12.54-6.52,21.67-21.35,14.39-23.38-3.8-44.62,6.09-63.51,13.12-25.06,69.66-34.94,88.4-12.61Z"/>
        </g>
        <g>
          <circle class="cls-24" cx="508.41" cy="361.55" r="16.66"/>
          <path class="cls-24" d="M582.05,322.19c13.88,25.03-7.5,63.41-47.75,85.72-42.67,23.65-97.35,4.84-98-4.93-.35-5.23,14.9-4.4,27.86-18.49,20.42-22.2,5.26-48.92,19.89-67.23,19.41-24.28,82.47-23.09,98,4.93Z"/>
        </g>
        <g>
          <circle class="cls-23" cx="508.41" cy="361.55" r="18.31"/>
          <path class="cls-23" d="M596.09,334.53c9.72,29.91-21.39,66.83-69.48,82.46-50.99,16.57-106.02-15.19-104.68-25.87.72-5.71,16.99-1.62,33.93-14.1,26.68-19.67,15.93-51.67,35.55-68.35,26.03-22.12,93.8-7.61,104.68,25.87Z"/>
        </g>
        <g>
          <circle class="cls-15" cx="508.41" cy="361.54" r="20.12"/>
          <path class="cls-15" d="M608.66,350.78c4.21,34.31-37.09,67.61-92.24,74.38-58.48,7.18-111.18-38.62-107.49-49.86,1.97-6.01,18.67,1.81,39.55-8.1,32.91-15.62,28.02-52.4,52.69-66.28,32.72-18.4,102.78,11.46,107.49,49.86Z"/>
        </g>
        <g>
          <circle class="cls-29" cx="508.41" cy="361.54" r="22.11"/>
          <path class="cls-29" d="M618.81,370.95c-2.65,37.89-54.18,65.15-115.1,60.89-64.59-4.52-111.84-64.97-105.5-76.32,3.39-6.07,19.76,5.87,44.37-.44,38.77-9.95,41.21-50.65,70.73-60.45,39.15-12.99,108.47,33.91,105.5,76.32Z"/>
        </g>
        <g>
          <circle class="cls-13" cx="508.41" cy="361.54" r="24.3"/>
          <path class="cls-13" d="M625.53,394.84c-10.8,40.32-72.11,58.92-136.92,41.55-68.73-18.42-107.02-93.54-97.8-104.45,4.93-5.84,20.08,10.48,47.95,8.82,43.91-2.61,55.07-46,88.97-50.38,44.96-5.81,109.89,59.32,97.8,104.45Z"/>
        </g>
        <g>
          <circle class="cls-16" cx="508.41" cy="361.54" r="26.7"/>
          <path class="cls-16" d="M627.76,422.01c-20.11,41.23-90.14,48.44-156.41,16.11-70.27-34.28-95.83-123.34-83.6-133.18,6.54-5.26,19.47,15.51,49.88,19.57,47.91,6.4,69.05-38.07,106.54-35.69,49.71,3.16,106.11,87.04,83.6,133.18Z"/>
        </g>
        <g>
          <circle class="cls-8" cx="508.42" cy="361.53" r="29.35"/>
          <path class="cls-8" d="M624.48,451.8c-30.33,40.25-107.39,33.35-172.1-15.42-68.62-51.71-77.51-153.14-62.26-161.19,8.16-4.31,17.74,20.82,49.7,31.57,50.34,16.95,82.47-26.59,122.41-16.16,52.96,13.83,96.21,116.14,62.26,161.19Z"/>
        </g>
        <g>
          <circle class="cls-31" cx="508.42" cy="361.53" r="32.25"/>
          <path class="cls-31" d="M614.69,483.23c-41.16,37.06-122.83,13.46-182.42-52.72-63.18-70.17-51.5-181.44-33.36-186.93,9.7-2.93,14.78,26.17,46.99,44.48,50.75,28.84,94.53-11.39,135.43,8.24,54.23,26.03,79.43,145.45,33.36,186.93Z"/>
        </g>
        <g>
          <circle class="cls-14" cx="508.42" cy="361.53" r="35.44"/>
          <path class="cls-14" d="M597.54,515.09c-52.17,31.35-135.32-11.24-185.72-95.12-53.44-88.94-17.51-206.52,3.21-208.64,11.08-1.13,10.45,31.33,41.36,57.83,48.7,41.75,104.36,7.54,144.36,37.28,53.04,39.45,55.18,173.55-3.21,208.64Z"/>
        </g>
        <g>
          <circle class="cls-9" cx="508.42" cy="361.53" r="38.94"/>
          <path class="cls-9" d="M572.36,545.86c-62.85,22.88-143.62-40.5-180.4-141.54-39-107.14,24.42-226.45,47.21-224.39,12.19,1.1,4.7,35.99,32.49,71.06,43.78,55.25,111,30.01,147.91,70.49,48.94,53.67,23.13,198.78-47.21,224.39Z"/>
        </g>
        <g>
          <circle class="cls-22" cx="508.43" cy="361.53" r="42.79"/>
          <path class="cls-22" d="M538.74,573.78c-72.6,11.5-146.43-73.8-164.92-190.51-19.6-123.75,73.82-239.16,97.98-232.15,12.92,3.75-2.47,39.81,20.15,83.46,35.64,68.77,113.44,55.65,144.77,107.05,41.54,68.16-16.73,219.28-97.98,232.15Z"/>
        </g>
        <g>
          <circle class="cls-4" cx="508.43" cy="361.53" r="47.03"/>
          <path class="cls-4" d="M496.63,596.84c-80.72-2.82-142.49-110.31-137.95-240.09,4.81-137.6,129.78-242.5,154.37-229.88,13.15,6.75-11.01,42.43,4.24,94.26,24.03,81.66,110.7,83.82,133.72,145.83,30.52,82.24-64.02,233.03-154.37,229.88Z"/>
        </g>
        <g>
          <circle class="cls-2" cx="508.44" cy="361.53" r="51.68"/>
          <path class="cls-2" d="M446.36,612.89c-86.48-19.97-130.57-148.87-98.47-287.91,34.04-147.43,190.84-234.38,214.72-215.61,12.77,10.04-20.78,43.46-15.19,102.56,8.8,93.13,101.84,113.63,113.66,185.35,15.68,95.11-117.92,237.95-214.72,215.61Z"/>
        </g>
        <g>
          <circle class="cls-18" cx="508.44" cy="361.53" r="56.79"/>
          <path class="cls-18" d="M388.78,619.66c-89.1-39.67-109.63-187.96-45.85-331.22,67.63-151.89,255.01-212.81,276.83-187.55,11.67,13.51-31.52,42.52-37.89,107.45-10.04,102.3,86.03,143.92,83.75,223.77-3.03,105.88-177.1,231.96-276.83,187.55Z"/>
        </g>
        <g>
          <circle class="cls-5" cx="508.45" cy="361.53" r="62.4"/>
          <path class="cls-5" d="M325.24,614.88c-87.8-61.48-78.85-225.75,19.99-366.9,104.8-149.67,319.7-176.09,337.94-144.27,9.76,17.02-42.92,39.26-63.41,107.96-32.28,108.25,62.63,173.29,43.42,258.94-25.47,113.58-239.67,213.08-337.94,144.27Z"/>
        </g>
        <g>
          <circle class="cls-30" cx="508.46" cy="361.54" r="68.57"/>
          <path class="cls-30" d="M257.7,596.42c-81.82-84.73-37.72-260.05,98.5-391.59,144.43-139.47,381.79-122.92,394.79-84.77,6.95,20.4-54.53,33.35-91.04,103.16-57.52,110,31.22,200.06-7.46,288.43-51.29,117.18-303.22,179.6-394.79,84.77Z"/>
        </g>
        <g>
          <circle class="cls-20" cx="508.46" cy="361.54" r="75.36"/>
          <path class="cls-20" d="M188.72,562.33c-70.49-108.55,13.84-288.43,188.36-401.76,185.04-120.17,437.61-52.54,443.64-8.66,3.22,23.47-65.81,24.54-119.83,92.2-85.11,106.6-8.27,222.36-68.52,309.57-79.9,115.65-364.74,130.15-443.64,8.66Z"/>
        </g>
        <g>
          <circle class="cls-28" cx="508.47" cy="361.55" r="82.81"/>
          <path class="cls-28" d="M121.45,511.1c-53.28-131.88,75.4-308.23,287.42-393.89,224.81-90.83,483.07,35.09,480.38,83.68-1.44,25.99-76.14,12.67-148.6,74.33-114.16,97.15-55.55,238.12-138.83,319.56-110.44,108-420.74,63.92-480.38-83.68Z"/>
        </g>
        <g>
          <circle class="cls-6" cx="508.47" cy="361.56" r="91"/>
          <path class="cls-6" d="M59.64,441.73C29.81,288.3,205.6,125.05,452.28,77.1c261.55-50.84,513.74,139.14,500.64,190.99-7,27.73-84.79-2.3-175.88,49.02-143.52,80.85-109.85,245.22-216.76,315.61-141.78,93.34-467.26-19.27-500.64-190.99Z"/>
        </g>
        <g>
          <circle class="cls-11" cx="508.47" cy="361.57" r="100"/>
          <path class="cls-11" d="M7.5,353.94c0-171.76,223.86-311,500-311,292.79,0,525,257.81,500,311-13.37,28.45-90.98-20.26-200,16-171.77,57.13-169.91,241.49-300,295C334.99,735.9,7.5,546.18,7.5,353.94Z"/>
        </g>
      </g>
      <circle class="cls-32" cx="28.65" cy="193.5" r="7.5"/>
      <circle class="cls-32" cx="203.65" cy="58.5" r="7.5"/>
      <circle class="cls-32" cx="99.65" cy="109.5" r="7.5"/>
      <circle class="cls-32" cx="157.65" cy="92.5" r="7.5"/>
      <circle class="cls-32" cx="143.65" cy="53.5" r="7.5"/>
      <circle class="cls-32" cx="361.65" cy="21.5" r="7.5"/>
      <circle class="cls-32" cx="139.15" cy="113" r="5"/>
      <circle class="cls-32" cx="72.15" cy="152" r="5"/>
      <circle class="cls-32" cx="232.15" cy="79" r="5"/>
      <circle class="cls-32" cx="339.15" cy="43" r="5"/>
      <circle class="cls-32" cx="401.15" cy="5" r="5"/>
    </g>
  </g>
</svg>