<?xml version="1.0" encoding="UTF-8"?>
<svg id="Layer_2" xmlns="http://www.w3.org/2000/svg" viewBox="0 0 825.33 825.33">
  <defs>
    <style>
      .cls-1 {
        stroke-dasharray: 0 5.2;
        stroke-width: 1.56px;
      }

      .cls-1, .cls-2, .cls-3, .cls-4, .cls-5, .cls-6, .cls-7, .cls-8, .cls-9, .cls-10, .cls-11, .cls-12, .cls-13, .cls-14, .cls-15, .cls-16, .cls-17, .cls-18, .cls-19, .cls-20, .cls-21, .cls-22, .cls-23, .cls-24, .cls-25, .cls-26, .cls-27, .cls-28, .cls-29, .cls-30, .cls-31 {
        fill: none;
        stroke: #ff8d86;
        stroke-linecap: round;
        stroke-linejoin: round;
      }

      .cls-2 {
        stroke-dasharray: 0 25.84;
        stroke-width: 7.75px;
      }

      .cls-3 {
        stroke-dasharray: 0 7.58;
        stroke-width: 2.27px;
      }

      .cls-4 {
        stroke-dasharray: 0 23.51;
        stroke-width: 7.05px;
      }

      .cls-5 {
        stroke-dasharray: 0 31.2;
        stroke-width: 9.36px;
      }

      .cls-6 {
        stroke-dasharray: 0 45.5;
        stroke-width: 13.65px;
      }

      .cls-7 {
        stroke-dasharray: 0 2.95;
        stroke-width: .89px;
      }

      .cls-8 {
        stroke-dasharray: 0 14.67;
        stroke-width: 4.4px;
      }

      .cls-9 {
        stroke-dasharray: 0 19.47;
        stroke-width: 5.84px;
      }

      .cls-10 {
        stroke-dasharray: 0 6.28;
        stroke-width: 1.88px;
      }

      .cls-11 {
        stroke-dasharray: 0 50;
        stroke-width: 15px;
      }

      .cls-12 {
        stroke-dasharray: 0 4.31;
        stroke-width: 1.29px;
      }

      .cls-13 {
        stroke-dasharray: 0 12.15;
        stroke-width: 3.65px;
      }

      .cls-14 {
        stroke-dasharray: 0 17.72;
        stroke-width: 5.32px;
      }

      .cls-15 {
        stroke-dasharray: 0 10.06;
        stroke-width: 3.02px;
      }

      .cls-16 {
        stroke-dasharray: 0 13.35;
        stroke-width: 4.01px;
      }

      .cls-17 {
        stroke-dasharray: 0 3.24;
        stroke-width: .97px;
      }

      .cls-18 {
        stroke-dasharray: 0 28.39;
        stroke-width: 8.52px;
      }

      .cls-19 {
        stroke-dasharray: 0 4.73;
        stroke-width: 1.42px;
      }

      .cls-20 {
        stroke-dasharray: 0 37.68;
        stroke-width: 11.3px;
      }

      .cls-21 {
        stroke-dasharray: 0 5.71;
        stroke-width: 1.71px;
      }

      .cls-22 {
        stroke-dasharray: 0 21.4;
        stroke-width: 6.42px;
      }

      .cls-23 {
        stroke-dasharray: 0 9.16;
        stroke-width: 2.75px;
      }

      .cls-24 {
        stroke-dasharray: 0 8.33;
        stroke-width: 2.5px;
      }

      .cls-25 {
        stroke-dasharray: 0 6.9;
        stroke-width: 2.07px;
      }

      .cls-26 {
        stroke-dasharray: 0 3.57;
        stroke-width: 1.07px;
      }

      .cls-27 {
        stroke-dasharray: 0 3.92;
        stroke-width: 1.18px;
      }

      .cls-28 {
        stroke-dasharray: 0 41.4;
        stroke-width: 12.42px;
      }

      .cls-29 {
        stroke-dasharray: 0 11.06;
        stroke-width: 3.32px;
      }

      .cls-30 {
        stroke-dasharray: 0 34.29;
        stroke-width: 10.29px;
      }

      .cls-31 {
        stroke-dasharray: 0 16.12;
        stroke-width: 4.84px;
      }
    </style>
  </defs>
  <g id="high_good">
    <g>
      <path class="cls-7" d="M414.1,398.43l6.31-8.94c1.08-1.53,3.48-.53,3.16,1.31l-1.86,10.78c-.21,1.2.83,2.23,2.03,2.03l10.78-1.86c1.84-.32,2.84,2.09,1.31,3.16l-8.94,6.31c-.99.7-.99,2.17,0,2.87l8.94,6.31c1.53,1.08.53,3.48-1.31,3.16l-10.78-1.86c-1.2-.21-2.23.83-2.03,2.03l1.86,10.78c.32,1.84-2.09,2.84-3.16,1.31l-6.31-8.94c-.7-.99-2.17-.99-2.87,0l-6.31,8.94c-1.08,1.53-3.48.53-3.16-1.31l1.86-10.78c.21-1.2-.83-2.23-2.03-2.03l-10.78,1.86c-1.84.32-2.84-2.09-1.31-3.16l8.94-6.31c.99-.7.99-2.17,0-2.87l-8.94-6.31c-1.53-1.08-.53-3.48,1.31-3.16l10.78,1.86c1.2.21,2.23-.83,2.03-2.03l-1.86-10.78c-.32-1.84,2.09-2.84,3.16-1.31l6.31,8.94c.7.99,2.17.99,2.87,0Z"/>
      <path class="cls-17" d="M407.87,427.64l-8.83,8.17c-1.51,1.4-3.87-.22-3.1-2.13l4.46-11.17c.49-1.24-.39-2.59-1.72-2.64l-12.01-.47c-2.05-.08-2.58-2.89-.69-3.7l11.05-4.74c1.22-.53,1.56-2.11.66-3.08l-8.17-8.83c-1.4-1.51.22-3.87,2.13-3.1l11.17,4.46c1.24.49,2.59-.39,2.64-1.72l.47-12.01c.08-2.05,2.89-2.58,3.7-.69l4.74,11.05c.53,1.22,2.11,1.56,3.08.66l8.83-8.17c1.51-1.4,3.87.22,3.1,2.13l-4.46,11.17c-.49,1.24.39,2.59,1.72,2.64l12.01.47c2.05.08,2.58,2.89.69,3.7l-11.05,4.74c-1.22.53-1.56,2.11-.66,3.08l8.17,8.83c1.4,1.51-.22,3.87-2.13,3.1l-11.17-4.46c-1.24-.49-2.59.39-2.64,1.72l-.47,12.01c-.08,2.05-2.89,2.58-3.7.69l-4.74-11.05c-.53-1.22-2.11-1.56-3.08-.66Z"/>
      <path class="cls-26" d="M421.24,397.66l11.35-6.76c1.94-1.16,4.1,1.12,2.85,3l-7.34,10.98c-.81,1.22-.18,2.87,1.24,3.23l12.81,3.25c2.19.56,2.11,3.7-.11,4.14l-12.96,2.57c-1.44.29-2.16,1.91-1.41,3.16l6.76,11.35c1.16,1.94-1.12,4.1-3,2.85l-10.98-7.34c-1.22-.81-2.87-.18-3.23,1.24l-3.25,12.81c-.56,2.19-3.7,2.11-4.14-.11l-2.57-12.96c-.29-1.44-1.91-2.16-3.16-1.41l-11.35,6.76c-1.94,1.16-4.1-1.12-2.85-3l7.34-10.98c.81-1.22.18-2.87-1.24-3.23l-12.81-3.25c-2.19-.56-2.11-3.7.11-4.14l12.96-2.57c1.44-.29,2.16-1.91,1.41-3.16l-6.76-11.35c-1.16-1.94,1.12-4.1,3-2.85l10.98,7.34c1.22.81,2.87.18,3.23-1.24l3.25-12.81c.56-2.19,3.7-2.11,4.14.11l2.57,12.96c.29,1.44,1.91,2.16,3.16,1.41Z"/>
      <path class="cls-27" d="M400.02,426.83l-13.75,4.67c-2.35.8-4.15-2.14-2.38-3.88l10.4-10.13c1.15-1.12.85-3.05-.6-3.76l-13.02-6.42c-2.23-1.1-1.42-4.45,1.06-4.42l14.52.2c1.61.02,2.76-1.56,2.24-3.08l-4.67-13.75c-.8-2.35,2.14-4.15,3.88-2.38l10.13,10.4c1.12,1.15,3.05.85,3.76-.6l6.42-13.02c1.1-2.23,4.45-1.42,4.42,1.06l-.2,14.52c-.02,1.61,1.56,2.76,3.08,2.24l13.75-4.67c2.35-.8,4.15,2.14,2.38,3.88l-10.4,10.13c-1.15,1.12-.85,3.05.6,3.76l13.02,6.42c2.23,1.1,1.42,4.45-1.06,4.42l-14.52-.2c-1.61-.02-2.76,1.56-2.24,3.08l4.67,13.75c.8,2.35-2.14,4.15-3.88,2.38l-10.13-10.4c-1.12-1.15-3.05-.85-3.76.6l-6.42,13.02c-1.1,2.23-4.45,1.42-4.42-1.06l.2-14.52c.02-1.61-1.56-2.76-3.08-2.24Z"/>
      <path class="cls-12" d="M429.49,400.33l15.84-1.88c2.71-.32,3.98,3.25,1.67,4.71l-13.5,8.51c-1.5.94-1.61,3.08-.22,4.18l12.53,9.87c2.14,1.69.51,5.11-2.15,4.51l-15.56-3.53c-1.72-.39-3.32,1.04-3.11,2.8l1.88,15.84c.32,2.71-3.25,3.98-4.71,1.67l-8.51-13.5c-.94-1.5-3.08-1.61-4.18-.22l-9.87,12.53c-1.69,2.14-5.11.51-4.51-2.15l3.53-15.56c.39-1.72-1.04-3.32-2.8-3.11l-15.84,1.88c-2.71.32-3.98-3.25-1.67-4.71l13.5-8.51c1.5-.94,1.61-3.08.22-4.18l-12.53-9.87c-2.14-1.69-.51-5.11,2.15-4.51l15.56,3.53c1.72.39,3.32-1.04,3.11-2.8l-1.88-15.84c-.32-2.71,3.25-3.98,4.71-1.67l8.51,13.5c.94,1.5,3.08,1.61,4.18.22l9.87-12.53c1.69-2.14,5.11-.51,4.51,2.15l-3.53,15.56c-.39,1.72,1.04,3.32,2.8,3.11Z"/>
      <path class="cls-19" d="M391.75,422.08l-17.46-1.6c-2.99-.27-3.53-4.41-.72-5.44l16.45-6.06c1.82-.67,2.43-2.95,1.19-4.44l-11.22-13.48c-1.92-2.31.62-5.61,3.34-4.36l15.92,7.35c1.76.81,3.8-.36,3.98-2.3l1.6-17.46c.27-2.99,4.41-3.53,5.44-.72l6.06,16.45c.67,1.82,2.95,2.43,4.44,1.19l13.48-11.22c2.31-1.92,5.61.62,4.36,3.34l-7.35,15.92c-.81,1.76.36,3.8,2.3,3.98l17.46,1.6c2.99.27,3.53,4.41.72,5.44l-16.45,6.06c-1.82.67-2.43,2.95-1.19,4.44l11.22,13.48c1.92,2.31-.62,5.61-3.34,4.36l-15.92-7.35c-1.76-.81-3.8.36-3.98,2.3l-1.6,17.46c-.27,2.99-4.41,3.53-5.44.72l-6.06-16.45c-.67-1.82-2.95-2.43-4.44-1.19l-13.48,11.22c-2.31,1.92-5.61-.62-4.36-3.34l7.35-15.92c.81-1.76-.36-3.8-2.3-3.98Z"/>
      <path class="cls-1" d="M437.29,407.32l18.4,5.71c3.15.98,2.79,5.54-.47,6.01l-19.07,2.76c-2.11.31-3.29,2.61-2.29,4.5l8.98,17.05c1.54,2.92-1.95,5.89-4.59,3.92l-15.43-11.53c-1.71-1.28-4.17-.48-4.8,1.56l-5.71,18.4c-.98,3.15-5.54,2.79-6.01-.47l-2.76-19.07c-.31-2.11-2.61-3.29-4.5-2.29l-17.05,8.98c-2.92,1.54-5.89-1.95-3.92-4.59l11.53-15.43c1.28-1.71.48-4.17-1.56-4.8l-18.4-5.71c-3.15-.98-2.79-5.54.47-6.01l19.07-2.76c2.11-.31,3.29-2.61,2.29-4.5l-8.98-17.05c-1.54-2.92,1.95-5.89,4.59-3.92l15.43,11.53c1.71,1.28,4.17.48,4.8-1.56l5.71-18.4c.98-3.15,5.54-2.79,6.01.47l2.76,19.07c.31,2.11,2.61,3.29,4.5,2.29l17.05-8.98c2.92-1.54,5.89,1.95,3.92,4.59l-11.53,15.43c-1.28,1.71-.48,4.17,1.56,4.8Z"/>
      <path class="cls-21" d="M384.97,412.78l-18.48-10.34c-3.16-1.77-1.73-6.59,1.88-6.36l21.13,1.39c2.34.15,4.13-2.06,3.49-4.31l-5.75-20.38c-.98-3.49,3.44-5.89,5.83-3.16l13.95,15.92c1.55,1.77,4.37,1.47,5.52-.58l10.34-18.48c1.77-3.16,6.59-1.73,6.36,1.88l-1.39,21.13c-.15,2.34,2.06,4.13,4.31,3.49l20.38-5.75c3.49-.98,5.89,3.44,3.16,5.83l-15.92,13.95c-1.77,1.55-1.47,4.37.58,5.52l18.48,10.34c3.16,1.77,1.73,6.59-1.88,6.36l-21.13-1.39c-2.34-.15-4.13,2.06-3.49,4.31l5.75,20.38c.98,3.49-3.44,5.89-5.83,3.16l-13.95-15.92c-1.55-1.77-4.37-1.47-5.52.58l-10.34,18.48c-1.77,3.16-6.59,1.73-6.36-1.88l1.39-21.13c.15-2.34-2.06-4.13-4.31-3.49l-20.38,5.75c-3.49.98-5.89-3.44-3.16-5.83l15.92-13.95c1.77-1.55,1.47-4.37-.58-5.52Z"/>
      <path class="cls-10" d="M442.46,418.86l17.5,15.33c2.99,2.62.35,7.48-3.48,6.4l-22.39-6.32c-2.48-.7-4.91,1.27-4.74,3.84l1.53,23.22c.26,3.97-5.04,5.54-6.98,2.07l-11.36-20.31c-1.26-2.25-4.37-2.58-6.07-.64l-15.33,17.5c-2.62,2.99-7.48.35-6.4-3.48l6.32-22.39c.7-2.48-1.27-4.91-3.84-4.74l-23.22,1.53c-3.97.26-5.54-5.04-2.07-6.98l20.31-11.36c2.25-1.26,2.58-4.37.64-6.07l-17.5-15.33c-2.99-2.62-.35-7.48,3.48-6.4l22.39,6.32c2.48.7,4.91-1.27,4.74-3.84l-1.53-23.22c-.26-3.97,5.04-5.54,6.98-2.07l11.36,20.31c1.26,2.25,4.37,2.58,6.07.64l15.33-17.5c2.62-2.99,7.48-.35,6.4,3.48l-6.32,22.39c-.7,2.48,1.27,4.91,3.84,4.74l23.22-1.53c3.97-.26,5.54,5.04,2.07,6.98l-20.31,11.36c-2.25,1.26-2.58,4.37-.64,6.07Z"/>
      <path class="cls-25" d="M382.06,399.19l-15.31-20.48c-2.62-3.5,1.33-8.12,5.2-6.09l22.62,11.91c2.51,1.32,5.57-.24,5.97-3.04l3.66-25.31c.63-4.33,6.69-4.81,7.98-.63l7.57,24.42c.84,2.71,4.11,3.77,6.38,2.07l20.48-15.31c3.5-2.62,8.12,1.33,6.09,5.2l-11.91,22.62c-1.32,2.51.24,5.57,3.04,5.97l25.31,3.66c4.33.63,4.81,6.69.63,7.98l-24.42,7.57c-2.71.84-3.77,4.11-2.07,6.38l15.31,20.48c2.62,3.5-1.33,8.12-5.2,6.09l-22.62-11.91c-2.51-1.32-5.57.24-5.97,3.04l-3.66,25.31c-.63,4.33-6.69,4.81-7.98.63l-7.57-24.42c-.84-2.71-4.11-3.77-6.38-2.07l-20.48,15.31c-3.5,2.62-8.12-1.33-6.09-5.2l11.91-22.62c1.32-2.51-.24-5.57-3.04-5.97l-25.31-3.66c-4.33-.63-4.81-6.69-.63-7.98l24.42-7.57c2.71-.84,3.77-4.11,2.07-6.38Z"/>
      <path class="cls-3" d="M442.49,434.14l11.77,25.51c2.01,4.36-3.29,8.43-6.98,5.36l-21.6-17.97c-2.39-1.99-6.04-1.02-7.12,1.91l-9.72,26.36c-1.66,4.51-8.28,3.64-8.72-1.15l-2.56-27.98c-.28-3.1-3.55-4.99-6.38-3.68l-25.51,11.77c-4.36,2.01-8.43-3.29-5.36-6.98l17.97-21.6c1.99-2.39,1.02-6.04-1.91-7.12l-26.36-9.72c-4.51-1.66-3.64-8.28,1.15-8.72l27.98-2.56c3.1-.28,4.99-3.55,3.68-6.38l-11.77-25.51c-2.01-4.36,3.29-8.43,6.98-5.36l21.6,17.97c2.39,1.99,6.04,1.02,7.12-1.91l9.72-26.36c1.66-4.51,8.28-3.64,8.72,1.15l2.56,27.98c.28,3.1,3.55,4.99,6.38,3.68l25.51-11.77c4.36-2.01,8.43,3.29,5.36,6.98l-17.97,21.6c-1.99,2.39-1.02,6.04,1.91,7.12l26.36,9.72c4.51,1.66,3.64,8.28-1.15,8.72l-27.98,2.56c-3.1.28-4.99,3.55-3.68,6.38Z"/>
      <path class="cls-24" d="M385.51,382.77l-6.83-30.11c-1.17-5.15,5.46-8.31,8.73-4.16l19.11,24.26c2.12,2.69,6.26,2.47,8.08-.42l16.47-26.12c2.82-4.47,9.74-2.02,9.11,3.23l-3.64,30.66c-.4,3.4,2.68,6.17,6.02,5.42l30.11-6.83c5.15-1.17,8.31,5.46,4.16,8.73l-24.26,19.11c-2.69,2.12-2.47,6.26.42,8.08l26.12,16.47c4.47,2.82,2.02,9.74-3.23,9.11l-30.66-3.64c-3.4-.4-6.17,2.68-5.42,6.02l6.83,30.11c1.17,5.15-5.46,8.31-8.73,4.16l-19.11-24.26c-2.12-2.69-6.26-2.47-8.08.42l-16.47,26.12c-2.82,4.47-9.74,2.02-9.11-3.23l3.64-30.66c.4-3.4-2.68-6.17-6.02-5.42l-30.11,6.83c-5.15,1.17-8.31-5.46-4.16-8.73l24.26-19.11c2.69-2.12,2.47-6.26-.42-8.08l-26.12-16.47c-4.47-2.82-2.02-9.74,3.23-9.11l30.66,3.64c3.4.4,6.17-2.68,5.42-6.02Z"/>
      <path class="cls-23" d="M435.02,451l.46,33.93c.08,5.8-7.76,7.69-10.33,2.48l-15-30.44c-1.66-3.37-6.16-4.09-8.79-1.39l-23.67,24.31c-4.05,4.16-10.93-.06-9.06-5.55l10.92-32.13c1.21-3.56-1.47-7.25-5.23-7.2l-33.93.46c-5.8.08-7.69-7.76-2.48-10.33l30.44-15c3.37-1.66,4.09-6.16,1.39-8.79l-24.31-23.67c-4.16-4.05.06-10.93,5.55-9.06l32.13,10.92c3.56,1.21,7.25-1.47,7.2-5.23l-.46-33.93c-.08-5.8,7.76-7.69,10.33-2.48l15,30.44c1.66,3.37,6.16,4.09,8.79,1.39l23.67-24.31c4.05-4.16,10.93.06,9.06,5.55l-10.92,32.13c-1.21,3.56,1.47,7.25,5.23,7.2l33.93-.46c5.8-.08,7.69,7.76,2.48,10.33l-30.44,15c-3.37,1.66-4.09,6.16-1.39,8.79l24.31,23.67c4.16,4.05-.06,10.93-5.55,9.06l-32.13-10.92c-3.56-1.21-7.25,1.47-7.2,5.23Z"/>
      <path class="cls-15" d="M397.39,366.35l7.26-36.57c1.24-6.26,10.1-6.49,11.67-.31l9.16,36.14c1.02,4.01,5.69,5.8,9.13,3.5l30.99-20.73c5.3-3.55,11.73,2.56,8.47,8.04l-19.08,32.04c-2.11,3.55-.08,8.13,3.98,8.93l36.57,7.26c6.26,1.24,6.49,10.1.31,11.67l-36.14,9.16c-4.01,1.02-5.8,5.69-3.5,9.13l20.73,30.99c3.55,5.3-2.56,11.73-8.04,8.47l-32.04-19.08c-3.55-2.11-8.13-.08-8.93,3.98l-7.26,36.57c-1.24,6.26-10.1,6.49-11.67.31l-9.16-36.14c-1.02-4.01-5.69-5.8-9.13-3.5l-30.99,20.73c-5.3,3.55-11.73-2.56-8.47-8.04l19.08-32.04c2.11-3.55.08-8.13-3.98-8.93l-36.57-7.26c-6.26-1.24-6.49-10.1-.31-11.67l36.14-9.16c4.01-1.02,5.8-5.69,3.5-9.13l-20.73-30.99c-3.55-5.3,2.56-11.73,8.04-8.47l32.04,19.08c3.55,2.11,8.13.08,8.93-3.98Z"/>
      <path class="cls-29" d="M418.5,465.94l-16.16,37.65c-2.76,6.44-12.34,4.66-12.61-2.34l-1.59-40.94c-.18-4.54-4.79-7.54-9.01-5.85l-38.05,15.2c-6.51,2.6-12.02-5.43-7.27-10.57l27.82-30.08c3.08-3.33,1.94-8.72-2.23-10.51l-37.65-16.16c-6.44-2.76-4.66-12.34,2.34-12.61l40.94-1.59c4.54-.18,7.54-4.79,5.85-9.01l-15.2-38.05c-2.6-6.51,5.43-12.02,10.57-7.27l30.08,27.82c3.33,3.08,8.72,1.94,10.51-2.23l16.16-37.65c2.76-6.44,12.34-4.66,12.61,2.34l1.59,40.94c.18,4.54,4.79,7.54,9.01,5.85l38.05-15.2c6.51-2.6,12.02,5.43,7.27,10.57l-27.82,30.08c-3.08,3.33-1.94,8.72,2.23,10.51l37.65,16.16c6.44,2.76,4.66,12.34-2.34,12.61l-40.94,1.59c-4.54.18-7.54,4.79-5.85,9.01l15.2,38.05c2.6,6.51-5.43,12.02-10.57,7.27l-30.08-27.82c-3.33-3.08-8.72-1.94-10.51,2.23Z"/>
      <path class="cls-13" d="M418.57,354.07l25.97-36.78c4.44-6.29,14.33-2.19,13.02,5.39l-7.64,44.37c-.85,4.92,3.43,9.19,8.35,8.35l44.37-7.64c7.59-1.31,11.69,8.58,5.39,13.02l-36.78,25.97c-4.08,2.88-4.08,8.93,0,11.81l36.78,25.97c6.29,4.44,2.19,14.33-5.39,13.02l-44.37-7.64c-4.92-.85-9.19,3.43-8.35,8.35l7.64,44.37c1.31,7.59-8.58,11.69-13.02,5.39l-25.97-36.78c-2.88-4.08-8.93-4.08-11.81,0l-25.97,36.78c-4.44,6.29-14.33,2.19-13.02-5.39l7.64-44.37c.85-4.92-3.43-9.19-8.35-8.35l-44.37,7.64c-7.59,1.31-11.69-8.58-5.39-13.02l36.78-25.97c4.08-2.88,4.08-8.93,0-11.81l-36.78-25.97c-6.29-4.44-2.19-14.33,5.39-13.02l44.37,7.64c4.92.85,9.19-3.43,8.35-8.35l-7.64-44.37c-1.31-7.59,8.58-11.69,13.02-5.39l25.97,36.78c2.88,4.08,8.93,4.08,11.81,0Z"/>
      <path class="cls-16" d="M392.93,474.3l-36.32,33.6c-6.21,5.75-15.91-.92-12.77-8.77l18.35-45.95c2.03-5.09-1.58-10.67-7.07-10.88l-49.44-1.92c-8.46-.33-10.6-11.89-2.82-15.23l45.47-19.51c5.04-2.16,6.42-8.66,2.7-12.69l-33.6-36.32c-5.75-6.21.92-15.91,8.77-12.77l45.95,18.35c5.09,2.03,10.67-1.58,10.88-7.07l1.92-49.44c.33-8.46,11.89-10.6,15.23-2.82l19.51,45.47c2.16,5.04,8.66,6.42,12.69,2.7l36.32-33.6c6.21-5.75,15.91.92,12.77,8.77l-18.35,45.95c-2.03,5.09,1.58,10.67,7.07,10.88l49.44,1.92c8.46.33,10.6,11.89,2.82,15.23l-45.47,19.51c-5.04,2.16-6.42,8.66-2.7,12.69l33.6,36.32c5.75,6.21-.92,15.91-8.77,12.77l-45.95-18.35c-5.09-2.03-10.67,1.58-10.88,7.07l-1.92,49.44c-.33,8.46-11.89,10.6-15.23,2.82l-19.51-45.47c-2.16-5.04-8.66-6.42-12.69-2.7Z"/>
      <path class="cls-8" d="M447.95,350.92l46.72-27.82c7.99-4.76,16.89,4.62,11.72,12.35l-30.22,45.2c-3.35,5.01-.73,11.83,5.11,13.31l52.7,13.36c9.01,2.29,8.68,15.21-.45,17.02l-53.33,10.59c-5.91,1.17-8.88,7.84-5.8,13.02l27.82,46.72c4.76,7.99-4.62,16.89-12.35,11.72l-45.2-30.22c-5.01-3.35-11.83-.73-13.31,5.11l-13.36,52.7c-2.29,9.01-15.21,8.68-17.02-.45l-10.59-53.33c-1.17-5.91-7.84-8.88-13.02-5.8l-46.72,27.82c-7.99,4.76-16.89-4.62-11.72-12.35l30.22-45.2c3.35-5.01.73-11.83-5.11-13.31l-52.7-13.36c-9.01-2.29-8.68-15.21.45-17.02l53.33-10.59c5.91-1.17,8.88-7.84,5.8-13.02l-27.82-46.72c-4.76-7.99,4.62-16.89,12.35-11.72l45.2,30.22c5.01,3.35,11.83.73,13.31-5.11l13.36-52.7c2.29-9.01,15.21-8.68,17.02.45l10.59,53.33c1.17,5.91,7.84,8.88,13.02,5.8Z"/>
      <path class="cls-31" d="M360.62,470.96l-56.57,19.23c-9.68,3.29-17.1-8.82-9.77-15.95l42.81-41.68c4.75-4.62,3.49-12.55-2.45-15.47l-53.6-26.41c-9.17-4.52-5.85-18.33,4.37-18.19l59.74.8c6.62.09,11.34-6.4,9.21-12.67l-19.23-56.57c-3.29-9.68,8.82-17.1,15.95-9.77l41.68,42.81c4.62,4.75,12.55,3.49,15.47-2.45l26.41-53.6c4.52-9.17,18.33-5.85,18.19,4.37l-.8,59.74c-.09,6.62,6.4,11.34,12.67,9.21l56.57-19.23c9.68-3.29,17.1,8.82,9.77,15.95l-42.81,41.68c-4.75,4.62-3.49,12.55,2.45,15.47l53.6,26.41c9.17,4.52,5.85,18.33-4.37,18.19l-59.74-.8c-6.62-.09-11.34,6.4-9.21,12.67l19.23,56.57c3.29,9.68-8.82,17.1-15.95,9.77l-41.68-42.81c-4.62-4.75-12.55-3.49-15.47,2.45l-26.41,53.6c-4.52,9.17-18.33,5.85-18.19-4.37l.8-59.74c.09-6.62-6.4-11.34-12.67-9.21Z"/>
      <path class="cls-14" d="M481.92,361.89l65.2-7.74c11.15-1.32,16.36,13.39,6.86,19.38l-55.54,35.02c-6.16,3.88-6.62,12.69-.9,17.19l51.58,40.63c8.82,6.95,2.1,21.04-8.85,18.55l-64.04-14.51c-7.1-1.61-13.65,4.29-12.79,11.52l7.74,65.2c1.32,11.15-13.39,16.36-19.38,6.86l-35.02-55.54c-3.88-6.16-12.69-6.62-17.19-.9l-40.63,51.58c-6.95,8.82-21.04,2.1-18.55-8.85l14.51-64.04c1.61-7.1-4.29-13.65-11.52-12.79l-65.2,7.74c-11.15,1.32-16.36-13.39-6.86-19.38l55.54-35.02c6.16-3.88,6.62-12.69.9-17.19l-51.58-40.63c-8.82-6.95-2.1-21.04,8.85-18.55l64.04,14.51c7.1,1.61,13.65-4.29,12.79-11.52l-7.74-65.2c-1.32-11.15,13.39-16.36,19.38-6.86l35.02,55.54c3.88,6.16,12.69,6.62,17.19.9l40.63-51.58c6.95-8.82,21.04-2.1,18.55,8.85l-14.51,64.04c-1.61,7.1,4.29,13.65,11.52,12.79Z"/>
      <path class="cls-9" d="M326.62,451.42l-71.85-6.58c-12.29-1.12-14.53-18.13-2.95-22.4l67.7-24.95c7.5-2.77,10.01-12.13,4.9-18.27l-46.16-55.46c-7.89-9.49,2.55-23.09,13.75-17.92l65.51,30.23c7.26,3.35,15.65-1.49,16.38-9.46l6.58-71.85c1.12-12.29,18.13-14.53,22.4-2.95l24.95,67.7c2.77,7.5,12.13,10.01,18.27,4.9l55.46-46.16c9.49-7.89,23.09,2.55,17.92,13.75l-30.23,65.51c-3.35,7.26,1.49,15.65,9.46,16.38l71.85,6.58c12.29,1.12,14.53,18.13,2.95,22.4l-67.7,24.95c-7.5,2.77-10.01,12.13-4.9,18.27l46.16,55.46c7.89,9.49-2.55,23.09-13.75,17.92l-65.51-30.23c-7.26-3.35-15.65,1.49-16.38,9.46l-6.58,71.85c-1.12,12.29-18.13,14.53-22.4,2.95l-24.95-67.7c-2.77-7.5-12.13-10.01-18.27-4.9l-55.46,46.16c-9.49,7.89-23.09-2.55-17.92-13.75l30.23-65.51c3.35-7.26-1.49-15.65-9.46-16.38Z"/>
      <path class="cls-22" d="M514.01,390.67l75.73,23.48c12.95,4.02,11.47,22.81-1.95,24.75l-78.47,11.35c-8.7,1.26-13.53,10.75-9.44,18.52l36.94,70.16c6.32,12-8.01,24.24-18.88,16.12l-63.51-47.46c-7.04-5.26-17.17-1.97-19.77,6.42l-23.48,75.73c-4.02,12.95-22.81,11.47-24.75-1.95l-11.35-78.47c-1.26-8.7-10.75-13.53-18.52-9.44l-70.16,36.94c-12,6.32-24.24-8.01-16.12-18.88l47.46-63.51c5.26-7.04,1.97-17.17-6.42-19.77l-75.73-23.48c-12.95-4.02-11.47-22.81,1.95-24.75l78.47-11.35c8.7-1.26,13.53-10.75,9.44-18.52l-36.94-70.16c-6.32-12,8.01-24.24,18.88-16.12l63.51,47.46c7.04,5.26,17.17,1.97,19.77-6.42l23.48-75.73c4.02-12.95,22.81-11.47,24.75,1.95l11.35,78.47c1.26,8.7,10.75,13.53,18.52,9.44l70.16-36.94c12-6.32,24.24,8.01,16.12,18.88l-47.46,63.51c-5.26,7.04-1.97,17.17,6.42,19.77Z"/>
      <path class="cls-4" d="M298.71,413.16l-76.04-42.55c-13.01-7.28-7.12-27.14,7.75-26.16l86.94,5.73c9.64.64,17-8.46,14.38-17.75l-23.68-83.85c-4.05-14.34,14.15-24.22,23.97-13.02l57.43,65.53c6.37,7.26,18,6.04,22.72-2.39l42.55-76.04c7.28-13.01,27.14-7.12,26.16,7.75l-5.73,86.94c-.64,9.64,8.46,17,17.75,14.38l83.85-23.68c14.34-4.05,24.22,14.15,13.02,23.97l-65.53,57.43c-7.26,6.37-6.04,18,2.39,22.72l76.04,42.55c13.01,7.28,7.12,27.14-7.75,26.16l-86.94-5.73c-9.64-.64-17,8.46-14.38,17.75l23.68,83.85c4.05,14.34-14.15,24.22-23.97,13.02l-57.43-65.53c-6.37-7.26-18-6.04-22.72,2.39l-42.55,76.04c-7.28,13.01-27.14,7.12-26.16-7.75l5.73-86.94c.64-9.64-8.46-17-17.75-14.38l-83.85,23.68c-14.34,4.05-24.22-14.15-13.02-23.97l65.53-57.43c7.26-6.37,6.04-18-2.39-22.72Z"/>
      <path class="cls-2" d="M535.27,438.17l72.01,63.1c12.32,10.79,1.46,30.8-14.3,26.34l-92.14-26.02c-10.21-2.88-20.21,5.21-19.51,15.8l6.3,95.54c1.08,16.34-20.75,22.81-28.74,8.51l-46.75-83.56c-5.18-9.26-17.97-10.61-24.97-2.62l-63.1,72.01c-10.79,12.32-30.8,1.46-26.34-14.3l26.02-92.14c2.88-10.21-5.21-20.21-15.8-19.51l-95.54,6.3c-16.34,1.08-22.81-20.75-8.51-28.74l83.56-46.75c9.26-5.18,10.61-17.97,2.62-24.97l-72.01-63.1c-12.32-10.79-1.46-30.8,14.3-26.34l92.14,26.02c10.21,2.88,20.21-5.21,19.51-15.8l-6.3-95.54c-1.08-16.34,20.75-22.81,28.74-8.51l46.75,83.56c5.18,9.26,17.97,10.61,24.97,2.62l63.1-72.01c10.79-12.32,30.8-1.46,26.34,14.3l-26.02,92.14c-2.88,10.21,5.21,20.21,15.8,19.51l95.54-6.3c16.34-1.08,22.81,20.75,8.51,28.74l-83.56,46.75c-9.26,5.18-10.61,17.97-2.62,24.97Z"/>
      <path class="cls-18" d="M286.71,357.23l-62.99-84.28c-10.77-14.42,5.47-33.43,21.39-25.05l93.1,49.03c10.32,5.43,22.91-.98,24.58-12.52l15.06-104.13c2.58-17.81,27.51-19.77,32.84-2.58l31.16,100.5c3.45,11.14,16.89,15.51,26.24,8.52l84.28-62.99c14.42-10.77,33.43,5.47,25.05,21.39l-49.03,93.1c-5.43,10.32.98,22.91,12.52,24.58l104.13,15.06c17.81,2.58,19.77,27.51,2.58,32.84l-100.5,31.16c-11.14,3.45-15.51,16.89-8.52,26.24l62.99,84.28c10.77,14.42-5.47,33.43-21.39,25.05l-93.1-49.03c-10.32-5.43-22.91.98-24.58,12.52l-15.06,104.13c-2.58,17.81-27.51,19.77-32.84,2.58l-31.16-100.5c-3.45-11.14-16.89-15.51-26.24-8.52l-84.28,62.99c-14.42,10.77-33.43-5.47-25.05-21.39l49.03-93.1c5.43-10.32-.98-22.91-12.52-24.58l-104.13-15.06c-17.81-2.58-19.77-27.51-2.58-32.84l100.5-31.16c11.14-3.45,15.51-16.89,8.52-26.24Z"/>
      <path class="cls-5" d="M535.39,501.02l48.45,104.99c8.29,17.96-13.52,34.69-28.72,22.04l-88.87-73.97c-9.85-8.2-24.85-4.18-29.28,7.85l-39.98,108.49c-6.84,18.56-34.09,14.97-35.89-4.73l-10.54-115.14c-1.17-12.76-14.62-20.53-26.25-15.16l-104.99,48.45c-17.96,8.29-34.69-13.52-22.04-28.72l73.97-88.87c8.2-9.85,4.18-24.85-7.85-29.28l-108.49-39.98c-18.56-6.84-14.97-34.09,4.73-35.89l115.14-10.54c12.76-1.17,20.53-14.62,15.16-26.25l-48.45-104.99c-8.29-17.96,13.52-34.69,28.72-22.04l88.87,73.97c9.85,8.2,24.85,4.18,29.28-7.85l39.98-108.49c6.84-18.56,34.09-14.97,35.89,4.73l10.54,115.14c1.17,12.76,14.62,20.53,26.25,15.16l104.99-48.45c17.96-8.29,34.69,13.52,22.04,28.72l-73.97,88.87c-8.2,9.85-4.18,24.85,7.85,29.28l108.49,39.98c18.56,6.84,14.97,34.09-4.73,35.89l-115.14,10.54c-12.76,1.17-20.53,14.62-15.16,26.25Z"/>
      <path class="cls-30" d="M300.93,289.65l-28.09-123.92c-4.8-21.19,22.46-34.2,35.91-17.13l78.62,99.81c8.72,11.06,25.76,10.17,33.27-1.74l67.76-107.48c11.59-18.38,40.06-8.3,37.5,13.28l-14.98,126.17c-1.66,13.99,11.02,25.4,24.76,22.29l123.92-28.09c21.19-4.8,34.2,22.46,17.13,35.91l-99.81,78.62c-11.06,8.72-10.17,25.76,1.74,33.27l107.48,67.76c18.38,11.59,8.3,40.06-13.28,37.5l-126.17-14.98c-13.99-1.66-25.4,11.02-22.29,24.76l28.09,123.92c4.8,21.19-22.46,34.2-35.91,17.13l-78.62-99.81c-8.72-11.06-25.76-10.17-33.27,1.74l-67.76,107.48c-11.59,18.38-40.06,8.3-37.5-13.28l14.98-126.17c1.66-13.99-11.02-25.4-24.76-22.29l-123.92,28.09c-21.19,4.8-34.2-22.46-17.13-35.91l99.81-78.62c11.06-8.72,10.17-25.76-1.74-33.27l-107.48-67.76c-18.38-11.59-8.3-40.06,13.28-37.5l126.17,14.98c13.99,1.66,25.4-11.02,22.29-24.76Z"/>
      <path class="cls-20" d="M504.65,570.42l1.88,139.61c.32,23.88-31.95,31.63-42.51,10.21l-61.71-125.25c-6.84-13.88-25.36-16.82-36.16-5.73l-97.39,100.05c-16.66,17.11-44.96-.23-37.27-22.84l44.93-132.2c4.98-14.65-6.04-29.83-21.52-29.62l-139.61,1.88c-23.88.32-31.63-31.95-10.21-42.51l125.25-61.71c13.88-6.84,16.82-25.36,5.73-36.16l-100.05-97.39c-17.11-16.66.23-44.96,22.84-37.27l132.2,44.93c14.65,4.98,29.83-6.04,29.62-21.52l-1.88-139.61c-.32-23.88,31.95-31.63,42.51-10.21l61.71,125.25c6.84,13.88,25.36,16.82,36.16,5.73l97.39-100.05c16.66-17.11,44.96.23,37.27,22.84l-44.93,132.2c-4.98,14.65,6.04,29.83,21.52,29.62l139.61-1.88c23.88-.32,31.63,31.95,10.21,42.51l-125.25,61.71c-13.88,6.84-16.82,25.36-5.73,36.16l100.05,97.39c17.11,16.66-.23,44.96-22.84,37.27l-132.2-44.93c-14.65-4.98-29.83,6.04-29.62,21.52Z"/>
      <path class="cls-28" d="M349.83,222.08l29.88-150.5c5.11-25.74,41.57-26.7,48.02-1.26l37.71,148.73c4.18,16.49,23.42,23.87,37.56,14.42l127.54-85.29c21.82-14.59,48.27,10.52,34.85,33.07l-78.5,131.83c-8.7,14.61-.32,33.44,16.36,36.75l150.5,29.88c25.74,5.11,26.7,41.57,1.26,48.02l-148.73,37.71c-16.49,4.18-23.87,23.42-14.42,37.56l85.29,127.54c14.59,21.82-10.52,48.27-33.07,34.85l-131.83-78.5c-14.61-8.7-33.44-.32-36.75,16.36l-29.88,150.5c-5.11,25.74-41.57,26.7-48.02,1.26l-37.71-148.73c-4.18-16.49-23.42-23.87-37.56-14.42l-127.54,85.29c-21.82,14.59-48.27-10.52-34.85-33.07l78.5-131.83c8.7-14.61.32-33.44-16.36-36.75l-150.5-29.88c-25.74-5.11-26.7-41.57-1.26-48.02l148.73-37.71c16.49-4.18,23.87-23.42,14.42-37.56l-85.29-127.54c-14.59-21.82,10.52-48.27,33.07-34.85l131.83,78.5c14.61,8.7,33.44.32,36.75-16.36Z"/>
      <path class="cls-6" d="M436.66,631.88l-66.5,154.94c-11.37,26.5-50.78,19.2-51.91-9.62l-6.56-168.48c-.73-18.68-19.72-31.01-37.08-24.08l-156.58,62.54c-26.78,10.7-49.48-22.34-29.9-43.51l114.5-123.77c12.69-13.72,7.98-35.87-9.19-43.24l-154.94-66.5c-26.5-11.37-19.2-50.78,9.62-51.91l168.48-6.56c18.68-.73,31.01-19.72,24.08-37.08l-62.54-156.58c-10.7-26.78,22.34-49.48,43.51-29.9l123.77,114.5c13.72,12.69,35.87,7.98,43.24-9.19l66.5-154.94c11.37-26.5,50.78-19.2,51.91,9.62l6.56,168.48c.73,18.68,19.72,31.01,37.08,24.08l156.58-62.54c26.78-10.7,49.48,22.34,29.9,43.51l-114.5,123.77c-12.69,13.72-7.98,35.87,9.19,43.24l154.94,66.5c26.5,11.37,19.2,50.78-9.62,51.91l-168.48,6.56c-18.68.73-31.01,19.72-24.08,37.08l62.54,156.58c10.7,26.78-22.34,49.48-43.51,29.9l-123.77-114.5c-13.72-12.69-35.87-7.98-43.24,9.19Z"/>
      <path class="cls-11" d="M436.95,171.55l106.88-151.35c18.28-25.89,58.97-9.03,53.59,22.2l-31.45,182.6c-3.49,20.24,14.11,37.84,34.35,34.35l182.6-31.45c31.23-5.38,48.09,35.31,22.2,53.59l-151.35,106.88c-16.78,11.85-16.78,36.73,0,48.58l151.35,106.88c25.89,18.28,9.03,58.97-22.2,53.59l-182.6-31.45c-20.24-3.49-37.84,14.11-34.35,34.35l31.45,182.6c5.38,31.23-35.31,48.09-53.59,22.2l-106.88-151.35c-11.85-16.78-36.73-16.78-48.58,0l-106.88,151.35c-18.28,25.89-58.97,9.03-53.59-22.2l31.45-182.6c3.49-20.24-14.11-37.84-34.35-34.35l-182.6,31.45c-31.23,5.38-48.09-35.31-22.2-53.59l151.35-106.88c16.78-11.85,16.78-36.73,0-48.58L20.2,281.49c-25.89-18.28-9.03-58.97,22.2-53.59l182.6,31.45c20.24,3.49,37.84-14.11,34.35-34.35l-31.45-182.6c-5.38-31.23,35.31-48.09,53.59-22.2l106.88,151.35c11.85,16.78,36.73,16.78,48.58,0Z"/>
    </g>
  </g>
</svg>