<?xml version="1.0" encoding="UTF-8"?>
<svg id="Layer_2" xmlns="http://www.w3.org/2000/svg" viewBox="0 0 1107 1031.03">
  <defs>
    <style>
      .cls-1 {
        stroke-dasharray: 0 5.2;
        stroke-width: 1.56px;
      }

      .cls-1, .cls-2, .cls-3, .cls-4, .cls-5, .cls-6, .cls-7, .cls-8, .cls-9, .cls-10, .cls-11, .cls-12, .cls-13, .cls-14, .cls-15, .cls-16, .cls-17, .cls-18, .cls-19, .cls-20, .cls-21, .cls-22, .cls-23, .cls-24, .cls-25, .cls-26, .cls-27, .cls-28, .cls-29, .cls-30, .cls-31 {
        fill: none;
        stroke: #ff8d86;
        stroke-linecap: round;
        stroke-linejoin: round;
      }

      .cls-2 {
        stroke-dasharray: 0 25.84;
        stroke-width: 7.75px;
      }

      .cls-3 {
        stroke-dasharray: 0 7.58;
        stroke-width: 2.27px;
      }

      .cls-4 {
        stroke-dasharray: 0 23.51;
        stroke-width: 7.05px;
      }

      .cls-5 {
        stroke-dasharray: 0 31.2;
        stroke-width: 9.36px;
      }

      .cls-6 {
        stroke-dasharray: 0 45.5;
        stroke-width: 13.65px;
      }

      .cls-7 {
        stroke-dasharray: 0 2.95;
        stroke-width: .89px;
      }

      .cls-8 {
        stroke-dasharray: 0 14.67;
        stroke-width: 4.4px;
      }

      .cls-9 {
        stroke-dasharray: 0 19.47;
        stroke-width: 5.84px;
      }

      .cls-10 {
        stroke-dasharray: 0 6.28;
        stroke-width: 1.88px;
      }

      .cls-11 {
        stroke-dasharray: 0 50;
        stroke-width: 15px;
      }

      .cls-12 {
        stroke-dasharray: 0 4.31;
        stroke-width: 1.29px;
      }

      .cls-13 {
        stroke-dasharray: 0 12.15;
        stroke-width: 3.65px;
      }

      .cls-14 {
        stroke-dasharray: 0 17.72;
        stroke-width: 5.32px;
      }

      .cls-15 {
        stroke-dasharray: 0 10.06;
        stroke-width: 3.02px;
      }

      .cls-16 {
        stroke-dasharray: 0 13.35;
        stroke-width: 4.01px;
      }

      .cls-17 {
        stroke-dasharray: 0 3.24;
        stroke-width: .97px;
      }

      .cls-18 {
        stroke-dasharray: 0 28.39;
        stroke-width: 8.52px;
      }

      .cls-32 {
        fill: #ff8d86;
      }

      .cls-19 {
        stroke-dasharray: 0 4.73;
        stroke-width: 1.42px;
      }

      .cls-20 {
        stroke-dasharray: 0 37.68;
        stroke-width: 11.3px;
      }

      .cls-21 {
        stroke-dasharray: 0 5.71;
        stroke-width: 1.71px;
      }

      .cls-22 {
        stroke-dasharray: 0 21.4;
        stroke-width: 6.42px;
      }

      .cls-23 {
        stroke-dasharray: 0 9.16;
        stroke-width: 2.75px;
      }

      .cls-24 {
        stroke-dasharray: 0 8.33;
        stroke-width: 2.5px;
      }

      .cls-25 {
        stroke-dasharray: 0 6.9;
        stroke-width: 2.07px;
      }

      .cls-26 {
        stroke-dasharray: 0 3.57;
        stroke-width: 1.07px;
      }

      .cls-27 {
        stroke-dasharray: 0 3.92;
        stroke-width: 1.18px;
      }

      .cls-28 {
        stroke-dasharray: 0 41.4;
        stroke-width: 12.42px;
      }

      .cls-29 {
        stroke-dasharray: 0 11.06;
        stroke-width: 3.32px;
      }

      .cls-30 {
        stroke-dasharray: 0 34.29;
        stroke-width: 10.29px;
      }

      .cls-31 {
        stroke-dasharray: 0 16.12;
        stroke-width: 4.84px;
      }
    </style>
  </defs>
  <g id="high_good">
    <g>
      <g>
        <path class="cls-7" d="M577.83,472.95c4.26,1.46,2.14,9.69,6.25,18.12,4.53,9.28,11.56,8.48,12.42,15.05.92,7.03-6.46,13.33-9.94,16.47-2.2,1.98-9.34,8.42-18.76,8.54-15.46.21-29.91-15.73-29.46-29.86.31-9.73,7.68-17.95,9.38-17.31,1.76.66-2.66,10.74,1.4,13.99,3.17,2.54,11.03.53,24.97-24.59.63-.28,2.16-.97,3.73-.43Z"/>
        <path class="cls-17" d="M586.72,529.78c4.11-2.76-.49-10.89,1.48-21.02,2.17-11.14,9.85-12.28,8.9-19.51-1.02-7.72-10.64-12.32-15.23-14.66-2.89-1.48-12.3-6.28-22.34-3.74-16.47,4.18-27.28,25.2-22.77,40.07,3.1,10.24,13.25,16.87,14.88,15.71,1.68-1.2-5.87-10.64-2.49-15.25,2.64-3.6,11.56-3.7,33.49,19,.75.12,2.57.41,4.08-.6Z"/>
        <path class="cls-26" d="M579.98,466.93c5.15,1.76,2.58,11.7,7.55,21.89,5.47,11.2,13.95,10.24,15,18.18,1.11,8.49-7.8,16.1-12,19.89-2.65,2.39-11.27,10.17-22.65,10.32-18.67.25-36.12-18.99-35.57-36.06.38-11.75,9.27-21.67,11.33-20.9,2.13.8-3.21,12.97,1.69,16.9,3.83,3.07,13.32.64,30.15-29.69.76-.34,2.61-1.17,4.5-.52Z"/>
        <path class="cls-27" d="M590.71,535.56c4.96-3.33-.59-13.15,1.79-25.38,2.61-13.45,11.9-14.83,10.75-23.56-1.23-9.33-12.85-14.87-18.4-17.7-3.5-1.78-14.86-7.58-26.98-4.51-19.89,5.04-32.94,30.43-27.5,48.39,3.74,12.36,16.01,20.37,17.97,18.97,2.03-1.45-7.09-12.85-3.01-18.42,3.19-4.35,13.95-4.46,40.45,22.94.9.14,3.1.5,4.93-.73Z"/>
        <path class="cls-12" d="M582.58,459.66c6.21,2.12,3.12,14.12,9.12,26.43,6.6,13.53,16.85,12.36,18.11,21.95,1.35,10.25-9.41,19.45-14.49,24.02-3.2,2.89-13.61,12.28-27.35,12.46-22.54.3-43.62-22.93-42.96-43.54.46-14.19,11.2-26.17,13.68-25.24,2.57.96-3.87,15.66,2.04,20.41,4.62,3.71,16.08.77,36.41-35.86.92-.41,3.15-1.41,5.43-.63Z"/>
        <path class="cls-19" d="M595.54,542.53c5.99-4.02-.71-15.88,2.16-30.65,3.16-16.24,14.37-17.91,12.98-28.45-1.49-11.26-15.52-17.96-22.22-21.38-4.22-2.15-17.94-9.16-32.58-5.45-24.01,6.09-39.78,36.75-33.21,58.44,4.52,14.93,19.33,24.6,21.7,22.9,2.46-1.75-8.56-15.52-3.63-22.24,3.85-5.25,16.85-5.39,48.84,27.7,1.09.17,3.75.6,5.95-.88Z"/>
        <path class="cls-1" d="M585.72,450.88c7.5,2.57,3.76,17.06,11.01,31.92,7.97,16.34,20.35,14.93,21.87,26.51,1.62,12.38-11.37,23.48-17.5,29.01-3.87,3.49-16.44,14.82-33.03,15.05-27.22.37-52.68-27.7-51.87-52.58.55-17.14,13.52-31.61,16.52-30.48,3.11,1.16-4.68,18.91,2.47,24.64,5.58,4.48,19.42.93,43.97-43.3,1.11-.5,3.81-1.7,6.56-.76Z"/>
        <path class="cls-21" d="M601.37,550.96c7.23-4.86-.86-19.17,2.61-37.01,3.81-19.61,17.35-21.63,15.67-34.35-1.8-13.6-18.75-21.69-26.83-25.82-5.1-2.6-21.67-11.06-39.34-6.58-29,7.35-48.04,44.38-40.11,70.57,5.46,18.03,23.34,29.7,26.21,27.66,2.97-2.12-10.34-18.74-4.39-26.86,4.65-6.34,20.35-6.51,58.98,33.45,1.32.21,4.52.73,7.18-1.06Z"/>
        <path class="cls-10" d="M589.51,440.28c9.06,3.1,4.54,20.6,13.3,38.54,9.62,19.73,24.57,18.03,26.41,32.01,1.96,14.95-13.73,28.36-21.13,35.03-4.67,4.21-19.85,17.9-39.88,18.17-32.87.44-63.61-33.44-62.64-63.5.67-20.69,16.33-38.17,19.95-36.81,3.75,1.4-5.65,22.84,2.98,29.76,6.74,5.41,23.45,1.12,53.09-52.29,1.34-.6,4.6-2.06,7.93-.92Z"/>
        <path class="cls-25" d="M608.41,561.13c8.74-5.87-1.04-23.16,3.15-44.69,4.6-23.68,20.96-26.12,18.93-41.49-2.17-16.43-22.64-26.19-32.4-31.18-6.16-3.14-26.16-13.36-47.5-7.94-35.02,8.88-58.01,53.59-48.43,85.21,6.59,21.77,28.19,35.87,31.65,33.4,3.58-2.56-12.49-22.63-5.3-32.43,5.62-7.66,24.57-7.86,71.23,40.4,1.59.26,5.46.88,8.67-1.28Z"/>
        <path class="cls-3" d="M594.09,427.48c10.94,3.74,5.49,24.87,16.06,46.54,11.62,23.82,29.67,21.77,31.89,38.65,2.37,18.05-16.58,34.24-25.52,42.31-5.64,5.09-23.97,21.62-48.16,21.94-39.7.53-76.82-40.39-75.64-76.68.81-24.99,19.72-46.09,24.1-44.45,4.53,1.69-6.82,27.58,3.6,35.93,8.14,6.53,28.32,1.36,64.11-63.14,1.62-.72,5.55-2.48,9.57-1.11Z"/>
        <path class="cls-24" d="M616.91,573.42c10.55-7.08-1.25-27.96,3.81-53.97,5.56-28.59,25.31-31.55,22.86-50.1-2.62-19.84-27.34-31.63-39.12-37.65-7.43-3.79-31.59-16.13-57.36-9.59-42.29,10.72-70.05,64.72-58.48,102.9,7.96,26.29,34.04,43.32,38.22,40.33,4.32-3.09-15.08-27.33-6.4-39.17,6.78-9.25,29.67-9.49,86.01,48.79,1.92.31,6.6,1.06,10.47-1.54Z"/>
        <path class="cls-23" d="M599.62,412.02c13.21,4.52,6.62,30.04,19.39,56.21,14.04,28.77,35.83,26.29,38.51,46.68,2.86,21.8-20.02,41.35-30.82,51.09-6.81,6.14-28.95,26.1-58.16,26.5-47.94.64-92.76-48.77-91.35-92.59.97-30.17,23.81-55.66,29.1-53.68,5.47,2.05-8.23,33.3,4.35,43.39,9.83,7.89,34.2,1.64,77.42-76.25,1.95-.87,6.7-3,11.56-1.34Z"/>
        <path class="cls-15" d="M627.17,588.25c12.74-8.55-1.51-33.77,4.6-65.17,6.71-34.53,30.56-38.1,27.6-60.5-3.16-23.95-33.01-38.2-47.24-45.46-8.98-4.58-38.15-19.48-69.27-11.58-51.07,12.95-84.59,78.15-70.62,124.27,9.62,31.75,41.1,52.31,46.15,48.7,5.22-3.73-18.21-33-7.73-47.3,8.19-11.17,35.83-11.46,103.87,58.91,2.32.37,7.97,1.28,12.65-1.87Z"/>
        <path class="cls-29" d="M606.29,393.35c15.96,5.46,8,36.27,23.42,67.87,16.95,34.74,43.27,31.74,46.5,56.37,3.45,26.33-24.17,49.93-37.22,61.69-8.22,7.42-34.96,31.52-70.23,32-57.89.78-112.02-58.89-110.31-111.82,1.18-36.44,28.75-67.21,35.14-64.82,6.6,2.47-9.94,40.21,5.25,52.4,11.87,9.53,41.29,1.98,93.49-92.07,2.36-1.05,8.09-3.62,13.96-1.62Z"/>
        <path class="cls-13" d="M639.57,606.17c15.38-10.33-1.82-40.78,5.55-78.7,8.11-41.7,36.9-46,33.33-73.06-3.82-28.93-39.86-46.13-57.05-54.9-10.84-5.53-46.07-23.52-83.65-13.99-61.67,15.64-102.15,94.37-85.29,150.06,11.61,38.34,49.64,63.17,55.74,58.81,6.31-4.5-21.99-39.86-9.33-57.12,9.89-13.49,43.27-13.84,125.43,71.14,2.8.45,9.62,1.54,15.27-2.25Z"/>
        <path class="cls-16" d="M614.35,370.81c19.27,6.59,9.66,43.8,28.28,81.96,20.47,41.95,52.26,38.33,56.16,68.07,4.17,31.79-29.19,60.3-44.94,74.5-9.93,8.96-42.21,38.07-84.81,38.64-69.91.94-135.27-71.12-133.21-135.03,1.42-44,34.72-81.17,42.43-78.28,7.97,2.98-12.01,48.56,6.34,63.28,14.34,11.5,49.87,2.39,112.9-111.19,2.84-1.27,9.77-4.37,16.85-1.95Z"/>
        <path class="cls-8" d="M654.53,627.81c18.58-12.47-2.2-49.24,6.7-95.04,9.79-50.35,44.56-55.55,40.25-88.22-4.61-34.93-48.14-55.7-68.89-66.3-13.09-6.68-55.64-28.4-101.02-16.89-74.47,18.89-123.35,113.96-102.99,181.21,14.02,46.3,59.94,76.28,67.3,71.02,7.62-5.43-26.56-48.13-11.27-68.97,11.95-16.29,52.25-16.72,151.46,85.91,3.38.54,11.62,1.86,18.44-2.72Z"/>
        <path class="cls-31" d="M624.09,343.58c23.27,7.96,11.67,52.89,34.15,98.98,24.72,50.66,63.1,46.29,67.81,82.2,5.04,38.39-35.25,72.82-54.27,89.97-11.99,10.81-50.98,45.97-102.42,46.66-84.42,1.13-163.35-85.88-160.86-163.06,1.72-53.14,41.93-98.02,51.24-94.53,9.63,3.6-14.5,58.64,7.66,76.42,17.31,13.89,60.22,2.88,136.34-134.27,3.44-1.54,11.8-5.28,20.35-2.36Z"/>
        <path class="cls-14" d="M672.61,653.93c22.43-15.06-2.66-59.46,8.09-114.77,11.82-60.81,53.82-67.08,48.6-106.53-5.57-42.18-58.13-67.27-83.19-80.06-15.81-8.07-67.18-34.3-121.99-20.4-89.93,22.81-148.96,137.62-124.37,218.83,16.93,55.91,72.38,92.11,81.28,85.77,9.2-6.56-32.07-58.12-13.61-83.29,14.43-19.67,63.1-20.19,182.9,103.74,4.08.66,14.03,2.25,22.27-3.28Z"/>
        <path class="cls-9" d="M635.84,310.71c28.1,9.61,14.09,63.87,41.23,119.52,29.85,61.18,76.2,55.9,81.89,99.26,6.08,46.36-42.57,87.93-65.53,108.64-14.48,13.06-61.56,55.51-123.68,56.35-101.94,1.37-197.26-103.71-194.25-196.9,2.07-64.17,50.63-118.36,61.88-114.15,11.63,4.35-17.51,70.81,9.25,92.28,20.91,16.78,72.72,3.48,164.64-162.14,4.15-1.86,14.25-6.38,24.58-2.85Z"/>
        <path class="cls-22" d="M694.44,685.48c27.09-18.19-3.21-71.8,9.77-138.59,14.28-73.43,64.99-81.01,58.69-128.65-6.73-50.94-70.2-81.23-100.46-96.68-19.09-9.74-81.13-41.42-147.31-24.63-108.6,27.54-179.88,166.19-150.19,264.25,20.45,67.52,87.41,111.24,98.15,103.57,11.11-7.92-38.72-70.18-16.43-100.58,17.42-23.75,76.2-24.38,220.87,125.28,4.93.79,16.94,2.72,26.9-3.97Z"/>
        <path class="cls-4" d="M650.04,271.01c33.93,11.6,17.01,77.13,49.79,144.33,36.04,73.88,92.02,67.51,98.89,119.86,7.35,55.98-51.41,106.19-79.14,131.19-17.49,15.77-74.34,67.04-149.35,68.04-123.1,1.65-238.21-125.24-234.57-237.78,2.5-77.49,61.14-142.93,74.72-137.85,14.04,5.25-21.14,85.51,11.17,111.43,25.25,20.26,87.81,4.2,198.81-195.8,5.01-2.24,17.21-7.7,29.68-3.44Z"/>
        <path class="cls-2" d="M720.79,723.58c32.72-21.96-3.88-86.71,11.8-167.36,17.24-88.67,78.48-97.83,70.88-155.35-8.13-61.51-84.77-98.09-121.32-116.75-23.05-11.77-97.97-50.01-177.89-29.75-131.14,33.26-217.22,200.69-181.36,319.11,24.69,81.54,105.55,134.33,118.52,125.07,13.41-9.57-46.76-84.75-19.84-121.46,21.04-28.69,92.02-29.44,266.72,151.28,5.96.96,20.46,3.28,32.48-4.79Z"/>
        <path class="cls-18" d="M667.18,223.07c40.97,14.01,20.54,93.14,60.13,174.29,43.52,89.22,111.12,81.52,119.42,144.74,8.87,67.6-62.08,128.23-95.57,158.43-21.12,19.04-89.77,80.95-180.36,82.17-148.66,2-287.65-151.24-283.27-287.14,3.02-93.57,73.83-172.6,90.23-166.47,16.96,6.34-25.53,103.26,13.48,134.57,30.49,24.46,106.04,5.07,240.09-236.44,6.05-2.71,20.78-9.3,35.84-4.15Z"/>
        <path class="cls-5" d="M752.62,769.59c39.51-26.52-4.69-104.71,14.25-202.11,20.82-107.08,94.77-118.13,85.59-187.6-9.81-74.28-102.36-118.45-146.5-140.98-27.83-14.21-118.31-60.39-214.81-35.92-158.36,40.16-262.32,242.35-219.01,385.35,29.82,98.46,127.46,162.21,143.13,151.03,16.19-11.56-56.47-102.35-23.96-146.67,25.41-34.64,111.12-35.55,322.09,182.69,7.19,1.15,24.7,3.96,39.22-5.78Z"/>
        <path class="cls-30" d="M687.88,165.19c49.48,16.92,24.81,112.48,72.61,210.47,52.56,107.74,134.19,98.44,144.21,174.79,10.71,81.64-74.97,154.85-115.4,191.31-25.5,23-108.4,97.75-217.8,99.23-179.52,2.41-347.36-182.63-342.07-346.74,3.65-113,89.16-208.43,108.96-201.02,20.48,7.66-30.83,124.7,16.28,162.5,36.82,29.54,128.06,6.13,289.92-285.52,7.31-3.27,25.1-11.23,43.28-5.02Z"/>
        <path class="cls-20" d="M791.06,825.15c47.71-32.03-5.66-126.44,17.21-244.06,25.15-129.31,114.44-142.66,103.36-226.55-11.85-89.7-123.61-143.04-176.91-170.25-33.61-17.16-142.87-72.93-259.4-43.38-191.24,48.5-316.77,292.65-264.47,465.34,36.01,118.9,153.92,195.88,172.84,182.39,19.56-13.96-68.19-123.59-28.93-177.12,30.68-41.83,134.18-42.93,388.95,220.61,8.68,1.39,29.83,4.79,47.37-6.99Z"/>
        <path class="cls-28" d="M712.88,95.28c59.75,20.43,29.96,135.83,87.68,254.16,63.47,130.1,162.05,118.87,174.14,211.07,12.93,98.58-90.53,186.99-139.36,231.03-30.8,27.77-130.91,118.05-263.01,119.82-216.78,2.91-419.47-220.54-413.07-418.72,4.4-136.45,107.67-251.7,131.58-242.75,24.73,9.25-37.23,150.58,19.66,196.23,44.46,35.68,154.64,7.4,350.11-344.79,8.82-3.95,30.3-13.56,52.26-6.06Z"/>
        <path class="cls-6" d="M837.48,892.24c57.61-38.68-6.83-152.69,20.79-294.72,30.37-156.15,138.2-172.27,124.81-273.57-14.31-108.32-149.27-172.74-213.63-205.59-40.59-20.72-172.53-88.07-313.25-52.38C225.25,124.54,73.66,419.38,136.82,627.91c43.48,143.59,185.87,236.54,208.71,220.25,23.62-16.85-82.35-149.25-34.94-213.89,37.05-50.51,162.04-51.84,469.69,266.41,10.49,1.68,36.03,5.78,57.2-8.44Z"/>
        <path class="cls-11" d="M743.06,10.86c72.15,24.67,36.17,164.02,105.89,306.92,76.64,157.11,195.68,143.55,210.29,254.89,15.62,119.05-109.32,225.81-168.29,278.99-37.19,33.54-158.08,142.55-317.61,144.7-261.78,3.52-506.55-266.33-498.82-505.64,5.32-164.78,130.02-303.95,158.9-293.14,29.86,11.17-44.96,181.84,23.75,236.97,53.69,43.08,186.74,8.94,422.78-416.37,10.65-4.77,36.6-16.38,63.11-7.31Z"/>
      </g>
      <circle class="cls-32" cx="39.5" cy="488.53" r="7.5"/>
      <circle class="cls-32" cx="7.5" cy="426.53" r="7.5"/>
      <circle class="cls-32" cx="279.5" cy="956.53" r="7.5"/>
      <circle class="cls-32" cx="495.5" cy="1023.53" r="7.5"/>
      <circle class="cls-32" cx="1099.5" cy="603.53" r="7.5"/>
      <circle class="cls-32" cx="1094.5" cy="668.53" r="7.5"/>
      <circle class="cls-32" cx="1036.5" cy="285.53" r="7.5"/>
      <circle class="cls-32" cx="998.5" cy="251.53" r="7.5"/>
      <circle class="cls-32" cx="1026.5" cy="173.53" r="7.5"/>
      <circle class="cls-32" cx="979" cy="228.03" r="5"/>
      <circle class="cls-32" cx="1012" cy="294.03" r="5"/>
      <circle class="cls-32" cx="1093" cy="635.03" r="5"/>
      <circle class="cls-32" cx="1070" cy="690.03" r="5"/>
      <circle class="cls-32" cx="523" cy="1022.03" r="5"/>
      <circle class="cls-32" cx="325" cy="984.03" r="5"/>
      <circle class="cls-32" cx="278" cy="918.03" r="5"/>
      <circle class="cls-32" cx="55" cy="449.03" r="5"/>
      <circle class="cls-32" cx="27" cy="534.03" r="5"/>
    </g>
  </g>
</svg>