<?xml version="1.0" encoding="UTF-8"?>
<svg id="Layer_2" xmlns="http://www.w3.org/2000/svg" viewBox="0 0 1044.56 879.02">
  <defs>
    <style>
      .cls-1 {
        stroke-dasharray: 0 5.2;
        stroke-width: 1.04px;
      }

      .cls-1, .cls-2, .cls-3, .cls-4, .cls-5, .cls-6, .cls-7, .cls-8, .cls-9, .cls-10, .cls-11, .cls-12, .cls-13, .cls-14, .cls-15, .cls-16, .cls-17, .cls-18, .cls-19, .cls-20, .cls-21, .cls-22, .cls-23, .cls-24, .cls-25, .cls-26, .cls-27, .cls-28, .cls-29, .cls-30, .cls-31 {
        fill: none;
        stroke: #ff8d86;
        stroke-linecap: round;
        stroke-linejoin: round;
      }

      .cls-2 {
        stroke-dasharray: 0 3.24;
        stroke-width: .65px;
      }

      .cls-3 {
        stroke-dasharray: 0 25.84;
        stroke-width: 5.17px;
      }

      .cls-4 {
        stroke-dasharray: 0 8.33;
        stroke-width: 1.67px;
      }

      .cls-5 {
        stroke-dasharray: 0 14.67;
        stroke-width: 2.93px;
      }

      .cls-6 {
        stroke-dasharray: 0 11.06;
        stroke-width: 2.21px;
      }

      .cls-7 {
        stroke-dasharray: 0 10.06;
        stroke-width: 2.01px;
      }

      .cls-8 {
        stroke-dasharray: 0 45.5;
        stroke-width: 9.1px;
      }

      .cls-9 {
        stroke-dasharray: 0 31.2;
        stroke-width: 6.24px;
      }

      .cls-10 {
        stroke-dasharray: 0 2.95;
        stroke-width: .59px;
      }

      .cls-11 {
        stroke-dasharray: 0 4.31;
        stroke-width: .86px;
      }

      .cls-12 {
        stroke-dasharray: 0 7.58;
        stroke-width: 1.52px;
      }

      .cls-13 {
        stroke-dasharray: 0 19.47;
        stroke-width: 3.89px;
      }

      .cls-14 {
        stroke-dasharray: 0 12.15;
        stroke-width: 2.43px;
      }

      .cls-15 {
        stroke-dasharray: 0 50;
        stroke-width: 10px;
      }

      .cls-16 {
        stroke-dasharray: 0 6.9;
        stroke-width: 1.38px;
      }

      .cls-17 {
        stroke-dasharray: 0 17.72;
        stroke-width: 3.54px;
      }

      .cls-18 {
        stroke-dasharray: 0 13.35;
        stroke-width: 2.67px;
      }

      .cls-19 {
        stroke-dasharray: 0 28.39;
        stroke-width: 5.68px;
      }

      .cls-20 {
        stroke-dasharray: 0 6.28;
        stroke-width: 1.26px;
      }

      .cls-32 {
        fill: #ff8d86;
      }

      .cls-21 {
        stroke-dasharray: 0 4.73;
        stroke-width: .95px;
      }

      .cls-22 {
        stroke-dasharray: 0 21.4;
        stroke-width: 4.28px;
      }

      .cls-23 {
        stroke-dasharray: 0 5.71;
        stroke-width: 1.14px;
      }

      .cls-24 {
        stroke-dasharray: 0 3.57;
        stroke-width: .71px;
      }

      .cls-25 {
        stroke-dasharray: 0 3.92;
        stroke-width: .78px;
      }

      .cls-26 {
        stroke-dasharray: 0 9.16;
        stroke-width: 1.83px;
      }

      .cls-27 {
        stroke-dasharray: 0 41.4;
        stroke-width: 8.28px;
      }

      .cls-28 {
        stroke-dasharray: 0 23.51;
        stroke-width: 4.7px;
      }

      .cls-29 {
        stroke-dasharray: 0 34.29;
        stroke-width: 6.86px;
      }

      .cls-30 {
        stroke-dasharray: 0 37.68;
        stroke-width: 7.54px;
      }

      .cls-31 {
        stroke-dasharray: 0 16.12;
        stroke-width: 3.22px;
      }
    </style>
  </defs>
  <g id="high_good">
    <g>
      <g>
        <path class="cls-10" d="M714.39,652.78c-4.4-1.81-6.11-30.41,10.81-40.33,16.88-9.91,41.03,5.4,40.33,10.81-.57,4.47-19.01,9.26-32.95,1.98-15.56-8.13-20.53-28.72-17.51-30.8,2.88-1.99,14.41,3.99,15.68,11.81,1.27,7.76-8.94,9.66-11.53,22.2-2.19,10.63,3.02,19.56-2.03,23.4-.5.38-1.78,1.36-2.8.94Z"/>
        <path class="cls-2" d="M709.34,656.59c-4.55-2.56-2.59-33.98,17.19-42.55,19.74-8.54,44.03,11.38,42.55,17.19-1.22,4.8-21.98,7.56-36.21-2.26-15.89-10.96-18.54-34.07-14.97-35.94,3.4-1.79,15.18,6.28,15.52,14.98.34,8.64-11.04,9.34-15.54,22.67-3.81,11.3.67,21.73-5.35,25.25-.59.35-2.12,1.24-3.18.65Z"/>
        <path class="cls-24" d="M703.32,660.08c-4.62-3.4,1.72-37.41,24.45-44.1,22.67-6.67,46.5,18.31,44.1,24.45-1.98,5.07-24.98,5.3-39.19-7.31-15.86-14.08-15.66-39.64-11.52-41.21,3.95-1.49,15.72,8.88,14.93,18.42-.79,9.47-13.3,8.7-19.99,22.65-5.67,11.81-2.18,23.8-9.22,26.83-.69.3-2.48,1.07-3.56.28Z"/>
        <path class="cls-25" d="M696.29,663.07c-4.58-4.33,6.89-40.58,32.57-44.83,25.62-4.24,48.26,26.2,44.83,32.57-2.84,5.27-27.96,2.44-41.76-13.22-15.41-17.48-11.78-45.34-7.05-46.49,4.51-1.1,15.95,11.79,13.81,22.09-2.12,10.22-15.67,7.71-24.84,22.02-7.77,12.12-5.56,25.66-13.65,28.03-.79.23-2.85.83-3.92-.17Z"/>
        <path class="cls-11" d="M688.23,665.39c-4.42-5.34,12.95-43.33,41.53-44.53,28.52-1.2,49.13,35.04,44.53,41.53-3.8,5.36-30.82-1.09-43.78-20.01-14.47-21.13-6.77-51.03-1.46-51.65,5.07-.59,15.82,15,12.11,25.94-3.69,10.86-18.12,6.31-30.04,20.7-10.1,12.18-9.5,27.24-18.64,28.74-.9.15-3.22.53-4.25-.71Z"/>
        <path class="cls-21" d="M679.12,666.84c-4.11-6.42,19.92-45.53,51.26-43.01,31.26,2.51,48.9,44.79,43.01,51.26-4.86,5.34-33.47-5.31-45.07-27.69-12.95-24.98-.55-56.56,5.33-56.53,5.61.03,15.25,18.47,9.73,29.92-5.47,11.36-20.61,4.46-35.54,18.55-12.64,11.94-14.02,28.44-24.18,28.85-1,.04-3.58.14-4.54-1.35Z"/>
        <path class="cls-1" d="M668.99,667.21c-3.62-7.55,27.83-46.99,61.67-40.05,33.76,6.93,47.33,55.41,40.05,61.67-6.02,5.17-35.8-10.28-45.45-36.24-10.78-28.98,6.97-61.77,13.38-60.94,6.11.78,14.16,22.19,6.61,33.94-7.49,11.65-23.08,2.1-41.24,15.47-15.39,11.33-19.1,29.15-30.24,28.23-1.1-.09-3.93-.32-4.77-2.08Z"/>
        <path class="cls-23" d="M657.89,666.25c-2.94-8.72,36.65-47.53,72.63-35.42,35.9,12.08,44.21,66.77,35.42,72.63-7.26,4.84-37.67-16.01-44.72-45.61-7.88-33.06,15.88-66.44,22.75-64.68,6.56,1.67,12.47,26.1,2.66,37.9-9.73,11.71-25.45-.8-47.06,11.35-18.3,10.29-24.73,29.23-36.76,26.74-1.18-.24-4.24-.88-4.92-2.9Z"/>
        <path class="cls-20" d="M645.91,663.71c-2.04-9.9,46.34-46.93,83.96-28.91,37.54,17.98,39.27,78.75,28.91,83.96-8.56,4.3-38.94-22.5-42.67-55.74-4.17-37.11,26.21-70.34,33.48-67.5,6.93,2.7,10.11,30.14-2.17,41.69-12.18,11.46-27.66-4.28-52.85,6.08-21.34,8.78-30.89,28.57-43.68,24.24-1.26-.43-4.51-1.53-4.98-3.83Z"/>
        <path class="cls-16" d="M633.19,659.35c-.89-11.07,56.83-44.98,95.45-20.29,38.53,24.64,32.29,91.15,20.29,95.45-9.92,3.55-39.46-29.76-39.08-66.51.43-41.03,38.01-73.21,45.56-69.14,7.2,3.88,6.99,34.23-7.95,45.19-14.82,10.87-29.59-8.37-58.45-.44-24.45,6.72-37.52,27.03-50.89,20.59-1.31-.63-4.71-2.27-4.92-4.84Z"/>
        <path class="cls-12" d="M619.9,652.88c.51-12.2,68-41.45,106.82-9.35,38.73,32.04,23.01,103.74,9.35,106.82-11.29,2.54-39.05-37.74-33.71-77.78,5.96-44.7,51.26-74.75,58.95-69.31,7.33,5.19,3.04,38.27-14.73,48.22-17.62,9.87-31.16-13.09-63.7-8.31-27.57,4.05-44.54,24.45-58.26,15.65-1.35-.87-4.84-3.1-4.72-5.94Z"/>
        <path class="cls-4" d="M606.26,644.05c2.19-13.23,79.73-36.11,117.76,4.11,37.95,40.13,11.21,116.24-4.11,117.76-12.66,1.26-37.54-46.39-26.36-89.35,12.49-47.96,65.92-74.67,73.58-67.7,7.3,6.65-1.81,42.15-22.52,50.62-20.55,8.41-32.23-18.45-68.36-17.6-30.61.73-51.86,20.71-65.64,9.26-1.36-1.13-4.86-4.03-4.35-7.11Z"/>
        <path class="cls-26" d="M592.58,632.59c4.16-14.14,91.79-28.71,127.89,20.26,36.02,48.85-3.34,128.28-20.26,127.89-13.97-.32-34.73-55.63-16.78-100.98,20.04-50.63,81.9-72.62,89.32-63.99,7.07,8.23-7.62,45.73-31.34,52.2-23.53,6.42-32.68-24.44-72.2-28.35-33.49-3.31-59.33,15.64-72.84,1.31-1.33-1.41-4.76-5.05-3.79-8.34Z"/>
        <path class="cls-7" d="M579.18,618.26c6.43-14.87,103.96-19.02,136.78,39.22,32.74,58.11-20.83,139.47-39.22,136.78-15.2-2.22-30.43-65.33-4.78-112.39,28.64-52.54,99.06-68.23,105.99-57.83,6.61,9.92-14.44,48.85-41.17,52.73-26.53,3.85-32.37-31.04-74.96-40.59-36.08-8.09-66.81,9.11-79.62-8.32-1.26-1.71-4.51-6.14-3.02-9.6Z"/>
        <path class="cls-6" d="M566.49,600.83c9-15.36,115.94-6.82,143.94,61.1,27.93,67.76-41.39,149.33-61.1,143.94-16.28-4.46-24.44-75.33,9.84-123.23,38.28-53.47,117.18-61.16,123.35-48.88,5.89,11.71-22.29,51.35-51.97,52-29.45.65-31.15-38.19-76.32-54.31-38.27-13.66-74.09.99-85.73-19.74-1.14-2.04-4.1-7.31-2.01-10.88Z"/>
        <path class="cls-14" d="M554.99,580.12c11.87-15.54,127.37,8.09,148.81,85.92,21.39,77.65-65.15,157.34-85.92,148.81-17.16-7.04-16.57-85.44,27.23-133.09,48.91-53.2,136-51.01,141.09-36.8,4.85,13.56-31.19,53.02-63.65,49.76-32.21-3.24-28.86-45.82-75.97-69.46-39.91-20.02-80.95-8.84-90.86-33.01-.97-2.38-3.49-8.52-.73-12.13Z"/>
        <path class="cls-18" d="M545.21,556c15.03-15.36,137.84,25.88,150.8,113.64,12.93,87.56-92.13,162.88-113.64,150.8-17.77-9.98-6.64-95.41,47.53-141.51,60.47-51.47,155.17-37.42,158.81-21.24,3.48,15.44-41.12,53.66-76.09,45.75-34.7-7.85-25.34-53.85-73.56-85.93-40.85-27.18-87.1-20.48-94.68-48.18-.74-2.72-2.67-9.76.82-13.33Z"/>
        <path class="cls-5" d="M537.78,528.37c18.45-14.74,146.88,46.69,149.26,144.14,2.38,97.23-122.3,165.32-144.14,149.26-18.05-13.26,5.54-104.95,70.79-147.98,72.85-48.04,174.26-20.04,176.07-1.9,1.72,17.3-52.03,53.02-89.12,39.71-36.8-13.2-20.43-62.12-68.73-103.58-40.91-35.12-92.26-34-96.82-65.23-.45-3.07-1.61-11,2.68-14.43Z"/>
        <path class="cls-31" d="M533.37,497.25c22.1-13.61,153.95,70.6,143.5,177.21-10.43,106.37-155.53,163.94-177.21,143.5-17.91-16.88,20.1-113.73,97.03-151.93,85.89-42.65,192.75,1.48,192.29,21.51-.44,19.1-63.85,50.86-102.52,31.38-38.36-19.33-13.97-70.5-61.09-122.18-39.92-43.79-96.08-49.44-96.87-84.11-.08-3.41-.28-12.22,4.86-15.38Z"/>
        <path class="cls-17" d="M532.74,462.71c25.93-11.88,158.46,97.62,132.79,212.5-25.62,114.62-191.6,157.98-212.5,132.79-17.27-20.81,37.15-121.35,126.18-152.71,99.39-35.01,210.03,27.43,206.85,49.21-3.04,20.78-76.46,46.92-116.02,20.49-39.26-26.22-5.79-78.76-50.27-141.44-37.68-53.1-98.17-66.8-94.39-104.71.37-3.73,1.33-13.36,7.36-16.12Z"/>
        <path class="cls-13" d="M536.66,424.96c29.87-9.49,159.76,127.69,116.37,249.56-43.29,121.59-230.13,146.65-249.56,116.37-16.05-25.02,56.77-127.39,158.08-149.67,113.1-24.88,225.41,58.05,219.03,81.38-6.09,22.25-89.68,40.94-129.29,6.82-39.31-33.86,4.23-86.68-35.88-161-33.99-62.97-98.13-86-88.93-126.85.9-4.02,3.24-14.39,10.19-16.6Z"/>
        <path class="cls-22" d="M546.01,384.3c33.85-6.35,157.15,160.67,93.51,287.78-63.5,126.82-270.65,129.13-287.78,93.51-14.16-29.43,78.98-131.34,192.46-142.08,126.69-11.99,238.09,93.5,228,118.09-9.63,23.46-103.29,32.64-141.93-9.88-38.34-42.19,16.22-93.98-17.58-180.41-28.64-73.23-95.52-106.95-80.01-150.27,1.52-4.26,5.47-15.27,13.33-16.74Z"/>
        <path class="cls-28" d="M561.64,341.21c37.78-2.39,149.89,196.29,63.45,326.41-86.25,129.82-312.49,104.6-326.41,63.45-11.5-34,103.74-132.67,228.95-129.19,139.79,3.89,247.16,133.87,232.86,159.34-13.64,24.3-117.03,21.77-153.48-29.78-36.16-51.15,30.28-100.33,4.99-199.13-21.43-83.71-89.86-129.44-67.14-174.61,2.23-4.44,8.01-15.92,16.78-16.47Z"/>
        <path class="cls-3" d="M584.46,296.3c41.52,2.45,137.2,234.17,25.49,364.52-111.46,130.05-354.85,72.24-364.52,25.49-7.99-38.62,130.91-130.82,267.01-110.25,151.94,22.96,251.65,179.11,232.65,204.98-18.13,24.67-130.56,8.07-163.41-53.04-32.59-60.64,46.46-105.37,32.11-216.53-12.16-94.17-80.67-153.21-49.84-199.44,3.03-4.54,10.86-16.29,20.51-15.72Z"/>
        <path class="cls-19" d="M615.37,250.38c44.96,8.24,118.28,273.79-21.02,400.99-138.98,126.92-396.71,31.27-400.99-21.02-3.54-43.2,160.31-125.15,306-84.49,162.65,45.4,250.5,229.06,226.3,254.73-23.08,24.48-143.49-8.68-171.13-79.74-27.43-70.5,64.79-108.71,64.02-231.87-.65-104.34-67.47-177.92-27.65-224.21,3.91-4.55,14.03-16.31,24.48-14.4Z"/>
        <path class="cls-9" d="M655.23,204.43c47.94,15,92.35,314.46-76.62,434.55-168.59,119.82-436.88-19.02-434.55-76.62,1.92-47.59,191.61-115.03,345.07-51.17,171.33,71.3,242.54,283.38,212.71,308.14-28.45,23.61-155.34-28.69-175.98-109.89-20.48-80.57,85.23-109.9,100.88-244.33,13.26-113.89-49.77-203.09-.14-248.25,4.88-4.44,17.49-15.91,28.63-12.43Z"/>
        <path class="cls-29" d="M704.86,159.65c50.27,22.78,58.61,355.35-141.77,463.71-199.93,108.11-473.96-79.26-463.71-141.77,8.47-51.65,224.4-99.81,383.23-9.6,177.32,100.71,226.59,341.57,190.74,364.58-34.2,21.94-165.59-52.09-177.23-143.42-11.54-90.62,107.67-108.45,142.75-252.98,29.72-122.45-27.08-228.18,33.1-270.79,5.92-4.19,21.21-15.01,32.89-9.72Z"/>
        <path class="cls-30" d="M764.99,117.45c51.78,31.58,16.34,395.44-216.73,486.79-232.54,91.14-506.34-149.92-486.79-216.73,16.16-55.2,258.12-78.81,419.27,40.85,179.92,133.59,201.4,402.9,159.22,423.19-40.24,19.36-173.64-78.99-174.09-180.17-.46-100.39,131.96-103.87,189.58-256.81,48.82-129.58,1.02-252.5,72.36-290.92,7.01-3.78,25.14-13.54,37.17-6.2Z"/>
        <path class="cls-27" d="M836.22,79.48c52.25,41.38-35.14,433.5-301.58,501.92C268.8,649.67,2.44,350.07,32.72,279.82c25.01-58.04,292.09-51.39,451.83,100.71,178.35,169.8,165.71,466.42,116.99,482.9-46.48,15.72-178.81-109.41-165.76-219.83,12.95-109.55,157.85-95.62,241.17-254.72,70.6-134.79,34.93-275.27,117.89-307.62,8.15-3.18,29.23-11.4,41.37-1.78Z"/>
        <path class="cls-8" d="M919.01,47.61c51.45,52.13-96.38,468.11-396.16,507.06C223.75,593.53-26.64,231.08,15.79,158.51c35.06-59.96,325.46-16.93,479.33,170.35,171.78,209.09,118.28,530.92,62.93,542.37-52.8,10.92-180.37-143.28-151.35-261.97,28.79-117.76,184.97-83.15,297.16-245.53,95.05-137.57,74.96-295.56,169.78-319.73,9.32-2.38,33.41-8.52,45.37,3.6Z"/>
        <path class="cls-15" d="M1013.56,23.93c49.13,63.75-167.82,497.67-500,500C182.13,526.26-42.44,97.4,13.56,23.93c46.27-60.7,357.25,25.12,500,250,159.36,251.06,57.91,594.92-4,600-59.05,4.84-177.55-180.44-130-306,47.18-124.58,212.88-65.92,357-228C858.66,202.61,857.91,27.59,964.56,13.93c10.48-1.34,37.58-4.82,49,10Z"/>
      </g>
      <circle class="cls-32" cx="886.56" cy="380.93" r="5"/>
      <circle class="cls-32" cx="946.56" cy="365.93" r="5"/>
      <circle class="cls-32" cx="935.56" cy="319.93" r="5"/>
      <circle class="cls-32" cx="971.56" cy="277.93" r="5"/>
      <circle class="cls-32" cx="976.56" cy="237.93" r="5"/>
      <circle class="cls-32" cx="1006.56" cy="209.93" r="5"/>
      <circle class="cls-32" cx="908.06" cy="352.43" r="3.5"/>
      <circle class="cls-32" cx="944.06" cy="286.43" r="3.5"/>
      <circle class="cls-32" cx="1041.06" cy="269.43" r="3.5"/>
      <circle class="cls-32" cx="1015.06" cy="186.43" r="3.5"/>
      <circle class="cls-32" cx="854.06" cy="416.43" r="3.5"/>
      <circle class="cls-32" cx="985.06" cy="332.43" r="3.5"/>
      <circle class="cls-32" cx="1010.06" cy="156.43" r="3.5"/>
    </g>
  </g>
</svg>