<?xml version="1.0" encoding="UTF-8"?>
<svg id="Layer_2" xmlns="http://www.w3.org/2000/svg" viewBox="0 0 1417 781.61">
  <defs>
    <style>
      .cls-1 {
        stroke-dasharray: 0 5.2;
        stroke-width: 1.56px;
      }

      .cls-1, .cls-2, .cls-3, .cls-4, .cls-5, .cls-6, .cls-7, .cls-8, .cls-9, .cls-10, .cls-11, .cls-12, .cls-13, .cls-14, .cls-15, .cls-16, .cls-17, .cls-18, .cls-19, .cls-20, .cls-21, .cls-22, .cls-23, .cls-24, .cls-25, .cls-26, .cls-27, .cls-28, .cls-29, .cls-30, .cls-31 {
        fill: none;
        stroke: #ff8d86;
        stroke-linecap: round;
        stroke-linejoin: round;
      }

      .cls-2 {
        stroke-dasharray: 0 25.84;
        stroke-width: 7.75px;
      }

      .cls-3 {
        stroke-dasharray: 0 7.58;
        stroke-width: 2.27px;
      }

      .cls-4 {
        stroke-dasharray: 0 23.51;
        stroke-width: 7.05px;
      }

      .cls-5 {
        stroke-dasharray: 0 31.2;
        stroke-width: 9.36px;
      }

      .cls-6 {
        stroke-dasharray: 0 45.5;
        stroke-width: 13.65px;
      }

      .cls-7 {
        stroke-dasharray: 0 2.95;
        stroke-width: .89px;
      }

      .cls-8 {
        stroke-dasharray: 0 14.67;
        stroke-width: 4.4px;
      }

      .cls-9 {
        stroke-dasharray: 0 19.47;
        stroke-width: 5.84px;
      }

      .cls-10 {
        stroke-dasharray: 0 6.28;
        stroke-width: 1.88px;
      }

      .cls-11 {
        stroke-dasharray: 0 50;
        stroke-width: 15px;
      }

      .cls-12 {
        stroke-dasharray: 0 4.31;
        stroke-width: 1.29px;
      }

      .cls-13 {
        stroke-dasharray: 0 12.15;
        stroke-width: 3.65px;
      }

      .cls-14 {
        stroke-dasharray: 0 17.72;
        stroke-width: 5.32px;
      }

      .cls-15 {
        stroke-dasharray: 0 10.06;
        stroke-width: 3.02px;
      }

      .cls-16 {
        stroke-dasharray: 0 13.35;
        stroke-width: 4.01px;
      }

      .cls-17 {
        stroke-dasharray: 0 3.24;
        stroke-width: .97px;
      }

      .cls-18 {
        stroke-dasharray: 0 28.39;
        stroke-width: 8.52px;
      }

      .cls-32 {
        fill: #ff8d86;
      }

      .cls-19 {
        stroke-dasharray: 0 4.73;
        stroke-width: 1.42px;
      }

      .cls-20 {
        stroke-dasharray: 0 37.68;
        stroke-width: 11.3px;
      }

      .cls-21 {
        stroke-dasharray: 0 5.71;
        stroke-width: 1.71px;
      }

      .cls-22 {
        stroke-dasharray: 0 21.4;
        stroke-width: 6.42px;
      }

      .cls-23 {
        stroke-dasharray: 0 9.16;
        stroke-width: 2.75px;
      }

      .cls-24 {
        stroke-dasharray: 0 8.33;
        stroke-width: 2.5px;
      }

      .cls-25 {
        stroke-dasharray: 0 6.9;
        stroke-width: 2.07px;
      }

      .cls-26 {
        stroke-dasharray: 0 3.57;
        stroke-width: 1.07px;
      }

      .cls-27 {
        stroke-dasharray: 0 3.92;
        stroke-width: 1.18px;
      }

      .cls-28 {
        stroke-dasharray: 0 41.4;
        stroke-width: 12.42px;
      }

      .cls-29 {
        stroke-dasharray: 0 11.06;
        stroke-width: 3.32px;
      }

      .cls-30 {
        stroke-dasharray: 0 34.29;
        stroke-width: 10.29px;
      }

      .cls-31 {
        stroke-dasharray: 0 16.12;
        stroke-width: 4.84px;
      }
    </style>
  </defs>
  <g id="high_good">
    <g>
      <g>
        <g>
          <circle class="cls-7" cx="751.38" cy="396.12" r="15.63"/>
          <circle class="cls-7" cx="727.11" cy="395.47" r="15.63"/>
          <circle class="cls-7" cx="706.78" cy="409.89" r="15.63"/>
        </g>
        <g>
          <circle class="cls-17" cx="754.24" cy="398.65" r="17.17"/>
          <circle class="cls-17" cx="727.86" cy="394.7" r="17.17"/>
          <circle class="cls-17" cx="703.75" cy="407.69" r="17.17"/>
        </g>
        <g>
          <circle class="cls-26" cx="757.03" cy="401.79" r="18.87"/>
          <circle class="cls-26" cx="728.78" cy="393.95" r="18.87"/>
          <circle class="cls-26" cx="700.74" cy="404.89" r="18.87"/>
        </g>
        <g>
          <circle class="cls-27" cx="759.64" cy="405.59" r="20.74"/>
          <circle class="cls-27" cx="729.89" cy="393.26" r="20.74"/>
          <circle class="cls-27" cx="697.84" cy="401.44" r="20.74"/>
        </g>
        <g>
          <circle class="cls-12" cx="761.99" cy="410.09" r="22.79"/>
          <circle class="cls-12" cx="731.18" cy="392.65" r="22.79"/>
          <circle class="cls-12" cx="695.13" cy="397.28" r="22.79"/>
        </g>
        <g>
          <circle class="cls-19" cx="763.94" cy="415.31" r="25.04"/>
          <circle class="cls-19" cx="732.68" cy="392.16" r="25.04"/>
          <circle class="cls-19" cx="692.74" cy="392.38" r="25.04"/>
        </g>
        <g>
          <circle class="cls-1" cx="765.37" cy="421.26" r="27.52"/>
          <circle class="cls-1" cx="734.38" cy="391.83" r="27.52"/>
          <circle class="cls-1" cx="690.78" cy="386.72" r="27.52"/>
        </g>
        <g>
          <circle class="cls-21" cx="766.14" cy="427.95" r="30.24"/>
          <circle class="cls-21" cx="736.27" cy="391.69" r="30.24"/>
          <circle class="cls-21" cx="689.4" cy="380.29" r="30.24"/>
        </g>
        <g>
          <circle class="cls-10" cx="766.08" cy="435.34" r="33.23"/>
          <circle class="cls-10" cx="738.36" cy="391.8" r="33.23"/>
          <circle class="cls-10" cx="688.77" cy="373.08" r="33.23"/>
        </g>
        <g>
          <circle class="cls-25" cx="765.02" cy="443.4" r="36.52"/>
          <circle class="cls-25" cx="740.62" cy="392.19" r="36.52"/>
          <circle class="cls-25" cx="689.03" cy="365.14" r="36.52"/>
        </g>
        <g>
          <circle class="cls-3" cx="762.79" cy="452.04" r="40.13"/>
          <circle class="cls-3" cx="743.03" cy="392.92" r="40.13"/>
          <circle class="cls-3" cx="690.39" cy="356.51" r="40.13"/>
        </g>
        <g>
          <circle class="cls-24" cx="759.2" cy="461.18" r="44.1"/>
          <circle class="cls-24" cx="745.57" cy="394.05" r="44.1"/>
          <circle class="cls-24" cx="693.03" cy="347.28" r="44.1"/>
        </g>
        <g>
          <circle class="cls-23" cx="754.06" cy="470.65" r="48.47"/>
          <circle class="cls-23" cx="748.18" cy="395.61" r="48.47"/>
          <circle class="cls-23" cx="697.14" cy="337.56" r="48.47"/>
        </g>
        <g>
          <circle class="cls-15" cx="747.18" cy="480.3" r="53.26"/>
          <circle class="cls-15" cx="750.82" cy="397.67" r="53.26"/>
          <circle class="cls-15" cx="702.92" cy="327.52" r="53.26"/>
        </g>
        <g>
          <circle class="cls-29" cx="738.39" cy="489.91" r="58.53"/>
          <circle class="cls-29" cx="753.43" cy="400.26" r="58.53"/>
          <circle class="cls-29" cx="710.58" cy="317.33" r="58.53"/>
        </g>
        <g>
          <circle class="cls-13" cx="727.51" cy="499.21" r="64.31"/>
          <circle class="cls-13" cx="755.92" cy="403.44" r="64.31"/>
          <circle class="cls-13" cx="720.29" cy="307.25" r="64.31"/>
        </g>
        <g>
          <circle class="cls-16" cx="714.41" cy="507.89" r="70.67"/>
          <circle class="cls-16" cx="758.21" cy="407.24" r="70.67"/>
          <circle class="cls-16" cx="732.24" cy="297.56" r="70.67"/>
        </g>
        <g>
          <circle class="cls-8" cx="698.95" cy="515.61" r="77.66"/>
          <circle class="cls-8" cx="760.21" cy="411.7" r="77.66"/>
          <circle class="cls-8" cx="746.56" cy="288.59" r="77.66"/>
        </g>
        <g>
          <circle class="cls-31" cx="681.05" cy="521.96" r="85.35"/>
          <circle class="cls-31" cx="761.78" cy="416.83" r="85.35"/>
          <circle class="cls-31" cx="763.39" cy="280.72" r="85.35"/>
        </g>
        <g>
          <circle class="cls-14" cx="660.68" cy="526.49" r="93.79"/>
          <circle class="cls-14" cx="762.82" cy="422.63" r="93.79"/>
          <circle class="cls-14" cx="782.79" cy="274.39" r="93.79"/>
        </g>
        <g>
          <circle class="cls-9" cx="637.86" cy="528.7" r="103.06"/>
          <circle class="cls-9" cx="763.17" cy="429.09" r="103.06"/>
          <circle class="cls-9" cx="804.81" cy="270.09" r="103.06"/>
        </g>
        <g>
          <circle class="cls-22" cx="612.67" cy="528.05" r="113.26"/>
          <circle class="cls-22" cx="762.68" cy="436.2" r="113.26"/>
          <circle class="cls-22" cx="829.4" cy="268.34" r="113.26"/>
        </g>
        <g>
          <circle class="cls-4" cx="585.28" cy="523.97" r="124.46"/>
          <circle class="cls-4" cx="761.2" cy="443.88" r="124.46"/>
          <circle class="cls-4" cx="856.45" cy="269.73" r="124.46"/>
        </g>
        <g>
          <circle class="cls-2" cx="555.95" cy="515.86" r="136.76"/>
          <circle class="cls-2" cx="758.56" cy="452.05" r="136.76"/>
          <circle class="cls-2" cx="885.77" cy="274.86" r="136.76"/>
        </g>
        <g>
          <circle class="cls-18" cx="525.05" cy="503.08" r="150.29"/>
          <circle class="cls-18" cx="754.59" cy="460.62" r="150.29"/>
          <circle class="cls-18" cx="917.06" cy="284.39" r="150.29"/>
        </g>
        <g>
          <circle class="cls-5" cx="493.06" cy="485" r="165.16"/>
          <circle class="cls-5" cx="749.1" cy="469.43" r="165.16"/>
          <circle class="cls-5" cx="949.92" cy="298.98" r="165.16"/>
        </g>
        <g>
          <circle class="cls-30" cx="460.59" cy="461" r="181.49"/>
          <circle class="cls-30" cx="741.94" cy="478.31" r="181.49"/>
          <circle class="cls-30" cx="983.8" cy="319.29" r="181.49"/>
        </g>
        <g>
          <circle class="cls-20" cx="428.39" cy="430.47" r="199.44"/>
          <circle class="cls-20" cx="732.94" cy="487.03" r="199.44"/>
          <circle class="cls-20" cx="1018.04" cy="345.97" r="199.44"/>
        </g>
        <g>
          <circle class="cls-28" cx="397.35" cy="392.86" r="219.16"/>
          <circle class="cls-28" cx="721.96" cy="495.34" r="219.16"/>
          <circle class="cls-28" cx="1051.8" cy="379.67" r="219.16"/>
        </g>
        <g>
          <circle class="cls-6" cx="368.54" cy="347.68" r="240.84"/>
          <circle class="cls-6" cx="708.86" cy="502.93" r="240.84"/>
          <circle class="cls-6" cx="1084.12" cy="420.94" r="240.84"/>
        </g>
        <g>
          <circle class="cls-11" cx="343.16" cy="294.55" r="264.66"/>
          <circle class="cls-11" cx="693.57" cy="509.45" r="264.66"/>
          <circle class="cls-11" cx="1113.84" cy="470.28" r="264.66"/>
        </g>
      </g>
      <circle class="cls-32" cx="1204.5" cy="190.5" r="7.5"/>
      <circle class="cls-32" cx="1268.5" cy="178.5" r="7.5"/>
      <circle class="cls-32" cx="1244.5" cy="210.5" r="7.5"/>
      <circle class="cls-32" cx="1315.5" cy="267.5" r="7.5"/>
      <circle class="cls-32" cx="1409.5" cy="424.5" r="7.5"/>
      <circle class="cls-32" cx="1278.5" cy="714.5" r="7.5"/>
      <circle class="cls-32" cx="1351.5" cy="677.5" r="7.5"/>
      <circle class="cls-32" cx="123.5" cy="86.5" r="7.5"/>
      <circle class="cls-32" cx="221.5" cy="46.5" r="7.5"/>
      <circle class="cls-32" cx="197.5" cy="7.5" r="7.5"/>
      <circle class="cls-32" cx="298.5" cy="12.5" r="7.5"/>
      <circle class="cls-32" cx="133.5" cy="22.5" r="7.5"/>
      <circle class="cls-32" cx="95.5" cy="149.5" r="7.5"/>
      <circle class="cls-32" cx="143.5" cy="528.5" r="7.5"/>
      <circle class="cls-32" cx="39.5" cy="434.5" r="7.5"/>
      <circle class="cls-32" cx="49.5" cy="388.5" r="7.5"/>
      <circle class="cls-32" cx="39.5" cy="272.5" r="7.5"/>
      <circle class="cls-32" cx="600.5" cy="118.5" r="7.5"/>
      <circle class="cls-32" cx="542.5" cy="27.5" r="7.5"/>
      <circle class="cls-32" cx="559" cy="90" r="5"/>
      <circle class="cls-32" cx="255" cy="11" r="5"/>
      <circle class="cls-32" cx="166" cy="55" r="5"/>
      <circle class="cls-32" cx="5" cy="335" r="5"/>
      <circle class="cls-32" cx="94" cy="474" r="5"/>
      <circle class="cls-32" cx="1324" cy="723" r="5"/>
      <circle class="cls-32" cx="1396" cy="368" r="5"/>
      <circle class="cls-32" cx="1287" cy="219" r="5"/>
      <circle class="cls-32" cx="1243" cy="751" r="5"/>
      <circle class="cls-32" cx="48" cy="187" r="5"/>
      <circle class="cls-32" cx="510" cy="55" r="5"/>
    </g>
  </g>
</svg>