<?xml version="1.0" encoding="UTF-8"?>
<svg id="Layer_2" xmlns="http://www.w3.org/2000/svg" viewBox="0 0 1088 556.3">
  <defs>
    <style>
      .cls-1 {
        stroke-dasharray: 0 4.31;
        stroke-width: .86px;
      }

      .cls-1, .cls-2, .cls-3, .cls-4, .cls-5, .cls-6, .cls-7, .cls-8, .cls-9, .cls-10, .cls-11, .cls-12, .cls-13, .cls-14, .cls-15, .cls-16, .cls-17, .cls-18, .cls-19, .cls-20, .cls-21, .cls-22, .cls-23, .cls-24, .cls-25, .cls-26, .cls-27, .cls-28, .cls-29, .cls-30, .cls-31 {
        fill: none;
        stroke: #87b4db;
        stroke-linecap: round;
        stroke-linejoin: round;
      }

      .cls-2 {
        stroke-dasharray: 0 6.9;
        stroke-width: 1.38px;
      }

      .cls-3 {
        stroke-dasharray: 0 13.35;
        stroke-width: 2.67px;
      }

      .cls-4 {
        stroke-dasharray: 0 5.2;
        stroke-width: 1.04px;
      }

      .cls-5 {
        stroke-dasharray: 0 41.4;
        stroke-width: 8.28px;
      }

      .cls-6 {
        stroke-dasharray: 0 8.33;
        stroke-width: 1.67px;
      }

      .cls-7 {
        stroke-dasharray: 0 3.92;
        stroke-width: .78px;
      }

      .cls-8 {
        stroke-dasharray: 0 19.47;
        stroke-width: 3.89px;
      }

      .cls-9 {
        stroke-dasharray: 0 31.2;
        stroke-width: 6.24px;
      }

      .cls-10 {
        stroke-dasharray: 0 21.4;
        stroke-width: 4.28px;
      }

      .cls-11 {
        stroke-dasharray: 0 34.29;
        stroke-width: 6.86px;
      }

      .cls-12 {
        stroke-dasharray: 0 7.58;
        stroke-width: 1.52px;
      }

      .cls-13 {
        stroke-dasharray: 0 17.72;
        stroke-width: 3.54px;
      }

      .cls-14 {
        stroke-dasharray: 0 6.28;
        stroke-width: 1.26px;
      }

      .cls-15 {
        stroke-dasharray: 0 14.67;
        stroke-width: 2.93px;
      }

      .cls-16 {
        stroke-dasharray: 0 3.57;
        stroke-width: .71px;
      }

      .cls-17 {
        stroke-dasharray: 0 4.73;
        stroke-width: .95px;
      }

      .cls-18 {
        stroke-dasharray: 0 16.12;
        stroke-width: 3.22px;
      }

      .cls-19 {
        stroke-dasharray: 0 50;
        stroke-width: 10px;
      }

      .cls-20 {
        stroke-dasharray: 0 37.68;
        stroke-width: 7.54px;
      }

      .cls-21 {
        stroke-dasharray: 0 3.24;
        stroke-width: .65px;
      }

      .cls-22 {
        stroke-dasharray: 0 28.39;
        stroke-width: 5.68px;
      }

      .cls-23 {
        stroke-dasharray: 0 25.84;
        stroke-width: 5.17px;
      }

      .cls-24 {
        stroke-dasharray: 0 45.5;
        stroke-width: 9.1px;
      }

      .cls-25 {
        stroke-dasharray: 0 23.51;
        stroke-width: 4.7px;
      }

      .cls-26 {
        stroke-dasharray: 0 10.06;
        stroke-width: 2.01px;
      }

      .cls-27 {
        stroke-dasharray: 0 5.71;
        stroke-width: 1.14px;
      }

      .cls-28 {
        stroke-dasharray: 0 12.15;
        stroke-width: 2.43px;
      }

      .cls-29 {
        stroke-dasharray: 0 9.16;
        stroke-width: 1.83px;
      }

      .cls-30 {
        stroke-dasharray: 0 11.06;
        stroke-width: 2.21px;
      }

      .cls-31 {
        stroke-dasharray: 0 2.95;
        stroke-width: .59px;
      }

      .cls-32 {
        fill: #87b4db;
      }
    </style>
  </defs>
  <g id="low_bad">
    <g>
      <g>
        <g>
          <path class="cls-31" d="M499.6,295.28c5.7-9.87,21.77-11.27,35.89-3.12,14.12,8.15,20.95,22.77,15.25,32.64"/>
          <polygon class="cls-31" points="519.36 320.11 533.65 314.94 530.65 300.56 517.15 305.41 519.36 320.11"/>
        </g>
        <g>
          <path class="cls-21" d="M497.85,291.81c7.19-10.26,24.91-10.25,39.59.03,14.68,10.28,20.75,26.93,13.57,37.2"/>
          <polygon class="cls-21" points="517.11 320.88 533.24 316.6 531.33 300.57 516.09 304.58 517.11 320.88"/>
        </g>
        <g>
          <path class="cls-16" d="M496.26,287.84c8.85-10.55,28.25-8.84,43.34,3.82,15.09,12.66,20.14,31.47,11.29,42.02"/>
          <polygon class="cls-16" points="514.56 321.51 532.64 318.37 532.08 300.64 515.01 303.57 514.56 321.51"/>
        </g>
        <g>
          <path class="cls-7" d="M494.91,283.35c10.7-10.7,31.78-6.97,47.08,8.33,15.3,15.3,19.03,36.38,8.33,47.08"/>
          <polygon class="cls-7" points="511.72 321.95 531.8 320.25 532.89 300.78 513.92 302.36 511.72 321.95"/>
        </g>
        <g>
          <path class="cls-1" d="M493.85,278.3c12.74-10.69,35.45-4.58,50.74,13.63,15.29,18.22,17.35,41.65,4.61,52.34"/>
          <polygon class="cls-1" points="508.56 322.17 530.71 322.22 533.76 301.02 512.85 300.93 508.56 322.17"/>
        </g>
        <g>
          <path class="cls-17" d="M493.18,272.67c14.97-10.48,39.25-1.62,54.24,19.78,14.99,21.41,15.01,47.25.04,57.73"/>
          <polygon class="cls-17" points="505.08 322.1 529.33 324.28 534.7 301.36 511.81 299.27 505.08 322.1"/>
        </g>
        <g>
          <path class="cls-4" d="M492.99,266.44c17.39-10.04,43.12,1.98,57.48,26.85,14.36,24.87,11.9,53.17-5.49,63.21"/>
          <polygon class="cls-4" points="501.27 321.7 527.61 326.41 535.68 301.83 510.83 297.34 501.27 321.7"/>
        </g>
        <g>
          <path class="cls-27" d="M493.37,259.6c20-9.32,47.02,6.3,60.36,34.9,13.34,28.6,7.94,59.34-12.06,68.67"/>
          <polygon class="cls-27" points="497.15 320.89 525.53 328.57 536.72 302.44 509.95 295.14 497.15 320.89"/>
        </g>
        <g>
          <path class="cls-14" d="M494.45,252.16c22.78-8.29,50.87,11.4,62.73,43.99,11.86,32.59,3,65.72-19.78,74.02"/>
          <polygon class="cls-14" points="492.72 319.61 523.05 330.73 537.8 303.2 509.19 292.65 492.72 319.61"/>
        </g>
        <g>
          <path class="cls-2" d="M496.34,244.11c25.74-6.9,54.6,17.35,64.46,54.16,9.86,36.81-3.01,72.24-28.74,79.13"/>
          <polygon class="cls-2" points="487.98 317.78 520.12 332.86 538.91 304.13 508.6 289.85 487.98 317.78"/>
        </g>
        <g>
          <path class="cls-12" d="M499.18,235.48c28.84-5.08,58.11,24.22,65.38,65.46,7.27,41.24-10.21,78.79-39.04,83.88"/>
          <polygon class="cls-12" points="482.97 315.33 516.71 334.92 540.03 305.27 508.22 286.72 482.97 315.33"/>
        </g>
        <g>
          <path class="cls-6" d="M503.12,226.3c32.05-2.8,61.29,32.08,65.3,77.93,4.01,45.84-18.72,85.28-50.78,88.08"/>
          <polygon class="cls-6" points="477.73 312.16 512.79 336.84 541.16 306.61 508.1 283.26 477.73 312.16"/>
        </g>
        <g>
          <path class="cls-29" d="M508.3,216.63c35.36,0,64.02,40.99,64.02,91.56s-28.66,91.56-64.02,91.56"/>
          <polygon class="cls-29" points="472.29 308.2 508.3 338.57 542.26 308.2 508.3 279.47 472.29 308.2"/>
        </g>
        <g>
          <path class="cls-26" d="M514.91,206.55c38.71,3.39,66.16,51.01,61.32,106.37-4.84,55.36-40.15,97.49-78.86,94.1"/>
          <polygon class="cls-26" points="466.71 303.33 503.23 340.03 543.31 310.03 508.89 275.33 466.71 303.33"/>
        </g>
        <g>
          <path class="cls-30" d="M523.11,196.14c42.05,7.41,67.54,62.18,56.94,122.31-10.6,60.14-53.29,102.88-95.34,95.46"/>
          <polygon class="cls-30" points="461.07 297.47 497.54 341.15 544.28 312.15 509.93 270.86 461.07 297.47"/>
        </g>
        <g>
          <path class="cls-28" d="M533.08,185.53c45.32,12.14,67.98,74.53,50.62,139.35-17.37,64.82-68.19,107.52-113.51,95.38"/>
          <polygon class="cls-28" points="455.46 290.52 491.2 341.82 545.15 314.55 511.5 266.07 455.46 290.52"/>
        </g>
        <g>
          <path class="cls-3" d="M545.01,174.86c48.45,17.64,67.28,88.11,42.06,157.4-25.22,69.29-84.94,111.17-133.4,93.54"/>
          <polygon class="cls-3" points="449.98 282.37 484.19 341.95 545.86 317.27 513.67 260.97 449.98 282.37"/>
        </g>
        <g>
          <path class="cls-15" d="M559.09,164.34c51.35,23.95,65.22,102.89,30.97,176.34-34.25,73.44-103.64,113.57-154.99,89.62"/>
          <polygon class="cls-15" points="444.77 272.92 476.51 341.43 546.39 320.31 516.54 255.59 444.77 272.92"/>
        </g>
        <g>
          <path class="cls-18" d="M575.51,154.16c53.92,31.13,61.54,118.89,17.02,196.01-44.52,77.12-124.33,114.4-178.25,83.27"/>
          <polygon class="cls-18" points="439.97 262.08 468.15 340.12 546.67 323.69 520.19 249.99 439.97 262.08"/>
        </g>
        <g>
          <path class="cls-13" d="M594.47,144.59c56.05,39.25,55.98,136.04-.14,216.2-56.13,80.16-147.07,113.33-203.11,74.08"/>
          <polygon class="cls-13" points="435.74 249.76 459.13 337.88 546.66 327.42 524.72 244.2 435.74 249.76"/>
        </g>
        <g>
          <path class="cls-8" d="M616.13,135.93c57.6,48.33,48.26,154.29-20.86,236.67-69.12,82.38-171.85,109.97-229.45,61.64"/>
          <polygon class="cls-8" points="432.3 235.86 449.46 334.57 546.28 331.5 530.25 238.29 432.3 235.86"/>
        </g>
        <g>
          <path class="cls-10" d="M640.68,128.53c58.43,58.43,38.05,173.53-45.51,257.08-83.56,83.56-198.66,103.93-257.08,45.51"/>
          <polygon class="cls-10" points="429.87 220.31 439.2 330.01 545.49 335.93 536.85 232.36 429.87 220.31"/>
        </g>
        <g>
          <path class="cls-25" d="M668.26,122.78c58.36,69.56,25.04,193.61-74.44,277.08-99.48,83.47-227.43,94.75-285.79,25.2"/>
          <polygon class="cls-25" points="428.69 203.06 428.4 324.05 544.19 340.7 544.66 226.49 428.69 203.06"/>
        </g>
        <g>
          <path class="cls-23" d="M699.01,119.12c57.23,81.73,8.86,214.34-108.03,296.19-116.89,81.85-258.05,81.94-315.28.21"/>
          <polygon class="cls-23" points="429.06 184.06 417.15 316.48 542.31 345.8 553.76 220.82 429.06 184.06"/>
        </g>
        <g>
          <path class="cls-22" d="M733.02,118.06c54.82,94.96-10.82,235.49-146.63,313.9-135.8,78.41-290.34,64.99-345.16-29.97"/>
          <polygon class="cls-22" points="431.28 163.3 405.55 307.12 539.76 351.2 564.27 215.49 431.28 163.3"/>
        </g>
        <g>
          <path class="cls-9" d="M770.35,120.16c50.92,109.2-34.4,256.76-190.58,329.59-156.18,72.83-324.06,43.34-374.98-65.86"/>
          <polygon class="cls-9" points="435.69 140.78 393.76 295.76 536.46 356.88 576.29 210.65 435.69 140.78"/>
        </g>
        <g>
          <path class="cls-11" d="M811.01,126.03c45.29,124.42-62.26,277.79-240.2,342.56-177.94,64.77-358.91,16.41-404.19-108.02"/>
          <polygon class="cls-11" points="442.68 116.56 381.94 282.2 532.3 362.77 589.9 206.51 442.68 116.56"/>
        </g>
        <g>
          <path class="cls-20" d="M854.97,136.35c37.66,140.54-94.76,298.14-295.76,352-201,53.86-394.48-16.41-432.13-156.96"/>
          <polygon class="cls-20" points="452.66 90.71 370.29 266.22 527.18 368.82 605.21 203.28 452.66 90.71"/>
        </g>
        <g>
          <path class="cls-5" d="M902.1,151.86c27.77,157.46-132.29,317.3-357.49,357.01-225.2,39.71-430.27-55.75-458.03-213.21"/>
          <polygon class="cls-5" points="466.05 63.36 359.08 247.61 521 374.96 622.27 201.21 466.05 63.36"/>
        </g>
        <g>
          <path class="cls-24" d="M952.2,173.36c15.31,175.04-175.21,334.69-425.54,356.59-250.33,21.9-465.68-102.24-481-277.28"/>
          <polygon class="cls-24" points="483.34 34.71 348.58 226.17 513.64 381.08 641.15 200.57 483.34 34.71"/>
        </g>
        <g>
          <path class="cls-19" d="M1005,201.69c0,193.08-223.86,349.61-500,349.61S5,394.77,5,201.69"/>
          <polygon class="cls-19" points="505 5 339.14 201.69 505 387.08 661.88 201.69 505 5"/>
        </g>
      </g>
      <circle class="cls-32" cx="996" cy="371.3" r="5"/>
      <circle class="cls-32" cx="918" cy="447.3" r="5"/>
      <circle class="cls-32" cx="1040" cy="278.3" r="5"/>
      <circle class="cls-32" cx="1034" cy="406.3" r="5"/>
      <circle class="cls-32" cx="952" cy="406.3" r="5"/>
      <circle class="cls-32" cx="1044" cy="346.3" r="5"/>
      <circle class="cls-32" cx="999.5" cy="337.8" r="3.5"/>
      <circle class="cls-32" cx="991.5" cy="414.8" r="3.5"/>
      <circle class="cls-32" cx="971.5" cy="455.8" r="3.5"/>
      <circle class="cls-32" cx="1084.5" cy="393.8" r="3.5"/>
    </g>
  </g>
</svg>