<?xml version="1.0" encoding="UTF-8"?>
<svg id="Layer_2" xmlns="http://www.w3.org/2000/svg" viewBox="0 0 919.49 557.67">
  <defs>
    <style>
      .cls-1 {
        stroke-dasharray: 0 4.31;
        stroke-width: .86px;
      }

      .cls-1, .cls-2, .cls-3, .cls-4, .cls-5, .cls-6, .cls-7, .cls-8, .cls-9, .cls-10, .cls-11, .cls-12, .cls-13, .cls-14, .cls-15, .cls-16, .cls-17, .cls-18, .cls-19, .cls-20, .cls-21, .cls-22, .cls-23, .cls-24, .cls-25, .cls-26, .cls-27, .cls-28, .cls-29, .cls-30, .cls-31 {
        fill: none;
        stroke: #87b4db;
        stroke-linecap: round;
        stroke-linejoin: round;
      }

      .cls-2 {
        stroke-dasharray: 0 6.9;
        stroke-width: 1.38px;
      }

      .cls-3 {
        stroke-dasharray: 0 13.35;
        stroke-width: 2.67px;
      }

      .cls-4 {
        stroke-dasharray: 0 5.2;
        stroke-width: 1.04px;
      }

      .cls-5 {
        stroke-dasharray: 0 41.4;
        stroke-width: 8.28px;
      }

      .cls-6 {
        stroke-dasharray: 0 8.33;
        stroke-width: 1.67px;
      }

      .cls-7 {
        stroke-dasharray: 0 3.92;
        stroke-width: .78px;
      }

      .cls-8 {
        stroke-dasharray: 0 19.47;
        stroke-width: 3.89px;
      }

      .cls-9 {
        stroke-dasharray: 0 31.2;
        stroke-width: 6.24px;
      }

      .cls-10 {
        stroke-dasharray: 0 21.4;
        stroke-width: 4.28px;
      }

      .cls-11 {
        stroke-dasharray: 0 34.29;
        stroke-width: 6.86px;
      }

      .cls-12 {
        stroke-dasharray: 0 7.58;
        stroke-width: 1.52px;
      }

      .cls-13 {
        stroke-dasharray: 0 17.72;
        stroke-width: 3.54px;
      }

      .cls-14 {
        stroke-dasharray: 0 6.28;
        stroke-width: 1.26px;
      }

      .cls-15 {
        stroke-dasharray: 0 14.67;
        stroke-width: 2.93px;
      }

      .cls-16 {
        stroke-dasharray: 0 3.57;
        stroke-width: .71px;
      }

      .cls-17 {
        stroke-dasharray: 0 4.73;
        stroke-width: .95px;
      }

      .cls-18 {
        stroke-dasharray: 0 16.12;
        stroke-width: 3.22px;
      }

      .cls-19 {
        stroke-dasharray: 0 50;
        stroke-width: 10px;
      }

      .cls-20 {
        stroke-dasharray: 0 37.68;
        stroke-width: 7.54px;
      }

      .cls-21 {
        stroke-dasharray: 0 3.24;
        stroke-width: .65px;
      }

      .cls-22 {
        stroke-dasharray: 0 28.39;
        stroke-width: 5.68px;
      }

      .cls-23 {
        stroke-dasharray: 0 25.84;
        stroke-width: 5.17px;
      }

      .cls-24 {
        stroke-dasharray: 0 45.5;
        stroke-width: 9.1px;
      }

      .cls-25 {
        stroke-dasharray: 0 23.51;
        stroke-width: 4.7px;
      }

      .cls-26 {
        stroke-dasharray: 0 10.06;
        stroke-width: 2.01px;
      }

      .cls-27 {
        stroke-dasharray: 0 5.71;
        stroke-width: 1.14px;
      }

      .cls-28 {
        stroke-dasharray: 0 12.15;
        stroke-width: 2.43px;
      }

      .cls-29 {
        stroke-dasharray: 0 9.16;
        stroke-width: 1.83px;
      }

      .cls-30 {
        stroke-dasharray: 0 11.06;
        stroke-width: 2.21px;
      }

      .cls-31 {
        stroke-dasharray: 0 2.95;
        stroke-width: .59px;
      }

      .cls-32 {
        fill: #87b4db;
      }
    </style>
  </defs>
  <g id="low_bad">
    <g>
      <g>
        <g>
          <path class="cls-31" d="M479.81,265.56l-6.79,29.45c.35-.39,2.94-3.22,7.11-3.07,3.79.13,6.08,2.63,6.47,3.07-2.26-9.82-4.52-19.63-6.79-29.45Z"/>
          <path class="cls-31" d="M459.73,262.66l-6.79,29.45c.34-.4,2.74-3.12,6.75-3.13,4.05-.01,6.48,2.74,6.82,3.13-2.26-9.82-4.52-19.63-6.79-29.45Z"/>
          <path class="cls-31" d="M439.68,265.56l-6.79,29.45c.41-.42,3.04-3.05,7.15-2.89,3.67.14,5.95,2.4,6.43,2.89-2.26-9.82-4.52-19.63-6.79-29.45Z"/>
        </g>
        <g>
          <path class="cls-21" d="M483.2,266.63l-10.8,31.4c.43-.39,3.58-3.18,8.12-2.54,4.13.58,6.34,3.58,6.71,4.1-1.34-10.99-2.69-21.97-4.03-32.96Z"/>
          <path class="cls-21" d="M461.59,261.16l-10.8,31.4c.42-.4,3.36-3.09,7.74-2.64,4.43.45,6.77,3.73,7.09,4.2-1.34-10.99-2.69-21.97-4.03-32.96Z"/>
          <path class="cls-21" d="M439.34,262.02l-10.8,31.4c.5-.42,3.67-2.98,8.14-2.34,3.99.57,6.23,3.31,6.69,3.9-1.34-10.99-2.69-21.97-4.03-32.96Z"/>
        </g>
        <g>
          <path class="cls-16" d="M486.78,268.19l-15.41,33.08c.51-.38,4.28-3.06,9.16-1.84,4.45,1.11,6.52,4.64,6.87,5.25-.21-12.16-.41-24.32-.62-36.49Z"/>
          <path class="cls-16" d="M463.79,259.73l-15.41,33.08c.5-.39,4.02-2.99,8.76-2,4.79,1,6.97,4.86,7.27,5.41-.21-12.16-.41-24.32-.62-36.49Z"/>
          <path class="cls-16" d="M439.37,258.11l-15.41,33.08c.59-.4,4.35-2.84,9.17-1.62,4.3,1.09,6.43,4.33,6.86,5.03-.21-12.16-.41-24.32-.62-36.49Z"/>
        </g>
        <g>
          <path class="cls-7" d="M490.52,270.31l-20.64,34.38c.6-.35,5.03-2.85,10.23-.96,4.73,1.72,6.59,5.82,6.9,6.53,1.17-13.32,2.34-26.63,3.51-39.95Z"/>
          <path class="cls-7" d="M466.36,258.42l-20.64,34.38c.59-.36,4.74-2.81,9.81-1.18,5.12,1.64,7.06,6.11,7.32,6.75,1.17-13.32,2.34-26.63,3.51-39.95Z"/>
          <path class="cls-7" d="M439.86,253.85l-20.64,34.38c.69-.37,5.09-2.6,10.2-.72,4.57,1.68,6.53,5.47,6.92,6.29,1.17-13.32,2.34-26.63,3.51-39.95Z"/>
        </g>
        <g>
          <path class="cls-1" d="M494.36,273.05l-26.51,35.21c.7-.32,5.83-2.54,11.29.12,4.97,2.43,6.54,7.11,6.79,7.93,2.81-14.42,5.62-28.84,8.43-43.25Z"/>
          <path class="cls-1" d="M469.32,257.28l-26.51,35.21c.69-.33,5.5-2.52,10.85-.16,5.4,2.38,7.01,7.49,7.23,8.21,2.81-14.42,5.62-28.84,8.43-43.25Z"/>
          <path class="cls-1" d="M440.89,249.24l-26.51,35.21c.8-.32,5.86-2.26,11.24.38,4.8,2.36,6.5,6.73,6.84,7.67,2.81-14.42,5.62-28.84,8.43-43.25Z"/>
        </g>
        <g>
          <path class="cls-17" d="M498.24,276.49l-33.01,35.43c.8-.27,6.66-2.11,12.32,1.43,5.16,3.22,6.33,8.53,6.51,9.44,4.73-15.43,9.45-30.87,14.18-46.3Z"/>
          <path class="cls-17" d="M472.69,256.38l-33.01,35.43c.79-.28,6.3-2.13,11.88,1.07,5.63,3.22,6.8,8.99,6.95,9.81,4.73-15.43,9.45-30.87,14.18-46.3Z"/>
          <path class="cls-17" d="M442.53,244.33l-33.01,35.43c.91-.26,6.66-1.8,12.23,1.71,4.98,3.13,6.33,8.1,6.6,9.16,4.73-15.43,9.45-30.87,14.18-46.3Z"/>
        </g>
        <g>
          <path class="cls-4" d="M502.08,280.69l-40.15,34.93c.9-.2,7.52-1.54,13.3,2.98,5.26,4.12,5.93,10.04,6.03,11.07,6.94-16.33,13.88-32.65,20.81-48.98Z"/>
          <path class="cls-4" d="M476.47,255.78l-40.15,34.93c.9-.22,7.13-1.6,12.86,2.53,5.78,4.17,6.4,10.6,6.47,11.52,6.94-16.33,13.88-32.65,20.81-48.98Z"/>
          <path class="cls-4" d="M444.9,239.15l-40.15,34.93c1.02-.18,7.49-1.2,13.17,3.27,5.08,3.99,5.99,9.58,6.16,10.77,6.94-16.33,13.88-32.65,20.81-48.98Z"/>
        </g>
        <g>
          <path class="cls-27" d="M505.8,285.73l-47.89,33.56c1.01-.11,8.4-.82,14.19,4.78,5.28,5.1,5.33,11.66,5.32,12.79,9.46-17.04,18.91-34.09,28.37-51.13Z"/>
          <path class="cls-27" d="M480.67,255.56l-47.89,33.56c1.01-.13,7.98-.93,13.77,4.24,5.84,5.22,5.78,12.32,5.75,13.33,9.46-17.04,18.91-34.09,28.37-51.13Z"/>
          <path class="cls-27" d="M448.08,233.75l-47.89,33.56c1.14-.08,8.32-.45,14.02,5.09,5.09,4.95,5.45,11.16,5.49,12.48,9.46-17.04,18.91-34.09,28.37-51.13Z"/>
        </g>
        <g>
          <path class="cls-14" d="M509.28,291.66l-56.19,31.18c1.11,0,9.27.07,14.96,6.86,5.19,6.18,4.49,13.35,4.35,14.59,12.29-17.54,24.59-35.08,36.88-52.63Z"/>
          <path class="cls-14" d="M485.28,255.81l-56.19,31.18c1.12-.03,8.83-.1,14.56,6.22,5.78,6.38,4.9,14.13,4.75,15.23,12.29-17.54,24.59-35.08,36.88-52.63Z"/>
          <path class="cls-14" d="M452.17,228.23l-56.19,31.18c1.25.04,9.14.46,14.74,7.17,5,5.99,4.67,12.82,4.57,14.27,12.29-17.54,24.59-35.08,36.88-52.63Z"/>
        </g>
        <g>
          <path class="cls-2" d="M512.41,298.54l-64.99,27.62c1.22.12,10.12,1.14,15.57,9.22,4.96,7.35,3.37,15.11,3.08,16.44,15.45-17.76,30.9-35.52,46.35-53.28Z"/>
          <path class="cls-2" d="M490.3,256.6l-64.99,27.62c1.22.1,9.66.91,15.19,8.47,5.59,7.63,3.73,16.01,3.45,17.19,15.45-17.76,30.9-35.52,46.35-53.28Z"/>
          <path class="cls-2" d="M457.28,222.66l-64.99,27.62c1.36.19,9.94,1.55,15.29,9.53,4.77,7.13,3.63,14.55,3.36,16.12,15.45-17.76,30.9-35.52,46.35-53.28Z"/>
        </g>
        <g>
          <path class="cls-12" d="M515.04,306.42l-74.2,22.72c1.32.27,10.93,2.41,15.95,11.86,4.57,8.61,1.95,16.9,1.47,18.32,18.93-17.63,37.85-35.27,56.78-52.9Z"/>
          <path class="cls-12" d="M495.69,258.04l-74.2,22.72c1.33.25,10.45,2.1,15.63,11,5.23,8.98,2.24,17.92,1.79,19.18,18.93-17.63,37.85-35.27,56.78-52.9Z"/>
          <path class="cls-12" d="M463.51,217.16l-74.2,22.72c1.47.37,10.68,2.84,15.61,12.18,4.4,8.34,2.3,16.32,1.82,18.01,18.93-17.63,37.85-35.27,56.78-52.9Z"/>
        </g>
        <g>
          <path class="cls-6" d="M517.01,315.33l-83.7,16.31c1.41.45,11.67,3.89,16.07,14.79,4.01,9.93.19,18.69-.49,20.19,22.71-17.1,45.42-34.2,68.13-51.29Z"/>
          <path class="cls-6" d="M501.42,260.24l-83.7,16.31c1.42.42,11.18,3.5,15.82,13.82,4.68,10.42.39,19.85-.24,21.17,22.71-17.1,45.42-34.2,68.13-51.29Z"/>
          <path class="cls-6" d="M470.94,211.86l-83.7,16.31c1.56.57,11.35,4.33,15.66,15.1,3.85,9.61.64,18.1-.08,19.89,22.71-17.1,45.42-34.2,68.13-51.29Z"/>
        </g>
        <g>
          <path class="cls-29" d="M518.13,325.3l-93.35,8.21c1.49.65,12.31,5.59,15.87,18.01,3.24,11.31-1.94,20.45-2.86,22.01,26.78-16.08,53.56-32.15,80.35-48.23Z"/>
          <path class="cls-29" d="M507.43,263.3l-93.35,8.21c1.51.62,11.82,5.11,15.7,16.92,3.92,11.93-1.86,21.73-2.7,23.11,26.78-16.08,53.56-32.15,80.35-48.23Z"/>
          <path class="cls-29" d="M479.67,206.92l-93.35,8.21c1.64.8,11.91,6.04,15.38,18.3,3.1,10.95-1.38,19.85-2.38,21.72,26.78-16.08,53.56-32.15,80.35-48.23Z"/>
        </g>
        <g>
          <path class="cls-26" d="M518.22,336.32l-102.96-1.75c1.55.88,12.81,7.52,15.27,21.51,2.24,12.74-4.47,22.13-5.65,23.73,31.12-14.49,62.23-28.99,93.35-43.48Z"/>
          <path class="cls-26" d="M513.64,267.34l-102.96-1.75c1.57.85,12.33,6.94,15.22,20.3,2.92,13.48-4.53,23.54-5.6,24.94,31.12-14.49,62.23-28.99,93.35-43.48Z"/>
          <path class="cls-26" d="M489.78,202.53l-102.96-1.75c1.7,1.06,12.32,7.97,14.71,21.77,2.13,12.32-3.79,21.54-5.09,23.47,31.12-14.49,62.23-28.99,93.35-43.48Z"/>
        </g>
        <g>
          <path class="cls-30" d="M517.05,348.38l-112.33-13.74c1.6,1.14,13.13,9.69,14.22,25.26.99,14.18-7.43,23.67-8.9,25.28,35.67-12.27,71.34-24.53,107.01-36.8Z"/>
          <path class="cls-30" d="M519.96,272.46l-112.33-13.74c1.62,1.12,12.68,9,14.3,23.93,1.64,15.07-7.65,25.21-8.99,26.61,35.67-12.27,71.34-24.53,107.01-36.8Z"/>
          <path class="cls-30" d="M501.34,198.9l-112.33-13.74c1.73,1.36,12.55,10.12,13.57,25.48.92,13.71-6.61,23.1-8.26,25.06,35.67-12.27,71.34-24.53,107.01-36.8Z"/>
        </g>
        <g>
          <path class="cls-28" d="M514.38,361.42l-121.18-27.92c1.61,1.43,13.24,12.1,12.64,29.24-.55,15.61-10.84,25.02-12.64,26.61,40.39-9.31,80.79-18.62,121.18-27.92Z"/>
          <path class="cls-28" d="M526.29,278.78l-121.18-27.92c1.64,1.41,12.82,11.29,12.88,27.79.06,16.66-11.26,26.67-12.88,28.05,40.39-9.31,80.79-18.62,121.18-27.92Z"/>
          <path class="cls-28" d="M514.38,196.25l-121.18-27.92c1.74,1.68,12.55,12.5,11.91,29.4-.57,15.09-9.88,24.49-11.91,26.44,40.39-9.31,80.79-18.62,121.18-27.92Z"/>
        </g>
        <g>
          <path class="cls-3" d="M509.97,375.36l-129.23-44.44c1.6,1.75,13.08,14.75,10.45,33.41-2.39,16.99-14.72,26.09-16.87,27.63,45.21-5.53,90.43-11.07,135.64-16.6Z"/>
          <path class="cls-3" d="M532.48,286.42l-129.23-44.44c1.64,1.72,12.71,13.81,10.88,31.85-1.85,18.21-15.37,27.85-17.3,29.18,45.21-5.53,90.43-11.07,135.64-16.6Z"/>
          <path class="cls-3" d="M528.94,194.86l-129.23-44.44c1.71,2.04,12.28,15.11,9.64,33.5-2.36,16.43-13.61,25.63-16.05,27.53,45.21-5.53,90.43-11.07,135.64-16.6Z"/>
        </g>
        <g>
          <path class="cls-15" d="M503.55,390.1l-136.13-63.41c1.55,2.1,12.6,17.62,7.58,37.71-4.57,18.3-19.08,26.83-21.61,28.26,50.05-.85,100.1-1.71,150.15-2.56Z"/>
          <path class="cls-15" d="M538.36,295.48l-136.13-63.41c1.59,2.07,12.31,16.55,8.24,36.06-4.11,19.69-19.99,28.67-22.26,29.9,50.05-.85,100.1-1.71,150.15-2.56Z"/>
          <path class="cls-15" d="M545.02,195.01l-136.13-63.41c1.63,2.43,11.69,17.92,6.68,37.72-4.47,17.68-17.82,26.44-20.7,28.25,50.05-.85,100.1-1.71,150.15-2.56Z"/>
        </g>
        <g>
          <path class="cls-18" d="M494.84,405.46l-141.49-84.93c1.45,2.47,11.75,20.71,3.96,42.08-7.09,19.47-23.93,27.13-26.86,28.4,54.8,4.82,109.59,9.63,164.39,14.45Z"/>
          <path class="cls-18" d="M543.75,306.06l-141.49-84.93c1.5,2.45,11.55,19.51,4.86,40.36-6.76,21.05-25.14,29.04-27.76,30.13,54.8,4.82,109.59,9.63,164.39,14.45Z"/>
          <path class="cls-18" d="M562.57,197.01l-141.49-84.93c1.51,2.84,10.71,20.93,2.97,41.99-6.91,18.81-22.51,26.85-25.87,28.49,54.8,4.82,109.59,9.63,164.39,14.45Z"/>
        </g>
        <g>
          <path class="cls-13" d="M483.55,421.26l-144.87-109.08c1.3,2.86,10.46,23.98-.51,46.45-9.99,20.46-29.27,26.9-32.62,27.95,59.33,11.56,118.66,23.12,178,34.68Z"/>
          <path class="cls-13" d="M548.42,318.24l-144.87-109.08c1.36,2.85,10.38,22.64.67,44.66-9.8,22.23-30.81,28.85-33.8,29.73,59.33,11.56,118.66,23.12,178,34.68Z"/>
          <path class="cls-13" d="M581.51,201.22l-144.87-109.08c1.32,3.28,9.3,24.1-1.58,46.23-9.72,19.76-27.69,26.76-31.55,28.17,59.33,11.56,118.66,23.12,178,34.68Z"/>
        </g>
        <g>
          <path class="cls-8" d="M469.4,437.22l-145.8-135.85c1.09,3.28,8.68,27.41-5.89,50.7-13.27,21.22-35.08,26.03-38.86,26.8,63.52,19.45,127.03,38.89,190.55,58.34Z"/>
          <path class="cls-8" d="M552.14,332.08l-145.8-135.85c1.16,3.27,8.75,25.94-4.4,48.89-13.27,23.17-36.99,27.99-40.35,28.61,63.52,19.45,127.03,38.89,190.55,58.34Z"/>
          <path class="cls-8" d="M601.74,208l-145.8-135.85c1.07,3.73,7.4,27.41-7.03,50.35-12.89,20.48-33.33,26.07-37.71,27.16,63.52,19.45,127.03,38.89,190.55,58.34Z"/>
        </g>
        <g>
          <path class="cls-10" d="M452.11,453.04l-143.74-165.21c.82,3.71,6.33,30.95-12.26,54.74-16.94,21.66-41.33,24.42-45.54,24.83,67.18,28.55,134.36,57.1,201.54,85.65Z"/>
          <path class="cls-10" d="M554.6,347.64l-143.74-165.21c.89,3.7,6.58,29.35-10.42,52.93-17.16,23.79-43.64,26.34-47.39,26.64,67.18,28.55,134.36,57.1,201.54,85.65Z"/>
          <path class="cls-10" d="M623.06,217.73L479.33,52.52c.74,4.2,4.94,30.8-13.47,54.22-16.44,20.91-39.42,24.66-44.33,25.35,67.18,28.55,134.36,57.1,201.54,85.65Z"/>
        </g>
        <g>
          <path class="cls-25" d="M431.39,468.34l-138.11-197.07c.47,4.15,3.37,34.55-19.69,58.41-21,21.73-47.97,21.94-52.62,21.9,70.14,38.92,140.28,77.84,210.42,116.75Z"/>
          <path class="cls-25" d="M555.51,364.93l-138.11-197.07c.55,4.15,3.82,32.84-17.47,56.65-21.49,24.03-50.72,23.78-54.85,23.67,70.14,38.92,140.28,77.84,210.42,116.75Z"/>
          <path class="cls-25" d="M645.25,230.82L507.14,33.75c.32,4.67,1.86,34.23-20.95,57.7-20.37,20.96-45.92,22.42-51.36,22.61,70.14,38.92,140.28,77.84,210.42,116.75Z"/>
        </g>
        <g>
          <path class="cls-23" d="M406.98,482.69l-128.3-231.24c.03,4.59-.29,38.15-28.23,61.58-25.45,21.34-54.95,18.47-60.03,17.89,72.19,50.59,144.37,101.18,216.56,151.77Z"/>
          <path class="cls-23" d="M554.51,383.92l-128.3-231.24c.12,4.6.4,36.32-25.6,59.9-26.24,23.8-58.16,20.16-62.66,19.57,72.19,50.59,144.37,101.18,216.56,151.77Z"/>
          <path class="cls-23" d="M668,247.67L539.69,16.43c-.19,5.15-1.9,37.63-29.52,60.66-24.67,20.57-52.76,19.23-58.73,18.81,72.19,50.59,144.37,101.18,216.56,151.77Z"/>
        </g>
        <g>
          <path class="cls-22" d="M378.67,495.56l-113.66-267.45c-.49,5.02-4.7,41.66-37.92,64.05-30.26,20.4-62.18,13.87-67.66,12.66,73.08,63.58,146.16,127.16,219.24,190.74Z"/>
          <path class="cls-22" d="M551.24,404.57l-113.66-267.45c-.4,5.04-3.73,39.74-34.85,62.52-31.41,22.99-65.88,15.35-70.73,14.19,73.08,63.58,146.16,127.16,219.24,190.74Z"/>
          <path class="cls-22" d="M690.92,268.69L577.26,1.24c-.79,5.6-6.4,40.9-39.23,62.9-29.32,19.64-59.87,14.96-66.35,13.81,73.08,63.58,146.16,127.16,219.24,190.74Z"/>
        </g>
        <g>
          <path class="cls-9" d="M346.24,506.38l-93.49-305.35c-1.11,5.43-9.92,44.99-48.8,65.65-35.41,18.82-69.54,8.02-75.4,6.06,72.56,77.88,145.13,155.76,217.69,233.64Z"/>
          <path class="cls-9" d="M545.3,426.76l-93.49-305.35c-1.01,5.46-8.64,43.01-45.27,64.33-36.97,21.52-73.76,9.21-78.93,7.38,72.56,77.88,145.13,155.76,217.69,233.64Z"/>
          <path class="cls-9" d="M713.56,294.31L620.06-11.04c-1.51,6.03-11.69,43.97-50.1,64.24-34.3,18.1-67.15,9.47-74.1,7.47,72.56,77.88,145.13,155.76,217.69,233.64Z"/>
        </g>
        <g>
          <path class="cls-11" d="M309.56,514.47l-67.1-344.45c-1.84,5.8-16.01,48.02-60.88,66.14-40.86,16.5-76.93.78-83.1-2.04,70.36,93.45,140.72,186.9,211.07,280.35Z"/>
          <path class="cls-11" d="M536.25,450.32l-67.1-344.45c-1.73,5.85-14.39,46.01-56.87,65.1-42.88,19.27-81.67,1.59-87.11-1,70.36,93.45,140.72,186.9,211.07,280.35Z"/>
          <path class="cls-11" d="M735.35,324.9L668.25-19.55c-2.34,6.42-17.83,46.71-62.14,64.45-39.56,15.84-74.47,2.63-81.84-.35,70.36,93.45,140.72,186.9,211.07,280.35Z"/>
        </g>
        <g>
          <path class="cls-20" d="M268.55,519.11l-33.77-384.15c-2.68,6.13-23.01,50.65-74.13,65.29-46.55,13.33-84.16-7.99-90.58-11.77,66.16,110.21,132.32,220.42,198.48,330.63Z"/>
          <path class="cls-20" d="M523.66,475.04l-33.77-384.15c-2.57,6.2-21.01,48.63-69.63,64.62-49.07,16.14-89.44-7.64-95.08-11.1,66.16,110.21,132.32,220.42,198.48,330.63Z"/>
          <path class="cls-20" d="M755.66,360.83l-33.77-384.15c-3.3,6.74-24.85,49-75.31,63.29-45.06,12.77-81.69-5.68-89.4-9.78,66.16,110.21,132.32,220.42,198.48,330.63Z"/>
        </g>
        <g>
          <path class="cls-5" d="M223.19,519.46l7.22-423.71c-3.63,6.39-30.96,52.71-88.51,62.84-52.41,9.22-91.06-18.4-97.64-23.27,59.64,128.05,119.29,256.09,178.93,384.14Z"/>
          <path class="cls-5" d="M507.06,500.61l7.22-423.71c-3.52,6.48-28.55,50.73-83.52,62.62-55.49,12-96.87-18.63-102.64-23.05,59.64,128.05,119.29,256.09,178.93,384.14Z"/>
          <path class="cls-5" d="M773.73,402.44l7.22-423.71c-4.38,6.99-32.78,50.69-89.57,60.52-50.71,8.78-88.63-15.59-96.58-20.95,59.64,128.05,119.29,256.09,178.93,384.14Z"/>
        </g>
        <g>
          <path class="cls-24" d="M173.57,514.64L230.14,52.41c-4.7,6.57-39.9,54.05-103.95,58.5-58.34,4.06-97.4-30.56-104.04-36.64,50.48,146.79,100.95,293.58,151.43,440.37Z"/>
          <path class="cls-24" d="M485.98,526.64l56.56-462.23c-4.59,6.68-37.02,52.17-98.47,58.84-62.02,6.74-103.72-31.48-109.52-36.98,50.48,146.79,100.95,293.58,151.43,440.37Z"/>
          <path class="cls-24" d="M788.69,449.99L845.25-12.25c-5.59,7.14-41.65,51.64-104.85,55.86-56.43,3.77-95.07-27.21-103.14-33.99,50.48,146.79,100.95,293.58,151.43,440.37Z"/>
        </g>
        <g>
          <path class="cls-19" d="M119.91,503.67L234.82,5c-5.89,6.64-49.81,54.48-120.33,52C50.27,54.74,11.55,12.41,5,5c38.3,166.22,76.61,332.45,114.91,498.67Z"/>
          <path class="cls-19" d="M459.95,552.67l114.91-498.67c-5.78,6.77-46.46,52.76-114.37,53-68.55.24-109.74-46.32-115.45-53,38.3,166.22,76.61,332.45,114.91,498.67Z"/>
          <path class="cls-19" d="M799.58,503.67L914.49,5c-6.93,7.16-51.45,51.65-121,49-62.1-2.36-100.77-40.66-108.82-49,38.3,166.22,76.61,332.45,114.91,498.67Z"/>
        </g>
      </g>
      <circle class="cls-32" cx="426.49" cy="47" r="5"/>
      <circle class="cls-32" cx="428.49" cy="79" r="5"/>
      <circle class="cls-32" cx="458.49" cy="34" r="5"/>
      <circle class="cls-32" cx="449.99" cy="63.5" r="3.5"/>
      <circle class="cls-32" cx="403.99" cy="66.5" r="3.5"/>
      <circle class="cls-32" cx="439.99" cy="17.5" r="3.5"/>
      <circle class="cls-32" cx="405.99" cy="35.5" r="3.5"/>
    </g>
  </g>
</svg>