<?xml version="1.0" encoding="UTF-8"?>
<svg id="Layer_2" xmlns="http://www.w3.org/2000/svg" viewBox="0 0 1006 556.56">
  <defs>
    <style>
      .cls-1 {
        stroke-dasharray: 0 3.25;
        stroke-width: .71px;
      }

      .cls-1, .cls-2, .cls-3, .cls-4, .cls-5, .cls-6, .cls-7, .cls-8, .cls-9, .cls-10, .cls-11, .cls-12, .cls-13, .cls-14, .cls-15, .cls-16, .cls-17, .cls-18, .cls-19, .cls-20, .cls-21, .cls-22, .cls-23, .cls-24, .cls-25, .cls-26, .cls-27, .cls-28, .cls-29, .cls-30, .cls-31 {
        fill: none;
        stroke: #87b4db;
        stroke-linecap: round;
        stroke-linejoin: round;
      }

      .cls-2 {
        stroke-dasharray: 0 23.57;
        stroke-width: 5.17px;
      }

      .cls-3 {
        stroke-dasharray: 0 25.91;
        stroke-width: 5.68px;
      }

      .cls-4 {
        stroke-dasharray: 0 34.38;
        stroke-width: 7.54px;
      }

      .cls-5 {
        stroke-dasharray: 0 13.39;
        stroke-width: 2.93px;
      }

      .cls-6 {
        stroke-dasharray: 0 12.18;
        stroke-width: 2.67px;
      }

      .cls-7 {
        stroke-dasharray: 0 45.62;
        stroke-width: 10px;
      }

      .cls-8 {
        stroke-dasharray: 0 4.74;
        stroke-width: 1.04px;
      }

      .cls-9 {
        stroke-dasharray: 0 16.17;
        stroke-width: 3.54px;
      }

      .cls-10 {
        stroke-dasharray: 0 9.18;
        stroke-width: 2.01px;
      }

      .cls-11 {
        stroke-dasharray: 0 8.35;
        stroke-width: 1.83px;
      }

      .cls-12 {
        stroke-dasharray: 0 7.6;
        stroke-width: 1.67px;
      }

      .cls-13 {
        stroke-dasharray: 0 2.69;
        stroke-width: .59px;
      }

      .cls-14 {
        stroke-dasharray: 0 4.32;
        stroke-width: .95px;
      }

      .cls-15 {
        stroke-dasharray: 0 6.92;
        stroke-width: 1.52px;
      }

      .cls-16 {
        stroke-dasharray: 0 28.47;
        stroke-width: 6.24px;
      }

      .cls-17 {
        stroke-dasharray: 0 5.73;
        stroke-width: 1.26px;
      }

      .cls-18 {
        stroke-dasharray: 0 6.3;
        stroke-width: 1.38px;
      }

      .cls-19 {
        stroke-dasharray: 0 2.96;
        stroke-width: .65px;
      }

      .cls-20 {
        stroke-dasharray: 0 31.28;
        stroke-width: 6.86px;
      }

      .cls-21 {
        stroke-dasharray: 0 41.51;
        stroke-width: 9.1px;
      }

      .cls-22 {
        stroke-dasharray: 0 11.09;
        stroke-width: 2.43px;
      }

      .cls-23 {
        stroke-dasharray: 0 17.77;
        stroke-width: 3.89px;
      }

      .cls-24 {
        stroke-dasharray: 0 10.09;
        stroke-width: 2.21px;
      }

      .cls-25 {
        stroke-dasharray: 0 3.57;
        stroke-width: .78px;
      }

      .cls-26 {
        stroke-dasharray: 0 19.52;
        stroke-width: 4.28px;
      }

      .cls-27 {
        stroke-dasharray: 0 37.78;
        stroke-width: 8.28px;
      }

      .cls-28 {
        stroke-dasharray: 0 14.71;
        stroke-width: 3.22px;
      }

      .cls-29 {
        stroke-dasharray: 0 3.93;
        stroke-width: .86px;
      }

      .cls-30 {
        stroke-dasharray: 0 21.45;
        stroke-width: 4.7px;
      }

      .cls-32 {
        fill: #87b4db;
      }

      .cls-31 {
        stroke-dasharray: 0 5.21;
        stroke-width: 1.14px;
      }
    </style>
  </defs>
  <g id="low_bad">
    <g>
      <g>
        <g>
          <path class="cls-13" d="M917.04,125.81c-.45-4.11,1.43-16.89,1.43-16.89l5.7-11.93-7.13-30"/>
          <polygon class="cls-13" points="901.5 81.28 907.3 85.54 912.62 81.28 907.06 77.58 901.5 81.28"/>
          <polygon class="cls-13" points="897.82 74.14 901.33 76.66 904.56 74.14 901.19 71.95 897.82 74.14"/>
          <polygon class="cls-13" points="891.89 79.78 895.41 82.29 898.63 79.78 895.26 77.59 891.89 79.78"/>
        </g>
        <g>
          <path class="cls-19" d="M916.07,132.15c-.26-4.54,2.54-18.45,2.54-18.45l6.94-12.76-6.1-33.33"/>
          <polygon class="cls-19" points="901.58 82.39 907.7 87.39 913.79 83.03 907.9 78.64 901.58 82.39"/>
          <polygon class="cls-19" points="897.95 74.35 901.66 77.3 905.34 74.73 901.77 72.13 897.95 74.35"/>
          <polygon class="cls-19" points="891.12 80.19 894.83 83.15 898.52 80.58 894.94 77.98 891.12 80.19"/>
        </g>
        <g>
          <path class="cls-1" d="M914.64,139.05c-.02-5,3.84-20.1,3.84-20.1l8.35-13.61-4.77-36.93"/>
          <polygon class="cls-1" points="901.6 83.61 908.03 89.45 914.96 85.02 908.75 79.86 901.6 83.61"/>
          <polygon class="cls-1" points="898.08 74.57 901.98 78.03 906.17 75.42 902.4 72.37 898.08 74.57"/>
          <polygon class="cls-1" points="890.25 80.59 894.15 84.05 898.35 81.44 894.57 78.39 890.25 80.59"/>
        </g>
        <g>
          <path class="cls-25" d="M912.68,146.54c.27-5.48,5.37-21.84,5.37-21.84l9.95-14.45-3.12-40.8"/>
          <polygon class="cls-25" points="901.56 84.95 908.28 91.73 916.14 87.26 909.62 81.25 901.56 84.95"/>
          <polygon class="cls-25" points="898.21 74.83 902.3 78.85 907.05 76.23 903.08 72.66 898.21 74.83"/>
          <polygon class="cls-25" points="889.27 80.99 893.36 85.01 898.11 82.39 894.14 78.82 889.27 80.99"/>
        </g>
        <g>
          <path class="cls-29" d="M910.09,154.65c.61-6,7.15-23.66,7.15-23.66l11.75-15.29-1.07-44.95"/>
          <polygon class="cls-29" points="901.43 86.42 908.42 94.25 917.3 89.8 910.49 82.82 901.43 86.42"/>
          <polygon class="cls-29" points="898.34 75.12 902.59 79.77 907.95 77.17 903.81 73.02 898.34 75.12"/>
          <polygon class="cls-29" points="888.18 81.36 892.43 86.01 897.79 83.41 893.65 79.26 888.18 81.36"/>
        </g>
        <g>
          <path class="cls-14" d="M906.79,163.39c1.01-6.55,9.21-25.55,9.21-25.55l13.77-16.1,1.41-49.39"/>
          <polygon class="cls-14" points="901.21 88.03 908.43 97.02 918.43 92.64 911.36 84.6 901.21 88.03"/>
          <polygon class="cls-14" points="898.46 75.45 902.86 80.8 908.9 78.25 904.59 73.46 898.46 75.45"/>
          <polygon class="cls-14" points="886.95 81.71 891.35 87.06 897.39 84.51 893.08 79.72 886.95 81.71"/>
        </g>
        <g>
          <path class="cls-8" d="M902.66,172.8c1.49-7.13,11.58-27.51,11.58-27.51l16.04-16.87,4.39-54.12"/>
          <polygon class="cls-8" points="900.87 89.78 908.27 100.06 919.5 95.83 912.2 86.59 900.87 89.78"/>
          <polygon class="cls-8" points="898.58 75.82 903.1 81.94 909.87 79.48 905.42 73.98 898.58 75.82"/>
          <polygon class="cls-8" points="885.59 82.03 890.11 88.15 896.88 85.7 892.43 80.19 885.59 82.03"/>
        </g>
        <g>
          <path class="cls-31" d="M897.59,182.89c2.04-7.74,14.29-29.52,14.29-29.52l18.57-17.6,7.93-59.14"/>
          <polygon class="cls-31" points="900.4 91.68 907.93 103.38 920.49 99.39 913.02 88.84 900.4 91.68"/>
          <polygon class="cls-31" points="898.69 76.22 903.3 83.2 910.87 80.9 906.3 74.6 898.69 76.22"/>
          <polygon class="cls-31" points="884.08 82.29 888.69 89.27 896.26 86.97 891.69 80.67 884.08 82.29"/>
        </g>
        <g>
          <path class="cls-17" d="M891.44,193.67c2.68-8.38,17.38-31.58,17.38-31.58l21.4-18.24,12.1-64.44"/>
          <polygon class="cls-17" points="899.78 93.74 907.37 107.01 921.38 103.36 913.79 91.34 899.78 93.74"/>
          <polygon class="cls-17" points="898.79 76.68 903.45 84.6 911.88 82.51 907.23 75.34 898.79 76.68"/>
          <polygon class="cls-17" points="882.4 82.5 887.06 90.42 895.5 88.33 890.84 81.16 882.4 82.5"/>
        </g>
        <g>
          <path class="cls-18" d="M884.08,205.15c3.43-9.04,20.89-33.65,20.89-33.65l24.53-18.79,16.98-70.02"/>
          <polygon class="cls-18" points="898.97 95.96 906.54 110.97 922.13 107.76 914.48 94.14 898.97 95.96"/>
          <polygon class="cls-18" points="898.87 77.18 903.52 86.14 912.9 84.33 908.21 76.2 898.87 77.18"/>
          <polygon class="cls-18" points="880.55 82.63 885.21 91.59 894.59 89.78 889.89 81.64 880.55 82.63"/>
        </g>
        <g>
          <path class="cls-15" d="M875.33,217.32c4.28-9.72,24.86-35.73,24.86-35.73l28-19.21,22.67-75.87"/>
          <polygon class="cls-15" points="897.96 98.35 905.4 115.26 922.69 112.63 915.09 97.25 897.96 98.35"/>
          <polygon class="cls-15" points="898.93 77.74 903.52 87.84 913.92 86.4 909.23 77.2 898.93 77.74"/>
          <polygon class="cls-15" points="878.51 82.66 883.1 92.76 893.5 91.32 888.82 82.12 878.51 82.66"/>
        </g>
        <g>
          <path class="cls-12" d="M865.04,230.17c5.26-10.42,29.33-37.78,29.33-37.78l31.83-19.47,29.24-81.95"/>
          <polygon class="cls-12" points="896.71 100.92 903.9 119.9 923.03 118.01 915.57 100.69 896.71 100.92"/>
          <polygon class="cls-12" points="898.96 78.36 903.42 89.71 914.91 88.72 910.3 78.35 898.96 78.36"/>
          <polygon class="cls-12" points="876.27 82.58 880.73 93.93 892.23 92.94 887.62 82.58 876.27 82.58"/>
        </g>
        <g>
          <path class="cls-11" d="M853.01,243.68c6.37-11.14,34.36-39.77,34.36-39.77l36.05-19.53,36.8-88.25"/>
          <polygon class="cls-11" points="895.19 103.66 902 124.9 923.1 123.94 915.9 104.5 895.19 103.66"/>
          <polygon class="cls-11" points="898.96 79.03 903.2 91.74 915.87 91.32 911.41 79.68 898.96 79.03"/>
          <polygon class="cls-11" points="873.82 82.37 878.06 95.08 890.73 94.66 886.27 83.02 873.82 82.37"/>
        </g>
        <g>
          <path class="cls-10" d="M839.02,257.82c7.63-11.85,39.99-41.67,39.99-41.67l40.68-19.36,45.46-94.73"/>
          <polygon class="cls-10" points="893.37 106.59 899.61 130.29 922.83 130.44 916.05 108.7 893.37 106.59"/>
          <polygon class="cls-10" points="898.92 79.78 902.84 93.97 916.77 94.23 912.54 81.2 898.92 79.78"/>
          <polygon class="cls-10" points="871.14 81.99 875.06 96.18 888.99 96.45 884.76 83.42 871.14 81.99"/>
        </g>
        <g>
          <path class="cls-24" d="M822.86,272.53c9.06-12.57,46.29-43.43,46.29-43.43l45.76-18.91,55.33-101.34"/>
          <polygon class="cls-24" points="891.2 109.7 896.69 136.06 922.15 137.56 915.97 113.31 891.2 109.7"/>
          <polygon class="cls-24" points="898.83 80.59 902.32 96.39 917.59 97.48 913.7 82.94 898.83 80.59"/>
          <polygon class="cls-24" points="868.22 81.42 871.71 97.22 886.98 98.31 883.09 83.77 868.22 81.42"/>
        </g>
        <g>
          <path class="cls-22" d="M804.28,287.74c10.66-13.27,53.29-45,53.29-45l51.3-18.12,66.55-108.03"/>
          <polygon class="cls-22" points="888.64 112.98 893.15 142.23 921.01 145.34 915.62 118.37 888.64 112.98"/>
          <polygon class="cls-22" points="898.69 81.48 901.61 99.02 918.31 101.09 914.87 84.91 898.69 81.48"/>
          <polygon class="cls-22" points="865.05 80.63 867.97 98.17 884.66 100.25 881.23 84.06 865.05 80.63"/>
        </g>
        <g>
          <path class="cls-6" d="M783.02,303.37c12.46-13.95,61.07-46.31,61.07-46.31l57.34-16.93,79.24-114.73"/>
          <polygon class="cls-6" points="885.65 116.44 888.91 148.79 919.3 153.81 914.94 123.9 885.65 116.44"/>
          <polygon class="cls-6" points="898.48 82.44 900.68 101.86 918.88 105.1 916.05 87.14 898.48 82.44"/>
          <polygon class="cls-6" points="861.61 79.58 863.81 99 882.01 102.23 879.18 84.28 861.61 79.58"/>
        </g>
        <g>
          <path class="cls-5" d="M758.79,319.29c14.48-14.59,69.68-47.31,69.68-47.31l63.9-15.28,93.56-121.34"/>
          <polygon class="cls-5" points="882.16 120.06 883.88 155.75 916.94 163.01 913.87 129.94 882.16 120.06"/>
          <polygon class="cls-5" points="898.2 83.49 899.5 104.93 919.29 109.53 917.21 89.66 898.2 83.49"/>
          <polygon class="cls-5" points="857.91 78.23 859.2 99.66 878.99 104.26 876.91 84.39 857.91 78.23"/>
        </g>
        <g>
          <path class="cls-28" d="M731.28,335.37c16.73-15.18,79.19-47.91,79.19-47.91l71-13.1,109.65-127.78"/>
          <polygon class="cls-28" points="878.13 123.83 877.96 163.1 913.83 172.96 912.36 136.49 878.13 123.83"/>
          <polygon class="cls-28" points="897.83 84.62 898.02 108.22 919.47 114.41 918.33 92.48 897.83 84.62"/>
          <polygon class="cls-28" points="853.92 76.53 854.1 100.13 875.55 106.31 874.41 84.39 853.92 76.53"/>
        </g>
        <g>
          <path class="cls-9" d="M700.17,351.44c19.23-15.7,89.66-48.02,89.66-48.02l78.67-10.29,127.68-133.92"/>
          <polygon class="cls-9" points="873.48 127.74 871.04 170.83 909.83 183.71 910.32 143.6 873.48 127.74"/>
          <polygon class="cls-9" points="897.36 85.85 896.21 111.75 919.4 119.78 919.41 95.65 897.36 85.85"/>
          <polygon class="cls-9" points="849.63 74.44 848.48 100.34 871.67 108.37 871.68 84.24 849.63 74.44"/>
        </g>
        <g>
          <path class="cls-23" d="M665.1,367.28c22.01-16.12,101.15-47.54,101.15-47.54l86.93-6.76,147.82-139.62"/>
          <polygon class="cls-23" points="868.16 131.76 863.01 178.9 904.83 195.27 907.67 151.29 868.16 131.76"/>
          <polygon class="cls-23" points="896.78 87.16 894.02 115.53 919 125.66 920.4 99.19 896.78 87.16"/>
          <polygon class="cls-23" points="845.05 71.9 842.3 100.26 867.28 110.4 868.68 83.92 845.05 71.9"/>
        </g>
        <g>
          <path class="cls-26" d="M625.7,382.65c25.08-16.43,113.74-46.36,113.74-46.36l95.78-2.42,170.24-144.72"/>
          <polygon class="cls-26" points="862.09 135.87 853.72 187.31 898.68 207.68 904.33 159.57 862.09 135.87"/>
          <polygon class="cls-26" points="896.06 88.57 891.4 119.54 918.24 132.1 921.29 103.13 896.06 88.57"/>
          <polygon class="cls-26" points="840.17 68.85 835.52 99.81 862.35 112.37 865.41 83.4 840.17 68.85"/>
        </g>
        <g>
          <path class="cls-30" d="M581.59,397.25c28.46-16.59,127.48-44.33,127.48-44.33l105.25,2.85,195.15-149.02"/>
          <polygon class="cls-30" points="855.19 140.02 843.05 195.99 891.21 220.93 900.18 168.47 855.19 140.02"/>
          <polygon class="cls-30" points="895.19 90.08 888.3 123.79 917.02 139.12 922.04 107.5 895.19 90.08"/>
          <polygon class="cls-30" points="835 65.22 828.11 98.93 856.83 114.26 861.85 82.64 835 65.22"/>
        </g>
        <g>
          <path class="cls-2" d="M532.34,410.73c32.19-16.56,142.45-41.32,142.45-41.32l115.34,9.18,222.72-152.31"/>
          <polygon class="cls-2" points="847.38 144.19 830.84 204.91 882.26 235.05 895.11 177.99 847.38 144.19"/>
          <polygon class="cls-2" points="894.14 91.68 884.65 128.28 915.29 146.75 922.61 112.35 894.14 91.68"/>
          <polygon class="cls-2" points="829.52 60.94 820.02 97.54 850.66 116.01 857.99 81.6 829.52 60.94"/>
        </g>
        <g>
          <path class="cls-3" d="M477.52,422.7c36.28-16.33,158.7-37.15,158.7-37.15l126.04,16.71,253.18-154.34"/>
          <polygon class="cls-3" points="838.57 148.31 816.92 214 871.62 250.03 889.01 188.15 838.57 148.31"/>
          <polygon class="cls-3" points="892.91 93.38 880.38 133 912.94 155.03 922.96 117.69 892.91 93.38"/>
          <polygon class="cls-3" points="823.76 55.92 811.23 95.54 843.79 117.58 853.82 80.24 823.76 55.92"/>
        </g>
        <g>
          <path class="cls-16" d="M416.66,432.67c40.75-15.83,176.29-31.64,176.29-31.64l137.36,25.58,286.71-154.81"/>
          <polygon class="cls-16" points="828.67 152.33 801.13 223.17 859.08 265.86 881.72 198.95 828.67 152.33"/>
          <polygon class="cls-16" points="891.46 95.17 875.43 137.93 909.89 163.98 923.04 123.58 891.46 95.17"/>
          <polygon class="cls-16" points="817.73 50.09 801.7 92.85 836.16 118.9 849.31 78.5 817.73 50.09"/>
        </g>
        <g>
          <path class="cls-20" d="M349.31,440.12c45.63-15.03,195.28-24.58,195.28-24.58l149.26,35.97,323.54-153.39"/>
          <polygon class="cls-20" points="817.56 156.17 783.27 232.32 844.42 282.5 873.11 210.38 817.56 156.17"/>
          <polygon class="cls-20" points="889.76 97.05 869.71 143.06 906.03 173.63 922.78 130.05 889.76 97.05"/>
          <polygon class="cls-20" points="811.44 43.34 791.39 89.35 827.72 119.92 844.47 76.34 811.44 43.34"/>
        </g>
        <g>
          <path class="cls-4" d="M274.97,444.42c50.94-13.87,215.71-15.75,215.71-15.75l161.73,48.06,363.87-149.73"/>
          <polygon class="cls-4" points="805.16 159.74 763.15 241.34 827.36 299.92 863 222.43 805.16 159.74"/>
          <polygon class="cls-4" points="887.79 99.02 863.14 148.35 901.24 183.99 922.13 137.13 887.79 99.02"/>
          <polygon class="cls-4" points="804.93 35.58 780.28 84.91 818.39 120.54 839.27 73.69 804.93 35.58"/>
        </g>
        <g>
          <path class="cls-27" d="M193.15,444.86c56.69-12.29,237.63-4.87,237.63-4.87l174.72,62.04,407.92-143.38"/>
          <polygon class="cls-27" points="791.35 162.95 740.55 250.08 807.65 318.06 851.21 235.07 791.35 162.95"/>
          <polygon class="cls-27" points="885.51 101.07 855.63 153.79 895.39 195.09 921 144.87 885.51 101.07"/>
          <polygon class="cls-27" points="798.23 26.68 768.35 79.4 808.11 120.7 833.73 70.48 798.23 26.68"/>
        </g>
        <g>
          <path class="cls-21" d="M103.33,440.65c62.92-10.22,261.05,8.32,261.05,8.32l188.17,78.13,455.9-133.89"/>
          <polygon class="cls-21" points="776 165.68 715.25 258.38 784.97 336.84 837.55 248.27 776 165.68"/>
          <polygon class="cls-21" points="882.89 103.19 847.07 159.32 888.33 206.93 919.33 153.29 882.89 103.19"/>
          <polygon class="cls-21" points="791.39 16.53 755.57 72.66 796.83 120.27 827.83 66.63 791.39 16.53"/>
        </g>
        <g>
          <path class="cls-7" d="M5,430.85c69.64-7.6,286,24.14,286,24.14l202,96.57,508-120.71"/>
          <polygon class="cls-7" points="759 167.79 687 266.02 759 356.13 821.79 261.96 759 167.79"/>
          <polygon class="cls-7" points="879.9 105.36 837.36 164.9 879.9 219.52 917 162.44 879.9 105.36"/>
          <polygon class="cls-7" points="784.47 5 741.93 64.54 784.47 119.16 821.57 62.08 784.47 5"/>
        </g>
      </g>
      <circle class="cls-32" cx="671.5" cy="290.06" r="3.5"/>
      <circle class="cls-32" cx="706.5" cy="300.06" r="3.5"/>
      <circle class="cls-32" cx="690.5" cy="262.06" r="3.5"/>
      <circle class="cls-32" cx="745.5" cy="183.06" r="3.5"/>
      <circle class="cls-32" cx="678.5" cy="233.06" r="3.5"/>
      <circle class="cls-32" cx="644.5" cy="269.06" r="3.5"/>
    </g>
  </g>
</svg>