<?xml version="1.0" encoding="UTF-8"?>
<svg id="Layer_2" xmlns="http://www.w3.org/2000/svg" viewBox="0 0 991.26 718.87">
  <defs>
    <style>
      .cls-1 {
        stroke-dasharray: 0 4.31;
        stroke-width: .86px;
      }

      .cls-1, .cls-2, .cls-3, .cls-4, .cls-5, .cls-6, .cls-7, .cls-8, .cls-9, .cls-10, .cls-11, .cls-12, .cls-13, .cls-14, .cls-15, .cls-16, .cls-17, .cls-18, .cls-19, .cls-20, .cls-21, .cls-22, .cls-23, .cls-24, .cls-25, .cls-26, .cls-27, .cls-28, .cls-29, .cls-30, .cls-31 {
        fill: none;
        stroke: #8aceca;
        stroke-linecap: round;
        stroke-linejoin: round;
      }

      .cls-2 {
        stroke-dasharray: 0 23.51;
        stroke-width: 4.7px;
      }

      .cls-3 {
        stroke-dasharray: 0 14.67;
        stroke-width: 2.93px;
      }

      .cls-4 {
        stroke-dasharray: 0 34.29;
        stroke-width: 6.86px;
      }

      .cls-5 {
        stroke-dasharray: 0 11.06;
        stroke-width: 2.21px;
      }

      .cls-6 {
        stroke-dasharray: 0 50;
        stroke-width: 10px;
      }

      .cls-7 {
        stroke-dasharray: 0 7.58;
        stroke-width: 1.52px;
      }

      .cls-8 {
        stroke-dasharray: 0 5.2;
        stroke-width: 1.04px;
      }

      .cls-9 {
        stroke-dasharray: 0 41.4;
        stroke-width: 8.28px;
      }

      .cls-32 {
        fill: #8aceca;
      }

      .cls-10 {
        stroke-dasharray: 0 10.06;
        stroke-width: 2.01px;
      }

      .cls-11 {
        stroke-dasharray: 0 31.2;
        stroke-width: 6.24px;
      }

      .cls-12 {
        stroke-dasharray: 0 21.4;
        stroke-width: 4.28px;
      }

      .cls-13 {
        stroke-dasharray: 0 3.57;
        stroke-width: .71px;
      }

      .cls-14 {
        stroke-dasharray: 0 28.39;
        stroke-width: 5.68px;
      }

      .cls-15 {
        stroke-dasharray: 0 5.71;
        stroke-width: 1.14px;
      }

      .cls-16 {
        stroke-dasharray: 0 16.12;
        stroke-width: 3.22px;
      }

      .cls-17 {
        stroke-dasharray: 0 2.95;
        stroke-width: .59px;
      }

      .cls-18 {
        stroke-dasharray: 0 25.84;
        stroke-width: 5.17px;
      }

      .cls-19 {
        stroke-dasharray: 0 9.16;
        stroke-width: 1.83px;
      }

      .cls-20 {
        stroke-dasharray: 0 4.73;
        stroke-width: .95px;
      }

      .cls-21 {
        stroke-dasharray: 0 13.35;
        stroke-width: 2.67px;
      }

      .cls-22 {
        stroke-dasharray: 0 37.68;
        stroke-width: 7.54px;
      }

      .cls-23 {
        stroke-dasharray: 0 3.92;
        stroke-width: .78px;
      }

      .cls-24 {
        stroke-dasharray: 0 19.47;
        stroke-width: 3.89px;
      }

      .cls-25 {
        stroke-dasharray: 0 8.33;
        stroke-width: 1.67px;
      }

      .cls-26 {
        stroke-dasharray: 0 6.9;
        stroke-width: 1.38px;
      }

      .cls-27 {
        stroke-dasharray: 0 3.24;
        stroke-width: .65px;
      }

      .cls-28 {
        stroke-dasharray: 0 45.5;
        stroke-width: 9.1px;
      }

      .cls-29 {
        stroke-dasharray: 0 6.28;
        stroke-width: 1.26px;
      }

      .cls-30 {
        stroke-dasharray: 0 12.15;
        stroke-width: 2.43px;
      }

      .cls-31 {
        stroke-dasharray: 0 17.72;
        stroke-width: 3.54px;
      }
    </style>
  </defs>
  <g id="low_good">
    <g>
      <g>
        <g>
          <path class="cls-17" d="M517.14,362.46c-.79,1.19-1.62,2.46-3.23,2.97-3.13,1.01-7.01-1.53-8.88-4.39-2.56-3.93-2.28-9.92.89-12.16,1.95-1.38,4.51-1.07,6.21-.87,1.7.2,4.21.51,5.9,2.29,2.98,3.14,1.16,9.06-.89,12.16Z"/>
          <path class="cls-17" d="M509.42,366.79c.47.46.97.96.99.94.06-.06-4.92-5.78-10.7-11.21-6.75-6.33-8.12-6.19-12.09-10.4-2.64-2.8-6.18-7.25-9.25-14.06-1.28-1.43-3.21-1.79-4.28-.78s-.89,3.01.4,4.45l31.05,34.73c1.93,2.16,3.72,3.42,4.91,4.14,2.09,1.26,2.62,1.02,2.79.92.74-.46.31-2.14.15-2.78-.69-2.73-2.73-4.85-3.96-5.95Z"/>
          <path class="cls-17" d="M480.57,353.74c-2.04,1.84-5.82,1.28-7.9-.73-1.79-1.74-2.66-4.89-1.39-6.62.5-.68,1.16-.92,2.16-1.27.23-.08,5.85-2.06,7.9.73.7.95.75,2.04.79,2.9.04.77.17,3.43-1.56,4.99Z"/>
        </g>
        <g>
          <path class="cls-27" d="M516.95,367.41c-1.08,1.14-2.23,2.35-4.06,2.6-3.58.49-7.3-3-8.77-6.45-2.02-4.74-.58-11.17,3.28-12.99,2.37-1.12,5.09-.3,6.89.25,1.8.55,4.46,1.35,5.95,3.6,2.62,3.96-.47,10.03-3.28,12.99Z"/>
          <path class="cls-27" d="M507.77,370.61c.42.59.87,1.23.89,1.21.08-.06-4.22-7.2-9.44-14.17-6.09-8.14-7.61-8.25-11.1-13.57-2.32-3.53-5.3-9.03-7.33-16.98-1.11-1.8-3.14-2.55-4.48-1.66s-1.54,3.09-.42,4.89l26.98,43.51c1.68,2.71,3.37,4.41,4.52,5.42,2.02,1.77,2.64,1.61,2.84,1.53.89-.36.75-2.26.7-2.98-.22-3.08-2.03-5.77-3.15-7.2Z"/>
          <path class="cls-27" d="M479.05,350.99c-2.56,1.6-6.54.27-8.41-2.3-1.61-2.22-1.95-5.8-.24-7.43.67-.64,1.43-.77,2.58-.97.26-.05,6.72-1.11,8.41,2.3.57,1.16.42,2.35.3,3.29-.11.84-.47,3.74-2.64,5.11Z"/>
        </g>
        <g>
          <path class="cls-13" d="M515.81,372.72c-1.38,1.02-2.86,2.12-4.89,2.04-3.97-.15-7.33-4.64-8.26-8.66-1.29-5.51,1.5-12.2,6.03-13.44,2.78-.76,5.56.65,7.41,1.58,1.84.93,4.57,2.31,5.75,5.03,2.08,4.79-2.43,10.76-6.03,13.44Z"/>
          <path class="cls-13" d="M505.26,374.44c.34.72.71,1.49.74,1.48.09-.05-3.19-8.59-7.51-17.14-5.04-9.97-6.66-10.38-9.43-16.8-1.84-4.26-4.01-10.78-4.69-19.77-.86-2.16-2.91-3.35-4.53-2.65-1.63.71-2.25,3.05-1.39,5.21l20.89,52.24c1.3,3.25,2.8,5.42,3.86,6.73,1.85,2.3,2.56,2.24,2.78,2.2,1.03-.22,1.24-2.3,1.32-3.1.35-3.38-1.1-6.63-2.04-8.39Z"/>
          <path class="cls-13" d="M477.92,347.72c-3.07,1.24-7.13-.95-8.66-4.09-1.32-2.71-1-6.65,1.16-8.09.85-.56,1.7-.56,2.97-.55.29,0,7.49.08,8.66,4.09.4,1.36,0,2.63-.3,3.62-.28.89-1.22,3.96-3.84,5.02Z"/>
        </g>
        <g>
          <path class="cls-23" d="M513.56,378.26c-1.69.84-3.5,1.75-5.69,1.27-4.27-.92-7.04-6.41-7.29-10.94-.34-6.21,3.95-12.91,9.09-13.39,3.15-.29,5.9,1.76,7.71,3.13,1.82,1.36,4.5,3.38,5.26,6.54,1.34,5.58-4.68,11.19-9.09,13.39Z"/>
          <path class="cls-23" d="M501.82,378.11c.23.84.48,1.75.52,1.74.11-.03-1.81-9.91-4.86-19.98-3.55-11.75-5.22-12.5-6.99-19.98-1.17-4.96-2.28-12.43-1.3-22.29-.52-2.5-2.51-4.18-4.4-3.73-1.9.45-3.02,2.87-2.5,5.38l12.64,60.52c.79,3.76,2,6.4,2.89,8.02,1.56,2.84,2.34,2.92,2.59,2.91,1.15-.04,1.78-2.26,2.02-3.1,1.02-3.59.08-7.39-.61-9.47Z"/>
          <path class="cls-23" d="M477.33,343.97c-3.56.76-7.54-2.39-8.59-6.08-.91-3.18.18-7.38,2.8-8.53,1.02-.45,1.95-.28,3.32-.03.32.06,8.09,1.51,8.59,6.08.17,1.55-.49,2.85-1.01,3.86-.47.91-2.08,4.06-5.11,4.7Z"/>
        </g>
        <g>
          <path class="cls-1" d="M510.07,383.82c-1.99.59-4.12,1.22-6.4.29-4.44-1.81-6.4-8.29-5.8-13.24.82-6.79,6.74-13.22,12.39-12.76,3.47.28,6.05,3.03,7.75,4.86,1.71,1.82,4.23,4.51,4.45,8.09.39,6.3-7.2,11.21-12.39,12.76Z"/>
          <path class="cls-1" d="M497.39,381.41c.09.95.19,1.99.23,1.98.13-.02-.07-11.07-1.45-22.56-1.6-13.4-3.27-14.53-3.76-22.96-.32-5.59-.1-13.89,2.85-24.37-.09-2.8-1.92-5.01-4.05-4.88-2.14.13-3.82,2.53-3.73,5.34l2.13,67.9c.14,4.22.94,7.3,1.6,9.23,1.15,3.37,1.97,3.6,2.25,3.64,1.26.17,2.36-2.1,2.78-2.97,1.79-3.69,1.5-7.98,1.15-10.37Z"/>
          <path class="cls-1" d="M477.4,339.8c-4,.14-7.7-4.03-8.14-8.22-.38-3.62,1.61-7.96,4.66-8.7,1.19-.29,2.16.07,3.6.6.33.12,8.47,3.18,8.14,8.22-.11,1.71-1.08,2.99-1.83,3.98-.68.9-3.02,3.99-6.43,4.11Z"/>
        </g>
        <g>
          <path class="cls-20" d="M505.22,389.17c-2.27.26-4.69.54-6.98-.9-4.46-2.8-5.34-10.19-3.76-15.43,2.18-7.19,9.82-13.02,15.85-11.44,3.7.97,5.96,4.44,7.46,6.73,1.5,2.3,3.72,5.69,3.27,9.6-.78,6.89-9.93,10.76-15.85,11.44Z"/>
          <path class="cls-20" d="M491.96,384.15c-.09,1.05-.18,2.18-.13,2.19.14,0,2.03-11.99,2.74-24.69.82-14.8-.76-16.35.32-25.56.72-6.12,2.54-15.05,7.73-25.83.44-3.05-1.12-5.78-3.45-6.05-2.34-.27-4.62,2.01-5.06,5.07l-10.65,73.89c-.66,4.6-.37,8.08-.03,10.3.6,3.87,1.45,4.27,1.74,4.37,1.33.43,2.95-1.82,3.57-2.68,2.64-3.65,3.14-8.35,3.22-11Z"/>
          <path class="cls-20" d="M478.27,335.3c-4.35-.61-7.57-5.83-7.24-10.45.28-3.99,3.26-8.3,6.7-8.52,1.35-.09,2.32.48,3.79,1.34.34.2,8.55,5.06,7.24,10.45-.45,1.83-1.74,3.03-2.74,3.96-.91.84-4.03,3.74-7.74,3.23Z"/>
        </g>
        <g>
          <path class="cls-8" d="M498.96,394.04c-2.5-.15-5.18-.31-7.38-2.31-4.29-3.89-3.84-12.05-1.12-17.42,3.73-7.37,13.11-12.22,19.33-9.36,3.82,1.76,5.61,5.94,6.79,8.71,1.19,2.77,2.94,6.87,1.71,11.01-2.16,7.3-12.8,9.75-19.33,9.36Z"/>
          <path class="cls-8" d="M485.57,386.07c-.3,1.12-.61,2.33-.56,2.34.15.03,4.49-12.59,7.67-26.19,3.71-15.87,2.29-17.84,5.22-27.6,1.94-6.48,5.62-15.81,13.3-26.48,1.06-3.22-.11-6.47-2.58-7.21-2.48-.74-5.38,1.3-6.44,4.52l-25.63,77.94c-1.59,4.85-1.94,8.68-1.99,11.14-.09,4.3.75,4.9,1.05,5.06,1.35.72,3.54-1.41,4.38-2.22,3.55-3.45,4.99-8.44,5.59-11.29Z"/>
          <path class="cls-8" d="M480.08,330.59c-4.6-1.49-7.07-7.75-5.84-12.69,1.07-4.26,5.11-8.36,8.88-7.95,1.47.16,2.42.97,3.84,2.17.33.28,8.29,7.11,5.84,12.69-.83,1.9-2.46,2.94-3.73,3.76-1.15.74-5.08,3.28-8.99,2.01Z"/>
        </g>
        <g>
          <path class="cls-15" d="M491.26,398.11c-2.68-.64-5.54-1.33-7.55-3.91-3.9-5.02-1.86-13.77,2.11-19.06,5.44-7.26,16.52-10.72,22.71-6.44,3.8,2.63,4.93,7.5,5.69,10.72.75,3.23,1.87,7.99-.25,12.24-3.74,7.49-15.71,8.11-22.71,6.44Z"/>
          <path class="cls-15" d="M478.28,386.94c-.53,1.15-1.1,2.41-1.05,2.43.15.07,7.26-12.77,13.3-26.88,7.05-16.46,5.88-18.87,10.91-28.87,3.34-6.64,9.1-16.03,19.44-26.12,1.76-3.28,1.12-7.03-1.42-8.3-2.54-1.27-6.07.38-7.83,3.67l-42.61,79.45c-2.65,4.94-3.76,9.02-4.28,11.67-.91,4.64-.12,5.45.17,5.67,1.33,1.03,4.1-.85,5.16-1.57,4.5-3.05,7.01-8.18,8.2-11.15Z"/>
          <path class="cls-15" d="M482.93,325.85c-4.69-2.49-6.18-9.74-3.9-14.85,1.97-4.41,7.13-8.08,11.12-6.9,1.56.46,2.44,1.51,3.74,3.08.3.36,7.62,9.27,3.9,14.85-1.26,1.89-3.22,2.72-4.75,3.36-1.38.58-6.12,2.58-10.11.46Z"/>
        </g>
        <g>
          <path class="cls-29" d="M482.15,401.05c-2.78-1.21-5.75-2.49-7.42-5.67-3.27-6.18.62-15.26,5.92-20.23,7.28-6.82,19.93-8.45,25.8-2.63,3.61,3.57,3.91,9.06,4.11,12.69.2,3.64.49,9.01-2.61,13.2-5.47,7.4-18.55,5.78-25.8,2.63Z"/>
          <path class="cls-29" d="M470.24,386.48c-.8,1.15-1.65,2.39-1.6,2.43.15.1,10.29-12.43,19.53-26.55,10.77-16.47,9.97-19.29,17.32-29.17,4.88-6.55,12.91-15.61,26.03-24.56,2.53-3.21,2.55-7.39.05-9.25-2.51-1.86-6.64-.75-9.18,2.47l-61.27,77.85c-3.81,4.85-5.79,9.04-6.86,11.81-1.87,4.84-1.17,5.87-.9,6.17,1.24,1.37,4.6-.14,5.89-.71,5.45-2.44,9.15-7.51,11-10.5Z"/>
          <path class="cls-29" d="M486.92,321.25c-4.6-3.59-4.83-11.72-1.38-16.81,2.97-4.4,9.25-7.38,13.35-5.35,1.61.79,2.35,2.1,3.46,4.05.26.45,6.48,11.49,1.38,16.81-1.73,1.81-4,2.33-5.78,2.73-1.6.37-7.12,1.62-11.03-1.43Z"/>
        </g>
        <g>
          <path class="cls-26" d="M471.72,402.49c-2.78-1.83-5.74-3.8-6.95-7.55-2.36-7.31,3.58-16.39,10.27-20.76,9.18-5.99,23.18-5.34,28.43,2.08,3.22,4.55,2.5,10.55,2.03,14.52-.48,3.97-1.18,9.84-5.34,13.79-7.33,6.96-21.18,2.71-28.43-2.08Z"/>
          <path class="cls-26" d="M461.61,384.45c-1.08,1.09-2.24,2.28-2.2,2.32.15.14,13.51-11.49,26.2-25.01,14.8-15.77,14.47-18.98,24.31-28.26,6.53-6.16,16.95-14.43,32.85-21.61,3.35-3,4.17-7.51,1.82-10-2.36-2.5-7.04-2.08-10.4.92l-81.16,72.56c-5.04,4.52-7.99,8.68-9.68,11.48-2.95,4.88-2.39,6.13-2.15,6.51,1.08,1.72,5.01.73,6.51.35,6.37-1.6,11.33-6.38,13.91-9.26Z"/>
          <path class="cls-26" d="M492.11,317.04c-4.29-4.76-2.99-13.6,1.71-18.46,4.06-4.19,11.42-6.22,15.47-3.24,1.59,1.17,2.14,2.72,2.98,5.04.19.54,4.82,13.67-1.71,18.46-2.22,1.63-4.77,1.75-6.78,1.85-1.81.09-8.02.4-11.67-3.65Z"/>
        </g>
        <g>
          <path class="cls-7" d="M460.17,402.06c-2.65-2.51-5.49-5.2-6.08-9.5-1.15-8.36,7-17.06,15.07-20.5,11.07-4.73,26.1-1.36,30.37,7.67,2.62,5.54.7,11.89-.58,16.1-1.28,4.21-3.16,10.43-8.41,13.9-9.26,6.13-23.44-1.1-30.37-7.67Z"/>
          <path class="cls-7" d="M452.67,380.61c-1.38.97-2.86,2.03-2.82,2.09.13.18,16.82-9.85,33.12-22.06,19.02-14.24,19.28-17.78,31.7-25.94,8.25-5.42,21.1-12.38,39.68-17.12,4.2-2.6,5.95-7.33,3.87-10.48s-7.22-3.59-11.43-.98l-101.68,63.04c-6.32,3.93-10.31,7.87-12.67,10.57-4.13,4.72-3.75,6.18-3.57,6.63.84,2.07,5.28,1.75,6.97,1.62,7.2-.52,13.48-4.74,16.82-7.37Z"/>
          <path class="cls-7" d="M498.54,313.48c-3.74-5.97-.64-15.29,5.37-19.65,5.19-3.76,13.55-4.55,17.36-.56,1.49,1.57,1.8,3.35,2.26,6.02.11.62,2.6,15.71-5.37,19.65-2.71,1.34-5.5.99-7.69.71-1.97-.25-8.75-1.1-11.93-6.18Z"/>
        </g>
        <g>
          <path class="cls-25" d="M447.74,399.39c-2.39-3.23-4.95-6.68-4.77-11.44.35-9.27,10.83-17.12,20.23-19.31,12.89-3.01,28.5,3.51,31.4,14.1,1.78,6.5-1.52,13-3.7,17.31-2.18,4.31-5.41,10.68-11.76,13.44-11.2,4.87-25.16-5.67-31.4-14.1Z"/>
          <path class="cls-25" d="M443.72,374.74c-1.68.79-3.49,1.66-3.45,1.72.11.22,20.08-7.46,40.06-17.56,23.3-11.78,24.26-15.56,39.26-22.02,9.96-4.29,25.2-9.38,46.21-10.96,5.04-2.02,7.84-6.8,6.19-10.6-1.65-3.81-7.13-5.27-12.19-3.25l-122.07,48.82c-7.59,3.04-12.66,6.55-15.72,9.02-5.37,4.32-5.24,5.97-5.13,6.5.51,2.4,5.38,2.9,7.24,3.09,7.89.81,15.5-2.56,19.61-4.76Z"/>
          <path class="cls-25" d="M506.17,310.85c-2.91-7.18,2.23-16.67,9.56-20.24,6.33-3.08,15.53-2.34,18.9,2.71,1.32,1.98,1.31,3.97,1.3,6.95,0,.69-.18,17.5-9.56,20.24-3.19.93-6.14.02-8.46-.7-2.09-.64-9.26-2.86-11.73-8.96Z"/>
        </g>
        <g>
          <path class="cls-19" d="M434.81,394.13c-1.97-3.95-4.08-8.17-2.98-13.29,2.14-9.97,14.99-16.46,25.57-17.04,14.52-.79,30.18,9.24,31.29,21.25.68,7.37-4.12,13.78-7.31,18.03-3.18,4.25-7.89,10.53-15.29,12.3-13.05,3.13-26.14-10.93-31.29-21.25Z"/>
          <path class="cls-19" d="M435.16,366.69c-1.96.53-4.09,1.13-4.07,1.21.08.26,23.15-4.24,46.7-11.36,27.47-8.3,29.22-12.21,46.69-16.34,11.6-2.74,29.06-5.34,52.1-3.04,5.84-1.22,9.78-5.86,8.72-10.29-1.06-4.43-6.71-7.06-12.57-5.84l-141.42,29.53c-8.79,1.84-14.95,4.68-18.74,6.76-6.63,3.65-6.81,5.46-6.79,6.05.1,2.69,5.27,4.16,7.24,4.72,8.38,2.38,17.26.19,22.13-1.41Z"/>
          <path class="cls-19" d="M514.94,309.46c-1.78-8.32,5.59-17.61,14.21-20.08,7.44-2.13,17.26.43,19.93,6.54,1.05,2.39.66,4.55.08,7.77-.13.74-3.53,18.9-14.21,20.08-3.63.4-6.65-1.15-9.02-2.37-2.14-1.1-9.48-4.86-10.99-11.94Z"/>
        </g>
        <g>
          <path class="cls-10" d="M421.81,385.96c-1.38-4.65-2.86-9.62-.69-14.95,4.22-10.38,19.36-14.96,30.93-13.56,15.86,1.91,30.89,15.76,29.81,28.96-.67,8.11-7.09,14.13-11.35,18.12-4.26,3.99-10.55,9.89-18.89,10.4-14.72.9-26.2-16.82-29.81-28.96Z"/>
          <path class="cls-10" d="M427.43,356.34c-2.23.2-4.64.44-4.63.53.04.29,25.86-.17,52.71-3.38,31.31-3.75,33.95-7.64,53.65-8.78,13.07-.76,32.46-.23,56.96,6.65,6.55-.21,11.7-4.48,11.4-9.47-.3-5-5.92-8.92-12.49-8.72l-158.68,4.98c-9.87.32-17.07,2.21-21.57,3.75-7.88,2.69-8.42,4.61-8.51,5.25-.41,2.93,4.91,5.51,6.94,6.5,8.62,4.18,18.64,3.49,24.22,2.69Z"/>
          <path class="cls-10" d="M524.68,309.63c-.33-9.34,9.41-18,19.21-19.02,8.46-.88,18.59,3.76,20.32,10.88.68,2.79-.15,5.05-1.4,8.42-.29.78-7.43,19.78-19.21,19.02-4-.26-6.98-2.52-9.31-4.29-2.1-1.59-9.33-7.07-9.61-15.02Z"/>
        </g>
        <g>
          <path class="cls-5" d="M409.31,374.65c-.61-5.3-1.25-10.96,2.11-16.31,6.55-10.43,23.81-12.49,36.06-8.78,16.8,5.09,30.43,22.95,26.73,37.03-2.27,8.65-10.37,13.94-15.74,17.44-5.37,3.51-13.3,8.69-22.43,7.64-16.1-1.83-25.15-23.2-26.73-37.03Z"/>
          <path class="cls-5" d="M421.04,343.66c-2.45-.21-5.11-.41-5.11-.31-.02.32,28.02,4.75,57.69,6.4,34.6,1.92,38.2-1.79,59.73.74,14.29,1.67,35.18,5.94,60.37,18.07,7.13,1.03,13.52-2.61,14.15-8.07.63-5.47-4.7-10.79-11.85-11.82l-172.68-24.9c-10.74-1.54-18.89-.87-24.06-.06-9.04,1.41-9.99,3.39-10.21,4.06-1,3.1,4.26,6.9,6.27,8.35,8.53,6.17,19.51,7.34,25.7,7.54Z"/>
          <path class="cls-5" d="M535.2,311.67c1.42-10.17,13.62-17.68,24.42-16.91,9.32.66,19.4,7.62,19.92,15.65.2,3.15-1.13,5.43-3.12,8.85-.46.79-11.82,19.99-24.42,16.91-4.28-1.05-7.07-4.05-9.26-6.41-1.97-2.12-8.75-9.43-7.54-18.09Z"/>
        </g>
        <g>
          <path class="cls-30" d="M397.93,360.02c.35-5.85.73-12.1,5.39-17.25,9.08-10.03,28.15-8.97,40.7-2.62,17.21,8.72,28.55,30.64,21.86,45.18-4.1,8.92-13.88,13.1-20.36,15.87-6.48,2.77-16.05,6.86-25.73,3.99-17.07-5.06-22.79-29.91-21.86-45.18Z"/>
          <path class="cls-30" d="M416.55,328.72c-2.61-.69-5.45-1.42-5.47-1.31-.08.35,29.42,10.49,61.21,17.94,37.07,8.68,41.68,5.36,64.5,12.2,15.15,4.54,36.94,13.14,61.89,31.07,7.52,2.47,15.13-.25,16.85-6.03,1.73-5.8-3.03-12.57-10.57-15.05l-182.12-59.89c-11.33-3.72-20.28-4.54-26.02-4.66-10.05-.2-11.45,1.76-11.82,2.45-1.68,3.16,3.3,8.28,5.19,10.24,8.05,8.3,19.71,11.67,26.37,13.06Z"/>
          <path class="cls-30" d="M546.2,315.89c3.48-10.74,18.11-16.53,29.66-13.64,9.96,2.49,19.54,11.94,18.57,20.74-.38,3.45-2.26,5.66-5.06,8.98-.65.77-16.6,19.38-29.66,13.64-4.43-1.95-6.88-5.74-8.8-8.71-1.73-2.68-7.67-11.87-4.71-21.01Z"/>
        </g>
        <g>
          <path class="cls-21" d="M388.41,342.02c1.5-6.26,3.1-12.95,9.13-17.64,11.74-9.13,32.18-4.34,44.54,4.94,16.96,12.72,25.05,38.61,15.04,53.06-6.14,8.88-17.52,11.53-25.06,13.29-7.54,1.76-18.68,4.36-28.61-.59-17.51-8.73-18.95-36.72-15.04-53.06Z"/>
          <path class="cls-21" d="M414.53,311.7c-2.69-1.25-5.62-2.57-5.67-2.46-.15.36,29.84,16.97,62.82,31.09,38.47,16.47,44.09,13.75,67.48,25.51,15.53,7.8,37.46,21.27,61.04,45.44,7.67,4.11,16.42,2.62,19.39-3.31,2.98-5.95-.88-14.18-8.57-18.3l-185.66-99.57c-11.55-6.18-21.08-8.79-27.27-10.01-10.84-2.14-12.73-.28-13.26.39-2.42,3.1,1.99,9.59,3.66,12.07,7.13,10.52,19.11,16.39,26.05,19.17Z"/>
          <path class="cls-21" d="M557.29,322.55c5.82-10.96,22.76-14.44,34.7-9.11,10.31,4.6,18.87,16.66,16.13,25.99-1.07,3.66-3.53,5.7-7.19,8.75-.85.7-21.67,17.8-34.7,9.11-4.42-2.95-6.35-7.52-7.86-11.1-1.36-3.23-6.03-14.31-1.08-23.64Z"/>
        </g>
        <g>
          <path class="cls-3" d="M381.55,320.72c2.82-6.49,5.83-13.43,13.24-17.35,14.45-7.63,35.65,1.44,47.26,13.84,15.93,17.01,19.74,46.56,6.15,60.3-8.34,8.43-21.16,9.14-29.66,9.6-8.5.47-21.05,1.16-30.85-6.1-17.28-12.79-13.51-43.35-6.15-60.3Z"/>
          <path class="cls-3" d="M415.6,292.89c-2.68-1.86-5.59-3.86-5.67-3.75-.24.36,29.05,24.06,62.05,45.63,38.48,25.16,45.09,23.29,68.16,40.48,15.31,11.41,36.48,30.17,57.39,60.82,7.51,5.91,17.27,5.96,21.61.11,4.36-5.87,1.76-15.52-5.78-21.44l-181.93-143.18c-11.32-8.9-21.14-13.53-27.61-16.04-11.32-4.38-13.72-2.74-14.43-2.1-3.21,2.89.32,10.76,1.66,13.76,5.71,12.75,17.55,21.38,24.53,25.71Z"/>
          <path class="cls-3" d="M568.02,331.87c8.38-10.75,27.38-11.28,39.29-3.23,10.27,6.95,17.24,21.63,12.5,31.21-1.86,3.75-4.9,5.49-9.45,8.1-1.05.6-26.85,15.13-39.29,3.23-4.22-4.04-5.44-9.35-6.39-13.52-.86-3.75-3.8-16.64,3.34-25.79Z"/>
        </g>
        <g>
          <path class="cls-16" d="M378.18,296.36c4.29-6.49,8.87-13.42,17.64-16.24,17.09-5.51,38.3,8.37,48.51,24,14,21.44,12.48,54.16-4.85,66.43-10.64,7.53-24.64,5.85-33.93,4.73-9.28-1.12-23-2.77-32.22-12.49-16.26-17.14-6.34-49.49,4.85-66.43Z"/>
          <path class="cls-16" d="M420.34,272.74c-2.54-2.53-5.32-5.24-5.42-5.14-.32.35,26.85,31.58,58.44,61.22,36.85,34.57,44.35,33.81,66.03,56.81,14.4,15.27,33.73,39.61,50.5,76.77,7,7.83,17.55,9.75,23.37,4.25,5.83-5.52,4.86-16.46-2.16-24.31l-169.56-189.67c-10.56-11.79-20.29-18.68-26.82-22.62-11.41-6.9-14.33-5.58-15.21-5.03-4.02,2.52-1.71,11.71-.83,15.21,3.75,14.88,14.91,26.49,21.64,32.51Z"/>
          <path class="cls-16" d="M577.86,344.01c11.13-10.03,31.79-6.98,43.13,4,9.79,9.48,14.54,26.69,7.57,36.16-2.73,3.71-6.35,5.01-11.78,6.96-1.25.45-31.94,11.25-43.13-4-3.8-5.18-4.1-11.16-4.33-15.84-.21-4.22-.93-18.73,8.53-27.27Z"/>
        </g>
        <g>
          <path class="cls-31" d="M379.19,269.36c5.88-6.2,12.16-12.83,22.19-14.21,19.55-2.7,39.86,16.36,47.92,35.23,11.06,25.88,3.17,60.99-17.93,70.96-12.95,6.12-27.79,1.63-37.62-1.35-9.83-2.98-24.36-7.38-32.49-19.66-14.33-21.65,2.58-54.77,17.93-70.96Z"/>
          <path class="cls-31" d="M429.32,251.84c-2.27-3.22-4.75-6.69-4.88-6.59-.42.31,23.03,39.3,51.56,77.41,33.28,44.45,41.54,45.05,60.62,74.08,12.67,19.27,28.94,49.3,40.01,92.72,6.08,9.81,17.13,13.9,24.48,9.05,7.36-4.86,8.4-16.88,2.3-26.72l-147.31-237.62c-9.17-14.77-18.39-24.09-24.7-29.6-11.04-9.64-14.44-8.77-15.5-8.35-4.83,1.96-4.08,12.34-3.8,16.3,1.22,16.82,11.09,31.51,17.22,39.31Z"/>
          <path class="cls-31" d="M586.18,359.03c13.95-8.74,35.73-1.49,45.92,12.56,8.79,12.13,10.64,31.66,1.3,40.57-3.66,3.49-7.83,4.21-14.07,5.28-1.44.25-36.71,6.09-45.92-12.56-3.12-6.33-2.31-12.86-1.66-17.97.58-4.61,2.56-20.45,14.44-27.88Z"/>
        </g>
        <g>
          <path class="cls-24" d="M385.43,240.32c7.54-5.59,15.61-11.56,26.73-11.15,21.67.81,40.01,25.31,45.13,47.27,7.03,30.11-8.21,66.61-32.94,73.37-15.18,4.16-30.38-3.54-40.45-8.64-10.07-5.1-24.96-12.64-31.41-27.48-11.38-26.16,13.24-58.78,32.94-73.37Z"/>
          <path class="cls-24" d="M443.03,230.93c-1.84-3.92-3.87-8.15-4.03-8.07-.51.26,17.42,46.92,41.03,93.61,27.53,54.45,36.36,56.68,51.47,91.74,10.03,23.27,21.91,58.88,25.6,107.98,4.71,11.78,15.89,18.31,24.76,14.47,8.9-3.85,12.31-16.67,7.59-28.48l-114.07-285.26c-7.11-17.74-15.31-29.58-21.09-36.75-10.1-12.54-13.96-12.25-15.18-11.99-5.6,1.2-6.77,12.58-7.22,16.91-1.89,18.44,5.99,36.22,11.13,45.83Z"/>
          <path class="cls-24" d="M592.33,376.87c16.77-6.79,38.95,5.21,47.29,22.35,7.2,14.8,5.47,36.3-6.34,44.16-4.62,3.08-9.28,3.06-16.24,3.03-1.61,0-40.89-.42-47.29-22.35-2.17-7.45-.04-14.35,1.63-19.77,1.5-4.88,6.68-21.64,20.95-27.42Z"/>
        </g>
        <g>
          <path class="cls-12" d="M397.73,210.1c9.23-4.61,19.1-9.53,31.05-6.96,23.29,5.01,38.47,35.03,39.82,59.76,1.86,33.93-21.6,70.52-49.65,73.12-17.22,1.6-32.2-9.63-42.13-17.07-9.93-7.44-24.6-18.44-28.75-35.73-7.32-30.49,25.55-61.09,49.65-73.12Z"/>
          <path class="cls-12" d="M461.85,210.92c-1.24-4.59-2.63-9.56-2.82-9.5-.6.18,9.9,54.1,26.54,109.13,19.4,64.18,28.53,68.28,38.19,109.1,6.41,27.1,12.48,67.9,7.1,121.74,2.85,13.65,13.7,22.85,24.04,20.39,10.36-2.47,16.51-15.69,13.65-29.37l-69.02-330.48c-4.31-20.55-10.93-34.93-15.81-43.79-8.54-15.5-12.77-15.92-14.14-15.87-6.29.23-9.73,12.32-11.04,16.93-5.57,19.59-.43,40.34,3.3,51.72Z"/>
          <path class="cls-12" d="M595.58,397.34c19.44-4.15,41.16,13.07,46.92,33.21,4.97,17.39-1.01,40.32-15.29,46.58-5.59,2.45-10.63,1.54-18.15.18-1.74-.31-44.17-8.26-46.92-33.21-.93-8.47,2.69-15.54,5.54-21.08,2.56-4.99,11.36-22.15,27.9-25.68Z"/>
        </g>
        <g>
          <path class="cls-2" d="M416.8,179.73c10.87-3.23,22.49-6.67,34.94-1.61,24.25,9.87,34.95,45.25,31.69,72.28-4.46,37.07-36.83,72.19-67.68,69.66-18.94-1.56-33.01-16.57-42.34-26.51-9.32-9.95-23.1-24.65-24.29-44.15-2.1-34.39,39.31-61.23,67.68-69.66Z"/>
          <path class="cls-2" d="M486.04,192.86c-.47-5.21-1.02-10.84-1.24-10.82-.69.08.39,60.44,7.9,123.17,8.75,73.16,17.85,79.34,20.51,125.36,1.77,30.55.55,75.86-15.55,133.1.48,15.31,10.47,27.34,22.12,26.65,11.69-.7,20.86-13.83,20.37-29.18l-11.63-370.81c-.74-23.06-5.16-39.89-8.75-50.41-6.28-18.41-10.78-19.67-12.28-19.88-6.85-.96-12.88,11.47-15.18,16.21-9.76,20.14-8.17,43.57-6.29,56.6Z"/>
          <path class="cls-2" d="M595.19,420.12c21.83-.78,42.05,22,44.44,44.9,2.06,19.77-8.78,43.45-25.43,47.49-6.52,1.58-11.79-.36-19.68-3.27-1.82-.67-46.23-17.37-44.44-44.9.61-9.35,5.88-16.3,10.01-21.76,3.72-4.91,16.52-21.8,35.09-22.46Z"/>
        </g>
        <g>
          <path class="cls-18" d="M443.24,150.51c12.38-1.42,25.61-2.93,38.11,4.93,24.36,15.31,29.19,55.64,20.51,84.27-11.91,39.27-53.63,71.1-86.54,62.47-20.21-5.3-32.57-24.23-40.76-36.77-8.19-12.55-20.3-31.08-17.87-52.42,4.29-37.62,54.22-58.77,86.54-62.47Z"/>
          <path class="cls-18" d="M515.66,177.93c.48-5.72.96-11.93.73-11.94-.76-.04-11.11,65.48-14.96,134.8-4.49,80.85,4.17,89.27-1.72,139.58-3.91,33.4-13.89,82.2-42.22,141.08-2.4,16.66,6.11,31.59,18.86,33.06,12.78,1.48,25.21-10.98,27.62-27.69l58.18-403.52c3.6-25.1,2.03-44.15.15-56.22-3.29-21.12-7.91-23.34-9.49-23.85-7.24-2.34-16.13,9.96-19.52,14.65-14.41,19.93-17.15,45.59-17.61,60.05Z"/>
          <path class="cls-18" d="M590.42,444.7c23.78,3.32,41.31,31.83,39.52,57.07-1.55,21.78-17.8,45.34-36.58,46.54-7.36.47-12.69-2.64-20.67-7.29-1.84-1.07-46.72-27.62-39.52-57.07,2.44-10,9.48-16.52,14.99-21.64,4.97-4.61,22.03-20.44,42.26-17.61Z"/>
        </g>
        <g>
          <path class="cls-14" d="M477.43,123.93c13.66.83,28.27,1.71,40.31,12.6,23.44,21.22,20.97,65.78,6.11,95.11-20.38,40.23-71.61,66.71-105.57,51.09-20.86-9.59-30.62-32.43-37.09-47.57-6.47-15.14-16.03-37.51-9.33-60.14,11.82-39.89,69.9-53.25,105.57-51.09Z"/>
          <path class="cls-14" d="M550.57,167.43c1.62-6.1,3.32-12.73,3.07-12.79-.81-.19-24.52,68.75-41.91,143.03-20.29,86.64-12.52,97.4-28.5,150.73-10.61,35.4-30.71,86.31-72.62,144.62-5.78,17.57.59,35.35,14.1,39.38,13.55,4.04,29.38-7.08,35.17-24.7l139.96-425.59c8.68-26.48,10.62-47.39,10.89-60.81.47-23.48-4.11-26.77-5.72-27.62-7.38-3.92-19.36,7.7-23.92,12.13-19.4,18.82-27.26,46.07-30.52,61.63Z"/>
          <path class="cls-14" d="M580.56,470.39c25.1,8.13,38.63,42.33,31.88,69.3-5.83,23.28-27.91,45.67-48.47,43.39-8.05-.89-13.23-5.28-20.98-11.83-1.79-1.51-45.29-38.8-31.88-69.3,4.55-10.35,13.41-16.07,20.35-20.56,6.25-4.04,27.74-17.92,49.1-11Z"/>
        </g>
        <g>
          <path class="cls-11" d="M519.49,101.69c14.63,3.5,30.27,7.25,41.22,21.33,21.32,27.43,10.14,75.19-11.53,104.09-29.73,39.64-90.22,58.53-124,35.14-20.74-14.36-26.95-40.94-31.06-58.56-4.11-17.62-10.19-43.65,1.38-66.86,20.4-40.92,85.8-44.29,124-35.14Z"/>
          <path class="cls-11" d="M590.35,162.72c2.91-6.29,6.02-13.14,5.76-13.25-.84-.36-39.65,69.72-72.65,146.79-38.48,89.89-32.13,103.02-59.6,157.68-18.24,36.28-49.71,87.55-106.18,142.65-9.61,17.92-6.11,38.37,7.75,45.3,13.89,6.95,33.14-2.05,42.78-20.02l232.68-433.86c14.45-27,20.54-49.26,23.39-63.73,4.99-25.32.66-29.75-.92-30.99-7.24-5.65-22.42,4.64-28.2,8.56-24.58,16.67-38.29,44.65-44.79,60.87Z"/>
          <path class="cls-11" d="M565,496.31c25.61,13.59,33.73,53.18,21.28,81.08-10.75,24.08-38.92,44.1-60.74,37.7-8.54-2.5-13.31-8.24-20.44-16.81-1.65-1.98-41.61-50.63-21.28-81.08,6.9-10.34,17.58-14.84,25.95-18.36,7.54-3.18,33.44-14.09,55.23-2.53Z"/>
        </g>
        <g>
          <path class="cls-4" d="M569.27,85.64c15.16,6.58,31.38,13.62,40.53,30.95,17.84,33.76-3.37,83.31-32.34,110.45-39.74,37.23-108.81,46.12-140.9,14.37-19.71-19.5-21.35-49.45-22.44-69.3-1.09-19.85-2.7-49.19,14.25-72.1,29.88-40.39,101.31-31.56,140.9-14.37Z"/>
          <path class="cls-4" d="M634.3,165.21c4.35-6.26,9.02-13.07,8.76-13.24-.84-.55-56.22,67.89-106.63,144.99-58.8,89.93-54.43,105.36-94.59,159.27-26.66,35.78-70.5,85.26-142.13,134.12-13.82,17.56-13.94,40.36-.26,50.51,13.71,10.18,36.26,4.1,50.11-13.5l334.59-425.13c20.79-26.46,31.62-49.39,37.47-64.51,10.23-26.45,6.4-32.07,4.92-33.71-6.76-7.49-25.14.74-32.15,3.88-29.79,13.34-49.96,41.02-60.08,57.33Z"/>
          <path class="cls-4" d="M543.21,521.4c25.12,19.59,26.36,63.99,7.56,91.81-16.23,24.01-50.54,40.3-72.92,29.21-8.77-4.34-12.84-11.46-18.92-22.09-1.4-2.46-35.36-62.73-7.56-91.81,9.44-9.87,21.85-12.7,31.58-14.92,8.76-2,38.88-8.87,60.26,7.8Z"/>
        </g>
        <g>
          <path class="cls-22" d="M626.19,77.78c15.15,10.02,31.36,20.73,37.96,41.23,12.87,39.94-19.55,89.51-56.08,113.35-50.11,32.71-126.55,29.15-155.23-11.34-17.6-24.86-13.67-57.59-11.06-79.28,2.61-21.69,6.46-53.75,29.18-75.3,40.05-38,115.66-14.82,155.23,11.34Z"/>
          <path class="cls-22" d="M681.39,176.3c5.9-5.94,12.26-12.43,12.01-12.66-.81-.76-73.79,62.74-143.07,136.56-80.8,86.1-79.01,103.63-132.76,154.31-35.68,33.64-92.57,78.81-179.41,118.02-18.3,16.36-22.78,41.01-9.92,54.61,12.89,13.63,38.46,11.36,56.81-5.05l443.22-396.23c27.55-24.67,43.65-47.42,52.86-62.66,16.12-26.67,13.04-33.49,11.75-35.54-5.89-9.4-27.35-3.99-35.54-1.93-34.78,8.76-61.89,34.85-75.96,50.58Z"/>
          <path class="cls-22" d="M514.84,544.38c23.45,26,16.32,74.28-9.34,100.79-22.15,22.89-62.38,33.97-84.49,17.7-8.66-6.37-11.71-14.85-16.26-27.52-1.05-2.93-26.3-74.64,9.34-100.79,12.1-8.88,26.07-9.58,37.03-10.12,9.86-.49,43.77-2.18,63.72,19.94Z"/>
        </g>
        <g>
          <path class="cls-9" d="M689.29,80.13c14.49,13.73,29.98,28.41,33.21,51.86,6.3,45.68-38.24,93.14-82.32,111.97-60.47,25.83-142.52,7.4-165.83-41.89-14.31-30.26-3.8-64.93,3.16-87.91,6.96-22.98,17.25-56.93,45.95-75.93,50.59-33.49,128,6.03,165.83,41.89Z"/>
          <path class="cls-9" d="M730.23,197.28c7.52-5.3,15.64-11.11,15.41-11.41-.73-.97-91.83,53.81-180.89,120.49-103.87,77.77-105.28,97.07-173.12,141.66-45.03,29.6-115.21,67.63-216.68,93.49-22.93,14.22-32.48,40.04-21.16,57.2,11.35,17.21,39.45,19.63,62.44,5.38l555.27-344.23c34.52-21.44,56.28-42.99,69.17-57.73,22.54-25.79,20.5-33.75,19.5-36.22-4.58-11.29-28.84-9.54-38.09-8.87-39.31,2.84-73.63,25.91-91.86,40.24Z"/>
          <path class="cls-9" d="M479.75,563.84c20.41,32.61,3.48,83.5-29.34,107.3-28.33,20.54-73.99,24.86-94.82,3.03-8.16-8.55-9.83-18.3-12.34-32.88-.58-3.37-14.22-85.79,29.34-107.3,14.79-7.3,30.04-5.39,42-3.89,10.77,1.35,47.79,5.99,65.16,33.74Z"/>
        </g>
        <g>
          <path class="cls-28" d="M757.14,94.72c13.06,17.63,27.02,36.47,26.05,62.46-1.89,50.63-59.15,93.5-110.45,105.47-70.37,16.42-155.65-19.19-171.46-76.97-9.71-35.48,8.28-71,20.19-94.53,11.92-23.54,29.53-58.32,64.21-73.4,61.14-26.58,137.37,30.95,171.46,76.97Z"/>
          <path class="cls-28" d="M779.08,229.31c9.15-4.3,19.04-9.04,18.85-9.41-.61-1.19-109.65,40.72-218.75,95.88-127.25,64.34-132.46,84.96-214.38,120.27-54.38,23.44-137.59,51.2-252.33,59.82-27.53,11.01-42.79,37.13-33.81,57.87,9,20.79,38.95,28.77,66.55,17.74l666.6-266.57c41.45-16.62,69.11-35.78,85.87-49.28,29.31-23.61,28.63-32.61,28.02-35.48-2.8-13.1-29.39-15.83-39.53-16.87-43.08-4.43-84.63,13.99-107.09,26.02Z"/>
          <path class="cls-28" d="M438.06,578.21c15.87,39.19-12.16,91.03-52.23,110.52-34.58,16.82-84.82,12.78-103.19-14.81-7.2-10.81-7.15-21.69-7.08-37.94.02-3.76.98-95.56,52.23-110.52,17.4-5.08,33.54-.1,46.2,3.81,11.4,3.52,50.57,15.6,64.07,48.95Z"/>
        </g>
        <g>
          <path class="cls-6" d="M827.77,123.45c10.77,21.57,22.28,44.62,16.27,72.57-11.71,54.43-81.86,89.9-139.66,93.06-79.29,4.34-164.78-50.47-170.87-116.02-3.74-40.25,22.5-75.25,39.89-98.45,17.39-23.2,43.09-57.48,83.5-67.18,71.24-17.1,142.75,59.71,170.87,116.02Z"/>
          <path class="cls-6" d="M825.84,273.29c10.73-2.91,22.33-6.15,22.2-6.58-.43-1.41-126.43,23.14-255.03,62.02-149.98,45.35-159.56,66.67-254.96,89.25-63.32,14.99-158.67,29.16-284.49,16.59-31.89,6.66-53.4,32.02-47.64,56.17,5.77,24.22,36.66,38.57,68.63,31.89l772.27-161.28c48.03-10.07,81.62-25.53,102.33-36.94,36.22-19.96,37.21-29.83,37.09-33.05-.53-14.71-28.79-22.74-39.56-25.8-45.78-13.01-94.26-1.01-120.86,7.72Z"/>
          <path class="cls-6" d="M390.21,585.8c9.7,45.43-30.54,96.19-77.61,109.64-40.64,11.61-94.23-2.35-108.85-35.72-5.72-13.07-3.6-24.83-.42-42.41.73-4.06,19.3-103.23,77.61-109.64,19.8-2.18,36.32,6.29,49.27,12.94,11.66,5.98,51.75,26.54,60,65.2Z"/>
        </g>
      </g>
      <circle class="cls-32" cx="826.6" cy="56.37" r="5"/>
      <circle class="cls-32" cx="910.6" cy="167.37" r="5"/>
      <circle class="cls-32" cx="43.6" cy="563.37" r="5"/>
      <circle class="cls-32" cx="205.6" cy="397.37" r="5"/>
      <circle class="cls-32" cx="826.6" cy="407.37" r="5"/>
      <circle class="cls-32" cx="329.6" cy="206.37" r="5"/>
      <circle class="cls-32" cx="351.6" cy="185.37" r="3.5"/>
      <circle class="cls-32" cx="227.6" cy="421.37" r="3.5"/>
      <circle class="cls-32" cx="47.6" cy="538.37" r="3.5"/>
      <circle class="cls-32" cx="234.6" cy="715.37" r="3.5"/>
      <circle class="cls-32" cx="787.6" cy="396.37" r="3.5"/>
      <circle class="cls-32" cx="872.6" cy="136.37" r="3.5"/>
      <circle class="cls-32" cx="959.6" cy="215.37" r="3.5"/>
      <circle class="cls-32" cx="799.6" cy="42.37" r="3.5"/>
    </g>
  </g>
</svg>