<?xml version="1.0" encoding="UTF-8"?>
<svg id="Layer_2" xmlns="http://www.w3.org/2000/svg" viewBox="0 0 953.98 490.17">
  <defs>
    <style>
      .cls-1 {
        stroke-dasharray: 0 4.31;
        stroke-width: 1.29px;
      }

      .cls-1, .cls-2, .cls-3, .cls-4, .cls-5, .cls-6, .cls-7, .cls-8, .cls-9, .cls-10, .cls-11, .cls-12, .cls-13, .cls-14, .cls-15, .cls-16, .cls-17, .cls-18, .cls-19, .cls-20, .cls-21, .cls-22, .cls-23, .cls-24, .cls-25, .cls-26, .cls-27, .cls-28, .cls-29, .cls-30, .cls-31 {
        fill: none;
        stroke: #87b4db;
        stroke-linecap: round;
        stroke-linejoin: round;
      }

      .cls-2 {
        stroke-dasharray: 0 13.35;
        stroke-width: 4.01px;
      }

      .cls-3 {
        stroke-dasharray: 0 5.2;
        stroke-width: 1.56px;
      }

      .cls-4 {
        stroke-dasharray: 0 41.4;
        stroke-width: 12.42px;
      }

      .cls-5 {
        stroke-dasharray: 0 6.9;
        stroke-width: 2.07px;
      }

      .cls-6 {
        stroke-dasharray: 0 6.28;
        stroke-width: 1.88px;
      }

      .cls-7 {
        stroke-dasharray: 0 7.58;
        stroke-width: 2.27px;
      }

      .cls-8 {
        stroke-dasharray: 0 3.92;
        stroke-width: 1.18px;
      }

      .cls-9 {
        stroke-dasharray: 0 19.47;
        stroke-width: 5.84px;
      }

      .cls-10 {
        stroke-dasharray: 0 31.2;
        stroke-width: 9.36px;
      }

      .cls-11 {
        stroke-dasharray: 0 21.4;
        stroke-width: 6.42px;
      }

      .cls-12 {
        stroke-dasharray: 0 17.72;
        stroke-width: 5.32px;
      }

      .cls-13 {
        stroke-dasharray: 0 34.29;
        stroke-width: 10.29px;
      }

      .cls-14 {
        stroke-dasharray: 0 4.73;
        stroke-width: 1.42px;
      }

      .cls-15 {
        stroke-dasharray: 0 14.67;
        stroke-width: 4.4px;
      }

      .cls-16 {
        stroke-dasharray: 0 3.57;
        stroke-width: 1.07px;
      }

      .cls-17 {
        stroke-dasharray: 0 50;
        stroke-width: 15px;
      }

      .cls-18 {
        stroke-dasharray: 0 3.24;
        stroke-width: .97px;
      }

      .cls-19 {
        stroke-dasharray: 0 37.68;
        stroke-width: 11.3px;
      }

      .cls-20 {
        stroke-dasharray: 0 8.33;
        stroke-width: 2.5px;
      }

      .cls-21 {
        stroke-dasharray: 0 16.12;
        stroke-width: 4.84px;
      }

      .cls-22 {
        stroke-dasharray: 0 10.06;
        stroke-width: 3.02px;
      }

      .cls-23 {
        stroke-dasharray: 0 28.39;
        stroke-width: 8.52px;
      }

      .cls-24 {
        stroke-dasharray: 0 11.06;
        stroke-width: 3.32px;
      }

      .cls-25 {
        stroke-dasharray: 0 25.84;
        stroke-width: 7.75px;
      }

      .cls-26 {
        stroke-dasharray: 0 45.5;
        stroke-width: 13.65px;
      }

      .cls-27 {
        stroke-dasharray: 0 23.51;
        stroke-width: 7.05px;
      }

      .cls-28 {
        stroke-dasharray: 0 9.16;
        stroke-width: 2.75px;
      }

      .cls-29 {
        stroke-dasharray: 0 5.71;
        stroke-width: 1.71px;
      }

      .cls-30 {
        stroke-dasharray: 0 12.15;
        stroke-width: 3.65px;
      }

      .cls-31 {
        stroke-dasharray: 0 2.95;
        stroke-width: .89px;
      }

      .cls-32 {
        fill: #87b4db;
      }
    </style>
  </defs>
  <g id="low_bad">
    <g>
      <g>
        <path class="cls-31" d="M462.96,272.81h18.37c-2.13-4.23-5.36-12.16-5.08-22.38.5-18.31,11.88-30.21,14.77-33.07-5.53,4.39-15.69,13.69-22.21,28.99-4.52,10.6-5.63,20.16-5.85,26.46Z"/>
        <path class="cls-18" d="M460,274.7l20.16,1.06c-2.09-4.76-5.18-13.65-4.29-24.85,1.6-20.06,14.77-32.47,18.11-35.44-6.32,4.5-18,14.13-26.05,30.54-5.57,11.37-7.34,21.8-7.94,28.7Z"/>
        <path class="cls-16" d="M456.64,276.61l22.06,2.32c-2.02-5.35-4.9-15.28-3.28-27.52,2.91-21.92,18.08-34.78,21.92-37.85-7.2,4.57-20.57,14.47-30.34,32.02-6.77,12.15-9.31,23.5-10.36,31.03Z"/>
        <path class="cls-8" d="M452.85,278.51l24.07,3.81c-1.91-5.98-4.5-17.05-2.01-30.39,4.45-23.89,21.84-37.13,26.23-40.28-8.16,4.6-23.4,14.69-35.13,33.39-8.12,12.95-11.57,25.26-13.15,33.46Z"/>
        <path class="cls-1" d="M448.57,280.38l26.2,5.57c-1.75-6.68-3.96-18.97-.46-33.46,6.26-25.96,26.1-39.49,31.1-42.69-9.22,4.58-26.53,14.78-40.48,34.62-9.66,13.74-14.15,27.05-16.36,35.96Z"/>
        <path class="cls-14" d="M443.77,282.18l28.43,7.62c-1.54-7.43-3.25-21.05,1.42-36.75,8.36-28.13,30.92-41.83,36.58-45.06-10.38,4.5-29.96,14.69-46.41,35.67-11.39,14.53-17.08,28.87-20.02,38.53Z"/>
        <path class="cls-3" d="M438.41,283.88l30.76,10c-1.26-8.24-2.36-23.28,3.67-40.25,10.79-30.39,36.33-44.13,42.74-47.34-11.65,4.34-33.72,14.4-52.98,36.47-13.34,15.29-20.41,30.7-24.19,41.13Z"/>
        <path class="cls-29" d="M432.42,285.44l33.18,12.74c-.91-9.11-1.25-25.69,6.34-43.96,13.59-32.73,42.41-46.34,49.62-49.5-13.04,4.09-37.84,13.86-60.24,36.97-15.51,16.01-24.16,32.52-28.91,43.74Z"/>
        <path class="cls-6" d="M425.75,286.81l35.68,15.89c-.47-10.05.11-28.26,9.49-47.87,16.8-35.13,49.21-48.41,57.3-51.46-14.54,3.74-42.32,13.03-68.23,37.11-17.95,16.67-28.38,34.29-34.24,46.34Z"/>
        <path class="cls-5" d="M418.36,287.93l38.24,19.49c.06-11.06,1.75-31.01,13.16-51.99,20.45-37.59,56.78-50.3,65.84-53.18-16.17,3.27-47.19,11.87-77.01,36.8-20.65,17.27-33.12,36-40.24,48.88Z"/>
        <path class="cls-7" d="M410.19,288.73l40.85,23.58c.7-12.13,3.7-33.93,17.44-56.3,24.61-40.07,65.21-51.93,75.31-54.57-17.94,2.66-52.47,10.31-86.63,35.96-23.66,17.76-38.42,37.6-46.97,51.33Z"/>
        <path class="cls-20" d="M401.17,289.14l43.47,28.23c1.47-13.27,6.01-37.02,22.37-60.78,29.31-42.56,74.54-53.24,85.79-55.56-19.84,1.89-58.17,8.3-97.13,34.48-26.98,18.13-44.32,39.06-54.5,53.63Z"/>
        <path class="cls-28" d="M391.26,289.07l46.08,33.48c2.37-14.48,8.73-40.28,28.05-65.41,34.61-45.02,84.87-54.14,97.34-56.03-21.88.93-64.32,5.76-108.58,32.25-30.65,18.34-50.88,40.31-62.89,55.72Z"/>
        <path class="cls-22" d="M380.38,288.42l48.64,39.39c3.44-15.76,11.89-43.7,34.54-70.17,40.57-47.41,96.25-54.53,110.04-55.89-24.06-.24-70.91,2.62-121.01,29.14-34.69,18.37-58.16,41.31-72.22,57.52Z"/>
        <path class="cls-24" d="M368.48,287.08l51.12,46.03c4.68-17.09,15.56-47.27,41.94-75.02,47.25-49.7,108.75-54.3,123.97-55.01-26.39-1.65-77.97-1.2-134.47,25.02-39.13,18.16-66.2,41.99-82.56,58.97Z"/>
        <path class="cls-30" d="M355.49,284.93l53.45,53.45c6.12-18.49,19.8-50.98,50.34-79.91,54.71-51.82,122.47-53.34,139.21-53.24-28.87-3.32-85.49-5.8-149,19.73-43.98,17.68-75.06,42.27-93.99,59.97Z"/>
        <path class="cls-2" d="M341.37,281.83l55.58,61.73c7.78-19.94,24.66-54.81,59.84-84.8,63.02-53.72,137.47-51.49,155.83-50.41-31.49-5.31-93.49-11.28-164.65,13.08-49.29,16.87-84.8,42.07-106.6,60.4Z"/>
        <path class="cls-15" d="M326.04,277.61l57.44,70.94c9.68-21.43,30.21-58.73,70.54-89.62,72.24-55.33,153.82-48.6,173.91-46.36-34.25-7.64-101.94-17.76-181.44,4.88-55.06,15.68-95.48,41.29-120.45,60.16Z"/>
        <path class="cls-21" d="M309.47,272.09l58.96,81.15c11.86-22.96,36.53-62.71,82.57-94.29,82.46-56.56,171.59-44.48,193.51-40.88-37.14-10.35-110.85-25.35-199.39-5.08-61.32,14.04-107.16,39.82-135.64,59.09Z"/>
        <path class="cls-12" d="M291.6,265.09l60.03,92.44c14.33-24.52,43.7-66.71,96.03-98.72,93.75-57.33,190.86-38.95,214.71-33.73-40.17-13.49-120.19-34.19-218.52-17.04-68.1,11.88-119.88,37.54-152.25,57.04Z"/>
        <path class="cls-9" d="M272.4,256.37l60.56,104.9c17.14-26.08,51.79-70.7,111.06-102.81,106.18-57.52,211.69-31.76,237.56-24.66-43.3-17.12-129.93-44.44-238.82-31.26-75.41,9.12-133.72,34.3-170.36,53.84Z"/>
        <path class="cls-11" d="M251.82,245.71l60.43,118.6c20.31-27.64,60.9-74.61,127.79-106.44,119.83-57.02,234.13-22.68,262.12-13.4-46.53-21.28-140.03-56.24-260.29-48.04-83.28,5.67-148.72,29.95-190.05,49.29Z"/>
        <path class="cls-27" d="M229.86,232.82l59.49,133.62c23.87-29.16,71.12-78.37,146.36-109.46,134.77-55.68,258.24-11.43,288.42.37-49.84-26.02-150.43-69.77-282.87-67.69-91.72,1.44-164.92,24.32-211.4,43.16Z"/>
        <path class="cls-25" d="M206.49,217.41l57.6,150.06c27.88-30.63,82.55-81.91,166.91-111.7,151.1-53.35,284.05,2.31,316.48,16.99-53.2-31.43-161.07-85.21-306.53-90.55-100.74-3.7-182.38,17.2-234.47,35.2Z"/>
        <path class="cls-23" d="M181.74,199.16l54.58,167.99c32.35-32.01,95.3-85.14,189.59-112.98,168.89-49.86,311.58,18.88,346.33,36.85-56.58-37.55-171.85-102.78-331.18-117-110.34-9.85-201.14,8.39-259.33,25.15Z"/>
        <path class="cls-10" d="M155.62,177.7l50.24,187.49c37.34-33.26,109.48-87.95,214.55-113.08,188.21-45,340.84,38.63,377.94,60.35-59.93-44.46-182.68-122.67-356.7-147.45-120.52-17.16-221.21-2.37-286.03,12.68Z"/>
        <path class="cls-13" d="M128.2,152.66l44.35,208.64c42.89-34.36,125.21-90.22,241.95-111.75,209.12-38.56,371.82,62,411.28,87.97-63.21-52.23-193.42-145.12-382.96-182.32-131.27-25.76-242.62-15.32-314.62-2.53Z"/>
        <path class="cls-19" d="M99.54,123.6l36.67,231.51c49.05-35.23,142.59-91.81,271.94-108.72,231.71-30.29,404.47,89.42,446.28,120.19-66.36-60.96-203.91-170.38-409.78-222.1-142.57-35.82-265.36-30.76-345.11-20.87Z"/>
        <path class="cls-4" d="M69.77,90.06l26.92,256.16c55.85-35.85,161.76-92.55,304.68-103.67,256.02-19.91,438.72,121.39,482.83,157.56-69.31-70.71-213.97-198.7-436.91-267.3-154.4-47.51-289.44-49.02-377.53-42.75Z"/>
        <path class="cls-26" d="M39.02,51.54l14.81,282.66c63.35-36.12,182.83-92.26,340.32-96.24,282.1-7.13,474.46,158.45,520.8,200.67-72-81.58-223.38-230.36-464.09-318.46C284.16,59.15,136.05,49.73,39.02,51.54Z"/>
        <path class="cls-17" d="M7.5,7.5v311.04c71.6-36,205.95-90.73,379-86.04,309.98,8.4,511.56,201.17,559.98,250.17-74.32-93.67-231.89-265.64-490.98-376.17C276.07,29.96,114.08,11.09,7.5,7.5Z"/>
      </g>
      <circle class="cls-32" cx="694.5" cy="332" r="7.5"/>
      <circle class="cls-32" cx="729.5" cy="358" r="7.5"/>
      <circle class="cls-32" cx="733" cy="340.5" r="5"/>
      <circle class="cls-32" cx="706" cy="366.5" r="5"/>
      <circle class="cls-32" cx="764" cy="377.5" r="5"/>
      <circle class="cls-32" cx="792" cy="384.5" r="5"/>
      <circle class="cls-32" cx="740" cy="396.5" r="5"/>
    </g>
  </g>
</svg>