<?xml version="1.0" encoding="UTF-8"?>
<svg id="Layer_2" xmlns="http://www.w3.org/2000/svg" viewBox="0 0 1038.26 1063.03">
  <defs>
    <style>
      .cls-1 {
        stroke-dasharray: 0 5.2;
        stroke-width: 1.56px;
      }

      .cls-1, .cls-2, .cls-3, .cls-4, .cls-5, .cls-6, .cls-7, .cls-8, .cls-9, .cls-10, .cls-11, .cls-12, .cls-13, .cls-14, .cls-15, .cls-16, .cls-17, .cls-18, .cls-19, .cls-20, .cls-21, .cls-22, .cls-23, .cls-24, .cls-25, .cls-26, .cls-27, .cls-28, .cls-29, .cls-30, .cls-31 {
        fill: none;
        stroke: #ff8d86;
        stroke-linecap: round;
        stroke-linejoin: round;
      }

      .cls-2 {
        stroke-dasharray: 0 25.84;
        stroke-width: 7.75px;
      }

      .cls-3 {
        stroke-dasharray: 0 7.58;
        stroke-width: 2.27px;
      }

      .cls-4 {
        stroke-dasharray: 0 23.51;
        stroke-width: 7.05px;
      }

      .cls-5 {
        stroke-dasharray: 0 31.2;
        stroke-width: 9.36px;
      }

      .cls-6 {
        stroke-dasharray: 0 45.5;
        stroke-width: 13.65px;
      }

      .cls-7 {
        stroke-dasharray: 0 2.95;
        stroke-width: .89px;
      }

      .cls-8 {
        stroke-dasharray: 0 14.67;
        stroke-width: 4.4px;
      }

      .cls-9 {
        stroke-dasharray: 0 19.47;
        stroke-width: 5.84px;
      }

      .cls-10 {
        stroke-dasharray: 0 6.28;
        stroke-width: 1.88px;
      }

      .cls-11 {
        stroke-dasharray: 0 50;
        stroke-width: 15px;
      }

      .cls-12 {
        stroke-dasharray: 0 4.31;
        stroke-width: 1.29px;
      }

      .cls-13 {
        stroke-dasharray: 0 12.15;
        stroke-width: 3.65px;
      }

      .cls-14 {
        stroke-dasharray: 0 17.72;
        stroke-width: 5.32px;
      }

      .cls-15 {
        stroke-dasharray: 0 10.06;
        stroke-width: 3.02px;
      }

      .cls-16 {
        stroke-dasharray: 0 13.35;
        stroke-width: 4.01px;
      }

      .cls-17 {
        stroke-dasharray: 0 3.24;
        stroke-width: .97px;
      }

      .cls-18 {
        stroke-dasharray: 0 28.39;
        stroke-width: 8.52px;
      }

      .cls-32 {
        fill: #ff8d86;
      }

      .cls-19 {
        stroke-dasharray: 0 4.73;
        stroke-width: 1.42px;
      }

      .cls-20 {
        stroke-dasharray: 0 37.68;
        stroke-width: 11.3px;
      }

      .cls-21 {
        stroke-dasharray: 0 5.71;
        stroke-width: 1.71px;
      }

      .cls-22 {
        stroke-dasharray: 0 21.4;
        stroke-width: 6.42px;
      }

      .cls-23 {
        stroke-dasharray: 0 9.16;
        stroke-width: 2.75px;
      }

      .cls-24 {
        stroke-dasharray: 0 8.33;
        stroke-width: 2.5px;
      }

      .cls-25 {
        stroke-dasharray: 0 6.9;
        stroke-width: 2.07px;
      }

      .cls-26 {
        stroke-dasharray: 0 3.57;
        stroke-width: 1.07px;
      }

      .cls-27 {
        stroke-dasharray: 0 3.92;
        stroke-width: 1.18px;
      }

      .cls-28 {
        stroke-dasharray: 0 41.4;
        stroke-width: 12.42px;
      }

      .cls-29 {
        stroke-dasharray: 0 11.06;
        stroke-width: 3.32px;
      }

      .cls-30 {
        stroke-dasharray: 0 34.29;
        stroke-width: 10.29px;
      }

      .cls-31 {
        stroke-dasharray: 0 16.12;
        stroke-width: 4.84px;
      }
    </style>
  </defs>
  <g id="high_good">
    <g>
      <g>
        <path class="cls-7" d="M510.81,565.28c2.65,4.82,8.83,6.15,12.84,3.36,3.61-2.51,4.78-7.86,2.2-12.04,4.4.83,8.69-1.67,10.07-5.63,1.52-4.37-.89-9.48-5.57-11.14,3.6-2.55,4.81-7.29,2.99-11.02-2-4.12-7.21-6.04-11.68-4.02,1.83-5.28-1.44-10.83-6.29-11.86-4.55-.97-9.52,2.23-10.48,7.37-3.01-4.92-9.42-5.93-13.22-2.95-3.19,2.5-4.18,7.53-1.82,11.64-4.73-1.5-9.77,1.21-11.12,5.77-1.4,4.72,1.61,9.9,6.63,11.01-4.06,2.39-5.61,7.35-3.88,11.2,1.97,4.4,7.81,6.45,12.57,3.84-1.28,5.35,2.31,10.47,7.07,11.17,4.11.61,8.43-2.17,9.7-6.68Z"/>
        <path class="cls-17" d="M498.04,565.87c-.23,6.05,4.83,10.79,10.19,10.43,4.82-.32,8.95-4.7,8.89-10.1,3.67,3.27,9.13,3.35,12.67.39,3.9-3.26,4.52-9.43,1.06-13.65,4.83-.37,8.65-4.15,9.06-8.69.45-5.01-3.38-9.77-8.72-10.39,4.71-3.94,4.77-11.01.79-14.73-3.73-3.49-10.23-3.29-14.05,1.01-.05-6.33-5.52-10.92-10.78-10.27-4.42.55-8.2,4.73-8.3,9.93-3.61-4.09-9.89-4.39-13.74-.86-3.99,3.65-4.09,10.23.02,14.12-5.17-.04-9.44,3.75-10,8.36-.63,5.26,3.7,10.5,9.66,10.72-4.23,4.32-3.75,11.17.34,14.53,3.53,2.9,9.17,2.73,12.92-.8Z"/>
        <path class="cls-26" d="M485.68,559.19c-3.64,5.56-1.56,12.9,3.7,15.6,4.72,2.43,11.09.64,14.09-4.49,1.61,5.16,6.71,8.32,11.71,7.54,5.52-.86,9.6-6.33,8.72-12.26,4.76,2.39,10.5.99,13.45-3.06,3.26-4.47,2.35-11.11-2.34-14.73,6.67-1.04,10.73-7.68,9.08-13.43-1.54-5.4-7.78-8.89-13.8-7,3.54-5.99.98-13.41-4.35-15.77-4.47-1.99-10.4-.19-13.44,4.66-1.08-5.9-6.83-9.73-12.46-8.59-5.82,1.18-9.64,7.32-7.98,13.31-4.85-2.97-11.02-1.81-14.15,2.21-3.57,4.59-2.45,11.99,3.03,15.57-6.43,1.67-9.85,8.4-7.9,13.88,1.68,4.72,7.09,7.76,12.62,6.56Z"/>
        <path class="cls-27" d="M477.82,545.91c-6.58,3.18-8.77,11.27-5.35,16.78,3.08,4.96,10.09,6.88,15.81,3.75-1.41,5.77,1.61,11.64,6.76,13.73,5.69,2.31,12.62-.53,15.15-6.61,3.13,4.94,9.33,6.88,14.4,4.73,5.6-2.37,8.5-9.14,6.14-15.19,6.87,2.79,14.45-1.16,16.16-7.51,1.61-5.96-2.29-12.77-9.04-14.4,6.73-3.64,8.51-12.07,4.83-17.32-3.09-4.4-9.69-6.06-15.29-3.22,2.32-6.17-.93-13.04-6.87-15.14-6.15-2.18-13.23,1.44-15.04,8.02-2.89-5.54-9.35-7.94-14.58-5.92-5.96,2.31-9.1,9.9-5.96,16.38-7.01-2.06-14.04,2.34-15.3,8.6-1.09,5.4,2.29,11.32,8.18,13.32Z"/>
        <path class="cls-12" d="M477.93,528.94c-8-.72-14.64,5.65-14.54,12.78.09,6.41,5.61,12.19,12.77,12.48-4.59,4.64-5.07,11.87-1.4,16.76,4.05,5.4,12.19,6.65,18.01,2.35.15,6.43,4.89,11.76,10.88,12.61,6.61.94,13.18-3.8,14.38-10.84,4.89,6.52,14.26,7.08,19.47,2.07,4.89-4.71,5.07-13.33-.36-18.68,8.4.38,14.85-6.56,14.35-13.58-.42-5.9-5.69-11.19-12.59-11.69,5.67-4.5,6.5-12.8,2.1-18.15-4.56-5.53-13.28-6.13-18.71-.96.42-6.85-4.31-12.77-10.38-13.83-6.92-1.2-14.17,4.18-14.88,12.06-5.43-5.91-14.55-5.74-19.28-.56-4.08,4.47-4.25,11.96.17,17.17Z"/>
        <path class="cls-19" d="M487.64,513.03c-7.12-5.21-16.99-2.96-20.93,3.81-3.54,6.09-1.61,14.65,4.97,18.98-6.95,1.77-11.5,8.31-10.81,15,.76,7.38,7.72,13.16,15.64,12.41-3.49,6.15-2.04,13.84,3.12,18.03,5.7,4.63,14.56,3.88,19.68-2.07.92,8.91,9.43,14.75,17.17,12.97,7.27-1.67,12.32-9.69,10.24-17.8,7.69,5.11,17.7,2.23,21.2-4.66,2.94-5.79.97-13.77-5.24-18.13,7.89-1.02,13.37-8.38,12.25-15.91-1.16-7.79-9.04-13.29-17.08-11.49,4.27-6.22,3.17-14.47-1.95-18.9-5.84-5.05-15.71-4.09-20.85,2.94-1.77-8.64-10.45-13.64-17.84-11.44-6.38,1.9-10.77,8.86-9.56,16.27Z"/>
        <path class="cls-1" d="M505.79,503.53c-3.76-8.94-14.32-12.4-21.87-8.25-6.78,3.73-9.81,12.89-6.06,20.69-7.55-2.27-15.53,1.32-18.67,8.01-3.46,7.38-.18,16.76,7.71,20.54-6.77,3.81-9.76,11.88-7.27,18.75,2.75,7.58,11.52,11.9,19.71,9.19-4.18,8.91.53,19.23,8.83,21.93,7.79,2.54,17.09-2.15,19.72-10.97,4.36,9.16,15.41,12.12,22.61,7.61,6.05-3.79,8.71-12.42,5.33-20.04,8.01,3.5,17.34-.33,20.54-8.06,3.32-8-.99-17.63-9.58-20.49,7.54-3.44,11.18-11.84,8.86-18.91-2.64-8.06-12.49-12.74-21.3-9.03,3.22-9.14-2.13-18.76-10.33-20.87-7.08-1.82-15.16,2.25-18.22,9.91Z"/>
        <path class="cls-21" d="M528.26,504.85c1.51-10.55-6.47-19.79-15.93-20.15-8.5-.32-16.54,6.59-17.42,16.06-5.83-6.41-15.38-7.55-22.12-3.02-7.44,5-9.65,15.69-4.36,23.71-8.53-.24-15.92,5.67-17.46,13.55-1.7,8.7,4.12,17.73,13.37,19.81-8.98,6.03-10.38,18.41-4.09,25.66,5.9,6.8,17.31,7.64,24.78.82-1.08,11.1,7.66,20.13,16.99,19.96,7.84-.14,15.23-6.77,16.36-15.87,5.56,7.83,16.52,9.51,23.91,4.04,7.65-5.66,9.04-17.17,2.57-24.73,9.05,1.03,17.23-4.83,19.05-12.79,2.08-9.09-4.55-19.07-14.95-20.56,8.21-6.79,8.62-18.88,2.08-25.51-5.64-5.72-15.55-6.46-22.77-.97Z"/>
        <path class="cls-10" d="M548.68,518.82c7.4-9.08,5.1-22.3-3.6-28-7.82-5.12-19.31-3.16-25.5,5.26-1.86-9.33-10.21-15.81-19.12-15.36-9.83.5-17.97,9.31-17.53,19.86-7.9-5.06-18.2-3.67-24.12,2.88-6.53,7.23-6.16,19.03,1.38,26.22-11.87.59-20.2,11.47-18.38,21.85,1.71,9.74,11.98,17,22.88,14.8-7.3,9.84-4.18,23.3,4.71,28.42,7.47,4.3,18.18,2.24,24.39-5.69.81,10.53,10.18,18.3,20.23,17.34,10.41-1,18.23-11.05,16.42-21.84,7.94,6.09,18.96,5.2,25.18-1.27,7.1-7.39,6.51-20.54-2.45-27.83,11.57-1.75,18.8-12.9,16.39-22.85-2.08-8.58-10.99-14.89-20.89-13.8Z"/>
        <path class="cls-25" d="M560.01,543.54c12.1-4.36,17.43-18.12,12.45-28.41-4.47-9.25-16.4-13.9-27-9.47,3.53-9.84-.67-20.67-9.32-25.29-9.54-5.1-22.2-1.4-27.75,8.79-4.58-9.24-15.07-13.76-24.34-10.94-10.24,3.11-16.57,14.44-13.54,25.48-11.52-6.16-25.51-.63-29.68,10.18-3.91,10.14,1.66,22.79,13.17,26.89-12.45,5.14-17.13,19.58-11.65,29.44,4.6,8.28,15.85,12.4,26.19,8.45-5.2,10.37-.77,23,9.25,27.78,10.37,4.95,23.43-.09,27.82-11.28,4.03,10.24,14.91,15.63,24.44,13.06,10.87-2.94,17.75-15.66,13.45-27.6,11.89,4.91,25.01-1.51,28.37-12.24,2.9-9.26-1.93-20.25-11.87-24.83Z"/>
        <path class="cls-3" d="M556.69,573.22c13.87,2.74,26.68-7.2,27.81-19.71,1.02-11.24-7.58-22.38-20.07-24.2,8.89-7.28,11.07-19.85,5.54-29.1-6.1-10.2-20.12-13.88-31.12-7.43.91-11.29-6.41-21.49-16.74-24.08-11.41-2.86-23.78,4.22-27.18,16.34-7.36-12.32-23.68-15.03-33.72-7.21-9.42,7.34-11.33,22.41-2.81,32.78-14.63-2.2-27.21,8.75-27.63,21.13-.35,10.4,7.91,20.65,19.89,22.78-10.77,6.83-13.75,21.23-7.01,31.4,6.97,10.53,22.12,13.18,32.59,5.13-1.99,11.93,5.2,23.17,15.63,26.13,11.9,3.38,25.59-4.71,28.29-18.39,8.42,11.35,24.42,12.73,33.66,4.53,7.97-7.08,9.64-20.16,2.87-30.1Z"/>
        <path class="cls-24" d="M536.76,599.31c11.51,10.43,29.2,8.31,37.35-2.83,7.32-10.01,5.52-25.37-5.2-34.16,12.5-1.82,21.66-12.44,21.69-24.28.02-13.06-11.09-24.46-25.1-24.61,7.25-10.12,6.13-23.87-2.14-32.16-9.13-9.15-24.79-9.48-34.85,0,.04-15.77-13.79-27.56-27.68-25.87-13.03,1.58-23.36,14.7-21.2,29.29-12.54-10.36-30.58-7.16-37.99,4.27-6.22,9.6-4.24,23.93,5.84,32.72-14.01.34-24.96,12.22-24.38,25.61.6,13.87,13.38,24.93,27.8,23.27-8.63,10.1-8.21,24.76-.07,33.46,9.3,9.92,26.77,10.05,37.05-1.31,1.51,15.46,15.79,25.81,29.14,23.31,11.52-2.16,20.5-13.53,19.74-26.73Z"/>
        <path class="cls-23" d="M503.22,612.61c4.94,16.34,22.8,24.36,36.79,18.48,12.57-5.29,19.56-20.77,14.43-35.12,12.8,5.36,27.44.55,34.17-10.59,7.42-12.29,3.4-29.32-9.72-37.39,12.56-5.43,19.28-19.01,16.19-31.5-3.42-13.79-17.98-22.96-32.83-19.72,8.96-14.84,2.61-33.77-11.43-40.04-13.17-5.88-30.32.62-36.55,15.59-5.95-16.85-24.75-24.06-38.2-17.48-11.29,5.52-17.53,20.15-13.02,34.12-13.39-7.61-30.43-2.62-37.46,10.33-7.28,13.4-1.51,31.06,13.01,37.65-13.85,4.64-21.75,18.68-19,31.48,3.14,14.61,19.53,24.61,35.64,19.74-7.33,15.42.27,33.25,14.26,38.45,12.07,4.49,26.96-1.15,33.73-14Z"/>
        <path class="cls-15" d="M464.11,606.15c-4.59,18.19,7.69,35.85,24.19,38.22,14.83,2.13,30.18-8.49,33.47-24.91,9.03,12.29,25.54,16.05,38.18,9.36,13.94-7.38,19.8-25.7,12.01-40.72,14.9,1.99,28.92-7,33.08-20.51,4.59-14.92-3.95-31.8-19.76-37.15,16.84-8.9,21.57-30.33,11.89-44.18-9.08-13-28.92-16.58-43.25-6,3.94-19.24-9.7-36.67-26.09-38.09-13.76-1.19-27.92,9.05-31.57,24.78-8.3-14.74-27.18-19.69-41.13-11.47-14.44,8.5-19,28.4-9.06,42.83-15.66-3.47-31.06,5.28-35.71,18.9-5.31,15.54,4.46,34.23,22.4,38.76-15.63,10.37-18.57,31.47-8.33,44.29,8.83,11.06,26.05,14.18,39.69,5.9Z"/>
        <path class="cls-29" d="M430.92,577.92c-14.62,14.53-13.04,38.12,1.15,49.7,12.76,10.4,33.23,9.08,45.62-4.52,1.55,16.69,14.97,29.57,30.66,30.42,17.31.94,33.19-13,34.36-31.56,12.91,10.31,31.2,9.78,42.76-.6,12.76-11.46,14.28-32.19,2.41-46.18,20.9,1.14,37.48-16.37,36.21-34.89-1.19-17.38-17.86-31.98-37.34-30.13,14.6-15.89,11.62-40.03-3.02-50.64-12.29-8.91-31.42-7.28-43.76,5.47.52-18.58-14.46-33.93-32.25-34.08-18.42-.16-33.97,16-32.77,35.22-12.79-12.13-32.25-12.6-44.33-2.41-13.8,11.63-15.17,34.77-.84,49.19-20.59.93-35.3,19.14-32.92,37,2.06,15.41,16.51,28.1,34.05,28.02Z"/>
        <path class="cls-13" d="M415.63,532.56c-22,5.41-33.86,28.53-27.04,47.47,6.13,17.02,26.17,27.36,45.54,21.56-7.99,16.59-2.63,36.33,11.66,46.01,15.77,10.68,38.62,6.54,50.22-10.28,6.32,17.02,23.86,26.87,40.62,23.64,18.51-3.57,31.67-22.24,28.41-42.13,19.04,12.9,44.57,5.8,53.85-12.37,8.71-17.05,1.28-40.23-18.12-49.52,22.75-6.71,33.6-31.13,25.82-49.41-6.53-15.35-25.48-24.64-44.32-19.62,11.01-17.21,5.59-40.14-11.08-50.36-17.26-10.58-41.05-4.15-50.8,14.63-5.18-18.67-23.24-30.12-40.4-27.36-19.58,3.15-33.97,24.17-28.63,45.86-19.92-10.78-44.08-1.95-51.95,16.22-6.79,15.68-.35,35.81,16.22,45.67Z"/>
        <path class="cls-16" d="M426.91,481.17c-23.79-7.35-48.04,7.71-52.33,29.41-3.86,19.5,9.16,40.58,30.69,46.08-16.92,11.11-23.04,32.73-15.05,49.94,8.81,18.99,32.68,28.02,53.13,18.74-3.68,19.61,7.26,38.81,24.88,45.26,19.45,7.11,42.42-3.02,50.6-23.61,10.63,22.93,38.7,30.69,57.73,18.83,17.85-11.13,23.97-37.17,10.96-56.9,25.22,6.56,49.27-10.31,52.29-31.92,2.53-18.16-10.06-37.63-30.64-43.56,20.11-9.98,27.98-34.65,18.06-53.71-10.27-19.73-36.32-27.15-56.13-14.98,5.69-20.52-4.84-41.53-22.56-48.64-20.23-8.11-45.68,3.53-52.92,26.99-12.66-21.43-40.42-26.79-58.11-14.12-15.27,10.93-20.6,33.53-10.57,52.19Z"/>
        <path class="cls-8" d="M466.61,439.15c-18.24-20.39-49.62-19.93-65.94-1.92-14.67,16.19-14.34,43.41,2.83,60.78-22.22.89-40.23,17.79-42.45,38.52-2.45,22.87,14.92,44.89,39.44,47.72-14.56,16.39-15.12,40.67-2.18,56.71,14.3,17.71,41.67,21.16,61.03,6.4-2.97,27.61,19.08,50.81,43.72,50.41,23.11-.38,43.62-21.44,42.52-47.39,20.05,20.45,52.24,18.17,67.32-.48,12.66-15.67,11.82-41.13-4.21-58.37,24.59,1.98,45.96-16.8,47.41-40.37,1.49-24.39-18.84-46.12-44.4-45.88,16.97-16.11,18.94-41.86,6.27-58.58-14.46-19.09-45.03-22.52-65.13-4.53.2-27.35-22.91-48.11-46.75-46.19-20.57,1.66-38.38,19.93-39.5,43.18Z"/>
        <path class="cls-31" d="M527.8,422.05c-5.65-29.53-35.45-46.86-61.02-39.13-22.98,6.94-38.08,32.77-31.74,58.85-21.43-11.74-47.96-6.01-61.79,12.26-15.25,20.16-11.35,50.73,10.14,67.27-22.99,7.19-37.27,29.75-34.15,52.19,3.44,24.77,27.27,43.52,53.86,40.57-18.42,24.33-10.78,58.66,12.65,72.22,21.98,12.73,53.22,4.49,66.88-20.58,7.31,30.61,38.93,46.69,63.68,37.65,20.79-7.59,34.42-32.05,29.08-57.37,22.04,15.79,52.8,10.19,67.5-11.19,15.21-22.13,8.36-54.11-15.85-68.34,25.1-5.57,41.53-28.7,39.07-51.63-2.81-26.17-29.66-46.7-58.78-41.13,15.67-25.65,5.65-58.28-17.89-69.97-20.31-10.08-47.43-2.96-61.64,18.32Z"/>
        <path class="cls-14" d="M595.11,440.56c11.39-31.01-6.88-64.2-35.33-71.4-25.57-6.46-54.42,9.32-63.2,37.47-13.54-23.19-41.78-32.81-65.14-23.42-25.78,10.36-39.4,41.36-28.52,69.1-25.73-6.24-51.94,6.93-61.7,29.83-10.78,25.28,1.06,56.42,27.77,68.7-31.12,12.49-43.35,49.15-28.96,75.19,13.5,24.43,47.59,34.35,74.64,18.47-10.44,32.97,10.24,66.01,38.68,71.51,23.88,4.62,50.56-10.71,59.86-37.58,11.83,27.34,43.97,39.48,69.92,27.66,26.86-12.24,38.5-46.24,23.75-73.35,26.8,8.96,55.37-3.53,66.02-26.52,12.16-26.24-1.51-60.78-32.1-72.01,29.28-15.29,38.31-51.7,22.75-76.03-13.42-20.99-43.01-29.63-68.43-17.63Z"/>
        <path class="cls-9" d="M648.03,496.09c28.28-22.76,29.86-64.37,7.13-87.25-20.43-20.56-56.53-22.02-80.74-.48.37-29.51-20.78-54.55-48.1-58.93-30.14-4.83-60.52,16.66-65.98,48.95-20.71-20.44-52.85-22.87-75-6.82-24.46,17.72-30.94,53.75-12.72,80.43-36.39-5.85-68.65,21.76-69.83,54.43-1.11,30.66,25.38,59.29,59.85,59.64-28.49,25.15-27.71,67.97-4.04,89.24,19.88,17.87,53.69,18.53,77.65-1.52-4.34,32.45,19.07,62.08,50.2,65.63,32.22,3.67,62.43-21.77,63.88-55.65,20.17,23.61,54.15,28.01,77.2,12.38,26.3-17.83,32.97-58.1,10.52-85.99,36.23,2.17,65.35-27.02,64.46-58.74-.76-27.37-23.74-52.25-54.48-55.34Z"/>
        <path class="cls-22" d="M666.45,578.36c39.52-5.43,64.56-43.73,56.09-78.15-7.61-30.93-40.79-52.74-75.78-46.14,17.04-27.59,11.3-63.14-11.96-82.73-25.66-21.61-66.43-18.56-89.85,8.76-7.94-30.97-36.84-51.45-66.79-48.88-33.07,2.84-59.56,33.11-57.5,68.56-30.97-26.1-76.98-18.36-96.59,11.75-18.39,28.25-9.65,70.22,22.62,90.06-41.07,7.56-64.58,48.34-54.32,81.78,8.62,28.08,40.09,47.84,74,42.52-22.45,28.11-17.17,69.27,10.14,90.23,28.27,21.7,71.13,14.83,91.67-16.26,5.64,33.65,35.16,57.03,65.71,55.36,34.87-1.91,63.94-36.07,58.58-75.04,32.9,22.55,76.84,11.53,93.96-18.85,14.77-26.21,7.21-62.65-19.99-82.96Z"/>
        <path class="cls-4" d="M637.25,666.27c40.3,17.25,85.56-4.65,97.07-41.86,10.34-33.44-8.57-72.76-45.26-86.35,31.67-16.34,46.38-53.08,35.56-84.7-11.94-34.88-52.07-55.08-89.59-42.6,10.05-33.66-5.58-69.31-35.25-83.84-32.76-16.04-74.85-2.52-92.97,32.03-14.39-42.11-62.12-60.86-97.63-43.6-33.32,16.2-48.83,60.68-29.66,97.63-42.97-16.12-88.19,8.99-97.45,46.29-7.78,31.33,10.69,67.75,45.64,81.93-37.06,13.77-55.38,55.53-41.52,90.73,14.35,36.44,58.6,54.23,95.55,36.56-13.74,34.89.83,73.62,30.56,89.33,33.93,17.93,80.65,2.22,97.65-37.53,18.23,39.86,65.85,54.36,99.17,35.43,28.75-16.33,42.25-54.94,28.12-89.46Z"/>
        <path class="cls-2" d="M559.98,732.55c28.2,39.06,83.22,44.04,115.13,15.5,28.67-25.65,33.11-73.39,6.24-106.96,39.08,2.53,73.73-23.75,81.43-59.65,8.5-39.61-17.87-81.36-60.28-90.83,28.52-26.02,33.97-68.44,14.25-98.92-21.78-33.65-69.07-44.73-105.7-22.44,10.28-47.82-24.07-92.49-67.29-96.33-40.55-3.6-80.34,29.52-83.2,75.18-31.35-39.5-88.15-41.45-117.98-11.55-25.06,25.11-28.28,69.86-3.38,103.01-42.7-8-83.59,20.96-90.46,61.97-7.11,42.45,24.51,84.25,69.31,88.52-32.68,25.09-40.88,69.82-21.77,101.45,21.81,36.09,74.71,47.73,113.23,19.92-5.39,47.86,31.27,88.47,73.37,89.5,36.32.89,70.89-27.83,77.12-68.35Z"/>
        <path class="cls-18" d="M449.68,751.25c4.45,52.75,53.47,88.59,99.67,79.76,41.52-7.93,72.72-50.39,66.41-97.22,35.38,24.5,82.89,19.36,110.46-10.1,30.42-32.5,29.21-86.75-5.37-119.68,41.59-8.37,70.74-45.24,69.41-85.11-1.47-44.02-39.75-81.23-86.86-80.97,36.74-39.22,29.68-100.74-8.86-128.82-36.16-26.34-92.38-17.66-120.92,23.72-7.17-54.95-59.58-88.93-104.6-77.66-37.81,9.47-66.18,49.8-61.48,95.11-35.7-31.7-90.6-27.57-120.28,7.17-30.72,35.96-24.59,93.23,15.19,122.6-44.98,5.13-78.02,42.63-77.92,83.23.11,46.34,43.36,87.24,95.38,82.84-32.16,42.03-20.62,101.03,18.45,125.83,33.71,21.39,82.53,13.91,111.33-20.74Z"/>
        <path class="cls-5" d="M335.21,706.44c-25.66,52.21.22,113.7,48.74,131.54,43.6,16.03,97.02-6.31,117.58-53.99,19.45,43.1,67.12,65.15,109.77,53,47.05-13.4,76.61-65.18,62.67-115.77,43.91,15.66,92.24-2.58,113.55-40.89,23.53-42.3,8.54-99.01-36-125.43,56.81-16.15,84.97-78.1,64.56-126.35-19.15-45.27-77.02-68.92-127.32-46.09,24.35-55.82-5.78-117.49-54.57-132.35-40.98-12.48-90.52,9.46-111.74,54.8-15.68-50.07-69.74-77.24-117.35-61.32-49.29,16.49-75.93,73.89-55.09,124.08-45.28-20.63-97.62-4.01-120.51,34.3-26.12,43.71-8.54,106.72,42.95,132.02-54.09,21.39-76.61,83.5-53.84,128.96,19.65,39.23,69.87,59.81,116.6,43.48Z"/>
        <path class="cls-30" d="M252.74,599.44c-53.72,34.66-64.14,107.23-28.54,151.49,32,39.77,94.95,48.97,141.31,15.69-6.07,51.61,26.36,99.36,73.4,112.05,51.9,14.01,109.06-18.04,124.56-73.57,32.5,39.6,88.34,49.78,130.1,25.75,46.1-26.52,64.08-88.43,37.08-138.52,62.65,16.94,124.24-25.47,132.32-82.48,7.58-53.49-33.54-108.51-93.84-115.47,54.53-38.8,61.05-113.94,23.5-155.55-31.53-34.95-90.62-42.33-136.27-11.63,13.57-56.03-21.97-112.23-75.84-124.18-55.76-12.37-113.35,26.63-122.12,85.7-30.98-45.05-89.68-59.02-132.92-35.9-49.35,26.39-68.44,95.69-34.26,148.66-63.05-10.46-119.41,35.29-123.7,91.01-3.7,48.07,31.96,95.88,85.22,106.95Z"/>
        <path class="cls-20" d="M235.62,451.98c-70.22,2.24-121.11,64.7-112.62,126.54,7.63,55.57,61.73,99.87,124.22,94.76-34.93,45.18-31.41,108.5,5.72,147.09,40.96,42.57,112.93,44.73,158.97,1.19,8.2,55.7,55.04,96.89,107.97,97.89,58.44,1.11,110.41-47.03,113.33-109.49,49.42,51.42,131.45,46.32,171.32-2.8,37.41-46.09,29.82-121.2-23.04-161.88,73.32-5.68,121.99-72.77,110.18-133.22-9.92-50.77-61.4-91.16-121.78-88.08,44.49-45.1,42.82-118.15-1.15-159.89-45.52-43.21-121.84-39.07-163.53,11.61-3.68-59.97-51.07-106.36-104.89-109.05-61.42-3.07-118.63,51.4-116.41,120.64-53.47-45.54-132.46-34.34-168.03,15.71-30.69,43.19-24.16,108.4,19.75,148.97Z"/>
        <path class="cls-28" d="M302.95,303.39c-67.41-37.63-150.7-7.6-177.7,55.45-24.27,56.66,1.62,129,63.38,159.56-58.47,22.79-90.99,84.43-77.86,141.78,14.49,63.28,81.06,106.05,149.06,91.09-23.8,57.11-2.99,122.41,46.3,153.32,54.42,34.12,130.62,18.19,168.72-38.99,17.46,76.4,97.6,118.03,162.96,94.33,61.33-22.24,96.68-97.28,69.92-165.53,72.28,36.15,156.1.49,179.18-63.12,19.39-53.44-6.24-120.61-64.85-151.89,67.44-17.3,107.21-87.05,89.41-151.26-18.42-66.46-92.65-105.76-160.61-81.62,30.48-58.57,12.09-129.08-37.08-162.08-56.12-37.65-140.83-18.73-177.93,47.75-24.59-73.16-105.33-107.32-167.16-80.3-53.35,23.31-84.11,88.43-65.71,151.5Z"/>
        <path class="cls-6" d="M450.48,201.53c-42.19-73.6-137.64-92.45-198.77-48.34-54.93,39.64-71.49,122.43-30.61,186.17-67.97-11.63-133.5,28.03-153.59,89.48-22.17,67.81,16.33,145.77,88.85,170.17-54.74,40.32-72.1,113.61-43.16,170.62,31.95,62.94,112.74,91.06,180.99,58.76-26.8,81.85,25.13,166.41,100.11,181.08,70.35,13.76,146.13-36.91,159.54-116.34,47.63,74.96,146.75,88.81,204.5,41.95,48.51-39.36,62.38-117.14,24.88-179.78,73.31,21.87,150.25-21.32,169.83-91.87,20.26-73.03-27.42-152.05-105.09-167.78,61.86-37.92,84.45-114.75,56.8-173.66-31.55-67.23-122.05-97.35-194.63-55.72,18.24-82.83-38.47-160.7-112.01-170.25-63.45-8.24-129.28,35.69-147.64,105.51Z"/>
        <path class="cls-11" d="M647.08,189.09c1.91-93.21-77.33-164.99-159.87-158.03-74.18,6.25-136.63,74.86-134.2,158.03-57.44-49.42-141.61-49.16-195.32-2.64-59.26,51.32-67.13,146.55-12.62,210.58-74.38,7-132.22,66.21-137.22,136.28-5.53,77.37,54.65,149.58,137.22,157.79-71.57,61.93-70.51,170.97-8.19,227.23,58.48,52.78,158.54,47.93,216.13-19.29,2.44,97.56,87.97,166.71,168.89,155.26,67.97-9.62,125.06-75.04,125.18-155.26,56.68,62.09,153.6,64.95,211.97,9.58,60.42-57.32,60.23-158.74-4.03-217.52,79.73-.71,144.49-60.29,151.79-131.43,8.33-81.18-59.87-160.77-151.79-162.64,64.06-67.7,54.71-173.14-9.15-223.76-55.1-43.67-141.98-39.55-198.79,15.82Z"/>
      </g>
      <circle class="cls-32" cx="68.76" cy="837.5" r="7.5"/>
      <circle class="cls-32" cx="101.76" cy="888.5" r="7.5"/>
      <circle class="cls-32" cx="202.76" cy="998.5" r="7.5"/>
      <circle class="cls-32" cx="638.76" cy="1035.5" r="7.5"/>
      <circle class="cls-32" cx="831.76" cy="959.5" r="7.5"/>
      <circle class="cls-32" cx="947.76" cy="831.5" r="7.5"/>
      <circle class="cls-32" cx="1012.76" cy="474.5" r="7.5"/>
      <circle class="cls-32" cx="947.76" cy="320.5" r="7.5"/>
      <circle class="cls-32" cx="824.76" cy="124.5" r="7.5"/>
      <circle class="cls-32" cx="623.76" cy="62.5" r="5"/>
      <circle class="cls-32" cx="395.76" cy="20.5" r="7.5"/>
      <circle class="cls-32" cx="474.76" cy="7.5" r="7.5"/>
      <circle class="cls-32" cx="211.76" cy="129.5" r="7.5"/>
      <circle class="cls-32" cx="42.76" cy="407.5" r="7.5"/>
      <circle class="cls-32" cx="18.76" cy="631.5" r="7.5"/>
      <circle class="cls-32" cx="51.26" cy="677" r="5"/>
      <circle class="cls-32" cx="897.26" cy="172" r="5"/>
      <circle class="cls-32" cx="77.26" cy="366" r="5"/>
      <circle class="cls-32" cx="253.26" cy="85" r="5"/>
      <circle class="cls-32" cx="932.26" cy="284" r="5"/>
      <circle class="cls-32" cx="1033.26" cy="519" r="5"/>
      <circle class="cls-32" cx="935.26" cy="887" r="5"/>
      <circle class="cls-32" cx="875.26" cy="935" r="5"/>
      <circle class="cls-32" cx="663.26" cy="1007" r="5"/>
    </g>
  </g>
</svg>