<?xml version="1.0" encoding="UTF-8"?>
<svg id="Layer_2" xmlns="http://www.w3.org/2000/svg" viewBox="0 0 1015 1045.55">
  <defs>
    <style>
      .cls-1 {
        stroke-dasharray: 0 5.2;
        stroke-width: 1.56px;
      }

      .cls-1, .cls-2, .cls-3, .cls-4, .cls-5, .cls-6, .cls-7, .cls-8, .cls-9, .cls-10, .cls-11, .cls-12, .cls-13, .cls-14, .cls-15, .cls-16, .cls-17, .cls-18, .cls-19, .cls-20, .cls-21, .cls-22, .cls-23, .cls-24, .cls-25, .cls-26, .cls-27, .cls-28, .cls-29, .cls-30, .cls-31 {
        fill: none;
        stroke: #ff8d86;
        stroke-linecap: round;
        stroke-linejoin: round;
      }

      .cls-2 {
        stroke-dasharray: 0 25.84;
        stroke-width: 7.75px;
      }

      .cls-3 {
        stroke-dasharray: 0 7.58;
        stroke-width: 2.27px;
      }

      .cls-4 {
        stroke-dasharray: 0 23.51;
        stroke-width: 7.05px;
      }

      .cls-5 {
        stroke-dasharray: 0 31.2;
        stroke-width: 9.36px;
      }

      .cls-6 {
        stroke-dasharray: 0 45.5;
        stroke-width: 13.65px;
      }

      .cls-7 {
        stroke-dasharray: 0 2.95;
        stroke-width: .89px;
      }

      .cls-8 {
        stroke-dasharray: 0 14.67;
        stroke-width: 4.4px;
      }

      .cls-9 {
        stroke-dasharray: 0 19.47;
        stroke-width: 5.84px;
      }

      .cls-10 {
        stroke-dasharray: 0 6.28;
        stroke-width: 1.88px;
      }

      .cls-11 {
        stroke-dasharray: 0 50;
        stroke-width: 15px;
      }

      .cls-12 {
        stroke-dasharray: 0 4.31;
        stroke-width: 1.29px;
      }

      .cls-13 {
        stroke-dasharray: 0 12.15;
        stroke-width: 3.65px;
      }

      .cls-14 {
        stroke-dasharray: 0 17.72;
        stroke-width: 5.32px;
      }

      .cls-15 {
        stroke-dasharray: 0 10.06;
        stroke-width: 3.02px;
      }

      .cls-16 {
        stroke-dasharray: 0 13.35;
        stroke-width: 4.01px;
      }

      .cls-17 {
        stroke-dasharray: 0 3.24;
        stroke-width: .97px;
      }

      .cls-18 {
        stroke-dasharray: 0 28.39;
        stroke-width: 8.52px;
      }

      .cls-19 {
        stroke-dasharray: 0 4.73;
        stroke-width: 1.42px;
      }

      .cls-20 {
        stroke-dasharray: 0 37.68;
        stroke-width: 11.3px;
      }

      .cls-21 {
        stroke-dasharray: 0 5.71;
        stroke-width: 1.71px;
      }

      .cls-22 {
        stroke-dasharray: 0 21.4;
        stroke-width: 6.42px;
      }

      .cls-23 {
        stroke-dasharray: 0 9.16;
        stroke-width: 2.75px;
      }

      .cls-24 {
        stroke-dasharray: 0 8.33;
        stroke-width: 2.5px;
      }

      .cls-25 {
        stroke-dasharray: 0 6.9;
        stroke-width: 2.07px;
      }

      .cls-26 {
        stroke-dasharray: 0 3.57;
        stroke-width: 1.07px;
      }

      .cls-27 {
        stroke-dasharray: 0 3.92;
        stroke-width: 1.18px;
      }

      .cls-28 {
        stroke-dasharray: 0 41.4;
        stroke-width: 12.42px;
      }

      .cls-29 {
        stroke-dasharray: 0 11.06;
        stroke-width: 3.32px;
      }

      .cls-30 {
        stroke-dasharray: 0 34.29;
        stroke-width: 10.29px;
      }

      .cls-31 {
        stroke-dasharray: 0 16.12;
        stroke-width: 4.84px;
      }
    </style>
  </defs>
  <g id="high_good">
    <g>
      <g>
        <rect class="cls-7" x="477.97" y="520.3" width="20.01" height="4.64" rx=".71" ry=".71"/>
        <rect class="cls-7" x="517.01" y="520.3" width="20.01" height="4.64" rx=".71" ry=".71"/>
        <rect class="cls-7" x="504.39" y="492.34" width="4.64" height="20.01" rx=".71" ry=".71"/>
        <rect class="cls-7" x="504.39" y="533.19" width="4.64" height="20.01" rx=".71" ry=".71"/>
        <rect class="cls-7" x="510.54" y="506.25" width="20.01" height="4.64" rx=".71" ry=".71" transform="translate(-207.15 517.04) rotate(-45)"/>
        <rect class="cls-7" x="518.23" y="526.3" width="4.64" height="20.01" rx=".71" ry=".71" transform="translate(-226.76 525.17) rotate(-45)"/>
        <rect class="cls-7" x="491.56" y="499.63" width="4.64" height="20.01" rx=".71" ry=".71" transform="translate(-215.72 498.49) rotate(-45)"/>
        <rect class="cls-7" x="483.66" y="534.36" width="20.01" height="4.64" rx=".71" ry=".71" transform="translate(-234.9 506.27) rotate(-45)"/>
      </g>
      <g>
        <rect class="cls-17" x="498.48" y="491.32" width="5.1" height="21.99" rx=".78" ry=".78" transform="translate(-130.7 179.41) rotate(-18)"/>
        <rect class="cls-17" x="511.74" y="532.13" width="5.1" height="21.99" rx=".78" ry=".78" transform="translate(-142.66 185.51) rotate(-18)"/>
        <rect class="cls-17" x="517.58" y="512.46" width="21.99" height="5.1" rx=".78" ry=".78" transform="translate(-133.28 188.54) rotate(-18)"/>
        <rect class="cls-17" x="474.89" y="526.33" width="21.99" height="5.1" rx=".78" ry=".78" transform="translate(-139.65 176.03) rotate(-18)"/>
        <rect class="cls-17" x="524.23" y="520.59" width="5.1" height="21.99" rx=".78" ry=".78" transform="translate(-186.02 759.61) rotate(-63)"/>
        <rect class="cls-17" x="486.79" y="538.46" width="21.99" height="5.1" rx=".78" ry=".78" transform="translate(-210.25 738.92) rotate(-63)"/>
        <rect class="cls-17" x="505.6" y="501.53" width="21.99" height="5.1" rx=".78" ry=".78" transform="translate(-167.07 735.52) rotate(-63)"/>
        <rect class="cls-17" x="485.72" y="502.04" width="5.1" height="21.99" rx=".78" ry=".78" transform="translate(-190.52 715.18) rotate(-63)"/>
      </g>
      <g>
        <rect class="cls-26" x="514.59" y="506.26" width="24.17" height="5.6" rx=".86" ry=".86" transform="translate(-198.63 406.8) rotate(-36)"/>
        <rect class="cls-26" x="476.45" y="533.97" width="24.17" height="5.6" rx=".86" ry=".86" transform="translate(-222.21 389.67) rotate(-36)"/>
        <rect class="cls-26" x="519.97" y="530.08" width="5.6" height="24.17" rx=".86" ry=".86" transform="translate(-218.83 410.82) rotate(-36)"/>
        <rect class="cls-26" x="490.98" y="490.17" width="5.6" height="24.17" rx=".86" ry=".86" transform="translate(-200.92 386.16) rotate(-36)"/>
        <rect class="cls-26" x="492.75" y="543.11" width="24.17" height="5.6" rx=".86" ry=".86" transform="translate(-113.33 959.13) rotate(-81)"/>
        <rect class="cls-26" x="482.34" y="506.73" width="5.6" height="24.17" rx=".86" ry=".86" transform="translate(-103.17 916.82) rotate(-81)"/>
        <rect class="cls-26" x="527.33" y="513.85" width="5.6" height="24.17" rx=".86" ry=".86" transform="translate(-72.26 967.26) rotate(-81)"/>
        <rect class="cls-26" x="499.06" y="496.57" width="24.17" height="5.6" rx=".86" ry=".86" transform="translate(-62.04 926.1) rotate(-81)"/>
      </g>
      <g>
        <rect class="cls-27" x="525.26" y="524.88" width="6.16" height="26.56" rx=".94" ry=".94" transform="translate(-217.59 649.27) rotate(-54)"/>
        <rect class="cls-27" x="483.35" y="494.43" width="6.16" height="26.56" rx=".94" ry=".94" transform="translate(-210.23 602.81) rotate(-54)"/>
        <rect class="cls-27" x="479.14" y="542.24" width="26.56" height="6.16" rx=".94" ry=".94" transform="translate(-238.19 623.17) rotate(-54)"/>
        <rect class="cls-27" x="511" y="498.39" width="26.56" height="6.16" rx=".94" ry=".94" transform="translate(-189.58 630.87) rotate(-54)"/>
        <rect class="cls-27" x="469.13" y="524.77" width="26.56" height="6.16" rx=".94" ry=".94" transform="translate(-76.63 81.96) rotate(-9)"/>
        <rect class="cls-27" x="500.97" y="484.78" width="6.16" height="26.56" rx=".94" ry=".94" transform="translate(-71.71 84.98) rotate(-9)"/>
        <rect class="cls-27" x="508.8" y="534.22" width="6.16" height="26.56" rx=".94" ry=".94" transform="translate(-79.35 86.82) rotate(-9)"/>
        <rect class="cls-27" x="519.92" y="515.56" width="26.56" height="6.16" rx=".94" ry=".94" transform="translate(-74.57 89.8) rotate(-9)"/>
      </g>
      <g>
        <rect class="cls-12" x="483.9" y="546.39" width="29.18" height="6.76" rx="1.03" ry="1.03" transform="translate(-178.42 853.98) rotate(-72)"/>
        <rect class="cls-12" x="501.5" y="492.25" width="29.18" height="6.76" rx="1.03" ry="1.03" transform="translate(-114.77 833.3) rotate(-72)"/>
        <rect class="cls-12" x="475.44" y="500.08" width="6.76" height="29.18" rx="1.03" ry="1.03" transform="translate(-158.63 811.01) rotate(-72)"/>
        <rect class="cls-12" x="532.08" y="518.48" width="6.76" height="29.18" rx="1.03" ry="1.03" transform="translate(-136.99 877.6) rotate(-72)"/>
        <rect class="cls-12" x="490.3" y="483.68" width="6.76" height="29.18" rx="1.03" ry="1.03" transform="translate(-172.4 278.43) rotate(-27)"/>
        <rect class="cls-12" x="517.56" y="507.39" width="29.18" height="6.76" rx="1.03" ry="1.03" transform="translate(-173.89 297.26) rotate(-27)"/>
        <rect class="cls-12" x="468.56" y="532.36" width="29.18" height="6.76" rx="1.03" ry="1.03" transform="translate(-190.56 277.74) rotate(-27)"/>
        <rect class="cls-12" x="517.17" y="533.63" width="6.76" height="29.18" rx="1.03" ry="1.03" transform="translate(-192.15 296.08) rotate(-27)"/>
      </g>
      <g>
        <rect class="cls-19" x="460.18" y="518.82" width="32.07" height="7.43" rx="1.14" ry="1.14"/>
        <rect class="cls-19" x="522.74" y="518.82" width="32.07" height="7.43" rx="1.14" ry="1.14"/>
        <rect class="cls-19" x="502.51" y="474.01" width="7.43" height="32.07" rx="1.14" ry="1.14"/>
        <rect class="cls-19" x="502.51" y="539.46" width="7.43" height="32.07" rx="1.14" ry="1.14"/>
        <rect class="cls-19" x="512.38" y="496.29" width="32.07" height="7.43" rx="1.14" ry="1.14" transform="translate(-198.79 520.09) rotate(-45)"/>
        <rect class="cls-19" x="524.69" y="528.43" width="7.43" height="32.07" rx="1.14" ry="1.14" transform="translate(-230.23 533.11) rotate(-45)"/>
        <rect class="cls-19" x="481.96" y="485.69" width="7.43" height="32.07" rx="1.14" ry="1.14" transform="translate(-212.52 490.37) rotate(-45)"/>
        <rect class="cls-19" x="469.3" y="541.34" width="32.07" height="7.43" rx="1.14" ry="1.14" transform="translate(-243.26 502.83) rotate(-45)"/>
      </g>
      <g>
        <rect class="cls-1" x="493.05" y="472.38" width="8.17" height="35.24" rx="1.25" ry="1.25" transform="translate(-127.09 177.6) rotate(-18)"/>
        <rect class="cls-1" x="514.29" y="537.76" width="8.17" height="35.24" rx="1.25" ry="1.25" transform="translate(-146.25 187.37) rotate(-18)"/>
        <rect class="cls-1" x="523.65" y="506.25" width="35.24" height="8.17" rx="1.25" ry="1.25" transform="translate(-131.21 192.24) rotate(-18)"/>
        <rect class="cls-1" x="455.24" y="528.47" width="35.24" height="8.17" rx="1.25" ry="1.25" transform="translate(-141.42 172.19) rotate(-18)"/>
        <rect class="cls-1" x="534.31" y="519.27" width="8.17" height="35.24" rx="1.25" ry="1.25" transform="translate(-184.41 772.86) rotate(-63)"/>
        <rect class="cls-1" x="474.31" y="547.91" width="35.24" height="8.17" rx="1.25" ry="1.25" transform="translate(-223.23 739.71) rotate(-63)"/>
        <rect class="cls-1" x="504.46" y="488.73" width="35.24" height="8.17" rx="1.25" ry="1.25" transform="translate(-154.04 734.26) rotate(-63)"/>
        <rect class="cls-1" x="472.6" y="489.55" width="8.17" height="35.24" rx="1.25" ry="1.25" transform="translate(-191.62 701.65) rotate(-63)"/>
      </g>
      <g>
        <rect class="cls-21" x="518.87" y="496.32" width="38.73" height="8.98" rx="1.37" ry="1.37" transform="translate(-191.57 412.01) rotate(-36)"/>
        <rect class="cls-21" x="457.75" y="540.72" width="38.73" height="8.98" rx="1.37" ry="1.37" transform="translate(-229.35 384.57) rotate(-36)"/>
        <rect class="cls-21" x="527.48" y="534.48" width="8.98" height="38.73" rx="1.37" ry="1.37" transform="translate(-223.94 418.46) rotate(-36)"/>
        <rect class="cls-21" x="481.03" y="470.53" width="8.98" height="38.73" rx="1.37" ry="1.37" transform="translate(-195.23 378.94) rotate(-36)"/>
        <rect class="cls-21" x="483.87" y="555.37" width="38.73" height="8.98" rx="1.37" ry="1.37" transform="translate(-128.46 969.31) rotate(-81)"/>
        <rect class="cls-21" x="467.18" y="497.06" width="8.98" height="38.73" rx="1.37" ry="1.37" transform="translate(-112.18 901.5) rotate(-81)"/>
        <rect class="cls-21" x="539.28" y="508.48" width="8.98" height="38.73" rx="1.37" ry="1.37" transform="translate(-62.64 982.34) rotate(-81)"/>
        <rect class="cls-21" x="493.98" y="480.78" width="38.73" height="8.98" rx="1.37" ry="1.37" transform="translate(-46.26 916.38) rotate(-81)"/>
      </g>
      <g>
        <rect class="cls-10" x="535.96" y="526.15" width="9.86" height="42.56" rx="1.51" ry="1.51" transform="translate(-219.92 663.25) rotate(-54)"/>
        <rect class="cls-10" x="468.8" y="477.35" width="9.86" height="42.56" rx="1.51" ry="1.51" transform="translate(-208.12 588.8) rotate(-54)"/>
        <rect class="cls-10" x="462.06" y="553.97" width="42.56" height="9.86" rx="1.51" ry="1.51" transform="translate(-252.92 621.42) rotate(-54)"/>
        <rect class="cls-10" x="513.11" y="483.7" width="42.56" height="9.86" rx="1.51" ry="1.51" transform="translate(-175.03 633.75) rotate(-54)"/>
        <rect class="cls-10" x="446.01" y="525.97" width="42.56" height="9.86" rx="1.51" ry="1.51" transform="translate(-77.3 79.64) rotate(-9)"/>
        <rect class="cls-10" x="497.04" y="461.89" width="9.86" height="42.56" rx="1.51" ry="1.51" transform="translate(-69.4 84.47) rotate(-9)"/>
        <rect class="cls-10" x="509.59" y="541.11" width="9.86" height="42.56" rx="1.51" ry="1.51" transform="translate(-81.64 87.41) rotate(-9)"/>
        <rect class="cls-10" x="527.4" y="511.21" width="42.56" height="9.86" rx="1.51" ry="1.51" transform="translate(-73.99 92.19) rotate(-9)"/>
      </g>
      <g>
        <rect class="cls-25" x="469.69" y="560.63" width="46.77" height="10.84" rx="1.66" ry="1.66" transform="translate(-197.64 860.07) rotate(-72)"/>
        <rect class="cls-25" x="497.88" y="473.86" width="46.77" height="10.84" rx="1.66" ry="1.66" transform="translate(-95.64 826.93) rotate(-72)"/>
        <rect class="cls-25" x="456.12" y="486.41" width="10.84" height="46.77" rx="1.66" ry="1.66" transform="translate(-165.92 791.21) rotate(-72)"/>
        <rect class="cls-25" x="546.89" y="515.9" width="10.84" height="46.77" rx="1.66" ry="1.66" transform="translate(-131.25 897.92) rotate(-72)"/>
        <rect class="cls-25" x="479.93" y="460.13" width="10.84" height="46.77" rx="1.66" ry="1.66" transform="translate(-166.61 273.04) rotate(-27)"/>
        <rect class="cls-25" x="523.63" y="498.13" width="46.77" height="10.84" rx="1.66" ry="1.66" transform="translate(-168.99 303.22) rotate(-27)"/>
        <rect class="cls-25" x="445.09" y="538.14" width="46.77" height="10.84" rx="1.66" ry="1.66" transform="translate(-195.71 271.93) rotate(-27)"/>
        <rect class="cls-25" x="522.99" y="540.17" width="10.84" height="46.77" rx="1.66" ry="1.66" transform="translate(-198.25 301.32) rotate(-27)"/>
      </g>
      <g>
        <rect class="cls-3" x="431.68" y="516.43" width="51.39" height="11.91" rx="1.82" ry="1.82"/>
        <rect class="cls-3" x="531.93" y="516.43" width="51.39" height="11.91" rx="1.82" ry="1.82"/>
        <rect class="cls-3" x="499.5" y="444.63" width="11.91" height="51.39" rx="1.82" ry="1.82"/>
        <rect class="cls-3" x="499.5" y="549.52" width="11.91" height="51.39" rx="1.82" ry="1.82"/>
        <rect class="cls-3" x="515.31" y="480.34" width="51.39" height="11.91" rx="1.82" ry="1.82" transform="translate(-185.4 524.98) rotate(-45)"/>
        <rect class="cls-3" x="535.05" y="531.84" width="11.91" height="51.39" rx="1.82" ry="1.82" transform="translate(-235.78 545.85) rotate(-45)"/>
        <rect class="cls-3" x="466.57" y="463.35" width="11.91" height="51.39" rx="1.82" ry="1.82" transform="translate(-207.41 477.36) rotate(-45)"/>
        <rect class="cls-3" x="446.28" y="552.52" width="51.39" height="11.91" rx="1.82" ry="1.82" transform="translate(-256.66 497.31) rotate(-45)"/>
      </g>
      <g>
        <rect class="cls-24" x="484.34" y="442.02" width="13.09" height="56.48" rx="2" ry="2" transform="translate(-121.29 174.71) rotate(-18)"/>
        <rect class="cls-24" x="518.38" y="546.79" width="13.09" height="56.48" rx="2" ry="2" transform="translate(-152 190.35) rotate(-18)"/>
        <rect class="cls-24" x="533.38" y="496.29" width="56.48" height="13.09" rx="2" ry="2" transform="translate(-127.9 198.16) rotate(-18)"/>
        <rect class="cls-24" x="423.76" y="531.9" width="56.48" height="13.09" rx="2" ry="2" transform="translate(-144.27 166.03) rotate(-18)"/>
        <rect class="cls-24" x="550.46" y="517.17" width="13.09" height="56.48" rx="2" ry="2" transform="translate(-181.83 794.09) rotate(-63)"/>
        <rect class="cls-24" x="454.31" y="563.05" width="56.48" height="13.09" rx="2" ry="2" transform="translate(-244.04 740.96) rotate(-63)"/>
        <rect class="cls-24" x="502.63" y="468.22" width="56.48" height="13.09" rx="2" ry="2" transform="translate(-133.16 732.23) rotate(-63)"/>
        <rect class="cls-24" x="451.58" y="469.54" width="13.09" height="56.48" rx="2" ry="2" transform="translate(-193.38 679.98) rotate(-63)"/>
      </g>
      <g>
        <rect class="cls-23" x="525.71" y="480.38" width="62.06" height="14.38" rx="2.2" ry="2.2" transform="translate(-180.26 420.36) rotate(-36)"/>
        <rect class="cls-23" x="427.77" y="551.54" width="62.06" height="14.38" rx="2.2" ry="2.2" transform="translate(-240.79 376.39) rotate(-36)"/>
        <rect class="cls-23" x="539.52" y="541.53" width="14.38" height="62.06" rx="2.2" ry="2.2" transform="translate(-232.13 430.7) rotate(-36)"/>
        <rect class="cls-23" x="465.08" y="439.06" width="14.38" height="62.06" rx="2.2" ry="2.2" transform="translate(-186.12 367.37) rotate(-36)"/>
        <rect class="cls-23" x="469.63" y="575.01" width="62.06" height="14.38" rx="2.2" ry="2.2" transform="translate(-152.69 985.62) rotate(-81)"/>
        <rect class="cls-23" x="442.9" y="481.56" width="14.38" height="62.06" rx="2.2" ry="2.2" transform="translate(-126.61 876.95) rotate(-81)"/>
        <rect class="cls-23" x="558.42" y="499.86" width="14.38" height="62.06" rx="2.2" ry="2.2" transform="translate(-47.23 1006.49) rotate(-81)"/>
        <rect class="cls-23" x="485.83" y="455.49" width="62.06" height="14.38" rx="2.2" ry="2.2" transform="translate(-20.98 900.8) rotate(-81)"/>
      </g>
      <g>
        <rect class="cls-15" x="553.11" y="528.18" width="15.81" height="68.2" rx="2.41" ry="2.41" transform="translate(-223.64 685.65) rotate(-54)"/>
        <rect class="cls-15" x="445.48" y="449.99" width="15.81" height="68.2" rx="2.41" ry="2.41" transform="translate(-204.74 566.35) rotate(-54)"/>
        <rect class="cls-15" x="434.69" y="572.76" width="68.2" height="15.81" rx="2.41" ry="2.41" transform="translate(-276.53 618.61) rotate(-54)"/>
        <rect class="cls-15" x="516.49" y="460.16" width="68.2" height="15.81" rx="2.41" ry="2.41" transform="translate(-151.71 638.38) rotate(-54)"/>
        <rect class="cls-15" x="408.97" y="527.9" width="68.2" height="15.81" rx="2.41" ry="2.41" transform="translate(-78.36 75.91) rotate(-9)"/>
        <rect class="cls-15" x="490.74" y="425.21" width="15.81" height="68.2" rx="2.41" ry="2.41" transform="translate(-65.71 83.66) rotate(-9)"/>
        <rect class="cls-15" x="510.84" y="552.16" width="15.81" height="68.2" rx="2.41" ry="2.41" transform="translate(-85.33 88.37) rotate(-9)"/>
        <rect class="cls-15" x="539.38" y="504.24" width="68.2" height="15.81" rx="2.41" ry="2.41" transform="translate(-73.06 96.02) rotate(-9)"/>
      </g>
      <g>
        <rect class="cls-29" x="446.9" y="583.43" width="74.95" height="17.37" rx="2.65" ry="2.65" transform="translate(-228.44 869.81) rotate(-72)"/>
        <rect class="cls-29" x="492.08" y="444.4" width="74.95" height="17.37" rx="2.65" ry="2.65" transform="translate(-64.99 816.71) rotate(-72)"/>
        <rect class="cls-29" x="425.17" y="464.5" width="17.37" height="74.95" rx="2.65" ry="2.65" transform="translate(-177.62 759.47) rotate(-72)"/>
        <rect class="cls-29" x="570.63" y="511.76" width="17.37" height="74.95" rx="2.65" ry="2.65" transform="translate(-122.06 930.47) rotate(-72)"/>
        <rect class="cls-29" x="463.32" y="422.39" width="17.37" height="74.95" rx="2.65" ry="2.65" transform="translate(-157.33 264.41) rotate(-27)"/>
        <rect class="cls-29" x="533.34" y="483.28" width="74.95" height="17.37" rx="2.65" ry="2.65" transform="translate(-161.13 312.76) rotate(-27)"/>
        <rect class="cls-29" x="407.49" y="547.4" width="74.95" height="17.37" rx="2.65" ry="2.65" transform="translate(-203.96 262.62) rotate(-27)"/>
        <rect class="cls-29" x="532.33" y="550.65" width="17.37" height="74.95" rx="2.65" ry="2.65" transform="translate(-208.04 309.72) rotate(-27)"/>
      </g>
      <g>
        <rect class="cls-13" x="386" y="512.61" width="82.36" height="19.09" rx="2.92" ry="2.92"/>
        <rect class="cls-13" x="546.65" y="512.61" width="82.36" height="19.09" rx="2.92" ry="2.92"/>
        <rect class="cls-13" x="494.69" y="397.56" width="19.09" height="82.36" rx="2.92" ry="2.92"/>
        <rect class="cls-13" x="494.69" y="565.63" width="19.09" height="82.36" rx="2.92" ry="2.92"/>
        <rect class="cls-13" x="520.02" y="454.77" width="82.36" height="19.09" rx="2.92" ry="2.92" transform="translate(-163.95 532.82) rotate(-45)"/>
        <rect class="cls-13" x="551.65" y="537.3" width="19.09" height="82.36" rx="2.92" ry="2.92" transform="translate(-244.68 566.26) rotate(-45)"/>
        <rect class="cls-13" x="441.9" y="427.55" width="19.09" height="82.36" rx="2.92" ry="2.92" transform="translate(-199.22 456.51) rotate(-45)"/>
        <rect class="cls-13" x="409.4" y="570.44" width="82.36" height="19.09" rx="2.92" ry="2.92" transform="translate(-278.14 488.48) rotate(-45)"/>
      </g>
      <g>
        <rect class="cls-16" x="470.38" y="393.36" width="20.97" height="90.5" rx="3.2" ry="3.2" transform="translate(-112 170.06) rotate(-18)"/>
        <rect class="cls-16" x="524.94" y="561.26" width="20.97" height="90.5" rx="3.2" ry="3.2" transform="translate(-161.22 195.14) rotate(-18)"/>
        <rect class="cls-16" x="548.97" y="480.33" width="90.5" height="20.97" rx="3.2" ry="3.2" transform="translate(-122.59 207.65) rotate(-18)"/>
        <rect class="cls-16" x="373.31" y="537.41" width="90.5" height="20.97" rx="3.2" ry="3.2" transform="translate(-148.82 156.16) rotate(-18)"/>
        <rect class="cls-16" x="576.35" y="513.79" width="20.97" height="90.5" rx="3.2" ry="3.2" transform="translate(-177.69 828.12) rotate(-63)"/>
        <rect class="cls-16" x="422.26" y="587.32" width="90.5" height="20.97" rx="3.2" ry="3.2" transform="translate(-277.39 742.97) rotate(-63)"/>
        <rect class="cls-16" x="499.7" y="435.35" width="90.5" height="20.97" rx="3.2" ry="3.2" transform="translate(-99.7 728.98) rotate(-63)"/>
        <rect class="cls-16" x="417.89" y="437.46" width="20.97" height="90.5" rx="3.2" ry="3.2" transform="translate(-196.2 645.25) rotate(-63)"/>
      </g>
      <g>
        <rect class="cls-8" x="536.69" y="454.84" width="99.45" height="23.05" rx="3.52" ry="3.52" transform="translate(-162.13 433.75) rotate(-36)"/>
        <rect class="cls-8" x="379.74" y="568.87" width="99.45" height="23.05" rx="3.52" ry="3.52" transform="translate(-259.13 363.28) rotate(-36)"/>
        <rect class="cls-8" x="558.82" y="552.83" width="23.05" height="99.45" rx="3.52" ry="3.52" transform="translate(-245.25 450.32) rotate(-36)"/>
        <rect class="cls-8" x="439.52" y="388.63" width="23.05" height="99.45" rx="3.52" ry="3.52" transform="translate(-171.51 348.84) rotate(-36)"/>
        <rect class="cls-8" x="446.81" y="606.48" width="99.45" height="23.05" rx="3.52" ry="3.52" transform="translate(-191.53 1011.75) rotate(-81)"/>
        <rect class="cls-8" x="403.97" y="456.74" width="23.05" height="99.45" rx="3.52" ry="3.52" transform="translate(-149.73 837.62) rotate(-81)"/>
        <rect class="cls-8" x="589.1" y="486.06" width="23.05" height="99.45" rx="3.52" ry="3.52" transform="translate(-22.52 1045.2) rotate(-81)"/>
        <rect class="cls-8" x="472.77" y="414.95" width="99.45" height="23.05" rx="3.52" ry="3.52" transform="translate(19.54 875.82) rotate(-81)"/>
      </g>
      <g>
        <rect class="cls-31" x="580.59" y="531.45" width="25.33" height="109.29" rx="3.87" ry="3.87" transform="translate(-229.61 721.55) rotate(-54)"/>
        <rect class="cls-31" x="408.12" y="406.14" width="25.33" height="109.29" rx="3.87" ry="3.87" transform="translate(-199.33 530.36) rotate(-54)"/>
        <rect class="cls-31" x="390.82" y="602.88" width="109.29" height="25.33" rx="3.87" ry="3.87" transform="translate(-314.36 614.12) rotate(-54)"/>
        <rect class="cls-31" x="521.91" y="422.44" width="109.29" height="25.33" rx="3.87" ry="3.87" transform="translate(-114.34 645.8) rotate(-54)"/>
        <rect class="cls-31" x="349.61" y="530.99" width="109.29" height="25.33" rx="3.87" ry="3.87" transform="translate(-80.07 69.93) rotate(-9)"/>
        <rect class="cls-31" x="480.64" y="366.44" width="25.33" height="109.29" rx="3.87" ry="3.87" transform="translate(-59.8 82.35) rotate(-9)"/>
        <rect class="cls-31" x="512.86" y="569.87" width="25.33" height="109.29" rx="3.87" ry="3.87" transform="translate(-91.23 89.9) rotate(-9)"/>
        <rect class="cls-31" x="558.59" y="493.08" width="109.29" height="25.33" rx="3.87" ry="3.87" transform="translate(-71.57 102.16) rotate(-9)"/>
      </g>
      <g>
        <rect class="cls-14" x="410.4" y="619.98" width="120.1" height="27.83" rx="4.25" ry="4.25" transform="translate(-277.8 885.43) rotate(-72)"/>
        <rect class="cls-14" x="482.79" y="397.18" width="120.1" height="27.83" rx="4.25" ry="4.25" transform="translate(-15.88 800.33) rotate(-72)"/>
        <rect class="cls-14" x="375.56" y="429.39" width="27.83" height="120.1" rx="4.25" ry="4.25" transform="translate(-196.36 708.61) rotate(-72)"/>
        <rect class="cls-14" x="608.66" y="505.13" width="27.83" height="120.1" rx="4.25" ry="4.25" transform="translate(-107.33 982.63) rotate(-72)"/>
        <rect class="cls-14" x="436.7" y="361.91" width="27.83" height="120.1" rx="4.25" ry="4.25" transform="translate(-142.45 250.57) rotate(-27)"/>
        <rect class="cls-14" x="548.91" y="459.49" width="120.1" height="27.83" rx="4.25" ry="4.25" transform="translate(-148.55 328.06) rotate(-27)"/>
        <rect class="cls-14" x="347.24" y="562.24" width="120.1" height="27.83" rx="4.25" ry="4.25" transform="translate(-217.18 247.7) rotate(-27)"/>
        <rect class="cls-14" x="547.28" y="567.45" width="27.83" height="120.1" rx="4.25" ry="4.25" transform="translate(-223.71 323.17) rotate(-27)"/>
      </g>
      <g>
        <rect class="cls-9" x="312.79" y="506.49" width="131.98" height="30.59" rx="4.67" ry="4.67"/>
        <rect class="cls-9" x="570.23" y="506.49" width="131.98" height="30.59" rx="4.67" ry="4.67"/>
        <rect class="cls-9" x="486.97" y="322.12" width="30.59" height="131.98" rx="4.67" ry="4.67"/>
        <rect class="cls-9" x="486.97" y="591.45" width="30.59" height="131.98" rx="4.67" ry="4.67"/>
        <rect class="cls-9" x="527.56" y="413.8" width="131.98" height="30.59" rx="4.67" ry="4.67" transform="translate(-129.56 545.38) rotate(-45)"/>
        <rect class="cls-9" x="578.26" y="546.05" width="30.59" height="131.98" rx="4.67" ry="4.67" transform="translate(-258.93 598.97) rotate(-45)"/>
        <rect class="cls-9" x="402.38" y="370.18" width="30.59" height="131.98" rx="4.67" ry="4.67" transform="translate(-186.08 423.09) rotate(-45)"/>
        <rect class="cls-9" x="350.3" y="599.17" width="131.98" height="30.59" rx="4.67" ry="4.67" transform="translate(-312.56 474.33) rotate(-45)"/>
      </g>
      <g>
        <rect class="cls-22" x="448.02" y="315.39" width="33.61" height="145.03" rx="5.14" ry="5.14" transform="translate(-97.12 162.62) rotate(-18)"/>
        <rect class="cls-22" x="535.44" y="584.45" width="33.61" height="145.03" rx="5.14" ry="5.14" transform="translate(-175.98 202.81) rotate(-18)"/>
        <rect class="cls-22" x="573.95" y="454.76" width="145.03" height="33.61" rx="5.14" ry="5.14" transform="translate(-114.08 222.85) rotate(-18)"/>
        <rect class="cls-22" x="292.46" y="546.22" width="145.03" height="33.61" rx="5.14" ry="5.14" transform="translate(-156.12 140.34) rotate(-18)"/>
        <rect class="cls-22" x="617.83" y="508.38" width="33.61" height="145.03" rx="5.14" ry="5.14" transform="translate(-171.06 882.63) rotate(-63)"/>
        <rect class="cls-22" x="370.91" y="626.21" width="145.03" height="33.61" rx="5.14" ry="5.14" transform="translate(-330.82 746.19) rotate(-63)"/>
        <rect class="cls-22" x="494.99" y="382.68" width="145.03" height="33.61" rx="5.14" ry="5.14" transform="translate(-46.08 723.78) rotate(-63)"/>
        <rect class="cls-22" x="363.9" y="386.07" width="33.61" height="145.03" rx="5.14" ry="5.14" transform="translate(-200.73 589.6) rotate(-63)"/>
      </g>
      <g>
        <rect class="cls-4" x="554.27" y="413.91" width="159.37" height="36.94" rx="5.64" ry="5.64" transform="translate(-133.07 455.21) rotate(-36)"/>
        <rect class="cls-4" x="302.76" y="596.64" width="159.37" height="36.94" rx="5.64" ry="5.64" transform="translate(-288.51 342.27) rotate(-36)"/>
        <rect class="cls-4" x="589.74" y="570.93" width="36.94" height="159.37" rx="5.64" ry="5.64" transform="translate(-266.27 481.75) rotate(-36)"/>
        <rect class="cls-4" x="398.56" y="307.8" width="36.94" height="159.37" rx="5.64" ry="5.64" transform="translate(-148.11 319.13) rotate(-36)"/>
        <rect class="cls-4" x="410.24" y="656.91" width="159.37" height="36.94" rx="5.64" ry="5.64" transform="translate(-253.77 1053.62) rotate(-81)"/>
        <rect class="cls-4" x="341.6" y="416.95" width="36.94" height="159.37" rx="5.64" ry="5.64" transform="translate(-186.78 774.58) rotate(-81)"/>
        <rect class="cls-4" x="638.26" y="463.94" width="36.94" height="159.37" rx="5.64" ry="5.64" transform="translate(17.06 1107.22) rotate(-81)"/>
        <rect class="cls-4" x="451.85" y="349.99" width="159.37" height="36.94" rx="5.64" ry="5.64" transform="translate(84.46 835.81) rotate(-81)"/>
      </g>
      <g>
        <rect class="cls-2" x="624.62" y="536.67" width="40.59" height="175.14" rx="6.2" ry="6.2" transform="translate(-239.17 779.07) rotate(-54)"/>
        <rect class="cls-2" x="348.24" y="335.87" width="40.59" height="175.14" rx="6.2" ry="6.2" transform="translate(-190.65 472.7) rotate(-54)"/>
        <rect class="cls-2" x="320.52" y="651.14" width="175.14" height="40.59" rx="6.2" ry="6.2" transform="translate(-374.98 606.92) rotate(-54)"/>
        <rect class="cls-2" x="530.6" y="361.99" width="175.14" height="40.59" rx="6.2" ry="6.2" transform="translate(-54.46 657.69) rotate(-54)"/>
        <rect class="cls-2" x="254.48" y="535.94" width="175.14" height="40.59" rx="6.2" ry="6.2" transform="translate(-82.8 60.36) rotate(-9)"/>
        <rect class="cls-2" x="464.45" y="272.25" width="40.59" height="175.14" rx="6.2" ry="6.2" transform="translate(-50.32 80.26) rotate(-9)"/>
        <rect class="cls-2" x="516.09" y="598.24" width="40.59" height="175.14" rx="6.2" ry="6.2" transform="translate(-100.68 92.35) rotate(-9)"/>
        <rect class="cls-2" x="589.37" y="475.19" width="175.14" height="40.59" rx="6.2" ry="6.2" transform="translate(-69.18 112) rotate(-9)"/>
      </g>
      <g>
        <rect class="cls-18" x="351.89" y="678.54" width="192.46" height="44.6" rx="6.81" ry="6.81" transform="translate(-356.9 910.46) rotate(-72)"/>
        <rect class="cls-18" x="467.9" y="321.5" width="192.46" height="44.6" rx="6.81" ry="6.81" transform="translate(62.82 774.08) rotate(-72)"/>
        <rect class="cls-18" x="296.07" y="373.13" width="44.6" height="192.46" rx="6.81" ry="6.81" transform="translate(-226.39 627.1) rotate(-72)"/>
        <rect class="cls-18" x="669.61" y="494.5" width="44.6" height="192.46" rx="6.81" ry="6.81" transform="translate(-83.72 1066.22) rotate(-72)"/>
        <rect class="cls-18" x="394.05" y="264.99" width="44.6" height="192.46" rx="6.81" ry="6.81" transform="translate(-118.61 228.39) rotate(-27)"/>
        <rect class="cls-18" x="573.86" y="421.36" width="192.46" height="44.6" rx="6.81" ry="6.81" transform="translate(-128.38 352.57) rotate(-27)"/>
        <rect class="cls-18" x="250.69" y="586.02" width="192.46" height="44.6" rx="6.81" ry="6.81" transform="translate(-238.36 223.8) rotate(-27)"/>
        <rect class="cls-18" x="571.25" y="594.36" width="44.6" height="192.46" rx="6.81" ry="6.81" transform="translate(-248.83 344.74) rotate(-27)"/>
      </g>
      <g>
        <rect class="cls-5" x="195.48" y="496.68" width="211.49" height="49.01" rx="7.49" ry="7.49"/>
        <rect class="cls-5" x="608.03" y="496.68" width="211.49" height="49.01" rx="7.49" ry="7.49"/>
        <rect class="cls-5" x="474.6" y="201.23" width="49.01" height="211.49" rx="7.49" ry="7.49"/>
        <rect class="cls-5" x="474.6" y="632.83" width="49.01" height="211.49" rx="7.49" ry="7.49"/>
        <rect class="cls-5" x="539.65" y="348.14" width="211.49" height="49.01" rx="7.49" ry="7.49" transform="translate(-74.47 565.51) rotate(-45)"/>
        <rect class="cls-5" x="620.89" y="560.08" width="49.01" height="211.49" rx="7.49" ry="7.49" transform="translate(-281.78 651.38) rotate(-45)"/>
        <rect class="cls-5" x="339.05" y="278.25" width="49.01" height="211.49" rx="7.49" ry="7.49" transform="translate(-165.04 369.54) rotate(-45)"/>
        <rect class="cls-5" x="255.59" y="645.19" width="211.49" height="49.01" rx="7.49" ry="7.49" transform="translate(-367.72 451.65) rotate(-45)"/>
      </g>
      <g>
        <rect class="cls-30" x="412.18" y="190.45" width="53.86" height="232.41" rx="8.23" ry="8.23" transform="translate(-73.27 150.7) rotate(-18)"/>
        <rect class="cls-30" x="552.27" y="621.61" width="53.86" height="232.41" rx="8.23" ry="8.23" transform="translate(-199.65 215.1) rotate(-18)"/>
        <rect class="cls-30" x="613.98" y="413.78" width="232.41" height="53.86" rx="8.23" ry="8.23" transform="translate(-100.45 247.21) rotate(-18)"/>
        <rect class="cls-30" x="162.91" y="560.35" width="232.41" height="53.86" rx="8.23" ry="8.23" transform="translate(-167.82 114.99) rotate(-18)"/>
        <rect class="cls-30" x="684.3" y="499.71" width="53.86" height="232.41" rx="8.23" ry="8.23" transform="translate(-160.44 970) rotate(-63)"/>
        <rect class="cls-30" x="288.61" y="688.54" width="232.41" height="53.86" rx="8.23" ry="8.23" transform="translate(-416.45 751.35) rotate(-63)"/>
        <rect class="cls-30" x="487.46" y="298.28" width="232.41" height="53.86" rx="8.23" ry="8.23" transform="translate(39.84 715.44) rotate(-63)"/>
        <rect class="cls-30" x="277.38" y="303.7" width="53.86" height="232.41" rx="8.23" ry="8.23" transform="translate(-207.98 500.42) rotate(-63)"/>
      </g>
      <g>
        <rect class="cls-20" x="582.45" y="348.32" width="255.39" height="59.19" rx="9.04" ry="9.04" transform="translate(-86.51 489.59) rotate(-36)"/>
        <rect class="cls-20" x="179.41" y="641.14" width="255.39" height="59.19" rx="9.04" ry="9.04" transform="translate(-335.6 308.61) rotate(-36)"/>
        <rect class="cls-20" x="639.28" y="599.95" width="59.19" height="255.39" rx="9.04" ry="9.04" transform="translate(-299.95 532.12) rotate(-36)"/>
        <rect class="cls-20" x="332.93" y="178.29" width="59.19" height="255.39" rx="9.04" ry="9.04" transform="translate(-110.62 271.53) rotate(-36)"/>
        <rect class="cls-20" x="351.65" y="737.72" width="255.39" height="59.19" rx="9.04" ry="9.04" transform="translate(-353.51 1120.72) rotate(-81)"/>
        <rect class="cls-20" x="241.65" y="353.2" width="59.19" height="255.39" rx="9.04" ry="9.04" transform="translate(-246.16 673.57) rotate(-81)"/>
        <rect class="cls-20" x="717.04" y="428.49" width="59.19" height="255.39" rx="9.04" ry="9.04" transform="translate(80.49 1206.62) rotate(-81)"/>
        <rect class="cls-20" x="418.31" y="245.89" width="255.39" height="59.19" rx="9.04" ry="9.04" transform="translate(188.5 771.68) rotate(-81)"/>
      </g>
      <g>
        <rect class="cls-28" x="695.19" y="545.04" width="65.04" height="280.65" rx="9.94" ry="9.94" transform="translate(-254.5 871.25) rotate(-54)"/>
        <rect class="cls-28" x="252.29" y="223.26" width="65.04" height="280.65" rx="9.94" ry="9.94" transform="translate(-176.74 380.29) rotate(-54)"/>
        <rect class="cls-28" x="207.86" y="728.48" width="280.65" height="65.04" rx="9.94" ry="9.94" transform="translate(-472.13 595.39) rotate(-54)"/>
        <rect class="cls-28" x="544.51" y="265.12" width="280.65" height="65.04" rx="9.94" ry="9.94" transform="translate(41.5 676.74) rotate(-54)"/>
        <rect class="cls-28" x="102.03" y="543.87" width="280.65" height="65.04" rx="9.94" ry="9.94" transform="translate(-87.18 45.01) rotate(-9)"/>
        <rect class="cls-28" x="438.52" y="121.31" width="65.04" height="280.65" rx="9.94" ry="9.94" transform="translate(-35.13 76.91) rotate(-9)"/>
        <rect class="cls-28" x="521.26" y="643.71" width="65.04" height="280.65" rx="9.94" ry="9.94" transform="translate(-115.83 96.28) rotate(-9)"/>
        <rect class="cls-28" x="638.7" y="446.52" width="280.65" height="65.04" rx="9.94" ry="9.94" transform="translate(-65.35 127.76) rotate(-9)"/>
      </g>
      <g>
        <rect class="cls-6" x="258.14" y="772.39" width="308.41" height="71.48" rx="10.92" ry="10.92" transform="translate(-483.65 950.57) rotate(-72)"/>
        <rect class="cls-6" x="444.04" y="200.24" width="308.41" height="71.48" rx="10.92" ry="10.92" transform="translate(188.95 732.03) rotate(-72)"/>
        <rect class="cls-6" x="168.69" y="282.97" width="71.48" height="308.41" rx="10.92" ry="10.92" transform="translate(-274.52 496.5) rotate(-72)"/>
        <rect class="cls-6" x="767.27" y="477.46" width="71.48" height="308.41" rx="10.92" ry="10.92" transform="translate(-45.88 1200.18) rotate(-72)"/>
        <rect class="cls-6" x="325.69" y="109.67" width="71.48" height="308.41" rx="10.92" ry="10.92" transform="translate(-80.4 192.85) rotate(-27)"/>
        <rect class="cls-6" x="613.84" y="360.25" width="308.41" height="71.48" rx="10.92" ry="10.92" transform="translate(-96.07 391.84) rotate(-27)"/>
        <rect class="cls-6" x="95.96" y="624.13" width="308.41" height="71.48" rx="10.92" ry="10.92" transform="translate(-272.31 185.49) rotate(-27)"/>
        <rect class="cls-6" x="609.66" y="637.49" width="71.48" height="308.41" rx="10.92" ry="10.92" transform="translate(-289.08 379.3) rotate(-27)"/>
      </g>
      <g>
        <rect class="cls-11" x="7.5" y="480.95" width="338.91" height="78.55" rx="12" ry="12"/>
        <rect class="cls-11" x="668.59" y="480.95" width="338.91" height="78.55" rx="12" ry="12"/>
        <rect class="cls-11" x="454.77" y="7.5" width="78.55" height="338.91" rx="12" ry="12"/>
        <rect class="cls-11" x="454.77" y="699.14" width="78.55" height="338.91" rx="12" ry="12"/>
        <rect class="cls-11" x="559.02" y="242.92" width="338.91" height="78.55" rx="12" ry="12" transform="translate(13.82 597.76) rotate(-45)"/>
        <rect class="cls-11" x="689.2" y="582.56" width="78.55" height="338.91" rx="12" ry="12" transform="translate(-318.39 735.37) rotate(-45)"/>
        <rect class="cls-11" x="237.56" y="130.92" width="78.55" height="338.91" rx="12" ry="12" transform="translate(-131.32 283.73) rotate(-45)"/>
        <rect class="cls-11" x="103.82" y="718.95" width="338.91" height="78.55" rx="12" ry="12" transform="translate(-456.1 415.31) rotate(-45)"/>
      </g>
    </g>
  </g>
</svg>