<?xml version="1.0" encoding="UTF-8"?>
<svg id="Layer_2" xmlns="http://www.w3.org/2000/svg" viewBox="0 0 1026.69 466.06">
  <defs>
    <style>
      .cls-1 {
        stroke-dasharray: 0 4.31;
        stroke-width: 1.29px;
      }

      .cls-1, .cls-2, .cls-3, .cls-4, .cls-5, .cls-6, .cls-7, .cls-8, .cls-9, .cls-10, .cls-11, .cls-12, .cls-13, .cls-14, .cls-15, .cls-16, .cls-17, .cls-18, .cls-19, .cls-20, .cls-21, .cls-22, .cls-23, .cls-24, .cls-25, .cls-26, .cls-27, .cls-28, .cls-29, .cls-30, .cls-31 {
        fill: none;
        stroke: #87b4db;
        stroke-linecap: round;
        stroke-linejoin: round;
      }

      .cls-2 {
        stroke-dasharray: 0 13.35;
        stroke-width: 4.01px;
      }

      .cls-3 {
        stroke-dasharray: 0 5.2;
        stroke-width: 1.56px;
      }

      .cls-4 {
        stroke-dasharray: 0 41.4;
        stroke-width: 12.42px;
      }

      .cls-5 {
        stroke-dasharray: 0 6.9;
        stroke-width: 2.07px;
      }

      .cls-6 {
        stroke-dasharray: 0 6.28;
        stroke-width: 1.88px;
      }

      .cls-7 {
        stroke-dasharray: 0 7.58;
        stroke-width: 2.27px;
      }

      .cls-8 {
        stroke-dasharray: 0 3.92;
        stroke-width: 1.18px;
      }

      .cls-9 {
        stroke-dasharray: 0 19.47;
        stroke-width: 5.84px;
      }

      .cls-10 {
        stroke-dasharray: 0 31.2;
        stroke-width: 9.36px;
      }

      .cls-11 {
        stroke-dasharray: 0 21.4;
        stroke-width: 6.42px;
      }

      .cls-12 {
        stroke-dasharray: 0 17.72;
        stroke-width: 5.32px;
      }

      .cls-13 {
        stroke-dasharray: 0 34.29;
        stroke-width: 10.29px;
      }

      .cls-14 {
        stroke-dasharray: 0 4.73;
        stroke-width: 1.42px;
      }

      .cls-15 {
        stroke-dasharray: 0 14.67;
        stroke-width: 4.4px;
      }

      .cls-16 {
        stroke-dasharray: 0 3.57;
        stroke-width: 1.07px;
      }

      .cls-17 {
        stroke-dasharray: 0 50;
        stroke-width: 15px;
      }

      .cls-18 {
        stroke-dasharray: 0 3.24;
        stroke-width: .97px;
      }

      .cls-19 {
        stroke-dasharray: 0 37.68;
        stroke-width: 11.3px;
      }

      .cls-20 {
        stroke-dasharray: 0 8.33;
        stroke-width: 2.5px;
      }

      .cls-21 {
        stroke-dasharray: 0 16.12;
        stroke-width: 4.84px;
      }

      .cls-22 {
        stroke-dasharray: 0 10.06;
        stroke-width: 3.02px;
      }

      .cls-23 {
        stroke-dasharray: 0 28.39;
        stroke-width: 8.52px;
      }

      .cls-24 {
        stroke-dasharray: 0 11.06;
        stroke-width: 3.32px;
      }

      .cls-25 {
        stroke-dasharray: 0 25.84;
        stroke-width: 7.75px;
      }

      .cls-26 {
        stroke-dasharray: 0 45.5;
        stroke-width: 13.65px;
      }

      .cls-27 {
        stroke-dasharray: 0 23.51;
        stroke-width: 7.05px;
      }

      .cls-28 {
        stroke-dasharray: 0 9.16;
        stroke-width: 2.75px;
      }

      .cls-29 {
        stroke-dasharray: 0 5.71;
        stroke-width: 1.71px;
      }

      .cls-30 {
        stroke-dasharray: 0 12.15;
        stroke-width: 3.65px;
      }

      .cls-31 {
        stroke-dasharray: 0 2.95;
        stroke-width: .89px;
      }

      .cls-32 {
        fill: #87b4db;
      }
    </style>
  </defs>
  <g id="low_bad">
    <g>
      <g>
        <g>
          <polyline class="cls-31" points="515.94 196.52 516.63 214.59 531 222.6 530.5 238.61 545.24 247.26"/>
          <polyline class="cls-31" points="508.39 200.34 509.08 218.42 523.45 226.43 522.95 242.44 537.69 251.08"/>
          <polyline class="cls-31" points="500.45 204.93 501.14 223 515.51 231.01 515 247.02 529.74 255.67"/>
        </g>
        <g>
          <polyline class="cls-18" points="514.41 193.53 515.86 213.35 531.95 221.6 532.01 239.2 548.53 248.13"/>
          <polyline class="cls-18" points="506.26 198.02 507.71 217.84 523.8 226.09 523.86 243.69 540.38 252.62"/>
          <polyline class="cls-18" points="497.71 203.36 499.16 223.18 515.26 231.43 515.32 249.03 531.83 257.96"/>
        </g>
        <g>
          <polyline class="cls-16" points="512.61 190.31 514.96 212.02 532.95 220.46 533.69 239.79 552.17 248.96"/>
          <polyline class="cls-16" points="503.84 195.55 506.19 217.26 524.18 225.71 524.92 245.04 543.4 254.2"/>
          <polyline class="cls-16" points="494.65 201.74 497 223.46 514.99 231.9 515.73 251.23 534.22 260.4"/>
        </g>
        <g>
          <polyline class="cls-8" points="510.51 186.84 513.92 210.59 534.01 219.18 535.56 240.37 556.21 249.74"/>
          <polyline class="cls-8" points="501.08 192.93 504.49 216.69 524.57 225.27 526.13 246.47 546.77 255.83"/>
          <polyline class="cls-8" points="491.23 200.08 494.64 223.84 514.72 232.42 516.28 253.62 536.93 262.98"/>
        </g>
        <g>
          <polyline class="cls-1" points="508.07 183.11 512.73 209.07 535.12 217.72 537.64 240.94 560.67 250.43"/>
          <polyline class="cls-1" points="497.94 190.16 502.6 216.12 524.99 224.77 527.51 248 550.54 257.49"/>
          <polyline class="cls-1" points="487.4 198.4 492.06 224.36 514.45 233.01 516.97 256.23 540 265.72"/>
        </g>
        <g>
          <polyline class="cls-14" points="505.25 179.1 511.36 207.43 536.28 216.08 539.94 241.49 565.6 251.02"/>
          <polyline class="cls-14" points="494.4 187.24 500.51 215.57 525.43 224.22 529.08 249.62 554.75 259.16"/>
          <polyline class="cls-14" points="483.14 196.69 489.25 225.02 514.17 233.66 517.82 259.07 543.49 268.61"/>
        </g>
        <g>
          <polyline class="cls-3" points="502 174.81 509.8 205.69 537.49 214.23 542.48 242 571.03 251.49"/>
          <polyline class="cls-3" points="490.39 184.16 498.19 215.05 525.89 223.58 530.88 251.35 559.43 260.84"/>
          <polyline class="cls-3" points="478.39 194.97 486.19 225.85 513.88 234.39 518.87 262.15 547.42 271.65"/>
        </g>
        <g>
          <polyline class="cls-29" points="498.26 170.23 508.01 203.84 538.76 212.16 545.3 242.46 577.02 251.78"/>
          <polyline class="cls-29" points="485.87 180.94 495.62 214.56 526.37 222.87 532.91 253.17 564.63 262.5"/>
          <polyline class="cls-29" points="473.11 193.27 482.86 226.89 513.6 235.2 520.15 265.5 551.86 274.83"/>
        </g>
        <g>
          <polyline class="cls-6" points="493.98 165.34 505.98 201.88 540.06 209.83 548.41 242.86 583.61 251.88"/>
          <polyline class="cls-6" points="480.79 177.58 492.79 214.12 526.87 222.08 535.22 255.1 570.41 264.13"/>
          <polyline class="cls-6" points="467.24 191.61 479.24 228.15 513.32 236.11 521.67 269.13 556.86 278.16"/>
        </g>
        <g>
          <polyline class="cls-5" points="489.1 160.13 503.67 199.8 541.41 207.23 551.85 243.17 590.84 251.74"/>
          <polyline class="cls-5" points="475.08 174.08 489.65 213.75 527.39 221.18 537.83 257.13 576.82 265.69"/>
          <polyline class="cls-5" points="460.73 190.01 475.31 229.68 513.04 237.11 523.48 273.05 562.48 281.62"/>
        </g>
        <g>
          <polyline class="cls-7" points="483.53 154.59 501.06 197.6 542.79 204.32 555.63 243.39 598.78 251.3"/>
          <polyline class="cls-7" points="468.67 170.45 486.2 213.46 527.92 220.17 540.77 259.25 583.92 267.16"/>
          <polyline class="cls-7" points="453.53 188.5 471.06 231.51 512.78 238.22 525.63 277.3 568.78 285.21"/>
        </g>
        <g>
          <polyline class="cls-20" points="477.2 148.73 498.11 195.29 544.19 201.06 559.79 243.49 607.49 250.52"/>
          <polyline class="cls-20" points="461.49 166.72 482.39 213.28 528.47 219.05 544.08 261.47 591.77 268.51"/>
          <polyline class="cls-20" points="445.55 187.11 466.46 233.68 512.54 239.45 528.14 281.87 575.84 288.9"/>
        </g>
        <g>
          <polyline class="cls-28" points="470.03 142.53 494.77 192.87 545.6 197.44 564.37 243.43 617.02 249.32"/>
          <polyline class="cls-28" points="453.46 162.89 478.21 213.23 529.03 217.8 547.8 263.79 600.45 269.68"/>
          <polyline class="cls-28" points="436.74 185.9 461.49 236.24 512.32 240.81 531.08 286.8 583.73 292.69"/>
        </g>
        <g>
          <polyline class="cls-22" points="461.92 136 491.02 190.33 547.02 193.4 569.39 243.19 627.44 247.65"/>
          <polyline class="cls-22" points="444.5 159 473.61 213.33 529.6 216.4 551.97 266.19 610.02 270.64"/>
          <polyline class="cls-22" points="427.02 184.91 456.13 239.24 512.12 242.31 534.49 292.1 592.54 296.55"/>
        </g>
        <g>
          <polyline class="cls-24" points="452.76 129.14 486.8 187.7 548.42 188.92 574.89 242.74 638.82 245.41"/>
          <polyline class="cls-24" points="434.51 155.06 468.56 213.61 530.17 214.84 556.65 268.66 620.57 271.32"/>
          <polyline class="cls-24" points="416.31 184.19 450.36 242.74 511.97 243.97 538.45 297.79 602.37 300.45"/>
        </g>
        <g>
          <polyline class="cls-30" points="442.43 121.96 482.07 184.96 549.78 183.94 580.92 242.03 651.23 242.51"/>
          <polyline class="cls-30" points="423.39 151.12 463.02 214.12 530.74 213.1 561.88 271.2 632.19 271.67"/>
          <polyline class="cls-30" points="404.52 183.81 444.15 246.81 511.87 245.79 543.01 303.89 613.31 304.36"/>
        </g>
        <g>
          <polyline class="cls-2" points="430.82 114.47 476.76 182.13 551.09 178.42 587.52 241.02 664.75 238.85"/>
          <polyline class="cls-2" points="411.02 147.23 456.97 214.89 531.29 211.18 567.72 273.78 644.95 271.61"/>
          <polyline class="cls-2" points="391.55 183.85 437.49 251.52 511.82 247.8 548.25 310.41 625.48 308.23"/>
        </g>
        <g>
          <polyline class="cls-15" points="417.78 106.68 470.83 179.24 552.32 172.3 594.72 239.66 679.46 234.31"/>
          <polyline class="cls-15" points="397.29 143.42 450.34 215.97 531.83 209.04 574.24 276.4 658.97 271.05"/>
          <polyline class="cls-15" points="377.31 184.39 430.36 256.94 511.85 250.01 554.26 317.37 638.99 312.02"/>
        </g>
        <g>
          <polyline class="cls-21" points="403.15 98.63 464.2 176.28 553.43 165.54 602.58 237.89 695.43 228.77"/>
          <polyline class="cls-21" points="382.07 139.77 443.11 217.41 532.34 206.67 581.5 279.02 674.35 269.9"/>
          <polyline class="cls-21" points="361.69 185.52 422.74 263.17 511.97 252.43 561.12 324.78 653.97 315.66"/>
        </g>
        <g>
          <polyline class="cls-12" points="386.79 90.36 456.81 173.29 554.39 158.07 611.15 235.64 712.77 222.06"/>
          <polyline class="cls-12" points="365.2 136.34 435.23 219.27 532.8 204.05 589.56 281.63 691.19 268.04"/>
          <polyline class="cls-12" points="344.58 187.37 414.61 270.3 512.18 255.09 568.95 332.66 670.57 319.08"/>
        </g>
        <g>
          <polyline class="cls-9" points="368.49 81.89 448.57 170.29 555.15 149.83 620.46 232.85 731.55 214.03"/>
          <polyline class="cls-9" points="346.55 133.22 426.64 221.61 533.22 201.16 598.53 284.17 709.61 265.36"/>
          <polyline class="cls-9" points="325.87 190.06 405.95 278.45 512.53 258 577.84 341.01 688.92 322.2"/>
        </g>
        <g>
          <polyline class="cls-11" points="348.08 73.3 439.42 167.3 555.68 140.75 630.59 229.42 751.87 204.5"/>
          <polyline class="cls-11" points="325.95 130.51 417.29 224.51 533.56 197.96 608.47 286.63 729.74 261.71"/>
          <polyline class="cls-11" points="305.41 193.72 396.75 287.73 513.02 261.18 587.93 349.84 709.2 324.92"/>
        </g>
        <g>
          <polyline class="cls-27" points="325.33 64.65 429.25 164.38 555.91 130.76 641.58 225.27 773.81 193.25"/>
          <polyline class="cls-27" points="303.23 128.32 407.14 228.06 533.81 194.44 619.48 288.94 751.71 256.92"/>
          <polyline class="cls-27" points="283.09 198.53 387.01 298.27 513.67 264.65 599.34 359.16 731.58 327.14"/>
        </g>
        <g>
          <polyline class="cls-25" points="300.01 56.01 417.96 161.56 555.78 119.79 653.49 220.29 797.48 180.05"/>
          <polyline class="cls-25" points="278.18 126.79 396.13 232.34 533.95 190.56 631.66 291.07 775.65 250.83"/>
          <polyline class="cls-25" points="258.76 204.68 376.71 310.22 514.53 268.45 612.24 368.95 756.23 328.71"/>
        </g>
        <g>
          <polyline class="cls-23" points="271.88 47.51 405.46 158.9 555.22 107.73 666.38 214.36 822.97 164.64"/>
          <polyline class="cls-23" points="250.62 126.08 384.2 237.47 533.96 186.3 645.12 292.93 801.71 243.21"/>
          <polyline class="cls-23" points="232.28 212.35 365.86 323.74 515.62 272.58 626.78 379.2 783.37 329.49"/>
        </g>
        <g>
          <polyline class="cls-10" points="240.66 39.24 391.63 156.45 554.14 94.52 680.31 207.35 850.38 146.75"/>
          <polyline class="cls-10" points="220.32 126.34 371.29 243.55 533.8 181.62 659.97 294.45 830.04 233.85"/>
          <polyline class="cls-10" points="203.49 221.8 354.46 339.01 516.97 277.07 643.14 389.91 813.21 329.31"/>
        </g>
        <g>
          <polyline class="cls-13" points="206.05 31.36 376.35 154.29 552.45 80.04 695.34 199.13 879.79 126.05"/>
          <polyline class="cls-13" points="187.05 127.8 357.36 250.73 533.45 176.48 676.34 295.56 860.79 222.49"/>
          <polyline class="cls-13" points="172.23 233.28 342.53 356.21 518.62 281.96 661.52 401.04 845.97 327.96"/>
        </g>
        <g>
          <polyline class="cls-19" points="167.74 24.03 359.49 152.51 550.03 64.21 711.53 189.51 911.29 102.18"/>
          <polyline class="cls-19" points="150.58 130.67 342.32 259.15 532.87 170.85 694.36 296.15 894.13 208.82"/>
          <polyline class="cls-19" points="138.34 247.08 330.09 375.56 520.63 287.26 682.13 412.56 881.89 325.23"/>
        </g>
        <g>
          <polyline class="cls-4" points="125.39 17.46 340.9 151.2 546.77 46.92 728.94 178.34 944.98 74.77"/>
          <polyline class="cls-4" points="110.63 135.23 326.14 268.98 532.01 164.7 714.18 296.11 930.22 192.54"/>
          <polyline class="cls-4" points="101.66 263.54 317.16 397.29 523.04 293.01 705.2 424.42 921.24 320.85"/>
        </g>
        <g>
          <polyline class="cls-26" points="78.62 11.86 320.43 150.48 542.53 28.06 747.63 165.39 980.92 43.36"/>
          <polyline class="cls-26" points="66.93 141.77 308.74 280.39 530.83 157.97 735.93 295.3 969.23 173.27"/>
          <polyline class="cls-26" points="62 283.02 303.8 421.64 525.9 299.22 731 436.56 964.29 314.53"/>
        </g>
        <g>
          <polyline class="cls-17" points="27.05 7.5 297.92 150.46 537.14 7.5 767.66 150.46 1019.19 7.5"/>
          <polyline class="cls-17" points="19.19 150.62 290.06 293.58 529.28 150.62 759.8 293.58 1011.33 150.62"/>
          <polyline class="cls-17" points="19.19 305.94 290.06 448.91 529.28 305.94 759.8 448.91 1011.33 305.94"/>
        </g>
      </g>
      <circle class="cls-32" cx="832.5" cy="438.56" r="7.5"/>
      <circle class="cls-32" cx="923.5" cy="385.56" r="7.5"/>
      <circle class="cls-32" cx="872.5" cy="452.56" r="7.5"/>
      <circle class="cls-32" cx="32.5" cy="201.56" r="7.5"/>
      <circle class="cls-32" cx="85.5" cy="218.56" r="7.5"/>
      <circle class="cls-32" cx="7.5" cy="232.56" r="7.5"/>
      <circle class="cls-32" cx="864" cy="430.06" r="5"/>
      <circle class="cls-32" cx="868" cy="401.06" r="5"/>
      <circle class="cls-32" cx="956" cy="389.06" r="5"/>
      <circle class="cls-32" cx="818" cy="461.06" r="5"/>
      <circle class="cls-32" cx="6" cy="196.06" r="5"/>
      <circle class="cls-32" cx="36" cy="226.06" r="5"/>
      <circle class="cls-32" cx="66" cy="205.06" r="5"/>
    </g>
  </g>
</svg>