<?xml version="1.0" encoding="UTF-8"?>
<svg id="Layer_2" xmlns="http://www.w3.org/2000/svg" viewBox="0 0 984 622.74">
  <defs>
    <style>
      .cls-1 {
        stroke-dasharray: 0 4.31;
        stroke-width: 1.29px;
      }

      .cls-1, .cls-2, .cls-3, .cls-4, .cls-5, .cls-6, .cls-7, .cls-8, .cls-9, .cls-10, .cls-11, .cls-12, .cls-13, .cls-14, .cls-15, .cls-16, .cls-17, .cls-18, .cls-19, .cls-20, .cls-21, .cls-22, .cls-23, .cls-24, .cls-25, .cls-26, .cls-27, .cls-28, .cls-29, .cls-30, .cls-31 {
        fill: none;
        stroke: #8aceca;
        stroke-linecap: round;
        stroke-linejoin: round;
      }

      .cls-2 {
        stroke-dasharray: 0 11.06;
        stroke-width: 3.32px;
      }

      .cls-3 {
        stroke-dasharray: 0 23.51;
        stroke-width: 7.05px;
      }

      .cls-4 {
        stroke-dasharray: 0 14.67;
        stroke-width: 4.4px;
      }

      .cls-5 {
        stroke-dasharray: 0 7.58;
        stroke-width: 2.27px;
      }

      .cls-6 {
        stroke-dasharray: 0 34.29;
        stroke-width: 10.29px;
      }

      .cls-7 {
        stroke-dasharray: 0 6.28;
        stroke-width: 1.88px;
      }

      .cls-8 {
        stroke-dasharray: 0 41.4;
        stroke-width: 12.42px;
      }

      .cls-9 {
        stroke-dasharray: 0 50;
        stroke-width: 15px;
      }

      .cls-10 {
        stroke-dasharray: 0 5.2;
        stroke-width: 1.56px;
      }

      .cls-32 {
        fill: #8aceca;
      }

      .cls-11 {
        stroke-dasharray: 0 21.4;
        stroke-width: 6.42px;
      }

      .cls-12 {
        stroke-dasharray: 0 31.2;
        stroke-width: 9.36px;
      }

      .cls-13 {
        stroke-dasharray: 0 16.12;
        stroke-width: 4.84px;
      }

      .cls-14 {
        stroke-dasharray: 0 3.57;
        stroke-width: 1.07px;
      }

      .cls-15 {
        stroke-dasharray: 0 2.95;
        stroke-width: .89px;
      }

      .cls-16 {
        stroke-dasharray: 0 5.71;
        stroke-width: 1.71px;
      }

      .cls-17 {
        stroke-dasharray: 0 28.39;
        stroke-width: 8.52px;
      }

      .cls-18 {
        stroke-dasharray: 0 25.84;
        stroke-width: 7.75px;
      }

      .cls-19 {
        stroke-dasharray: 0 4.73;
        stroke-width: 1.42px;
      }

      .cls-20 {
        stroke-dasharray: 0 3.24;
        stroke-width: .97px;
      }

      .cls-21 {
        stroke-dasharray: 0 13.35;
        stroke-width: 4.01px;
      }

      .cls-22 {
        stroke-dasharray: 0 10.06;
        stroke-width: 3.02px;
      }

      .cls-23 {
        stroke-dasharray: 0 8.33;
        stroke-width: 2.5px;
      }

      .cls-24 {
        stroke-dasharray: 0 37.68;
        stroke-width: 11.3px;
      }

      .cls-25 {
        stroke-dasharray: 0 3.92;
        stroke-width: 1.18px;
      }

      .cls-26 {
        stroke-dasharray: 0 19.47;
        stroke-width: 5.84px;
      }

      .cls-27 {
        stroke-dasharray: 0 9.16;
        stroke-width: 2.75px;
      }

      .cls-28 {
        stroke-dasharray: 0 45.5;
        stroke-width: 13.65px;
      }

      .cls-29 {
        stroke-dasharray: 0 12.15;
        stroke-width: 3.65px;
      }

      .cls-30 {
        stroke-dasharray: 0 6.9;
        stroke-width: 2.07px;
      }

      .cls-31 {
        stroke-dasharray: 0 17.72;
        stroke-width: 5.32px;
      }
    </style>
  </defs>
  <g id="low_good">
    <g>
      <g>
        <g>
          <path class="cls-15" d="M477.13,323.44c-.36-1.58.97-2.12,2.2-6,1.61-5.1.22-7.02,1.7-8.57,2.51-2.62,11.15-2.01,14.57,3.9,2.95,5.1,1.2,11.63-3.9,14.57-5.88,3.39-13.78-.42-14.57-3.9Z"/>
          <path class="cls-15" d="M492.77,329.19c4.84,1.28,7.64,4.39,7.3,6.84-.06.45-.32,1.52-1.81,2.66"/>
          <path class="cls-15" d="M481.17,328.99c-4.25,4.71-4.84,7.96-4.49,10.11.17,1.07.72,2.81-.2,4.14-.74,1.06-2.09,1.41-3.14,1.54"/>
          <path class="cls-15" d="M498.59,317.94c1.47-.43,15.18-4.32,19.87-1.2.72.48,2.12,1.41,2.35,3.01.25,1.72-1.02,3.15-1.38,3.52"/>
        </g>
        <g>
          <path class="cls-20" d="M475.7,321.58c-.18-1.77,1.34-2.18,3.2-6.25,2.44-5.35,1.18-7.63,3.01-9.12,3.08-2.52,12.44-.7,15.37,6.21,2.53,5.96-.25,12.84-6.21,15.37-6.86,2.91-14.98-2.31-15.37-6.21Z"/>
          <path class="cls-20" d="M491.99,329.95c5.1,2.04,7.75,5.81,7.04,8.44-.13.48-.55,1.62-2.33,2.66"/>
          <path class="cls-20" d="M479.36,328.17c-5.27,4.57-6.35,8.03-6.26,10.43.04,1.19.41,3.16-.77,4.49-.94,1.06-2.47,1.26-3.63,1.26"/>
          <path class="cls-20" d="M499.84,318.46c1.66-.27,17.13-2.68,21.83,1.36.72.62,2.12,1.82,2.16,3.59.04,1.91-1.54,3.3-1.97,3.66"/>
        </g>
        <g>
          <path class="cls-14" d="M474.39,319.36c.04-1.96,1.76-2.2,4.33-6.39,3.38-5.5,2.31-8.16,4.5-9.54,3.7-2.33,13.66.9,15.93,8.83,1.96,6.84-1.99,13.97-8.83,15.93-7.88,2.26-16.03-4.52-15.93-8.83Z"/>
          <path class="cls-14" d="M491.03,330.67c5.29,2.91,7.67,7.37,6.55,10.15-.2.5-.82,1.69-2.9,2.58"/>
          <path class="cls-14" d="M477.5,327.04c-6.36,4.27-8,7.91-8.22,10.54-.11,1.3.03,3.5-1.45,4.79-1.17,1.03-2.86,1.04-4.12.89"/>
          <path class="cls-14" d="M501.14,319.19c1.85-.07,19.05-.63,23.63,4.4.7.77,2.07,2.27,1.87,4.21-.21,2.09-2.12,3.39-2.64,3.72"/>
        </g>
        <g>
          <path class="cls-25" d="M473.26,316.76c.31-2.13,2.21-2.16,5.58-6.39,4.42-5.55,3.61-8.6,6.19-9.81,4.35-2.05,14.78,2.81,16.2,11.77,1.22,7.72-4.05,14.97-11.77,16.2-8.89,1.41-16.88-7.08-16.2-11.77Z"/>
          <path class="cls-25" d="M489.9,331.32c5.38,3.88,7.38,9.07,5.79,11.94-.29.52-1.12,1.74-3.51,2.43"/>
          <path class="cls-25" d="M475.63,325.56c-7.51,3.81-9.78,7.55-10.38,10.39-.3,1.4-.44,3.82-2.22,5.03-1.41.96-3.26.75-4.62.41"/>
          <path class="cls-25" d="M502.46,320.16c2.02.17,20.86,1.87,25.18,7.97.66.94,1.95,2.76,1.48,4.84-.51,2.25-2.76,3.42-3.38,3.71"/>
        </g>
        <g>
          <path class="cls-1" d="M472.37,313.78c.62-2.28,2.7-2.06,6.94-6.22,5.57-5.46,5.09-8.89,8.06-9.87,5.02-1.65,15.74,5.04,16.09,15,.3,8.59-6.42,15.79-15,16.09-9.89.35-17.46-9.98-16.09-15Z"/>
          <path class="cls-1" d="M488.57,331.89c5.35,4.96,6.83,10.88,4.71,13.8-.39.53-1.46,1.74-4.16,2.18"/>
          <path class="cls-1" d="M473.78,323.69c-8.7,3.15-11.68,6.93-12.71,9.94-.51,1.49-.99,4.11-3.09,5.19-1.67.86-3.65.39-5.09-.17"/>
          <path class="cls-1" d="M503.77,321.4c2.19.46,22.5,4.83,26.4,12.06.6,1.11,1.76,3.27.97,5.48-.86,2.39-3.47,3.35-4.18,3.59"/>
        </g>
        <g>
          <path class="cls-19" d="M471.8,310.41c.98-2.41,3.22-1.89,8.41-5.85,6.81-5.21,6.74-9.02,10.11-9.69,5.69-1.13,16.49,7.61,15.54,18.52-.82,9.4-9.11,16.36-18.52,15.54-10.83-.95-17.71-13.22-15.54-18.52Z"/>
          <path class="cls-19" d="M487.04,332.33c5.17,6.12,6,12.78,3.29,15.68-.49.53-1.82,1.71-4.82,1.82"/>
          <path class="cls-19" d="M472.01,321.41c-9.91,2.27-13.67,5.99-15.19,9.14-.76,1.56-1.63,4.35-4.07,5.25-1.94.72-4.04-.07-5.53-.86"/>
          <path class="cls-19" d="M505.03,322.92c2.32.79,23.9,8.28,27.18,16.69.5,1.29,1.48,3.8.32,6.11-1.26,2.49-4.24,3.19-5.04,3.36"/>
        </g>
        <g>
          <path class="cls-10" d="M471.64,306.65c1.39-2.49,3.77-1.63,9.95-5.26,8.12-4.77,8.56-8.93,12.33-9.21,6.36-.47,16.97,10.51,14.47,22.28-2.16,10.15-12.13,16.63-22.28,14.47-11.69-2.48-17.54-16.79-14.47-22.28Z"/>
          <path class="cls-10" d="M485.32,332.61c4.82,7.37,4.83,14.74,1.49,17.55-.61.51-2.21,1.62-5.51,1.34"/>
          <path class="cls-10" d="M470.39,318.68c-11.12,1.15-15.71,4.71-17.8,7.94-1.03,1.6-2.36,4.52-5.14,5.18-2.21.52-4.39-.62-5.91-1.68"/>
          <path class="cls-10" d="M506.2,324.75c2.43,1.17,24.95,12.23,27.41,21.85.38,1.48,1.11,4.35-.47,6.7-1.71,2.55-5.05,2.92-5.95,2.99"/>
        </g>
        <g>
          <path class="cls-16" d="M471.96,302.53c1.86-2.53,4.33-1.27,11.56-4.4,9.5-4.12,10.53-8.6,14.68-8.39,7,.34,17.1,13.73,12.8,26.24-3.71,10.78-15.46,16.51-26.24,12.8-12.42-4.28-16.88-20.66-12.8-26.24Z"/>
          <path class="cls-16" d="M483.41,332.67c4.27,8.68,3.29,16.73-.72,19.34-.73.48-2.63,1.47-6.18.72"/>
          <path class="cls-16" d="M468.98,315.48c-12.28-.23-17.77,3.03-20.47,6.27-1.34,1.61-3.18,4.62-6.3,4.96-2.48.27-4.71-1.26-6.23-2.63"/>
          <path class="cls-16" d="M507.23,326.9c2.49,1.6,25.58,16.69,26.97,27.5.21,1.66.63,4.89-1.41,7.25-2.2,2.55-5.9,2.5-6.89,2.46"/>
        </g>
        <g>
          <path class="cls-7" d="M472.86,298.08c2.36-2.51,4.89-.8,13.2-3.25,10.91-3.22,12.64-7.96,17.13-7.19,7.59,1.31,16.81,17.27,10.44,30.33-5.49,11.26-19.07,15.94-30.33,10.44-12.97-6.33-15.65-24.8-10.44-30.33Z"/>
          <path class="cls-7" d="M481.31,332.49c3.5,10.04,1.35,18.68-3.38,21-.86.42-3.07,1.25-6.84-.04"/>
          <path class="cls-7" d="M467.88,311.81c-13.36-1.9-19.78.93-23.17,4.1-1.68,1.57-4.09,4.61-7.54,4.57-2.74-.04-4.97-2.01-6.44-3.7"/>
          <path class="cls-7" d="M508.06,329.39c2.5,2.08,25.66,21.63,25.73,33.6.01,1.84.03,5.42-2.51,7.72-2.74,2.49-6.77,1.94-7.85,1.76"/>
        </g>
        <g>
          <path class="cls-30" d="M474.43,293.35c2.91-2.42,5.44-.22,14.83-1.78,12.33-2.05,14.85-6.99,19.65-5.55,8.1,2.44,16.03,21.09,7.33,34.48-7.5,11.55-22.94,14.83-34.48,7.33-13.3-8.64-13.75-29.14-7.33-34.48Z"/>
          <path class="cls-30" d="M479.05,332.02c2.47,11.42-1.03,20.56-6.5,22.45-1,.34-3.51.95-7.46-.96"/>
          <path class="cls-30" d="M467.17,307.66c-14.32-3.86-21.7-1.64-25.82,1.37-2.04,1.49-5.08,4.48-8.83,3.97-2.99-.41-5.15-2.85-6.53-4.9"/>
          <path class="cls-30" d="M508.64,332.21c2.45,2.61,25.1,27.02,23.57,40.1-.23,2.01-.69,5.91-3.77,8.08-3.33,2.35-7.64,1.21-8.79.87"/>
        </g>
        <g>
          <path class="cls-5" d="M476.79,288.4c3.5-2.25,5.97.49,16.41.04,13.72-.58,17.14-5.64,22.18-3.42,8.51,3.75,14.66,25.15,3.38,38.59-9.72,11.59-27,13.1-38.59,3.38-13.35-11.2-11.09-33.63-3.38-38.59Z"/>
          <path class="cls-5" d="M476.64,331.19c1.16,12.79-3.87,22.29-10.09,23.62-1.13.24-3.96.57-8.01-2.04"/>
          <path class="cls-5" d="M466.95,303.03c-15.1-6.13-23.45-4.69-28.35-1.97-2.43,1.35-6.14,4.21-10.17,3.15-3.2-.84-5.24-3.8-6.46-6.22"/>
          <path class="cls-5" d="M508.9,335.37c2.32,3.17,23.75,32.84,20.33,46.89-.53,2.16-1.55,6.35-5.19,8.31-3.94,2.12-8.5.3-9.71-.23"/>
        </g>
        <g>
          <path class="cls-23" d="M480.02,283.32c4.12-1.99,6.44,1.33,17.9,2.24,15.05,1.2,19.45-3.86,24.65-.76,8.78,5.23,12.62,29.39-1.49,42.54-12.16,11.34-31.21,10.67-42.54-1.49-13.06-14-7.59-38.16,1.49-42.54Z"/>
          <path class="cls-23" d="M474.13,329.97c-.44,14.11-7.21,23.79-14.17,24.41-1.27.11-4.39.09-8.46-3.3"/>
          <path class="cls-23" d="M467.33,297.96c-15.65-8.71-24.95-8.26-30.66-5.94-2.83,1.15-7.26,3.77-11.51,2.07-3.38-1.35-5.2-4.85-6.22-7.65"/>
          <path class="cls-23" d="M508.75,338.85c2.11,3.77,21.51,39,15.9,53.87-.86,2.28-2.54,6.72-6.78,8.37-4.58,1.78-9.31-.81-10.56-1.55"/>
        </g>
        <g>
          <path class="cls-27" d="M484.23,278.21c4.76-1.62,6.85,2.31,19.22,4.84,16.25,3.32,21.73-1.6,26.98,2.47,8.88,6.88,9.83,33.75-7.32,46.2-14.78,10.74-35.47,7.46-46.2-7.32-12.37-17.02-3.17-42.64,7.32-46.2Z"/>
          <path class="cls-27" d="M471.56,328.3c-2.37,15.33-11.05,24.98-18.73,24.72-1.4-.05-4.8-.49-8.78-4.73"/>
          <path class="cls-27" d="M468.42,292.47c-15.9-11.59-26.11-12.35-32.64-10.58-3.24.88-8.42,3.14-12.83.72-3.51-1.92-5.02-5.98-5.76-9.17"/>
          <path class="cls-27" d="M508.13,342.62c1.79,4.4,18.24,45.41,10.13,60.88-1.25,2.37-3.67,6.99-8.51,8.22-5.24,1.33-10.04-2.13-11.31-3.1"/>
        </g>
        <g>
          <path class="cls-22" d="M489.5,273.2c5.41-1.13,7.16,3.44,20.31,7.86,17.28,5.8,23.91,1.16,29.1,6.31,8.76,8.7,6.2,38.13-14.17,49.42-17.56,9.73-39.68,3.39-49.42-14.17-11.21-20.22,2.25-46.94,14.17-49.42Z"/>
          <path class="cls-22" d="M468.97,326.14c-4.64,16.4-15.4,25.77-23.74,24.46-1.52-.24-5.17-1.18-8.95-6.34"/>
          <path class="cls-22" d="M470.35,286.64c-15.79-14.77-26.82-16.97-34.19-15.92-3.65.52-9.6,2.3-14.09-.93-3.57-2.57-4.68-7.2-5.05-10.77"/>
          <path class="cls-22" d="M506.94,346.65c1.37,5.03,13.81,51.98,2.89,67.76-1.68,2.42-4.94,7.14-10.39,7.83-5.89.75-10.67-3.67-11.92-4.9"/>
        </g>
        <g>
          <path class="cls-2" d="M495.92,268.44c6.05-.5,7.35,4.71,21.11,11.29,18.07,8.64,25.92,4.47,30.9,10.78,8.39,10.66,1.65,42.41-22.07,52-20.45,8.26-43.74-1.62-52-22.07-9.52-23.56,8.74-50.89,22.07-52Z"/>
          <path class="cls-2" d="M466.44,323.43c-7.26,17.27-20.25,26.05-29.16,23.5-1.62-.46-5.48-1.98-8.91-8.11"/>
          <path class="cls-2" d="M473.23,280.53c-15.25-18.23-26.98-22.1-35.16-21.94-4.05.08-10.78,1.22-15.24-2.9-3.55-3.28-4.14-8.48-4.07-12.43"/>
          <path class="cls-2" d="M505.1,350.89c.82,5.67,8.1,58.54-5.92,74.3-2.15,2.42-6.34,7.12-12.38,7.15-6.52.03-11.15-5.43-12.34-6.94"/>
        </g>
        <g>
          <path class="cls-29" d="M503.56,264.11c6.67.26,7.38,6.12,21.51,15.14,18.55,11.85,27.68,8.35,32.25,15.9,7.73,12.75-3.88,46.48-31.04,53.76-23.42,6.27-47.49-7.62-53.76-31.04-7.23-26.97,16.35-54.34,31.04-53.76Z"/>
          <path class="cls-29" d="M464.04,320.14c-10.23,17.86-25.57,25.7-34.96,21.72-1.71-.72-5.72-2.9-8.63-10.04"/>
          <path class="cls-29" d="M477.19,274.26c-14.19-21.92-26.47-27.72-35.41-28.64-4.43-.46-11.92-.12-16.24-5.21-3.43-4.05-3.38-9.8-2.77-14.1"/>
          <path class="cls-29" d="M502.54,355.27c.13,6.3,1,64.94-16.41,80.24-2.67,2.35-7.87,6.92-14.46,6.14-7.12-.85-11.43-7.42-12.53-9.22"/>
        </g>
        <g>
          <path class="cls-21" d="M512.47,260.4c7.24,1.18,7.23,7.67,21.43,19.4,18.65,15.41,29.07,12.81,33.05,21.66,6.72,14.94-10.45,50.18-41.05,54.48-26.38,3.71-50.77-14.67-54.48-41.05-4.27-30.39,25.11-57.08,41.05-54.48Z"/>
          <path class="cls-21" d="M461.86,316.23c-13.55,18.11-31.33,24.6-41.04,19.01-1.76-1.02-5.85-3.92-8.07-12.11"/>
          <path class="cls-21" d="M482.36,267.95c-12.54-25.81-25.16-33.78-34.78-35.98-4.77-1.09-12.99-1.72-17.01-7.86-3.2-4.88-2.37-11.14-1.13-15.75"/>
          <path class="cls-21" d="M499.15,359.7c-.7,6.89-7.61,70.96-28.64,85.32-3.23,2.21-9.51,6.49-16.59,4.76-7.65-1.88-11.47-9.62-12.44-11.74"/>
        </g>
        <g>
          <path class="cls-4" d="M522.69,257.56c7.74,2.25,6.86,9.33,20.78,24.02,18.28,19.3,29.99,17.87,33.15,28.05,5.33,17.19-18.12,53.33-52.07,53.93-29.27.51-53.41-22.8-53.93-52.07-.59-33.71,35.04-58.89,52.07-53.93Z"/>
          <path class="cls-4" d="M460.01,311.67c-17.2,17.94-37.47,22.64-47.3,15.24-1.79-1.35-5.85-5.06-7.18-14.29"/>
          <path class="cls-4" d="M488.83,261.76c-10.22-29.83-22.92-40.21-33.12-43.9-5.05-1.83-13.94-3.62-17.51-10.85-2.84-5.75-1.1-12.47.87-17.33"/>
          <path class="cls-4" d="M494.86,364.08c-1.69,7.42-17.8,76.38-42.67,89.23-3.82,1.97-11.24,5.81-18.73,2.97-8.09-3.07-11.22-12.03-11.99-14.47"/>
        </g>
        <g>
          <path class="cls-13" d="M534.21,255.83c8.14,3.49,6.24,11.1,19.44,28.99,17.35,23.5,30.32,23.5,32.4,35.03,3.51,19.47-26.91,55.74-64.02,51.84-31.99-3.36-55.21-32.03-51.84-64.02,3.87-36.85,46.1-59.54,64.02-51.84Z"/>
          <path class="cls-13" d="M458.61,306.45c-21.17,17.26-43.9,19.68-53.64,10.29-1.77-1.71-5.7-6.31-5.92-16.55"/>
          <path class="cls-13" d="M496.72,255.87c-7.15-33.91-19.61-46.93-30.25-52.32-5.27-2.67-14.72-5.81-17.64-14.18-2.32-6.65.48-13.75,3.27-18.79"/>
          <path class="cls-13" d="M489.59,368.28c-2.83,7.87-29.64,80.92-58.49,91.61-4.43,1.64-13.04,4.83-20.83.73-8.42-4.43-10.63-14.63-11.14-17.38"/>
        </g>
        <g>
          <path class="cls-31" d="M547.02,255.48c8.41,4.9,5.32,12.94,17.33,34.22,15.78,27.96,29.92,29.7,30.64,42.55,1.22,21.7-36.81,57.2-76.77,47.97-34.45-7.95-55.92-42.32-47.97-76.77,9.16-39.68,58.26-58.77,76.77-47.97Z"/>
          <path class="cls-31" d="M457.77,300.57c-25.4,15.99-50.52,15.58-59.88,4.04-1.7-2.1-5.38-7.64-4.24-18.84"/>
          <path class="cls-31" d="M506.12,250.5c-3.26-37.94-15.11-53.81-25.98-61.11-5.39-3.62-15.27-8.31-17.34-17.82-1.65-7.56,2.36-14.94,6.08-20.05"/>
          <path class="cls-31" d="M483.29,372.16c-4.14,8.2-43.17,84.29-76.06,92.08-5.05,1.2-14.87,3.52-22.82-1.99-8.59-5.96-9.64-17.38-9.83-20.45"/>
        </g>
        <g>
          <path class="cls-26" d="M561.03,256.81c8.51,6.47,4.07,14.82,14.32,39.64,13.47,32.6,28.66,36.4,27.73,50.51-1.58,23.84-47.81,57.45-90.16,42.04-36.51-13.29-55.33-53.65-42.04-90.16,15.3-42.05,71.41-56.3,90.16-42.04Z"/>
          <path class="cls-26" d="M457.65,294.04c-29.84,14.04-57.19,10.23-65.85-3.62-1.58-2.52-4.84-9.06-2.1-21.12"/>
          <path class="cls-26" d="M517.09,245.91c1.53-41.82-9.27-60.71-20.16-70.13-5.39-4.67-15.55-11.11-16.53-21.76-.78-8.47,4.57-15.97,9.32-21.06"/>
          <path class="cls-26" d="M475.9,375.54c-5.62,8.39-58.37,86.16-95.29,90.25-5.67.63-16.69,1.85-24.62-5.23-8.57-7.65-8.18-20.24-7.98-23.62"/>
        </g>
        <g>
          <path class="cls-11" d="M576.13,260.15c8.42,8.2,2.45,16.71,10.3,45.16,10.32,37.37,26.39,43.54,23.48,58.81-4.91,25.79-59.84,56.26-103.97,33.78-38.04-19.38-53.16-65.93-33.78-103.97,22.32-43.81,85.43-51.84,103.97-33.78Z"/>
          <path class="cls-11" d="M458.39,286.91c-34.43,11.32-63.74,3.5-71.34-12.76-1.38-2.96-4.07-10.53.54-23.31"/>
          <path class="cls-11" d="M529.67,242.37c7.27-45.41-1.98-67.46-12.59-79.2-5.26-5.81-15.47-14.2-15.11-25.95.28-9.34,7.13-16.81,12.99-21.72"/>
          <path class="cls-11" d="M467.38,378.24c-7.25,8.4-75.21,86.16-116.03,85.67-6.27-.07-18.45-.22-26.15-9-8.32-9.49-6.21-23.18-5.54-26.84"/>
        </g>
        <g>
          <path class="cls-3" d="M592.16,265.8c8.08,10.07.43,18.56,5.19,50.63,6.25,42.14,22.95,51.02,17.73,67.29-8.81,27.47-72.81,53.35-117.92,22.92-38.89-26.23-49.16-79.03-22.92-117.92,30.22-44.8,100.12-45.1,117.92-22.92Z"/>
          <path class="cls-3" d="M460.15,279.23c-39.07,7.74-69.99-4.72-76.1-23.48-1.11-3.41-3.03-12.02,3.71-25.35"/>
          <path class="cls-3" d="M543.86,240.19c14.01-48.55,6.87-73.85-3.13-88.07-4.96-7.04-14.97-17.56-13.01-30.33,1.56-10.15,10.03-17.38,17.07-21.95"/>
          <path class="cls-3" d="M457.72,380.05c-9.03,8.19-93.57,83.9-138.02,77.91-6.82-.92-20.1-2.71-27.32-13.32-7.8-11.47-3.67-26.11-2.45-30.01"/>
        </g>
        <g>
          <path class="cls-18" d="M608.88,274.12c7.47,12.07-2.01,20.3-1.12,55.92,1.18,46.8,18.2,58.72,10.33,75.77-13.29,28.78-86.56,48.44-131.69,9.21-38.91-33.82-43.03-92.78-9.21-131.69,38.96-44.81,115.24-35.78,131.69-9.21Z"/>
          <path class="cls-18" d="M463.1,271.08c-43.65,3.21-75.71-14.52-79.86-35.8-.75-3.87-1.69-13.52,7.44-27.16"/>
          <path class="cls-18" d="M559.63,239.72c21.78-51.08,17.39-79.62,8.38-96.47-4.46-8.35-13.98-21.16-10.13-34.82,3.06-10.87,13.26-17.61,21.56-21.65"/>
          <path class="cls-18" d="M446.95,380.73c-10.95,7.72-113.29,78.98-160.98,66.49-7.32-1.92-21.56-5.65-28.01-18.19-6.97-13.55-.51-28.97,1.35-33.06"/>
        </g>
        <g>
          <path class="cls-17" d="M626.01,285.43c6.53,14.16-4.92,21.87-8.71,60.85-4.98,51.2,11.98,66.48,1.12,84.02-18.35,29.61-100.9,41.24-144.87-7.59-37.91-42.1-34.51-106.96,7.59-144.87,48.49-43.66,130.49-23.6,144.87,7.59Z"/>
          <path class="cls-17" d="M467.41,262.6c-48.04-2.35-80.63-25.98-82.31-49.74-.31-4.32-.04-14.97,11.75-28.63"/>
          <path class="cls-17" d="M576.9,241.31c30.6-52.8,29.63-84.52,22.06-104.1-3.75-9.7-12.41-24.95-6.38-39.34,4.79-11.44,16.83-17.44,26.42-20.73"/>
          <path class="cls-17" d="M435.11,380.02c-12.97,6.96-134.14,70.97-184.48,50.96-7.73-3.07-22.76-9.05-28.12-23.59-5.79-15.72,3.32-31.67,5.9-35.88"/>
        </g>
        <g>
          <path class="cls-12" d="M643.17,300.07c5.23,16.32-8.29,23.2-17.65,65.2-12.29,55.18,4.17,74.12-10.03,91.79-23.98,29.84-115.57,31.47-156.99-27.68-35.71-51-23.31-121.28,27.68-156.99,58.74-41.13,145.48-8.26,156.99,27.68Z"/>
          <path class="cls-12" d="M473.25,253.92c-52.08-9-84.47-39.13-83.12-65.27.25-4.75,1.97-16.34,16.65-29.65"/>
          <path class="cls-12" d="M595.51,245.37c40.44-53.49,43.64-88.22,38.01-110.59-2.79-11.08-10.19-28.88-1.69-43.76,6.76-11.84,20.69-16.76,31.59-19.07"/>
          <path class="cls-12" d="M422.29,377.67c-15.08,5.85-155.82,59.44-208.04,30.88-8.02-4.39-23.61-12.92-27.51-29.49-4.21-17.92,7.87-34.09,11.24-38.34"/>
        </g>
        <g>
          <path class="cls-6" d="M659.93,318.32c3.51,18.5-12.15,24.19-27.98,68.75-20.8,58.53-5.38,81.4-23.24,98.78-30.15,29.34-130.27,18.85-167.53-51.22-32.12-60.4-9.19-135.41,51.22-167.53,69.57-36.99,159.79,10.47,167.53,51.22Z"/>
          <path class="cls-6" d="M480.78,245.23c-55.6-16.79-86.89-53.99-81.92-82.33.9-5.15,4.33-17.56,22.13-30.11"/>
          <path class="cls-6" d="M615.28,252.28c51.28-52.93,59.41-90.37,56.26-115.53-1.56-12.46-7.25-32.86,4.01-47.96,8.96-12.01,24.81-15.52,37.01-16.57"/>
          <path class="cls-6" d="M408.63,373.38c-17.24,4.36-177.91,43.97-231.05,5.82-8.16-5.86-24.02-17.25-26.05-35.85-2.19-20.11,13.14-36.13,17.4-40.32"/>
        </g>
        <g>
          <path class="cls-24" d="M675.77,340.48c1.36,20.65-16.49,24.76-39.72,71.24-30.52,61.06-16.77,88.07-38.57,104.62-36.81,27.96-144.61,3.11-175.86-78.3-26.94-70.18,8.11-148.92,78.3-175.86,80.84-31.03,172.88,32.82,175.86,78.3Z"/>
          <path class="cls-24" d="M490.15,236.77c-58.4-25.76-87.54-70.53-78.32-100.77,1.68-5.5,7.08-18.57,28.17-29.87"/>
          <path class="cls-24" d="M635.91,262.47c63.02-50.86,76.9-90.62,76.84-118.48-.03-13.8-3.51-36.81,10.8-51.77,11.38-11.9,29.14-13.6,42.59-13.12"/>
          <path class="cls-24" d="M394.29,366.88c-19.38,2.45-199.94,24.13-252.79-24.6-8.11-7.48-23.89-22.03-23.62-42.59.3-22.23,19.18-37.65,24.37-41.64"/>
        </g>
        <g>
          <path class="cls-8" d="M690.08,366.77c-1.29,22.7-21.3,24.8-52.87,72.38-41.47,62.51-30.09,93.81-56.08,108.95-43.9,25.56-158.15-15.97-181.33-108.95-19.99-80.16,28.79-161.34,108.95-181.33,92.33-23.02,184.16,58.95,181.33,108.95Z"/>
          <path class="cls-8" d="M501.51,228.79c-60.25-35.91-86.04-88.65-71.93-120.39,2.57-5.77,10.21-19.3,34.73-28.81"/>
          <path class="cls-8" d="M657.05,276.34c75.54-47.03,96.01-88.54,99.68-118.93,1.82-15.06,1.1-40.62,18.71-55.02,14.01-11.45,33.6-10.93,48.21-8.61"/>
          <path class="cls-8" d="M379.53,357.87c-21.47.08-221.31-.46-272.42-60.68-7.85-9.25-23.11-27.23-20.05-49.62,3.31-24.2,25.96-38.5,32.16-42.16"/>
        </g>
        <g>
          <path class="cls-28" d="M702.16,397.36c-4.44,24.59-26.55,24.19-67.36,71.87-53.6,62.63-45.38,98.29-75.76,111.32-51.3,22.01-170.35-38.6-183.19-143.12-11.06-90.11,53.01-172.12,143.12-183.19,103.78-12.74,192.97,88.96,183.19,143.12Z"/>
          <path class="cls-28" d="M514.97,221.61c-60.9-47.24-81.97-108.21-62.33-140.95,3.57-5.95,13.72-19.69,41.74-26.77"/>
          <path class="cls-28" d="M678.25,294.31c88.69-41.18,116.58-83.71,124.65-116.37,4-16.18,6.64-44.16,27.78-57.5,16.81-10.61,38.11-7.42,53.73-2.93"/>
          <path class="cls-28" d="M364.64,346.06c-23.43-2.79-241.32-30.14-289.01-102.67-7.32-11.14-21.56-32.79-15.23-56.81,6.85-25.95,33.47-38.51,40.72-41.67"/>
        </g>
        <g>
          <path class="cls-9" d="M711.25,432.34c-8.14,26.22-32.2,22.83-83.09,69.36-66.85,61.13-62.66,101.13-97.54,111.27-58.9,17.13-180.64-64.92-180.64-180.64,0-99.76,80.87-180.64,180.64-180.64,114.91,0,198.56,122.87,180.64,180.64Z"/>
          <path class="cls-9" d="M530.61,215.58c-60.1-59.68-74.91-129.01-49.11-162.08,4.69-6.01,17.6-19.64,49.11-23.61"/>
          <path class="cls-9" d="M698.96,316.74c102.26-33.04,138.36-75.69,151.54-110.24,6.53-17.11,13.16-47.27,38-59,19.76-9.33,42.56-2.99,59,4"/>
          <path class="cls-9" d="M349.97,331.19c-25.18-6.18-259.18-65.19-301.47-150.69-6.49-13.13-19.12-38.66-9-64,10.94-27.39,41.66-37.53,50-40"/>
        </g>
      </g>
      <circle class="cls-32" cx="116" cy="116" r="5"/>
      <circle class="cls-32" cx="69" cy="136" r="5"/>
      <circle class="cls-32" cx="89" cy="33" r="5"/>
      <circle class="cls-32" cx="5" cy="140" r="5"/>
      <circle class="cls-32" cx="514" cy="70" r="5"/>
      <circle class="cls-32" cx="450" cy="26" r="5"/>
      <circle class="cls-32" cx="521" cy="5" r="5"/>
      <circle class="cls-32" cx="927" cy="189" r="5"/>
      <circle class="cls-32" cx="913" cy="98" r="5"/>
      <circle class="cls-32" cx="980.5" cy="142.5" r="3.5"/>
    </g>
  </g>
</svg>