<?xml version="1.0" encoding="UTF-8"?>
<svg id="Layer_2" xmlns="http://www.w3.org/2000/svg" viewBox="0 0 1011 561.56">
  <defs>
    <style>
      .cls-1 {
        stroke-dasharray: 0 3.25;
        stroke-width: 1.07px;
      }

      .cls-1, .cls-2, .cls-3, .cls-4, .cls-5, .cls-6, .cls-7, .cls-8, .cls-9, .cls-10, .cls-11, .cls-12, .cls-13, .cls-14, .cls-15, .cls-16, .cls-17, .cls-18, .cls-19, .cls-20, .cls-21, .cls-22, .cls-23, .cls-24, .cls-25, .cls-26, .cls-27, .cls-28, .cls-29, .cls-30, .cls-31 {
        fill: none;
        stroke: #87b4db;
        stroke-linecap: round;
        stroke-linejoin: round;
      }

      .cls-2 {
        stroke-dasharray: 0 10.09;
        stroke-width: 3.32px;
      }

      .cls-3 {
        stroke-dasharray: 0 23.57;
        stroke-width: 7.75px;
      }

      .cls-4 {
        stroke-dasharray: 0 25.91;
        stroke-width: 8.52px;
      }

      .cls-5 {
        stroke-dasharray: 0 34.38;
        stroke-width: 11.3px;
      }

      .cls-6 {
        stroke-dasharray: 0 7.6;
        stroke-width: 2.5px;
      }

      .cls-7 {
        stroke-dasharray: 0 13.39;
        stroke-width: 4.4px;
      }

      .cls-8 {
        stroke-dasharray: 0 12.18;
        stroke-width: 4.01px;
      }

      .cls-9 {
        stroke-dasharray: 0 4.74;
        stroke-width: 1.56px;
      }

      .cls-10 {
        stroke-dasharray: 0 45.62;
        stroke-width: 15px;
      }

      .cls-11 {
        stroke-dasharray: 0 16.17;
        stroke-width: 5.32px;
      }

      .cls-12 {
        stroke-dasharray: 0 8.35;
        stroke-width: 2.75px;
      }

      .cls-13 {
        stroke-dasharray: 0 6.92;
        stroke-width: 2.27px;
      }

      .cls-14 {
        stroke-dasharray: 0 5.73;
        stroke-width: 1.88px;
      }

      .cls-15 {
        stroke-dasharray: 0 6.3;
        stroke-width: 2.07px;
      }

      .cls-16 {
        stroke-dasharray: 0 2.69;
        stroke-width: .89px;
      }

      .cls-17 {
        stroke-dasharray: 0 4.32;
        stroke-width: 1.42px;
      }

      .cls-18 {
        stroke-dasharray: 0 2.96;
        stroke-width: .97px;
      }

      .cls-19 {
        stroke-dasharray: 0 28.47;
        stroke-width: 9.36px;
      }

      .cls-20 {
        stroke-dasharray: 0 31.28;
        stroke-width: 10.29px;
      }

      .cls-21 {
        stroke-dasharray: 0 41.51;
        stroke-width: 13.65px;
      }

      .cls-22 {
        stroke-dasharray: 0 11.09;
        stroke-width: 3.65px;
      }

      .cls-23 {
        stroke-dasharray: 0 9.18;
        stroke-width: 3.02px;
      }

      .cls-24 {
        stroke-dasharray: 0 17.77;
        stroke-width: 5.84px;
      }

      .cls-25 {
        stroke-dasharray: 0 3.57;
        stroke-width: 1.18px;
      }

      .cls-26 {
        stroke-dasharray: 0 19.52;
        stroke-width: 6.42px;
      }

      .cls-27 {
        stroke-dasharray: 0 37.78;
        stroke-width: 12.42px;
      }

      .cls-28 {
        stroke-dasharray: 0 14.71;
        stroke-width: 4.84px;
      }

      .cls-29 {
        stroke-dasharray: 0 5.21;
        stroke-width: 1.71px;
      }

      .cls-30 {
        stroke-dasharray: 0 21.45;
        stroke-width: 7.05px;
      }

      .cls-31 {
        stroke-dasharray: 0 3.93;
        stroke-width: 1.29px;
      }

      .cls-32 {
        fill: #87b4db;
      }
    </style>
  </defs>
  <g id="low_bad">
    <g>
      <g>
        <g>
          <path class="cls-16" d="M919.54,128.31c-.45-4.11,1.43-16.89,1.43-16.89l5.7-11.93-7.13-30"/>
          <polygon class="cls-16" points="904 83.78 909.8 88.04 915.12 83.78 909.56 80.08 904 83.78"/>
          <polygon class="cls-16" points="900.32 76.64 903.83 79.16 907.06 76.64 903.69 74.45 900.32 76.64"/>
          <polygon class="cls-16" points="894.39 82.28 897.91 84.79 901.13 82.28 897.76 80.09 894.39 82.28"/>
        </g>
        <g>
          <path class="cls-18" d="M918.57,134.65c-.26-4.54,2.54-18.45,2.54-18.45l6.94-12.76-6.1-33.33"/>
          <polygon class="cls-18" points="904.08 84.89 910.2 89.89 916.29 85.53 910.4 81.14 904.08 84.89"/>
          <polygon class="cls-18" points="900.45 76.85 904.16 79.8 907.84 77.23 904.27 74.63 900.45 76.85"/>
          <polygon class="cls-18" points="893.62 82.69 897.33 85.65 901.02 83.08 897.44 80.48 893.62 82.69"/>
        </g>
        <g>
          <path class="cls-1" d="M917.14,141.55c-.02-5,3.84-20.1,3.84-20.1l8.35-13.61-4.77-36.93"/>
          <polygon class="cls-1" points="904.1 86.11 910.53 91.95 917.46 87.52 911.25 82.36 904.1 86.11"/>
          <polygon class="cls-1" points="900.58 77.07 904.48 80.53 908.67 77.92 904.9 74.87 900.58 77.07"/>
          <polygon class="cls-1" points="892.75 83.09 896.65 86.55 900.85 83.94 897.07 80.89 892.75 83.09"/>
        </g>
        <g>
          <path class="cls-25" d="M915.18,149.04c.27-5.48,5.37-21.84,5.37-21.84l9.95-14.45-3.12-40.8"/>
          <polygon class="cls-25" points="904.06 87.45 910.78 94.23 918.64 89.76 912.12 83.75 904.06 87.45"/>
          <polygon class="cls-25" points="900.71 77.33 904.8 81.35 909.55 78.73 905.58 75.16 900.71 77.33"/>
          <polygon class="cls-25" points="891.77 83.49 895.86 87.51 900.61 84.89 896.64 81.32 891.77 83.49"/>
        </g>
        <g>
          <path class="cls-31" d="M912.59,157.15c.61-6,7.15-23.66,7.15-23.66l11.75-15.29-1.07-44.95"/>
          <polygon class="cls-31" points="903.93 88.92 910.92 96.75 919.8 92.3 912.99 85.32 903.93 88.92"/>
          <polygon class="cls-31" points="900.84 77.62 905.09 82.27 910.45 79.67 906.31 75.52 900.84 77.62"/>
          <polygon class="cls-31" points="890.68 83.86 894.93 88.51 900.29 85.91 896.15 81.76 890.68 83.86"/>
        </g>
        <g>
          <path class="cls-17" d="M909.29,165.89c1.01-6.55,9.21-25.55,9.21-25.55l13.77-16.1,1.41-49.39"/>
          <polygon class="cls-17" points="903.71 90.53 910.93 99.52 920.93 95.14 913.86 87.1 903.71 90.53"/>
          <polygon class="cls-17" points="900.96 77.95 905.36 83.3 911.4 80.75 907.09 75.96 900.96 77.95"/>
          <polygon class="cls-17" points="889.45 84.21 893.85 89.56 899.89 87.01 895.58 82.22 889.45 84.21"/>
        </g>
        <g>
          <path class="cls-9" d="M905.16,175.3c1.49-7.13,11.58-27.51,11.58-27.51l16.04-16.87,4.39-54.12"/>
          <polygon class="cls-9" points="903.37 92.28 910.77 102.56 922 98.33 914.7 89.09 903.37 92.28"/>
          <polygon class="cls-9" points="901.08 78.32 905.6 84.44 912.37 81.98 907.92 76.48 901.08 78.32"/>
          <polygon class="cls-9" points="888.09 84.53 892.61 90.65 899.38 88.2 894.93 82.69 888.09 84.53"/>
        </g>
        <g>
          <path class="cls-29" d="M900.09,185.39c2.04-7.74,14.29-29.52,14.29-29.52l18.57-17.6,7.93-59.14"/>
          <polygon class="cls-29" points="902.9 94.18 910.43 105.88 922.99 101.89 915.52 91.34 902.9 94.18"/>
          <polygon class="cls-29" points="901.19 78.72 905.8 85.7 913.37 83.4 908.8 77.1 901.19 78.72"/>
          <polygon class="cls-29" points="886.58 84.79 891.19 91.77 898.76 89.47 894.19 83.17 886.58 84.79"/>
        </g>
        <g>
          <path class="cls-14" d="M893.94,196.17c2.68-8.38,17.38-31.58,17.38-31.58l21.4-18.24,12.1-64.44"/>
          <polygon class="cls-14" points="902.28 96.24 909.87 109.51 923.88 105.86 916.29 93.84 902.28 96.24"/>
          <polygon class="cls-14" points="901.29 79.18 905.95 87.1 914.38 85.01 909.73 77.84 901.29 79.18"/>
          <polygon class="cls-14" points="884.9 85 889.56 92.92 898 90.83 893.34 83.66 884.9 85"/>
        </g>
        <g>
          <path class="cls-15" d="M886.58,207.65c3.43-9.04,20.89-33.65,20.89-33.65l24.53-18.79,16.98-70.02"/>
          <polygon class="cls-15" points="901.47 98.46 909.04 113.47 924.63 110.26 916.98 96.64 901.47 98.46"/>
          <polygon class="cls-15" points="901.37 79.68 906.02 88.64 915.4 86.83 910.71 78.7 901.37 79.68"/>
          <polygon class="cls-15" points="883.05 85.13 887.71 94.09 897.09 92.28 892.39 84.14 883.05 85.13"/>
        </g>
        <g>
          <path class="cls-13" d="M877.83,219.82c4.28-9.72,24.86-35.73,24.86-35.73l28-19.21,22.67-75.87"/>
          <polygon class="cls-13" points="900.46 100.85 907.9 117.76 925.19 115.13 917.59 99.75 900.46 100.85"/>
          <polygon class="cls-13" points="901.43 80.24 906.02 90.34 916.42 88.9 911.73 79.7 901.43 80.24"/>
          <polygon class="cls-13" points="881.01 85.16 885.6 95.26 896 93.82 891.32 84.62 881.01 85.16"/>
        </g>
        <g>
          <path class="cls-6" d="M867.54,232.67c5.26-10.42,29.33-37.78,29.33-37.78l31.83-19.47,29.24-81.95"/>
          <polygon class="cls-6" points="899.21 103.42 906.4 122.4 925.53 120.51 918.07 103.19 899.21 103.42"/>
          <polygon class="cls-6" points="901.46 80.86 905.92 92.21 917.41 91.22 912.8 80.85 901.46 80.86"/>
          <polygon class="cls-6" points="878.77 85.08 883.23 96.43 894.73 95.44 890.12 85.08 878.77 85.08"/>
        </g>
        <g>
          <path class="cls-12" d="M855.51,246.18c6.37-11.14,34.36-39.77,34.36-39.77l36.05-19.53,36.8-88.25"/>
          <polygon class="cls-12" points="897.69 106.16 904.5 127.4 925.6 126.44 918.4 107 897.69 106.16"/>
          <polygon class="cls-12" points="901.46 81.53 905.7 94.24 918.37 93.82 913.91 82.18 901.46 81.53"/>
          <polygon class="cls-12" points="876.32 84.87 880.56 97.58 893.23 97.16 888.77 85.52 876.32 84.87"/>
        </g>
        <g>
          <path class="cls-23" d="M841.52,260.32c7.63-11.85,39.99-41.67,39.99-41.67l40.68-19.36,45.46-94.73"/>
          <polygon class="cls-23" points="895.87 109.09 902.11 132.79 925.33 132.94 918.55 111.2 895.87 109.09"/>
          <polygon class="cls-23" points="901.42 82.28 905.34 96.47 919.27 96.73 915.04 83.7 901.42 82.28"/>
          <polygon class="cls-23" points="873.64 84.49 877.56 98.68 891.49 98.95 887.26 85.92 873.64 84.49"/>
        </g>
        <g>
          <path class="cls-2" d="M825.36,275.03c9.06-12.57,46.29-43.43,46.29-43.43l45.76-18.91,55.33-101.34"/>
          <polygon class="cls-2" points="893.7 112.2 899.19 138.56 924.65 140.06 918.47 115.81 893.7 112.2"/>
          <polygon class="cls-2" points="901.33 83.09 904.82 98.89 920.09 99.98 916.2 85.44 901.33 83.09"/>
          <polygon class="cls-2" points="870.72 83.92 874.21 99.72 889.48 100.81 885.59 86.27 870.72 83.92"/>
        </g>
        <g>
          <path class="cls-22" d="M806.78,290.24c10.66-13.27,53.29-45,53.29-45l51.3-18.12,66.55-108.03"/>
          <polygon class="cls-22" points="891.14 115.48 895.65 144.73 923.51 147.84 918.12 120.87 891.14 115.48"/>
          <polygon class="cls-22" points="901.19 83.98 904.11 101.52 920.81 103.59 917.37 87.41 901.19 83.98"/>
          <polygon class="cls-22" points="867.55 83.13 870.47 100.67 887.16 102.75 883.73 86.56 867.55 83.13"/>
        </g>
        <g>
          <path class="cls-8" d="M785.52,305.87c12.46-13.95,61.07-46.31,61.07-46.31l57.34-16.93,79.24-114.73"/>
          <polygon class="cls-8" points="888.15 118.94 891.41 151.29 921.8 156.31 917.44 126.4 888.15 118.94"/>
          <polygon class="cls-8" points="900.98 84.94 903.18 104.36 921.38 107.6 918.55 89.64 900.98 84.94"/>
          <polygon class="cls-8" points="864.11 82.08 866.31 101.5 884.51 104.73 881.68 86.78 864.11 82.08"/>
        </g>
        <g>
          <path class="cls-7" d="M761.29,321.79c14.48-14.59,69.68-47.31,69.68-47.31l63.9-15.28,93.56-121.34"/>
          <polygon class="cls-7" points="884.66 122.56 886.38 158.25 919.44 165.51 916.37 132.44 884.66 122.56"/>
          <polygon class="cls-7" points="900.7 85.99 902 107.43 921.79 112.03 919.71 92.16 900.7 85.99"/>
          <polygon class="cls-7" points="860.41 80.73 861.7 102.16 881.49 106.76 879.41 86.89 860.41 80.73"/>
        </g>
        <g>
          <path class="cls-28" d="M733.78,337.87c16.73-15.18,79.19-47.91,79.19-47.91l71-13.1,109.65-127.78"/>
          <polygon class="cls-28" points="880.63 126.33 880.46 165.6 916.33 175.46 914.86 138.99 880.63 126.33"/>
          <polygon class="cls-28" points="900.33 87.12 900.52 110.72 921.97 116.91 920.83 94.98 900.33 87.12"/>
          <polygon class="cls-28" points="856.42 79.03 856.6 102.63 878.05 108.81 876.91 86.89 856.42 79.03"/>
        </g>
        <g>
          <path class="cls-11" d="M702.67,353.94c19.23-15.7,89.66-48.02,89.66-48.02l78.67-10.29,127.68-133.92"/>
          <polygon class="cls-11" points="875.98 130.24 873.54 173.33 912.33 186.21 912.82 146.1 875.98 130.24"/>
          <polygon class="cls-11" points="899.86 88.35 898.71 114.25 921.9 122.28 921.91 98.15 899.86 88.35"/>
          <polygon class="cls-11" points="852.13 76.94 850.98 102.84 874.17 110.87 874.18 86.74 852.13 76.94"/>
        </g>
        <g>
          <path class="cls-24" d="M667.6,369.78c22.01-16.12,101.15-47.54,101.15-47.54l86.93-6.76,147.82-139.62"/>
          <polygon class="cls-24" points="870.66 134.26 865.51 181.4 907.33 197.77 910.17 153.79 870.66 134.26"/>
          <polygon class="cls-24" points="899.28 89.66 896.52 118.03 921.5 128.16 922.9 101.69 899.28 89.66"/>
          <polygon class="cls-24" points="847.55 74.4 844.8 102.76 869.78 112.9 871.18 86.42 847.55 74.4"/>
        </g>
        <g>
          <path class="cls-26" d="M628.2,385.15c25.08-16.43,113.74-46.36,113.74-46.36l95.78-2.42,170.24-144.72"/>
          <polygon class="cls-26" points="864.59 138.37 856.22 189.81 901.18 210.18 906.83 162.07 864.59 138.37"/>
          <polygon class="cls-26" points="898.56 91.07 893.9 122.04 920.74 134.6 923.79 105.63 898.56 91.07"/>
          <polygon class="cls-26" points="842.67 71.35 838.02 102.31 864.85 114.87 867.91 85.9 842.67 71.35"/>
        </g>
        <g>
          <path class="cls-30" d="M584.09,399.75c28.46-16.59,127.48-44.33,127.48-44.33l105.25,2.85,195.15-149.02"/>
          <polygon class="cls-30" points="857.69 142.52 845.55 198.49 893.71 223.43 902.68 170.97 857.69 142.52"/>
          <polygon class="cls-30" points="897.69 92.58 890.8 126.29 919.52 141.62 924.54 110 897.69 92.58"/>
          <polygon class="cls-30" points="837.5 67.72 830.61 101.43 859.33 116.76 864.35 85.14 837.5 67.72"/>
        </g>
        <g>
          <path class="cls-3" d="M534.84,413.23c32.19-16.56,142.45-41.32,142.45-41.32l115.34,9.18,222.72-152.31"/>
          <polygon class="cls-3" points="849.88 146.69 833.34 207.41 884.76 237.55 897.61 180.49 849.88 146.69"/>
          <polygon class="cls-3" points="896.64 94.18 887.15 130.78 917.79 149.25 925.11 114.85 896.64 94.18"/>
          <polygon class="cls-3" points="832.02 63.44 822.52 100.04 853.16 118.51 860.49 84.1 832.02 63.44"/>
        </g>
        <g>
          <path class="cls-4" d="M480.02,425.2c36.28-16.33,158.7-37.15,158.7-37.15l126.04,16.71,253.18-154.34"/>
          <polygon class="cls-4" points="841.07 150.81 819.42 216.5 874.12 252.53 891.51 190.65 841.07 150.81"/>
          <polygon class="cls-4" points="895.41 95.88 882.88 135.5 915.44 157.53 925.46 120.19 895.41 95.88"/>
          <polygon class="cls-4" points="826.26 58.42 813.73 98.04 846.29 120.08 856.32 82.74 826.26 58.42"/>
        </g>
        <g>
          <path class="cls-19" d="M419.16,435.17c40.75-15.83,176.29-31.64,176.29-31.64l137.36,25.58,286.71-154.81"/>
          <polygon class="cls-19" points="831.17 154.83 803.63 225.67 861.58 268.36 884.22 201.45 831.17 154.83"/>
          <polygon class="cls-19" points="893.96 97.67 877.93 140.43 912.39 166.48 925.54 126.08 893.96 97.67"/>
          <polygon class="cls-19" points="820.23 52.59 804.2 95.35 838.66 121.4 851.81 81 820.23 52.59"/>
        </g>
        <g>
          <path class="cls-20" d="M351.81,442.62c45.63-15.03,195.28-24.58,195.28-24.58l149.26,35.97,323.54-153.39"/>
          <polygon class="cls-20" points="820.06 158.67 785.77 234.82 846.92 285 875.61 212.88 820.06 158.67"/>
          <polygon class="cls-20" points="892.26 99.55 872.21 145.56 908.53 176.13 925.28 132.55 892.26 99.55"/>
          <polygon class="cls-20" points="813.94 45.84 793.89 91.85 830.22 122.42 846.97 78.84 813.94 45.84"/>
        </g>
        <g>
          <path class="cls-5" d="M277.47,446.92c50.94-13.87,215.71-15.75,215.71-15.75l161.73,48.06,363.87-149.73"/>
          <polygon class="cls-5" points="807.66 162.24 765.65 243.84 829.86 302.42 865.5 224.93 807.66 162.24"/>
          <polygon class="cls-5" points="890.29 101.52 865.64 150.85 903.74 186.49 924.63 139.63 890.29 101.52"/>
          <polygon class="cls-5" points="807.43 38.08 782.78 87.41 820.89 123.04 841.77 76.19 807.43 38.08"/>
        </g>
        <g>
          <path class="cls-27" d="M195.65,447.36c56.69-12.29,237.63-4.87,237.63-4.87l174.72,62.04,407.92-143.38"/>
          <polygon class="cls-27" points="793.85 165.45 743.05 252.58 810.15 320.56 853.71 237.57 793.85 165.45"/>
          <polygon class="cls-27" points="888.01 103.57 858.13 156.29 897.89 197.59 923.5 147.37 888.01 103.57"/>
          <polygon class="cls-27" points="800.73 29.18 770.85 81.9 810.61 123.2 836.23 72.98 800.73 29.18"/>
        </g>
        <g>
          <path class="cls-21" d="M105.83,443.15c62.92-10.22,261.05,8.32,261.05,8.32l188.17,78.13,455.9-133.89"/>
          <polygon class="cls-21" points="778.5 168.18 717.75 260.88 787.47 339.34 840.05 250.77 778.5 168.18"/>
          <polygon class="cls-21" points="885.39 105.69 849.57 161.82 890.83 209.43 921.83 155.79 885.39 105.69"/>
          <polygon class="cls-21" points="793.89 19.03 758.07 75.16 799.33 122.77 830.33 69.13 793.89 19.03"/>
        </g>
        <g>
          <path class="cls-10" d="M7.5,433.35c69.64-7.6,286,24.14,286,24.14l202,96.57,508-120.71"/>
          <polygon class="cls-10" points="761.5 170.29 689.5 268.52 761.5 358.63 824.29 264.46 761.5 170.29"/>
          <polygon class="cls-10" points="882.4 107.86 839.86 167.4 882.4 222.02 919.5 164.94 882.4 107.86"/>
          <polygon class="cls-10" points="786.97 7.5 744.43 67.04 786.97 121.66 824.07 64.58 786.97 7.5"/>
        </g>
      </g>
      <circle class="cls-32" cx="657.5" cy="298.06" r="5"/>
      <circle class="cls-32" cx="692.5" cy="308.06" r="5"/>
      <circle class="cls-32" cx="676.5" cy="270.06" r="5"/>
      <circle class="cls-32" cx="731.5" cy="191.06" r="5"/>
      <circle class="cls-32" cx="664.5" cy="241.06" r="5"/>
      <circle class="cls-32" cx="630.5" cy="277.06" r="5"/>
    </g>
  </g>
</svg>