<?xml version="1.0" encoding="UTF-8"?>
<svg id="Layer_2" xmlns="http://www.w3.org/2000/svg" viewBox="0 0 1000 981.8">
  <defs>
    <style>
      .cls-1 {
        stroke-dasharray: 0 9.58;
        stroke-width: 2.87px;
      }

      .cls-1, .cls-2, .cls-3, .cls-4, .cls-5, .cls-6, .cls-7, .cls-8, .cls-9, .cls-10, .cls-11, .cls-12, .cls-13, .cls-14, .cls-15, .cls-16, .cls-17, .cls-18, .cls-19, .cls-20, .cls-21, .cls-22, .cls-23, .cls-24, .cls-25, .cls-26, .cls-27, .cls-28, .cls-29, .cls-30, .cls-31 {
        fill: none;
        stroke: #ff8d86;
        stroke-linecap: round;
        stroke-linejoin: round;
      }

      .cls-2 {
        stroke-dasharray: 0 5.44;
        stroke-width: 1.63px;
      }

      .cls-3 {
        stroke-dasharray: 0 3.73;
        stroke-width: 1.12px;
      }

      .cls-4 {
        stroke-dasharray: 0 27.04;
        stroke-width: 8.11px;
      }

      .cls-5 {
        stroke-dasharray: 0 39.43;
        stroke-width: 11.83px;
      }

      .cls-6 {
        stroke-dasharray: 0 35.88;
        stroke-width: 10.76px;
      }

      .cls-7 {
        stroke-dasharray: 0 24.6;
        stroke-width: 7.38px;
      }

      .cls-8 {
        stroke-dasharray: 0 4.95;
        stroke-width: 1.49px;
      }

      .cls-9 {
        stroke-dasharray: 0 3.4;
        stroke-width: 1.02px;
      }

      .cls-10 {
        stroke-dasharray: 0 29.71;
        stroke-width: 8.91px;
      }

      .cls-11 {
        stroke-dasharray: 0 10.53;
        stroke-width: 3.16px;
      }

      .cls-12 {
        stroke-dasharray: 0 22.39;
        stroke-width: 6.72px;
      }

      .cls-13 {
        stroke-dasharray: 0 16.87;
        stroke-width: 5.06px;
      }

      .cls-14 {
        stroke-dasharray: 0 8.72;
        stroke-width: 2.62px;
      }

      .cls-15 {
        stroke-dasharray: 0 43.33;
        stroke-width: 13px;
      }

      .cls-16 {
        stroke-dasharray: 0 7.22;
        stroke-width: 2.17px;
      }

      .cls-32 {
        fill: #ff8d86;
      }

      .cls-17 {
        stroke-dasharray: 0 2.81;
        stroke-width: .84px;
      }

      .cls-18 {
        stroke-dasharray: 0 7.93;
        stroke-width: 2.38px;
      }

      .cls-19 {
        stroke-dasharray: 0 18.54;
        stroke-width: 5.56px;
      }

      .cls-20 {
        stroke-dasharray: 0 20.37;
        stroke-width: 6.11px;
      }

      .cls-21 {
        stroke-dasharray: 0 12.71;
        stroke-width: 3.81px;
      }

      .cls-22 {
        stroke-dasharray: 0 4.1;
        stroke-width: 1.23px;
      }

      .cls-23 {
        stroke-dasharray: 0 3.09;
        stroke-width: .93px;
      }

      .cls-24 {
        stroke-dasharray: 0 15.35;
        stroke-width: 4.61px;
      }

      .cls-25 {
        stroke-dasharray: 0 11.57;
        stroke-width: 3.47px;
      }

      .cls-26 {
        stroke-dasharray: 0 5.98;
        stroke-width: 1.79px;
      }

      .cls-27 {
        stroke-dasharray: 0 32.65;
        stroke-width: 9.8px;
      }

      .cls-28 {
        stroke-dasharray: 0 2.56;
        stroke-width: .77px;
      }

      .cls-29 {
        stroke-dasharray: 0 6.57;
        stroke-width: 1.97px;
      }

      .cls-30 {
        stroke-dasharray: 0 4.51;
        stroke-width: 1.35px;
      }

      .cls-31 {
        stroke-dasharray: 0 13.97;
        stroke-width: 4.19px;
      }
    </style>
  </defs>
  <g id="high_good">
    <g>
      <circle class="cls-15" cx="496.1" cy="439.77" r="433.28"/>
      <circle class="cls-15" cx="479.64" cy="496.1" r="433.28"/>
      <g>
        <path class="cls-28" d="M518.57,455.78c0,14.13-11.46,25.59-25.59,25.59-14.13,0-25.59-11.46-25.59-25.59s11.46-25.59,25.59-25.59c14.13,0,25.59,11.46,25.59,25.59Z"/>
        <circle class="cls-17" cx="489.17" cy="455.9" r="28.12"/>
        <circle class="cls-23" cx="491.88" cy="452.69" r="30.9"/>
        <circle class="cls-9" cx="492.5" cy="457.26" r="33.95"/>
        <circle class="cls-3" cx="488.31" cy="454.41" r="37.31"/>
        <circle class="cls-22" cx="493.72" cy="453.08" r="41"/>
        <circle class="cls-30" cx="490.83" cy="458.47" r="45.06"/>
        <circle class="cls-8" cx="488.55" cy="452.15" r="49.51"/>
        <circle class="cls-2" cx="495.39" cy="454.94" r="54.41"/>
        <circle class="cls-26" cx="488.08" cy="458.47" r="59.79"/>
        <circle class="cls-29" cx="490.57" cy="449.91" r="65.7"/>
        <circle class="cls-16" cx="495.74" cy="458.24" r="72.2"/>
        <circle class="cls-18" cx="485.13" cy="456.33" r="79.34"/>
        <circle class="cls-14" cx="494.49" cy="449.07" r="87.19"/>
        <circle class="cls-1" cx="493.53" cy="462.05" r="95.81"/>
        <path class="cls-11" d="M378.35,451.73c0-58.15,47.14-105.29,105.29-105.29,58.15,0,105.29,47.14,105.29,105.29,0,58.15-47.14,105.29-105.29,105.29-58.15,0-105.29-47.14-105.29-105.29Z"/>
        <circle class="cls-25" cx="499.34" cy="451.24" r="115.7"/>
        <circle class="cls-21" cx="488.2" cy="464.43" r="127.15"/>
        <circle class="cls-31" cx="485.62" cy="445.63" r="139.72"/>
        <circle class="cls-24" cx="502.87" cy="457.35" r="153.54"/>
        <circle class="cls-13" cx="480.62" cy="462.81" r="168.72"/>
        <circle class="cls-19" cx="492.51" cy="440.62" r="185.41"/>
        <circle class="cls-20" cx="501.89" cy="466.65" r="203.75"/>
        <circle class="cls-12" cx="473.74" cy="455.17" r="223.9"/>
        <circle class="cls-7" cx="503.82" cy="440.62" r="246.04"/>
        <circle class="cls-4" cx="493.58" cy="475.88" r="270.38"/>
        <circle class="cls-10" cx="472.31" cy="441.59" r="297.12"/>
        <circle class="cls-27" cx="515.95" cy="449.44" r="326.5"/>
        <circle class="cls-6" cx="477.45" cy="479.31" r="358.8"/>
        <circle class="cls-5" cx="481.37" cy="425.91" r="394.28"/>
        <circle class="cls-15" cx="522.1" cy="468.37" r="433.28"/>
      </g>
      <circle class="cls-32" cx="839.25" cy="126.08" r="6.5"/>
      <circle class="cls-32" cx="93.15" cy="204.94" r="6.5"/>
      <circle class="cls-32" cx="50.69" cy="676.34" r="6.5"/>
      <circle class="cls-32" cx="909.45" cy="741.33" r="6.5"/>
      <circle class="cls-32" cx="959.71" cy="685.01" r="6.5"/>
      <circle class="cls-32" cx="913.78" cy="821.92" r="6.5"/>
      <circle class="cls-32" cx="17.76" cy="601.82" r="6.5"/>
      <circle class="cls-32" cx="37.69" cy="523.83" r="4.33"/>
      <circle class="cls-32" cx="6.5" cy="343.59" r="6.5"/>
      <circle class="cls-32" cx="188.47" cy="67.16" r="6.5"/>
      <circle class="cls-32" cx="427.64" cy="974.44" r="6.5"/>
      <circle class="cls-32" cx="780.33" cy="49.83" r="6.5"/>
      <circle class="cls-32" cx="993.5" cy="444.11" r="6.5"/>
      <circle class="cls-32" cx="149.48" cy="864.38" r="6.5"/>
      <circle class="cls-32" cx="58.06" cy="275.56" r="4.33"/>
      <circle class="cls-32" cx="804.16" cy="97.92" r="4.33"/>
      <circle class="cls-32" cx="943.67" cy="748.7" r="4.33"/>
      <circle class="cls-32" cx="890.81" cy="792.89" r="4.33"/>
      <circle class="cls-32" cx="389.08" cy="977.47" r="4.33"/>
      <circle class="cls-32" cx="140.38" cy="820.62" r="4.33"/>
      <circle class="cls-32" cx="977.47" cy="481.8" r="4.33"/>
    </g>
  </g>
</svg>