<?xml version="1.0" encoding="UTF-8"?>
<svg id="Layer_2" xmlns="http://www.w3.org/2000/svg" viewBox="0 0 1093.01 750">
  <defs>
    <style>
      .cls-1 {
        stroke-dasharray: 0 5.2;
        stroke-width: 1.56px;
      }

      .cls-1, .cls-2, .cls-3, .cls-4, .cls-5, .cls-6, .cls-7, .cls-8, .cls-9, .cls-10, .cls-11, .cls-12, .cls-13, .cls-14, .cls-15, .cls-16, .cls-17, .cls-18, .cls-19, .cls-20, .cls-21, .cls-22, .cls-23, .cls-24, .cls-25, .cls-26, .cls-27, .cls-28, .cls-29, .cls-30, .cls-31 {
        fill: none;
        stroke: #ff8d86;
        stroke-linecap: round;
        stroke-linejoin: round;
      }

      .cls-2 {
        stroke-dasharray: 0 25.84;
        stroke-width: 7.75px;
      }

      .cls-3 {
        stroke-dasharray: 0 7.58;
        stroke-width: 2.27px;
      }

      .cls-4 {
        stroke-dasharray: 0 23.51;
        stroke-width: 7.05px;
      }

      .cls-5 {
        stroke-dasharray: 0 31.2;
        stroke-width: 9.36px;
      }

      .cls-6 {
        stroke-dasharray: 0 45.5;
        stroke-width: 13.65px;
      }

      .cls-7 {
        stroke-dasharray: 0 2.95;
        stroke-width: .89px;
      }

      .cls-8 {
        stroke-dasharray: 0 14.67;
        stroke-width: 4.4px;
      }

      .cls-9 {
        stroke-dasharray: 0 19.47;
        stroke-width: 5.84px;
      }

      .cls-10 {
        stroke-dasharray: 0 6.28;
        stroke-width: 1.88px;
      }

      .cls-11 {
        stroke-dasharray: 0 50;
        stroke-width: 15px;
      }

      .cls-12 {
        stroke-dasharray: 0 4.31;
        stroke-width: 1.29px;
      }

      .cls-13 {
        stroke-dasharray: 0 12.15;
        stroke-width: 3.65px;
      }

      .cls-14 {
        stroke-dasharray: 0 17.72;
        stroke-width: 5.32px;
      }

      .cls-15 {
        stroke-dasharray: 0 10.06;
        stroke-width: 3.02px;
      }

      .cls-16 {
        stroke-dasharray: 0 13.35;
        stroke-width: 4.01px;
      }

      .cls-17 {
        stroke-dasharray: 0 3.24;
        stroke-width: .97px;
      }

      .cls-18 {
        stroke-dasharray: 0 28.39;
        stroke-width: 8.52px;
      }

      .cls-32 {
        fill: #ff8d86;
      }

      .cls-19 {
        stroke-dasharray: 0 4.73;
        stroke-width: 1.42px;
      }

      .cls-20 {
        stroke-dasharray: 0 37.68;
        stroke-width: 11.3px;
      }

      .cls-21 {
        stroke-dasharray: 0 5.71;
        stroke-width: 1.71px;
      }

      .cls-22 {
        stroke-dasharray: 0 21.4;
        stroke-width: 6.42px;
      }

      .cls-23 {
        stroke-dasharray: 0 9.16;
        stroke-width: 2.75px;
      }

      .cls-24 {
        stroke-dasharray: 0 8.33;
        stroke-width: 2.5px;
      }

      .cls-25 {
        stroke-dasharray: 0 6.9;
        stroke-width: 2.07px;
      }

      .cls-26 {
        stroke-dasharray: 0 3.57;
        stroke-width: 1.07px;
      }

      .cls-27 {
        stroke-dasharray: 0 3.92;
        stroke-width: 1.18px;
      }

      .cls-28 {
        stroke-dasharray: 0 41.4;
        stroke-width: 12.42px;
      }

      .cls-29 {
        stroke-dasharray: 0 11.06;
        stroke-width: 3.32px;
      }

      .cls-30 {
        stroke-dasharray: 0 34.29;
        stroke-width: 10.29px;
      }

      .cls-31 {
        stroke-dasharray: 0 16.12;
        stroke-width: 4.84px;
      }
    </style>
  </defs>
  <g id="high_good">
    <g>
      <g>
        <g>
          <ellipse class="cls-7" cx="548.1" cy="346.27" rx="14.76" ry="29.53" transform="translate(-98.08 398.81) rotate(-36.93)"/>
          <ellipse class="cls-7" cx="544.58" cy="353.81" rx="14.76" ry="29.53" transform="translate(-104.71 340.45) rotate(-31.83)"/>
          <circle class="cls-7" cx="545.87" cy="349.86" r="5.91"/>
        </g>
        <g>
          <ellipse class="cls-17" cx="547.2" cy="345.59" rx="16.22" ry="32.45" transform="translate(-65.99 552.63) rotate(-50.93)"/>
          <ellipse class="cls-17" cx="545.46" cy="354.58" rx="16.22" ry="32.45" transform="translate(-88.93 498.79) rotate(-45.83)"/>
          <circle class="cls-17" cx="545.79" cy="350.02" r="6.49"/>
        </g>
        <g>
          <ellipse class="cls-26" cx="546.07" cy="345.11" rx="17.83" ry="35.66" transform="translate(2.09 693.52) rotate(-64.93)"/>
          <ellipse class="cls-26" cx="546.6" cy="355.16" rx="17.83" ry="35.66" transform="translate(-35.14 649.25) rotate(-59.83)"/>
          <circle class="cls-26" cx="545.74" cy="350.21" r="7.13"/>
        </g>
        <g>
          <ellipse class="cls-27" cx="544.73" cy="344.9" rx="19.59" ry="39.18" transform="translate(101.67 813.29) rotate(-78.93)"/>
          <ellipse class="cls-27" cx="547.97" cy="355.47" rx="19.59" ry="39.18" transform="translate(53.98 782.79) rotate(-73.83)"/>
          <circle class="cls-27" cx="545.74" cy="350.43" r="7.84"/>
        </g>
        <g>
          <ellipse class="cls-12" cx="543.25" cy="345.04" rx="43.06" ry="21.53" transform="translate(-16.94 28.24) rotate(-2.93)"/>
          <ellipse class="cls-12" cx="549.51" cy="355.44" rx="21.53" ry="43.06" transform="translate(173.54 891.12) rotate(-87.83)"/>
          <circle class="cls-12" cx="545.79" cy="350.66" r="8.61"/>
        </g>
        <g>
          <ellipse class="cls-19" cx="541.71" cy="345.57" rx="47.32" ry="23.66" transform="translate(-77.16 172.74) rotate(-16.93)"/>
          <ellipse class="cls-19" cx="551.15" cy="355" rx="47.32" ry="23.66" transform="translate(-61.08 120.56) rotate(-11.83)"/>
          <circle class="cls-19" cx="545.91" cy="350.89" r="9.46"/>
        </g>
        <g>
          <ellipse class="cls-1" cx="540.21" cy="346.55" rx="52" ry="26" transform="translate(-101.3 326.96) rotate(-30.93)"/>
          <ellipse class="cls-1" cx="552.78" cy="354.1" rx="52" ry="26" transform="translate(-99.06 276.25) rotate(-25.83)"/>
          <circle class="cls-1" cx="546.1" cy="351.11" r="10.4"/>
        </g>
        <g>
          <ellipse class="cls-21" cx="538.87" cy="347.99" rx="57.14" ry="28.57" transform="translate(-88.4 482.21) rotate(-44.93)"/>
          <ellipse class="cls-21" cx="554.28" cy="352.7" rx="57.14" ry="28.57" transform="translate(-97.28 436.9) rotate(-39.83)"/>
          <circle class="cls-21" cx="546.36" cy="351.29" r="11.43"/>
        </g>
        <g>
          <ellipse class="cls-10" cx="537.82" cy="349.89" rx="62.79" ry="31.39" transform="translate(-39.43 629.99) rotate(-58.93)"/>
          <ellipse class="cls-10" cx="555.5" cy="350.81" rx="62.79" ry="31.39" transform="translate(-55.53 592.24) rotate(-53.83)"/>
          <circle class="cls-10" cx="546.69" cy="351.41" r="12.56"/>
        </g>
        <g>
          <ellipse class="cls-25" cx="537.21" cy="352.19" rx="69" ry="34.5" transform="translate(42.85 762.36) rotate(-72.93)"/>
          <ellipse class="cls-25" cx="556.31" cy="348.47" rx="69" ry="34.5" transform="translate(23.69 732.17) rotate(-67.83)"/>
          <circle class="cls-25" cx="547.07" cy="351.45" r="13.8"/>
        </g>
        <g>
          <ellipse class="cls-3" cx="537.16" cy="354.81" rx="75.82" ry="37.91" transform="translate(154.11 872.21) rotate(-86.93)"/>
          <ellipse class="cls-3" cx="556.54" cy="345.76" rx="75.82" ry="37.91" transform="translate(135.22 847.54) rotate(-81.83)"/>
          <circle class="cls-3" cx="547.48" cy="351.4" r="15.16"/>
        </g>
        <g>
          <ellipse class="cls-24" cx="537.82" cy="357.61" rx="41.66" ry="83.32" transform="translate(-58.06 108.48) rotate(-10.93)"/>
          <ellipse class="cls-24" cx="556.07" cy="342.81" rx="41.66" ry="83.32" transform="translate(-31.96 58.28) rotate(-5.83)"/>
          <circle class="cls-24" cx="547.91" cy="351.23" r="16.66"/>
        </g>
        <g>
          <ellipse class="cls-23" cx="539.25" cy="360.42" rx="45.78" ry="91.56" transform="translate(-101.68 260.9) rotate(-24.93)"/>
          <ellipse class="cls-23" cx="554.79" cy="339.79" rx="45.78" ry="91.56" transform="translate(-82.38 208.38) rotate(-19.83)"/>
          <circle class="cls-23" cx="548.32" cy="350.94" r="18.31"/>
        </g>
        <g>
          <ellipse class="cls-15" cx="541.54" cy="363.04" rx="50.31" ry="100.62" transform="translate(-107.85 420.93) rotate(-38.93)"/>
          <ellipse class="cls-15" cx="552.61" cy="336.91" rx="50.31" ry="100.62" transform="translate(-94.01 364.73) rotate(-33.83)"/>
          <circle class="cls-15" cx="548.68" cy="350.51" r="20.12"/>
        </g>
        <g>
          <ellipse class="cls-29" cx="544.67" cy="365.22" rx="55.28" ry="110.57" transform="translate(-75.06 579.67) rotate(-52.93)"/>
          <ellipse class="cls-29" cx="549.53" cy="334.42" rx="55.28" ry="110.57" transform="translate(-67.24 517.23) rotate(-47.83)"/>
          <circle class="cls-29" cx="548.95" cy="349.97" r="22.11"/>
        </g>
        <g>
          <ellipse class="cls-13" cx="548.58" cy="366.72" rx="60.75" ry="121.5" transform="translate(-3.76 727.74) rotate(-66.93)"/>
          <ellipse class="cls-13" cx="545.58" cy="332.58" rx="60.75" ry="121.5" transform="translate(-5.15 656.56) rotate(-61.83)"/>
          <circle class="cls-13" cx="549.1" cy="349.31" r="24.3"/>
        </g>
        <g>
          <ellipse class="cls-16" cx="553.16" cy="367.27" rx="66.76" ry="133.52" transform="translate(103.29 855.63) rotate(-80.93)"/>
          <ellipse class="cls-16" cx="540.88" cy="331.67" rx="66.76" ry="133.52" transform="translate(86.91 774.92) rotate(-75.83)"/>
          <circle class="cls-16" cx="549.08" cy="348.58" r="26.7"/>
        </g>
        <g>
          <ellipse class="cls-8" cx="558.18" cy="366.65" rx="146.73" ry="73.36" transform="translate(-29.45 49.34) rotate(-4.93)"/>
          <ellipse class="cls-8" cx="535.63" cy="331.95" rx="73.36" ry="146.73" transform="translate(202.11 866.61) rotate(-89.83)"/>
          <circle class="cls-8" cx="548.87" cy="347.8" r="29.35"/>
        </g>
        <g>
          <ellipse class="cls-31" cx="563.37" cy="364.64" rx="161.24" ry="80.62" transform="translate(-87.83 202.5) rotate(-18.93)"/>
          <ellipse class="cls-31" cx="530.1" cy="333.64" rx="161.24" ry="80.62" transform="translate(-64.4 136.42) rotate(-13.83)"/>
          <circle class="cls-31" cx="548.43" cy="347.02" r="32.25"/>
        </g>
        <g>
          <ellipse class="cls-14" cx="568.37" cy="361.13" rx="177.18" ry="88.59" transform="translate(-105 367.02) rotate(-32.93)"/>
          <ellipse class="cls-14" cx="524.66" cy="336.92" rx="177.18" ry="88.59" transform="translate(-96.61 283.93) rotate(-27.83)"/>
          <circle class="cls-14" cx="547.76" cy="346.31" r="35.44"/>
        </g>
        <g>
          <ellipse class="cls-9" cx="572.77" cy="356.05" rx="194.71" ry="97.35" transform="translate(-78.47 531.35) rotate(-46.93)"/>
          <ellipse class="cls-9" cx="519.73" cy="341.86" rx="194.71" ry="97.35" transform="translate(-95.53 433.78) rotate(-41.83)"/>
          <circle class="cls-9" cx="546.85" cy="345.73" r="38.94"/>
        </g>
        <g>
          <ellipse class="cls-22" cx="576.12" cy="349.47" rx="213.96" ry="106.98" transform="translate(-9.24 683.23) rotate(-60.93)"/>
          <ellipse class="cls-22" cx="515.78" cy="348.44" rx="213.96" ry="106.98" transform="translate(-62.19 579.51) rotate(-55.83)"/>
          <circle class="cls-22" cx="545.73" cy="345.36" r="42.79"/>
        </g>
        <g>
          <ellipse class="cls-4" cx="577.93" cy="341.56" rx="235.13" ry="117.56" transform="translate(97.87 810.82) rotate(-74.93)"/>
          <ellipse class="cls-4" cx="513.32" cy="356.5" rx="235.13" ry="117.56" transform="translate(1.7 715.44) rotate(-69.83)"/>
          <circle class="cls-4" cx="544.44" cy="345.25" r="47.03"/>
        </g>
        <g>
          <ellipse class="cls-2" cx="577.76" cy="332.65" rx="258.38" ry="129.19" transform="translate(234.4 904.1) rotate(-88.93)"/>
          <ellipse class="cls-2" cx="512.84" cy="365.75" rx="258.38" ry="129.19" transform="translate(94.11 836.33) rotate(-83.83)"/>
          <circle class="cls-2" cx="543.03" cy="345.49" r="51.68"/>
        </g>
        <g>
          <ellipse class="cls-18" cx="575.21" cy="323.19" rx="141.97" ry="283.93" transform="translate(-57.74 136.92) rotate(-12.93)"/>
          <ellipse class="cls-18" cx="514.79" cy="375.74" rx="141.97" ry="283.93" transform="translate(-46.4 73.66) rotate(-7.83)"/>
          <circle class="cls-18" cx="541.59" cy="346.11" r="56.79"/>
        </g>
        <g>
          <ellipse class="cls-5" cx="569.97" cy="313.78" rx="156.01" ry="312.02" transform="translate(-80.3 292.19) rotate(-26.93)"/>
          <ellipse class="cls-5" cx="519.53" cy="385.88" rx="156.01" ry="312.02" transform="translate(-106.24 220.89) rotate(-21.83)"/>
          <circle class="cls-5" cx="540.22" cy="347.16" r="62.4"/>
        </g>
        <g>
          <ellipse class="cls-30" cx="561.89" cy="305.14" rx="171.44" ry="342.87" transform="translate(-62.53 442.73) rotate(-40.93)"/>
          <ellipse class="cls-30" cx="527.27" cy="395.43" rx="171.44" ry="342.87" transform="translate(-131.69 383.52) rotate(-35.83)"/>
          <circle class="cls-30" cx="539.04" cy="348.64" r="68.57"/>
        </g>
        <g>
          <ellipse class="cls-20" cx="550.97" cy="298.07" rx="188.39" ry="376.79" transform="translate(-9.55 577.77) rotate(-54.93)"/>
          <ellipse class="cls-20" cx="538.07" cy="403.55" rx="188.39" ry="376.79" transform="translate(-117.38 554.42) rotate(-49.83)"/>
          <circle class="cls-20" cx="538.18" cy="350.53" r="75.36"/>
        </g>
        <g>
          <ellipse class="cls-28" cx="537.46" cy="293.44" rx="207.02" ry="414.05" transform="translate(70.43 689.48) rotate(-68.93)"/>
          <ellipse class="cls-28" cx="551.73" cy="409.34" rx="207.03" ry="414.05" transform="translate(-58.96 724.01) rotate(-63.83)"/>
          <circle class="cls-28" cx="537.76" cy="352.78" r="82.81"/>
        </g>
        <g>
          <ellipse class="cls-6" cx="521.81" cy="292.1" rx="227.5" ry="455" transform="translate(167.72 774) rotate(-82.93)"/>
          <ellipse class="cls-6" cx="567.85" cy="411.88" rx="227.5" ry="455" transform="translate(45.54 880.16) rotate(-77.83)"/>
          <circle class="cls-6" cx="537.91" cy="355.28" r="91"/>
        </g>
        <g>
          <ellipse class="cls-11" cx="504.78" cy="294.82" rx="500" ry="250" transform="translate(-31.89 63.07) rotate(-6.93)"/>
          <ellipse class="cls-11" cx="585.71" cy="410.3" rx="500" ry="250" transform="translate(-12.82 18.94) rotate(-1.83)"/>
          <circle class="cls-11" cx="538.74" cy="357.92" r="100"/>
        </g>
      </g>
      <circle class="cls-32" cx="726.39" cy="725.5" r="7.5"/>
      <circle class="cls-32" cx="797.39" cy="742.5" r="7.5"/>
      <circle class="cls-32" cx="842.39" cy="704.5" r="7.5"/>
      <circle class="cls-32" cx="914.39" cy="683.5" r="7.5"/>
      <circle class="cls-32" cx="677.39" cy="725.5" r="7.5"/>
      <circle class="cls-32" cx="456.39" cy="683.5" r="7.5"/>
      <circle class="cls-32" cx="356.39" cy="688.5" r="7.5"/>
      <circle class="cls-32" cx="336.39" cy="658.5" r="7.5"/>
      <circle class="cls-32" cx="275.39" cy="643.5" r="7.5"/>
      <circle class="cls-32" cx="168.38" cy="590.36" r="7.5"/>
      <circle class="cls-32" cx="852.39" cy="56.5" r="7.5"/>
      <circle class="cls-32" cx="892.38" cy="43.36" r="5"/>
      <circle class="cls-32" cx="982.39" cy="139.5" r="7.5"/>
      <circle class="cls-32" cx="1021.39" cy="217.5" r="5"/>
      <circle class="cls-32" cx="945.39" cy="84.5" r="7.5"/>
      <circle class="cls-32" cx="168.39" cy="66.5" r="7.5"/>
      <circle class="cls-32" cx="222.39" cy="7.5" r="7.5"/>
      <circle class="cls-32" cx="275.39" cy="17.5" r="7.5"/>
      <circle class="cls-32" cx="361.39" cy="7.5" r="7.5"/>
      <circle class="cls-32" cx="81.39" cy="149.5" r="7.5"/>
      <circle class="cls-32" cx="119.89" cy="109" r="5"/>
      <circle class="cls-32" cx="211.89" cy="55" r="5"/>
      <circle class="cls-32" cx="313.89" cy="6" r="5"/>
      <circle class="cls-32" cx="1041.89" cy="158" r="5"/>
      <circle class="cls-32" cx="985.38" cy="69.36" r="5"/>
      <circle class="cls-32" cx="902.89" cy="70" r="5"/>
      <circle class="cls-32" cx="905.89" cy="741" r="5"/>
      <circle class="cls-32" cx="782.89" cy="729" r="5"/>
      <circle class="cls-32" cx="407.89" cy="682" r="5"/>
      <circle class="cls-32" cx="304.89" cy="692" r="5"/>
      <circle class="cls-32" cx="218.89" cy="614" r="5"/>
      <circle class="cls-32" cx="139.89" cy="599" r="5"/>
    </g>
  </g>
</svg>