<?xml version="1.0" encoding="UTF-8"?>
<svg id="Layer_2" xmlns="http://www.w3.org/2000/svg" viewBox="0 0 858.08 1214.01">
  <defs>
    <style>
      .cls-1 {
        stroke-dasharray: 0 5.2;
        stroke-width: 1.04px;
      }

      .cls-1, .cls-2, .cls-3, .cls-4, .cls-5, .cls-6, .cls-7, .cls-8, .cls-9, .cls-10, .cls-11, .cls-12, .cls-13, .cls-14, .cls-15, .cls-16, .cls-17, .cls-18, .cls-19, .cls-20, .cls-21, .cls-22, .cls-23, .cls-24, .cls-25, .cls-26, .cls-27, .cls-28, .cls-29, .cls-30, .cls-31 {
        fill: none;
        stroke: #ff8d86;
        stroke-linecap: round;
        stroke-linejoin: round;
      }

      .cls-2 {
        stroke-dasharray: 0 3.24;
        stroke-width: .65px;
      }

      .cls-3 {
        stroke-dasharray: 0 25.84;
        stroke-width: 5.17px;
      }

      .cls-4 {
        stroke-dasharray: 0 8.33;
        stroke-width: 1.67px;
      }

      .cls-5 {
        stroke-dasharray: 0 14.67;
        stroke-width: 2.93px;
      }

      .cls-6 {
        stroke-dasharray: 0 11.06;
        stroke-width: 2.21px;
      }

      .cls-7 {
        stroke-dasharray: 0 10.06;
        stroke-width: 2.01px;
      }

      .cls-8 {
        stroke-dasharray: 0 45.5;
        stroke-width: 9.1px;
      }

      .cls-9 {
        stroke-dasharray: 0 31.2;
        stroke-width: 6.24px;
      }

      .cls-10 {
        stroke-dasharray: 0 2.95;
        stroke-width: .59px;
      }

      .cls-11 {
        stroke-dasharray: 0 4.31;
        stroke-width: .86px;
      }

      .cls-12 {
        stroke-dasharray: 0 7.58;
        stroke-width: 1.52px;
      }

      .cls-13 {
        stroke-dasharray: 0 19.47;
        stroke-width: 3.89px;
      }

      .cls-14 {
        stroke-dasharray: 0 12.15;
        stroke-width: 2.43px;
      }

      .cls-15 {
        stroke-dasharray: 0 50;
        stroke-width: 10px;
      }

      .cls-16 {
        stroke-dasharray: 0 6.9;
        stroke-width: 1.38px;
      }

      .cls-17 {
        stroke-dasharray: 0 17.72;
        stroke-width: 3.54px;
      }

      .cls-18 {
        stroke-dasharray: 0 13.35;
        stroke-width: 2.67px;
      }

      .cls-19 {
        stroke-dasharray: 0 28.39;
        stroke-width: 5.68px;
      }

      .cls-20 {
        stroke-dasharray: 0 6.28;
        stroke-width: 1.26px;
      }

      .cls-32 {
        fill: #ff8d86;
      }

      .cls-21 {
        stroke-dasharray: 0 4.73;
        stroke-width: .95px;
      }

      .cls-22 {
        stroke-dasharray: 0 21.4;
        stroke-width: 4.28px;
      }

      .cls-23 {
        stroke-dasharray: 0 5.71;
        stroke-width: 1.14px;
      }

      .cls-24 {
        stroke-dasharray: 0 3.57;
        stroke-width: .71px;
      }

      .cls-25 {
        stroke-dasharray: 0 3.92;
        stroke-width: .78px;
      }

      .cls-26 {
        stroke-dasharray: 0 9.16;
        stroke-width: 1.83px;
      }

      .cls-27 {
        stroke-dasharray: 0 41.4;
        stroke-width: 8.28px;
      }

      .cls-28 {
        stroke-dasharray: 0 23.51;
        stroke-width: 4.7px;
      }

      .cls-29 {
        stroke-dasharray: 0 34.29;
        stroke-width: 6.86px;
      }

      .cls-30 {
        stroke-dasharray: 0 37.68;
        stroke-width: 7.54px;
      }

      .cls-31 {
        stroke-dasharray: 0 16.12;
        stroke-width: 3.22px;
      }
    </style>
  </defs>
  <g id="high_good">
    <g>
      <g>
        <path class="cls-10" d="M453.7,580.31c2.19-.14,10.52,16.15,4.27,26.68-.83,1.4-2.91,4.37-6.51,6.82-4.36,2.96-6.92,2.42-11.15,5.73-3.79,2.96-4.93,5.89-5.65,5.52-.8-.42-.12-4.56,2.09-7.89,1.64-2.47,3.35-3.33,3.08-3.72-.47-.69-6.62.54-11.09,4.6-4.8,4.37-2.98,7.76-7.27,11.98-5.34,5.26-14.51,6.23-15.61,4.53-.75-1.16,2.68-2.82,5.13-6.66,7.05-11.03-4.97-22.68.35-39.14,1.98-6.11,5.14-9.16,7.25-10.73,5.26-3.91,12.32-4.81,13.06-3.56.75,1.25-5.87,2.91-7.79,9.04-1.92,6.14,2.97,10.1.32,16.48-1.44,3.49-4.2,5.42-3.74,5.88.45.45,3.68-.91,5.92-3.35,5.15-5.65.51-12.22,5.06-17.49,3.62-4.2,10.16-4.49,10.41-4.04.2.35-3.2,1.53-5.82,5.21-1.01,1.42-1.93,2.76-1.9,4.72.03,2.41,1.5,5.11,3.79,6.42,3.56,2.04,8.31,0,10.82-2.11,6.19-5.22,3.3-14.79,4.97-14.9Z"/>
        <path class="cls-2" d="M458.59,580.14c2.41.06,9.97,18.69,2.11,29.62-1.04,1.45-3.61,4.51-7.78,6.84-5.05,2.82-7.8,1.99-12.76,5.2-4.44,2.88-5.97,5.98-6.71,5.5-.84-.54.31-5,3.05-8.43,2.04-2.55,3.99-3.32,3.73-3.78-.44-.8-7.3-.05-12.58,3.97-5.68,4.32-4.01,8.21-9.11,12.42-6.35,5.25-16.48,5.43-17.52,3.46-.71-1.34,3.2-2.83,6.26-6.8,8.78-11.4-3.27-25.31,4.13-42.82,2.75-6.5,6.51-9.54,8.96-11.05,6.14-3.78,13.94-4.09,14.64-2.65.7,1.44-6.71,2.62-9.4,9.15-2.69,6.54,2.28,11.34-1.22,18.07-1.92,3.68-5.11,5.53-4.66,6.07.45.54,4.12-.64,6.8-3.1,6.18-5.69,1.73-13.33,7.22-18.66,4.37-4.25,11.55-3.94,11.78-3.42.18.4-3.65,1.36-6.87,5.14-1.24,1.45-2.38,2.84-2.54,4.98-.19,2.64,1.15,5.74,3.53,7.39,3.7,2.57,9.1.8,12.05-1.27,7.28-5.12,5.03-15.88,6.87-15.83Z"/>
        <path class="cls-24" d="M463.96,580.42c2.64.29,9.12,21.41-.52,32.63-1.28,1.49-4.38,4.59-9.17,6.74-5.8,2.61-8.73,1.43-14.46,4.47-5.13,2.73-7.1,5.97-7.87,5.38-.87-.67.81-5.44,4.14-8.94,2.47-2.6,4.68-3.25,4.45-3.78-.41-.92-7.98-.75-14.15,3.14-6.63,4.19-5.17,8.61-11.16,12.73-7.46,5.13-18.56,4.37-19.51,2.11-.65-1.53,3.77-2.79,7.5-6.84,10.7-11.64-1.16-28.02,8.63-46.48,3.63-6.86,8.04-9.82,10.87-11.24,7.08-3.55,15.66-3.14,16.28-1.5.63,1.65-7.6,2.23-11.16,9.11-3.58,6.9,1.41,12.63-3.07,19.66-2.45,3.84-6.13,5.57-5.69,6.2.44.63,4.57-.3,7.74-2.75,7.31-5.63,3.17-14.42,9.69-19.74,5.19-4.23,13.02-3.21,13.23-2.62.16.46-4.13,1.14-8.01,4.97-1.49,1.47-2.88,2.88-3.25,5.21-.47,2.87.71,6.39,3.16,8.43,3.81,3.17,9.88,1.75,13.31-.24,8.46-4.91,7.03-16.9,9.04-16.68Z"/>
        <path class="cls-25" d="M469.81,581.25c2.86.57,7.94,24.32-3.7,35.67-1.55,1.51-5.24,4.6-10.69,6.5-6.6,2.3-9.7.72-16.26,3.51-5.88,2.49-8.35,5.86-9.13,5.14-.89-.81,1.41-5.88,5.39-9.39,2.96-2.6,5.44-3.11,5.23-3.71-.36-1.04-8.67-1.59-15.79,2.09-7.66,3.95-6.49,8.93-13.44,12.86-8.65,4.91-20.73,3-21.56.44-.56-1.74,4.4-2.69,8.87-6.77,12.83-11.72,1.41-30.78,13.89-50.05,4.64-7.16,9.74-9.98,12.98-11.26,8.09-3.21,17.44-1.94,17.97-.08.53,1.86-8.53,1.71-13.09,8.91-4.58,7.21.33,13.96-5.24,21.23-3.05,3.97-7.24,5.51-6.82,6.25.42.73,5.03.1,8.74-2.27,8.54-5.47,4.86-15.49,12.5-20.68,6.09-4.14,14.56-2.26,14.73-1.6.13.52-4.63.86-9.25,4.68-1.77,1.47-3.42,2.88-4.06,5.39-.78,3.1.17,7.07,2.65,9.53,3.87,3.83,10.65,2.86,14.59,1.01,9.73-4.56,9.31-17.83,11.49-17.39Z"/>
        <path class="cls-11" d="M476.14,582.72c3.07.9,6.36,27.38-7.46,38.69-1.84,1.5-6.17,4.54-12.32,6.09-7.45,1.88-10.68-.14-18.14,2.28-6.67,2.17-9.7,5.61-10.49,4.75-.89-.98,2.11-6.3,6.8-9.76,3.49-2.57,6.25-2.89,6.08-3.56-.29-1.18-9.34-2.57-17.49.77-8.76,3.59-7.96,9.15-15.94,12.8-9.94,4.54-22.99,1.3-23.65-1.58-.45-1.96,5.07-2.52,10.36-6.57,15.16-11.6,4.5-33.56,20-53.46,5.76-7.39,11.62-9.99,15.28-11.09,9.16-2.74,19.28-.45,19.68,1.63.4,2.09-9.5,1.05-15.19,8.5-5.7,7.46-.97,15.32-7.77,22.74-3.72,4.06-8.46,5.33-8.06,6.19.39.84,5.5.6,9.78-1.64,9.87-5.17,6.8-16.49,15.66-21.44,7.06-3.95,16.16-1.08,16.28-.34.1.58-5.15.49-10.57,4.24-2.08,1.44-4.02,2.82-4.96,5.52-1.15,3.31-.49,7.75,1.99,10.68,3.87,4.57,11.38,4.15,15.88,2.51,11.09-4.06,11.9-18.62,14.24-17.94Z"/>
        <path class="cls-21" d="M482.93,584.93c3.28,1.28,4.34,30.58-11.88,41.64-2.15,1.47-7.19,4.38-14.07,5.49-8.33,1.35-11.68-1.17-20.07.76-7.51,1.73-11.16,5.21-11.94,4.19-.88-1.15,2.91-6.7,8.38-10.04,4.06-2.48,7.12-2.56,7-3.31-.21-1.32-9.98-3.7-19.22-.83-9.93,3.09-9.59,9.25-18.68,12.48-11.32,4.02-25.29-.78-25.74-4-.3-2.19,5.8-2.28,11.97-6.2,17.71-11.25,8.14-36.31,27.02-56.61,7.01-7.54,13.68-9.83,17.79-10.67,10.29-2.12,21.15,1.35,21.39,3.67.24,2.32-10.5.24-17.44,7.85-6.96,7.62-2.53,16.68-10.69,24.15-4.46,4.08-9.77,5.03-9.42,6,.35.96,5.97,1.18,10.86-.86,11.3-4.71,9.02-17.4,19.2-21.97,8.11-3.64,17.79.36,17.85,1.19.05.64-5.69.05-11.98,3.62-2.42,1.38-4.67,2.7-5.96,5.56-1.58,3.52-1.28,8.44,1.16,11.89,3.8,5.37,12.06,5.64,17.14,4.26,12.52-3.39,14.81-19.25,17.31-18.27Z"/>
        <path class="cls-1" d="M490.15,588c3.47,1.72,1.82,33.89-16.99,44.45-2.5,1.4-8.29,4.1-15.93,4.66-9.25.68-12.68-2.4-22.05-1.09-8.39,1.18-12.71,4.64-13.47,3.45-.86-1.35,3.83-7.05,10.14-10.18,4.68-2.32,8.04-2.12,7.98-2.96-.1-1.46-10.57-5.01-20.96-2.75-11.17,2.43-11.38,9.21-21.64,11.88-12.78,3.32-27.61-3.27-27.79-6.84-.12-2.42,6.56-1.94,13.69-5.64,20.47-10.62,12.38-38.97,35-59.39,8.4-7.58,15.91-9.45,20.5-9.98,11.47-1.33,23.02,3.51,23.06,6.07.04,2.57-11.52-.74-19.84,6.92-8.34,7.68-4.37,18.01-14.01,25.41-5.27,4.04-11.17,4.57-10.88,5.67.29,1.08,6.42,1.86,11.98.1,12.82-4.08,11.54-18.18,23.12-22.22,9.22-3.21,19.44,2.1,19.43,3.01,0,.71-6.23-.49-13.46,2.82-2.78,1.27-5.38,2.51-7.06,5.52-2.07,3.7-2.21,9.12.13,13.12,3.64,6.24,12.67,7.33,18.36,6.31,14.03-2.51,18.06-19.65,20.7-18.34Z"/>
        <path class="cls-23" d="M497.76,592.05c3.63,2.21-1.25,37.28-22.86,47.03-2.87,1.3-9.47,3.7-17.89,3.58-10.19-.14-13.65-3.84-24.03-3.3-9.3.49-14.36,3.86-15.08,2.48-.81-1.56,4.87-7.36,12.07-10.18,5.35-2.09,9-1.55,9.02-2.47.03-1.61-11.09-6.5-22.68-5.01-12.46,1.59-13.34,9-24.83,10.93-14.31,2.41-29.91-6.23-29.77-10.15.1-2.66,7.37-1.49,15.53-4.86,23.42-9.66,17.29-41.47,44-61.66,9.92-7.5,18.32-8.82,23.4-8.96,12.68-.36,24.87,6.04,24.66,8.85-.2,2.81-12.54-1.91-22.39,5.68-9.87,7.6-6.51,19.3-17.77,26.48-6.16,3.92-12.67,3.93-12.46,5.16.21,1.21,6.85,2.65,13.1,1.25,14.43-3.23,14.38-18.8,27.44-22.11,10.4-2.63,21.08,4.16,20.98,5.16-.08.77-6.77-1.14-15,1.8-3.16,1.13-6.13,2.23-8.25,5.37-2.62,3.85-3.29,9.77-1.12,14.38,3.39,7.18,13.17,9.23,19.49,8.67,15.6-1.4,21.65-19.78,24.42-18.1Z"/>
        <path class="cls-20" d="M505.7,597.21c3.76,2.77-4.94,40.69-29.52,49.3-3.27,1.14-10.72,3.14-19.93,2.2-11.14-1.13-14.57-5.51-25.99-5.92-10.23-.36-16.09,2.85-16.74,1.27-.74-1.78,6.03-7.59,14.19-9.98,6.06-1.78,10-.84,10.11-1.84.18-1.76-11.51-8.17-24.35-7.66-13.79.55-15.47,8.57-28.23,9.58-15.89,1.26-32.15-9.68-31.62-13.97.36-2.91,8.21-.93,17.47-3.83,26.57-8.33,22.9-43.75,54.08-63.28,11.58-7.26,20.9-7.9,26.47-7.57,13.92.82,26.64,9,26.15,12.05-.49,3.06-13.54-3.29-25.05,4.07-11.53,7.38-8.97,20.51-21.99,27.28-7.12,3.7-14.25,3.09-14.13,4.46.11,1.35,7.24,3.56,14.22,2.63,16.1-2.16,17.54-19.2,32.15-21.57,11.64-1.89,22.68,6.57,22.48,7.65-.16.84-7.31-1.89-16.6.53-3.57.93-6.92,1.86-9.55,5.08-3.23,3.96-4.54,10.38-2.6,15.63,3.02,8.18,13.53,11.37,20.51,11.35,17.22-.04,25.6-19.58,28.46-17.47Z"/>
        <path class="cls-16" d="M513.9,603.63c3.85,3.39-9.31,44.07-37.04,51.14-3.68.94-12.04,2.41-22.02.5-12.09-2.31-15.43-7.43-27.89-8.97-11.16-1.37-17.89,1.58-18.45-.21-.63-2.02,7.33-7.73,16.49-9.57,6.8-1.37,11.03.04,11.24-1.05.37-1.91-11.82-10.05-25.92-10.72-15.15-.72-17.75,7.9-31.82,7.79-17.52-.14-34.27-13.68-33.27-18.32.67-3.15,9.08-.23,19.49-2.52,29.88-6.58,29.26-45.7,65.26-64.1,13.37-6.83,23.64-6.64,29.7-5.75,15.16,2.23,28.31,12.4,27.47,15.7-.83,3.3-14.51-4.9-27.81,2.06-13.33,6.97-11.79,21.59-26.69,27.76-8.15,3.37-15.89,2.02-15.9,3.52,0,1.49,7.59,4.59,15.32,4.24,17.84-.82,21.04-19.34,37.27-20.53,12.92-.95,24.2,9.37,23.87,10.53-.25.9-7.82-2.77-18.22-1.01-4,.68-7.75,1.37-10.94,4.65-3.92,4.03-5.96,10.93-4.34,16.87,2.52,9.25,13.72,13.74,21.36,14.39,18.85,1.61,29.9-18.99,32.83-16.4Z"/>
        <path class="cls-12" d="M522.26,611.44c3.9,4.08-14.41,47.35-45.45,52.44-4.12.68-13.41,1.49-24.16-1.56-13.01-3.68-16.17-9.61-29.67-12.49-12.09-2.57-19.73.02-20.18-2-.5-2.27,8.77-7.76,18.97-8.9,7.58-.85,12.07,1.1,12.41-.07.59-2.05-11.98-12.14-27.35-14.22-16.52-2.24-20.19,6.95-35.58,5.48-19.16-1.83-36.2-18.25-34.67-23.24,1.04-3.38,9.96.62,21.58-.9,33.34-4.34,36.41-47.22,77.58-63.92,15.29-6.2,26.52-5.01,33.07-3.45,16.38,3.89,29.8,16.29,28.57,19.82-1.23,3.54-15.41-6.76-30.65-.41-15.26,6.36-14.97,22.5-31.87,27.83-9.24,2.91-17.59.69-17.74,2.33-.15,1.63,7.86,5.75,16.36,6.11,19.6.81,24.89-19.16,42.76-18.91,14.24.2,25.59,12.57,25.13,13.82-.36.96-8.29-3.78-19.85-2.85-4.44.36-8.62.76-12.42,4.04-4.68,4.04-7.58,11.39-6.37,18.05,1.88,10.37,13.7,16.36,22.01,17.8,20.48,3.56,34.55-17.92,37.51-14.81Z"/>
        <path class="cls-4" d="M530.66,620.78c3.87,4.84-20.31,50.46-54.78,53.05-4.58.34-14.82.34-26.3-4.02-13.89-5.28-16.79-12.07-31.28-16.51-12.99-3.97-21.6-1.87-21.9-4.12-.33-2.54,10.34-7.65,21.62-7.92,8.38-.2,13.11,2.36,13.59,1.11.84-2.19-11.95-14.43-28.58-18.18-17.87-4.03-22.77,5.67-39.47,2.59-20.8-3.84-37.88-23.45-35.73-28.76,1.46-3.6,10.84,1.63,23.71,1.09,36.92-1.56,44.38-48.21,91.05-62.54,17.33-5.32,29.51-2.94,36.53-.61,17.56,5.83,31.06,20.68,29.38,24.43-1.68,3.75-16.23-8.87-33.51-3.39-17.32,5.5-18.54,23.2-37.56,27.42-10.4,2.3-19.32-.93-19.64.86-.32,1.77,8.06,7.05,17.33,8.25,21.38,2.77,29.08-18.59,48.62-16.61,15.57,1.58,26.81,16.22,26.18,17.53-.49,1.02-8.72-4.94-21.46-5.02-4.9-.03-9.51,0-13.99,3.23-5.51,3.97-9.38,11.75-8.7,19.15,1.06,11.53,13.44,19.22,22.39,21.6,22.08,5.86,39.54-16.31,42.49-12.62Z"/>
        <path class="cls-26" d="M538.97,631.82c3.78,5.67-27.07,53.29-65.05,52.83-5.05-.06-16.26-1.05-28.4-6.92-14.71-7.11-17.22-14.82-32.67-21.07-13.83-5.59-23.47-4.12-23.58-6.6-.12-2.81,12.05-7.39,24.43-6.6,9.19.58,14.13,3.84,14.77,2.52,1.13-2.32-11.7-16.94-29.54-22.64-19.18-6.12-25.47,4.03-43.46-.94-22.41-6.19-39.22-29.3-36.36-34.91,1.94-3.8,11.72,2.82,25.85,3.46,40.56,1.83,53.2-48.53,105.66-59.75,19.49-4.17,32.58-.4,40.05,2.83,18.67,8.06,32.02,25.62,29.82,29.56-2.2,3.95-16.91-11.27-36.36-6.92-19.48,4.36-22.52,23.62-43.74,26.42-11.6,1.53-21.07-2.87-21.59-.94-.52,1.91,8.15,8.49,18.18,10.69,23.14,5.08,33.61-17.56,54.82-13.52,16.89,3.22,27.8,20.32,26.98,21.7-.63,1.07-9.07-6.24-23.01-7.55-5.36-.5-10.41-.9-15.62,2.2-6.41,3.82-11.4,11.96-11.36,20.13.06,12.72,12.87,22.33,22.44,25.79,23.61,8.53,44.84-14.07,47.72-9.75Z"/>
        <path class="cls-7" d="M547,644.7c3.59,6.57-34.73,55.75-76.27,51.6-5.52-.55-17.7-2.7-30.43-10.29-15.42-9.19-17.43-17.88-33.74-26.19-14.61-7.45-25.3-6.75-25.18-9.49.14-3.09,13.9-6.93,27.37-4.89,10,1.52,15.1,5.56,15.93,4.17,1.46-2.43-11.19-19.67-30.17-27.62-20.41-8.54-28.27,1.97-47.48-5.2-23.94-8.93-40.13-35.83-36.46-41.69,2.49-3.98,12.56,4.21,27.97,6.26,44.23,5.89,62.88-48.03,121.4-55.29,21.73-2.7,35.71,2.69,43.57,6.93,19.66,10.62,32.6,31.11,29.82,35.22-2.79,4.11-17.44-13.96-39.14-11.06-21.75,2.91-26.92,23.7-50.42,24.73-12.85.56-22.79-5.16-23.54-3.1-.75,2.04,8.1,10.08,18.88,13.45,24.85,7.77,38.48-16.01,61.31-9.55,18.18,5.14,28.49,24.91,27.46,26.34-.8,1.11-9.33-7.7-24.46-10.47-5.82-1.06-11.31-1.99-17.31.91-7.38,3.57-13.62,12-14.37,20.94-1.16,13.93,11.95,25.67,22.1,30.38,25.03,11.6,50.44-11.11,53.17-6.1Z"/>
        <path class="cls-6" d="M554.57,659.57c3.3,7.54-43.36,57.7-88.43,49.19-5.99-1.13-19.11-4.65-32.33-14.18-16-11.54-17.37-21.24-34.43-31.91-15.28-9.55-27.05-9.82-26.65-12.8.45-3.37,15.88-6.26,30.44-2.73,10.81,2.62,15.99,7.53,17.04,6.09,1.83-2.52-10.36-22.6-30.38-33.12-21.52-11.31-31.14-.55-51.49-10.24-25.35-12.06-40.5-43.07-35.92-49.14,3.11-4.11,13.34,5.81,30.01,9.53,47.85,10.68,73.44-46.55,138.19-48.9,24.05-.87,38.83,6.36,47.04,11.76,20.51,13.5,32.71,37.18,29.27,41.41-3.45,4.24-17.75-16.95-41.79-15.85-24.08,1.1-31.74,23.37-57.56,22.24-14.12-.62-24.45-7.83-25.47-5.65-1.01,2.16,7.91,11.81,19.38,16.53,26.46,10.89,43.66-13.84,68.03-4.59,19.41,7.37,28.8,30,27.54,31.46-.98,1.14-9.48-9.32-25.78-13.8-6.27-1.72-12.19-3.26-19.04-.66-8.42,3.2-16.06,11.83-17.73,21.55-2.6,15.14,10.62,29.25,21.28,35.37,26.29,15.1,56.28-7.33,58.79-1.59Z"/>
        <path class="cls-14" d="M561.42,676.57c2.89,8.57-53,59.02-101.52,45.38-6.45-1.81-20.48-6.92-34.03-18.62-16.41-14.16-16.98-24.92-34.63-38.23-15.81-11.92-28.67-13.34-27.95-16.56.81-3.64,17.98-5.33,33.58-.07,11.58,3.9,16.79,9.78,18.07,8.3,2.24-2.59-9.18-25.74-30.09-39.17-22.48-14.44-34.03-3.58-55.38-16.14-26.6-15.64-40.22-51.03-34.61-57.23,3.8-4.21,14.05,7.64,31.94,13.31,51.36,16.28,84.86-43.93,155.96-40.29,26.41,1.35,41.9,10.68,50.36,17.38,21.16,16.75,32.25,43.83,28.08,48.13-4.18,4.31-17.81-20.25-44.23-21.36-26.47-1.1-36.98,22.55-65.14,18.84-15.4-2.03-26.02-10.91-27.35-8.62-1.32,2.27,7.52,13.68,19.63,19.95,27.92,14.45,49.12-10.97,74.91,1.5,20.55,9.93,28.65,35.6,27.14,37.08-1.18,1.16-9.48-11.11-26.9-17.58-6.7-2.49-13.03-4.73-20.78-2.54-9.53,2.69-18.72,11.41-21.48,21.9-4.3,16.33,8.83,33.04,19.91,40.76,27.33,19.05,62.31-2.63,64.51,3.89Z"/>
        <path class="cls-18" d="M567.3,695.84c2.35,9.66-63.67,59.53-115.48,39.95-6.88-2.6-21.75-9.54-35.47-23.65-16.61-17.08-16.2-28.9-34.25-45.16-16.17-14.57-30.11-17.35-29.01-20.81,1.24-3.91,20.2-4.11,36.77,3.13,12.3,5.38,17.44,12.31,18.99,10.81,2.7-2.62-7.58-29.06-29.19-45.76-23.22-17.96-36.91-7.18-59.08-22.97-27.62-19.66-39.14-59.71-32.41-65.97,4.56-4.24,14.65,9.71,33.69,17.63,54.67,22.74,97.1-39.96,174.59-29.17,28.78,4.01,44.85,15.71,53.47,23.85,21.56,20.36,31.11,51.07,26.13,55.38-4.99,4.31-17.56-23.88-46.37-27.61-28.87-3.74-42.65,21.14-73.12,14.38-16.66-3.7-27.44-14.44-29.11-12.06-1.66,2.36,6.93,15.7,19.58,23.72,29.18,18.5,54.82-7.3,81.87,8.81,21.54,12.84,27.96,41.71,26.15,43.19-1.4,1.15-9.32-13.07-27.76-21.82-7.1-3.36-13.81-6.43-22.51-4.78-10.69,2.04-21.58,10.7-25.61,21.91-6.27,17.46,6.5,37.01,17.89,46.53,28.1,23.47,68.47,3.09,70.25,10.44Z"/>
        <path class="cls-5" d="M571.88,717.5c1.64,10.79-75.4,59.07-130.25,32.68-7.29-3.51-22.9-12.53-36.57-29.28-16.54-20.28-14.97-33.19-33.17-52.72-16.3-17.49-31.3-21.87-29.77-25.56,1.73-4.16,22.5-2.57,39.95,6.95,12.95,7.07,17.91,15.15,19.75,13.66,3.21-2.61-5.52-32.53-27.57-52.89-23.7-21.88-39.72-11.4-62.48-30.8-28.35-24.17-37.13-69.12-29.16-75.32,5.4-4.21,15.1,12.03,35.2,22.53,57.67,30.13,110.13-34.45,193.93-15.22,31.12,7.14,47.59,21.49,56.25,31.23,21.65,24.35,29.16,58.89,23.3,63.13-5.87,4.25-16.93-27.82-48.12-34.67-31.25-6.86-48.71,19.06-81.42,8.74-17.88-5.64-28.65-18.43-30.71-15.99-2.04,2.42,6.08,17.85,19.16,27.84,30.18,23.05,60.71-2.75,88.78,17.49,22.35,16.12,26.61,48.34,24.5,49.79-1.65,1.13-8.95-15.2-28.3-26.54-7.45-4.36-14.51-8.36-24.18-7.38-11.9,1.21-24.65,9.65-30.13,21.54-8.53,18.51,3.57,41.14,15.13,52.65,28.51,28.38,74.66,9.94,75.91,18.16Z"/>
        <path class="cls-31" d="M574.83,741.64c.77,11.97-88.2,57.44-145.71,23.3-7.64-4.54-23.87-15.91-37.23-35.56-16.17-23.79-13.21-37.77-31.26-60.89-16.17-20.71-32.17-26.94-30.14-30.83,2.29-4.39,24.88-.65,43.07,11.44,13.5,8.98,18.16,18.3,20.31,16.84,3.76-2.54-2.93-36.14-25.12-60.54-23.85-26.22-42.39-16.28-65.45-39.7-28.72-29.18-34.02-79.22-24.71-85.25,6.31-4.09,15.38,14.62,36.37,28.03,60.25,38.51,123.86-27.17,213.75,1.92,33.39,10.8,50.04,28.09,58.59,39.58,21.37,28.73,26.28,67.26,19.46,71.34-6.83,4.09-15.87-32.08-49.36-42.56-33.55-10.51-55.15,16.2-89.97,1.77-19.04-7.89-29.6-22.92-32.09-20.45-2.47,2.45,4.95,20.12,18.31,32.31,30.83,28.12,66.73,2.81,95.51,27.65,22.93,19.78,24.5,55.47,22.05,56.85-1.91,1.08-8.34-17.5-28.44-31.77-7.73-5.49-15.08-10.54-25.76-10.4-13.14.18-27.91,8.2-35.05,20.69-11.11,19.45-.03,45.38,11.52,59.08,28.49,33.8,80.77,18.03,81.36,27.15Z"/>
        <path class="cls-17" d="M575.75,768.36c-.31,13.18-102.06,54.44-161.75,11.55-7.93-5.7-24.61-19.7-37.35-42.49-15.42-27.59-10.84-42.61-28.39-69.65-15.72-24.22-32.64-32.58-30.04-36.64,2.93-4.58,27.3,1.67,46.05,16.65,13.92,11.12,18.13,21.77,20.62,20.38,4.36-2.43.26-39.85-21.7-68.68-23.6-30.99-44.85-21.88-67.84-49.73-28.65-34.69-29.66-89.98-18.89-95.69,7.3-3.87,15.44,17.48,37.13,34.17,62.27,47.92,138.19-17.88,233.81,22.57,35.52,15.02,52.09,35.54,60.34,48.94,20.64,33.5,22.33,76.15,14.47,79.96-7.87,3.82-14.3-36.64-49.95-51.32-35.72-14.72-61.93,12.45-98.66-6.68-20.08-10.46-30.21-27.93-33.17-25.46-2.93,2.45,3.49,22.5,16.95,37.13,31.05,33.73,72.78,9.47,101.91,39.41,23.2,23.85,21.51,63.07,18.69,64.35-2.19.99-7.45-19.96-28.09-37.5-7.94-6.75-15.5-12.99-27.21-13.85-14.4-1.06-31.34,6.31-40.35,19.29-14.03,20.23-4.38,49.67,6.95,65.78,27.96,39.73,86.7,27.47,86.46,37.51Z"/>
        <path class="cls-13" d="M574.19,797.69c-1.6,14.4-116.94,49.82-178.17-2.85-8.14-7-25.05-23.92-36.81-50.1-14.24-31.68-7.79-47.69-24.41-78.97-14.89-28.02-32.61-38.79-29.38-42.98,3.65-4.74,29.73,4.44,48.82,22.63,14.18,13.51,17.76,25.57,20.62,24.29,5.01-2.24,4.1-43.6-17.17-77.26-22.87-36.19-47-28.25-69.51-60.94-28.04-40.72-23.85-101.34-11.51-106.56,8.36-3.54,15.23,20.61,37.38,40.97,63.57,58.42,152.99-6.33,253.8,47.1,37.44,19.85,53.62,43.89,61.37,59.36,19.39,38.65,17.15,85.5,8.18,88.92-8.98,3.43-12.15-41.48-49.77-60.97-37.7-19.53-68.98,7.7-107.36-16.76-20.99-13.37-30.4-33.47-33.88-31.04-3.45,2.4,1.66,24.97,15,42.27,30.77,39.9,78.77,17.33,107.79,52.91,23.12,28.34,17.51,71.1,14.3,72.23-2.5.88-6.25-22.56-27.16-43.74-8.05-8.15-15.72-15.7-28.46-17.77-15.66-2.54-34.92,3.9-46.02,17.25-17.3,20.8-9.56,53.96,1.31,72.68,26.8,46.18,92.28,38.38,91.06,49.35Z"/>
        <path class="cls-22" d="M569.67,829.66c-3.13,15.61-132.79,43.34-194.78-20.19-8.24-8.44-25.13-28.59-35.5-58.37-12.55-36.05-3.96-52.95-19.16-88.79-13.62-32.1-31.98-45.58-28.04-49.87,4.45-4.84,32.12,7.71,51.28,29.45,14.22,16.15,16.99,29.69,20.25,28.56,5.7-1.97,8.66-47.33-11.4-86.23-21.57-41.81-48.74-35.43-70.25-73.37-26.79-47.26-16.4-113.23-2.4-117.76,9.49-3.07,14.7,24.02,37,48.43,64,70.05,168.09,7.72,273.33,75.87,39.09,25.31,54.49,53.19,61.5,70.86,17.52,44.17,10.59,95.24.44,98.13-10.16,2.89-9.33-46.57-48.65-71.51-39.4-24.99-76.25,1.82-115.93-28.63-21.69-16.65-30.07-39.55-34.11-37.23-4,2.3-.57,27.49,12.37,47.71,29.86,46.63,84.57,26.52,112.93,68.24,22.59,33.23,12.36,79.51,8.73,80.44-2.82.72-4.68-25.29-25.55-50.49-8.03-9.69-15.71-18.7-29.45-22.18-16.9-4.28-38.6.93-52.03,14.48-20.93,21.12-15.63,58.16-5.53,79.69,24.91,53.12,97.34,50.85,94.96,62.74Z"/>
        <path class="cls-28" d="M561.67,864.22c-4.92,16.79-149.52,34.72-211.29-40.75-8.21-10.03-24.78-33.7-33.28-67.3-10.29-40.66.74-58.34-12.47-99.04-11.83-36.45-30.65-52.96-25.92-57.28,5.33-4.87,34.42,11.51,53.31,37.15,14.02,19.04,15.76,34.13,19.43,33.21,6.43-1.61,14.02-50.99-4.22-95.48-19.6-47.83-49.97-43.46-69.88-87.05-24.8-54.3-7.11-125.52,8.65-129.14,10.69-2.45,13.79,27.7,35.86,56.56,63.35,82.81,183.27,24.55,291.95,109.24,40.36,31.45,54.56,63.44,60.54,83.46,14.95,50.03,2.47,105.28-8.92,107.46-11.4,2.19-5.75-51.87-46.4-82.94-40.74-31.13-83.65-5.31-124.17-42.45-22.15-20.3-29.13-46.18-33.78-44.02-4.6,2.13-3.26,30.04,8.97,53.41,28.22,53.91,90.04,37.13,117.09,85.52,21.55,38.55,5.91,88.23,1.86,88.9-3.15.52-2.7-28.14-23.13-57.72-7.86-11.38-15.4-21.97-30.12-27.1-18.09-6.31-42.34-2.68-58.35,10.87-24.93,21.11-22.68,62.17-13.69,86.71,22.19,60.53,101.69,64.99,97.94,77.78Z"/>
        <path class="cls-3" d="M549.6,901.28c-7,17.91-167,23.69-227.4-64.85-8.02-11.76-23.9-39.27-29.98-76.86-7.37-45.5,6.4-63.8-4.17-109.61-9.46-41.03-28.48-60.92-22.89-65.19,6.3-4.82,36.58,15.9,54.8,45.78,13.53,22.18,13.98,38.87,18.09,38.21,7.19-1.15,20.23-54.48,4.52-104.93-16.88-54.24-50.54-52.36-68.16-101.99-21.95-61.82,4.24-138.09,21.84-140.54,11.93-1.66,12.44,31.65,33.84,65.35,61.42,96.72,198.28,44.43,309.14,147.54,41.17,38.3,53.65,74.68,58.28,97.16,11.57,56.2-7.38,115.48-20.06,116.79-12.69,1.31-1.33-57.34-42.86-95.24-41.61-37.98-91.07-13.83-131.86-58.36-22.31-24.35-27.47-53.34-32.76-51.43-5.24,1.89-6.44,32.57,4.71,59.33,25.73,61.71,95.01,49.27,119.99,104.84,19.9,44.26-1.98,97.15-6.48,97.5-3.5.27-.26-31.06-19.79-65.4-7.51-13.21-14.76-25.53-30.37-32.55-19.2-8.64-46.09-6.99-64.91,6.31-29.31,20.72-30.78,65.88-23.29,93.61,18.49,68.39,105.1,80.89,99.77,94.53Z"/>
        <path class="cls-19" d="M532.83,940.7c-9.38,18.93-185.09,9.94-242.73-92.77-7.66-13.65-22.4-45.28-25.46-87.01-3.71-50.52,13.11-69.23,5.94-120.39-6.43-45.83-25.34-69.41-18.82-73.55,7.36-4.67,38.52,20.91,55.61,55.36,12.69,25.58,11.58,43.89,16.15,43.57,7.98-.57,27.36-57.7,15-114.44-13.28-61-50.31-62.16-64.85-118.17-18.11-69.78,17.86-150.77,37.37-151.76,13.22-.68,10.59,35.84,30.79,74.78,57.98,111.77,212.81,67.62,324.29,191.13,41.41,45.87,51.58,86.89,54.5,111.95,7.29,62.63-19.14,125.72-33.14,125.93-14.02.21,4.04-62.89-37.79-108.37-41.92-45.57-98.37-23.86-138.76-76.52-22.09-28.79-24.96-61.02-30.94-59.44-5.92,1.57-10.18,35.04-.53,65.4,22.26,70.02,99.29,63.04,121.31,126.26,17.54,50.36-11.47,106.16-16.43,106.11-3.86-.04,2.69-34.03-15.4-73.49-6.96-15.18-13.71-29.36-30.13-38.54-20.19-11.29-49.79-12.07-71.67.69-34.08,19.88-40.01,69.18-34.46,100.24,13.69,76.64,107.31,98.62,100.17,113.04Z"/>
        <path class="cls-9" d="M510.7,982.25c-12.08,19.83-203.57-6.84-256.84-124.81-7.08-15.67-20.18-51.71-19.54-97.69.78-55.66,20.99-74.53,18.03-131.23-2.65-50.78-21.09-78.41-13.56-82.32,8.51-4.41,40.17,26.58,55.58,65.93,11.44,29.22,8.48,49.16,13.5,49.24,8.79.14,35.48-60.54,27.38-123.84-8.7-68.04-49.12-72.86-59.67-135.58-13.14-78.13,34-163.34,55.44-162.56,14.54.53,8.16,40.25,26.54,84.81,52.76,127.91,226.49,94.41,336.7,240.29,40.94,54.18,48.15,100.06,48.94,127.77,1.98,69.27-32.99,135.79-48.34,134.68-15.37-1.11,10.44-68.47-30.99-122.25-41.52-53.9-105.4-35.54-144.58-97.05-21.42-33.63-21.48-69.19-28.18-68.03-6.63,1.15-14.5,37.39-6.84,71.54,17.66,78.79,102.66,78.52,120.71,149.84,14.38,56.81-22.73,115.12-28.15,114.59-4.22-.41,6.21-36.99-9.83-81.93-6.17-17.28-12.2-33.45-29.3-45.08-21.03-14.3-53.35-17.98-78.52-6.11-39.21,18.5-50.42,71.9-47.32,106.44,7.65,85.21,108.03,118.24,98.83,133.34Z"/>
        <path class="cls-29" d="M482.5,1025.62c-15.12,20.55-222.2-26.99-269.21-161.23-6.25-17.83-17.14-58.54-12.03-108.81,6.18-60.85,30.11-79.58,32.3-141.93,1.96-55.85-15.58-87.86-6.96-91.42,9.73-4.01,41.43,32.94,54.52,77.5,9.72,33.08,4.57,54.63,10.06,55.2,9.61,1,44.64-62.88,41.84-132.95-3.01-75.32-46.8-84.47-52.34-154.14-6.9-86.78,52.86-175.55,76.26-172.65,15.87,1.97,5.08,44.84,20.93,95.39,45.51,145.08,238.9,125.05,345.58,295.3,39.62,63.23,43.12,114.15,41.34,144.56-4.47,76.02-49.12,145.49-65.82,142.81-16.72-2.69,17.99-73.95-22.22-136.8-40.29-62.98-111.98-49-148.98-120.09-20.23-38.87-16.89-77.8-24.33-77.17-7.37.62-19.45,39.54-14.34,77.66,11.78,87.94,104.86,95.79,117.8,175.59,10.3,63.57-35.9,123.85-41.79,122.75-4.58-.86,10.34-39.9-2.91-90.63-5.09-19.51-10.15-37.79-27.75-52.15-21.65-17.66-56.68-24.79-85.37-14.2-44.69,16.5-62.08,73.88-62,111.99.21,94.01,106.94,139.78,95.42,155.43Z"/>
        <path class="cls-30" d="M447.47,1070.39c-18.52,21.05-240.66-50.83-279.27-202.28-5.13-20.12-13.16-65.73-2.75-120.27,12.6-66.02,40.59-84.23,48.96-152.28,7.5-60.95-8.64-97.68,1.14-100.74,11.04-3.46,42.2,40.03,52.27,90.06,7.48,37.15-.23,60.24,5.73,61.39,10.42,2.01,54.89-64.56,58.53-141.53,3.92-82.75-43.14-96.95-42.54-173.75.75-95.67,74.68-187.12,100.02-181.69,17.18,3.68,1.26,49.57,13.78,106.43,35.93,163.18,249.55,159.77,350.03,356.37,37.32,73.02,36.27,129.09,31.41,162.21-12.17,82.79-67.71,154.57-85.73,150.03-18.04-4.54,26.78-79.23-11.22-151.89-38.08-72.8-117.89-64.37-151.59-145.74-18.42-44.49-11.03-86.79-19.24-86.81-8.13-.02-25.08,41.42-23.14,83.65,4.48,97.4,105.62,114.9,112.14,203.5,5.19,70.57-51.17,132.14-57.51,130.37-4.93-1.38,15.14-42.69,5.49-99.49-3.71-21.85-7.49-42.34-25.39-59.75-22.01-21.41-59.68-32.57-92.1-23.73-50.51,13.78-75.04,74.93-78.6,116.66-8.77,102.94,103.68,163.26,89.57,179.3Z"/>
        <path class="cls-27" d="M404.84,1116.04c-22.29,21.27-258.59-78.69-286.35-248.19-3.69-22.52-8.11-73.22,8.51-131.93,20.11-71.07,52.5-88.32,68.18-162.01,14.05-66-.1-107.76,10.9-110.18,12.42-2.73,42.36,47.87,48.59,103.6,4.63,41.38-6.02,65.92.39,67.75,11.22,3.2,66.27-65.42,77.63-149.33,12.22-90.21-37.94-110.27-29.92-194.28,9.99-104.65,99.67-197.69,126.9-189.32,18.46,5.67-3.37,54.39,4.89,117.83,23.7,182.07,257.88,198.8,349.06,423.65,33.86,83.51,27.35,144.8,18.85,180.58-21.25,89.46-88.93,162.72-108.22,156.03-19.32-6.7,36.9-84.17,2.26-167.35-34.71-83.34-122.89-81.75-151.99-174.06-15.91-50.47-3.77-96.07-12.75-96.88-8.9-.8-31.42,42.94-33.34,89.35-4.43,107.06,104.62,135.9,103.27,233.52-1.08,77.76-68.67,139.76-75.44,137.21-5.27-1.98,20.66-45.29,15.54-108.39-1.97-24.27-4.15-47.07-22.07-67.84-22.04-25.55-62.21-41.37-98.55-34.79-56.61,10.25-89.33,74.84-97.22,120.18-19.46,111.85,97.86,188.66,80.89,204.86Z"/>
        <path class="cls-8" d="M353.79,1161.94c-26.44,21.15-275.55-110.91-289.7-299.12-1.88-25.01-1.87-80.93,21.95-143.61,28.82-75.88,65.93-91.66,90.15-170.83,21.7-70.91,10.21-117.97,22.48-119.57,13.86-1.8,41.79,56.46,43.27,118.07,1.1,45.74-12.9,71.59-6.06,74.21,11.97,4.58,78.81-65.27,99.29-156.04,22.02-97.58-30.97-124.35-14.15-215.55,20.96-113.61,128.05-206.87,157.05-195.1,19.66,7.97-8.89,59.22-5.93,129.46,8.51,201.59,263.27,242.33,341.54,497.2,29.07,94.66,16.07,161.13,3.34,199.49-31.83,95.9-112.94,169.62-133.42,160.45-20.5-9.18,48.46-88.61,18.5-182.98-30.02-94.56-126.71-101.27-149.71-205.1-12.58-56.77,5.08-105.53-4.68-107.27-9.66-1.73-38.51,44-45.06,94.62-15.1,116.77,101.51,158.79,90.68,265.53-8.62,85.02-88.56,146.42-95.73,142.98-5.58-2.67,26.95-47.6,27.4-117.17.17-26.76-.03-51.93-17.66-76.38-21.68-30.08-64.14-51.25-104.55-47.53-62.95,5.79-104.95,73.37-117.93,122.25-32.02,120.58,89.06,215.9,68.93,232.01Z"/>
        <path class="cls-15" d="M293.51,1207.3c-30.97,20.62-291.03-147.81-288.5-355.2.34-27.55,5.71-88.77,37.78-155.11,38.82-80.3,80.95-94.03,115.05-178.38,30.55-75.55,22.47-128.17,36.06-128.74,15.34-.65,40.34,65.81,36.06,133.4-3.18,50.18-20.98,77.13-13.74,80.66,12.67,6.16,92.53-63.9,123.64-161.32,33.45-104.72-22-139.09,5.15-237.32C378.85,82.92,505.02-8.91,535.64,6.74c20.76,10.61-15.41,63.98-18.89,141.15-9.99,221.5,265,290.5,326.28,577.01,22.76,106.41,2.16,177.93-15.46,218.71-44.04,101.94-139.88,174.87-161.42,162.87-21.57-12.02,61.53-92.36,37.78-198.54-23.8-106.4-129.01-123-144.25-238.87-8.33-63.35,15.67-115.04,5.15-117.88-10.41-2.82-46.37,44.48-58.39,99.27-27.71,126.39,95.92,183.56,73.84,299.36-17.58,92.25-110.97,151.8-118.49,147.36-5.85-3.46,34.07-49.53,41.21-125.64,2.75-29.28,4.94-56.85-12.02-85.31-20.85-35-65.31-62.25-109.9-62.04-69.47.31-121.92,70.27-140.81,122.54-46.6,128.93,76.82,244.88,53.23,260.59Z"/>
      </g>
      <circle class="cls-32" cx="645.08" cy="363.01" r="5"/>
      <circle class="cls-32" cx="694.08" cy="376.01" r="5"/>
      <circle class="cls-32" cx="571.08" cy="221.01" r="5"/>
      <circle class="cls-32" cx="615.08" cy="320.01" r="5"/>
      <circle class="cls-32" cx="72.08" cy="595.01" r="5"/>
      <circle class="cls-32" cx="108.08" cy="557.01" r="5"/>
      <circle class="cls-32" cx="87.08" cy="531.01" r="5"/>
      <circle class="cls-32" cx="45.08" cy="639.01" r="5"/>
      <circle class="cls-32" cx="669.58" cy="393.51" r="3.5"/>
      <circle class="cls-32" cx="627.58" cy="379.51" r="3.5"/>
      <circle class="cls-32" cx="618.58" cy="289.51" r="3.5"/>
      <circle class="cls-32" cx="593.58" cy="245.51" r="3.5"/>
      <circle class="cls-32" cx="697.58" cy="414.51" r="3.5"/>
      <circle class="cls-32" cx="111.58" cy="585.51" r="3.5"/>
      <circle class="cls-32" cx="106.58" cy="505.51" r="3.5"/>
      <circle class="cls-32" cx="75.58" cy="565.51" r="3.5"/>
      <circle class="cls-32" cx="75.58" cy="630.51" r="3.5"/>
    </g>
  </g>
</svg>