<?xml version="1.0" encoding="UTF-8"?>
<svg id="Layer_2" xmlns="http://www.w3.org/2000/svg" viewBox="0 0 1113.92 900.66">
  <defs>
    <style>
      .cls-1 {
        stroke-dasharray: 0 17.13;
        stroke-width: 3.22px;
      }

      .cls-1, .cls-2, .cls-3, .cls-4, .cls-5, .cls-6, .cls-7, .cls-8, .cls-9, .cls-10, .cls-11, .cls-12, .cls-13, .cls-14, .cls-15, .cls-16, .cls-17, .cls-18, .cls-19, .cls-20, .cls-21, .cls-22, .cls-23, .cls-24, .cls-25, .cls-26, .cls-27, .cls-28, .cls-29, .cls-30, .cls-31 {
        fill: none;
        stroke: #ff8d86;
        stroke-linecap: round;
        stroke-linejoin: round;
      }

      .cls-2 {
        stroke-dasharray: 0 10.69;
        stroke-width: 2.01px;
      }

      .cls-3 {
        stroke-dasharray: 0 33.14;
        stroke-width: 6.24px;
      }

      .cls-4 {
        stroke-dasharray: 0 53.11;
        stroke-width: 10px;
      }

      .cls-5 {
        stroke-dasharray: 0 4.57;
        stroke-width: .86px;
      }

      .cls-6 {
        stroke-dasharray: 0 15.59;
        stroke-width: 2.93px;
      }

      .cls-7 {
        stroke-dasharray: 0 43.98;
        stroke-width: 8.28px;
      }

      .cls-8 {
        stroke-dasharray: 0 6.67;
        stroke-width: 1.26px;
      }

      .cls-9 {
        stroke-dasharray: 0 48.33;
        stroke-width: 9.1px;
      }

      .cls-10 {
        stroke-dasharray: 0 4.16;
        stroke-width: .78px;
      }

      .cls-11 {
        stroke-dasharray: 0 36.42;
        stroke-width: 6.86px;
      }

      .cls-12 {
        stroke-dasharray: 0 9.73;
        stroke-width: 1.83px;
      }

      .cls-13 {
        stroke-dasharray: 0 14.18;
        stroke-width: 2.67px;
      }

      .cls-14 {
        stroke-dasharray: 0 5.52;
        stroke-width: 1.04px;
      }

      .cls-15 {
        stroke-dasharray: 0 8.05;
        stroke-width: 1.52px;
      }

      .cls-16 {
        stroke-dasharray: 0 5.03;
        stroke-width: .95px;
      }

      .cls-17 {
        stroke-dasharray: 0 7.33;
        stroke-width: 1.38px;
      }

      .cls-18 {
        stroke-dasharray: 0 30.16;
        stroke-width: 5.68px;
      }

      .cls-19 {
        stroke-dasharray: 0 3.79;
        stroke-width: .71px;
      }

      .cls-20 {
        stroke-dasharray: 0 12.91;
        stroke-width: 2.43px;
      }

      .cls-21 {
        stroke-dasharray: 0 27.45;
        stroke-width: 5.17px;
      }

      .cls-32 {
        fill: #ff8d86;
      }

      .cls-22 {
        stroke-dasharray: 0 8.85;
        stroke-width: 1.67px;
      }

      .cls-23 {
        stroke-dasharray: 0 22.73;
        stroke-width: 4.28px;
      }

      .cls-24 {
        stroke-dasharray: 0 3.45;
        stroke-width: .65px;
      }

      .cls-25 {
        stroke-dasharray: 0 40.03;
        stroke-width: 7.54px;
      }

      .cls-26 {
        stroke-dasharray: 0 3.14;
        stroke-width: .59px;
      }

      .cls-27 {
        stroke-dasharray: 0 24.98;
        stroke-width: 4.7px;
      }

      .cls-28 {
        stroke-dasharray: 0 6.07;
        stroke-width: 1.14px;
      }

      .cls-29 {
        stroke-dasharray: 0 20.68;
        stroke-width: 3.89px;
      }

      .cls-30 {
        stroke-dasharray: 0 11.75;
        stroke-width: 2.21px;
      }

      .cls-31 {
        stroke-dasharray: 0 18.82;
        stroke-width: 3.54px;
      }
    </style>
  </defs>
  <g id="high_good">
    <g>
      <g>
        <g>
          <path class="cls-26" d="M587.07,465.33l5.87-28.07c1.27-6.08-4.52-11.26-10.42-9.32l-27.25,8.95c-5.9,1.94-7.5,9.54-2.86,13.69l21.38,19.12c4.63,4.14,12.01,1.72,13.29-4.36Z"/>
          <path class="cls-26" d="M574.23,458.84l-6.12-28.02c-1.33-6.07-8.73-8.43-13.32-4.25l-21.21,19.31c-4.6,4.18-2.94,11.77,2.98,13.66l27.32,8.71c5.92,1.89,11.67-3.34,10.34-9.41Z"/>
        </g>
        <g>
          <path class="cls-24" d="M586.99,469.53l10.16-29.83c2.2-6.47-3.42-12.89-10.12-11.57l-30.92,6.11c-6.7,1.32-9.45,9.41-4.96,14.55l20.75,23.72c4.5,5.14,12.87,3.48,15.08-2.98Z"/>
          <path class="cls-24" d="M573.85,460.73l-2.92-31.38c-.63-6.8-8.39-10.37-13.96-6.42l-25.72,18.22c-5.57,3.95-4.78,12.45,1.42,15.3l28.64,13.16c6.21,2.85,13.17-2.08,12.54-8.88Z"/>
        </g>
        <g>
          <path class="cls-19" d="M586.33,474.11l15.08-31.18c3.27-6.76-2-14.52-9.49-13.97l-34.54,2.53c-7.49.55-11.57,8.99-7.35,15.2l19.46,28.65c4.22,6.21,13.57,5.52,16.84-1.23Z"/>
          <path class="cls-19" d="M573.18,462.75l1.02-34.62c.22-7.5-7.76-12.43-14.37-8.87l-30.49,16.43c-6.61,3.56-6.88,12.94-.5,16.88l29.47,18.19c6.39,3.94,14.65-.51,14.87-8.01Z"/>
        </g>
        <g>
          <path class="cls-10" d="M585.01,479.01l20.63-31.99c4.47-6.93-.24-16.1-8.48-16.51l-38.01-1.87c-8.24-.41-13.83,8.26-10.06,15.6l17.39,33.86c3.77,7.34,14.07,7.84,18.54.91Z"/>
          <path class="cls-10" d="M572.19,464.86l5.75-37.62c1.25-8.15-6.8-14.6-14.49-11.6l-35.46,13.83c-7.68,3-9.24,13.19-2.8,18.34l29.71,23.79c6.44,5.16,16.04,1.41,17.29-6.75Z"/>
        </g>
        <g>
          <path class="cls-5" d="M582.91,484.18l26.78-32.12c5.8-6.96,1.89-17.6-7.04-19.14l-41.21-7.13c-8.93-1.55-16.19,7.16-13.06,15.66l14.43,39.25c3.13,8.51,14.29,10.44,20.09,3.48Z"/>
          <path class="cls-5" d="M570.82,467.02l11.31-40.27c2.45-8.73-5.46-16.83-14.25-14.59l-40.52,10.34c-8.78,2.24-11.85,13.15-5.51,19.63l29.22,29.93c6.33,6.49,17.31,3.68,19.76-5.04Z"/>
        </g>
        <g>
          <path class="cls-16" d="M579.92,489.53l33.51-31.45c7.26-6.82,4.42-18.94-5.11-21.82l-43.99-13.3c-9.53-2.88-18.61,5.64-16.34,15.34l10.48,44.75c2.27,9.7,14.19,13.3,21.45,6.48Z"/>
          <path class="cls-16" d="M569.03,469.21l17.73-42.4c3.84-9.19-3.71-19.09-13.58-17.82l-45.59,5.85c-9.88,1.27-14.68,12.75-8.64,20.68l27.86,36.55c6.04,7.92,18.39,6.34,22.23-2.85Z"/>
        </g>
        <g>
          <path class="cls-14" d="M575.95,494.97l40.76-29.82c8.83-6.46,7.36-20.06-2.65-24.48l-46.2-20.39c-10.01-4.42-21.06,3.66-19.88,14.54l5.44,50.21c1.18,10.88,13.7,16.41,22.53,9.94Z"/>
          <path class="cls-14" d="M566.79,471.35l25.01-43.88c5.42-9.51-1.49-21.32-12.43-21.26l-50.5.28c-10.94.06-17.72,11.95-12.2,21.39l25.49,43.6c5.52,9.45,19.21,9.37,24.63-.14Z"/>
        </g>
        <g>
          <path class="cls-28" d="M570.89,500.38l48.45-27.06c10.5-5.86,10.71-20.9.39-27.06l-47.66-28.43c-10.33-6.16-23.46,1.17-23.63,13.2l-.79,55.49c-.17,12.03,12.74,19.73,23.24,13.86Z"/>
          <path class="cls-28" d="M564.07,473.38l33.16-44.51c7.19-9.65,1.24-23.45-10.71-24.85l-55.12-6.46c-11.95-1.4-20.93,10.66-16.17,21.7l21.97,50.97c4.76,11.05,19.69,12.8,26.88,3.15Z"/>
        </g>
        <g>
          <path class="cls-8" d="M564.64,505.59l56.47-23.03c12.24-4.99,14.49-21.36,4.04-29.46l-48.18-37.39c-10.44-8.1-25.74-1.87-27.54,11.23l-8.29,60.42c-1.8,13.09,11.25,23.22,23.49,18.23Z"/>
          <path class="cls-8" d="M560.82,475.23l42.13-44.1c9.13-9.56,4.49-25.41-8.35-28.54l-59.26-14.43c-12.84-3.13-24.25,8.82-20.54,21.51l17.13,58.53c3.71,12.68,19.77,16.59,28.89,7.04Z"/>
        </g>
        <g>
          <path class="cls-17" d="M557.13,510.44l64.68-17.55c14.02-3.8,18.66-21.36,8.36-31.59l-47.54-47.24c-10.3-10.24-27.82-5.48-31.54,8.56l-17.14,64.79c-3.71,14.04,9.17,26.84,23.18,23.03Z"/>
          <path class="cls-17" d="M557.03,476.82l51.85-42.46c11.24-9.2,8.3-27.12-5.29-32.25l-62.7-23.67c-13.59-5.13-27.63,6.37-25.28,20.71l10.85,66.14c2.35,14.33,19.34,20.75,30.57,11.54Z"/>
        </g>
        <g>
          <path class="cls-15" d="M548.29,514.73l72.9-10.48c15.8-2.27,23.21-20.79,13.35-33.34l-45.53-57.89c-9.87-12.55-29.61-9.71-35.55,5.11l-27.37,68.38c-5.93,14.82,6.4,30.5,22.2,28.23Z"/>
          <path class="cls-15" d="M552.68,478.04l62.24-39.37c13.49-8.53,12.68-28.47-1.45-35.88l-65.22-34.22c-14.13-7.42-30.99,3.25-30.35,19.2l2.97,73.59c.64,15.95,18.31,25.22,31.8,16.69Z"/>
        </g>
        <g>
          <path class="cls-22" d="M538.07,518.22l80.92-1.67c17.54-.36,28.1-19.57,19.02-34.58l-41.91-69.24c-9.08-15-31-14.55-39.46.82l-39.01,70.91c-8.45,15.37,2.9,34.12,20.43,33.76Z"/>
          <path class="cls-22" d="M547.78,478.79l73.16-34.61c15.86-7.5,17.65-29.35,3.22-39.33l-66.55-46.06c-14.42-9.98-34.24-.61-35.67,16.87l-6.61,80.66c-1.43,17.48,16.6,29.96,32.45,22.46Z"/>
        </g>
        <g>
          <path class="cls-12" d="M526.46,520.66l88.48,9.01c19.17,1.95,33.27-17.58,25.38-35.17l-36.44-81.13c-7.9-17.58-31.86-20.02-43.14-4.39l-52.04,72.12c-11.28,15.63-1.41,37.61,17.77,39.56Z"/>
          <path class="cls-12" d="M542.33,478.95l84.43-27.95c18.3-6.06,23.18-29.65,8.78-42.47l-66.42-59.15c-14.39-12.82-37.27-5.25-41.17,13.63l-18.01,87.09c-3.9,18.87,14.09,34.9,32.39,28.84Z"/>
        </g>
        <g>
          <path class="cls-2" d="M513.47,521.77l95.3,21.68c20.65,4.7,38.65-14.72,32.39-34.96l-28.88-93.37c-6.26-20.23-32.07-26.11-46.47-10.57l-66.42,71.69c-14.39,15.54-6.57,40.83,14.08,45.53Z"/>
          <path class="cls-2" d="M536.36,478.4l95.83-19.18c20.77-4.16,29.25-29.24,15.27-45.14l-64.52-73.41c-13.98-15.91-39.94-10.71-46.73,9.35l-31.31,92.58c-6.79,20.06,10.69,39.95,31.46,35.79Z"/>
        </g>
        <g>
          <path class="cls-30" d="M499.16,521.24l101.04,36.41c21.9,7.89,44.12-10.88,40.01-33.79l-18.99-105.71c-4.12-22.91-31.49-32.77-49.27-17.75l-82.05,69.3c-17.78,15.02-12.64,43.65,9.26,51.54Z"/>
          <path class="cls-30" d="M529.93,477l107.1-8.08c23.21-1.75,35.82-27.97,22.7-47.19l-60.55-88.71c-13.12-19.22-42.13-17.04-52.22,3.94l-46.55,96.79c-10.09,20.98,6.31,45.01,29.52,43.25Z"/>
        </g>
        <g>
          <path class="cls-20" d="M483.61,518.74l105.33,53.24c22.83,11.54,49.58-5.96,48.16-31.5l-6.56-117.84c-1.42-25.54-29.95-39.96-51.36-25.96l-98.77,64.6c-21.41,14-19.63,45.92,3.2,57.46Z"/>
          <path class="cls-20" d="M523.1,474.61l117.89,5.53c25.55,1.2,42.81-25.71,31.08-48.44l-54.16-104.86c-11.74-22.73-43.67-24.22-57.48-2.7l-63.74,99.33c-13.81,21.53.86,49.93,26.41,51.13Z"/>
        </g>
        <g>
          <path class="cls-13" d="M466.99,513.93l107.75,72.18c23.35,15.64,54.88.14,56.75-27.91l8.63-129.41c1.87-28.04-27.32-47.6-52.54-35.19l-116.39,57.23c-25.22,12.4-27.56,47.46-4.21,63.1Z"/>
          <path class="cls-13" d="M515.97,471.09l127.85,21.82c27.71,4.73,50.14-22.31,40.38-48.67l-45.03-121.63c-9.76-26.36-44.39-32.27-62.34-10.64l-82.82,99.81c-17.95,21.63-5.75,54.58,21.96,59.31Z"/>
        </g>
        <g>
          <path class="cls-6" d="M449.51,506.46l107.86,93.16c23.38,20.19,59.84,7.5,65.63-22.84l26.74-139.99c5.8-30.34-23.42-55.57-52.59-45.42l-134.61,46.83c-29.17,10.15-36.42,48.07-13.04,68.26Z"/>
          <path class="cls-6" d="M508.66,466.29l136.52,40.92c29.59,8.87,57.68-17.62,50.56-47.67l-32.82-138.69c-7.11-30.06-44.1-41.14-66.57-19.95l-103.7,97.77c-22.47,21.19-13.58,58.76,16,67.63Z"/>
        </g>
        <g>
          <path class="cls-1" d="M431.44,495.97l105.17,116.05c22.79,25.15,64.26,16.2,74.65-16.12l47.92-149.11c10.38-32.31-18.11-63.75-51.28-56.59l-153.09,33.06c-33.18,7.16-46.16,47.56-23.36,72.7Z"/>
          <path class="cls-1" d="M501.34,460.08l143.42,62.92c31.08,13.63,65.27-11.49,61.53-45.23l-17.23-155.67c-3.73-33.73-42.59-50.78-69.93-30.68l-126.2,92.75c-27.35,20.1-22.68,62.27,8.4,75.9Z"/>
        </g>
        <g>
          <path class="cls-31" d="M413.13,482.11l99.17,140.66c21.49,30.48,67.92,26.27,83.58-7.58l72.23-156.21c15.65-33.85-11.21-71.96-48.36-68.59l-171.4,15.55c-37.15,3.37-56.71,45.69-35.22,76.17Z"/>
          <path class="cls-31" d="M494.18,452.33l148.01,87.83c32.08,19.03,72.73-3.79,73.17-41.09l2.06-172.09c.45-37.29-39.65-61.09-72.17-42.83l-150.07,84.26c-32.52,18.26-33.08,64.88-1,83.91Z"/>
        </g>
        <g>
          <path class="cls-29" d="M395.02,464.54l89.33,166.7c19.36,36.13,70.57,37.75,92.17,2.92l99.71-160.71c21.61-34.83-2.59-79.99-43.56-81.29l-189.03-5.99c-40.97-1.3-67.98,42.24-48.62,78.36Z"/>
          <path class="cls-29" d="M487.42,442.91l149.67,115.62c32.44,25.06,79.83,5.6,85.31-35.01l25.29-187.43c5.48-40.62-35.06-71.94-72.98-56.38l-174.97,71.81c-37.92,15.56-44.77,66.34-12.33,91.39Z"/>
        </g>
        <g>
          <path class="cls-23" d="M377.63,442.96l75.1,193.79c16.28,42,71.91,50.62,100.14,15.53l130.27-161.94c28.23-35.09,7.89-87.59-36.62-94.49l-205.38-31.85c-44.51-6.9-79.8,36.96-63.52,78.96Z"/>
          <path class="cls-23" d="M481.3,431.73l147.77,146.15c32.02,31.67,86.32,16.8,97.74-26.77l52.69-201.04c11.42-43.57-28.61-83.16-72.05-71.26l-200.45,54.89c-43.44,11.9-57.71,66.36-25.69,98.03Z"/>
        </g>
        <g>
          <path class="cls-27" d="M361.54,417.08l55.97,221.43c12.13,47.99,71.65,64.85,107.15,30.35l163.78-159.18c35.49-34.5,20.33-94.48-27.29-107.97l-219.74-62.25c-47.62-13.49-91.99,29.63-79.86,77.62Z"/>
          <path class="cls-27" d="M476.12,418.72l141.6,179.2c30.69,38.83,91.9,29.89,110.19-16.1l84.39-212.22c18.29-45.99-20.07-94.53-69.04-87.38l-225.99,33.03c-48.97,7.16-71.84,64.65-41.15,103.48Z"/>
        </g>
        <g>
          <path class="cls-21" d="M347.46,386.71l31.39,249.01c6.8,53.96,69.47,80.33,112.8,47.45l199.95-151.69c43.33-32.87,34.83-100.33-15.3-121.42l-231.34-97.32c-50.13-21.09-104.3,20-97.5,73.96Z"/>
          <path class="cls-21" d="M472.21,403.84l130.44,214.42c28.27,46.47,96.24,44.91,122.34-2.81l120.47-220.17c26.11-47.71-9.23-105.8-63.6-104.55l-250.91,5.76c-54.38,1.25-87.01,60.89-58.74,107.36Z"/>
        </g>
        <g>
          <path class="cls-18" d="M336.17,351.69l.89,275.8c.19,59.77,65.01,96.92,116.68,66.86l238.4-138.67c51.66-30.05,51.42-104.76-.43-134.48l-239.29-137.13c-51.86-29.72-116.44,7.85-116.25,67.61Z"/>
          <path class="cls-18" d="M469.94,387.09l113.56,251.33c24.61,54.47,98.95,61.87,133.82,13.32l160.88-224.01c34.87-48.55,4.1-116.63-55.37-122.55l-274.44-27.32c-59.47-5.92-103.06,54.76-78.45,109.23Z"/>
        </g>
        <g>
          <path class="cls-3" d="M328.55,311.98l-35.97,300.93c-7.79,65.22,57.93,114.41,118.31,88.56l278.6-119.32c60.38-25.86,70.12-107.38,17.54-146.74l-242.63-181.61c-52.58-39.36-128.05-7.04-135.85,58.18Z"/>
          <path class="cls-3" d="M469.71,368.51l90.2,289.34c19.55,62.7,99.64,80.73,144.17,32.45l205.48-222.79c44.53-48.28,20.09-126.66-43.98-141.08l-295.68-66.55c-64.08-14.42-119.74,45.93-100.19,108.63Z"/>
        </g>
        <g>
          <path class="cls-11" d="M325.55,267.66l-79.53,323.41c-17.24,70.09,47.86,132.55,117.18,112.43l319.85-92.83c69.32-20.12,90.86-107.73,38.78-157.7l-240.32-230.58c-52.08-49.97-138.72-24.82-155.96,45.26Z"/>
          <path class="cls-11" d="M471.95,348.21l59.63,327.67c12.92,71.01,97.87,101.4,152.9,54.7l253.95-215.48c55.03-46.7,38.88-135.46-29.08-159.77l-313.58-112.19c-67.96-24.31-136.75,34.06-123.83,105.07Z"/>
        </g>
        <g>
          <path class="cls-25" d="M328.22,218.91l-130.06,342.1c-28.19,74.14,34.45,150.98,112.75,138.32l361.3-58.42c78.3-12.66,113.53-105.33,63.42-166.81l-231.24-283.68c-50.11-61.48-147.98-45.65-176.17,28.48Z"/>
          <path class="cls-25" d="M477.11,326.37l21.16,365.38c4.59,79.18,93.17,123.71,159.45,80.14l305.84-201.01c66.28-43.56,60.55-142.54-10.32-178.16l-327.01-164.36c-70.87-35.62-153.72,18.83-149.13,98.01Z"/>
        </g>
        <g>
          <path class="cls-7" d="M337.66,166.09l-187.67,355.71c-40.67,77.09,17.36,169.29,104.46,165.97l401.89-15.33c87.1-3.32,137.93-99.68,91.51-173.45l-214.22-340.38c-46.42-73.77-155.29-69.61-195.96,7.47Z"/>
          <path class="cls-7" d="M485.66,303.25l-25.85,401.35c-5.6,86.98,85.05,147.4,163.18,108.77l360.51-178.29c78.13-38.64,85.13-147.36,12.61-195.7l-334.66-223.06c-72.52-48.34-170.18-.04-175.78,86.93Z"/>
        </g>
        <g>
          <path class="cls-9" d="M355.03,109.75L102.69,472.6c-54.68,78.63-3.74,186.98,91.7,195.02l440.4,37.1c95.44,8.04,163.79-90.25,123.04-176.93l-188.07-399.95c-40.76-86.67-160.06-96.72-214.74-18.09Z"/>
          <path class="cls-9" d="M498.09,279.17l-81.95,434.3c-17.76,94.12,73.03,172.17,163.41,140.49l417.09-146.18c90.39-31.68,112.59-149.33,39.96-211.76l-335.14-288.12c-72.63-62.44-185.61-22.84-203.37,71.28Z"/>
        </g>
        <g>
          <path class="cls-4" d="M381.52,50.62L57.7,412.59c-70.17,78.44-29.12,203.44,73.9,224.99l475.38,99.45c103.02,21.55,190.74-76.5,157.89-176.5l-151.57-461.42C580.47-.88,451.69-27.82,381.52,50.62Z"/>
          <path class="cls-4" d="M514.87,254.57l-147.54,462.72c-31.97,100.28,56.59,197.56,159.42,175.11l474.5-103.58c102.83-22.45,142.8-147.79,71.94-225.62l-326.95-359.13c-70.86-77.83-199.39-49.77-231.37,50.51Z"/>
        </g>
      </g>
      <circle class="cls-32" cx="140" cy="260.24" r="5"/>
      <circle class="cls-32" cx="158" cy="195.24" r="5"/>
      <circle class="cls-32" cx="257" cy="154.24" r="5"/>
      <circle class="cls-32" cx="41" cy="357.24" r="5"/>
      <circle class="cls-32" cx="103.5" cy="323.74" r="3.5"/>
      <circle class="cls-32" cx="178.5" cy="235.74" r="3.5"/>
      <circle class="cls-32" cx="294.5" cy="149.74" r="3.5"/>
      <circle class="cls-32" cx="199.5" cy="185.74" r="3.5"/>
      <circle class="cls-32" cx="3.5" cy="330.74" r="3.5"/>
      <circle class="cls-32" cx="91.5" cy="289.74" r="3.5"/>
    </g>
  </g>
</svg>