<?xml version="1.0" encoding="UTF-8"?>
<svg id="Layer_2" xmlns="http://www.w3.org/2000/svg" viewBox="0 0 1000 982.59">
  <defs>
    <style>
      .cls-1 {
        stroke-dasharray: 0 43.52;
        stroke-width: 8.7px;
      }

      .cls-1, .cls-2, .cls-3, .cls-4, .cls-5, .cls-6, .cls-7, .cls-8, .cls-9, .cls-10, .cls-11, .cls-12, .cls-13, .cls-14, .cls-15, .cls-16, .cls-17, .cls-18, .cls-19, .cls-20, .cls-21, .cls-22, .cls-23, .cls-24, .cls-25, .cls-26, .cls-27, .cls-28, .cls-29, .cls-30, .cls-31 {
        fill: none;
        stroke: #ff8d86;
        stroke-linecap: round;
        stroke-linejoin: round;
      }

      .cls-2 {
        stroke-dasharray: 0 7.25;
        stroke-width: 1.45px;
      }

      .cls-3 {
        stroke-dasharray: 0 24.71;
        stroke-width: 4.94px;
      }

      .cls-4 {
        stroke-dasharray: 0 10.57;
        stroke-width: 2.11px;
      }

      .cls-5 {
        stroke-dasharray: 0 4.97;
        stroke-width: .99px;
      }

      .cls-6 {
        stroke-dasharray: 0 7.97;
        stroke-width: 1.59px;
      }

      .cls-7 {
        stroke-dasharray: 0 3.41;
        stroke-width: .68px;
      }

      .cls-8 {
        stroke-dasharray: 0 8.76;
        stroke-width: 1.75px;
      }

      .cls-9 {
        stroke-dasharray: 0 2.57;
        stroke-width: .51px;
      }

      .cls-10 {
        stroke-dasharray: 0 18.62;
        stroke-width: 3.72px;
      }

      .cls-32 {
        fill: #ff8d86;
      }

      .cls-11 {
        stroke-dasharray: 0 32.79;
        stroke-width: 6.56px;
      }

      .cls-12 {
        stroke-dasharray: 0 3.1;
        stroke-width: .62px;
      }

      .cls-13 {
        stroke-dasharray: 0 27.16;
        stroke-width: 5.43px;
      }

      .cls-14 {
        stroke-dasharray: 0 11.62;
        stroke-width: 2.32px;
      }

      .cls-15 {
        stroke-dasharray: 0 22.49;
        stroke-width: 4.5px;
      }

      .cls-16 {
        stroke-dasharray: 0 5.46;
        stroke-width: 1.09px;
      }

      .cls-17 {
        stroke-dasharray: 0 3.75;
        stroke-width: .75px;
      }

      .cls-18 {
        stroke-dasharray: 0 15.42;
        stroke-width: 3.08px;
      }

      .cls-19 {
        stroke-dasharray: 0 39.6;
        stroke-width: 7.92px;
      }

      .cls-20 {
        stroke-dasharray: 0 12.77;
        stroke-width: 2.55px;
      }

      .cls-21 {
        stroke-dasharray: 0 4.12;
        stroke-width: .82px;
      }

      .cls-22 {
        stroke-dasharray: 0 6.01;
        stroke-width: 1.2px;
      }

      .cls-23 {
        stroke-dasharray: 0 36.04;
        stroke-width: 7.21px;
      }

      .cls-24 {
        stroke-dasharray: 0 2.82;
        stroke-width: .56px;
      }

      .cls-25 {
        stroke-dasharray: 0 20.46;
        stroke-width: 4.09px;
      }

      .cls-26 {
        stroke-dasharray: 0 16.95;
        stroke-width: 3.39px;
      }

      .cls-27 {
        stroke-dasharray: 0 9.62;
        stroke-width: 1.92px;
      }

      .cls-28 {
        stroke-dasharray: 0 4.53;
        stroke-width: .91px;
      }

      .cls-29 {
        stroke-dasharray: 0 6.6;
        stroke-width: 1.32px;
      }

      .cls-30 {
        stroke-dasharray: 0 14.03;
        stroke-width: 2.81px;
      }

      .cls-31 {
        stroke-dasharray: 0 29.84;
        stroke-width: 5.97px;
      }
    </style>
  </defs>
  <g id="high_good">
    <g>
      <circle class="cls-1" cx="496.08" cy="439.51" r="435.16"/>
      <circle class="cls-1" cx="479.55" cy="496.08" r="435.16"/>
      <g>
        <path class="cls-9" d="M518.65,455.58c0,14.19-11.51,25.7-25.7,25.7-14.19,0-25.7-11.51-25.7-25.7,0-14.19,11.51-25.7,25.7-25.7,14.19,0,25.7,11.51,25.7,25.7Z"/>
        <circle class="cls-24" cx="489.12" cy="455.7" r="28.24"/>
        <circle class="cls-12" cx="491.84" cy="452.48" r="31.03"/>
        <circle class="cls-7" cx="492.47" cy="457.07" r="34.1"/>
        <circle class="cls-17" cx="488.26" cy="454.21" r="37.47"/>
        <circle class="cls-21" cx="493.69" cy="452.88" r="41.18"/>
        <circle class="cls-28" cx="490.79" cy="458.29" r="45.25"/>
        <circle class="cls-5" cx="488.5" cy="451.94" r="49.73"/>
        <circle class="cls-16" cx="495.37" cy="454.74" r="54.65"/>
        <circle class="cls-22" cx="488.03" cy="458.29" r="60.05"/>
        <circle class="cls-29" cx="490.53" cy="449.69" r="65.99"/>
        <circle class="cls-2" cx="495.72" cy="458.06" r="72.52"/>
        <circle class="cls-6" cx="485.07" cy="456.14" r="79.69"/>
        <circle class="cls-8" cx="494.46" cy="448.85" r="87.57"/>
        <circle class="cls-27" cx="493.51" cy="461.88" r="96.23"/>
        <circle class="cls-4" cx="483.57" cy="451.52" r="105.75"/>
        <circle class="cls-14" cx="499.34" cy="451.02" r="116.21"/>
        <circle class="cls-20" cx="488.15" cy="464.27" r="127.7"/>
        <circle class="cls-30" cx="485.56" cy="445.39" r="140.33"/>
        <circle class="cls-18" cx="502.88" cy="457.16" r="154.21"/>
        <circle class="cls-26" cx="480.53" cy="462.65" r="169.46"/>
        <circle class="cls-10" cx="492.48" cy="440.36" r="186.22"/>
        <circle class="cls-25" cx="501.9" cy="466.51" r="204.64"/>
        <circle class="cls-15" cx="473.62" cy="454.97" r="224.87"/>
        <circle class="cls-3" cx="503.83" cy="440.37" r="247.11"/>
        <circle class="cls-13" cx="493.55" cy="475.78" r="271.55"/>
        <circle class="cls-31" cx="472.19" cy="441.34" r="298.41"/>
        <circle class="cls-11" cx="516.02" cy="449.22" r="327.92"/>
        <circle class="cls-23" cx="477.36" cy="479.22" r="360.36"/>
        <circle class="cls-19" cx="481.29" cy="425.59" r="396"/>
        <circle class="cls-1" cx="522.19" cy="468.23" r="435.16"/>
      </g>
      <circle class="cls-32" cx="840.73" cy="124.46" r="4.35"/>
      <circle class="cls-32" cx="91.38" cy="203.66" r="4.35"/>
      <circle class="cls-32" cx="48.74" cy="677.11" r="4.35"/>
      <circle class="cls-32" cx="911.23" cy="742.38" r="4.35"/>
      <circle class="cls-32" cx="961.71" cy="685.81" r="4.35"/>
      <circle class="cls-32" cx="915.58" cy="823.32" r="4.35"/>
      <circle class="cls-32" cx="15.67" cy="602.26" r="4.35"/>
      <circle class="cls-32" cx="35.68" cy="523.93" r="4.35"/>
      <circle class="cls-32" cx="4.35" cy="342.91" r="4.35"/>
      <circle class="cls-32" cx="187.12" cy="65.27" r="4.35"/>
      <circle class="cls-32" cx="427.33" cy="976.5" r="4.35"/>
      <circle class="cls-32" cx="781.55" cy="47.87" r="4.35"/>
      <circle class="cls-32" cx="995.65" cy="443.86" r="4.35"/>
      <circle class="cls-32" cx="147.95" cy="865.97" r="4.35"/>
      <circle class="cls-32" cx="56.14" cy="274.59" r="3.05"/>
      <circle class="cls-32" cx="805.48" cy="96.17" r="3.05"/>
      <circle class="cls-32" cx="945.6" cy="749.78" r="3.05"/>
      <circle class="cls-32" cx="892.52" cy="794.17" r="3.05"/>
      <circle class="cls-32" cx="388.6" cy="979.55" r="3.05"/>
      <circle class="cls-32" cx="138.82" cy="822.02" r="3.05"/>
      <circle class="cls-32" cx="979.55" cy="481.72" r="3.05"/>
    </g>
  </g>
</svg>