<?xml version="1.0" encoding="UTF-8"?>
<svg id="Layer_2" xmlns="http://www.w3.org/2000/svg" viewBox="0 0 630.59 1228.33">
  <defs>
    <style>
      .cls-1 {
        stroke-dasharray: 0 5.2;
        stroke-width: 1.04px;
      }

      .cls-1, .cls-2, .cls-3, .cls-4, .cls-5, .cls-6, .cls-7, .cls-8, .cls-9, .cls-10, .cls-11, .cls-12, .cls-13, .cls-14, .cls-15, .cls-16, .cls-17, .cls-18, .cls-19, .cls-20, .cls-21, .cls-22, .cls-23, .cls-24, .cls-25, .cls-26, .cls-27, .cls-28, .cls-29, .cls-30, .cls-31 {
        fill: none;
        stroke: #ff8d86;
        stroke-linecap: round;
        stroke-linejoin: round;
      }

      .cls-2 {
        stroke-dasharray: 0 3.24;
        stroke-width: .65px;
      }

      .cls-3 {
        stroke-dasharray: 0 25.84;
        stroke-width: 5.17px;
      }

      .cls-4 {
        stroke-dasharray: 0 8.33;
        stroke-width: 1.67px;
      }

      .cls-5 {
        stroke-dasharray: 0 14.67;
        stroke-width: 2.93px;
      }

      .cls-6 {
        stroke-dasharray: 0 11.06;
        stroke-width: 2.21px;
      }

      .cls-7 {
        stroke-dasharray: 0 10.06;
        stroke-width: 2.01px;
      }

      .cls-8 {
        stroke-dasharray: 0 45.5;
        stroke-width: 9.1px;
      }

      .cls-9 {
        stroke-dasharray: 0 31.2;
        stroke-width: 6.24px;
      }

      .cls-10 {
        stroke-dasharray: 0 2.95;
        stroke-width: .59px;
      }

      .cls-11 {
        stroke-dasharray: 0 4.31;
        stroke-width: .86px;
      }

      .cls-12 {
        stroke-dasharray: 0 7.58;
        stroke-width: 1.52px;
      }

      .cls-13 {
        stroke-dasharray: 0 19.47;
        stroke-width: 3.89px;
      }

      .cls-14 {
        stroke-dasharray: 0 12.15;
        stroke-width: 2.43px;
      }

      .cls-15 {
        stroke-dasharray: 0 50;
        stroke-width: 10px;
      }

      .cls-16 {
        stroke-dasharray: 0 6.9;
        stroke-width: 1.38px;
      }

      .cls-17 {
        stroke-dasharray: 0 17.72;
        stroke-width: 3.54px;
      }

      .cls-18 {
        stroke-dasharray: 0 13.35;
        stroke-width: 2.67px;
      }

      .cls-19 {
        stroke-dasharray: 0 28.39;
        stroke-width: 5.68px;
      }

      .cls-20 {
        stroke-dasharray: 0 6.28;
        stroke-width: 1.26px;
      }

      .cls-32 {
        fill: #ff8d86;
      }

      .cls-21 {
        stroke-dasharray: 0 4.73;
        stroke-width: .95px;
      }

      .cls-22 {
        stroke-dasharray: 0 21.4;
        stroke-width: 4.28px;
      }

      .cls-23 {
        stroke-dasharray: 0 5.71;
        stroke-width: 1.14px;
      }

      .cls-24 {
        stroke-dasharray: 0 3.57;
        stroke-width: .71px;
      }

      .cls-25 {
        stroke-dasharray: 0 3.92;
        stroke-width: .78px;
      }

      .cls-26 {
        stroke-dasharray: 0 9.16;
        stroke-width: 1.83px;
      }

      .cls-27 {
        stroke-dasharray: 0 41.4;
        stroke-width: 8.28px;
      }

      .cls-28 {
        stroke-dasharray: 0 23.51;
        stroke-width: 4.7px;
      }

      .cls-29 {
        stroke-dasharray: 0 34.29;
        stroke-width: 6.86px;
      }

      .cls-30 {
        stroke-dasharray: 0 37.68;
        stroke-width: 7.54px;
      }

      .cls-31 {
        stroke-dasharray: 0 16.12;
        stroke-width: 3.22px;
      }
    </style>
  </defs>
  <g id="high_good">
    <g>
      <g>
        <path class="cls-10" d="M344.81,639.86c8.74-4.51,10.99-14.71,6.92-20.5-3.23-4.58-10.32-6.26-15.78-3.71-4.81,2.25-9.26,8.21-7.26,13.06,1.53,3.73,6.82,6.65,10.39,4.77,3.53-1.85,4.27-7.81,2.2-10.95-2.12-3.22-7.16-3.41-16.63-3.76-7.87-.29-9.32.59-12.17-.88-5.05-2.62-9.22-9.92-6.72-14.6,3.15-5.9,15.52-5.05,17.46-1.29,1.33,2.57-2.63,5.71-1.05,8.58,1.53,2.77,7.36,3.77,9.14,1.54,1.66-2.08-.15-7.04-3.15-8.41-3.44-1.57-6.49,2.5-9.88,2.02-3.82-.54-7.75-6.83-10.46-26.97"/>
        <path class="cls-2" d="M342.5,645.15c10.13-3.75,13.96-14.57,10.29-21.43-2.91-5.43-10.42-8.21-16.71-6.16-5.54,1.81-11.19,7.72-9.67,13.27,1.17,4.27,6.55,8.17,10.7,6.6,4.1-1.55,5.7-7.95,3.87-11.65-1.88-3.8-7.35-4.68-17.63-6.33-8.55-1.37-10.24-.6-13.16-2.59-5.16-3.53-8.73-12.05-5.38-16.82,4.22-6.01,17.6-3.43,19.22.94,1.11,2.99-3.63,5.87-2.29,9.22,1.29,3.23,7.52,5.1,9.76,2.91,2.09-2.05.77-7.7-2.31-9.59-3.55-2.17-7.41,1.86-11.05.88-4.09-1.1-7.54-8.48-7.79-30.81"/>
        <path class="cls-24" d="M339.27,650.62c11.55-2.73,17.18-14.02,14.09-21.99-2.44-6.32-10.27-10.35-17.41-8.96-6.29,1.23-13.24,6.92-12.32,13.18.71,4.81,6.05,9.79,10.78,8.63,4.68-1.14,7.28-7.91,5.78-12.19-1.55-4.4-7.39-6.09-18.38-9.27-9.14-2.64-11.09-2.03-14-4.59-5.15-4.54-7.91-14.32-3.61-19.07,5.41-5.99,19.65-1.38,20.84,3.59.81,3.41-4.75,5.92-3.73,9.75.98,3.69,7.52,6.57,10.26,4.48,2.56-1.95,1.88-8.3-1.23-10.77-3.58-2.85-8.34,1.04-12.17-.52-4.32-1.75-7.09-10.26-4.37-34.65"/>
        <path class="cls-25" d="M335.01,656.15c12.97-1.43,20.61-12.99,18.32-22.1-1.82-7.22-9.81-12.67-17.78-12.1-7.02.5-15.37,5.77-15.2,12.72.13,5.35,5.29,11.48,10.61,10.86,5.25-.62,9-7.65,7.93-12.52-1.1-5-7.25-7.63-18.81-12.57-9.61-4.11-11.83-3.7-14.66-6.88-5.01-5.65-6.71-16.67-1.39-21.28,6.71-5.81,21.62,1.13,22.25,6.71.43,3.82-5.97,5.82-5.38,10.13.57,4.16,7.32,8.17,10.59,6.26,3.05-1.79,3.16-8.8.1-11.92-3.52-3.58-9.23.01-13.2-2.19-4.47-2.49-6.36-12.14-.13-38.38"/>
        <path class="cls-11" d="M329.63,661.6c14.34.17,24.22-11.41,22.94-21.65-1.02-8.11-9.01-15.13-17.78-15.58-7.73-.39-17.54,4.23-18.28,11.84-.57,5.85,4.23,13.23,10.11,13.26,5.81.03,10.84-7.14,10.33-12.6-.53-5.61-6.89-9.3-18.83-16.23-9.93-5.77-12.41-5.62-15.07-9.47-4.71-6.83-5.08-19.08,1.34-23.4,8.09-5.44,23.43,4.12,23.37,10.3-.05,4.23-7.29,5.55-7.22,10.33.07,4.61,6.9,9.89,10.71,8.24,3.57-1.54,4.62-9.17,1.7-12.98-3.36-4.38-10.07-1.22-14.1-4.16-4.55-3.31-5.31-14.09,5-41.88"/>
        <path class="cls-21" d="M323.03,666.84c15.61,2.11,27.95-9.2,27.92-20.55-.02-8.99-7.8-17.71-17.3-19.37-8.38-1.47-19.7,2.27-21.53,10.47-1.41,6.3,2.84,15,9.26,15.82,6.34.81,12.78-6.33,12.96-12.36.18-6.18-6.26-11.06-18.37-20.23-10.06-7.62-12.78-7.79-15.16-12.35-4.23-8.08-2.99-21.5,4.59-25.34,9.55-4.85,25.01,7.64,24.11,14.36-.62,4.6-8.7,5.07-9.26,10.3-.54,5.04,6.2,11.71,10.58,10.43,4.1-1.2,6.27-9.39,3.59-13.93-3.08-5.23-10.82-2.68-14.83-6.43-4.51-4.22-3.9-16.08,11.06-45.01"/>
        <path class="cls-1" d="M315.13,671.66c16.75,4.39,31.72-6.29,33.2-18.67,1.18-9.8-6.13-20.36-16.28-23.45-8.94-2.72-21.79-.16-24.88,8.53-2.38,6.68,1.09,16.74,7.98,18.49,6.8,1.73,14.79-5.19,15.78-11.74,1.02-6.72-5.35-12.9-17.33-24.52-9.96-9.66-12.9-10.21-14.89-15.5-3.53-9.38-.38-23.85,8.4-27.03,11.07-4.01,26.25,11.68,24.37,18.89-1.29,4.94-10.16,4.37-11.48,10-1.27,5.43,5.19,13.61,10.15,12.79,4.63-.76,8.1-9.4,5.79-14.72-2.66-6.11-11.44-4.37-15.31-9-4.36-5.21-2.1-18.06,18.09-47.61"/>
        <path class="cls-23" d="M305.86,675.86c17.68,7.03,35.44-2.61,38.72-15.92,2.6-10.53-3.96-23.03-14.62-27.75-9.39-4.16-23.74-3.09-28.28,5.97-3.49,6.97-1.05,18.41,6.22,21.24,7.19,2.8,16.83-3.68,18.79-10.69,2.01-7.2-4.11-14.79-15.61-29.06-9.57-11.87-12.7-12.86-14.16-18.9-2.59-10.7,2.78-26.06,12.78-28.35,12.61-2.89,27.07,16.25,24.05,23.87-2.07,5.22-11.67,3.4-13.86,9.37-2.11,5.75,3.84,15.54,9.35,15.31,5.15-.21,10.09-9.17,8.28-15.28-2.08-7.02-11.9-6.3-15.49-11.86-4.06-6.27.13-19.98,26.11-49.51"/>
        <path class="cls-20" d="M295.19,679.21c18.34,10.04,39,1.9,44.36-12.18,4.25-11.14-1.24-25.65-12.22-32.23-9.68-5.8-25.48-6.55-31.65,2.73-4.74,7.14-3.61,19.93,3.94,24,7.47,4.02,18.85-1.76,21.93-9.15,3.16-7.58-2.5-16.68-13.14-33.79-8.84-14.23-12.13-15.72-12.91-22.51-1.39-12.02,6.52-28.05,17.74-29.21,14.14-1.46,27.35,21.35,23.03,29.26-2.95,5.41-13.19,2.15-16.37,8.36-3.07,5.99,2.1,17.46,8.15,17.95,5.65.46,12.23-8.65,11.08-15.55-1.33-7.94-12.13-8.47-15.31-15.01-3.59-7.38,2.82-21.78,35.11-50.5"/>
        <path class="cls-16" d="M283.11,681.43c18.66,13.4,42.28,7.29,50.02-7.34,6.12-11.58,2.08-28.14-9.02-36.79-9.78-7.62-26.91-10.56-34.88-1.26-6.13,7.15-6.61,21.26,1.09,26.7,7.61,5.38,20.79.6,25.14-7.04,4.46-7.84-.49-18.53-9.8-38.62-7.74-16.7-11.12-18.78-11.07-26.28.09-13.3,10.87-29.72,23.26-29.48,15.62.3,26.97,26.95,21.21,35-3.94,5.51-14.67.58-18.98,6.93-4.15,6.12-.04,19.32,6.49,20.67,6.1,1.25,14.5-7.79,14.17-15.48-.38-8.84-12.1-10.86-14.69-18.43-2.92-8.53,5.99-23.38,45.06-50.38"/>
        <path class="cls-12" d="M269.63,682.23c18.56,17.12,45.14,13.61,55.53-1.31,8.23-11.82,6.04-30.41-4.91-41.33-9.65-9.62-27.94-15.12-37.88-6.05-7.64,6.98-10.06,22.3-2.39,29.27,7.57,6.89,22.6,3.44,28.36-4.31,5.92-7.96,1.94-20.28-5.52-43.43-6.21-19.25-9.62-21.97-8.56-30.14,1.88-14.49,15.84-30.96,29.32-29.04,17,2.42,25.81,33.01,18.44,41.01-5.04,5.48-16.08-1.34-21.63,5.01-5.35,6.12-2.63,21.07,4.31,23.41,6.48,2.18,16.86-6.56,17.53-14.99.76-9.69-11.74-13.46-13.56-22.06-2.05-9.69,9.66-24.7,55.89-48.91"/>
        <path class="cls-4" d="M254.83,681.3c17.95,21.16,47.41,20.89,60.75,6.01,10.56-11.78,10.66-32.36.18-45.74-9.23-11.79-28.45-20.24-40.51-11.67-9.27,6.59-13.96,22.98-6.53,31.61,7.34,8.52,24.19,6.78,31.51-.9,7.52-7.89,4.84-21.86-.21-48.11-4.19-21.83-7.55-25.25-5.3-34.02,3.99-15.55,21.42-31.65,35.87-27.75,18.22,4.91,23.73,39.46,14.62,47.2-6.23,5.3-17.36-3.61-24.26,2.57-6.65,5.96-5.7,22.63,1.56,26.11,6.78,3.25,19.27-4.9,21.12-14,2.13-10.47-11-16.26-11.83-25.88-.93-10.85,13.85-25.64,67.51-45.87"/>
        <path class="cls-26" d="M238.8,678.3c16.74,25.48,48.92,29.14,65.45,14.69,13.09-11.44,15.96-33.87,6.32-49.87-8.49-14.09-28.32-25.88-42.62-18.16-10.99,5.94-18.3,23.19-11.35,33.6,6.86,10.28,25.48,10.63,34.49,3.23,9.26-7.59,8.2-23.19,6.22-52.5-1.65-24.37-4.85-28.55-1.22-37.82,6.44-16.43,27.6-31.65,42.84-25.47,19.21,7.8,20.59,46.21,9.63,53.44-7.51,4.95-18.45-6.26-26.81-.44-8.05,5.61-9.24,23.92-1.79,28.69,6.96,4.45,21.67-2.76,24.91-12.44,3.73-11.13-9.82-19.21-9.44-29.81.43-11.95,18.54-26.11,79.78-40.99"/>
        <path class="cls-7" d="M221.73,672.88c14.85,30.03,49.45,38.33,69.42,24.79,15.81-10.72,21.95-34.8,13.58-53.54-7.38-16.51-27.42-32.02-44.05-25.51-12.79,5.01-23.07,22.85-16.88,35.13,6.11,12.13,26.36,15.01,37.19,8.15,11.11-7.04,12.05-24.2,13.81-56.43,1.47-26.8-1.47-31.79,3.73-41.41,9.22-17.06,34.34-30.83,50.14-22.04,19.91,11.08,16.27,53.16,3.34,59.58-8.85,4.39-19.28-9.3-29.18-4.07-9.54,5.04-13.28,24.85-5.8,31.05,6.99,5.79,24.01-.11,28.84-10.23,5.55-11.64-8.14-22.26-6.3-33.78,2.08-12.98,23.72-26,92.5-34.02"/>
        <path class="cls-6" d="M203.83,664.69c12.18,34.75,48.8,48.43,72.4,36.34,18.68-9.58,28.6-35.02,21.98-56.58-5.83-18.99-25.62-38.6-44.63-33.72-14.62,3.75-28.22,21.83-23.12,36.05,5.04,14.05,26.74,19.9,39.47,13.87,13.06-6.19,16.38-24.78,22.62-59.7,5.19-29.04,2.66-34.87,9.62-44.67,12.34-17.37,41.59-29.02,57.64-17.32,20.23,14.75,10.63,60.16-4.33,65.43-10.24,3.6-19.79-12.73-31.28-8.35-11.07,4.22-17.82,25.33-10.48,33.09,6.85,7.25,26.2,3.1,32.83-7.3,7.62-11.95-5.9-25.37-2.35-37.69,4-13.88,29.35-25.18,105.45-24.72"/>
        <path class="cls-14" d="M185.4,653.35c8.63,39.53,46.75,59.36,74.1,49.33,21.66-7.95,35.89-34.37,31.55-58.77-3.82-21.5-22.78-45.53-44.16-42.76-16.45,2.13-33.7,20.03-30.04,36.23,3.61,16,26.5,25.29,41.19,20.41,15.08-5.01,21.19-24.83,32.67-62.09,9.55-30.98,7.57-37.68,16.47-47.43,15.79-17.29,49.25-26.09,65.18-11.18,20.09,18.8,3.54,67.05-13.49,70.79-11.65,2.56-19.88-16.53-33-13.3-12.64,3.12-22.83,25.24-15.86,34.69,6.5,8.83,28.16,6.89,36.78-3.57,9.91-12.02-3.04-28.47,2.49-41.42,6.22-14.6,35.38-23.54,118.33-12.84"/>
        <path class="cls-18" d="M166.82,638.52c4.12,44.27,43.04,71.01,74.22,63.73,24.69-5.77,43.74-32.68,42.28-59.88-1.29-23.96-18.74-52.71-42.44-52.55-18.22.12-39.44,17.34-37.62,35.49,1.8,17.94,25.52,31.13,42.2,27.78,17.12-3.44,26.44-24.25,43.95-63.35,14.56-32.51,13.3-40.08,24.32-49.53,19.53-16.75,57.21-21.86,72.59-3.46,19.4,23.19-5.12,73.6-24.19,75.4-13.05,1.23-19.47-20.69-34.21-18.92-14.21,1.71-28.28,24.47-21.95,35.71,5.91,10.5,29.79,11.28,40.6,1.04,12.42-11.78.5-31.45,8.26-44.85,8.74-15.09,41.74-20.93,130.78,1.85"/>
        <path class="cls-5" d="M148.54,619.86c-1.44,48.84,37.43,83.21,72.41,79.45,27.7-2.98,52.09-29.79,54.14-59.64,1.8-26.31-13.39-60-39.25-63-19.89-2.31-45.34,13.63-45.78,33.67-.44,19.8,23.67,37.37,42.3,35.95,19.13-1.46,32.08-22.91,56.42-63.21,20.24-33.51,19.87-41.94,33.16-50.77,23.55-15.65,65.32-16.18,79.64,5.95,18.05,27.9-15.44,79.59-36.48,79-14.4-.4-18.46-25.18-34.78-25.22-15.73-.04-34.12,22.9-28.72,36.01,5.04,12.24,30.99,16.3,44.14,6.57,15.12-11.19,4.76-34.24,15.01-47.81,11.56-15.29,48.33-17.24,142.39,19.53"/>
        <path class="cls-31" d="M131.1,597.05c-8.11,53.07,29.68,95.77,68.34,96.35,30.62.46,60.8-25.51,67.03-57.8,5.49-28.45-6.56-67.24-34.38-73.98-21.39-5.18-51.28,8.79-54.45,30.59-3.13,21.54,20.81,43.93,41.33,44.88,21.06.97,38.06-20.69,70.01-61.38,26.56-33.84,27.29-43.08,42.97-50.93,27.78-13.92,73.42-8.9,86.07,17.15,15.95,32.84-27.5,84.74-50.37,81.28-15.65-2.37-16.76-29.93-34.56-32.17-17.15-2.15-40.28,20.41-36.15,35.43,3.86,14.03,31.61,21.93,47.26,13.07,17.99-10.18,9.78-36.71,22.78-50.13,14.66-15.13,55.03-12.33,152.7,40.37"/>
        <path class="cls-17" d="M115.14,569.84c-15.96,56.8,19.55,108.44,61.64,114.24,33.33,4.6,69.73-19.68,80.86-54.07,9.8-30.3,1.85-74.22-27.59-85.29-22.63-8.51-57.11,2.72-63.48,26.08-6.3,23.08,16.81,50.7,39.07,54.48,22.84,3.88,44.28-17.47,84.58-57.58,33.5-33.35,35.54-43.33,53.68-49.8,32.16-11.46,81.27.13,91.58,30.24,13,37.96-41.35,88.75-65.83,81.91-16.76-4.68-14.28-34.89-33.38-39.71-18.41-4.64-46.67,16.87-44.17,33.81,2.33,15.82,31.54,28.15,49.8,20.59,20.98-8.69,15.58-38.73,31.56-51.63,18.01-14.54,61.67-6.08,161.14,64.48"/>
        <path class="cls-13" d="M101.37,538.03c-25.01,59.82,6.8,120.89,51.93,132.86,35.74,9.48,78.7-12.13,95.43-48.15,14.75-31.73,11.95-80.7-18.67-96.72-23.55-12.32-62.65-4.68-72.73,19.94-9.96,24.33,11.55,57.56,35.31,64.65,24.4,7.29,50.64-13.12,99.96-51.47,41.01-31.89,44.56-42.5,65.22-47.12,36.62-8.19,88.62,11.02,95.84,45.24,9.1,43.14-56.98,91.26-82.77,80.52-17.65-7.35-10.9-39.97-31.09-47.78-19.46-7.53-53.16,12.15-52.71,30.96.42,17.56,30.64,34.93,51.56,29.13,24.05-6.67,22.18-40.16,41.34-52.09,21.59-13.45,68.08,1.63,167.12,91.91"/>
        <path class="cls-22" d="M90.61,501.48c-35.29,61.9-8.78,132.77,38.85,151.87,37.71,15.13,87.46-2.69,110.54-39.73,20.33-32.63,23.85-86.42-7.41-108-24.03-16.59-67.71-13.49-82,12.01-14.12,25.2,4.89,64.32,29.86,75.25,25.63,11.22,56.99-7.53,115.92-42.75,49-29.29,54.3-40.39,77.45-42.66,41.03-4.03,95.19,23.89,98.47,62.18,4.14,48.27-74.37,91.91-101.06,76.74-18.26-10.38-6.53-45.06-27.51-56.28-20.22-10.82-59.61,6.13-61.64,26.71-1.89,19.21,28.74,42.2,52.34,38.67,27.13-4.05,29.57-40.83,52.06-51.28,25.35-11.78,74.04,10.89,169.97,122.63"/>
        <path class="cls-28" d="M83.77,460.18c-46.78,62.78-27.35,143.64,22.03,170.85,39.11,21.55,95.75,8.78,125.89-28.53,26.55-32.87,37.58-91.07,6.38-118.78-23.99-21.31-72.04-23.79-91.05,2.12-18.78,25.59-3.28,70.81,22.49,86.07,26.46,15.67,63.17-.58,132.16-31.11,57.36-25.38,64.63-36.78,90.19-36.16,45.3,1.1,100.62,38.8,99.08,81.01-1.95,53.21-93.43,90.29-120.5,70.17-18.53-13.77-1.09-50.02-22.47-65.07-20.6-14.51-65.84-1.29-70.8,20.88-4.64,20.7,25.69,49.87,51.9,49.19,30.13-.78,37.72-40.57,63.65-48.96,29.23-9.45,79.29,21.8,168.97,156.51"/>
        <path class="cls-3" d="M81.84,414.22c-59.43,62.21-49.07,153,1.15,189.3,39.77,28.74,103.26,22.4,141.13-14.26,33.36-32.3,53.19-94.3,22.87-128.7-23.31-26.46-75.39-35.59-99.59-9.89-23.91,25.4-13.06,76.8,13,96.89,26.76,20.63,68.98,7.83,148.31-16.23,65.97-20,75.42-31.46,103.21-27.36,49.26,7.27,104.55,55.8,97.22,101.63-9.25,57.77-113.99,85.96-140.83,60.4-18.37-17.5,5.51-54.7-15.8-73.99-20.53-18.58-71.64-10.23-80.02,13.29-7.83,21.96,21.35,57.84,50.03,60.6,32.97,3.18,46.57-39.2,75.98-44.87,33.15-6.39,83.57,34.39,163.34,193.34"/>
        <path class="cls-19" d="M85.89,363.82c-73.15,59.9-74.01,160.31-24.1,206.62,39.53,36.67,109.63,38.26,155.84,3.34,40.71-30.76,70.64-95.73,42.18-137.32-21.89-31.98-77.46-48.92-107.3-24.12-29.48,24.5-24.53,82.01,1.21,107.42,26.42,26.08,74.18,17.77,163.94,2.16,74.63-12.98,86.48-24.22,116.24-16.02,52.75,14.52,106.56,74.86,92.42,123.86-17.82,61.78-135.85,78.49-161.69,47.02-17.69-21.55,13.33-58.92-7.32-82.81-19.9-23.02-76.77-20.75-89.06,3.78-11.48,22.9,15.54,65.94,46.45,72.8,35.53,7.88,56.05-36.52,88.88-38.77,37.01-2.53,86.54,48.7,152.26,232.75"/>
        <path class="cls-9" d="M97.06,309.4C9.25,364.94-5.14,474.34,43.1,531.54c38.2,45.29,114.45,56.41,169.53,24.52,48.52-28.1,89.87-94.95,64.39-144.12-19.59-37.81-77.94-63.73-113.8-40.68-35.44,22.77-37.74,86.17-13.07,117.33,25.33,31.99,78.53,29.32,178.52,24.31,83.14-4.17,97.56-14.83,128.93-1.91,55.59,22.9,106.2,95.92,84.22,147.48-27.71,64.99-158.68,67.42-182.66,29.63-16.41-25.87,22.43-62.48,3.11-91.31-18.63-27.77-80.95-32.91-97.65-7.81-15.59,23.44,8.11,74.01,40.91,85.62,37.7,13.36,66.02-32.33,102.14-30.38,40.71,2.19,87.87,64.71,134.9,274.25"/>
        <path class="cls-29" d="M116.53,251.54C13.31,300.35-17.03,417.76,27.93,486.6c35.6,54.52,117.28,76.85,181.62,49.44,56.69-24.15,110.74-91.53,89.54-148.57-16.3-43.86-76.48-79.95-118.68-59.61-41.7,20.09-52.71,88.93-29.97,126.22,23.34,38.28,81.73,42.5,191.46,50.42,91.24,6.59,108.4-3.11,140.88,15.18,57.57,32.43,102.99,118.85,72.11,172.13-38.93,67.18-182.1,52.29-203.19,7.85-14.43-30.41,32.84-65.15,15.62-99.17-16.6-32.79-83.89-46.74-105.46-21.59-20.14,23.48-1.06,81.81,33.15,98.87,39.33,19.62,76.34-26.42,115.47-19.46,44.1,7.84,87.17,82.35,110.41,317.2"/>
        <path class="cls-30" d="M145.51,191.04C26.4,230.46-22.42,354.45,17.4,435.56c31.53,64.23,117.63,99.53,191.47,78.25,65.06-18.75,133.04-85,117.56-150.06-11.91-50.03-72.71-97.44-121.46-80.91-48.18,16.33-69.4,89.94-49.59,133.66,20.33,44.88,83.45,57.3,202.08,80.64,98.63,19.4,118.65,11.12,151.63,35.43,58.45,43.08,96.42,143.42,55.6,197.41-51.46,68.06-205.63,32.64-222.68-18.65-11.67-35.11,44.54-66.66,30.31-106.08-13.71-37.98-85.24-62.22-112.13-37.68-25.11,22.91-12.11,89.08,22.92,112.28,40.27,26.66,86.81-18.59,128.55-5.76,47.06,14.46,84.05,101.49,77.94,360.76"/>
        <path class="cls-27" d="M185.23,128.93C50.03,155.97-19.82,284.67,12.74,378.47c25.78,74.28,114.97,124.31,198.36,110.99,73.47-11.74,156.49-74.89,148.32-147.93-6.29-56.16-66.25-116.01-121.65-104.52-54.73,11.36-87.74,88.8-71.99,139.14,16.16,51.67,83.35,73.67,209.61,115.02,104.98,34.37,127.92,28.02,160.64,58.95,57.98,54.81,85.95,169.34,34.2,222.76-65.24,67.34-228.65,8.07-240.38-50.16-8.03-39.85,57.51-66.74,47.27-111.64-9.87-43.27-84.64-79.27-117.26-56.11-30.46,21.63-25.14,95.54,9.96,125.53,40.35,34.48,97.17-8.65,140.99,10.93,49.39,22.07,78.08,121.95,36.7,403.92"/>
        <path class="cls-8" d="M236.86,66.51C85.78,77.89-7.64,208.91,15.32,315.58c18.18,84.47,108.75,150.99,201.49,147.62,81.71-2.96,180.72-60.73,181.58-141.48.66-62.1-56.72-135.41-118.68-130.29-61.22,5.06-107.59,85.11-97.15,142.12,10.71,58.53,81.04,91.52,213.22,153.52,109.9,51.55,135.77,47.7,167.31,85.81,55.9,67.55,71.07,196.22,7.47,247.54-80.18,64.71-250.47-21.82-255.47-86.9-3.42-44.54,71.66-65.09,66.51-115.44-4.97-48.51-81.7-97.8-120.38-76.9-36.12,19.51-40.22,100.84-5.95,138.26,39.4,43.01,107.14,3.58,152.31,30.81,50.91,30.69,68.83,143.47-14.07,445.47"/>
        <path class="cls-15" d="M301.54,5.33C135.23-2.48,15.79,127.91,26.54,247.33c8.51,94.57,98.39,179.25,200,188,89.52,7.71,205.24-42.04,217-130,9.04-67.64-43.73-155.29-112-158-67.45-2.68-128.74,78.42-125,142,3.84,65.27,76.14,110.67,212,196,112.96,70.94,141.7,70.21,171,116,51.93,81.16,51.24,223.53-25,271-96.12,59.84-270.27-57.35-267-129,2.24-49.04,86.88-61.4,88-117,1.08-53.58-76.01-117.61-121-100-42.01,16.45-57.37,104.6-25,150,37.21,52.18,116.38,18.25,162,54,51.42,40.29,55.86,165.71-75,484"/>
      </g>
      <circle class="cls-32" cx="316.54" cy="1153.33" r="5"/>
      <circle class="cls-32" cx="347.54" cy="1117.33" r="5"/>
      <circle class="cls-32" cx="381.54" cy="1177.33" r="5"/>
      <circle class="cls-32" cx="285.54" cy="52.33" r="5"/>
      <circle class="cls-32" cx="490.54" cy="295.33" r="5"/>
      <circle class="cls-32" cx="469.54" cy="266.33" r="5"/>
      <circle class="cls-32" cx="348.54" cy="865.33" r="5"/>
      <circle class="cls-32" cx="319.54" cy="822.33" r="5"/>
      <circle class="cls-32" cx="310.54" cy="875.33" r="5"/>
      <circle class="cls-32" cx="269.04" cy="36.83" r="3.5"/>
      <circle class="cls-32" cx="468.04" cy="318.83" r="3.5"/>
      <circle class="cls-32" cx="382.04" cy="893.83" r="3.5"/>
      <circle class="cls-32" cx="329.04" cy="897.83" r="3.5"/>
      <circle class="cls-32" cx="357.04" cy="1217.83" r="3.5"/>
      <circle class="cls-32" cx="296.04" cy="1180.83" r="3.5"/>
      <circle class="cls-32" cx="318.04" cy="1224.83" r="3.5"/>
      <circle class="cls-32" cx="271.04" cy="1151.83" r="3.5"/>
      <circle class="cls-32" cx="325.04" cy="39.83" r="3.5"/>
      <circle class="cls-32" cx="357.04" cy="932.83" r="3.5"/>
      <circle class="cls-32" cx="309.04" cy="842.83" r="3.5"/>
    </g>
  </g>
</svg>