<?xml version="1.0" encoding="UTF-8"?>
<svg id="Layer_2" xmlns="http://www.w3.org/2000/svg" viewBox="0 0 1091.76 1146.19">
  <defs>
    <style>
      .cls-1 {
        stroke-dasharray: 0 41.92;
        stroke-width: 7.54px;
      }

      .cls-1, .cls-2, .cls-3, .cls-4, .cls-5, .cls-6, .cls-7, .cls-8, .cls-9, .cls-10, .cls-11, .cls-12, .cls-13, .cls-14, .cls-15, .cls-16, .cls-17, .cls-18, .cls-19, .cls-20, .cls-21, .cls-22, .cls-23, .cls-24, .cls-25, .cls-26, .cls-27, .cls-28, .cls-29, .cls-30, .cls-31 {
        fill: none;
        stroke: #ee472c;
        stroke-linecap: round;
        stroke-linejoin: round;
      }

      .cls-2 {
        stroke-dasharray: 0 9.27;
        stroke-width: 1.67px;
      }

      .cls-3 {
        stroke-dasharray: 0 28.75;
        stroke-width: 5.17px;
      }

      .cls-4 {
        stroke-dasharray: 0 46.07;
        stroke-width: 8.28px;
      }

      .cls-5 {
        stroke-dasharray: 0 34.71;
        stroke-width: 6.24px;
      }

      .cls-6 {
        stroke-dasharray: 0 11.19;
        stroke-width: 2.01px;
      }

      .cls-7 {
        stroke-dasharray: 0 55.63;
        stroke-width: 10px;
      }

      .cls-8 {
        stroke-dasharray: 0 19.71;
        stroke-width: 3.54px;
      }

      .cls-9 {
        stroke-dasharray: 0 6.99;
        stroke-width: 1.26px;
      }

      .cls-10 {
        stroke-dasharray: 0 14.86;
        stroke-width: 2.67px;
      }

      .cls-11 {
        stroke-dasharray: 0 7.68;
        stroke-width: 1.38px;
      }

      .cls-12 {
        stroke-dasharray: 0 4.36;
        stroke-width: .78px;
      }

      .cls-32 {
        fill: #ee472c;
      }

      .cls-13 {
        stroke-dasharray: 0 17.94;
        stroke-width: 3.22px;
      }

      .cls-14 {
        stroke-dasharray: 0 13.52;
        stroke-width: 2.43px;
      }

      .cls-15 {
        stroke-dasharray: 0 6.36;
        stroke-width: 1.14px;
      }

      .cls-16 {
        stroke-dasharray: 0 8.44;
        stroke-width: 1.52px;
      }

      .cls-17 {
        stroke-dasharray: 0 23.8;
        stroke-width: 4.28px;
      }

      .cls-18 {
        stroke-dasharray: 0 3.61;
        stroke-width: .65px;
      }

      .cls-19 {
        stroke-dasharray: 0 4.79;
        stroke-width: .86px;
      }

      .cls-20 {
        stroke-dasharray: 0 5.26;
        stroke-width: .95px;
      }

      .cls-21 {
        stroke-dasharray: 0 16.32;
        stroke-width: 2.93px;
      }

      .cls-22 {
        stroke-dasharray: 0 5.78;
        stroke-width: 1.04px;
      }

      .cls-23 {
        stroke-dasharray: 0 10.19;
        stroke-width: 1.83px;
      }

      .cls-24 {
        stroke-dasharray: 0 3.97;
        stroke-width: .71px;
      }

      .cls-25 {
        stroke-dasharray: 0 38.15;
        stroke-width: 6.86px;
      }

      .cls-26 {
        stroke-dasharray: 0 12.3;
        stroke-width: 2.21px;
      }

      .cls-27 {
        stroke-dasharray: 0 21.66;
        stroke-width: 3.89px;
      }

      .cls-28 {
        stroke-dasharray: 0 31.59;
        stroke-width: 5.68px;
      }

      .cls-29 {
        stroke-dasharray: 0 26.16;
        stroke-width: 4.7px;
      }

      .cls-30 {
        stroke-dasharray: 0 50.62;
        stroke-width: 9.1px;
      }

      .cls-31 {
        stroke-dasharray: 0 3.29;
        stroke-width: .59px;
      }
    </style>
  </defs>
  <g id="high_bad">
    <g>
      <g>
        <path class="cls-31" d="M387.5,722.7c-2.23,2.58,18.69,33.69,20.09,34.8,1.4,1.11,30.11,13.52,32.53,10.22s-4.79-18.18-4.98-21.06c-.19-2.88,14-37.17,9.63-39.35-4.37-2.18-20.57,36.12-21.31,36.81s-31.13-24.89-35.96-21.42Z"/>
        <path class="cls-18" d="M384.5,716.85c-2.78,2.51,15.88,39.25,17.26,40.65,1.38,1.4,31.03,18.78,34.11,15.51s-2.79-20.47-2.62-23.64c.18-3.17,20.25-38.67,15.77-41.63-4.47-2.96-27.28,36.64-28.17,37.29s-30.63-31.31-36.35-28.18Z"/>
        <path class="cls-24" d="M382,710.07c-3.37,2.37,12.06,44.94,13.38,46.65,1.32,1.71,31.33,24.64,35.13,21.48,3.8-3.15-.31-22.7.31-26.14.62-3.43,27.26-39.46,22.78-43.3-4.48-3.83-34.66,36.31-35.72,36.9s-29.21-38.26-35.88-35.6Z"/>
        <path class="cls-12" d="M380.19,702.34c-3.99,2.13,7.14,50.63,8.34,52.67,1.21,2.05,30.87,31.07,35.44,28.14,4.57-2.93,2.71-24.8,3.84-28.46,1.13-3.66,35.02-39.39,30.64-44.17-4.38-4.78-42.66,34.96-43.9,35.47s-26.74-45.64-34.36-43.64Z"/>
        <path class="cls-19" d="M379.25,693.67c-4.63,1.79,1,56.17,2.05,58.57,1.04,2.39,29.51,38.02,34.89,35.43s6.27-26.69,8-30.53c1.73-3.84,43.47-38.28,39.34-44.08-4.13-5.8-51.22,32.42-52.64,32.8s-23.05-53.36-31.64-52.2Z"/>
        <path class="cls-20" d="M379.39,684.08c-5.3,1.33-6.43,61.4-5.61,64.15.82,2.75,27.1,45.42,33.31,43.32,6.21-2.1,10.42-28.27,12.82-32.23,2.4-3.96,52.54-35.93,48.81-42.81-3.73-6.88-60.2,28.5-61.8,28.73s-17.99-61.29-27.52-61.17Z"/>
        <path class="cls-22" d="M380.82,673.64c-5.95.75-15.24,66.11-14.71,69.22.52,3.11,23.47,53.17,30.52,51.71s15.15-29.44,18.3-33.44c3.15-4,62.12-32.15,58.97-40.15-3.15-8-69.48,23.02-71.26,23.06s-11.42-69.26-21.82-70.4Z"/>
        <path class="cls-15" d="M383.78,662.45c-6.59.02-25.47,70.07-25.32,73.53.15,3.46,18.48,61.14,26.37,60.49s20.47-30.08,24.43-34.02c3.97-3.94,72.06-26.75,69.7-35.9-2.36-9.15-78.86,15.8-80.81,15.61s-3.18-77.07-14.37-79.71Z"/>
        <path class="cls-9" d="M388.51,650.64c-7.19-.87-37.17,73.01-37.46,76.81-.3,3.79,11.97,69.16,20.66,69.51s26.35-30.07,31.21-33.83c4.85-3.76,82.18-19.52,80.83-29.82-1.35-10.3-88.13,6.67-90.23,6.2s6.85-84.48-5-88.87Z"/>
        <path class="cls-11" d="M395.24,638.39c-7.73-1.91-50.32,74.66-51.15,78.76-.83,4.1,3.8,77.03,13.22,78.58,9.43,1.55,32.77-29.27,38.57-32.72,5.8-3.45,92.25-10.29,92.15-21.7-.09-11.41-97.02-4.52-99.24-5.32s18.79-91.23,6.45-97.6Z"/>
        <path class="cls-16" d="M404.23,625.93c-8.18-3.12-64.88,74.69-66.33,79.05-1.46,4.36-6.18,84.53,3.9,87.48,10.08,2.95,39.66-27.54,46.45-30.53,6.79-2.99,101.99,1.13,103.42-11.33,1.42-12.46-105.22-17.93-107.53-19.09s32.71-96.99,20.1-105.59Z"/>
        <path class="cls-2" d="M415.71,613.55c-8.5-4.49-80.77,72.78-82.94,77.34-2.17,4.56-18.06,91.37-7.46,95.94,10.6,4.57,46.95-24.72,54.75-27.08,7.8-2.35,111.09,14.9,114.31,1.5,3.22-13.4-112.36-33.64-114.73-35.23s48.67-101.41,36.07-112.47Z"/>
        <path class="cls-23" d="M429.88,601.57c-8.67-6.04-97.84,68.57-100.82,73.25-2.98,4.68-31.93,97.24-20.99,103.64,10.95,6.4,54.52-20.68,63.34-22.2,8.82-1.52,119.17,31.12,124.48,16.94,5.31-14.18-118.05-51.74-120.42-53.79s66.66-104.09,54.4-117.84Z"/>
        <path class="cls-6" d="M446.94,590.41c-8.65-7.75-115.9,61.68-119.77,66.39-3.88,4.71-47.85,101.78-36.77,110.23,11.08,8.45,62.23-15.25,72.06-15.73,9.83-.48,125.82,49.91,133.51,35.15,7.69-14.76-121.83-72.25-124.14-74.79s86.65-104.6,75.12-121.25Z"/>
        <path class="cls-26" d="M467.05,580.53c-8.39-9.61-134.67,51.76-139.53,56.37-4.86,4.62-65.82,104.61-54.87,115.31,10.96,10.7,69.92-8.3,80.7-7.51,10.78.79,130.54,71.28,140.91,56.22,10.36-15.07-123.2-95.12-125.39-98.2s108.52-102.49,98.17-122.19Z"/>
        <path class="cls-14" d="M490.3,572.43c-7.87-11.61-153.82,38.42-159.74,42.8-5.92,4.38-85.8,105.28-75.29,118.42s77.37.31,89.03,2.62c11.66,2.31,132.84,95.23,146.16,80.19,13.32-15.05-121.64-120.24-123.61-123.9-1.97-3.66,132.09-97.25,123.44-120.12Z"/>
        <path class="cls-10" d="M516.74,566.72c-7.03-13.71-172.92,21.3-179.96,25.29-7.04,3.99-107.69,103.34-97.97,119.08,9.71,15.74,84.35,10.7,96.75,14.78,12.4,4.08,132.14,121.66,148.68,107.04,16.55-14.63-116.57-147.44-118.23-151.7-1.65-4.25,157.09-88.38,150.72-114.49Z"/>
        <path class="cls-21" d="M546.35,564.03c-5.83-15.9-191.46.08-199.67,3.49-8.21,3.41-131.29,98.29-122.81,116.76,8.49,18.46,90.57,22.97,103.55,29.08,12.98,6.11,127.83,150.39,147.83,136.66,20.01-13.74-107.4-176.43-108.64-181.29s183.18-75.36,179.73-104.69Z"/>
        <path class="cls-13" d="M579,565.07c-4.23-18.12-208.83-25.56-218.25-22.94-9.41,2.62-156.37,89.63-149.58,110.9,6.78,21.28,95.71,37.18,109.05,45.58,13.34,8.41,119.28,181.16,142.94,168.85,23.66-12.3-93.51-206.81-94.21-212.28s209.89-57.67,210.05-90.12Z"/>
        <path class="cls-8" d="M614.48,570.57c-2.18-20.33-224.35-55.84-234.97-54.25-10.62,1.59-182.55,76.82-178,100.93s99.41,53.37,112.84,64.32c13.43,10.95,105.84,213.56,133.3,203.31,27.45-10.25-74.3-238.1-74.33-244.16s236.65-34.79,241.17-70.16Z"/>
        <path class="cls-27" d="M652.44,581.31c.34-22.47-237.23-90.95-249.02-90.64-11.8.32-209.4,59.33-207.67,86.25,1.73,26.91,101.28,71.52,114.46,85.27,13.18,13.75,86.84,247.11,118.16,239.61,31.32-7.5-49.15-269.65-48.37-276.26s262.77-6.25,272.44-44.23Z"/>
        <path class="cls-17" d="M692.41,598.12c3.38-24.46-246.56-130.97-259.47-132.21-12.91-1.23-236.34,36.67-238.06,66.26-1.72,29.58,100.89,91.58,113.42,108.33,12.53,16.76,61.63,281.16,96.79,277.16,35.16-3.99-17.5-300.69-15.76-307.79s287.45,28.37,303.08-11.75Z"/>
        <path class="cls-29" d="M733.74,621.81c6.96-26.23-251.39-175.88-265.3-178.95-13.91-3.07-262.69,8.35-268.52,40.39s97.78,113.39,109.2,133.35c11.42,19.96,29.56,314.91,68.45,315.27,38.89.36,21.18-330.31,24.03-337.83s309.72,69.44,332.15,27.77Z"/>
        <path class="cls-3" d="M775.66,653.18c11.11-27.67-250.64-225.5-265.4-230.71-14.76-5.22-287.64-26.07-298.29,8.09-10.65,34.16,91.46,136.78,101.25,160.07,9.79,23.3-9.93,347.44,32.44,353.03,42.37,5.6,67.34-357.43,71.45-365.25,4.11-7.82,328.51,117.22,358.56,74.77Z"/>
        <path class="cls-28" d="M817.17,693.01c15.82-28.7-243.18-279.52-258.58-287.18-15.41-7.67-310.24-66.96-326.43-31.13-16.19,35.83,81.44,161.43,89,188.15,7.56,26.72-57.36,377.62-11.9,389.4,45.46,11.78,121.31-380.84,126.85-388.82,5.53-7.98,342.62,171.85,381.07,129.57Z"/>
        <path class="cls-5" d="M857.12,742.01c21.1-29.18-227.8-337.44-243.58-347.86-15.78-10.43-329.41-114.58-351.87-77.66-22.46,36.92,67.21,186.98,71.87,217.14,4.66,30.16-113.14,404.2-65.13,423.13,48.01,18.93,183.32-399.14,190.43-407.1,7.1-7.96,350.68,233.32,398.28,192.36Z"/>
        <path class="cls-25" d="M894.13,800.8c26.92-29-203.27-398.56-219.09-412.04-15.81-13.48-343.95-169.09-373.39-131.83-29.44,37.26,48.26,212.94,49.31,246.46,1.05,33.52-177.53,425.71-127.7,452.79,49.83,27.08,253.4-410.79,262.22-418.52,8.81-7.73,351.24,301.45,408.65,263.15Z"/>
        <path class="cls-1" d="M926.63,869.89c33.25-28.03-168.34-461.93-183.78-478.76-15.44-16.82-352.5-230.49-389.61-193.8s24.12,238.72,20.78,275.42c-3.35,36.7-250.64,440.55-199.93,476.76,50.72,36.21,331.4-414.12,342.05-421.37,10.65-7.25,342.74,375.83,410.48,341.75Z"/>
        <path class="cls-4" d="M952.81,949.59c40.01-26.12-121.75-526.38-136.33-546.8-14.59-20.42-353.61-298.61-398.99-263.55-45.38,35.05-5.66,263.61-14.22,303.18-8.56,39.58-332.38,446.95-281.91,493.23,50.47,46.29,416.93-407.3,429.51-413.78,12.59-6.48,323.49,455.82,401.94,427.72Z"/>
        <path class="cls-30" d="M970.7,1040.03c47.14-23.13-62.3-590.43-75.47-614.65-13.17-24.22-345.7-373.05-399.89-340.89-54.19,32.16-41.47,286.76-56.11,328.78-14.64,42.02-422.39,442.98-373.54,500.22,48.85,57.24,509.29-388.41,523.89-393.8,14.6-5.38,291.79,540.49,381.12,520.34Z"/>
        <path class="cls-7" d="M978.1,1141.07c54.52-18.91,11.13-652.33,0-680.52-11.13-28.19-327.09-453.19-390.51-425.37s-83.64,307.22-105.24,351.09C460.76,430.15-37.67,812.87,7.95,881.85c45.62,68.98,607.51-355.44,624.15-359.36s245.88,628.6,346.01,618.59Z"/>
      </g>
      <circle class="cls-32" cx="1024.76" cy="582" r="5"/>
      <circle class="cls-32" cx="1063.76" cy="592" r="5"/>
      <circle class="cls-32" cx="716.76" cy="768" r="5"/>
      <circle class="cls-32" cx="682.76" cy="746" r="5"/>
      <circle class="cls-32" cx="677.76" cy="789" r="5"/>
      <circle class="cls-32" cx="110.76" cy="669" r="5"/>
      <circle class="cls-32" cx="73.76" cy="718" r="5"/>
      <circle class="cls-32" cx="48.76" cy="687" r="5"/>
      <circle class="cls-32" cx="781.76" cy="146" r="5"/>
      <circle class="cls-32" cx="840.76" cy="239" r="5"/>
      <circle class="cls-32" cx="653.76" cy="19" r="5"/>
      <circle class="cls-32" cx="809.26" cy="134.5" r="3.5"/>
      <circle class="cls-32" cx="683.26" cy="3.5" r="3.5"/>
      <circle class="cls-32" cx="676.26" cy="33.5" r="3.5"/>
      <circle class="cls-32" cx="866.26" cy="233.5" r="3.5"/>
      <circle class="cls-32" cx="856.26" cy="262.5" r="3.5"/>
      <circle class="cls-32" cx="1039.26" cy="607.5" r="3.5"/>
      <circle class="cls-32" cx="1088.26" cy="586.5" r="3.5"/>
      <circle class="cls-32" cx="678.26" cy="715.5" r="3.5"/>
      <circle class="cls-32" cx="698.26" cy="776.5" r="3.5"/>
      <circle class="cls-32" cx="728.26" cy="802.5" r="3.5"/>
      <circle class="cls-32" cx="75.26" cy="695.5" r="3.5"/>
      <circle class="cls-32" cx="23.26" cy="692.5" r="3.5"/>
      <circle class="cls-32" cx="179.26" cy="646.5" r="3.5"/>
      <circle class="cls-32" cx="704.26" cy="816.5" r="3.5"/>
      <circle class="cls-32" cx="691.26" cy="840.5" r="3.5"/>
      <circle class="cls-32" cx="732.26" cy="843.5" r="3.5"/>
      <circle class="cls-32" cx="1059.26" cy="619.5" r="3.5"/>
      <circle class="cls-32" cx="1013.26" cy="626.5" r="3.5"/>
      <circle class="cls-32" cx="707.26" cy="176.5" r="3.5"/>
      <circle class="cls-32" cx="694.26" cy="151.5" r="3.5"/>
      <circle class="cls-32" cx="648.26" cy="151.5" r="3.5"/>
      <circle class="cls-32" cx="659.26" cy="117.5" r="3.5"/>
      <circle class="cls-32" cx="619.26" cy="114.5" r="3.5"/>
      <circle class="cls-32" cx="607.26" cy="78.5" r="3.5"/>
      <circle class="cls-32" cx="712.26" cy="862.5" r="3.5"/>
    </g>
  </g>
</svg>