<?xml version="1.0" encoding="UTF-8"?>
<svg id="Layer_2" xmlns="http://www.w3.org/2000/svg" viewBox="0 0 1095.76 1152.69">
  <defs>
    <style>
      .cls-1 {
        stroke-dasharray: 0 41.92;
        stroke-width: 11.3px;
      }

      .cls-1, .cls-2, .cls-3, .cls-4, .cls-5, .cls-6, .cls-7, .cls-8, .cls-9, .cls-10, .cls-11, .cls-12, .cls-13, .cls-14, .cls-15, .cls-16, .cls-17, .cls-18, .cls-19, .cls-20, .cls-21, .cls-22, .cls-23, .cls-24, .cls-25, .cls-26, .cls-27, .cls-28, .cls-29, .cls-30, .cls-31 {
        fill: none;
        stroke: #ee472c;
        stroke-linecap: round;
        stroke-linejoin: round;
      }

      .cls-2 {
        stroke-dasharray: 0 6.99;
        stroke-width: 1.88px;
      }

      .cls-3 {
        stroke-dasharray: 0 28.75;
        stroke-width: 7.75px;
      }

      .cls-4 {
        stroke-dasharray: 0 46.07;
        stroke-width: 12.42px;
      }

      .cls-5 {
        stroke-dasharray: 0 12.3;
        stroke-width: 3.32px;
      }

      .cls-6 {
        stroke-dasharray: 0 17.94;
        stroke-width: 4.84px;
      }

      .cls-7 {
        stroke-dasharray: 0 34.71;
        stroke-width: 9.36px;
      }

      .cls-8 {
        stroke-dasharray: 0 55.63;
        stroke-width: 15px;
      }

      .cls-9 {
        stroke-dasharray: 0 19.71;
        stroke-width: 5.32px;
      }

      .cls-10 {
        stroke-dasharray: 0 14.86;
        stroke-width: 4.01px;
      }

      .cls-11 {
        stroke-dasharray: 0 4.36;
        stroke-width: 1.18px;
      }

      .cls-32 {
        fill: #ee472c;
      }

      .cls-12 {
        stroke-dasharray: 0 11.19;
        stroke-width: 3.02px;
      }

      .cls-13 {
        stroke-dasharray: 0 6.36;
        stroke-width: 1.71px;
      }

      .cls-14 {
        stroke-dasharray: 0 13.52;
        stroke-width: 3.65px;
      }

      .cls-15 {
        stroke-dasharray: 0 23.8;
        stroke-width: 6.42px;
      }

      .cls-16 {
        stroke-dasharray: 0 7.68;
        stroke-width: 2.07px;
      }

      .cls-17 {
        stroke-dasharray: 0 10.19;
        stroke-width: 2.75px;
      }

      .cls-18 {
        stroke-dasharray: 0 3.61;
        stroke-width: .97px;
      }

      .cls-19 {
        stroke-dasharray: 0 4.79;
        stroke-width: 1.29px;
      }

      .cls-20 {
        stroke-dasharray: 0 5.26;
        stroke-width: 1.42px;
      }

      .cls-21 {
        stroke-dasharray: 0 8.44;
        stroke-width: 2.27px;
      }

      .cls-22 {
        stroke-dasharray: 0 5.78;
        stroke-width: 1.56px;
      }

      .cls-23 {
        stroke-dasharray: 0 16.32;
        stroke-width: 4.4px;
      }

      .cls-24 {
        stroke-dasharray: 0 3.97;
        stroke-width: 1.07px;
      }

      .cls-25 {
        stroke-dasharray: 0 38.15;
        stroke-width: 10.29px;
      }

      .cls-26 {
        stroke-dasharray: 0 26.16;
        stroke-width: 7.05px;
      }

      .cls-27 {
        stroke-dasharray: 0 21.66;
        stroke-width: 5.84px;
      }

      .cls-28 {
        stroke-dasharray: 0 31.59;
        stroke-width: 8.52px;
      }

      .cls-29 {
        stroke-dasharray: 0 50.62;
        stroke-width: 13.65px;
      }

      .cls-30 {
        stroke-dasharray: 0 3.29;
        stroke-width: .89px;
      }

      .cls-31 {
        stroke-dasharray: 0 9.27;
        stroke-width: 2.5px;
      }
    </style>
  </defs>
  <g id="high_bad">
    <g>
      <g>
        <path class="cls-30" d="M390,726.7c-2.23,2.58,18.69,33.69,20.09,34.8,1.4,1.11,30.11,13.52,32.53,10.22s-4.79-18.18-4.98-21.06c-.19-2.88,14-37.17,9.63-39.35-4.37-2.18-20.57,36.12-21.31,36.81s-31.13-24.89-35.96-21.42Z"/>
        <path class="cls-18" d="M387,720.85c-2.78,2.51,15.88,39.25,17.26,40.65,1.38,1.4,31.03,18.78,34.11,15.51s-2.79-20.47-2.62-23.64c.18-3.17,20.25-38.67,15.77-41.63-4.47-2.96-27.28,36.64-28.17,37.29s-30.63-31.31-36.35-28.18Z"/>
        <path class="cls-24" d="M384.5,714.07c-3.37,2.37,12.06,44.94,13.38,46.65,1.32,1.71,31.33,24.64,35.13,21.48s-.31-22.7.31-26.14c.62-3.43,27.26-39.46,22.78-43.3-4.48-3.83-34.66,36.31-35.72,36.9s-29.21-38.26-35.88-35.6Z"/>
        <path class="cls-11" d="M382.69,706.34c-3.99,2.13,7.14,50.63,8.34,52.67,1.21,2.05,30.87,31.07,35.44,28.14s2.71-24.8,3.84-28.46c1.13-3.66,35.02-39.39,30.64-44.17-4.38-4.78-42.66,34.96-43.9,35.47s-26.74-45.64-34.36-43.64Z"/>
        <path class="cls-19" d="M381.75,697.67c-4.63,1.79,1,56.17,2.05,58.57,1.04,2.39,29.51,38.02,34.89,35.43s6.27-26.69,8-30.53c1.73-3.84,43.47-38.28,39.34-44.08-4.13-5.8-51.22,32.42-52.64,32.8s-23.05-53.36-31.64-52.2Z"/>
        <path class="cls-20" d="M381.89,688.08c-5.3,1.33-6.43,61.4-5.61,64.15.82,2.75,27.1,45.42,33.31,43.32s10.42-28.27,12.82-32.23c2.4-3.96,52.54-35.93,48.81-42.81-3.73-6.88-60.2,28.5-61.8,28.73s-17.99-61.29-27.52-61.17Z"/>
        <path class="cls-22" d="M383.32,677.64c-5.95.75-15.24,66.11-14.71,69.22.52,3.11,23.47,53.17,30.52,51.71s15.15-29.44,18.3-33.44c3.15-4,62.12-32.15,58.97-40.15-3.15-8-69.48,23.02-71.26,23.06s-11.42-69.26-21.82-70.4Z"/>
        <path class="cls-13" d="M386.28,666.45c-6.59.02-25.47,70.07-25.32,73.53.15,3.46,18.48,61.14,26.37,60.49s20.47-30.08,24.43-34.02c3.97-3.94,72.06-26.75,69.7-35.9-2.36-9.15-78.86,15.8-80.81,15.61s-3.18-77.07-14.37-79.71Z"/>
        <path class="cls-2" d="M391.01,654.64c-7.19-.87-37.17,73.01-37.46,76.81-.3,3.79,11.97,69.16,20.66,69.51s26.35-30.07,31.21-33.83c4.85-3.76,82.18-19.52,80.83-29.82-1.35-10.3-88.13,6.67-90.23,6.2s6.85-84.48-5-88.87Z"/>
        <path class="cls-16" d="M397.74,642.39c-7.73-1.91-50.32,74.66-51.15,78.76-.83,4.1,3.8,77.03,13.22,78.58s32.77-29.27,38.57-32.72c5.8-3.45,92.25-10.29,92.15-21.7-.09-11.41-97.02-4.52-99.24-5.32s18.79-91.23,6.45-97.6Z"/>
        <path class="cls-21" d="M406.73,629.93c-8.18-3.12-64.88,74.69-66.33,79.05-1.46,4.36-6.18,84.53,3.9,87.48,10.08,2.95,39.66-27.54,46.45-30.53,6.79-2.99,101.99,1.13,103.42-11.33,1.42-12.46-105.22-17.93-107.53-19.09s32.71-96.99,20.1-105.59Z"/>
        <path class="cls-31" d="M418.21,617.55c-8.5-4.49-80.77,72.78-82.94,77.34-2.17,4.56-18.06,91.37-7.46,95.94,10.6,4.57,46.95-24.72,54.75-27.08,7.8-2.35,111.09,14.9,114.31,1.5,3.22-13.4-112.36-33.64-114.73-35.23s48.67-101.41,36.07-112.47Z"/>
        <path class="cls-17" d="M432.38,605.57c-8.67-6.04-97.84,68.57-100.82,73.25-2.98,4.68-31.93,97.24-20.99,103.64,10.95,6.4,54.52-20.68,63.34-22.2,8.82-1.52,119.17,31.12,124.48,16.94,5.31-14.18-118.05-51.74-120.42-53.79s66.66-104.09,54.4-117.84Z"/>
        <path class="cls-12" d="M449.44,594.41c-8.65-7.75-115.9,61.68-119.77,66.39-3.88,4.71-47.85,101.78-36.77,110.23,11.08,8.45,62.23-15.25,72.06-15.73,9.83-.48,125.82,49.91,133.51,35.15,7.69-14.76-121.83-72.25-124.14-74.79s86.65-104.6,75.12-121.25Z"/>
        <path class="cls-5" d="M469.55,584.53c-8.39-9.61-134.67,51.76-139.53,56.37-4.86,4.62-65.82,104.61-54.87,115.31,10.96,10.7,69.92-8.3,80.7-7.51,10.78.79,130.54,71.28,140.91,56.22,10.36-15.07-123.2-95.12-125.39-98.2s108.52-102.49,98.17-122.19Z"/>
        <path class="cls-14" d="M492.8,576.43c-7.87-11.61-153.82,38.42-159.74,42.8-5.92,4.38-85.8,105.28-75.29,118.42,10.52,13.14,77.37.31,89.03,2.62,11.66,2.31,132.84,95.23,146.16,80.19,13.32-15.05-121.64-120.24-123.61-123.9s132.09-97.25,123.44-120.12Z"/>
        <path class="cls-10" d="M519.24,570.72c-7.03-13.71-172.92,21.3-179.96,25.29-7.04,3.99-107.69,103.34-97.97,119.08,9.71,15.74,84.35,10.7,96.75,14.78,12.4,4.08,132.14,121.66,148.68,107.04,16.55-14.63-116.57-147.44-118.23-151.7s157.09-88.38,150.72-114.49Z"/>
        <path class="cls-23" d="M548.85,568.03c-5.83-15.9-191.46.08-199.67,3.49-8.21,3.41-131.29,98.29-122.81,116.76,8.49,18.46,90.57,22.97,103.55,29.08,12.98,6.11,127.83,150.39,147.83,136.66,20.01-13.74-107.4-176.43-108.64-181.29-1.23-4.86,183.18-75.36,179.73-104.69Z"/>
        <path class="cls-6" d="M581.5,569.07c-4.23-18.12-208.83-25.56-218.25-22.94-9.41,2.62-156.37,89.63-149.58,110.9,6.78,21.28,95.71,37.18,109.05,45.58,13.34,8.41,119.28,181.16,142.94,168.85,23.66-12.3-93.51-206.81-94.21-212.28-.7-5.47,209.89-57.67,210.05-90.12Z"/>
        <path class="cls-9" d="M616.98,574.57c-2.18-20.33-224.35-55.84-234.97-54.25-10.62,1.59-182.55,76.82-178,100.93,4.55,24.11,99.41,53.37,112.84,64.32,13.43,10.95,105.84,213.56,133.3,203.31,27.45-10.25-74.3-238.1-74.33-244.16s236.65-34.79,241.17-70.16Z"/>
        <path class="cls-27" d="M654.94,585.31c.34-22.47-237.23-90.95-249.02-90.64-11.8.32-209.4,59.33-207.67,86.25,1.73,26.91,101.28,71.52,114.46,85.27,13.18,13.75,86.84,247.11,118.16,239.61,31.32-7.5-49.15-269.65-48.37-276.26s262.77-6.25,272.44-44.23Z"/>
        <path class="cls-15" d="M694.91,602.12c3.38-24.46-246.56-130.97-259.47-132.21-12.91-1.23-236.34,36.67-238.06,66.26-1.72,29.58,100.89,91.58,113.42,108.33,12.53,16.76,61.63,281.16,96.79,277.16,35.16-3.99-17.5-300.69-15.76-307.79s287.45,28.37,303.08-11.75Z"/>
        <path class="cls-26" d="M736.24,625.81c6.96-26.23-251.39-175.88-265.3-178.95-13.91-3.07-262.69,8.35-268.52,40.39-5.83,32.04,97.78,113.39,109.2,133.35,11.42,19.96,29.56,314.91,68.45,315.27,38.89.36,21.18-330.31,24.03-337.83,2.85-7.52,309.72,69.44,332.15,27.77Z"/>
        <path class="cls-3" d="M778.16,657.18c11.11-27.67-250.64-225.5-265.4-230.71-14.76-5.22-287.64-26.07-298.29,8.09s91.46,136.78,101.25,160.07c9.79,23.3-9.93,347.44,32.44,353.03,42.37,5.6,67.34-357.43,71.45-365.25s328.51,117.22,358.56,74.77Z"/>
        <path class="cls-28" d="M819.67,697.01c15.82-28.7-243.18-279.52-258.58-287.18-15.41-7.67-310.24-66.96-326.43-31.13-16.19,35.83,81.44,161.43,89,188.15,7.56,26.72-57.36,377.62-11.9,389.4,45.46,11.78,121.31-380.84,126.85-388.82s342.62,171.85,381.07,129.57Z"/>
        <path class="cls-7" d="M859.62,746.01c21.1-29.18-227.8-337.44-243.58-347.86-15.78-10.43-329.41-114.58-351.87-77.66s67.21,186.98,71.87,217.14c4.66,30.16-113.14,404.2-65.13,423.13,48.01,18.93,183.32-399.14,190.43-407.1s350.68,233.32,398.28,192.36Z"/>
        <path class="cls-25" d="M896.63,804.8c26.92-29-203.27-398.56-219.09-412.04-15.81-13.48-343.95-169.09-373.39-131.83-29.44,37.26,48.26,212.94,49.31,246.46,1.05,33.52-177.53,425.71-127.7,452.79,49.83,27.08,253.4-410.79,262.22-418.52s351.24,301.45,408.65,263.15Z"/>
        <path class="cls-1" d="M929.13,873.89c33.25-28.03-168.34-461.93-183.78-478.76-15.44-16.82-352.5-230.49-389.61-193.8-37.1,36.69,24.12,238.72,20.78,275.42-3.35,36.7-250.64,440.55-199.93,476.76,50.72,36.21,331.4-414.12,342.05-421.37,10.65-7.25,342.74,375.83,410.48,341.75Z"/>
        <path class="cls-4" d="M955.31,953.59c40.01-26.12-121.75-526.38-136.33-546.8-14.59-20.42-353.61-298.61-398.99-263.55-45.38,35.05-5.66,263.61-14.22,303.18-8.56,39.58-332.38,446.95-281.91,493.23,50.47,46.29,416.93-407.3,429.51-413.78,12.59-6.48,323.49,455.82,401.94,427.72Z"/>
        <path class="cls-29" d="M973.2,1044.03c47.14-23.13-62.3-590.43-75.47-614.65-13.17-24.22-345.7-373.05-399.89-340.89s-41.47,286.76-56.11,328.78c-14.64,42.02-422.39,442.98-373.54,500.22,48.85,57.24,509.29-388.41,523.89-393.8,14.6-5.38,291.79,540.49,381.12,520.34Z"/>
        <path class="cls-8" d="M980.6,1145.07c54.52-18.91,11.13-652.33,0-680.52-11.13-28.19-327.09-453.19-390.51-425.37s-83.64,307.22-105.24,351.09c-21.6,43.87-520.03,426.59-474.41,495.57,45.62,68.98,607.51-355.44,624.15-359.36s245.88,628.6,346.01,618.59Z"/>
      </g>
      <circle class="cls-32" cx="1027.26" cy="586" r="7.5"/>
      <circle class="cls-32" cx="1066.26" cy="596" r="7.5"/>
      <circle class="cls-32" cx="719.26" cy="772" r="7.5"/>
      <circle class="cls-32" cx="685.26" cy="750" r="7.5"/>
      <circle class="cls-32" cx="680.26" cy="793" r="7.5"/>
      <circle class="cls-32" cx="113.26" cy="673" r="7.5"/>
      <circle class="cls-32" cx="76.26" cy="722" r="7.5"/>
      <circle class="cls-32" cx="51.26" cy="691" r="7.5"/>
      <circle class="cls-32" cx="784.26" cy="150" r="7.5"/>
      <circle class="cls-32" cx="843.26" cy="243" r="7.5"/>
      <circle class="cls-32" cx="656.26" cy="23" r="7.5"/>
      <circle class="cls-32" cx="811.76" cy="138.5" r="5"/>
      <circle class="cls-32" cx="685.76" cy="7.5" r="7.5"/>
      <circle class="cls-32" cx="678.76" cy="37.5" r="5"/>
      <circle class="cls-32" cx="868.76" cy="237.5" r="5"/>
      <circle class="cls-32" cx="858.76" cy="266.5" r="5"/>
      <circle class="cls-32" cx="1041.76" cy="611.5" r="5"/>
      <circle class="cls-32" cx="1090.76" cy="590.5" r="5"/>
      <circle class="cls-32" cx="680.76" cy="719.5" r="7.5"/>
      <circle class="cls-32" cx="700.76" cy="780.5" r="5"/>
      <circle class="cls-32" cx="730.76" cy="806.5" r="5"/>
      <circle class="cls-32" cx="77.76" cy="699.5" r="5"/>
      <circle class="cls-32" cx="25.76" cy="696.5" r="5"/>
      <circle class="cls-32" cx="181.76" cy="650.5" r="7.5"/>
      <circle class="cls-32" cx="706.76" cy="820.5" r="5"/>
      <circle class="cls-32" cx="693.76" cy="844.5" r="7.5"/>
      <circle class="cls-32" cx="734.76" cy="847.5" r="7.5"/>
      <circle class="cls-32" cx="1061.76" cy="623.5" r="5"/>
      <circle class="cls-32" cx="1015.76" cy="630.5" r="5"/>
      <circle class="cls-32" cx="709.76" cy="180.5" r="5"/>
      <circle class="cls-32" cx="696.76" cy="155.5" r="5"/>
      <circle class="cls-32" cx="650.76" cy="155.5" r="5"/>
      <circle class="cls-32" cx="661.76" cy="121.5" r="5"/>
      <circle class="cls-32" cx="621.76" cy="118.5" r="5"/>
      <circle class="cls-32" cx="609.76" cy="82.5" r="5"/>
      <circle class="cls-32" cx="714.76" cy="866.5" r="5"/>
    </g>
  </g>
</svg>