<?xml version="1.0" encoding="UTF-8"?>
<svg id="Layer_2" xmlns="http://www.w3.org/2000/svg" viewBox="0 0 1138.23 912.65">
  <defs>
    <style>
      .cls-1 {
        stroke-dasharray: 0 35.89;
        stroke-width: 11.3px;
      }

      .cls-1, .cls-2, .cls-3, .cls-4, .cls-5, .cls-6, .cls-7, .cls-8, .cls-9, .cls-10, .cls-11, .cls-12, .cls-13, .cls-14, .cls-15, .cls-16, .cls-17, .cls-18, .cls-19, .cls-20, .cls-21, .cls-22, .cls-23, .cls-24, .cls-25, .cls-26, .cls-27, .cls-28, .cls-29, .cls-30, .cls-31 {
        fill: none;
        stroke: #ee472c;
        stroke-linecap: round;
        stroke-linejoin: round;
      }

      .cls-2 {
        stroke-dasharray: 0 5.44;
        stroke-width: 1.71px;
      }

      .cls-3 {
        stroke-dasharray: 0 22.4;
        stroke-width: 7.05px;
      }

      .cls-4 {
        stroke-dasharray: 0 20.38;
        stroke-width: 6.42px;
      }

      .cls-5 {
        stroke-dasharray: 0 8.72;
        stroke-width: 2.75px;
      }

      .cls-6 {
        stroke-dasharray: 0 3.4;
        stroke-width: 1.07px;
      }

      .cls-7 {
        stroke-dasharray: 0 32.66;
        stroke-width: 10.29px;
      }

      .cls-8 {
        stroke-dasharray: 0 4.1;
        stroke-width: 1.29px;
      }

      .cls-9 {
        stroke-dasharray: 0 9.58;
        stroke-width: 3.02px;
      }

      .cls-32 {
        fill: #ee472c;
      }

      .cls-10 {
        stroke-dasharray: 0 2.81;
        stroke-width: .89px;
      }

      .cls-11 {
        stroke-dasharray: 0 47.63;
        stroke-width: 15px;
      }

      .cls-12 {
        stroke-dasharray: 0 16.88;
        stroke-width: 5.32px;
      }

      .cls-13 {
        stroke-dasharray: 0 29.72;
        stroke-width: 9.36px;
      }

      .cls-14 {
        stroke-dasharray: 0 27.05;
        stroke-width: 8.52px;
      }

      .cls-15 {
        stroke-dasharray: 0 11.57;
        stroke-width: 3.65px;
      }

      .cls-16 {
        stroke-dasharray: 0 10.53;
        stroke-width: 3.32px;
      }

      .cls-17 {
        stroke-dasharray: 0 13.98;
        stroke-width: 4.4px;
      }

      .cls-18 {
        stroke-dasharray: 0 43.34;
        stroke-width: 13.65px;
      }

      .cls-19 {
        stroke-dasharray: 0 7.94;
        stroke-width: 2.5px;
      }

      .cls-20 {
        stroke-dasharray: 0 4.95;
        stroke-width: 1.56px;
      }

      .cls-21 {
        stroke-dasharray: 0 7.22;
        stroke-width: 2.27px;
      }

      .cls-22 {
        stroke-dasharray: 0 18.55;
        stroke-width: 5.84px;
      }

      .cls-23 {
        stroke-dasharray: 0 12.72;
        stroke-width: 4.01px;
      }

      .cls-24 {
        stroke-dasharray: 0 5.98;
        stroke-width: 1.88px;
      }

      .cls-25 {
        stroke-dasharray: 0 3.73;
        stroke-width: 1.18px;
      }

      .cls-26 {
        stroke-dasharray: 0 6.57;
        stroke-width: 2.07px;
      }

      .cls-27 {
        stroke-dasharray: 0 24.61;
        stroke-width: 7.75px;
      }

      .cls-28 {
        stroke-dasharray: 0 39.44;
        stroke-width: 12.42px;
      }

      .cls-29 {
        stroke-dasharray: 0 3.09;
        stroke-width: .97px;
      }

      .cls-30 {
        stroke-dasharray: 0 15.36;
        stroke-width: 4.84px;
      }

      .cls-31 {
        stroke-dasharray: 0 4.51;
        stroke-width: 1.42px;
      }
    </style>
  </defs>
  <g id="high_bad">
    <g>
      <g>
        <path class="cls-10" d="M417.63,598.24s10.24,16.29,9.16,14.69c-3.46-5.17,7.79-31.1,12.38-27.56,1.7,1.31-64.54-4.18-60.46-3.62,7.32,1,17.61-33.02,14.71-25.07-1.31,3.6,21.47,6.28,22.11,1.68.25-1.78,2.98,41.13,2.09,39.88Z"/>
        <path class="cls-29" d="M416.72,598.96s9.97,18.65,8.92,16.81c-3.4-5.93,10.92-33.5,15.69-29.27,1.76,1.56-70.43-9.53-66-8.6,7.95,1.66,21.84-34.85,18.05-26.35-1.71,3.84,23.05,8.53,24.11,3.54.41-1.93.12,45.32-.76,43.88Z"/>
        <path class="cls-6" d="M415.66,599.68s9.5,21.2,8.49,19.11c-3.27-6.76,14.54-35.88,19.44-30.88,1.81,1.85-76.48-15.84-71.69-14.49,8.58,2.43,26.61-36.53,21.81-27.5-2.17,4.08,24.62,11.12,26.16,5.72.6-2.09-3.34,49.69-4.2,48.04Z"/>
        <path class="cls-25" d="M414.46,600.39s8.79,23.97,7.84,21.6c-3.07-7.66,18.69-38.22,23.68-32.36,1.84,2.17-82.62-23.23-77.48-21.38,9.22,3.32,31.97-38,26.01-28.48-2.69,4.31,26.13,14.08,28.23,8.28.81-2.24-7.47,54.21-8.29,52.34Z"/>
        <path class="cls-8" d="M413.08,601.08s7.8,26.95,6.94,24.28c-2.78-8.64,23.42-40.47,28.44-33.66,1.86,2.52-88.79-31.8-83.29-29.38,9.86,4.35,37.96-39.21,30.7-29.22-3.28,4.51,27.57,17.43,30.32,11.24,1.06-2.4-12.35,58.86-13.1,56.75Z"/>
        <path class="cls-31" d="M411.51,601.73s6.49,30.15,5.75,27.14c-2.38-9.68,28.77-42.57,33.76-34.72,1.84,2.9-94.9-41.67-89.06-38.59,10.47,5.52,44.62-40.07,35.89-29.68-3.94,4.7,28.89,21.22,32.37,14.65,1.35-2.55-18.05,63.58-18.71,61.2Z"/>
        <path class="cls-20" d="M409.75,602.31s4.8,33.54,4.22,30.2c-1.87-10.79,34.81-44.46,39.66-35.47,1.8,3.32-100.83-52.95-94.67-49.13,11.06,6.86,51.98-40.51,41.62-29.79-4.68,4.84,30.04,25.48,34.36,18.54,1.67-2.69-24.66,68.31-25.2,65.66Z"/>
        <path class="cls-2" d="M407.76,602.83s2.69,37.14,2.31,33.43c-1.22-11.98,41.56-46.07,46.2-35.85,1.71,3.78-106.48-65.77-100.01-61.11,11.59,8.36,60.09-40.42,47.91-29.46-5.51,4.95,30.98,30.23,36.25,22.95,2.04-2.82-32.27,72.99-32.66,70.04Z"/>
        <path class="cls-24" d="M405.55,603.23s.1,40.92-.03,36.82c-.42-13.22,49.09-47.31,53.39-35.75,1.59,4.27-111.68-80.27-104.95-74.66,12.07,10.06,68.97-39.7,54.78-28.63-6.42,5.01,31.64,35.52,37.98,27.94,2.45-2.93-40.97,77.54-41.17,74.28Z"/>
        <path class="cls-26" d="M403.1,603.51s-3.02,44.86-2.85,40.36c.55-14.53,57.45-48.1,61.27-35.1,1.41,4.81-116.27-96.55-109.33-89.89,12.46,11.95,78.65-38.24,62.24-27.18-7.42,5,31.96,41.36,39.49,33.54,2.91-3.03-50.86,81.86-50.83,78.27Z"/>
        <path class="cls-21" d="M400.39,603.63s-6.75,48.95-6.22,44.02c1.72-15.88,66.66-48.33,69.86-33.78,1.18,5.38-120.06-114.75-112.96-106.92,12.74,14.05,89.15-35.89,70.32-25.03-8.51,4.91,31.87,47.79,40.72,39.8,3.43-3.09-62.02,85.84-61.72,81.91Z"/>
        <path class="cls-19" d="M397.41,603.55s-11.16,53.14-10.2,47.78c3.1-17.28,76.78-47.87,79.17-31.68.88,5.98-122.82-135-115.63-125.87,12.89,16.38,100.48-32.5,79-22.05-9.71,4.73,31.27,54.83,41.59,46.75,3.99-3.13-74.57,89.35-73.93,85.06Z"/>
        <path class="cls-5" d="M394.14,603.23s-16.3,57.4-14.84,51.6c4.72-18.7,87.84-46.59,89.22-28.66.51,6.63-124.29-157.4-117.11-146.84,12.88,18.95,112.64-27.93,88.29-18.11-11.01,4.44,30.07,62.51,42,54.43,4.62-3.13-88.6,92.23-87.57,87.57Z"/>
        <path class="cls-9" d="M390.59,602.63s-22.27,61.67-20.22,55.43c6.61-20.14,99.86-44.34,100-24.58.05,7.31-124.18-182.08-117.12-169.95,12.66,21.76,125.62-21.98,98.18-13.08-12.41,4.02,28.18,70.83,41.87,62.89,5.3-3.07-104.19,94.31-102.71,89.29Z"/>
        <path class="cls-16" d="M386.74,601.71s-29.14,65.9-26.42,59.21c8.79-21.57,112.87-40.95,111.51-19.28-.5,8.01-122.17-209.12-115.36-195.28,12.21,24.82,139.39-14.47,108.63-6.82-13.91,3.46,25.46,79.8,41.08,72.15,6.05-2.96-121.45,95.4-119.43,90.01Z"/>
        <path class="cls-15" d="M382.6,600.4s-37,70.01-33.5,62.88c11.29-22.98,126.87-36.24,123.71-12.58-1.17,8.74-117.9-238.6-111.5-222.91,11.49,28.15,153.91-5.18,119.6.85-15.51,2.73,21.79,89.43,39.5,82.24,6.86-2.78-140.45,95.27-137.83,89.51Z"/>
        <path class="cls-23" d="M378.15,598.64s-45.93,73.91-41.54,66.37c14.14-24.32,141.85-30,136.58-4.31-1.95,9.5-110.95-270.6-105.14-252.91,10.43,31.74,169.12,6.12,131.05,10.1-17.21,1.8,17.03,99.71,37,93.19,7.73-2.52-161.26,93.67-157.95,87.56Z"/>
        <path class="cls-17" d="M373.41,596.38s-56.01,77.5-50.63,69.57c17.36-25.58,157.8-22.01,150.05,5.75-2.86,10.26-100.89-305.15-95.87-285.3,9,35.59,184.93,19.68,142.88,21.12-19.01.65,11.03,110.61,33.42,104.99,8.67-2.17-183.96,90.32-179.86,83.88Z"/>
        <path class="cls-30" d="M368.39,593.53s-67.34,80.66-60.83,72.38c20.99-26.71,174.67-12.03,164.05,17.8-3.93,11.03-87.2-342.24-83.22-320.1,7.14,39.7,201.21,35.75,155.01,34.11-20.89-.74,3.61,122.1,28.58,117.65,9.67-1.72-208.59,84.91-203.6,78.16Z"/>
        <path class="cls-12" d="M363.1,590.03s-80,83.26-72.23,74.68c25.06-27.67,192.4.2,178.47,32.09-5.15,11.79-69.36-381.86-66.69-357.29,4.79,44.07,217.83,54.61,167.31,49.27-22.84-2.41-5.4,134.12,22.32,131.17,10.73-1.14-235.17,77.09-229.18,70.08Z"/>
        <path class="cls-22" d="M357.58,585.78s-94.08,85.14-84.91,76.33c29.59-28.41,210.9,14.97,193.19,48.86-6.55,12.53-46.76-423.92-45.72-396.78,1.87,48.68,234.61,76.56,179.64,66.84-24.85-4.4-16.2,146.61,14.41,145.5,11.85-.43-263.71,66.48-256.6,59.25Z"/>
        <path class="cls-4" d="M351.84,580.7s-109.66,86.12-98.93,77.17c34.62-28.88,230.05,32.57,208.03,68.37-8.14,13.23-18.77-468.29-19.71-438.46-1.68,53.51,251.31,101.92,191.8,87.04-26.9-6.72-29,159.48,4.64,160.6,13.02.44-294.18,52.67-285.84,45.28Z"/>
        <path class="cls-3" d="M345.95,574.69s-126.82,86-114.37,77.01c40.16-29,249.69,53.34,222.81,90.89-9.94,13.88,15.32-514.79,12.01-482.16-5.95,58.53,267.68,130.99,203.58,110.12-28.98-9.43-44.02,172.6-7.22,176.41,14.24,1.48-326.52,35.18-316.81,27.73Z"/>
        <path class="cls-27" d="M339.95,567.65s-145.61,84.55-131.28,75.65c46.25-28.71,269.63,77.61,237.28,116.72-11.96,14.46,56.26-563.16,50.12-527.64-11.01,63.7,283.4,164.11,214.73,136.32-31.04-12.56-61.48,185.83-21.44,192.83,15.5,2.71-360.64,13.54-349.42,6.11Z"/>
        <path class="cls-14" d="M333.91,559.48s-166.11,81.53-149.71,72.87c52.9-27.93,289.62,105.75,251.17,146.14-14.21,14.93,104.84-613.03,95.39-574.57-16.95,68.99,298.09,201.63,224.94,165.9-33.07-16.15-81.64,199-38.28,209.75,16.78,4.16-396.38-12.8-383.52-20.08Z"/>
        <path class="cls-13" d="M327.91,550.05s-188.34,76.64-169.7,68.41c60.13-26.56,309.38,138.13,264.13,179.45-16.73,15.28,161.92-663.98,148.62-622.54-23.87,74.33,311.32,243.88,233.87,199.1-35.01-20.24-104.75,211.89-58.05,226.99,18.08,5.85-433.54-44.42-418.88-51.41Z"/>
        <path class="cls-7" d="M322.06,539.26s-212.34,69.58-191.27,61.98c67.96-24.51,328.57,175.13,275.79,216.97-19.51,15.47,228.4-715.46,210.64-671.05-31.86,79.65,322.58,291.21,241.11,236.19-36.83-24.87-131.08,224.25-81.03,244.39,19.37,7.79-471.85-81.92-455.24-88.47Z"/>
        <path class="cls-1" d="M316.48,526.99s-238.1,60-214.43,53.28c76.37-21.66,346.76,217.17,285.7,258.99-22.57,15.46,305.22-766.8,282.35-719.48-41.03,84.87,331.3,343.96,246.21,277.4-38.47-30.09-160.88,235.78-107.56,261.69,20.64,10.03-510.97-125.98-492.27-131.88Z"/>
        <path class="cls-28" d="M311.3,513.1s-265.61,47.52-239.14,41.97c85.38-17.89,363.48,264.65,293.34,305.81-25.93,15.22,393.37-817.19,364.67-767.07-51.49,89.89,336.81,402.45,248.64,322.96-39.86-35.93-194.43,246.14-137.97,278.63,21.86,12.58-550.48-177.27-529.53-182.3Z"/>
        <path class="cls-18" d="M306.68,497.48s-294.81,31.73-265.37,27.68c94.97-13.06,378.16,317.98,298.12,357.72-29.59,14.69,493.87-865.67,458.56-812.92-63.33,94.6,338.37,466.99,247.81,373.1-40.94-42.45-232.01,254.92-172.61,294.86,23,15.46-589.87-236.52-566.51-240.44Z"/>
        <path class="cls-11" d="M302.82,480s-325.61,12.18-293.03,10c105.11-7.04,390.18,377.56,299.39,415C275.62,918.83,916.93-6.11,874.18,49c-76.68,98.84,335.13,537.87,243.05,428-41.63-49.67-273.88,261.66-211.82,310,24.02,18.71-628.49-304.5-602.59-307Z"/>
      </g>
      <circle class="cls-32" cx="279.31" cy="843.5" r="7.5"/>
      <circle class="cls-32" cx="269.31" cy="791.5" r="7.5"/>
      <circle class="cls-32" cx="228.31" cy="748.5" r="7.5"/>
      <circle class="cls-32" cx="1010.31" cy="606.5" r="7.5"/>
      <circle class="cls-32" cx="1050.31" cy="630.5" r="7.5"/>
      <circle class="cls-32" cx="1031.31" cy="565.5" r="7.5"/>
      <circle class="cls-32" cx="960.31" cy="683.5" r="7.5"/>
      <circle class="cls-32" cx="778.31" cy="62.5" r="7.5"/>
      <circle class="cls-32" cx="783.31" cy="31.5" r="7.5"/>
      <circle class="cls-32" cx="726.31" cy="80.5" r="7.5"/>
      <circle class="cls-32" cx="701.31" cy="46.5" r="7.5"/>
      <circle class="cls-32" cx="655.31" cy="114.5" r="7.5"/>
      <circle class="cls-32" cx="1035.81" cy="611" r="5"/>
      <circle class="cls-32" cx="1022.81" cy="639" r="5"/>
      <circle class="cls-32" cx="955.81" cy="719" r="5"/>
      <circle class="cls-32" cx="978.81" cy="708" r="5"/>
      <circle class="cls-32" cx="759.81" cy="5" r="5"/>
      <circle class="cls-32" cx="696.81" cy="76" r="5"/>
      <circle class="cls-32" cx="809.81" cy="68" r="5"/>
      <circle class="cls-32" cx="679.81" cy="115" r="5"/>
      <circle class="cls-32" cx="740.81" cy="55" r="5"/>
      <circle class="cls-32" cx="273.81" cy="886" r="5"/>
      <circle class="cls-32" cx="259.81" cy="840" r="5"/>
      <circle class="cls-32" cx="243.81" cy="783" r="5"/>
      <circle class="cls-32" cx="243.81" cy="872" r="5"/>
      <circle class="cls-32" cx="233.81" cy="795" r="5"/>
      <circle class="cls-32" cx="971.81" cy="611" r="5"/>
      <circle class="cls-32" cx="962.81" cy="653" r="5"/>
      <circle class="cls-32" cx="532.81" cy="192" r="5"/>
      <circle class="cls-32" cx="554.81" cy="154" r="5"/>
      <circle class="cls-32" cx="512.81" cy="168" r="5"/>
      <circle class="cls-32" cx="541.81" cy="179" r="5"/>
    </g>
  </g>
</svg>