<?xml version="1.0" encoding="UTF-8"?>
<svg id="Layer_2" xmlns="http://www.w3.org/2000/svg" viewBox="0 0 1183.94 1115">
  <defs>
    <style>
      .cls-1 {
        stroke-dasharray: 0 23.51;
        stroke-width: 7.05px;
      }

      .cls-1, .cls-2, .cls-3, .cls-4, .cls-5, .cls-6, .cls-7, .cls-8, .cls-9, .cls-10, .cls-11, .cls-12, .cls-13, .cls-14, .cls-15, .cls-16, .cls-17, .cls-18, .cls-19, .cls-20, .cls-21, .cls-22, .cls-23, .cls-24, .cls-25, .cls-26, .cls-27, .cls-28, .cls-29, .cls-30, .cls-31 {
        fill: none;
        stroke: #ee472c;
        stroke-linecap: round;
        stroke-linejoin: round;
      }

      .cls-2 {
        stroke-dasharray: 0 41.4;
        stroke-width: 12.42px;
      }

      .cls-3 {
        stroke-dasharray: 0 3.57;
        stroke-width: 1.07px;
      }

      .cls-4 {
        stroke-dasharray: 0 13.35;
        stroke-width: 4.01px;
      }

      .cls-5 {
        stroke-dasharray: 0 12.15;
        stroke-width: 3.65px;
      }

      .cls-6 {
        stroke-dasharray: 0 25.84;
        stroke-width: 7.75px;
      }

      .cls-7 {
        stroke-dasharray: 0 31.2;
        stroke-width: 9.36px;
      }

      .cls-8 {
        stroke-dasharray: 0 37.68;
        stroke-width: 11.3px;
      }

      .cls-9 {
        stroke-dasharray: 0 19.47;
        stroke-width: 5.84px;
      }

      .cls-10 {
        stroke-dasharray: 0 3.24;
        stroke-width: .97px;
      }

      .cls-11 {
        stroke-dasharray: 0 21.4;
        stroke-width: 6.42px;
      }

      .cls-32 {
        fill: #ee472c;
      }

      .cls-12 {
        stroke-dasharray: 0 4.73;
        stroke-width: 1.42px;
      }

      .cls-13 {
        stroke-dasharray: 0 6.9;
        stroke-width: 2.07px;
      }

      .cls-14 {
        stroke-dasharray: 0 6.28;
        stroke-width: 1.88px;
      }

      .cls-15 {
        stroke-dasharray: 0 34.29;
        stroke-width: 10.29px;
      }

      .cls-16 {
        stroke-dasharray: 0 45.5;
        stroke-width: 13.65px;
      }

      .cls-17 {
        stroke-dasharray: 0 8.33;
        stroke-width: 2.5px;
      }

      .cls-18 {
        stroke-dasharray: 0 10.06;
        stroke-width: 3.02px;
      }

      .cls-19 {
        stroke-dasharray: 0 3.92;
        stroke-width: 1.18px;
      }

      .cls-20 {
        stroke-dasharray: 0 11.06;
        stroke-width: 3.32px;
      }

      .cls-21 {
        stroke-dasharray: 0 17.72;
        stroke-width: 5.32px;
      }

      .cls-22 {
        stroke-dasharray: 0 9.16;
        stroke-width: 2.75px;
      }

      .cls-23 {
        stroke-dasharray: 0 4.31;
        stroke-width: 1.29px;
      }

      .cls-24 {
        stroke-dasharray: 0 2.95;
        stroke-width: .89px;
      }

      .cls-25 {
        stroke-dasharray: 0 16.12;
        stroke-width: 4.84px;
      }

      .cls-26 {
        stroke-dasharray: 0 5.71;
        stroke-width: 1.71px;
      }

      .cls-27 {
        stroke-dasharray: 0 50;
        stroke-width: 15px;
      }

      .cls-28 {
        stroke-dasharray: 0 7.58;
        stroke-width: 2.27px;
      }

      .cls-29 {
        stroke-dasharray: 0 5.2;
        stroke-width: 1.56px;
      }

      .cls-30 {
        stroke-dasharray: 0 14.67;
        stroke-width: 4.4px;
      }

      .cls-31 {
        stroke-dasharray: 0 28.39;
        stroke-width: 8.52px;
      }
    </style>
  </defs>
  <g id="high_bad">
    <g>
      <g>
        <path class="cls-24" d="M765.2,373.07l22.82-5.2c.79-.18,1.52.46,1.44,1.26l-5.58,57.75c-.04.4-.27.75-.62.93l-29.18,15.38c-.7.37-1.56-.04-1.71-.82l-9.47-49.09c-.25-1.31,1.52-1.97,2.18-.81l8.56,14.83c.73,1.27,2.67.33,2.12-1.03h0c-.55-1.36,1.38-2.3,2.12-1.03l5.86,10.14c.62,1.07,2.25.59,2.2-.64l-1.65-40.47c-.02-.57.36-1.07.92-1.2Z"/>
        <path class="cls-10" d="M770.94,369.23l25.58-2.62c.88-.09,1.59.71,1.4,1.57l-13.82,62.24c-.09.43-.4.78-.81.93l-33.88,12.87c-.81.31-1.7-.26-1.75-1.12l-3.75-54.81c-.1-1.46,1.92-1.94,2.49-.6l7.35,17.32c.63,1.48,2.86.72,2.45-.84h0c-.42-1.56,1.82-2.33,2.45-.84l5.03,11.84c.53,1.25,2.38.95,2.49-.4l3.62-44.36c.05-.62.54-1.12,1.16-1.19Z"/>
        <path class="cls-3" d="M777.71,365.81l28.25.57c.97.02,1.64.99,1.31,1.9l-23.41,66.03c-.16.45-.54.79-1,.91l-38.68,9.5c-.93.23-1.82-.51-1.76-1.46l3.25-60.29c.09-1.61,2.35-1.86,2.79-.32l5.7,19.88c.49,1.7,3.03,1.16,2.78-.59h0c-.25-1.76,2.29-2.29,2.78-.59l3.9,13.59c.41,1.43,2.47,1.35,2.77-.1l9.89-47.9c.14-.67.74-1.15,1.43-1.14Z"/>
        <path class="cls-19" d="M785.55,362.99l30.74,4.41c1.06.15,1.66,1.29,1.18,2.25l-34.38,68.89c-.24.47-.69.79-1.22.86l-43.46,5.18c-1.04.12-1.91-.79-1.73-1.83l11.61-65.32c.31-1.74,2.81-1.72,3.09.03l3.56,22.45c.3,1.92,3.15,1.68,3.11-.27h0c-.03-1.95,2.81-2.2,3.11-.27l2.43,15.35c.26,1.62,2.51,1.81,3.03.26l17.2-50.92c.24-.72.96-1.16,1.71-1.05Z"/>
        <path class="cls-23" d="M794.49,360.96l32.94,8.92c1.13.31,1.63,1.63.99,2.61l-46.72,70.53c-.32.48-.86.77-1.44.77l-48.1-.17c-1.16,0-1.98-1.12-1.64-2.23l21.42-69.69c.57-1.86,3.3-1.5,3.37.45l.87,24.96c.07,2.14,3.21,2.25,3.43.12h0c.22-2.13,3.36-2.02,3.43.12l.6,17.07c.06,1.8,2.49,2.31,3.27.69l25.58-53.23c.36-.75,1.2-1.13,2-.92Z"/>
        <path class="cls-12" d="M804.5,359.94l34.73,14.15c1.2.49,1.56,2,.72,2.98l-60.41,70.67c-.41.48-1.04.73-1.68.65l-52.44-6.63c-1.26-.16-2.01-1.49-1.49-2.65l32.69-73.14c.87-1.95,3.8-1.19,3.61.94l-2.39,27.34c-.2,2.34,3.2,2.88,3.73.59h0c.53-2.29,3.93-1.75,3.73.59l-1.63,18.69c-.17,1.97,2.41,2.85,3.48,1.19l35.03-54.63c.49-.77,1.46-1.07,2.31-.73Z"/>
        <path class="cls-29" d="M815.56,360.17l35.99,20.08c1.24.69,1.44,2.39.39,3.35l-75.35,69c-.52.47-1.24.65-1.91.48l-56.31-14.25c-1.35-.34-1.99-1.89-1.27-3.09l45.45-75.4c1.21-2.01,4.3-.79,3.81,1.51l-6.27,29.5c-.54,2.53,3.1,3.57,3.99,1.14h0c.88-2.43,4.52-1.38,3.99,1.14l-4.28,20.17c-.45,2.12,2.25,3.43,3.63,1.76l45.53-54.9c.64-.77,1.74-.98,2.61-.49Z"/>
        <path class="cls-26" d="M827.6,361.9l36.56,26.72c1.26.92,1.25,2.8-.02,3.71l-91.42,65.16c-.63.45-1.44.55-2.15.27l-59.5-23.09c-1.43-.55-1.92-2.33-.97-3.54l59.67-76.15c1.59-2.03,4.8-.28,3.96,2.15l-10.79,31.34c-.92,2.69,2.91,4.31,4.2,1.78h0c1.29-2.53,5.12-.9,4.2,1.78l-7.37,21.43c-.78,2.26,1.99,4.04,3.73,2.41l57.01-53.78c.8-.76,2.03-.83,2.92-.18Z"/>
        <path class="cls-14" d="M840.49,365.4l36.3,34.04c1.25,1.17.98,3.22-.52,4.04l-108.44,58.83c-.74.4-1.64.41-2.38,0l-61.81-33.15c-1.48-.8-1.78-2.8-.59-3.99l75.29-75.07c2.01-2,5.27.33,4.03,2.88l-15.97,32.73c-1.37,2.81,2.59,5.09,4.34,2.51h0c1.75-2.59,5.71-.3,4.34,2.5l-10.91,22.38c-1.15,2.36,1.63,4.68,3.74,3.12l69.38-51.03c.97-.72,2.32-.64,3.2.19Z"/>
        <path class="cls-13" d="M854.08,370.95l35.03,41.99c1.21,1.44.64,3.65-1.11,4.33l-126.16,49.64c-.86.34-1.84.22-2.6-.31l-62.98-44.44c-1.51-1.07-1.57-3.29-.1-4.43l92.17-71.8c2.46-1.91,5.7,1.07,4.01,3.68l-21.8,33.57c-1.87,2.88,2.14,5.9,4.4,3.31h0c2.25-2.59,6.26.44,4.4,3.31l-14.9,22.95c-1.57,2.42,1.15,5.32,3.67,3.91l82.51-46.36c1.16-.65,2.62-.38,3.47.64Z"/>
        <path class="cls-28" d="M868.16,378.82l32.59,50.49c1.12,1.74.21,4.06-1.79,4.58l-144.25,37.25c-.99.26-2.04,0-2.79-.69l-62.74-56.9c-1.51-1.37-1.27-3.8.48-4.85l110.14-65.97c2.93-1.76,6.08,1.93,3.88,4.55l-28.27,33.69c-2.42,2.89,1.55,6.72,4.35,4.2h0c2.8-2.52,6.77,1.31,4.35,4.2l-19.32,23.04c-2.04,2.43.55,5.96,3.47,4.75l96.2-39.52c1.35-.56,2.91-.07,3.7,1.16Z"/>
        <path class="cls-17" d="M882.47,389.29l28.78,59.44c.99,2.05-.31,4.46-2.56,4.76l-162.33,21.31c-1.11.15-2.22-.28-2.96-1.13l-60.81-70.46c-1.46-1.69-.87-4.32,1.17-5.22l128.97-57.2c3.44-1.52,6.37,2.92,3.62,5.48l-35.35,32.96c-3.03,2.82.79,7.54,4.18,5.17h0c3.39-2.37,7.21,2.34,4.18,5.17l-24.16,22.54c-2.55,2.37-.2,6.57,3.15,5.65l110.22-30.22c1.55-.42,3.18.32,3.88,1.76Z"/>
        <path class="cls-22" d="M896.67,402.62l23.43,68.68c.81,2.36-.94,4.82-3.43,4.84l-179.91,1.51c-1.23.01-2.39-.6-3.07-1.62l-56.89-85c-1.37-2.04-.37-4.82,1.98-5.54l148.33-45.12c3.95-1.2,6.56,4.04,3.22,6.46l-42.97,31.22c-3.68,2.68-.15,8.33,3.87,6.2h0c4.02-2.13,7.55,3.52,3.87,6.19l-29.37,21.35c-3.09,2.25-1.1,7.14,2.68,6.58l124.27-18.2c1.75-.26,3.43.77,4,2.44Z"/>
        <path class="cls-18" d="M910.38,419.07l16.36,78.05c.56,2.69-1.67,5.13-4.39,4.82l-196.43-22.45c-1.35-.15-2.52-.97-3.13-2.18l-50.67-100.33c-1.22-2.41.24-5.31,2.9-5.78l167.83-29.34c4.47-.78,6.61,5.28,2.64,7.48l-51.05,28.3c-4.37,2.42-1.28,9.07,3.39,7.28h0c4.67-1.79,7.76,4.85,3.39,7.28l-34.9,19.35c-3.68,2.04-2.16,7.64,2.04,7.54l137.98-3.21c1.94-.05,3.63,1.3,4.03,3.2Z"/>
        <path class="cls-20" d="M923.12,438.84l7.39,87.32c.25,3-2.51,5.38-5.44,4.67l-211.24-50.79c-1.45-.35-2.62-1.4-3.13-2.8l-41.83-116.22c-1-2.79.97-5.76,3.93-5.91l186.98-9.53c4.98-.25,6.51,6.65,1.88,8.51l-59.47,24.03c-5.1,2.06-2.61,9.72,2.72,8.39h0c5.33-1.33,7.82,6.33,2.72,8.39l-40.65,16.44c-4.28,1.73-3.38,8.04,1.22,8.5l150.92,14.98c2.12.21,3.79,1.9,3.97,4.03Z"/>
        <path class="cls-5" d="M934.37,462.12l-3.63,96.23c-.12,3.31-3.45,5.53-6.56,4.37l-223.6-83.69c-1.53-.57-2.67-1.88-3.03-3.47l-30.06-132.36c-.72-3.18,1.83-6.15,5.08-5.92l205.22,14.65c5.47.39,6.2,8.12.91,9.54l-68.08,18.24c-5.83,1.56-4.15,10.25,1.85,9.52h0c5.99-.73,7.68,7.95,1.85,9.52l-46.54,12.48c-4.9,1.31-4.76,8.32.19,9.43l162.61,36.55c2.28.51,3.88,2.58,3.79,4.92Z"/>
        <path class="cls-4" d="M943.53,489.01l-16.85,104.48c-.58,3.59-4.51,5.57-7.74,3.88l-232.67-121.23c-1.59-.83-2.66-2.41-2.84-4.2l-15.06-148.39c-.36-3.56,2.82-6.47,6.34-5.78l221.87,43.46c5.91,1.16,5.68,9.69-.28,10.53l-76.7,10.78c-6.57.92-5.9,10.62.74,10.63h0c6.64,0,7.31,9.7.74,10.63l-52.44,7.38c-5.52.78-6.31,8.44-1.05,10.31l172.46,61.64c2.42.87,3.88,3.34,3.47,5.88Z"/>
        <path class="cls-30" d="M949.92,519.57l-32.37,111.7c-1.11,3.84-5.66,5.47-8.96,3.2l-237.54-163.38c-1.63-1.12-2.58-2.98-2.54-4.96l3.45-163.87c.08-3.94,3.94-6.68,7.69-5.45l236.18,77.11c6.29,2.05,4.9,11.33-1.72,11.44l-85.1,1.49c-7.29.13-7.85,10.8-.62,11.69h0c7.24.89,6.68,11.56-.61,11.69l-58.18,1.03c-6.13.11-8.01,8.36-2.53,11.11l179.85,90.33c2.53,1.27,3.79,4.16,3,6.88Z"/>
        <path class="cls-25" d="M952.79,553.75l-50.26,117.49c-1.73,4.04-6.91,5.21-10.2,2.29l-237.21-210.02c-1.63-1.44-2.42-3.6-2.11-5.75l25.71-178.27c.62-4.28,5.2-6.75,9.11-4.92l247.27,115.74c6.59,3.08,3.83,13.01-3.41,12.25l-93.01-9.78c-7.97-.84-10.01,10.72-2.24,12.67h0c7.77,1.94,5.73,13.5-2.23,12.67l-63.6-6.67c-6.7-.7-9.85,8.04-4.25,11.78l184.07,122.61c2.59,1.72,3.58,5.04,2.35,7.9Z"/>
        <path class="cls-21" d="M951.34,591.42l-70.56,121.42c-2.43,4.18-8.23,4.75-11.43,1.13l-230.6-260.83c-1.58-1.79-2.15-4.25-1.53-6.55l51.92-191c1.25-4.59,6.57-6.67,10.6-4.14l254.2,159.35c6.77,4.24,2.43,14.7-5.36,12.91l-100.14-23.12c-8.58-1.98-12.36,10.36-4.14,13.52h0c8.22,3.16,4.45,15.5-4.13,13.52l-68.47-15.79c-7.21-1.66-11.82,7.45-6.21,12.28l184.34,158.38c2.59,2.23,3.22,5.98,1.51,8.93Z"/>
        <path class="cls-9" d="M944.72,632.32l-93.22,122.99c-3.21,4.23-9.62,4.08-12.62-.3l-216.59-315.38c-1.48-2.16-1.78-4.92-.79-7.35l82.2-201.37c1.97-4.84,8.06-6.4,12.12-3.1l255.92,207.85c6.82,5.54.68,16.36-7.57,13.36l-106.13-38.63c-9.09-3.31-14.86,9.64-6.32,14.19h0c8.54,4.55,2.77,17.5-6.32,14.19l-72.57-26.39c-7.64-2.78-13.89,6.55-8.42,12.56l179.85,197.44c2.53,2.77,2.72,6.96.45,9.95Z"/>
        <path class="cls-11" d="M932.03,676.04l-118.14,121.66c-4.07,4.19-11.04,3.16-13.73-2.01l-194-372.99c-1.33-2.56-1.28-5.61.12-8.12l116.63-208.63c2.8-5.01,9.65-5.9,13.63-1.76l251.3,260.98c6.69,6.95-1.45,17.94-10.05,13.56l-110.58-56.35c-9.48-4.83-17.5,8.53-8.79,14.63h0c8.71,6.1.68,19.46-8.79,14.63l-75.62-38.51c-7.96-4.06-16.03,5.28-10.86,12.57l169.73,239.43c2.38,3.36,2.03,7.95-.84,10.91Z"/>
        <path class="cls-1" d="M912.32,722.02l-145.15,116.87c-4.99,4.02-12.46,1.97-14.7-4.03l-161.64-432.81c-1.11-2.97-.65-6.29,1.22-8.84l155.15-211.93c3.73-5.09,11.31-5.14,15.1-.09l239.14,318.3c6.37,8.48-3.98,19.37-12.77,13.44l-113.07-76.27c-9.69-6.54-20.23,6.95-11.55,14.78h0c8.68,7.82-1.86,21.31-11.55,14.78l-77.32-52.13c-8.14-5.49-18.19,3.61-13.53,12.26l153.06,283.88c2.15,3.99,1.15,8.94-2.38,11.78Z"/>
        <path class="cls-6" d="M884.67,769.53l-173.97,108.03c-5.99,3.72-13.86.48-15.5-6.37l-118.34-493.71c-.81-3.38.13-6.95,2.52-9.48l197.6-210.38c4.75-5.05,13.03-4.09,16.49,1.92l218.21,379.2c5.81,10.1-6.94,20.6-15.73,12.95l-113.11-98.33c-9.69-8.43-23,4.88-14.58,14.57h0c8.42,9.7-4.88,23-14.58,14.57l-77.35-67.21c-8.15-7.08-20.33,1.5-16.4,11.56l128.92,330.13c1.81,4.64.06,9.91-4.17,12.54Z"/>
        <path class="cls-31" d="M848.15,817.65l-204.22,94.54c-7.03,3.25-15.18-1.33-16.05-9.02l-62.96-554.35c-.43-3.8,1.08-7.56,4.01-10l243.7-203c5.85-4.88,14.76-2.72,17.72,4.3l187.22,442.82c4.99,11.8-10.33,21.53-18.89,12.02l-110.2-122.39c-9.44-10.49-25.74,2.24-17.85,13.94h0c7.89,11.7-8.41,24.43-17.85,13.94l-75.37-83.67c-7.94-8.81-22.37-1.08-19.44,10.41l96.4,377.34c1.35,5.3-1.27,10.81-6.23,13.11Z"/>
        <path class="cls-7" d="M801.87,865.25l-235.41,75.76c-8.1,2.61-16.38-3.48-16.3-11.99l5.57-613.06c.04-4.2,2.19-8.1,5.72-10.37l292.99-188.78c7.04-4.54,16.46-.99,18.76,7.07l144.9,508.07c3.86,13.53-14.15,22.11-22.22,10.58l-103.81-148.26c-8.9-12.7-28.37-1.01-21.34,12.82h0c7.03,13.82-12.44,25.52-21.34,12.82l-71-101.35c-7.48-10.68-24.26-4.18-22.59,8.75l54.61,424.48c.77,5.96-2.83,11.63-8.55,13.47Z"/>
        <path class="cls-15" d="M745.02,910.96l-266.9,51.11c-9.18,1.76-17.39-5.99-16.17-15.26l88.18-667.93c.6-4.58,3.47-8.54,7.63-10.55l344.85-166.66c8.28-4,18.08,1.13,19.51,10.22l90,573.56c2.4,15.28-18.39,22.22-25.65,8.56l-93.37-175.61c-8-15.05-30.81-4.9-24.99,11.12h0c5.82,16.02-16.99,26.17-24.99,11.12l-63.87-120.05c-6.73-12.65-25.9-7.8-25.81,6.52l2.72,470.3c.04,6.61-4.64,12.3-11.13,13.55Z"/>
        <path class="cls-8" d="M676.89,953.21l-297.96,20c-10.25.69-18.17-8.86-15.59-18.81l185.63-716.7c1.27-4.91,4.93-8.85,9.73-10.49l398.45-135.6c9.57-3.26,19.57,3.65,19.91,13.76l21.35,637.64c.57,16.98-23.03,21.77-29.12,5.9l-78.32-204.04c-6.71-17.48-32.95-9.47-28.75,8.78h0c4.2,18.25-22.03,26.27-28.75,8.79l-53.58-139.49c-5.64-14.69-27.2-11.98-29.03,3.65l-60.02,513.33c-.84,7.21-6.71,12.8-13.96,13.28Z"/>
        <path class="cls-2" d="M596.92,990.17l-327.67-18.09c-11.27-.62-18.63-12.1-14.49-22.6L553.21,192.62c2.04-5.19,6.56-8.99,12.02-10.13l452.76-94.53c10.88-2.27,20.86,6.61,19.88,17.67l-62.11,698.34c-1.65,18.6-28.04,20.66-32.56,2.54l-58.1-233.04c-4.98-19.97-34.67-14.74-32.53,5.73h0c2.14,20.47-27.55,25.7-32.53,5.73l-39.76-159.32c-4.19-16.78-28.06-16.71-32.15.1l-134.21,551.85c-1.89,7.75-9.03,13.06-17,12.62Z"/>
        <path class="cls-16" d="M504.75,1019.77l-354.97-63.61c-12.21-2.19-18.7-15.69-12.78-26.6L563.89,144.02c2.92-5.38,8.36-8.93,14.47-9.44l506.49-42.48c12.17-1.02,21.87,10,19.31,21.94l-161.26,753.37c-4.3,20.07-33.35,18.78-35.85-1.59l-32.16-261.96c-2.76-22.45-35.84-20.72-36.25,1.89h0c-.4,22.61-33.49,24.34-36.25,1.9l-22.03-179.1c-2.32-18.86-28.37-21.98-35.08-4.2l-220.29,583.94c-3.09,8.2-11.6,13.03-20.23,11.49Z"/>
        <path class="cls-27" d="M400.25,1039.71L21.61,922.79c-13.03-4.02-18.3-19.62-10.37-30.72L582.04,92.44c3.91-5.48,10.32-8.62,17.04-8.36l558.12,21.5c13.41.52,22.51,13.83,18.12,26.51l-276.78,800.11c-7.37,21.31-38.89,16.01-38.89-6.54v-290.03c0-24.85-36.32-27.4-39.79-2.79h0c-3.47,24.61-39.78,22.06-39.79-2.79l-.05-198.3c0-20.89-28-27.78-37.7-9.28l-318.47,607.41c-4.47,8.53-14.4,12.66-23.61,9.82Z"/>
      </g>
      <circle class="cls-32" cx="961.68" cy="870.5" r="7.5"/>
      <circle class="cls-32" cx="1014.68" cy="757.5" r="7.5"/>
      <circle class="cls-32" cx="992.68" cy="870.5" r="7.5"/>
      <circle class="cls-32" cx="954.68" cy="923.5" r="7.5"/>
      <circle class="cls-32" cx="920.68" cy="952.5" r="7.5"/>
      <circle class="cls-32" cx="966.68" cy="962.5" r="7.5"/>
      <circle class="cls-32" cx="935.68" cy="74.5" r="7.5"/>
      <circle class="cls-32" cx="971.68" cy="62.5" r="7.5"/>
      <circle class="cls-32" cx="856.68" cy="64.5" r="7.5"/>
      <circle class="cls-32" cx="798.68" cy="59.5" r="7.5"/>
      <circle class="cls-32" cx="736.68" cy="48.5" r="7.5"/>
      <circle class="cls-32" cx="779.68" cy="15.5" r="7.5"/>
      <circle class="cls-32" cx="455.68" cy="1054.5" r="7.5"/>
      <circle class="cls-32" cx="360.68" cy="1062.5" r="7.5"/>
      <circle class="cls-32" cx="418.68" cy="1094.5" r="7.5"/>
      <circle class="cls-32" cx="554.68" cy="1031.5" r="7.5"/>
      <circle class="cls-32" cx="269.68" cy="1036.5" r="7.5"/>
      <circle class="cls-32" cx="822.68" cy="895.5" r="7.5"/>
      <circle class="cls-32" cx="882.68" cy="985.5" r="7.5"/>
      <circle class="cls-32" cx="825.68" cy="964.5" r="7.5"/>
      <circle class="cls-32" cx="886.31" cy="920.9" r="5"/>
      <circle class="cls-32" cx="907.18" cy="976" r="5"/>
      <circle class="cls-32" cx="1006.18" cy="921" r="5"/>
      <circle class="cls-32" cx="787.18" cy="932" r="5"/>
      <circle class="cls-32" cx="1006.18" cy="826" r="5"/>
      <circle class="cls-32" cx="315.18" cy="1045" r="5"/>
      <circle class="cls-32" cx="461.18" cy="1093" r="5"/>
      <circle class="cls-32" cx="505.18" cy="1059" r="5"/>
      <circle class="cls-32" cx="372.18" cy="1110" r="5"/>
      <circle class="cls-32" cx="224.18" cy="1017" r="5"/>
      <circle class="cls-32" cx="935.18" cy="31" r="5"/>
      <circle class="cls-32" cx="898.18" cy="58" r="5"/>
      <circle class="cls-32" cx="732.18" cy="5" r="5"/>
      <circle class="cls-32" cx="769.18" cy="49" r="5"/>
      <circle class="cls-32" cx="828.18" cy="40" r="5"/>
      <circle class="cls-32" cx="691.18" cy="63" r="5"/>
    </g>
  </g>
</svg>