<?xml version="1.0" encoding="UTF-8"?>
<svg id="Layer_2" xmlns="http://www.w3.org/2000/svg" viewBox="0 0 1010 1040.55">
  <defs>
    <style>
      .cls-1 {
        stroke-dasharray: 0 5.2;
        stroke-width: 1.04px;
      }

      .cls-1, .cls-2, .cls-3, .cls-4, .cls-5, .cls-6, .cls-7, .cls-8, .cls-9, .cls-10, .cls-11, .cls-12, .cls-13, .cls-14, .cls-15, .cls-16, .cls-17, .cls-18, .cls-19, .cls-20, .cls-21, .cls-22, .cls-23, .cls-24, .cls-25, .cls-26, .cls-27, .cls-28, .cls-29, .cls-30, .cls-31 {
        fill: none;
        stroke: #ff8d86;
        stroke-linecap: round;
        stroke-linejoin: round;
      }

      .cls-2 {
        stroke-dasharray: 0 3.24;
        stroke-width: .65px;
      }

      .cls-3 {
        stroke-dasharray: 0 25.84;
        stroke-width: 5.17px;
      }

      .cls-4 {
        stroke-dasharray: 0 8.33;
        stroke-width: 1.67px;
      }

      .cls-5 {
        stroke-dasharray: 0 14.67;
        stroke-width: 2.93px;
      }

      .cls-6 {
        stroke-dasharray: 0 11.06;
        stroke-width: 2.21px;
      }

      .cls-7 {
        stroke-dasharray: 0 10.06;
        stroke-width: 2.01px;
      }

      .cls-8 {
        stroke-dasharray: 0 45.5;
        stroke-width: 9.1px;
      }

      .cls-9 {
        stroke-dasharray: 0 31.2;
        stroke-width: 6.24px;
      }

      .cls-10 {
        stroke-dasharray: 0 2.95;
        stroke-width: .59px;
      }

      .cls-11 {
        stroke-dasharray: 0 4.31;
        stroke-width: .86px;
      }

      .cls-12 {
        stroke-dasharray: 0 7.58;
        stroke-width: 1.52px;
      }

      .cls-13 {
        stroke-dasharray: 0 19.47;
        stroke-width: 3.89px;
      }

      .cls-14 {
        stroke-dasharray: 0 12.15;
        stroke-width: 2.43px;
      }

      .cls-15 {
        stroke-dasharray: 0 50;
        stroke-width: 10px;
      }

      .cls-16 {
        stroke-dasharray: 0 6.9;
        stroke-width: 1.38px;
      }

      .cls-17 {
        stroke-dasharray: 0 17.72;
        stroke-width: 3.54px;
      }

      .cls-18 {
        stroke-dasharray: 0 13.35;
        stroke-width: 2.67px;
      }

      .cls-19 {
        stroke-dasharray: 0 28.39;
        stroke-width: 5.68px;
      }

      .cls-20 {
        stroke-dasharray: 0 6.28;
        stroke-width: 1.26px;
      }

      .cls-21 {
        stroke-dasharray: 0 4.73;
        stroke-width: .95px;
      }

      .cls-22 {
        stroke-dasharray: 0 21.4;
        stroke-width: 4.28px;
      }

      .cls-23 {
        stroke-dasharray: 0 5.71;
        stroke-width: 1.14px;
      }

      .cls-24 {
        stroke-dasharray: 0 3.57;
        stroke-width: .71px;
      }

      .cls-25 {
        stroke-dasharray: 0 3.92;
        stroke-width: .78px;
      }

      .cls-26 {
        stroke-dasharray: 0 9.16;
        stroke-width: 1.83px;
      }

      .cls-27 {
        stroke-dasharray: 0 41.4;
        stroke-width: 8.28px;
      }

      .cls-28 {
        stroke-dasharray: 0 23.51;
        stroke-width: 4.7px;
      }

      .cls-29 {
        stroke-dasharray: 0 34.29;
        stroke-width: 6.86px;
      }

      .cls-30 {
        stroke-dasharray: 0 37.68;
        stroke-width: 7.54px;
      }

      .cls-31 {
        stroke-dasharray: 0 16.12;
        stroke-width: 3.22px;
      }
    </style>
  </defs>
  <g id="high_good">
    <g>
      <g>
        <rect class="cls-10" x="475.47" y="517.8" width="20.01" height="4.64" rx=".71" ry=".71"/>
        <rect class="cls-10" x="514.51" y="517.8" width="20.01" height="4.64" rx=".71" ry=".71"/>
        <rect class="cls-10" x="501.89" y="489.84" width="4.64" height="20.01" rx=".71" ry=".71"/>
        <rect class="cls-10" x="501.89" y="530.69" width="4.64" height="20.01" rx=".71" ry=".71"/>
        <rect class="cls-10" x="508.04" y="503.75" width="20.01" height="4.64" rx=".71" ry=".71" transform="translate(-206.11 514.54) rotate(-45)"/>
        <rect class="cls-10" x="515.73" y="523.8" width="4.64" height="20.01" rx=".71" ry=".71" transform="translate(-225.73 522.67) rotate(-45)"/>
        <rect class="cls-10" x="489.06" y="497.13" width="4.64" height="20.01" rx=".71" ry=".71" transform="translate(-214.68 495.99) rotate(-45)"/>
        <rect class="cls-10" x="481.16" y="531.86" width="20.01" height="4.64" rx=".71" ry=".71" transform="translate(-233.86 503.77) rotate(-45)"/>
      </g>
      <g>
        <rect class="cls-2" x="495.98" y="488.82" width="5.1" height="21.99" rx=".78" ry=".78" transform="translate(-130.05 178.52) rotate(-18)"/>
        <rect class="cls-2" x="509.24" y="529.63" width="5.1" height="21.99" rx=".78" ry=".78" transform="translate(-142.01 184.61) rotate(-18)"/>
        <rect class="cls-2" x="515.08" y="509.96" width="21.99" height="5.1" rx=".78" ry=".78" transform="translate(-132.63 187.65) rotate(-18)"/>
        <rect class="cls-2" x="472.39" y="523.83" width="21.99" height="5.1" rx=".78" ry=".78" transform="translate(-139 175.14) rotate(-18)"/>
        <rect class="cls-2" x="521.73" y="518.09" width="5.1" height="21.99" rx=".78" ry=".78" transform="translate(-185.16 756.02) rotate(-63)"/>
        <rect class="cls-2" x="484.29" y="535.96" width="21.99" height="5.1" rx=".78" ry=".78" transform="translate(-209.38 735.33) rotate(-63)"/>
        <rect class="cls-2" x="503.1" y="499.03" width="21.99" height="5.1" rx=".78" ry=".78" transform="translate(-166.21 731.93) rotate(-63)"/>
        <rect class="cls-2" x="483.22" y="499.54" width="5.1" height="21.99" rx=".78" ry=".78" transform="translate(-189.66 711.59) rotate(-63)"/>
      </g>
      <g>
        <rect class="cls-24" x="512.09" y="503.76" width="24.17" height="5.6" rx=".86" ry=".86" transform="translate(-197.64 404.85) rotate(-36)"/>
        <rect class="cls-24" x="473.95" y="531.47" width="24.17" height="5.6" rx=".86" ry=".86" transform="translate(-221.21 387.72) rotate(-36)"/>
        <rect class="cls-24" x="517.47" y="527.58" width="5.6" height="24.17" rx=".86" ry=".86" transform="translate(-217.84 408.87) rotate(-36)"/>
        <rect class="cls-24" x="488.48" y="487.67" width="5.6" height="24.17" rx=".86" ry=".86" transform="translate(-199.92 384.21) rotate(-36)"/>
        <rect class="cls-24" x="490.25" y="540.61" width="24.17" height="5.6" rx=".86" ry=".86" transform="translate(-112.97 954.56) rotate(-81)"/>
        <rect class="cls-24" x="479.84" y="504.23" width="5.6" height="24.17" rx=".86" ry=".86" transform="translate(-102.81 912.24) rotate(-81)"/>
        <rect class="cls-24" x="524.83" y="511.35" width="5.6" height="24.17" rx=".86" ry=".86" transform="translate(-71.9 962.68) rotate(-81)"/>
        <rect class="cls-24" x="496.56" y="494.07" width="24.17" height="5.6" rx=".86" ry=".86" transform="translate(-61.68 921.53) rotate(-81)"/>
      </g>
      <g>
        <rect class="cls-25" x="522.76" y="522.38" width="6.16" height="26.56" rx=".94" ry=".94" transform="translate(-216.6 646.22) rotate(-54)"/>
        <rect class="cls-25" x="480.85" y="491.93" width="6.16" height="26.56" rx=".94" ry=".94" transform="translate(-209.24 599.76) rotate(-54)"/>
        <rect class="cls-25" x="476.64" y="539.74" width="26.56" height="6.16" rx=".94" ry=".94" transform="translate(-237.19 620.11) rotate(-54)"/>
        <rect class="cls-25" x="508.5" y="495.89" width="26.56" height="6.16" rx=".94" ry=".94" transform="translate(-188.59 627.81) rotate(-54)"/>
        <rect class="cls-25" x="466.63" y="522.27" width="26.56" height="6.16" rx=".94" ry=".94" transform="translate(-76.27 81.54) rotate(-9)"/>
        <rect class="cls-25" x="498.47" y="482.28" width="6.16" height="26.56" rx=".94" ry=".94" transform="translate(-71.35 84.56) rotate(-9)"/>
        <rect class="cls-25" x="506.3" y="531.72" width="6.16" height="26.56" rx=".94" ry=".94" transform="translate(-78.98 86.39) rotate(-9)"/>
        <rect class="cls-25" x="517.42" y="513.06" width="26.56" height="6.16" rx=".94" ry=".94" transform="translate(-74.21 89.37) rotate(-9)"/>
      </g>
      <g>
        <rect class="cls-11" x="481.4" y="543.89" width="29.18" height="6.76" rx="1.03" ry="1.03" transform="translate(-177.77 849.88) rotate(-72)"/>
        <rect class="cls-11" x="499" y="489.75" width="29.18" height="6.76" rx="1.03" ry="1.03" transform="translate(-114.12 829.2) rotate(-72)"/>
        <rect class="cls-11" x="472.94" y="497.58" width="6.76" height="29.18" rx="1.03" ry="1.03" transform="translate(-157.98 806.91) rotate(-72)"/>
        <rect class="cls-11" x="529.58" y="515.98" width="6.76" height="29.18" rx="1.03" ry="1.03" transform="translate(-136.34 873.5) rotate(-72)"/>
        <rect class="cls-11" x="487.8" y="481.18" width="6.76" height="29.18" rx="1.03" ry="1.03" transform="translate(-171.54 277.03) rotate(-27)"/>
        <rect class="cls-11" x="515.06" y="504.89" width="29.18" height="6.76" rx="1.03" ry="1.03" transform="translate(-173.02 295.86) rotate(-27)"/>
        <rect class="cls-11" x="466.06" y="529.86" width="29.18" height="6.76" rx="1.03" ry="1.03" transform="translate(-189.7 276.33) rotate(-27)"/>
        <rect class="cls-11" x="514.67" y="531.13" width="6.76" height="29.18" rx="1.03" ry="1.03" transform="translate(-191.29 294.67) rotate(-27)"/>
      </g>
      <g>
        <rect class="cls-21" x="457.68" y="516.32" width="32.07" height="7.43" rx="1.14" ry="1.14"/>
        <rect class="cls-21" x="520.24" y="516.32" width="32.07" height="7.43" rx="1.14" ry="1.14"/>
        <rect class="cls-21" x="500.01" y="471.51" width="7.43" height="32.07" rx="1.14" ry="1.14"/>
        <rect class="cls-21" x="500.01" y="536.96" width="7.43" height="32.07" rx="1.14" ry="1.14"/>
        <rect class="cls-21" x="509.88" y="493.79" width="32.07" height="7.43" rx="1.14" ry="1.14" transform="translate(-197.75 517.59) rotate(-45)"/>
        <rect class="cls-21" x="522.19" y="525.93" width="7.43" height="32.07" rx="1.14" ry="1.14" transform="translate(-229.19 530.61) rotate(-45)"/>
        <rect class="cls-21" x="479.46" y="483.19" width="7.43" height="32.07" rx="1.14" ry="1.14" transform="translate(-211.49 487.87) rotate(-45)"/>
        <rect class="cls-21" x="466.8" y="538.84" width="32.07" height="7.43" rx="1.14" ry="1.14" transform="translate(-242.22 500.33) rotate(-45)"/>
      </g>
      <g>
        <rect class="cls-1" x="490.55" y="469.88" width="8.17" height="35.24" rx="1.25" ry="1.25" transform="translate(-126.44 176.71) rotate(-18)"/>
        <rect class="cls-1" x="511.79" y="535.26" width="8.17" height="35.24" rx="1.25" ry="1.25" transform="translate(-145.6 186.47) rotate(-18)"/>
        <rect class="cls-1" x="521.15" y="503.75" width="35.24" height="8.17" rx="1.25" ry="1.25" transform="translate(-130.56 191.34) rotate(-18)"/>
        <rect class="cls-1" x="452.74" y="525.97" width="35.24" height="8.17" rx="1.25" ry="1.25" transform="translate(-140.77 171.29) rotate(-18)"/>
        <rect class="cls-1" x="531.81" y="516.77" width="8.17" height="35.24" rx="1.25" ry="1.25" transform="translate(-183.55 769.27) rotate(-63)"/>
        <rect class="cls-1" x="471.81" y="545.41" width="35.24" height="8.17" rx="1.25" ry="1.25" transform="translate(-222.37 736.11) rotate(-63)"/>
        <rect class="cls-1" x="501.96" y="486.23" width="35.24" height="8.17" rx="1.25" ry="1.25" transform="translate(-153.18 730.67) rotate(-63)"/>
        <rect class="cls-1" x="470.1" y="487.05" width="8.17" height="35.24" rx="1.25" ry="1.25" transform="translate(-190.76 698.06) rotate(-63)"/>
      </g>
      <g>
        <rect class="cls-23" x="516.37" y="493.82" width="38.73" height="8.98" rx="1.37" ry="1.37" transform="translate(-190.58 410.06) rotate(-36)"/>
        <rect class="cls-23" x="455.25" y="538.22" width="38.73" height="8.98" rx="1.37" ry="1.37" transform="translate(-228.35 382.62) rotate(-36)"/>
        <rect class="cls-23" x="524.98" y="531.98" width="8.98" height="38.73" rx="1.37" ry="1.37" transform="translate(-222.95 416.51) rotate(-36)"/>
        <rect class="cls-23" x="478.53" y="468.03" width="8.98" height="38.73" rx="1.37" ry="1.37" transform="translate(-194.24 376.99) rotate(-36)"/>
        <rect class="cls-23" x="481.37" y="552.87" width="38.73" height="8.98" rx="1.37" ry="1.37" transform="translate(-128.1 964.73) rotate(-81)"/>
        <rect class="cls-23" x="464.68" y="494.56" width="8.98" height="38.73" rx="1.37" ry="1.37" transform="translate(-111.82 896.92) rotate(-81)"/>
        <rect class="cls-23" x="536.78" y="505.98" width="8.98" height="38.73" rx="1.37" ry="1.37" transform="translate(-62.28 977.76) rotate(-81)"/>
        <rect class="cls-23" x="491.48" y="478.28" width="38.73" height="8.98" rx="1.37" ry="1.37" transform="translate(-45.9 911.8) rotate(-81)"/>
      </g>
      <g>
        <rect class="cls-20" x="533.46" y="523.65" width="9.86" height="42.56" rx="1.51" ry="1.51" transform="translate(-218.92 660.2) rotate(-54)"/>
        <rect class="cls-20" x="466.3" y="474.85" width="9.86" height="42.56" rx="1.51" ry="1.51" transform="translate(-207.13 585.75) rotate(-54)"/>
        <rect class="cls-20" x="459.56" y="551.47" width="42.56" height="9.86" rx="1.51" ry="1.51" transform="translate(-251.93 618.36) rotate(-54)"/>
        <rect class="cls-20" x="510.61" y="481.2" width="42.56" height="9.86" rx="1.51" ry="1.51" transform="translate(-174.04 630.7) rotate(-54)"/>
        <rect class="cls-20" x="443.51" y="523.47" width="42.56" height="9.86" rx="1.51" ry="1.51" transform="translate(-76.94 79.22) rotate(-9)"/>
        <rect class="cls-20" x="494.54" y="459.39" width="9.86" height="42.56" rx="1.51" ry="1.51" transform="translate(-69.04 84.05) rotate(-9)"/>
        <rect class="cls-20" x="507.09" y="538.61" width="9.86" height="42.56" rx="1.51" ry="1.51" transform="translate(-81.28 86.99) rotate(-9)"/>
        <rect class="cls-20" x="524.9" y="508.71" width="42.56" height="9.86" rx="1.51" ry="1.51" transform="translate(-73.63 91.76) rotate(-9)"/>
      </g>
      <g>
        <rect class="cls-16" x="467.19" y="558.13" width="46.77" height="10.84" rx="1.66" ry="1.66" transform="translate(-196.99 855.96) rotate(-72)"/>
        <rect class="cls-16" x="495.38" y="471.36" width="46.77" height="10.84" rx="1.66" ry="1.66" transform="translate(-94.99 822.82) rotate(-72)"/>
        <rect class="cls-16" x="453.62" y="483.91" width="10.84" height="46.77" rx="1.66" ry="1.66" transform="translate(-165.27 787.1) rotate(-72)"/>
        <rect class="cls-16" x="544.39" y="513.4" width="10.84" height="46.77" rx="1.66" ry="1.66" transform="translate(-130.6 893.81) rotate(-72)"/>
        <rect class="cls-16" x="477.43" y="457.63" width="10.84" height="46.77" rx="1.66" ry="1.66" transform="translate(-165.75 271.64) rotate(-27)"/>
        <rect class="cls-16" x="521.13" y="495.63" width="46.77" height="10.84" rx="1.66" ry="1.66" transform="translate(-168.12 301.81) rotate(-27)"/>
        <rect class="cls-16" x="442.59" y="535.64" width="46.77" height="10.84" rx="1.66" ry="1.66" transform="translate(-194.85 270.52) rotate(-27)"/>
        <rect class="cls-16" x="520.49" y="537.67" width="10.84" height="46.77" rx="1.66" ry="1.66" transform="translate(-197.39 299.91) rotate(-27)"/>
      </g>
      <g>
        <rect class="cls-12" x="429.18" y="513.93" width="51.39" height="11.91" rx="1.82" ry="1.82"/>
        <rect class="cls-12" x="529.43" y="513.93" width="51.39" height="11.91" rx="1.82" ry="1.82"/>
        <rect class="cls-12" x="497" y="442.13" width="11.91" height="51.39" rx="1.82" ry="1.82"/>
        <rect class="cls-12" x="497" y="547.02" width="11.91" height="51.39" rx="1.82" ry="1.82"/>
        <rect class="cls-12" x="512.81" y="477.84" width="51.39" height="11.91" rx="1.82" ry="1.82" transform="translate(-184.37 522.48) rotate(-45)"/>
        <rect class="cls-12" x="532.55" y="529.34" width="11.91" height="51.39" rx="1.82" ry="1.82" transform="translate(-234.74 543.35) rotate(-45)"/>
        <rect class="cls-12" x="464.07" y="460.85" width="11.91" height="51.39" rx="1.82" ry="1.82" transform="translate(-206.38 474.86) rotate(-45)"/>
        <rect class="cls-12" x="443.78" y="550.02" width="51.39" height="11.91" rx="1.82" ry="1.82" transform="translate(-255.63 494.81) rotate(-45)"/>
      </g>
      <g>
        <rect class="cls-4" x="481.84" y="439.52" width="13.09" height="56.48" rx="2" ry="2" transform="translate(-120.64 173.81) rotate(-18)"/>
        <rect class="cls-4" x="515.88" y="544.29" width="13.09" height="56.48" rx="2" ry="2" transform="translate(-151.35 189.46) rotate(-18)"/>
        <rect class="cls-4" x="530.88" y="493.79" width="56.48" height="13.09" rx="2" ry="2" transform="translate(-127.25 197.26) rotate(-18)"/>
        <rect class="cls-4" x="421.26" y="529.4" width="56.48" height="13.09" rx="2" ry="2" transform="translate(-143.62 165.13) rotate(-18)"/>
        <rect class="cls-4" x="547.96" y="514.67" width="13.09" height="56.48" rx="2" ry="2" transform="translate(-180.97 790.5) rotate(-63)"/>
        <rect class="cls-4" x="451.81" y="560.55" width="56.48" height="13.09" rx="2" ry="2" transform="translate(-243.18 737.37) rotate(-63)"/>
        <rect class="cls-4" x="500.13" y="465.72" width="56.48" height="13.09" rx="2" ry="2" transform="translate(-132.3 728.64) rotate(-63)"/>
        <rect class="cls-4" x="449.08" y="467.04" width="13.09" height="56.48" rx="2" ry="2" transform="translate(-192.52 676.39) rotate(-63)"/>
      </g>
      <g>
        <rect class="cls-26" x="523.21" y="477.88" width="62.06" height="14.38" rx="2.2" ry="2.2" transform="translate(-179.27 418.42) rotate(-36)"/>
        <rect class="cls-26" x="425.27" y="549.04" width="62.06" height="14.38" rx="2.2" ry="2.2" transform="translate(-239.8 374.44) rotate(-36)"/>
        <rect class="cls-26" x="537.02" y="539.03" width="14.38" height="62.06" rx="2.2" ry="2.2" transform="translate(-231.14 428.75) rotate(-36)"/>
        <rect class="cls-26" x="462.58" y="436.56" width="14.38" height="62.06" rx="2.2" ry="2.2" transform="translate(-185.13 365.43) rotate(-36)"/>
        <rect class="cls-26" x="467.13" y="572.51" width="62.06" height="14.38" rx="2.2" ry="2.2" transform="translate(-152.33 981.04) rotate(-81)"/>
        <rect class="cls-26" x="440.4" y="479.06" width="14.38" height="62.06" rx="2.2" ry="2.2" transform="translate(-126.25 872.38) rotate(-81)"/>
        <rect class="cls-26" x="555.92" y="497.36" width="14.38" height="62.06" rx="2.2" ry="2.2" transform="translate(-46.87 1001.91) rotate(-81)"/>
        <rect class="cls-26" x="483.33" y="452.99" width="62.06" height="14.38" rx="2.2" ry="2.2" transform="translate(-20.62 896.22) rotate(-81)"/>
      </g>
      <g>
        <rect class="cls-7" x="550.61" y="525.68" width="15.81" height="68.2" rx="2.41" ry="2.41" transform="translate(-222.65 682.6) rotate(-54)"/>
        <rect class="cls-7" x="442.98" y="447.49" width="15.81" height="68.2" rx="2.41" ry="2.41" transform="translate(-203.75 563.29) rotate(-54)"/>
        <rect class="cls-7" x="432.19" y="570.26" width="68.2" height="15.81" rx="2.41" ry="2.41" transform="translate(-275.53 615.56) rotate(-54)"/>
        <rect class="cls-7" x="513.99" y="457.66" width="68.2" height="15.81" rx="2.41" ry="2.41" transform="translate(-150.72 635.33) rotate(-54)"/>
        <rect class="cls-7" x="406.47" y="525.4" width="68.2" height="15.81" rx="2.41" ry="2.41" transform="translate(-78 75.49) rotate(-9)"/>
        <rect class="cls-7" x="488.24" y="422.71" width="15.81" height="68.2" rx="2.41" ry="2.41" transform="translate(-65.35 83.24) rotate(-9)"/>
        <rect class="cls-7" x="508.34" y="549.66" width="15.81" height="68.2" rx="2.41" ry="2.41" transform="translate(-84.96 87.95) rotate(-9)"/>
        <rect class="cls-7" x="536.88" y="501.74" width="68.2" height="15.81" rx="2.41" ry="2.41" transform="translate(-72.7 95.6) rotate(-9)"/>
      </g>
      <g>
        <rect class="cls-6" x="444.4" y="580.93" width="74.95" height="17.37" rx="2.65" ry="2.65" transform="translate(-227.79 865.71) rotate(-72)"/>
        <rect class="cls-6" x="489.58" y="441.9" width="74.95" height="17.37" rx="2.65" ry="2.65" transform="translate(-64.34 812.6) rotate(-72)"/>
        <rect class="cls-6" x="422.67" y="462" width="17.37" height="74.95" rx="2.65" ry="2.65" transform="translate(-176.97 755.36) rotate(-72)"/>
        <rect class="cls-6" x="568.13" y="509.26" width="17.37" height="74.95" rx="2.65" ry="2.65" transform="translate(-121.41 926.36) rotate(-72)"/>
        <rect class="cls-6" x="460.82" y="419.89" width="17.37" height="74.95" rx="2.65" ry="2.65" transform="translate(-156.46 263) rotate(-27)"/>
        <rect class="cls-6" x="530.84" y="480.78" width="74.95" height="17.37" rx="2.65" ry="2.65" transform="translate(-160.27 311.36) rotate(-27)"/>
        <rect class="cls-6" x="404.99" y="544.9" width="74.95" height="17.37" rx="2.65" ry="2.65" transform="translate(-203.1 261.21) rotate(-27)"/>
        <rect class="cls-6" x="529.83" y="548.15" width="17.37" height="74.95" rx="2.65" ry="2.65" transform="translate(-207.17 308.31) rotate(-27)"/>
      </g>
      <g>
        <rect class="cls-14" x="383.5" y="510.11" width="82.36" height="19.09" rx="2.92" ry="2.92"/>
        <rect class="cls-14" x="544.15" y="510.11" width="82.36" height="19.09" rx="2.92" ry="2.92"/>
        <rect class="cls-14" x="492.19" y="395.06" width="19.09" height="82.36" rx="2.92" ry="2.92"/>
        <rect class="cls-14" x="492.19" y="563.13" width="19.09" height="82.36" rx="2.92" ry="2.92"/>
        <rect class="cls-14" x="517.52" y="452.27" width="82.36" height="19.09" rx="2.92" ry="2.92" transform="translate(-162.91 530.32) rotate(-45)"/>
        <rect class="cls-14" x="549.15" y="534.8" width="19.09" height="82.36" rx="2.92" ry="2.92" transform="translate(-243.64 563.76) rotate(-45)"/>
        <rect class="cls-14" x="439.4" y="425.05" width="19.09" height="82.36" rx="2.92" ry="2.92" transform="translate(-198.18 454.01) rotate(-45)"/>
        <rect class="cls-14" x="406.9" y="567.94" width="82.36" height="19.09" rx="2.92" ry="2.92" transform="translate(-277.11 485.98) rotate(-45)"/>
      </g>
      <g>
        <rect class="cls-18" x="467.88" y="390.86" width="20.97" height="90.5" rx="3.2" ry="3.2" transform="translate(-111.35 169.17) rotate(-18)"/>
        <rect class="cls-18" x="522.44" y="558.76" width="20.97" height="90.5" rx="3.2" ry="3.2" transform="translate(-160.57 194.24) rotate(-18)"/>
        <rect class="cls-18" x="546.47" y="477.83" width="90.5" height="20.97" rx="3.2" ry="3.2" transform="translate(-121.94 206.75) rotate(-18)"/>
        <rect class="cls-18" x="370.81" y="534.91" width="90.5" height="20.97" rx="3.2" ry="3.2" transform="translate(-148.17 155.26) rotate(-18)"/>
        <rect class="cls-18" x="573.85" y="511.29" width="20.97" height="90.5" rx="3.2" ry="3.2" transform="translate(-176.83 824.52) rotate(-63)"/>
        <rect class="cls-18" x="419.76" y="584.82" width="90.5" height="20.97" rx="3.2" ry="3.2" transform="translate(-276.52 739.38) rotate(-63)"/>
        <rect class="cls-18" x="497.2" y="432.85" width="90.5" height="20.97" rx="3.2" ry="3.2" transform="translate(-98.84 725.39) rotate(-63)"/>
        <rect class="cls-18" x="415.39" y="434.96" width="20.97" height="90.5" rx="3.2" ry="3.2" transform="translate(-195.34 641.66) rotate(-63)"/>
      </g>
      <g>
        <rect class="cls-5" x="534.19" y="452.34" width="99.45" height="23.05" rx="3.52" ry="3.52" transform="translate(-161.13 431.81) rotate(-36)"/>
        <rect class="cls-5" x="377.24" y="566.37" width="99.45" height="23.05" rx="3.52" ry="3.52" transform="translate(-258.13 361.33) rotate(-36)"/>
        <rect class="cls-5" x="556.32" y="550.33" width="23.05" height="99.45" rx="3.52" ry="3.52" transform="translate(-244.25 448.37) rotate(-36)"/>
        <rect class="cls-5" x="437.02" y="386.13" width="23.05" height="99.45" rx="3.52" ry="3.52" transform="translate(-170.52 346.89) rotate(-36)"/>
        <rect class="cls-5" x="444.31" y="603.98" width="99.45" height="23.05" rx="3.52" ry="3.52" transform="translate(-191.17 1007.17) rotate(-81)"/>
        <rect class="cls-5" x="401.47" y="454.24" width="23.05" height="99.45" rx="3.52" ry="3.52" transform="translate(-149.37 833.04) rotate(-81)"/>
        <rect class="cls-5" x="586.6" y="483.56" width="23.05" height="99.45" rx="3.52" ry="3.52" transform="translate(-22.16 1040.62) rotate(-81)"/>
        <rect class="cls-5" x="470.27" y="412.45" width="99.45" height="23.05" rx="3.52" ry="3.52" transform="translate(19.9 871.25) rotate(-81)"/>
      </g>
      <g>
        <rect class="cls-31" x="578.09" y="528.95" width="25.33" height="109.29" rx="3.87" ry="3.87" transform="translate(-228.62 718.49) rotate(-54)"/>
        <rect class="cls-31" x="405.62" y="403.64" width="25.33" height="109.29" rx="3.87" ry="3.87" transform="translate(-198.34 527.31) rotate(-54)"/>
        <rect class="cls-31" x="388.32" y="600.38" width="109.29" height="25.33" rx="3.87" ry="3.87" transform="translate(-313.37 611.07) rotate(-54)"/>
        <rect class="cls-31" x="519.41" y="419.94" width="109.29" height="25.33" rx="3.87" ry="3.87" transform="translate(-113.35 642.75) rotate(-54)"/>
        <rect class="cls-31" x="347.11" y="528.49" width="109.29" height="25.33" rx="3.87" ry="3.87" transform="translate(-79.71 69.51) rotate(-9)"/>
        <rect class="cls-31" x="478.14" y="363.94" width="25.33" height="109.29" rx="3.87" ry="3.87" transform="translate(-59.44 81.93) rotate(-9)"/>
        <rect class="cls-31" x="510.36" y="567.37" width="25.33" height="109.29" rx="3.87" ry="3.87" transform="translate(-90.87 89.48) rotate(-9)"/>
        <rect class="cls-31" x="556.09" y="490.58" width="109.29" height="25.33" rx="3.87" ry="3.87" transform="translate(-71.21 101.74) rotate(-9)"/>
      </g>
      <g>
        <rect class="cls-17" x="407.9" y="617.48" width="120.1" height="27.83" rx="4.25" ry="4.25" transform="translate(-277.15 881.33) rotate(-72)"/>
        <rect class="cls-17" x="480.29" y="394.68" width="120.1" height="27.83" rx="4.25" ry="4.25" transform="translate(-15.23 796.22) rotate(-72)"/>
        <rect class="cls-17" x="373.06" y="426.89" width="27.83" height="120.1" rx="4.25" ry="4.25" transform="translate(-195.71 704.5) rotate(-72)"/>
        <rect class="cls-17" x="606.16" y="502.63" width="27.83" height="120.1" rx="4.25" ry="4.25" transform="translate(-106.68 978.53) rotate(-72)"/>
        <rect class="cls-17" x="434.2" y="359.41" width="27.83" height="120.1" rx="4.25" ry="4.25" transform="translate(-141.59 249.16) rotate(-27)"/>
        <rect class="cls-17" x="546.41" y="456.99" width="120.1" height="27.83" rx="4.25" ry="4.25" transform="translate(-147.69 326.65) rotate(-27)"/>
        <rect class="cls-17" x="344.74" y="559.74" width="120.1" height="27.83" rx="4.25" ry="4.25" transform="translate(-216.32 246.3) rotate(-27)"/>
        <rect class="cls-17" x="544.78" y="564.95" width="27.83" height="120.1" rx="4.25" ry="4.25" transform="translate(-222.85 321.77) rotate(-27)"/>
      </g>
      <g>
        <rect class="cls-13" x="310.29" y="503.99" width="131.98" height="30.59" rx="4.67" ry="4.67"/>
        <rect class="cls-13" x="567.73" y="503.99" width="131.98" height="30.59" rx="4.67" ry="4.67"/>
        <rect class="cls-13" x="484.47" y="319.62" width="30.59" height="131.98" rx="4.67" ry="4.67"/>
        <rect class="cls-13" x="484.47" y="588.95" width="30.59" height="131.98" rx="4.67" ry="4.67"/>
        <rect class="cls-13" x="525.06" y="411.3" width="131.98" height="30.59" rx="4.67" ry="4.67" transform="translate(-128.53 542.88) rotate(-45)"/>
        <rect class="cls-13" x="575.76" y="543.55" width="30.59" height="131.98" rx="4.67" ry="4.67" transform="translate(-257.9 596.47) rotate(-45)"/>
        <rect class="cls-13" x="399.88" y="367.68" width="30.59" height="131.98" rx="4.67" ry="4.67" transform="translate(-185.05 420.59) rotate(-45)"/>
        <rect class="cls-13" x="347.8" y="596.67" width="131.98" height="30.59" rx="4.67" ry="4.67" transform="translate(-311.52 471.83) rotate(-45)"/>
      </g>
      <g>
        <rect class="cls-22" x="445.52" y="312.89" width="33.61" height="145.03" rx="5.14" ry="5.14" transform="translate(-96.47 161.73) rotate(-18)"/>
        <rect class="cls-22" x="532.94" y="581.95" width="33.61" height="145.03" rx="5.14" ry="5.14" transform="translate(-175.33 201.91) rotate(-18)"/>
        <rect class="cls-22" x="571.45" y="452.26" width="145.03" height="33.61" rx="5.14" ry="5.14" transform="translate(-113.43 221.95) rotate(-18)"/>
        <rect class="cls-22" x="289.96" y="543.72" width="145.03" height="33.61" rx="5.14" ry="5.14" transform="translate(-155.47 139.45) rotate(-18)"/>
        <rect class="cls-22" x="615.33" y="505.88" width="33.61" height="145.03" rx="5.14" ry="5.14" transform="translate(-170.2 879.04) rotate(-63)"/>
        <rect class="cls-22" x="368.41" y="623.71" width="145.03" height="33.61" rx="5.14" ry="5.14" transform="translate(-329.96 742.6) rotate(-63)"/>
        <rect class="cls-22" x="492.49" y="380.18" width="145.03" height="33.61" rx="5.14" ry="5.14" transform="translate(-45.22 720.19) rotate(-63)"/>
        <rect class="cls-22" x="361.4" y="383.57" width="33.61" height="145.03" rx="5.14" ry="5.14" transform="translate(-199.87 586.01) rotate(-63)"/>
      </g>
      <g>
        <rect class="cls-28" x="551.77" y="411.41" width="159.37" height="36.94" rx="5.64" ry="5.64" transform="translate(-132.08 453.26) rotate(-36)"/>
        <rect class="cls-28" x="300.26" y="594.14" width="159.37" height="36.94" rx="5.64" ry="5.64" transform="translate(-287.52 340.33) rotate(-36)"/>
        <rect class="cls-28" x="587.24" y="568.43" width="36.94" height="159.37" rx="5.64" ry="5.64" transform="translate(-265.27 479.8) rotate(-36)"/>
        <rect class="cls-28" x="396.06" y="305.3" width="36.94" height="159.37" rx="5.64" ry="5.64" transform="translate(-147.12 317.18) rotate(-36)"/>
        <rect class="cls-28" x="407.74" y="654.41" width="159.37" height="36.94" rx="5.64" ry="5.64" transform="translate(-253.41 1049.04) rotate(-81)"/>
        <rect class="cls-28" x="339.1" y="414.45" width="36.94" height="159.37" rx="5.64" ry="5.64" transform="translate(-186.42 770) rotate(-81)"/>
        <rect class="cls-28" x="635.76" y="461.44" width="36.94" height="159.37" rx="5.64" ry="5.64" transform="translate(17.42 1102.64) rotate(-81)"/>
        <rect class="cls-28" x="449.35" y="347.49" width="159.37" height="36.94" rx="5.64" ry="5.64" transform="translate(84.82 831.23) rotate(-81)"/>
      </g>
      <g>
        <rect class="cls-3" x="622.12" y="534.17" width="40.59" height="175.14" rx="6.2" ry="6.2" transform="translate(-238.18 776.02) rotate(-54)"/>
        <rect class="cls-3" x="345.74" y="333.37" width="40.59" height="175.14" rx="6.2" ry="6.2" transform="translate(-189.66 469.65) rotate(-54)"/>
        <rect class="cls-3" x="318.02" y="648.64" width="175.14" height="40.59" rx="6.2" ry="6.2" transform="translate(-373.99 603.87) rotate(-54)"/>
        <rect class="cls-3" x="528.1" y="359.49" width="175.14" height="40.59" rx="6.2" ry="6.2" transform="translate(-53.47 654.64) rotate(-54)"/>
        <rect class="cls-3" x="251.98" y="533.44" width="175.14" height="40.59" rx="6.2" ry="6.2" transform="translate(-82.44 59.93) rotate(-9)"/>
        <rect class="cls-3" x="461.95" y="269.75" width="40.59" height="175.14" rx="6.2" ry="6.2" transform="translate(-49.96 79.84) rotate(-9)"/>
        <rect class="cls-3" x="513.59" y="595.74" width="40.59" height="175.14" rx="6.2" ry="6.2" transform="translate(-100.32 91.93) rotate(-9)"/>
        <rect class="cls-3" x="586.87" y="472.69" width="175.14" height="40.59" rx="6.2" ry="6.2" transform="translate(-68.82 111.58) rotate(-9)"/>
      </g>
      <g>
        <rect class="cls-19" x="349.39" y="676.04" width="192.46" height="44.6" rx="6.81" ry="6.81" transform="translate(-356.25 906.36) rotate(-72)"/>
        <rect class="cls-19" x="465.4" y="319" width="192.46" height="44.6" rx="6.81" ry="6.81" transform="translate(63.47 769.98) rotate(-72)"/>
        <rect class="cls-19" x="293.57" y="370.63" width="44.6" height="192.46" rx="6.81" ry="6.81" transform="translate(-225.74 623) rotate(-72)"/>
        <rect class="cls-19" x="667.11" y="492" width="44.6" height="192.46" rx="6.81" ry="6.81" transform="translate(-83.07 1062.12) rotate(-72)"/>
        <rect class="cls-19" x="391.55" y="262.49" width="44.6" height="192.46" rx="6.81" ry="6.81" transform="translate(-117.75 226.98) rotate(-27)"/>
        <rect class="cls-19" x="571.36" y="418.86" width="192.46" height="44.6" rx="6.81" ry="6.81" transform="translate(-127.52 351.16) rotate(-27)"/>
        <rect class="cls-19" x="248.19" y="583.52" width="192.46" height="44.6" rx="6.81" ry="6.81" transform="translate(-237.5 222.39) rotate(-27)"/>
        <rect class="cls-19" x="568.75" y="591.86" width="44.6" height="192.46" rx="6.81" ry="6.81" transform="translate(-247.97 343.33) rotate(-27)"/>
      </g>
      <g>
        <rect class="cls-9" x="192.98" y="494.18" width="211.49" height="49.01" rx="7.49" ry="7.49"/>
        <rect class="cls-9" x="605.53" y="494.18" width="211.49" height="49.01" rx="7.49" ry="7.49"/>
        <rect class="cls-9" x="472.1" y="198.73" width="49.01" height="211.49" rx="7.49" ry="7.49"/>
        <rect class="cls-9" x="472.1" y="630.33" width="49.01" height="211.49" rx="7.49" ry="7.49"/>
        <rect class="cls-9" x="537.15" y="345.64" width="211.49" height="49.01" rx="7.49" ry="7.49" transform="translate(-73.43 563.01) rotate(-45)"/>
        <rect class="cls-9" x="618.39" y="557.58" width="49.01" height="211.49" rx="7.49" ry="7.49" transform="translate(-280.74 648.88) rotate(-45)"/>
        <rect class="cls-9" x="336.55" y="275.75" width="49.01" height="211.49" rx="7.49" ry="7.49" transform="translate(-164 367.04) rotate(-45)"/>
        <rect class="cls-9" x="253.09" y="642.69" width="211.49" height="49.01" rx="7.49" ry="7.49" transform="translate(-366.68 449.15) rotate(-45)"/>
      </g>
      <g>
        <rect class="cls-29" x="409.68" y="187.95" width="53.86" height="232.41" rx="8.23" ry="8.23" transform="translate(-72.62 149.81) rotate(-18)"/>
        <rect class="cls-29" x="549.77" y="619.11" width="53.86" height="232.41" rx="8.23" ry="8.23" transform="translate(-199 214.2) rotate(-18)"/>
        <rect class="cls-29" x="611.48" y="411.28" width="232.41" height="53.86" rx="8.23" ry="8.23" transform="translate(-99.8 246.32) rotate(-18)"/>
        <rect class="cls-29" x="160.41" y="557.85" width="232.41" height="53.86" rx="8.23" ry="8.23" transform="translate(-167.17 114.1) rotate(-18)"/>
        <rect class="cls-29" x="681.8" y="497.21" width="53.86" height="232.41" rx="8.23" ry="8.23" transform="translate(-159.58 966.41) rotate(-63)"/>
        <rect class="cls-29" x="286.11" y="686.04" width="232.41" height="53.86" rx="8.23" ry="8.23" transform="translate(-415.59 747.75) rotate(-63)"/>
        <rect class="cls-29" x="484.96" y="295.78" width="232.41" height="53.86" rx="8.23" ry="8.23" transform="translate(40.7 711.84) rotate(-63)"/>
        <rect class="cls-29" x="274.88" y="301.2" width="53.86" height="232.41" rx="8.23" ry="8.23" transform="translate(-207.12 496.82) rotate(-63)"/>
      </g>
      <g>
        <rect class="cls-30" x="579.95" y="345.82" width="255.39" height="59.19" rx="9.04" ry="9.04" transform="translate(-85.51 487.64) rotate(-36)"/>
        <rect class="cls-30" x="176.91" y="638.64" width="255.39" height="59.19" rx="9.04" ry="9.04" transform="translate(-334.6 306.67) rotate(-36)"/>
        <rect class="cls-30" x="636.78" y="597.45" width="59.19" height="255.39" rx="9.04" ry="9.04" transform="translate(-298.96 530.18) rotate(-36)"/>
        <rect class="cls-30" x="330.43" y="175.79" width="59.19" height="255.39" rx="9.04" ry="9.04" transform="translate(-109.62 269.58) rotate(-36)"/>
        <rect class="cls-30" x="349.15" y="735.22" width="255.39" height="59.19" rx="9.04" ry="9.04" transform="translate(-353.15 1116.15) rotate(-81)"/>
        <rect class="cls-30" x="239.15" y="350.7" width="59.19" height="255.39" rx="9.04" ry="9.04" transform="translate(-245.8 668.99) rotate(-81)"/>
        <rect class="cls-30" x="714.54" y="425.99" width="59.19" height="255.39" rx="9.04" ry="9.04" transform="translate(80.85 1202.04) rotate(-81)"/>
        <rect class="cls-30" x="415.81" y="243.39" width="255.39" height="59.19" rx="9.04" ry="9.04" transform="translate(188.86 767.1) rotate(-81)"/>
      </g>
      <g>
        <rect class="cls-27" x="692.69" y="542.54" width="65.04" height="280.65" rx="9.94" ry="9.94" transform="translate(-253.51 868.2) rotate(-54)"/>
        <rect class="cls-27" x="249.79" y="220.76" width="65.04" height="280.65" rx="9.94" ry="9.94" transform="translate(-175.75 377.24) rotate(-54)"/>
        <rect class="cls-27" x="205.36" y="725.98" width="280.65" height="65.04" rx="9.94" ry="9.94" transform="translate(-471.14 592.33) rotate(-54)"/>
        <rect class="cls-27" x="542.01" y="262.62" width="280.65" height="65.04" rx="9.94" ry="9.94" transform="translate(42.5 673.69) rotate(-54)"/>
        <rect class="cls-27" x="99.53" y="541.37" width="280.65" height="65.04" rx="9.94" ry="9.94" transform="translate(-86.82 44.59) rotate(-9)"/>
        <rect class="cls-27" x="436.02" y="118.81" width="65.04" height="280.65" rx="9.94" ry="9.94" transform="translate(-34.77 76.49) rotate(-9)"/>
        <rect class="cls-27" x="518.76" y="641.21" width="65.04" height="280.65" rx="9.94" ry="9.94" transform="translate(-115.47 95.86) rotate(-9)"/>
        <rect class="cls-27" x="636.2" y="444.02" width="280.65" height="65.04" rx="9.94" ry="9.94" transform="translate(-64.99 127.34) rotate(-9)"/>
      </g>
      <g>
        <rect class="cls-8" x="255.64" y="769.89" width="308.41" height="71.48" rx="10.92" ry="10.92" transform="translate(-483 946.46) rotate(-72)"/>
        <rect class="cls-8" x="441.54" y="197.74" width="308.41" height="71.48" rx="10.92" ry="10.92" transform="translate(189.6 727.92) rotate(-72)"/>
        <rect class="cls-8" x="166.19" y="280.47" width="71.48" height="308.41" rx="10.92" ry="10.92" transform="translate(-273.87 492.39) rotate(-72)"/>
        <rect class="cls-8" x="764.77" y="474.96" width="71.48" height="308.41" rx="10.92" ry="10.92" transform="translate(-45.23 1196.07) rotate(-72)"/>
        <rect class="cls-8" x="323.19" y="107.17" width="71.48" height="308.41" rx="10.92" ry="10.92" transform="translate(-79.54 191.44) rotate(-27)"/>
        <rect class="cls-8" x="611.34" y="357.75" width="308.41" height="71.48" rx="10.92" ry="10.92" transform="translate(-95.2 390.44) rotate(-27)"/>
        <rect class="cls-8" x="93.46" y="621.63" width="308.41" height="71.48" rx="10.92" ry="10.92" transform="translate(-271.44 184.08) rotate(-27)"/>
        <rect class="cls-8" x="607.16" y="634.99" width="71.48" height="308.41" rx="10.92" ry="10.92" transform="translate(-288.22 377.89) rotate(-27)"/>
      </g>
      <g>
        <rect class="cls-15" x="5" y="478.45" width="338.91" height="78.55" rx="12" ry="12"/>
        <rect class="cls-15" x="666.09" y="478.45" width="338.91" height="78.55" rx="12" ry="12"/>
        <rect class="cls-15" x="452.27" y="5" width="78.55" height="338.91" rx="12" ry="12"/>
        <rect class="cls-15" x="452.27" y="696.64" width="78.55" height="338.91" rx="12" ry="12"/>
        <rect class="cls-15" x="556.52" y="240.42" width="338.91" height="78.55" rx="12" ry="12" transform="translate(14.86 595.26) rotate(-45)"/>
        <rect class="cls-15" x="686.7" y="580.06" width="78.55" height="338.91" rx="12" ry="12" transform="translate(-317.35 732.87) rotate(-45)"/>
        <rect class="cls-15" x="235.06" y="128.42" width="78.55" height="338.91" rx="12" ry="12" transform="translate(-130.28 281.23) rotate(-45)"/>
        <rect class="cls-15" x="101.32" y="716.45" width="338.91" height="78.55" rx="12" ry="12" transform="translate(-455.07 412.81) rotate(-45)"/>
      </g>
    </g>
  </g>
</svg>