<?xml version="1.0" encoding="UTF-8"?>
<svg id="Layer_2" xmlns="http://www.w3.org/2000/svg" viewBox="0 0 1015 751.75">
  <defs>
    <style>
      .cls-1 {
        stroke-dasharray: 0 4.31;
        stroke-width: 1.29px;
      }

      .cls-1, .cls-2, .cls-3, .cls-4, .cls-5, .cls-6, .cls-7, .cls-8, .cls-9, .cls-10, .cls-11, .cls-12, .cls-13, .cls-14, .cls-15, .cls-16, .cls-17, .cls-18, .cls-19, .cls-20, .cls-21, .cls-22, .cls-23, .cls-24, .cls-25, .cls-26, .cls-27, .cls-28, .cls-29, .cls-30, .cls-31 {
        fill: none;
        stroke: #8aceca;
        stroke-linecap: round;
        stroke-linejoin: round;
      }

      .cls-2 {
        stroke-dasharray: 0 11.06;
        stroke-width: 3.32px;
      }

      .cls-3 {
        stroke-dasharray: 0 23.51;
        stroke-width: 7.05px;
      }

      .cls-4 {
        stroke-dasharray: 0 14.67;
        stroke-width: 4.4px;
      }

      .cls-5 {
        stroke-dasharray: 0 7.58;
        stroke-width: 2.27px;
      }

      .cls-6 {
        stroke-dasharray: 0 34.29;
        stroke-width: 10.29px;
      }

      .cls-7 {
        stroke-dasharray: 0 6.28;
        stroke-width: 1.88px;
      }

      .cls-8 {
        stroke-dasharray: 0 41.4;
        stroke-width: 12.42px;
      }

      .cls-9 {
        stroke-dasharray: 0 50;
        stroke-width: 15px;
      }

      .cls-10 {
        stroke-dasharray: 0 5.2;
        stroke-width: 1.56px;
      }

      .cls-32 {
        fill: #8aceca;
      }

      .cls-11 {
        stroke-dasharray: 0 21.4;
        stroke-width: 6.42px;
      }

      .cls-12 {
        stroke-dasharray: 0 31.2;
        stroke-width: 9.36px;
      }

      .cls-13 {
        stroke-dasharray: 0 16.12;
        stroke-width: 4.84px;
      }

      .cls-14 {
        stroke-dasharray: 0 3.57;
        stroke-width: 1.07px;
      }

      .cls-15 {
        stroke-dasharray: 0 2.95;
        stroke-width: .89px;
      }

      .cls-16 {
        stroke-dasharray: 0 5.71;
        stroke-width: 1.71px;
      }

      .cls-17 {
        stroke-dasharray: 0 28.39;
        stroke-width: 8.52px;
      }

      .cls-18 {
        stroke-dasharray: 0 25.84;
        stroke-width: 7.75px;
      }

      .cls-19 {
        stroke-dasharray: 0 4.73;
        stroke-width: 1.42px;
      }

      .cls-20 {
        stroke-dasharray: 0 3.24;
        stroke-width: .97px;
      }

      .cls-21 {
        stroke-dasharray: 0 13.35;
        stroke-width: 4.01px;
      }

      .cls-22 {
        stroke-dasharray: 0 10.06;
        stroke-width: 3.02px;
      }

      .cls-23 {
        stroke-dasharray: 0 8.33;
        stroke-width: 2.5px;
      }

      .cls-24 {
        stroke-dasharray: 0 37.68;
        stroke-width: 11.3px;
      }

      .cls-25 {
        stroke-dasharray: 0 3.92;
        stroke-width: 1.18px;
      }

      .cls-26 {
        stroke-dasharray: 0 19.47;
        stroke-width: 5.84px;
      }

      .cls-27 {
        stroke-dasharray: 0 9.16;
        stroke-width: 2.75px;
      }

      .cls-28 {
        stroke-dasharray: 0 45.5;
        stroke-width: 13.65px;
      }

      .cls-29 {
        stroke-dasharray: 0 12.15;
        stroke-width: 3.65px;
      }

      .cls-30 {
        stroke-dasharray: 0 6.9;
        stroke-width: 2.07px;
      }

      .cls-31 {
        stroke-dasharray: 0 17.72;
        stroke-width: 5.32px;
      }
    </style>
  </defs>
  <g id="low_good">
    <g>
      <g>
        <path class="cls-15" d="M360.79,506.93c3.86,3.43,8.41,5.41,11.33,6.47,3.76,1.36,8.16,2.96,11.97,2.13,2.28-.5,4.07-1.8,4.21-3.19.13-1.26-1.11-2.44-2.75-3.11-.98-.4-4.03-1.41-15.21.41-10.01,1.62-10.98,2.99-20.71,4.34-4.3.6-8.91,1-13.59.16-3.91-.7-5.29-1.81-5.66-2.13-.38-.33-1.72-1.51-.81-2.62.77-.95,2.73-1.31,4.53-1.64,1.22-.22,3.74-.59,7.28-.33,3.59.26,6.13,1.01,7.93,1.56,7.7,2.34,11.55,3.51,14.56,4.91,6.27,2.93,11.44,5.35,11.33,8.68-.08,2.39-2.84,4.24-4.21,5.16-3.75,2.52-6.53,2.13-11.81,5.32-.59.36-3.18,1.96-4.53,4.34-.87,1.54-.55,2.2-.16,2.62.85.92,2.85,1.62,5.02,1.64,3.27.03,5.11-1.48,5.5-1.8,1.52-1.25,1.15-2.56.97-3.11-.25-.79-.8-1.44-3.72-3.52-4.32-3.08-6.47-4.61-8.9-5.41-1.89-.62-3.31-.84-4.69-1.8-1.53-1.07-1.83-2.22-1.94-2.7-.22-.93-.39-1.67.49-2.38,1.53-1.23,4.88-1.23,5.18-1.23,3.25.02,5.3,1.29,5.99,1.72,2.21,1.37,2.28,2.93,2.27,3.44"/>
        <path class="cls-20" d="M359.64,507.19c4.61,3.31,9.81,4.95,13.12,5.77,4.27,1.06,9.26,2.3,13.33.95,2.43-.81,4.24-2.44,4.23-3.97,0-1.39-1.5-2.54-3.36-3.09-1.12-.33-4.57-1.07-16.57,2.19-10.75,2.93-11.66,4.52-22.14,7.12-4.63,1.15-9.62,2.12-14.83,1.74-4.35-.32-5.99-1.36-6.43-1.68-.45-.32-2.05-1.45-1.19-2.77.74-1.13,2.84-1.74,4.76-2.31,1.31-.39,4.02-1.07,7.92-1.19,3.95-.13,6.81.4,8.84.79,8.68,1.67,13.03,2.5,16.48,3.7,7.19,2.49,13.12,4.54,13.38,8.19.19,2.62-2.62,4.96-4,6.12-3.81,3.18-6.89,3.07-12.3,7.18-.61.46-3.25,2.5-4.45,5.26-.78,1.78-.34,2.47.12,2.88,1.03.91,3.3,1.44,5.67,1.21,3.58-.34,5.41-2.2,5.81-2.6,1.52-1.54.96-2.93.7-3.51-.36-.83-1.04-1.49-4.47-3.42-5.07-2.87-7.61-4.3-10.35-4.89-2.14-.46-3.72-.54-5.33-1.43-1.8-.99-2.25-2.22-2.43-2.73-.34-.99-.62-1.78.26-2.65,1.53-1.52,5.2-1.91,5.52-1.94,3.55-.35,5.94.8,6.74,1.19,2.57,1.24,2.83,2.94,2.87,3.5"/>
        <path class="cls-14" d="M358.41,507.61c5.42,3.09,11.29,4.28,15,4.8,4.79.67,10.39,1.45,14.68-.49,2.56-1.16,4.35-3.15,4.17-4.83-.17-1.52-1.93-2.61-4.03-2.99-1.26-.23-5.11-.65-17.86,4.3-11.41,4.43-12.22,6.28-23.37,10.33-4.93,1.79-10.27,3.42-16.01,3.61-4.79.15-6.7-.8-7.22-1.09-.53-.3-2.41-1.35-1.61-2.89.68-1.31,2.9-2.23,4.94-3.07,1.39-.57,4.27-1.63,8.52-2.22,4.31-.59,7.49-.35,9.76-.15,9.68.83,14.52,1.24,18.43,2.15,8.14,1.89,14.86,3.45,15.56,7.41.5,2.84-2.29,5.73-3.67,7.15-3.79,3.92-7.18,4.15-12.61,9.25-.61.57-3.27,3.11-4.26,6.27-.64,2.04-.09,2.74.47,3.14,1.23.88,3.77,1.19,6.34.68,3.87-.78,5.66-3.03,6.05-3.51,1.48-1.86.71-3.31.37-3.92-.49-.87-1.31-1.5-5.28-3.23-5.87-2.55-8.81-3.82-11.87-4.15-2.39-.26-4.13-.16-5.99-.95-2.08-.88-2.72-2.17-2.97-2.71-.49-1.04-.88-1.88-.02-2.93,1.5-1.84,5.46-2.68,5.81-2.75,3.84-.79,6.58.2,7.5.53,2.95,1.06,3.43,2.88,3.54,3.49"/>
        <path class="cls-25" d="M357.12,508.21c6.28,2.75,12.83,3.38,16.95,3.52,5.31.18,11.52.39,15.98-2.22,2.67-1.56,4.39-3.94,4-5.76-.36-1.64-2.41-2.63-4.75-2.8-1.4-.1-5.66-.12-19.03,6.75-11.96,6.15-12.63,8.27-24.36,13.97-5.18,2.52-10.83,4.92-17.09,5.78-5.22.72-7.42-.11-8.02-.37-.61-.26-2.79-1.2-2.1-2.98.59-1.51,2.91-2.77,5.05-3.93,1.45-.78,4.48-2.27,9.05-3.4,4.64-1.14,8.14-1.24,10.64-1.29,10.68-.21,16.01-.31,20.39.23,9.11,1.13,16.63,2.06,17.85,6.31.88,3.04-1.85,6.52-3.19,8.24-3.7,4.72-7.36,5.36-12.72,11.56-.6.7-3.21,3.77-3.94,7.34-.47,2.3.21,3,.87,3.37,1.45.82,4.26.87,7,.01,4.14-1.3,5.84-3.96,6.2-4.53,1.4-2.2.4-3.7-.05-4.33-.64-.89-1.61-1.49-6.14-2.92-6.71-2.11-10.06-3.17-13.45-3.17-2.64,0-4.53.3-6.66-.35-2.37-.72-3.22-2.06-3.56-2.62-.65-1.08-1.18-1.95-.36-3.2,1.43-2.18,5.66-3.56,6.03-3.67,4.11-1.3,7.22-.54,8.26-.28,3.35.82,4.08,2.76,4.27,3.41"/>
        <path class="cls-1" d="M355.77,509.01c7.18,2.29,14.41,2.22,18.93,1.9,5.82-.41,12.63-.9,17.21-4.26,2.74-2.01,4.35-4.81,3.71-6.75-.58-1.76-2.93-2.59-5.51-2.52-1.54.05-6.2.52-20.02,9.57-12.37,8.1-12.86,10.49-25.02,18.07-5.37,3.35-11.27,6.62-18.01,8.28-5.63,1.39-8.12.73-8.81.52-.7-.22-3.18-.99-2.63-3.01.47-1.72,2.87-3.36,5.06-4.87,1.49-1.02,4.63-3,9.51-4.76,4.94-1.78,8.76-2.29,11.48-2.63,11.64-1.45,17.47-2.18,22.31-2.09,10.09.19,18.41.35,20.24,4.85,1.31,3.23-1.27,7.34-2.54,9.37-3.5,5.58-7.43,6.7-12.58,14.1-.58.83-3.08,4.49-3.46,8.47-.25,2.57.58,3.26,1.34,3.59,1.68.73,4.76.46,7.65-.79,4.37-1.89,5.93-5,6.26-5.66,1.28-2.56.01-4.09-.55-4.72-.8-.9-1.93-1.45-7.05-2.48-7.57-1.54-11.36-2.31-15.06-1.92-2.88.3-4.91.84-7.32.38-2.67-.51-3.76-1.88-4.19-2.45-.84-1.11-1.51-1.99-.76-3.45,1.31-2.54,5.78-4.54,6.17-4.71,4.34-1.9,7.82-1.42,9-1.26,3.76.51,4.78,2.54,5.06,3.24"/>
        <path class="cls-19" d="M354.4,510.04c8.1,1.68,16,.77,20.9-.09,6.31-1.12,13.7-2.43,18.32-6.64,2.76-2.51,4.2-5.76,3.28-7.8-.83-1.85-3.5-2.5-6.31-2.12-1.68.23-6.72,1.28-20.78,12.75-12.59,10.27-12.85,12.94-25.26,22.62-5.49,4.28-11.56,8.53-18.73,11.12-5.99,2.16-8.79,1.74-9.57,1.58-.79-.16-3.59-.71-3.22-2.99.31-1.94,2.75-4.01,4.97-5.9,1.51-1.29,4.72-3.81,9.84-6.29,5.19-2.51,9.31-3.51,12.25-4.19,12.56-2.93,18.84-4.39,24.15-4.85,11.05-.95,20.16-1.74,22.67,2.97,1.8,3.38-.55,8.17-1.7,10.53-3.18,6.5-7.35,8.18-12.13,16.85-.54.97-2.85,5.26-2.81,9.65.02,2.83,1.01,3.49,1.88,3.77,1.92.6,5.25-.04,8.27-1.75,4.56-2.57,5.9-6.14,6.19-6.91,1.11-2.95-.46-4.47-1.15-5.1-.98-.9-2.27-1.36-7.99-1.91-8.45-.81-12.68-1.21-16.68-.37-3.12.66-5.27,1.49-7.96,1.26-2.98-.25-4.32-1.62-4.86-2.2-1.04-1.11-1.88-2.01-1.23-3.69,1.14-2.93,5.79-5.62,6.2-5.85,4.52-2.57,8.39-2.45,9.69-2.41,4.16.13,5.52,2.23,5.9,2.96"/>
        <path class="cls-10" d="M353.01,511.33c9.05.9,17.58-.99,22.83-2.5,6.77-1.95,14.7-4.23,19.26-9.36,2.73-3.06,3.93-6.78,2.69-8.91-1.12-1.93-4.11-2.33-7.14-1.59-1.81.44-7.2,2.17-21.24,16.33-12.57,12.67-12.55,15.62-25.01,27.62-5.5,5.3-11.65,10.65-19.19,14.3-6.3,3.05-9.41,2.91-10.27,2.83-.88-.08-4.01-.37-3.87-2.9.12-2.15,2.54-4.69,4.76-7.02,1.51-1.58,4.72-4.71,10.03-8,5.39-3.34,9.77-4.9,12.91-5.99,13.39-4.64,20.08-6.96,25.83-8.07,11.97-2.31,21.84-4.21,25.12.65,2.35,3.48.34,8.99-.65,11.71-2.73,7.47-7.1,9.78-11.32,19.81-.47,1.13-2.51,6.08-1.96,10.87.35,3.09,1.5,3.7,2.48,3.9,2.16.44,5.74-.65,8.84-2.86,4.69-3.34,5.75-7.39,5.97-8.26.87-3.35-1.01-4.83-1.84-5.44-1.17-.87-2.64-1.22-8.95-1.17-9.33.09-14,.13-18.27,1.51-3.33,1.07-5.59,2.23-8.55,2.29-3.29.07-4.91-1.28-5.56-1.84-1.27-1.1-2.29-1.98-1.77-3.89.91-3.33,5.69-6.81,6.1-7.11,4.65-3.33,8.89-3.64,10.31-3.75,4.57-.34,6.28,1.8,6.79,2.56"/>
        <path class="cls-16" d="M351.64,512.89c9.99-.05,19.1-3.1,24.67-5.36,7.18-2.91,15.58-6.31,19.98-12.44,2.63-3.66,3.51-7.86,1.91-10.04-1.45-1.98-4.76-2.07-7.99-.91-1.93.69-7.62,3.2-21.34,20.28-12.29,15.29-11.93,18.51-24.16,33.06-5.41,6.43-11.51,12.98-19.33,17.83-6.53,4.06-9.95,4.26-10.9,4.27-.97.01-4.42.06-4.56-2.72-.11-2.37,2.24-5.42,4.39-8.22,1.47-1.9,4.62-5.69,10.05-9.9,5.5-4.27,10.12-6.48,13.42-8.03,14.1-6.61,21.15-9.91,27.3-11.79,12.81-3.9,23.38-7.11,27.53-2.18,2.97,3.54,1.41,9.78.63,12.87-2.13,8.48-6.63,11.51-10.09,22.95-.39,1.28-2.04,6.93-.89,12.11.74,3.34,2.07,3.87,3.16,3.98,2.42.23,6.19-1.37,9.33-4.14,4.74-4.18,5.43-8.74,5.58-9.71.57-3.76-1.66-5.16-2.63-5.73-1.38-.81-3.02-1.03-9.91-.25-10.19,1.17-15.28,1.75-19.8,3.75-3.52,1.56-5.86,3.08-9.08,3.48-3.59.45-5.51-.83-6.29-1.37-1.51-1.05-2.73-1.9-2.38-4.04.61-3.75,5.43-8.1,5.85-8.47,4.7-4.17,9.29-5,10.84-5.28,4.95-.89,7.08,1.25,7.71,2.01"/>
        <path class="cls-7" d="M350.32,514.76c10.92-1.21,20.51-5.58,26.34-8.69,7.51-4,16.3-8.69,20.4-15.89,2.45-4.3,2.94-8.99.94-11.19-1.81-2-5.44-1.72-8.83-.08-2.03.98-7.96,4.37-20.99,24.62-11.67,18.13-10.91,21.6-22.61,38.91-5.17,7.65-11.09,15.51-19.08,21.71-6.67,5.18-10.38,5.8-11.42,5.92-1.06.13-4.83.57-5.29-2.45-.4-2.57,1.82-6.18,3.86-9.49,1.38-2.25,4.39-6.74,9.84-11.97,5.52-5.3,10.31-8.24,13.74-10.31,14.65-8.84,21.97-13.26,28.49-16.02,13.56-5.73,24.74-10.46,29.84-5.54,3.65,3.52,2.66,10.53,2.17,13.99-1.35,9.51-5.93,13.34-8.39,26.24-.28,1.45-1.43,7.81.41,13.34,1.19,3.57,2.7,4,3.91,3.99,2.67-.02,6.61-2.21,9.73-5.6,4.7-5.12,4.93-10.17,4.98-11.26.19-4.18-2.41-5.45-3.54-5.96-1.6-.73-3.42-.78-10.86.87-11,2.45-16.5,3.67-21.21,6.37-3.66,2.11-6.05,4.04-9.52,4.85-3.87.9-6.12-.27-7.03-.78-1.77-.98-3.2-1.76-3.06-4.15.24-4.17,5.01-9.47,5.43-9.93,4.65-5.1,9.58-6.53,11.24-7.01,5.31-1.54,7.88.55,8.66,1.32"/>
        <path class="cls-30" d="M349.1,516.95c11.79-2.57,21.78-8.46,27.79-12.52,7.75-5.24,16.81-11.37,20.47-19.71,2.19-4.99,2.18-10.16-.26-12.34-2.21-1.97-6.15-1.25-9.66.92-2.11,1.3-8.19,5.69-20.12,29.32-10.67,21.15-9.44,24.86-20.24,45.12-4.77,8.95-10.34,18.22-18.36,25.92-6.7,6.43-10.68,7.53-11.8,7.78-1.14.26-5.21,1.18-6.07-2.07-.73-2.77,1.28-6.96,3.13-10.82,1.25-2.62,4.03-7.88,9.38-14.21,5.43-6.43,10.32-10.19,13.83-12.85,14.99-11.35,22.49-17.02,29.29-20.78,14.16-7.82,25.83-14.27,31.97-9.49,4.4,3.43,4.12,11.2,3.98,15.04-.38,10.54-4.94,15.26-6.16,29.64-.14,1.61-.67,8.7,1.98,14.53,1.71,3.76,3.41,4.06,4.73,3.91,2.91-.33,6.97-3.17,9.99-7.23,4.55-6.13,4.22-11.68,4.15-12.88-.27-4.59-3.26-5.68-4.55-6.11-1.83-.61-3.83-.46-11.77,2.2-11.74,3.94-17.61,5.9-22.44,9.4-3.76,2.72-6.14,5.11-9.85,6.4-4.12,1.43-6.72.4-7.78-.04-2.05-.86-3.7-1.56-3.82-4.18-.22-4.58,4.38-10.93,4.79-11.48,4.5-6.11,9.72-8.24,11.47-8.96,5.62-2.3,8.67-.3,9.62.44"/>
        <path class="cls-5" d="M348.01,519.49c12.59-4.17,22.83-11.75,28.93-16.88,7.87-6.61,17.07-14.35,20.11-23.89,1.82-5.7,1.21-11.36-1.7-13.46-2.64-1.9-6.86-.66-10.45,2.12-2.15,1.67-8.3,7.16-18.62,34.35-9.24,24.34-7.46,28.25-16.94,51.63-4.19,10.33-9.21,21.1-17.09,30.44-6.58,7.8-10.81,9.45-12.01,9.86-1.22.41-5.56,1.89-6.87-1.57-1.11-2.94.6-7.76,2.17-12.18,1.07-3,3.5-9.07,8.62-16.61,5.19-7.65,10.11-12.33,13.64-15.63,15.08-14.12,22.63-21.19,29.63-26.07,14.57-10.17,26.59-18.57,33.85-14.04,5.2,3.24,5.79,11.77,6.07,15.98.79,11.57-3.65,17.24-3.33,33.1.04,1.78.27,9.58,3.84,15.65,2.3,3.91,4.19,4.04,5.62,3.73,3.14-.7,7.26-4.27,10.08-9.05,4.27-7.23,3.27-13.25,3.06-14.55-.83-4.98-4.21-5.83-5.68-6.16-2.07-.46-4.24-.07-12.61,3.75-12.38,5.65-18.57,8.48-23.45,12.85-3.8,3.41-6.13,6.29-10.03,8.12-4.34,2.04-7.3,1.21-8.5.85-2.34-.71-4.22-1.28-4.66-4.13-.77-4.98,3.54-12.44,3.92-13.09,4.22-7.19,9.68-10.12,11.51-11.1,5.88-3.16,9.44-1.32,10.56-.62"/>
        <path class="cls-23" d="M347.12,522.39c13.28-6,23.6-15.46,29.68-21.77,7.84-8.13,17.01-17.65,19.23-28.42,1.33-6.44.02-12.55-3.41-14.51-3.1-1.78-7.57.06-11.18,3.52-2.16,2.07-8.25,8.78-16.4,39.68-7.3,27.66-4.91,31.73-12.58,58.37-3.39,11.77-7.64,24.12-15.18,35.23-6.29,9.28-10.73,11.57-11.99,12.15-1.28.59-5.86,2.7-7.69-.92-1.56-3.08-.24-8.55.98-13.56.82-3.4,2.78-10.31,7.51-19.15,4.8-8.95,9.63-14.63,13.11-18.65,14.86-17.17,22.29-25.75,29.38-31.9,14.76-12.79,26.93-23.35,35.38-19.23,6.06,2.95,7.68,12.2,8.47,16.77,2.2,12.55-2.01,19.27.17,36.56.24,1.94,1.39,10.44,5.99,16.66,2.97,4.01,5.05,3.93,6.57,3.43,3.36-1.12,7.44-5.5,9.98-11.05,3.84-8.39,2.05-14.86,1.67-16.25-1.48-5.35-5.28-5.89-6.91-6.08-2.32-.27-4.64.42-13.35,5.55-12.88,7.6-19.32,11.4-24.15,16.74-3.76,4.16-5.98,7.58-10.03,10.03-4.51,2.73-7.83,2.16-9.2,1.9-2.64-.5-4.76-.91-5.57-3.98-1.41-5.35,2.43-14.01,2.78-14.76,3.78-8.34,9.41-12.17,11.31-13.46,6.07-4.13,10.17-2.53,11.47-1.89"/>
        <path class="cls-27" d="M346.47,525.66c13.83-8.08,24.01-19.61,29.94-27.2,7.63-9.79,16.56-21.24,17.75-33.27.71-7.19-1.42-13.72-5.39-15.47-3.6-1.58-8.27.94-11.82,5.13-2.12,2.51-8.01,10.54-13.37,45.25-4.8,31.07-1.72,35.25-7.04,65.24-2.35,13.25-5.58,27.23-12.54,40.24-5.81,10.86-10.4,13.88-11.71,14.66-1.34.8-6.09,3.63-8.51-.13-2.05-3.19-1.24-9.31-.49-14.93.51-3.81,1.85-11.59,6.01-21.79,4.21-10.34,8.85-17.1,12.19-21.89,14.27-20.47,21.41-30.7,28.45-38.24,14.66-15.68,26.75-28.61,36.46-25.08,6.96,2.53,9.79,12.45,11.19,17.35,3.84,13.47.02,21.29,4.38,39.94.49,2.09,2.72,11.25,8.46,17.52,3.7,4.04,5.97,3.72,7.58,2.99,3.54-1.61,7.5-6.86,9.64-13.22,3.23-9.61.54-16.48-.04-17.95-2.23-5.68-6.44-5.83-8.25-5.85-2.56-.02-5.03.99-13.95,7.6-13.21,9.78-19.81,14.67-24.47,21.06-3.63,4.98-5.66,8.97-9.81,12.11-4.62,3.5-8.31,3.26-9.83,3.14-2.94-.25-5.3-.45-6.54-3.71-2.16-5.69,1.05-15.59,1.34-16.45,3.18-9.55,8.89-14.38,10.81-16.01,6.16-5.21,10.82-3.93,12.32-3.38"/>
        <path class="cls-22" d="M346.14,529.31c14.18-10.42,23.99-24.19,29.59-33.17,7.21-11.57,15.66-25.12,15.58-38.4-.05-7.94-3.13-14.83-7.67-16.29-4.11-1.32-8.93,1.98-12.32,6.96-2.03,2.99-7.54,12.44-9.41,50.99-1.67,34.51,2.17,38.72-.2,72.11-1.05,14.76-2.97,30.41-9.08,45.42-5.11,12.54-9.77,16.36-11.11,17.37-1.37,1.02-6.24,4.66-9.31.84-2.61-3.25-2.42-10.04-2.25-16.26.12-4.23.69-12.88,4.07-24.5,3.42-11.78,7.7-19.7,10.8-25.32,13.24-24.01,19.87-36.02,26.7-45.06,14.22-18.82,25.95-34.34,36.97-31.6,7.9,1.96,12.13,12.48,14.22,17.68,5.74,14.27,2.46,23.26,9.38,43.14.78,2.23,4.27,11.99,11.26,18.18,4.51,3.99,6.95,3.38,8.62,2.4,3.68-2.17,7.41-8.36,9.01-15.56,2.43-10.87-1.31-18.07-2.11-19.61-3.09-5.95-7.71-5.63-9.69-5.44-2.81.27-5.38,1.66-14.38,9.91-13.31,12.21-19.96,18.31-24.32,25.83-3.4,5.86-5.16,10.45-9.33,14.36-4.64,4.35-8.71,4.52-10.39,4.56-3.24.07-5.85.12-7.57-3.3-3.01-5.97-.64-17.15-.43-18.13,2.37-10.8,8.06-16.74,9.98-18.74,6.13-6.4,11.37-5.54,13.07-5.11"/>
        <path class="cls-2" d="M346.2,533.33c14.3-13.02,23.44-29.19,28.53-39.65,6.56-13.48,14.23-29.25,12.62-43.76-.96-8.67-5.12-15.85-10.25-16.92-4.65-.97-9.53,3.19-12.67,9.03-1.88,3.5-6.81,14.46-4.43,56.8,2.13,37.9,6.82,42.06,8.06,78.83.55,16.25.25,33.57-4.71,50.68-4.14,14.29-8.79,19-10.15,20.26-1.38,1.28-6.28,5.81-10.08,1.99-3.23-3.26-3.8-10.69-4.33-17.51-.36-4.63-.72-14.16,1.63-27.24,2.38-13.27,6.16-22.42,8.9-28.92,11.72-27.76,17.58-41.64,24-52.31,13.38-22.2,24.41-40.51,36.77-38.78,8.85,1.24,14.69,12.25,17.57,17.69,7.92,14.94,5.36,25.14,15.2,46.07,1.1,2.35,6.04,12.61,14.39,18.57,5.39,3.85,7.98,2.9,9.7,1.63,3.78-2.79,7.13-9.99,8.06-18.04,1.4-12.16-3.5-19.6-4.56-21.19-4.06-6.14-9.07-5.27-11.21-4.83-3.04.62-5.69,2.43-14.57,12.48-13.14,14.87-19.71,22.31-23.62,31.03-3.04,6.79-4.43,12.01-8.55,16.77-4.57,5.29-9,5.94-10.83,6.17-3.54.45-6.38.8-8.66-2.74-3.98-6.18-2.67-18.67-2.55-19.76,1.35-12.08,6.89-19.22,8.75-21.62,5.96-7.69,11.79-7.36,13.7-7.09"/>
        <path class="cls-29" d="M346.72,537.72c14.13-15.87,22.27-34.59,26.63-46.61,5.62-15.48,12.19-33.6,8.76-49.27-2.05-9.36-7.42-16.73-13.15-17.31-5.19-.53-10.05,4.58-12.81,11.32-1.65,4.04-5.78,16.59,1.69,62.59,6.69,41.18,12.28,45.19,17.86,85.22,2.47,17.69,4.13,36.66.67,55.93-2.88,16.09-7.43,21.78-8.76,23.3-1.36,1.55-6.2,7.08-10.79,3.33-3.9-3.19-5.38-11.25-6.74-18.64-.92-5.02-2.41-15.39-1.35-29.96,1.08-14.77,4.15-25.21,6.4-32.63,9.62-31.69,14.42-47.53,20.22-59.92,12.07-25.8,22.03-47.07,35.73-46.61,9.82.34,17.46,11.7,21.24,17.31,10.37,15.42,8.75,26.86,21.91,48.6,1.48,2.44,8.05,13.09,17.86,18.64,6.33,3.58,9.06,2.25,10.79.67,3.81-3.48,6.65-11.73,6.74-20.64.14-13.45-6.08-21.01-7.42-22.64-5.14-6.25-10.52-4.72-12.81-3.99-3.25,1.02-5.94,3.31-14.49,15.31-12.66,17.76-18.98,26.64-22.25,36.62-2.54,7.77-3.47,13.64-7.42,19.31-4.39,6.31-9.15,7.53-11.12,7.99-3.81.89-6.88,1.61-9.77-2-5.06-6.29-5.06-20.1-5.06-21.31.09-13.36,5.32-21.8,7.08-24.64,5.63-9.09,12.04-9.4,14.16-9.32"/>
        <path class="cls-21" d="M347.8,542.46c13.62-18.97,20.36-40.36,23.75-53.99,4.36-17.56,9.46-38.12,3.92-54.85-3.31-10-10.03-17.43-16.36-17.41-5.73.02-10.46,6.16-12.7,13.84-1.34,4.6-4.42,18.79,9.03,68.21,12.04,44.24,18.62,47.97,29.31,91.09,4.73,19.05,8.72,39.59,7.16,61.05-1.3,17.92-5.62,24.66-6.9,26.47-1.31,1.85-5.96,8.45-11.41,4.88-4.63-3.03-7.18-11.67-9.51-19.6-1.59-5.38-4.41-16.54-4.92-32.59-.52-16.27,1.64-28.03,3.25-36.39,6.87-35.73,10.3-53.6,15.22-67.81,10.23-29.58,18.67-53.98,33.69-55.04,10.77-.76,20.43,10.78,25.2,16.48,13.1,15.66,12.65,28.35,29.53,50.6,1.89,2.5,10.3,13.38,21.67,18.32,7.33,3.19,10.16,1.42,11.86-.51,3.76-4.25,5.92-13.59,5-23.33-1.39-14.72-9.06-22.27-10.7-23.89-6.33-6.24-12.04-3.95-14.46-2.89-3.43,1.49-6.11,4.3-14.08,18.4-11.79,20.87-17.69,31.3-20.11,42.58-1.89,8.79-2.22,15.3-5.89,21.95-4.08,7.4-9.14,9.28-11.24,10.01-4.07,1.41-7.33,2.55-10.91-1.06-6.25-6.3-7.84-21.39-7.97-22.7-1.43-14.61,3.31-24.44,4.91-27.74,5.11-10.59,12.08-11.66,14.4-11.81"/>
        <path class="cls-4" d="M349.52,547.51c12.71-22.3,17.62-46.45,19.75-61.74,2.75-19.7,5.96-42.75-2.02-60.4-4.77-10.55-12.96-17.9-19.87-17.15-6.26.68-10.73,7.93-12.29,16.59-.94,5.18-2.67,21.05,17.7,73.5,18.24,46.96,25.86,50.29,42.5,96.18,7.35,20.28,14.08,42.27,14.84,65.89.64,19.73-3.31,27.59-4.5,29.73-1.22,2.17-5.54,9.91-11.9,6.64-5.41-2.78-9.18-11.93-12.64-20.33-2.35-5.7-6.71-17.57-9.12-35.05-2.43-17.72-1.42-30.82-.63-40.14,3.4-39.84,5.1-59.76,8.84-75.86,7.78-33.5,14.2-61.14,30.5-64.02,11.68-2.07,23.56,9.44,29.43,15.12,16.12,15.61,17.08,29.53,38.08,51.91,2.36,2.51,12.79,13.44,25.78,17.54,8.38,2.64,11.26.38,12.91-1.92,3.62-5.07,4.91-15.53,2.78-26.07-3.21-15.92-12.46-23.3-14.44-24.88-7.64-6.09-13.61-2.93-16.13-1.5-3.58,2.02-6.19,5.4-13.28,21.73-10.49,24.16-15.73,36.24-17.08,48.84-1.05,9.82-.67,16.98-3.91,24.67-3.6,8.55-8.92,11.19-11.13,12.23-4.28,2.01-7.72,3.63-12.05.09-7.55-6.17-11.03-22.47-11.32-23.9-3.25-15.8.81-27.09,2.18-30.88,4.37-12.16,11.86-14.13,14.38-14.56"/>
        <path class="cls-13" d="M351.99,552.84c11.33-25.83,13.92-52.79,14.49-69.74.74-21.84,1.61-47.4-9.14-65.78-6.42-10.98-16.22-18.07-23.69-16.46-6.76,1.46-10.81,9.9-11.52,19.54-.43,5.77-.5,23.31,27.79,78.3,25.33,49.23,34.03,51.99,57.49,100.23,10.37,21.32,20.24,44.58,23.79,70.31,2.96,21.49-.44,30.53-1.5,33-1.08,2.52-4.92,11.47-12.25,8.62-6.23-2.42-11.41-11.99-16.15-20.76-3.22-5.96-9.36-18.43-13.99-37.26-4.69-19.09-5.1-33.52-5.3-43.8-.86-43.93-1.29-65.9.95-83.92,4.66-37.51,8.5-68.44,25.98-73.47,12.53-3.6,26.84,7.61,33.9,13.14,19.41,15.21,22.06,30.31,47.58,52.36,2.86,2.47,15.53,13.22,30.19,16.2,9.46,1.93,12.35-.88,13.89-3.58,3.37-5.96,3.58-17.54.04-28.81-5.34-17.03-16.29-24.03-18.64-25.53-9.05-5.78-15.21-1.64-17.8.21-3.68,2.62-6.14,6.61-12.01,25.27-8.69,27.61-13.03,41.41-13.06,55.34-.02,10.85,1.22,18.63-1.44,27.41-2.96,9.76-8.47,13.26-10.76,14.64-4.45,2.69-8.02,4.85-13.16,1.49-8.96-5.87-14.63-23.29-15.12-24.82-5.36-16.9-2.22-29.69-1.17-33.99,3.38-13.79,11.34-16.81,14.04-17.57"/>
        <path class="cls-31" d="M355.29,558.38c9.42-29.53,9.15-59.29,7.83-77.88-1.7-23.95-3.69-51.99-17.55-70.84-8.28-11.26-19.81-17.89-27.78-15.26-7.22,2.38-10.68,12.06-10.35,22.68.2,6.36,2.13,25.53,39.37,82.38,33.33,50.89,43.17,52.91,74.35,102.94,13.78,22.11,27.24,46.39,34.07,74.11,5.7,23.15,3.02,33.42,2.15,36.24-.89,2.87-4.06,13.1-12.39,10.83-7.09-1.93-13.84-11.79-20.04-20.84-4.21-6.14-12.34-19.07-19.57-39.11-7.32-20.32-9.42-36.04-10.82-47.26-5.98-47.92-8.97-71.87-8.6-91.82.78-41.52,1.42-75.78,19.95-83.28,13.28-5.38,30.2,5.23,38.56,10.47,22.96,14.39,27.59,30.59,58.02,51.76,3.42,2.38,18.49,12.66,34.86,14.24,10.56,1.02,13.4-2.38,14.76-5.51,3-6.9,1.9-19.58-3.26-31.5-7.79-18-20.57-24.39-23.31-25.76-10.55-5.28-16.81-.04-19.43,2.28-3.72,3.29-5.95,7.93-10.23,29-6.32,31.17-9.49,46.75-7.92,61.98,1.22,11.86,3.47,20.22,1.57,30.12-2.11,11.01-7.73,15.46-10.08,17.24-4.55,3.45-8.21,6.22-14.21,3.14-10.47-5.39-18.67-23.78-19.37-25.38-7.8-17.85-5.84-32.2-5.18-37.02,2.11-15.46,10.46-19.67,13.33-20.81"/>
        <path class="cls-26" d="M359.54,564.05c6.9-33.35,3.19-65.85-.39-86.02-4.61-25.98-10-56.39-27.32-75.4-10.34-11.36-23.7-17.28-32.11-13.49-7.62,3.43-10.28,14.41-8.71,25.97.94,6.92,5.26,27.65,52.49,85.51,42.28,51.79,53.25,52.87,93.08,103.96,17.6,22.58,35.1,47.57,45.75,77.08,8.89,24.64,7.14,36.18,6.51,39.36-.64,3.24-2.93,14.79-12.3,13.26-7.97-1.3-16.48-11.3-24.29-20.47-5.3-6.23-15.68-19.42-25.88-40.5-10.34-21.37-14.43-38.31-17.25-50.41-12.04-51.68-18.06-77.52-19.95-99.37-3.92-45.47-7.15-82.98,12.24-93.31,13.9-7.4,33.61,2.25,43.34,7.01,26.74,13.09,33.66,30.26,69.35,49.9,4.01,2.2,21.66,11.71,39.73,11.56,11.66-.1,14.37-4.14,15.5-7.72,2.49-7.89-.17-21.61-7.18-34.05-10.59-18.78-25.28-24.29-28.43-25.47-12.14-4.56-18.38,1.88-20.98,4.72-3.69,4.02-5.59,9.35-7.84,32.87-3.33,34.79-5,52.19-1.53,68.65,2.7,12.82,6.12,21.7,5.18,32.74-1.04,12.27-6.67,17.78-9.03,20-4.58,4.29-8.25,7.75-15.17,5.06-12.06-4.69-23.13-23.84-24.09-25.52-10.58-18.61-10.08-34.52-9.92-39.86.53-17.14,9.18-22.7,12.18-24.28"/>
        <path class="cls-11" d="M364.83,569.76c3.71-37.24-4.08-72.33-10.31-93.96-8.02-27.87-17.41-60.48-38.51-79.26-12.61-11.22-27.89-16.16-36.65-11.06-7.93,4.62-9.58,16.93-6.53,29.38,1.83,7.46,8.93,29.62,67.18,87.42,52.15,51.75,64.27,51.66,113.66,102.92,21.83,22.65,43.82,47.96,58.85,78.98,12.55,25.91,11.96,38.72,11.64,42.27-.33,3.62-1.5,16.5-11.92,15.91-8.86-.5-19.31-10.45-28.9-19.58-6.51-6.2-19.37-19.42-32.93-41.29-13.75-22.16-20.17-40.21-24.65-53.11-19.1-55.09-28.65-82.64-33.21-106.3-9.5-49.24-17.34-89.87,2.66-103.38,14.34-9.69,36.99-1.41,48.17,2.68,30.73,11.23,40.26,29.2,81.52,46.57,4.63,1.95,25.01,10.31,44.75,8.07,12.73-1.45,15.23-6.17,16.06-10.22,1.81-8.9-2.67-23.6-11.76-36.38-13.73-19.31-30.42-23.64-34-24.58-13.79-3.58-19.87,4.17-22.38,7.57-3.57,4.82-5.04,10.86-4.8,36.82.36,38.4.53,57.61,6.21,75.2,4.42,13.71,9.18,23.02,9.42,35.18.27,13.53-5.25,20.2-7.58,22.9-4.51,5.22-8.13,9.41-15.99,7.27-13.72-3.74-28.02-23.4-29.26-25.12-13.7-19.13-14.98-36.56-15.41-42.42-1.39-18.79,7.42-25.86,10.52-27.93"/>
        <path class="cls-3" d="M371.27,575.4c-.22-41.13-12.77-78.58-22.06-101.5-11.97-29.54-25.97-64.1-51.2-82.2-15.07-10.82-32.33-14.46-41.32-7.87-8.14,5.96-8.53,19.6-3.76,32.86,2.85,7.94,13.16,31.34,83.46,87.82,62.94,50.56,76.18,49.08,136.04,99.43,26.46,22.25,53.4,47.38,73.39,79.56,16.69,26.87,17.52,40.94,17.57,44.86.05,3.99.25,18.2-11.2,18.75-9.74.47-22.31-9.21-33.83-18.08-7.83-6.03-23.4-19-40.74-41.34-17.57-22.64-26.67-41.63-33.03-55.21-27.2-58.02-40.8-87.03-48.51-112.36-16.04-52.73-29.28-96.22-8.97-113.29,14.55-12.23,40.26-5.79,52.95-2.6,34.88,8.75,47.36,27.29,94.44,41.53,5.28,1.6,28.52,8.4,49.83,3.68,13.74-3.04,15.94-8.5,16.37-13.01.96-9.94-5.63-25.49-17.03-38.41-17.22-19.52-35.96-22.35-39.98-22.95-15.48-2.33-21.23,6.84-23.59,10.84-3.35,5.67-4.26,12.45-1.01,40.79,4.8,41.93,7.2,62.9,15.43,81.47,6.41,14.47,12.68,24.1,14.34,37.37,1.85,14.76-3.42,22.68-5.65,25.89-4.33,6.22-7.8,11.22-16.64,9.78-15.42-2.51-33.31-22.35-34.86-24.09-17.17-19.33-20.57-38.24-21.72-44.59-3.67-20.37,5.14-29.11,8.29-31.74"/>
        <path class="cls-18" d="M378.96,580.81c-4.97-44.92-22.98-84.41-35.76-108.4-16.47-30.9-35.75-67.07-65.39-83.96-17.71-10.09-36.99-12.08-46.06-3.86-8.21,7.45-7.07,22.4-.34,36.35,4.03,8.35,17.98,32.74,101.3,86.39,74.59,48.03,88.89,44.89,160.1,93.04,31.47,21.28,63.8,45.64,89.34,78.52,21.33,27.45,23.85,42.73,24.36,47.01.52,4.36,2.36,19.86-10.09,21.78-10.59,1.63-25.44-7.5-39.05-15.87-9.25-5.69-27.75-18.08-49.27-40.5-21.81-22.73-33.93-42.43-42.44-56.54-36.39-60.28-54.59-90.42-65.92-117.23-23.59-55.78-43.05-101.79-22.81-122.78,14.5-15.04,43.34-10.95,57.57-8.93,39.12,5.55,54.89,24.39,107.99,34.54,5.96,1.14,32.14,5.9,54.88-1.7,14.67-4.9,16.44-11.12,16.4-16.1-.09-10.97-9.08-27.21-23.03-40.02-21.06-19.36-41.86-20.29-46.33-20.49-17.19-.77-22.42,9.91-24.54,14.56-3,6.59-3.22,14.09,3.58,44.7,10.06,45.27,15.09,67.91,26.22,87.26,8.67,15.08,16.62,24.88,19.96,39.19,3.72,15.91-1.13,25.18-3.2,28.95-4.02,7.3-7.24,13.16-17.07,12.61-17.14-.97-38.97-20.6-40.86-22.33-20.98-19.15-26.88-39.43-28.86-46.24-6.35-21.84,2.27-32.41,5.41-35.64"/>
        <path class="cls-17" d="M387.98,585.85c-10.59-48.52-34.81-89.61-51.54-114.36-21.55-31.88-46.77-69.19-81.11-84.24-20.52-8.99-41.82-8.96-50.78,1.07-8.12,9.09-5.15,25.29,3.81,39.76,5.36,8.66,23.42,33.72,120.64,82.78,87.04,43.92,102.3,38.84,185.66,83.29,36.84,19.64,74.97,42.56,106.66,75.55,26.46,27.55,30.97,43.96,32.02,48.58,1.07,4.7,4.87,21.44-8.52,24.96-11.38,3-28.66-5.27-44.5-12.86-10.76-5.16-32.41-16.57-58.5-38.61-26.44-22.33-41.95-42.48-52.88-56.92-46.7-61.7-70.04-92.55-85.51-120.54-32.19-58.25-58.74-106.3-39.04-131.56,14.12-18.1,46.1-16.94,61.9-16.37,43.39,1.58,62.79,20.35,121.98,25.34,6.64.56,35.8,2.76,59.78-8.17,15.47-7.05,16.69-14.04,16.07-19.48-1.36-11.98-13.05-28.69-29.76-41.1-25.24-18.74-48.08-17.37-52.98-17.08-18.87,1.13-23.36,13.41-25.15,18.73-2.53,7.54-1.91,15.77,9.04,48.44,16.2,48.32,24.3,72.49,38.67,92.36,11.2,15.48,21.02,25.29,26.32,40.54,5.89,16.96,1.66,27.65-.17,32-3.55,8.44-6.4,15.21-17.2,15.74-18.84.91-44.96-18.04-47.22-19.71-25.13-18.52-33.9-40-36.85-47.22-9.45-23.14-1.24-35.68,1.82-39.57"/>
        <path class="cls-12" d="M398.42,590.32c-17.15-51.81-48.34-93.94-69.46-119.06-27.22-32.37-59.07-70.25-98.32-82.75-23.45-7.47-46.73-4.99-55.38,7.01-7.83,10.86-2.73,28.23,8.73,43.02,6.86,8.85,29.46,34.16,141.35,76.61,100.17,38,116.27,30.7,212.47,69.7,42.51,17.23,86.83,37.9,125.25,70.31,32.09,27.07,38.9,44.48,40.57,49.41,1.71,5.01,7.78,22.87-6.45,28.26-12.1,4.59-31.93-2.47-50.12-8.94-12.36-4.4-37.32-14.39-68.36-35.47-31.47-21.37-50.73-41.6-64.33-56.13-58.12-62.07-87.18-93.1-107.3-121.92-41.87-59.96-76.41-109.43-57.77-139.3,13.35-21.41,48.44-23.81,65.76-25,47.6-3.26,70.96,15.02,136.22,13.68,7.32-.15,39.44-1.1,64.4-15.79,16.1-9.48,16.63-17.26,15.33-23.13-2.86-12.94-17.56-29.86-37.25-41.49-29.74-17.58-54.54-13.46-59.87-12.57-20.5,3.4-23.99,17.34-25.33,23.36-1.9,8.53-.27,17.46,15.45,51.9,23.25,50.95,34.88,76.43,52.88,96.49,14.02,15.63,25.88,25.22,33.42,41.28,8.38,17.86,4.99,30.02,3.49,35-2.91,9.63-5.25,17.36-16.99,19.17-20.49,3.16-51.21-14.55-53.87-16.11-29.59-17.36-41.65-39.82-45.7-47.37-12.99-24.21-5.45-38.85-2.55-43.45"/>
        <path class="cls-6" d="M410.35,594.01c-24.69-54.65-63.62-97.11-89.59-122.14-33.46-32.25-72.62-69.99-116.96-79.14-26.49-5.47-51.65-.08-59.72,14.02-7.31,12.77.26,31.17,14.48,46.01,8.51,8.89,36.12,33.95,163.28,67.49,113.84,30.03,130.59,20.2,240.21,51.76,48.44,13.95,99.24,31.44,144.96,62.46,38.18,25.9,47.62,44.15,50.02,49.34,2.44,5.28,11.13,24.1-3.8,31.63-12.69,6.4-35.18.97-55.8-4.02-14.01-3.39-42.44-11.44-78.79-30.91-36.84-19.74-60.22-39.64-76.76-53.96-70.65-61.16-105.97-91.74-131.27-120.92-52.65-60.72-96.07-110.82-79.14-145.6,12.13-24.93,50.2-31.59,69-34.87,51.65-9.03,79.28,8.27,150.45-.69,7.99-1.01,42.98-5.73,68.57-24.66,16.5-12.21,16.19-20.77,14.1-27.04-4.62-13.81-22.62-30.61-45.47-41.07-34.52-15.79-61.15-8.44-66.87-6.87-22.01,6.07-24.23,21.71-25,28.43-1.09,9.54,1.71,19.11,22.84,54.94,31.27,53.01,46.9,79.52,68.87,99.38,17.12,15.48,31.18,24.59,41.27,41.28,11.21,18.56,8.9,32.24,7.83,37.85-2.07,10.86-3.74,19.58-16.37,22.91-22.03,5.81-57.63-10.02-60.73-11.42-34.33-15.57-50.09-38.74-55.38-46.52-16.98-24.96-10.42-41.84-7.78-47.19"/>
        <path class="cls-24" d="M423.8,596.66c-33.26-56.89-80.68-98.82-111.94-123.2-40.27-31.4-87.41-68.15-136.91-73.06-29.58-2.94-56.45,5.84-63.65,22.18-6.52,14.8,3.87,34.04,21.11,48.62,10.32,8.73,43.38,32.95,186.2,55,127.86,19.74,145.04,7.07,268.47,28.98,54.54,9.68,112.07,22.96,165.59,51.61,44.7,23.92,57.11,42.78,60.33,48.18,3.27,5.49,14.93,25.06-.52,35-13.14,8.46-38.33,5.1-61.44,2.02-15.7-2.09-47.7-7.63-89.66-24.73-42.53-17.34-70.36-36.4-90.08-50.15-84.23-58.72-126.35-88.09-157.35-117.07-64.51-60.32-117.73-110.08-103.22-150.04,10.4-28.64,51.24-40.29,71.4-46.04,55.41-15.8,87.59-.07,164.34-18.04,8.61-2.02,46.31-11.2,72.1-34.82,16.64-15.24,15.31-24.56,12.3-31.17-6.63-14.56-28.24-30.86-54.41-39.66-39.54-13.3-67.81-2.2-73.87.18-23.36,9.17-23.99,26.51-24.06,33.95-.1,10.56,4.06,20.69,31.28,57.42,40.26,54.35,60.39,81.52,86.68,100.7,20.49,14.95,36.9,23.29,49.84,40.37,14.39,19,13.43,34.21,12.9,40.46-1.02,12.1-1.84,21.83-15.26,26.91-23.41,8.88-64.14-4.33-67.68-5.51-39.31-13.07-59.19-36.58-65.87-44.48-21.42-25.33-16.19-44.52-13.93-50.68"/>
        <path class="cls-8" d="M438.81,598.02c-42.89-58.36-99.52-98.73-136.49-121.78-47.62-29.69-103.35-64.44-158.02-64.12-32.66.19-61.02,12.87-67.02,31.55-5.43,16.92,8.14,36.75,28.65,50.71,12.29,8.36,51.19,31.03,209.81,38.73,142,6.89,159.32-8.93,296.73.83,60.72,4.32,125.12,12.22,186.9,37.38,51.6,21.01,67.33,40.19,71.47,45.72,4.21,5.63,19.2,25.67,3.45,38.31-13.39,10.75-41.31,9.97-66.92,9.26-17.4-.48-53-2.86-100.82-16.73-48.47-14.07-81.08-31.7-104.21-44.46-98.8-54.5-148.21-81.75-185.41-109.87-77.43-58.51-141.31-106.78-130.04-152.12,8.07-32.49,51.37-49.91,72.75-58.52,58.74-23.64,95.72-10.14,177.53-38.59,9.18-3.19,49.33-17.56,74.8-46.34,16.43-18.56,13.91-28.6,9.86-35.48-8.92-15.15-34.4-30.48-64.02-37.09-44.74-9.99-74.36,5.38-80.71,8.68-24.47,12.7-23.17,31.72-22.39,39.86,1.11,11.55,6.82,22.14,40.78,59.16,50.24,54.77,75.36,82.15,106.3,100.1,24.11,13.98,43,21.22,59.11,38.4,17.91,19.11,18.61,35.85,18.75,42.74.27,13.34.5,24.07-13.58,31.17-24.56,12.39-70.59,2.64-74.6,1.76-44.46-9.77-68.89-33.18-77.1-41.05-26.32-25.22-22.81-46.8-21.04-53.79"/>
        <path class="cls-28" d="M455.37,597.79c-53.57-58.85-120.11-96.47-163.15-117.41-55.46-26.98-120.35-58.55-180.06-51.92-35.68,3.96-65.21,21.08-69.62,42.18-3.99,19.11,13.11,39.23,37.14,52.13,14.39,7.72,59.51,28.03,233.75,18.22,155.98-8.78,173.1-28.06,324.39-33.17,66.86-2.26,138.15-1.01,208.55,19.38,58.8,17.03,78.2,36.19,83.36,41.76,5.25,5.67,23.93,25.85,8.18,41.47-13.39,13.29-44,15.65-72.07,17.81-19.07,1.47-58.25,2.97-112.11-6.71-54.59-9.8-92.25-25.33-119-36.62-114.24-48.22-171.36-72.32-215.25-98.77-91.34-55.05-166.69-100.46-159.59-151.31,5.09-36.44,50.41-60.45,72.78-72.31,61.48-32.58,103.45-22.08,189.59-62.57,9.67-4.54,51.89-24.86,76.42-59.23,15.82-22.17,11.92-32.86,6.7-39.91-11.49-15.54-41.1-29.36-74.23-33.19-50.04-5.78-80.64,14.42-87.21,18.76-25.29,16.69-21.68,37.33-19.89,46.14,2.54,12.49,9.99,23.41,51.36,59.97,61.2,54.08,91.8,81.13,127.67,97.18,27.95,12.51,49.44,18.25,69.01,35.17,21.76,18.83,24.46,37.04,25.4,44.55,1.83,14.55,3.31,26.24-11.27,35.62-25.42,16.36-76.85,10.99-81.33,10.49-49.71-5.57-79.1-28.35-88.98-36-31.66-24.54-30.31-48.53-29.17-56.37"/>
        <path class="cls-9" d="M473.44,595.62c-65.31-58.17-142.35-91.64-191.79-109.58-63.7-23.11-138.26-50.16-202.75-36.06-38.54,8.42-68.85,30.52-71.24,54.1-2.16,21.35,18.84,41.37,46.58,52.71,16.61,6.79,68.26,23.8,257.55-6.94,169.46-27.52,185.95-50.55,350.71-73.51,72.81-10.15,150.86-16.98,230.15-2.77,66.22,11.86,89.62,30.57,95.9,36.06,6.39,5.59,29.12,25.5,13.7,44.39-13.11,16.06-46.29,22.15-76.72,27.74-20.67,3.8-63.32,9.93-123.3,5.55-60.79-4.44-103.73-17.09-134.25-26.35-130.39-39.57-195.59-59.36-246.59-83.22-106.15-49.67-193.72-90.65-191.79-147.03,1.38-40.41,48.15-71.86,71.24-87.38,63.45-42.67,110.52-36.01,200.01-90.16,10.04-6.08,53.85-33.13,76.72-73.51,14.75-26.05,9.25-37.28,2.74-44.39-14.34-15.66-48.29-27.37-84.94-27.74-55.35-.57-86.48,25.02-93.16,30.52-25.72,21.15-19.41,43.29-16.44,52.71,4.21,13.36,13.61,24.44,63.02,59.64,73.09,52.08,109.64,78.12,150.69,91.55,31.99,10.46,56.12,14.26,79.46,30.52,25.95,18.07,30.98,37.67,32.88,45.77,3.68,15.69,6.63,28.3-8.22,40.22-25.9,20.8-82.72,20.84-87.68,20.81-54.97-.38-89.71-21.9-101.38-29.13-37.42-23.19-38.69-49.55-38.36-58.26"/>
      </g>
      <circle class="cls-32" cx="719.07" cy="387.98" r="7.5"/>
      <circle class="cls-32" cx="756.07" cy="351.87" r="7.5"/>
      <circle class="cls-32" cx="729.07" cy="310.89" r="7.5"/>
      <circle class="cls-32" cx="199.07" cy="322.7" r="7.5"/>
      <circle class="cls-32" cx="223.07" cy="305.34" r="7.5"/>
      <circle class="cls-32" cx="247.07" cy="250.47" r="7.5"/>
      <circle class="cls-32" cx="905.07" cy="658.69" r="7.5"/>
      <circle class="cls-32" cx="952.07" cy="637.29" r="7.5"/>
      <circle class="cls-32" cx="982.07" cy="599.1" r="7.5"/>
      <circle class="cls-32" cx="949.57" cy="615.19" r="5"/>
      <ellipse class="cls-32" cx="732.57" cy="357.77" rx="5" ry="3.47"/>
      <ellipse class="cls-32" cx="717.57" cy="423.05" rx="5" ry="3.47"/>
      <ellipse class="cls-32" cx="702.57" cy="273.04" rx="5" ry="3.47"/>
      <circle class="cls-32" cx="221.57" cy="277.9" r="5"/>
      <circle class="cls-32" cx="287.57" cy="244.57" r="5"/>
    </g>
  </g>
</svg>