<?xml version="1.0" encoding="UTF-8"?>
<svg id="Layer_2" xmlns="http://www.w3.org/2000/svg" viewBox="0 0 1048.16 666.73">
  <defs>
    <style>
      .cls-1 {
        stroke-dasharray: 0 4.31;
        stroke-width: 1.29px;
      }

      .cls-1, .cls-2, .cls-3, .cls-4, .cls-5, .cls-6, .cls-7, .cls-8, .cls-9, .cls-10, .cls-11, .cls-12, .cls-13, .cls-14, .cls-15, .cls-16, .cls-17, .cls-18, .cls-19, .cls-20, .cls-21, .cls-22, .cls-23, .cls-24, .cls-25, .cls-26, .cls-27, .cls-28, .cls-29, .cls-30, .cls-31 {
        fill: none;
        stroke: #8aceca;
        stroke-linecap: round;
        stroke-linejoin: round;
      }

      .cls-2 {
        stroke-dasharray: 0 11.06;
        stroke-width: 3.32px;
      }

      .cls-3 {
        stroke-dasharray: 0 23.51;
        stroke-width: 7.05px;
      }

      .cls-4 {
        stroke-dasharray: 0 14.67;
        stroke-width: 4.4px;
      }

      .cls-5 {
        stroke-dasharray: 0 7.58;
        stroke-width: 2.27px;
      }

      .cls-6 {
        stroke-dasharray: 0 34.29;
        stroke-width: 10.29px;
      }

      .cls-7 {
        stroke-dasharray: 0 6.28;
        stroke-width: 1.88px;
      }

      .cls-8 {
        stroke-dasharray: 0 41.4;
        stroke-width: 12.42px;
      }

      .cls-9 {
        stroke-dasharray: 0 50;
        stroke-width: 15px;
      }

      .cls-10 {
        stroke-dasharray: 0 5.2;
        stroke-width: 1.56px;
      }

      .cls-32 {
        fill: #8aceca;
      }

      .cls-11 {
        stroke-dasharray: 0 21.4;
        stroke-width: 6.42px;
      }

      .cls-12 {
        stroke-dasharray: 0 31.2;
        stroke-width: 9.36px;
      }

      .cls-13 {
        stroke-dasharray: 0 16.12;
        stroke-width: 4.84px;
      }

      .cls-14 {
        stroke-dasharray: 0 3.57;
        stroke-width: 1.07px;
      }

      .cls-15 {
        stroke-dasharray: 0 2.95;
        stroke-width: .89px;
      }

      .cls-16 {
        stroke-dasharray: 0 5.71;
        stroke-width: 1.71px;
      }

      .cls-17 {
        stroke-dasharray: 0 28.39;
        stroke-width: 8.52px;
      }

      .cls-18 {
        stroke-dasharray: 0 25.84;
        stroke-width: 7.75px;
      }

      .cls-19 {
        stroke-dasharray: 0 4.73;
        stroke-width: 1.42px;
      }

      .cls-20 {
        stroke-dasharray: 0 3.24;
        stroke-width: .97px;
      }

      .cls-21 {
        stroke-dasharray: 0 13.35;
        stroke-width: 4.01px;
      }

      .cls-22 {
        stroke-dasharray: 0 10.06;
        stroke-width: 3.02px;
      }

      .cls-23 {
        stroke-dasharray: 0 8.33;
        stroke-width: 2.5px;
      }

      .cls-24 {
        stroke-dasharray: 0 37.68;
        stroke-width: 11.3px;
      }

      .cls-25 {
        stroke-dasharray: 0 3.92;
        stroke-width: 1.18px;
      }

      .cls-26 {
        stroke-dasharray: 0 19.47;
        stroke-width: 5.84px;
      }

      .cls-27 {
        stroke-dasharray: 0 9.16;
        stroke-width: 2.75px;
      }

      .cls-28 {
        stroke-dasharray: 0 45.5;
        stroke-width: 13.65px;
      }

      .cls-29 {
        stroke-dasharray: 0 12.15;
        stroke-width: 3.65px;
      }

      .cls-30 {
        stroke-dasharray: 0 6.9;
        stroke-width: 2.07px;
      }

      .cls-31 {
        stroke-dasharray: 0 17.72;
        stroke-width: 5.32px;
      }
    </style>
  </defs>
  <g id="low_good">
    <g>
      <g>
        <path class="cls-15" d="M417.42,467.28c7.03-7.48,22.99-6.04,33.7.24,13.08,7.66,20.86,23.99,17.06,29.07-1.9,2.54-7.04,2.72-10.3,1.93-4.84-1.17-4.86-4.29-9.13-5.27-5.03-1.15-6.63,2.81-14.28,3.1-1.55.06-8.83.33-11.06-3.55-1.43-2.48.7-4.08-.49-7.29-1.74-4.73-7.48-4.32-8.96-8.3-1.28-3.44,1.47-7.83,3.45-9.93Z"/>
        <path class="cls-20" d="M413.24,470.73c6.66-9.1,24.26-9.67,36.79-4.26,15.29,6.6,25.96,23.37,22.5,29.42-1.73,3.03-7.31,3.91-10.97,3.49-5.44-.63-5.87-4.03-10.66-4.53-5.64-.58-6.86,3.96-15.15,5.29-1.68.27-9.58,1.54-12.54-2.39-1.89-2.52.21-4.54-1.51-7.88-2.54-4.92-8.73-3.71-10.88-7.85-1.86-3.58.56-8.74,2.43-11.3Z"/>
        <path class="cls-14" d="M409.15,475.05c6.05-10.82,25.17-13.79,39.56-9.57,17.57,5.15,31.45,22.01,28.48,29.08-1.49,3.54-7.45,5.25-11.5,5.28-6.02.05-6.94-3.61-12.24-3.51-6.23.12-6.95,5.24-15.82,7.8-1.79.52-10.24,2.96-14-.93-2.4-2.49-.37-4.98-2.7-8.4-3.43-5.03-10.02-2.88-12.92-7.11-2.51-3.65-.56-9.6,1.14-12.65Z"/>
        <path class="cls-25" d="M405.26,480.32c5.15-12.61,25.6-18.41,41.87-15.74,19.85,3.27,37.25,19.8,34.96,27.9-1.15,4.06-7.42,6.72-11.84,7.29-6.56.86-8.06-3.01-13.82-2.19-6.78.97-6.88,6.64-16.21,10.63-1.89.81-10.78,4.61-15.39.86-2.95-2.39-1.07-5.38-4.07-8.8-4.41-5.03-11.32-1.8-15.05-6.02-3.22-3.65-1.9-10.4-.45-13.95Z"/>
        <path class="cls-1" d="M401.73,486.58c3.93-14.44,25.46-23.51,43.56-22.77,22.09.91,43.28,16.6,41.86,25.75-.71,4.58-7.2,8.32-11.94,9.54-7.04,1.81-9.19-2.21-15.36-.54-7.27,1.96-6.61,8.16-16.26,13.76-1.95,1.13-11.14,6.47-16.67,3-3.54-2.22-1.89-5.72-5.62-9.05-5.48-4.89-12.59-.45-17.22-4.55-4-3.55-3.46-11.09-2.36-15.15Z"/>
        <path class="cls-19" d="M398.72,493.88c2.35-16.28,24.62-29.06,44.46-30.67,24.21-1.97,49.43,12.31,49.11,22.48-.16,5.09-6.74,10.04-11.74,12.01-7.43,2.92-10.32-1.17-16.83,1.47-7.66,3.12-6.12,9.79-15.89,17.19-1.98,1.5-11.28,8.54-17.78,5.51-4.16-1.94-2.83-5.99-7.34-9.12-6.64-4.6-13.79,1.2-19.39-2.66-4.84-3.33-5.26-11.63-4.6-16.21Z"/>
        <path class="cls-10" d="M396.41,502.24c.38-18.07,22.96-34.99,44.39-39.41,26.15-5.39,55.56,6.81,56.58,17.95.51,5.57-6,11.85-11.2,14.67-7.71,4.18-11.42.1-18.16,3.86-7.94,4.43-5.36,11.5-15.03,20.88-1.95,1.9-11.16,10.83-18.66,8.39-4.79-1.56-3.89-6.15-9.22-8.96-7.85-4.13-14.88,3.15-21.51-.3-5.73-2.99-7.3-11.98-7.19-17.07Z"/>
        <path class="cls-16" d="M395.01,511.68c-2-19.76,20.36-41.24,43.14-48.92,27.8-9.38,61.51-.01,64.11,12,1.3,6.01-4.96,13.73-10.25,17.5-7.85,5.59-12.44,1.64-19.29,6.64-8.07,5.89-4.31,13.26-13.6,24.78-1.88,2.33-10.72,13.31-19.22,11.65-5.44-1.06-5.07-6.19-11.26-8.54-9.12-3.45-15.8,5.43-23.5,2.55-6.65-2.49-9.56-12.09-10.13-17.65Z"/>
        <path class="cls-7" d="M394.74,522.16c-4.83-21.28,16.69-47.71,40.5-59.14,29.06-13.95,67.09-8.25,71.53,4.5,2.22,6.38-3.57,15.64-8.84,20.46-7.82,7.15-13.35,3.45-20.15,9.83-8.01,7.5-2.92,15.04-11.51,28.85-1.74,2.79-9.91,15.95-19.41,15.28-6.08-.43-6.36-6.08-13.43-7.81-10.41-2.55-16.51,8.04-25.29,5.93-7.58-1.83-12.05-11.9-13.41-17.9Z"/>
        <path class="cls-30" d="M395.86,533.62c-8.12-22.57,11.81-54.27,36.25-69.93,29.83-19.11,72.07-17.98,78.63-4.67,3.28,6.66-1.8,17.54-6.9,23.5-7.57,8.84-14.09,5.55-20.66,13.42-7.73,9.26-1.17,16.79-8.69,33.01-1.52,3.28-8.68,18.72-19.12,19.26-6.68.34-7.75-5.78-15.69-6.72-11.69-1.38-16.93,10.98-26.79,9.85-8.52-.98-14.74-11.37-17.02-17.72Z"/>
        <path class="cls-5" d="M398.61,545.97c-11.88-23.53,5.61-60.77,30.17-81.12,29.97-24.84,76.2-29.26,85.13-15.63,4.47,6.82.39,19.37-4.38,26.55-7.07,10.66-14.63,7.95-20.74,17.4-7.19,11.13.97,18.47-5.06,37.17-1.22,3.78-6.96,21.59-18.28,23.57-7.24,1.27-9.22-5.26-18.01-5.22-12.94.06-17,14.24-27.9,14.33-9.42.07-17.6-10.43-20.94-17.05Z"/>
        <path class="cls-23" d="M403.27,559.08c-16.11-24.07-2.02-67.04,22.05-92.52,29.37-31.11,79.19-42.12,90.76-28.45,5.79,6.84,3.02,21.08-1.22,29.55-6.29,12.57-14.89,10.63-20.29,21.76-6.36,13.11,3.53,20.02-.54,41.22-.82,4.29-4.7,24.47-16.78,28.16-7.73,2.35-10.76-4.5-20.35-3.28-14.11,1.8-16.63,17.81-28.51,19.37-10.26,1.34-20.59-9.02-25.12-15.79Z"/>
        <path class="cls-27" d="M410.1,572.75c-20.79-24.1-11.18-72.85,11.65-103.87,27.86-37.86,80.74-56.55,95.18-43.18,7.23,6.69,6.11,22.59,2.63,32.39-5.17,14.56-14.82,13.58-19.22,26.45-5.18,15.15,6.53,21.36,4.93,45.03-.32,4.78-1.84,27.32-14.53,32.96-8.12,3.6-12.34-3.47-22.63-.86-15.15,3.85-15.75,21.66-28.5,24.94-11.01,2.84-23.66-7.08-29.52-13.86Z"/>
        <path class="cls-22" d="M419.39,586.75c-25.9-23.5-21.95-77.96-1.2-114.85,25.32-45.03,80.49-72.49,98.04-59.85,8.78,6.33,9.69,23.82,7.2,34.98-3.69,16.57-14.34,16.8-17.42,31.42-3.62,17.22,9.99,22.42,11.41,48.45.29,5.26,1.65,30.05-11.44,37.89-8.37,5.02-13.93-2.13-24.8,2.1-16,6.22-14.28,25.73-27.75,31.02-11.63,4.57-26.76-4.55-34.05-11.16Z"/>
        <path class="cls-2" d="M431.39,600.77c-31.4-22.16-34.38-82.09-16.69-125.11,21.59-52.5,78.08-89.85,98.91-78.4,10.43,5.73,13.76,24.68,12.54,37.18-1.81,18.57-13.4,20.25-14.79,36.6-1.64,19.26,13.89,23.12,18.94,51.32,1.02,5.7,5.82,32.55-7.4,42.86-8.46,6.59-15.48-.46-26.77,5.61-16.62,8.93-12.13,29.98-26.11,37.55-12.08,6.54-29.8-1.38-38.64-7.62Z"/>
        <path class="cls-29" d="M446.36,614.46c-37.22-19.97-48.49-84.93-34.96-134.22,16.51-60.16,73.13-108.45,97.39-98.76,12.14,4.85,18.31,25.07,18.66,38.88.51,20.49-11.9,23.88-11.23,41.91.79,21.23,18.25,23.36,27.53,53.44,1.88,6.08,10.71,34.73-2.33,47.74-8.34,8.32-16.94,1.57-28.45,9.7-16.93,11.97-9.22,34.32-23.45,44.46-12.3,8.76-32.68,2.49-43.16-3.13Z"/>
        <path class="cls-21" d="M464.52,627.38c-43.27-16.79-64.26-86.14-56.1-141.72,9.96-67.83,65.24-128.09,92.99-120.76,13.89,3.66,23.33,24.9,25.56,39.91,3.3,22.28-9.78,27.64-6.64,47.21,3.7,23.05,23.03,23.03,37.18,54.6,2.86,6.38,16.33,36.44,3.85,52.38-7.98,10.2-18.27,3.98-29.73,14.39-16.87,15.32-5.46,38.67-19.62,51.63-12.24,11.2-35.31,7.09-47.5,2.36Z"/>
        <path class="cls-4" d="M486.06,639.05c-49.44-12.52-81.63-85.35-80.17-147.06,1.77-75.31,54-148.44,85.26-144.17,15.64,2.14,28.78,24.03,33.22,40.1,6.59,23.86-6.97,31.45-.91,52.38,7.13,24.64,28.21,22.04,47.87,54.57,3.97,6.58,22.69,37.56,11.22,56.62-7.34,12.19-19.39,6.79-30.5,19.68-16.34,18.97-.78,42.91-14.49,58.94-11.85,13.85-37.57,12.46-51.49,8.94Z"/>
        <path class="cls-13" d="M511.11,648.88c-55.6-7.04-100.46-82.16-107.14-149.66-8.15-82.38,39.02-169.14,73.68-168.67,17.35.24,34.61,22.35,41.61,39.29,10.38,25.14-3.39,35.24,6.02,57.26,11.07,25.92,33.72,20.26,59.52,53.11,5.21,6.64,29.78,37.93,19.82,60.25-6.38,14.28-20.24,10-30.63,25.54-15.29,22.88,4.9,46.9-7.91,66.23-11.07,16.69-39.31,18.62-54.96,16.64Z"/>
        <path class="cls-31" d="M539.75,656.26c-61.59-.23-120.58-76.16-136.9-148.89-19.92-88.76,19.91-189.71,57.78-193.83,18.95-2.07,40.75,19.75,50.64,37.28,14.69,26.04,1.03,38.89,14.23,61.64,15.55,26.79,39.49,17.58,72.03,49.96,6.58,6.55,37.56,37.38,29.68,63.06-5.04,16.43-20.74,13.62-29.98,31.96-13.61,27,11.63,50.5.24,73.29-9.84,19.69-40.38,25.58-57.72,25.51Z"/>
        <path class="cls-26" d="M571.98,660.47c-67.21,8-141.72-66.92-169.26-144.06-33.62-94.15-3.69-209.58,37.06-219.15,20.39-4.79,47.09,16.08,60.23,33.88,19.51,26.43,6.33,42.28,23.78,65.33,20.55,27.14,45.43,13.89,85.25,44.85,8.05,6.26,45.98,35.74,40.82,64.81-3.3,18.6-20.8,17.63-28.42,38.88-11.23,31.28,19.45,53.53,10.08,79.91-8.09,22.8-40.62,33.31-59.54,35.56Z"/>
        <path class="cls-11" d="M607.7,660.74c-72.23,17.72-163.53-54.01-203.91-134.46-49.27-98.18-32.1-228.1,11.07-244,21.6-7.96,53.51,11.23,70.23,28.89,24.82,26.21,12.56,45.27,34.68,68.07,26.05,26.85,51.41,9.06,98.99,37.5,9.62,5.75,54.94,32.83,53.2,65.22-1.11,20.72-20.32,22.01-25.8,46.21-8.06,35.62,28.38,55.78,21.69,85.81-5.77,25.95-39.84,41.77-60.17,46.76Z"/>
        <path class="cls-3" d="M646.69,656.26c-76.41,29-185.6-37.01-240.41-119.35-66.89-100.49-65.55-244.49-20.6-267.61,22.49-11.57,59.87,5.09,80.47,22.11,30.58,25.27,19.76,47.69,46.95,69.6,32.01,25.8,57.28,3,112.99,27.64,11.26,4.98,64.31,28.45,66.76,64.01,1.57,22.75-19.22,26.73-21.95,53.86-4.02,39.93,38.42,57.04,35.15,90.69-2.82,29.07-37.86,50.89-59.37,59.06Z"/>
        <path class="cls-18" d="M688.62,646.14c-79.46,41.87-207.39-15.51-278.2-97.98-86.42-100.65-104.24-257.89-58.31-289.13,22.99-15.63,65.98-2.47,90.73,13.33,36.74,23.47,27.94,49.37,60.53,69.63,38.36,23.85,62.88-4.4,126.95,15.02,12.95,3.93,73.96,22.42,81.39,60.88,4.76,24.61-17.38,31.73-16.72,61.68.97,44.09,49.55,57.07,50.49,94.21.81,32.09-34.48,60.58-56.85,72.36Z"/>
        <path class="cls-17" d="M733,629.5c-81.06,56.31-228.28,10.85-316.56-69.61-107.74-98.21-148.24-267.32-102.32-307.55,22.98-20.13,71.64-11.53,100.74,2.39,43.21,20.67,37.09,50.11,75.34,67.84,45.04,20.88,68-13.22,140.47-.62,14.65,2.55,83.67,14.55,96.93,55.5,8.48,26.2-14.71,36.94-9.98,69.52,6.96,47.96,61.68,55.61,67.68,95.99,5.19,34.89-29.49,70.69-52.31,86.54Z"/>
        <path class="cls-12" d="M779.18,605.4c-80.87,72.27-247.54,42.41-354.6-33.53-130.66-92.69-197.48-271.72-152.79-321.74,22.37-25.03,76.59-22.17,110.2-10.88,49.9,16.76,47.17,49.68,91.26,63.9,51.92,16.74,72.39-23.53,153.13-19.49,16.32.82,93.21,4.66,113.15,47.55,12.76,27.44-11.09,42.26-1.58,77.16,14.01,51.37,74.72,52.39,86.68,95.63,10.33,37.36-22.7,81.05-45.47,101.4Z"/>
        <path class="cls-6" d="M826.31,572.93c-78.53,89.66-264.31,79.41-391.25,10.92-154.93-83.59-251.79-269.92-209.73-330.47,21.04-30.3,80.57-34.44,118.74-26.63,56.67,11.6,58.1,47.87,108.1,57.48,58.87,11.31,75.81-35.36,164.41-41.76,17.91-1.3,102.29-7.4,129.78,36.71,17.59,28.22-6.44,47.58,8.61,84.37,22.16,54.16,88.52,47.14,107.35,92.7,16.27,39.37-13.91,91.44-36.01,116.68Z"/>
        <path class="cls-24" d="M873.38,531.2c-73.64,108.31-277.65,122.01-425.28,64.3-180.18-70.43-310.77-260.68-273.02-332.35,18.89-35.86,83.27-48.35,125.95-44.95,63.37,5.06,69.78,44.44,125.6,48.21,65.72,4.45,77.95-48.71,173.73-67.57,19.36-3.81,110.57-21.77,146.47,22.66,22.97,28.43-.65,52.75,20.69,90.87,31.42,56.1,102.86,39.56,129.5,86.73,23.02,40.76-2.92,101.6-23.65,132.09Z"/>
        <path class="cls-8" d="M919.12,479.38c-65.82,127.99-286.5,170.26-455.24,127.09-205.95-52.69-373.87-242.71-342.29-325.94,15.8-41.65,84.34-63.89,131.35-65.89,69.79-2.97,82.06,39.12,143.45,35.77,72.28-3.95,78.5-63.57,180.44-96.97,20.61-6.75,117.69-38.55,162.8,5.1,28.86,27.93,6.35,57.63,34.74,96.34,41.79,56.98,117.49,29.37,152.86,77.26,30.56,41.37,10.42,111.21-8.11,147.24Z"/>
        <path class="cls-28" d="M962.07,416.74c-54.65,148.42-289.69,224.07-479.52,199.59-231.69-29.89-440.29-214.65-416.99-309.67,11.66-47.54,83.44-80.98,134.44-89.46,75.73-12.58,94.74,31.68,161.25,19.8,78.31-13.99,77.1-79.85,183.83-129.93,21.57-10.12,123.2-57.81,178.25-16.24,35.22,26.6,14.64,62,50.8,100.43,53.21,56.56,132.08,16.3,177.08,63.79,38.88,41.03,26.26,119.9,10.87,161.68Z"/>
        <path class="cls-9" d="M1000.54,342.67c-39.73,169.2-285.96,283.2-496.29,281.91C247.54,623.01-4.73,449.42,7.96,342.67c6.35-53.42,80.16-99.5,134.66-115.58,80.91-23.87,107.58,21.87,178.53,0,83.54-25.75,73.4-97.42,183.1-166.33,22.17-13.93,126.64-79.55,192.24-41.58,41.97,24.29,24.28,65.67,68.85,102.74,65.61,54.56,146.24.09,201.68,45.86,47.9,39.55,44.7,127.26,33.51,174.89Z"/>
      </g>
      <circle class="cls-32" cx="1012.66" cy="377.59" r="7.5"/>
      <circle class="cls-32" cx="999.66" cy="434.59" r="7.5"/>
      <circle class="cls-32" cx="1022.66" cy="481.59" r="7.5"/>
      <circle class="cls-32" cx="980.66" cy="468.59" r="7.5"/>
      <circle class="cls-32" cx="945.66" cy="491.59" r="7.5"/>
      <circle class="cls-32" cx="921.66" cy="555.59" r="7.5"/>
      <circle class="cls-32" cx="1040.66" cy="343.59" r="7.5"/>
      <circle class="cls-32" cx="1031.16" cy="414.09" r="5"/>
      <circle class="cls-32" cx="979.16" cy="443.09" r="5"/>
      <circle class="cls-32" cx="925.16" cy="525.09" r="5"/>
      <circle class="cls-32" cx="1021.16" cy="457.09" r="5"/>
      <circle class="cls-32" cx="1031.16" cy="319.09" r="5"/>
    </g>
  </g>
</svg>