<?xml version="1.0" encoding="UTF-8"?>
<svg id="Layer_2" xmlns="http://www.w3.org/2000/svg" viewBox="0 0 757.59 651.5">
  <defs>
    <style>
      .cls-1 {
        stroke-dasharray: 0 4.31;
        stroke-width: 1.29px;
      }

      .cls-1, .cls-2, .cls-3, .cls-4, .cls-5, .cls-6, .cls-7, .cls-8, .cls-9, .cls-10, .cls-11, .cls-12, .cls-13, .cls-14, .cls-15, .cls-16, .cls-17, .cls-18, .cls-19, .cls-20, .cls-21, .cls-22, .cls-23, .cls-24, .cls-25, .cls-26, .cls-27, .cls-28, .cls-29, .cls-30, .cls-31 {
        fill: none;
        stroke: #8aceca;
        stroke-linecap: round;
        stroke-linejoin: round;
      }

      .cls-2 {
        stroke-dasharray: 0 11.06;
        stroke-width: 3.32px;
      }

      .cls-3 {
        stroke-dasharray: 0 23.51;
        stroke-width: 7.05px;
      }

      .cls-4 {
        stroke-dasharray: 0 14.67;
        stroke-width: 4.4px;
      }

      .cls-5 {
        stroke-dasharray: 0 7.58;
        stroke-width: 2.27px;
      }

      .cls-6 {
        stroke-dasharray: 0 34.29;
        stroke-width: 10.29px;
      }

      .cls-7 {
        stroke-dasharray: 0 6.28;
        stroke-width: 1.88px;
      }

      .cls-8 {
        stroke-dasharray: 0 41.4;
        stroke-width: 12.42px;
      }

      .cls-9 {
        stroke-dasharray: 0 50;
        stroke-width: 15px;
      }

      .cls-10 {
        stroke-dasharray: 0 5.2;
        stroke-width: 1.56px;
      }

      .cls-32 {
        fill: #8aceca;
      }

      .cls-11 {
        stroke-dasharray: 0 21.4;
        stroke-width: 6.42px;
      }

      .cls-12 {
        stroke-dasharray: 0 31.2;
        stroke-width: 9.36px;
      }

      .cls-13 {
        stroke-dasharray: 0 16.12;
        stroke-width: 4.84px;
      }

      .cls-14 {
        stroke-dasharray: 0 3.57;
        stroke-width: 1.07px;
      }

      .cls-15 {
        stroke-dasharray: 0 2.95;
        stroke-width: .89px;
      }

      .cls-16 {
        stroke-dasharray: 0 5.71;
        stroke-width: 1.71px;
      }

      .cls-17 {
        stroke-dasharray: 0 28.39;
        stroke-width: 8.52px;
      }

      .cls-18 {
        stroke-dasharray: 0 25.84;
        stroke-width: 7.75px;
      }

      .cls-19 {
        stroke-dasharray: 0 4.73;
        stroke-width: 1.42px;
      }

      .cls-20 {
        stroke-dasharray: 0 3.24;
        stroke-width: .97px;
      }

      .cls-21 {
        stroke-dasharray: 0 13.35;
        stroke-width: 4.01px;
      }

      .cls-22 {
        stroke-dasharray: 0 10.06;
        stroke-width: 3.02px;
      }

      .cls-23 {
        stroke-dasharray: 0 8.33;
        stroke-width: 2.5px;
      }

      .cls-24 {
        stroke-dasharray: 0 37.68;
        stroke-width: 11.3px;
      }

      .cls-25 {
        stroke-dasharray: 0 3.92;
        stroke-width: 1.18px;
      }

      .cls-26 {
        stroke-dasharray: 0 19.47;
        stroke-width: 5.84px;
      }

      .cls-27 {
        stroke-dasharray: 0 9.16;
        stroke-width: 2.75px;
      }

      .cls-28 {
        stroke-dasharray: 0 45.5;
        stroke-width: 13.65px;
      }

      .cls-29 {
        stroke-dasharray: 0 12.15;
        stroke-width: 3.65px;
      }

      .cls-30 {
        stroke-dasharray: 0 6.9;
        stroke-width: 2.07px;
      }

      .cls-31 {
        stroke-dasharray: 0 17.72;
        stroke-width: 5.32px;
      }
    </style>
  </defs>
  <g id="low_good">
    <g>
      <g>
        <path class="cls-15" d="M321.29,335.09c-4.63,2.8-8.93,9.49-10.44,14.04-1.46,4.4-.67,7.87-.31,9.15,1.24,4.35,4.27,6.66,5.57,7.52.81.54,3.81,2.42,8.7,2.78,1.76.13,8.22.51,15.09-3.63,5.6-3.38,8.2-7.8,9-9.21.78-1.36,4.58-8.02,1.89-14.45-.5-1.19-2.34-5.36-7.71-7.09-5.93-1.92-13.93-.14-19.49,4.63-.67.57-6.93,6.09-6.38,12.45.08.89.41,4.09,3.46,6.23.61.43,3.89,2.61,8.85,1.51,3.42-.75,7.83-3.1,9.42-6.72,1.06-2.43.46-4.51.26-5.22-.27-.94-.75-2.62-2.5-3.63-1.95-1.13-5.74-1.59-8.65.72-2.09,1.66-3.09,4.25-2.56,6.55"/>
        <path class="cls-20" d="M325.65,330.41c-5.81,1.25-12.67,6.66-15.87,10.85-3.09,4.05-3.52,7.93-3.59,9.4-.26,4.96,2.06,8.45,3.1,9.81.65.85,3.09,3.87,8.04,6,1.78.76,8.35,3.47,16.97,1.62,7.03-1.51,11.31-5.17,12.65-6.34,1.29-1.13,7.63-6.69,7.13-14.33-.09-1.42-.52-6.4-5.47-10.12-5.48-4.11-14.42-5.13-21.91-2.16-.9.36-9.38,3.85-11.09,10.65-.24.95-1.04,4.4,1.37,7.71.48.66,3.11,4.1,8.66,4.74,3.82.44,9.24-.42,12.19-3.61,1.97-2.14,2.09-4.53,2.14-5.34.05-1.08.15-2.99-1.3-4.67-1.62-1.87-5.4-3.7-9.25-2.35-2.77.98-4.73,3.31-5,5.89"/>
        <path class="cls-14" d="M331.85,327.11c-6.49-.78-15.55,2.39-20.37,5.6-4.66,3.1-6.49,6.99-7.1,8.48-2.05,5.06-.88,9.52-.29,11.3.37,1.11,1.82,5.13,6.21,9.11,1.58,1.43,7.44,6.6,17.06,7.76,7.84.95,13.6-1.32,15.41-2.07,1.75-.72,10.32-4.22,12.54-12.34.41-1.51,1.75-6.84-2.06-12.48-4.22-6.23-13.15-10.49-21.99-10.09-1.06.05-11.12.64-15.33,7.1-.59.9-2.65,4.2-1.34,8.5.26.86,1.76,5.37,7.3,8.02,3.81,1.83,9.75,2.87,13.96.61,2.82-1.52,3.8-3.95,4.13-4.78.44-1.1,1.23-3.05.31-5.32-1.02-2.53-4.28-5.78-8.77-5.75-3.23.02-6.1,1.74-7.31,4.33"/>
        <path class="cls-25" d="M339.47,325.89c-6.46-3.13-17.01-3.08-23.17-1.47-5.95,1.55-9.24,4.94-10.41,6.27-3.94,4.53-4.32,9.57-4.35,11.64-.01,1.29.06,5.98,3.19,11.69,1.13,2.05,5.37,9.51,14.95,14.16,7.81,3.79,14.6,3.49,16.75,3.37,2.08-.12,12.24-.7,17.44-8.34.97-1.42,4.27-6.48,2.32-13.7-2.15-7.99-9.91-15.61-19.24-18.35-1.12-.33-11.79-3.31-18.47,1.89-.93.73-4.26,3.42-4.43,8.35-.03.98-.09,6.21,4.71,10.95,3.31,3.26,9.11,6.47,14.28,5.62,3.47-.57,5.36-2.75,6-3.49.85-.98,2.37-2.73,2.23-5.41-.15-2.99-2.38-7.54-7.06-9.11-3.36-1.13-6.96-.37-9.14,1.89"/>
        <path class="cls-1" d="M347.83,327.36c-5.59-5.56-16.58-9.29-23.55-9.82-6.74-.51-11.37,1.82-13.06,2.79-5.71,3.29-7.92,8.4-8.68,10.53-.47,1.33-2.08,6.24-.86,13.28.44,2.53,2.17,11.81,10.46,20.06,6.76,6.73,13.92,8.85,16.2,9.49,2.2.62,12.96,3.66,21.11-2.42,1.51-1.13,6.75-5.2,7.31-13.41.62-9.07-4.71-19.76-13.42-25.94-1.05-.74-11.06-7.66-19.86-4.64-1.23.42-5.65,2.03-7.59,7.09-.39,1.01-2.32,6.42.98,13.06,2.27,4.57,7.15,9.99,12.83,10.95,3.81.65,6.55-.94,7.48-1.48,1.24-.72,3.44-1.99,4.25-4.82.91-3.16.22-8.68-4.07-11.99-3.09-2.38-7.1-2.88-10.17-1.31"/>
        <path class="cls-19" d="M355.99,331.87c-3.82-7.78-13.9-15.58-20.96-18.63-6.81-2.94-12.47-2.18-14.57-1.77-7.11,1.38-11.23,5.89-12.79,7.84-.97,1.21-4.39,5.74-5.65,13.49-.45,2.79-1.97,13.04,3.69,24.59,4.62,9.41,11.3,14.18,13.44,15.66,2.06,1.43,12.16,8.44,22.8,5.03,1.98-.63,8.88-2.99,12.39-11.31,3.89-9.2,2.17-22.22-4.67-31.76-.82-1.15-8.75-11.92-18.98-11.93-1.43,0-6.59.08-10.43,4.65-.77.91-4.7,5.84-3.65,13.92.72,5.57,3.85,12.93,9.41,15.97,3.72,2.04,7.14,1.37,8.3,1.14,1.54-.3,4.28-.84,6.14-3.49,2.08-2.96,3.34-8.94.06-13.91-2.36-3.57-6.35-5.53-10.1-5"/>
        <path class="cls-10" d="M362.85,339.48c-1.19-9.45-8.87-21.16-15.11-26.85-6.03-5.5-12.17-6.72-14.5-7.05-7.88-1.11-13.78,2.11-16.09,3.57-1.44.91-6.61,4.39-10.7,12-1.47,2.74-6.71,12.85-4.96,26.87,1.43,11.43,6.67,18.77,8.36,21.08,1.63,2.22,9.62,13.12,21.89,13.38,2.28.05,10.29.07,16.93-7.32,7.33-8.17,10.21-22.31,6.51-34.67-.45-1.49-4.83-15.51-15.45-19.18-1.48-.51-6.88-2.27-12.5,1.1-1.12.67-6.98,4.39-8.78,13.16-1.24,6.04-.62,14.81,4.06,19.96,3.14,3.45,6.93,3.98,8.22,4.16,1.71.24,4.75.66,7.63-1.43,3.21-2.33,6.67-8.1,5.04-14.44-1.17-4.56-4.62-8.02-8.71-8.81"/>
        <path class="cls-16" d="M367.26,349.84c2.15-10.25-1.65-25.16-6.09-33.31-4.3-7.87-10.24-11.34-12.55-12.51-7.79-3.98-15.07-2.74-18-2.04-1.82.43-8.44,2.2-15.41,8.64-2.51,2.32-11.57,10.95-14.77,26.15-2.61,12.39.21,21.89,1.14,24.89.9,2.89,5.3,17.07,17.95,21.74,2.35.87,10.67,3.76,20.2-1.55,10.54-5.87,18.59-19.53,19.17-33.69.07-1.71.53-17.85-9.19-25.46-1.36-1.06-6.34-4.82-13.38-3.32-1.41.3-8.82,2.06-13.82,10.53-3.45,5.83-5.95,15.17-2.92,22.2,2.03,4.71,5.78,6.61,7.05,7.26,1.69.86,4.7,2.39,8.44,1.25,4.17-1.27,9.83-6.03,10.4-13.2.41-5.16-1.93-9.98-5.9-12.27"/>
        <path class="cls-7" d="M368.13,362.18c5.9-9.88,7.29-26.73,5.59-36.79-1.65-9.71-6.59-15.45-8.56-17.49-6.67-6.92-14.67-8.24-17.97-8.56-2.05-.2-9.56-.74-19.1,3.46-3.43,1.51-15.94,7.24-24.7,21.88-7.14,11.94-7.61,22.82-7.72,26.27-.1,3.33-.6,19.63,10.88,29.01,2.13,1.74,9.74,7.72,21.55,5.62,13.05-2.32,26.3-13.64,31.97-28.15.68-1.75,6.94-18.35-.44-29.74-1.03-1.59-4.86-7.27-12.72-8.24-1.57-.19-9.9-1.01-18.13,6-5.67,4.83-11.61,13.63-10.97,22.02.42,5.62,3.64,8.94,4.73,10.06,1.45,1.5,4.03,4.16,8.33,4.31,4.79.17,12.37-2.75,15.53-9.99,2.27-5.21,1.56-11.06-1.74-14.86"/>
        <path class="cls-30" d="M364.63,375.31c9.66-8.15,17.14-25.17,18.96-36.22,1.76-10.68-1.32-18.41-2.64-21.24-4.46-9.58-12.3-13.81-15.61-15.32-2.06-.94-9.67-4.19-21.09-3.23-4.11.34-19.15,1.82-33.49,13.9-11.69,9.85-16.07,20.99-17.42,24.54-1.3,3.42-7.65,20.18.92,34.03,1.59,2.57,7.36,11.51,20.38,13.55,14.39,2.25,32.21-4.76,43.29-17.81,1.34-1.57,13.77-16.59,10.18-31.06-.5-2.02-2.45-9.3-10.26-13.11-1.56-.76-9.92-4.59-20.98-.26-7.62,2.99-16.94,10.01-19.28,18.95-1.57,5.99.58,10.59,1.32,12.15.97,2.07,2.7,5.76,7.11,7.46,4.92,1.89,13.83,1.57,19.71-4.83,4.23-4.6,5.58-10.94,3.51-16.06"/>
        <path class="cls-5" d="M356.28,387.7c12.96-5.01,26.81-20.02,32.66-30.85,5.65-10.47,5.21-19.6,4.86-23.01-1.2-11.55-7.84-18.75-10.73-21.51-1.8-1.72-8.55-7.81-20.75-10.91-4.39-1.11-20.55-4.96-39.77,2.46-15.67,6.05-24.21,16.06-26.88,19.26-2.57,3.09-15.17,18.24-11.22,35.69.73,3.24,3.53,14.59,16.33,21.37,14.15,7.49,35.17,6.57,51.35-3.01,1.95-1.16,20.24-12.31,21.69-28.63.2-2.28.78-10.53-5.97-17.3-1.35-1.35-8.67-8.32-21.71-7.78-8.99.38-21.18,4.34-26.81,12.79-3.77,5.66-3.18,11.21-2.98,13.1.27,2.5.74,6.95,4.72,10.29,4.43,3.73,13.81,6.58,22.2,2.03,6.04-3.27,9.71-9.36,9.39-15.43"/>
        <path class="cls-23" d="M343.18,397.6c15.26-.57,35.02-11.2,44.98-20.37,9.62-8.85,12.43-18.5,13.28-22.17,2.88-12.43-1.44-22.28-3.46-26.19-1.26-2.43-6.09-11.17-17.66-18.76-4.16-2.73-19.58-12.51-42.2-11.67-18.45.68-30.9,8.02-34.82,10.4-3.78,2.29-22.28,13.52-24.42,33.07-.4,3.63-1.55,16.42,9.32,28.04,12.02,12.84,34.19,19.41,54.43,15.24,2.44-.5,25.44-5.54,32.78-21.99,1.03-2.3,4.58-10.66-.02-20.11-.92-1.88-6.03-11.75-19.78-15.85-9.47-2.82-23.56-3.07-32.44,3.7-5.94,4.53-7.32,10.51-7.78,12.54-.62,2.7-1.72,7.49,1.22,12.38,3.27,5.46,12,11.78,22.34,10.06,7.44-1.24,13.44-6.26,15.28-12.67"/>
        <path class="cls-27" d="M326.03,403.19c16.06,4.86,40.4.89,54.02-5.07,13.16-5.76,19.53-14.77,21.73-18.28,7.44-11.89,6.48-23.67,5.78-28.44-.44-2.97-2.33-13.79-11.64-25.81-3.35-4.32-15.87-20-39.68-27.22-19.42-5.89-34.98-2.72-39.9-1.65-4.75,1.03-27.99,6.08-37.21,25.62-1.71,3.63-7.49,16.51-.35,32.47,7.89,17.65,28.58,32.4,51.11,35.31,2.71.35,28.41,3.34,41.93-11.12,1.89-2.02,8.58-9.44,7.18-20.9-.28-2.29-2.06-14.36-14.88-23.54-8.83-6.32-23.38-11.62-35.03-7.76-7.8,2.58-11.36,8.3-12.57,10.25-1.61,2.58-4.46,7.17-3.17,13.3,1.45,6.84,8.25,16.53,19.62,18.44,8.17,1.38,16.21-1.69,20.41-7.7"/>
        <path class="cls-22" d="M306.2,402.86c14.95,10.8,41.65,15.37,57.95,14.05,15.74-1.27,25.58-8.36,29.12-11.22,11.98-9.69,15.2-22.28,16.18-27.49.61-3.25,2.52-15.16-2.86-30.98-1.93-5.69-9.33-26.45-31.49-42.48-18.07-13.07-35.37-15.34-40.87-15.99-5.3-.63-31.26-3.7-47.83,13.31-3.08,3.16-13.68,14.47-11.98,33.62,1.89,21.16,18.1,43.89,40.47,54.97,2.69,1.34,28.33,13.64,47.54,3.45,2.68-1.42,12.29-6.74,14.93-19.15.53-2.47,3-15.66-7.04-29.78-6.91-9.73-20.14-20.44-33.62-20.59-9.03-.11-14.78,4.56-16.73,6.15-2.59,2.11-7.2,5.85-8.05,12.69-.94,7.63,2.66,20.13,13.78,26.18,8,4.36,17.44,4.04,23.96-.7"/>
        <path class="cls-2" d="M285.72,395.43c11.67,16.56,37.78,30.88,55.18,35.33,16.81,4.31,29.57.46,34.27-1.24,15.92-5.78,23.76-17.71,26.64-22.77,1.79-3.15,8.04-14.85,8.11-33.21.03-6.61-.23-30.83-17.52-55.4-14.09-20.04-31.27-28.59-36.74-31.23-5.28-2.55-31.15-15.03-54.46-3.28-4.33,2.18-19.4,10.14-24.47,30.64-5.61,22.66,3.11,52.08,22.38,71.6,2.32,2.35,24.56,24.3,48.16,20.59,3.3-.52,15.18-2.61,22.37-14.55,1.43-2.38,8.72-15.2,3.34-33.46-3.7-12.58-13.62-28.44-27.56-33.42-9.34-3.34-16.98-.55-19.58.4-3.45,1.26-9.58,3.5-12.9,10.3-3.71,7.59-4.44,21.86,4.96,32.13,6.76,7.39,16.68,10.44,25.15,7.85"/>
        <path class="cls-29" d="M267.1,380.38c6.19,21.39,28.21,45.6,44.69,56.45,15.92,10.49,30.55,11.06,36.05,10.97,18.61-.31,31.02-9.9,35.83-14.13,2.99-2.64,13.66-12.55,20.31-31.61,2.39-6.85,10.79-32.11,1.62-63.83-7.48-25.87-22.26-40.89-27-45.6-4.58-4.54-26.99-26.76-55.41-22.89-5.28.72-23.78,3.6-36.39,23.08-13.93,21.54-15.4,55.22-2.36,82.4,1.57,3.27,16.82,34.04,42.67,38.63,3.61.64,16.71,2.72,28.45-7.12,2.34-1.96,14.5-12.67,15.44-33.57.65-14.4-3.97-34.42-16.68-44.59-8.51-6.81-17.45-6.64-20.49-6.59-4.03.08-11.2.21-17.09,6.09-6.57,6.55-12.43,21.13-6.35,35.16,4.38,10.09,13.59,16.81,23.32,17.15"/>
        <path class="cls-21" d="M253.14,358.08c-1.21,24.44,13,57.47,26.24,74.65,12.79,16.59,27.79,22.42,33.53,24.3,19.44,6.33,35.78.82,42.28-1.86,4.05-1.67,18.69-8.16,32.41-25.57,4.94-6.27,22.7-29.51,24.52-65.74,1.49-29.55-8.49-50.45-11.74-57.04-3.13-6.35-18.47-37.46-49.38-43.61-5.75-1.14-26-4.77-46.07,10.97-22.18,17.39-35.76,51.87-31.93,84.77.46,3.96,5.3,41.38,30.52,55.41,3.52,1.96,16.38,8.81,32.1,2.78,3.14-1.2,19.6-7.98,28.06-29.36,5.83-14.72,8.19-37.19-1.38-52.3-6.41-10.12-15.76-13.15-18.93-14.17-4.22-1.36-11.72-3.79-19.94.21-9.17,4.46-20.47,17.51-19.17,34.26.94,12.05,8.11,22.33,18.09,26.16"/>
        <path class="cls-4" d="M246.61,329.92c-10,24.96-7.06,64.36.56,86.95,7.35,21.81,20.85,33.24,26.15,37.24,17.93,13.54,36.88,13.65,44.6,13.19,4.81-.28,22.33-1.79,42.82-14.98,7.37-4.74,34.14-22.54,49-59.54,12.12-30.17,9.22-55.46,8.21-63.46-.98-7.72-5.79-45.53-35.71-62.98-5.56-3.24-25.31-14.26-51.79-5.09-29.27,10.13-55.71,41.1-63.51,76.65-.94,4.28-9.3,44.89,11.89,68.49,2.96,3.29,13.87,15.01,32.36,14.37,3.69-.13,23.22-1.28,39.66-20.47,11.33-13.21,21.81-35.71,17.28-54.83-3.03-12.81-11.67-19.3-14.6-21.5-3.9-2.93-10.82-8.13-20.79-6.91-11.12,1.35-27.54,10.86-32.18,28.74-3.34,12.86.43,26.11,9.44,33.66"/>
        <path class="cls-13" d="M249.91,298.32c-19.32,22.35-30.36,64.35-30.53,90.54-.16,25.3,9.77,42,13.85,48.05,13.79,20.48,33.44,27.37,41.62,29.67,5.1,1.43,23.85,6.13,49.85-.24,9.36-2.29,43.54-11.2,72.21-44.33,23.38-27.01,29.43-54.33,31.23-63,1.74-8.37,10.27-49.38-14.57-78.21-4.62-5.36-21.19-23.87-51.99-23.81-34.04.06-72.59,22.77-93.41,56.92-2.51,4.12-25.72,43.32-12.15,75.41,1.9,4.48,9.04,20.56,28.48,26.51,3.88,1.19,24.58,6.97,48.53-7.08,16.49-9.68,35.44-29.3,37.57-50.79,1.43-14.4-5.22-24.22-7.48-27.56-3-4.43-8.33-12.31-19.13-14.62-12.04-2.57-32.5,1.44-43.72,18.35-8.07,12.17-8.89,27.28-2.23,38.35"/>
        <path class="cls-31" d="M264.63,266.66c-28.07,16.31-54.57,56-64.11,83.15-9.22,26.23-4.87,47.14-2.8,54.88,7,26.22,24.95,40.41,32.63,45.71,4.78,3.31,22.58,14.9,51.88,17.58,10.54.96,49.24,3.93,90.89-20.23,33.96-19.7,50.01-45.92,54.99-54.29,4.81-8.08,28.34-47.63,12.84-86.47-2.88-7.22-13.48-32.38-45.5-43.34-35.39-12.12-83.57-2.31-117.42,25.73-4.08,3.38-42.23,35.81-39.6,74.01.37,5.33,2.04,24.6,20.11,37.74,3.6,2.62,23.05,16.04,52.95,10.01,20.6-4.15,47.3-17.77,57.21-39.33,6.64-14.45,3.24-27.04,2.09-31.31-1.53-5.68-4.25-15.78-14.65-22.04-11.59-6.98-34.28-10.13-51.99,3.42-12.74,9.75-19,25.17-16.04,39.05"/>
        <path class="cls-26" d="M291.26,239.04c-35,6.9-76.73,38.66-96.37,63.46-18.96,23.95-21.93,47.23-22.55,56.02-2.1,29.74,11.47,50.91,17.55,59.17,3.79,5.15,18.13,23.56,47.62,36.83,10.61,4.77,49.76,21.71,101.67,11.5,42.34-8.32,68.39-29.82,76.56-36.73,7.88-6.67,46.49-39.36,44.28-85.26-.41-8.53-2.43-38.47-31.77-61.31-32.43-25.25-86-32.3-131.21-15.28-5.45,2.05-56.69,22.1-67.63,62.73-1.53,5.67-6.68,26.29,7.39,46.4,2.81,4.01,18.21,24.91,51.44,29.34,22.89,3.05,55.5-1.54,73.51-20.4,12.06-12.64,13.04-26.93,13.38-31.79.44-6.45,1.23-17.91-7.33-28.14-9.55-11.4-31.99-22.79-55.24-15.04-16.72,5.58-28.74,19.35-30.63,34.83"/>
        <path class="cls-11" d="M328.8,219.87c-38.84-5.35-93.56,12.72-122.83,31.46-28.27,18.1-39.68,41.23-43.47,50.14-12.83,30.15-6.3,57-2.93,67.76,2.1,6.7,10.41,30.97,36.3,55.31,9.31,8.75,43.93,40.35,101.53,48.33,46.97,6.5,81.73-6.51,92.69-10.78,10.58-4.11,62.38-24.26,76.51-72.74,2.63-9.01,11.24-40.84-11.07-75.07-24.67-37.84-77.8-64.33-130.86-62.82-6.39.18-66.8,2.68-92.71,40.98-3.62,5.35-16.35,24.92-8.92,50.86,1.48,5.17,10.01,32.4,42.95,48.89,22.69,11.36,58.22,18.26,83.68,5.11,17.06-8.81,23.19-23.32,25.27-28.24,2.77-6.54,7.68-18.17,2.45-31.86-5.84-15.26-25.09-35.13-52.02-35.39-19.37-.19-36.79,9.82-44.29,25.23"/>
        <path class="cls-3" d="M374.67,213.38c-38.44-19.46-101.76-20.26-138.88-11.26-35.85,8.69-55.98,28.64-63.1,36.55-24.12,26.74-26.94,56.97-27.29,69.36-.22,7.71-.27,35.9,17.93,70.45,6.54,12.43,31.21,57.65,88.2,86.54,46.47,23.56,87.25,22.47,100.17,21.96,12.46-.49,73.5-2.89,105.52-48.21,5.95-8.42,26.29-38.41,15.35-81.96-12.09-48.14-57.82-94.68-113.5-112.09-6.71-2.1-70.37-21.12-110.99,9.41-5.67,4.26-25.9,20.05-27.47,49.65-.31,5.91-1.19,37.24,27.13,66.17,19.51,19.92,53.96,39.8,85.12,35.24,20.87-3.05,32.43-15.93,36.36-20.31,5.22-5.81,14.48-16.13,13.94-32.23-.61-17.95-13.5-45.48-41.39-55.39-20.06-7.13-41.74-2.95-55.05,10.37"/>
        <path class="cls-18" d="M424.66,223.04c-32.98-33.97-98.49-57.45-140.27-61.38-40.36-3.79-68.41,9.74-78.64,15.4-34.62,19.16-48.37,49.56-53.17,62.3-2.99,7.94-13.12,37.21-6.58,79.62,2.35,15.25,11.8,71.06,60.68,121.47,39.86,41.1,82.61,54.56,96.22,58.66,13.12,3.95,77.4,23.29,126.89-12.34,9.2-6.62,41.06-30.5,45.28-79.67,4.66-54.35-26.21-119.07-77.82-157.07-6.22-4.58-65.56-47.12-118.69-29.93-7.42,2.4-34.09,11.56-46.3,41.76-2.44,6.02-14.56,38.27,4.52,78.46,13.15,27.68,41.82,60.66,75.83,67.07,22.78,4.29,39.4-4.95,45.05-8.09,7.5-4.17,20.82-11.58,26.01-28.5,5.79-18.86,2.25-52.08-23.19-72.35-18.29-14.58-42.31-18-60.9-8.92"/>
        <path class="cls-17" d="M473.14,250.97c-22.12-47.09-81.77-94.93-123.79-113.96-40.58-18.38-74.57-14.36-87.22-12.14-42.83,7.52-67.99,34.18-77.53,45.71-5.94,7.18-26.94,33.97-35.32,80.37-3.01,16.69-13.16,78.06,19.59,147.92,26.71,56.97,66.32,86.25,78.99,95.37,12.22,8.8,72.09,51.89,136.25,32.58,11.93-3.59,53.57-17,75.55-66.58,24.29-54.8,15.37-133.09-24.67-191.04-4.82-6.98-51.26-72.41-112.62-73.56-8.57-.16-39.56-.18-63.05,26.83-4.69,5.39-28.82,34.55-23.37,83.13,3.75,33.47,21.75,77.99,54.79,96.82,22.14,12.61,42.71,8.95,49.7,7.71,9.28-1.65,25.78-4.58,37.22-20.3,12.76-17.53,20.97-53.31,1.79-83.47-13.79-21.7-37.52-33.84-60.09-31.06"/>
        <path class="cls-12" d="M513.51,297.33c-6.13-56.84-51-127.89-87.85-162.7-35.59-33.62-72.34-41.6-86.28-43.82-47.19-7.51-82.87,11.19-96.91,19.75-8.74,5.33-40.15,25.65-65.45,70.87-9.1,16.27-41.6,76.4-32.56,160.71,7.37,68.75,38.05,113.34,47.95,127.35,9.55,13.52,56.33,79.71,129.92,82.6,13.68.54,61.75,1.5,102.32-42.15,44.84-48.25,63.58-132.79,42.72-207.32-2.51-8.98-27.36-93.58-90.7-116.72-8.84-3.23-41.03-14.34-75.11,5.32-6.8,3.92-42.31,25.59-54.03,78.02-8.07,36.12-5.3,88.82,22.29,120.2,18.49,21.02,41.17,24.58,48.88,25.79,10.23,1.61,28.42,4.46,45.94-7.78,19.53-13.65,40.86-47.89,31.73-86.09-6.57-27.48-26.88-48.58-51.33-53.77"/>
        <path class="cls-6" d="M538.88,359.95c13.97-61.26-7.24-151.13-33.07-200.48-24.95-47.66-60.28-69.1-73.97-76.4-46.34-24.69-90.11-18.02-107.76-14.15-10.99,2.41-50.89,12.29-93.36,50.22-15.28,13.64-70.56,64.5-91.33,155.33-16.94,74.07-1.02,131.38,4.26,149.48,5.09,17.46,30.02,102.97,105.44,132.3,14.02,5.45,63.62,23.65,121.39-7.19,63.86-34.09,113.57-115.22,118.56-200.13.6-10.23,5.05-107.02-52.48-153.73-8.03-6.52-37.51-29.58-79.95-21.35-8.47,1.64-53.12,11.45-84.05,61.73-21.31,34.64-37.28,90.39-19.84,132.87,11.69,28.46,33.98,40.27,41.56,44.29,10.06,5.33,27.94,14.8,50.52,8.35,25.18-7.19,59.59-35.14,63.77-78.1,3.01-30.9-10.55-60.1-34.09-74.23"/>
        <path class="cls-24" d="M542.83,434.09c36.43-58.65,46.55-159.62,37.37-220.13-8.87-58.45-37.91-93.36-49.53-105.84-39.32-42.23-87.18-50.96-106.91-53.25-12.28-1.43-57.28-5.44-114.97,18.78-20.75,8.71-96.39,41.77-150.46,128.72-44.1,70.9-48.06,136.14-49.05,156.84-.96,19.96-5.65,117.73,62.22,175.19,12.62,10.68,57.64,47.33,128.7,35.96,78.54-12.58,159.22-79.09,194.78-165.53,4.28-10.42,43.54-109.39.47-178.5-6.01-9.65-28.39-44.15-75.43-50.78-9.38-1.32-59.28-7.11-109.42,34.07-34.53,28.37-71.08,80.58-68.15,130.96,1.96,33.75,20.9,54,27.34,60.88,8.55,9.14,23.73,25.38,49.5,26.75,28.73,1.54,74.48-15.2,94.2-58.33,14.18-31.03,10.54-66.21-8.87-89.32"/>
        <path class="cls-8" d="M520.42,512.53c58.83-47.91,105.47-149.2,117.58-215.36,11.69-63.9-5.99-110.57-13.59-127.69-25.74-57.95-72.35-84.14-92.03-93.58-12.25-5.88-57.57-26.14-126.18-21.62-24.68,1.63-115.09,8.92-202.39,79.91-71.18,57.89-98.64,124.26-107.08,145.41-8.14,20.4-47.99,120.3,1.97,204.28,9.29,15.61,42.96,69.8,120.86,83.41,86.11,15.03,193.73-25.21,261.61-102.3,8.18-9.29,84.37-98.08,64.35-185.3-2.8-12.18-13.7-56.03-60.21-79.75-9.28-4.73-59.06-28.59-125.88-3.74-46.03,17.12-102.68,58.3-117.66,111.69-10.04,35.77,2.4,63.59,6.62,73.04,5.61,12.55,15.58,34.86,41.86,45.51,29.3,11.88,82.83,10.86,118.74-26.91,25.83-27.17,34.64-65.03,22.74-95.98"/>
        <path class="cls-28" d="M469.06,586.02c78.27-28.73,162.97-117.28,199.22-181.7,35.01-62.21,33.34-117.03,31.56-137.54-6.02-69.42-45.08-113.31-62.14-130.16-10.63-10.49-50.46-47.76-123.37-67.61-26.23-7.14-122.78-31.91-238.88,10.62-94.67,34.68-146.95,93.82-163.28,112.77-15.75,18.28-92.91,107.83-71.04,212.96,4.07,19.54,19.66,87.9,95.74,129.9,84.09,46.43,210.31,43.12,308.42-12.7,11.82-6.73,122.76-71.72,133.16-169.51,1.45-13.65,5.81-63.12-34.02-104.4-7.95-8.23-51.13-50.84-129.45-48.92-53.95,1.32-127.54,23.84-162.21,73.95-23.23,33.57-20.26,66.93-19.25,78.26,1.34,15.05,3.72,41.79,27.21,62.26,26.2,22.82,82.18,40.92,133,14.52,36.56-18.98,59.26-55.17,57.97-91.59"/>
        <path class="cls-9" d="M389.41,644c91.6-1.85,211.29-63.56,272-117.52,58.64-52.12,76.51-109.67,82-131.62,18.58-74.28-6.3-133.86-18-157.47-7.29-14.7-35.35-67.68-104-114.38-24.7-16.8-116.15-77.08-252-74.43-110.78,2.16-186.25,44.91-210,58.76-22.91,13.36-135.11,78.8-150,195.86-2.77,21.76-11.02,98.36,53,169.22,70.76,78.32,203.1,120.05,325,97.15,14.69-2.76,153.21-30.6,199-128.48,6.39-13.67,28.62-63.5,2-120.65-5.31-11.4-34.94-71.12-117-97.15-56.53-17.93-141.05-20.87-195,18.8-36.14,26.58-44.99,62.29-48,74.43-3.99,16.11-11.09,44.75,6,74.43,19.06,33.09,70.75,71.91,133,62.68,44.78-6.64,81.31-36.12,93-74.43"/>
      </g>
      <circle class="cls-32" cx="22.91" cy="179.5" r="7.5"/>
      <circle class="cls-32" cx="160.91" cy="592.5" r="7.5"/>
      <circle class="cls-32" cx="654.91" cy="569.5" r="7.5"/>
      <circle class="cls-32" cx="36.91" cy="488.5" r="7.5"/>
      <circle class="cls-32" cx="84.41" cy="526" r="5"/>
      <circle class="cls-32" cx="18.41" cy="435" r="5"/>
      <circle class="cls-32" cx="705.41" cy="162" r="5"/>
      <circle class="cls-32" cx="742.41" cy="452" r="5"/>
      <circle class="cls-32" cx="117.41" cy="100" r="5"/>
      <circle class="cls-32" cx="378.41" cy="5" r="5"/>
      <circle class="cls-32" cx="182.41" cy="591" r="5"/>
      <circle class="cls-32" cx="42.41" cy="165" r="5"/>
    </g>
  </g>
</svg>