<?xml version="1.0" encoding="UTF-8"?>
<svg id="Layer_2" xmlns="http://www.w3.org/2000/svg" viewBox="0 0 1047.92 492.04">
  <defs>
    <style>
      .cls-1 {
        stroke-dasharray: 0 4.47;
        stroke-width: 1.88px;
      }

      .cls-1, .cls-2, .cls-3, .cls-4, .cls-5, .cls-6, .cls-7, .cls-8, .cls-9, .cls-10, .cls-11, .cls-12, .cls-13, .cls-14, .cls-15, .cls-16, .cls-17, .cls-18, .cls-19, .cls-20, .cls-21, .cls-22, .cls-23, .cls-24, .cls-25, .cls-26, .cls-27, .cls-28, .cls-29, .cls-30, .cls-31 {
        fill: none;
        stroke-linecap: round;
        stroke-linejoin: round;
      }

      .cls-1, .cls-2, .cls-3, .cls-4, .cls-5, .cls-6, .cls-7, .cls-8, .cls-9, .cls-10, .cls-11, .cls-12, .cls-13, .cls-14, .cls-15, .cls-16, .cls-17, .cls-18, .cls-19, .cls-20, .cls-21, .cls-22, .cls-23, .cls-24, .cls-25, .cls-26, .cls-27, .cls-28, .cls-29, .cls-30, .cls-31, .cls-32 {
        stroke: #8aceca;
      }

      .cls-2 {
        stroke-dasharray: 0 22.22;
        stroke-width: 9.36px;
      }

      .cls-3 {
        stroke-dasharray: 0 2.1;
        stroke-width: .89px;
      }

      .cls-4 {
        stroke-dasharray: 0 3.37;
        stroke-width: 1.42px;
      }

      .cls-5 {
        stroke-dasharray: 0 18.4;
        stroke-width: 7.75px;
      }

      .cls-6 {
        stroke-dasharray: 0 7.17;
        stroke-width: 3.02px;
      }

      .cls-7 {
        stroke-dasharray: 0 15.24;
        stroke-width: 6.42px;
      }

      .cls-8 {
        stroke-dasharray: 0 13.87;
        stroke-width: 5.84px;
      }

      .cls-9 {
        stroke-dasharray: 0 2.79;
        stroke-width: 1.18px;
      }

      .cls-10 {
        stroke-dasharray: 0 11.48;
        stroke-width: 4.84px;
      }

      .cls-11 {
        stroke-dasharray: 0 12.62;
        stroke-width: 5.32px;
      }

      .cls-12 {
        stroke-dasharray: 0 32.4;
        stroke-width: 13.65px;
      }

      .cls-13 {
        stroke-dasharray: 0 29.49;
        stroke-width: 12.42px;
      }

      .cls-14 {
        stroke-dasharray: 0 24.42;
        stroke-width: 10.29px;
      }

      .cls-15 {
        stroke-dasharray: 0 26.83;
        stroke-width: 11.3px;
      }

      .cls-16 {
        stroke-dasharray: 0 3.07;
        stroke-width: 1.29px;
      }

      .cls-17 {
        stroke-dasharray: 0 16.74;
        stroke-width: 7.05px;
      }

      .cls-18 {
        stroke-dasharray: 0 9.51;
        stroke-width: 4.01px;
      }

      .cls-19 {
        stroke-dasharray: 0 2.54;
        stroke-width: 1.07px;
      }

      .cls-20 {
        stroke-dasharray: 0 4.07;
        stroke-width: 1.71px;
      }

      .cls-21 {
        stroke-dasharray: 0 10.45;
        stroke-width: 4.4px;
      }

      .cls-22 {
        stroke-dasharray: 0 3.7;
        stroke-width: 1.56px;
      }

      .cls-23 {
        stroke-dasharray: 0 5.93;
        stroke-width: 2.5px;
      }

      .cls-24 {
        stroke-dasharray: 0 35.61;
        stroke-width: 15px;
      }

      .cls-25 {
        stroke-dasharray: 0 8.65;
        stroke-width: 3.65px;
      }

      .cls-26 {
        stroke-dasharray: 0 20.22;
        stroke-width: 8.52px;
      }

      .cls-27 {
        stroke-dasharray: 0 2.31;
        stroke-width: .97px;
      }

      .cls-28 {
        stroke-dasharray: 0 6.52;
        stroke-width: 2.75px;
      }

      .cls-29 {
        stroke-dasharray: 0 7.87;
        stroke-width: 3.32px;
      }

      .cls-30 {
        stroke-dasharray: 0 4.91;
        stroke-width: 2.07px;
      }

      .cls-31 {
        stroke-dasharray: 0 5.4;
        stroke-width: 2.27px;
      }

      .cls-32 {
        fill: #8aceca;
        stroke-miterlimit: 10;
      }
    </style>
  </defs>
  <g id="low_good">
    <g>
      <g>
        <g>
          <path class="cls-3" d="M527.44,215.55c2.35.57-1.3,9.53,4.13,19.4,3.04,5.52,6.37,6.68,6.47,11.07.09,4.08-2.73,5.39-5.64,10.9-5.49,10.4-2.44,19.03-4.96,19.58-2.45.53-7.83-7.06-8.3-15.29-.34-6.03,2.3-7.33,2.18-14.76-.11-6.91-2.42-7.88-2.42-13.58,0-9.33,6.16-17.88,8.53-17.3Z"/>
          <circle class="cls-3" cx="515.78" cy="246.02" r="5.91"/>
        </g>
        <g>
          <path class="cls-27" d="M529.53,212.78c2.55.76-1.98,10.38,3.42,21.53,3.02,6.23,6.6,7.7,6.46,12.52-.13,4.49-3.31,5.75-6.82,11.63-6.62,11.09-3.77,20.74-6.57,21.2-2.72.44-8.19-8.2-8.23-17.26-.03-6.64,2.94-7.92,3.25-16.08.28-7.59-2.2-8.78-1.88-15.04.53-10.24,7.79-19.27,10.36-18.5Z"/>
          <circle class="cls-27" cx="514.98" cy="245.55" r="6.49"/>
        </g>
        <g>
          <path class="cls-19" d="M531.99,209.86c2.75.98-2.77,11.28,2.52,23.82,2.95,7.01,6.8,8.83,6.37,14.11-.4,4.92-3.96,6.12-8.15,12.37-7.91,11.79-5.33,22.54-8.43,22.88-3.01.33-8.52-9.47-8.03-19.42.35-7.29,3.69-8.52,4.49-17.45.75-8.31-1.91-9.77-1.19-16.62,1.17-11.21,9.65-20.7,12.43-19.7Z"/>
          <circle class="cls-19" cx="514.14" cy="244.99" r="7.13"/>
        </g>
        <g>
          <path class="cls-9" d="M534.85,206.81c2.96,1.24-3.69,12.22,1.39,26.28,2.84,7.86,6.96,10.08,6.18,15.85-.72,5.37-4.7,6.49-9.65,13.11-9.35,12.49-7.14,24.43-10.57,24.63-3.33.19-8.8-10.89-7.7-21.77.81-7.98,4.53-9.14,5.93-18.9,1.3-9.08-1.54-10.83-.35-18.3,1.93-12.23,11.78-22.16,14.78-20.91Z"/>
          <circle class="cls-9" cx="513.24" cy="244.32" r="7.84"/>
        </g>
        <g>
          <path class="cls-16" d="M538.17,203.61c3.18,1.53-4.75,13.2.01,28.92,2.66,8.79,7.05,11.46,5.87,17.75-1.1,5.85-5.53,6.86-11.35,13.83-10.98,13.17-9.24,26.4-13.01,26.42-3.66.02-9.03-12.45-7.2-24.33,1.35-8.71,5.5-9.76,7.59-20.4,1.95-9.89-1.06-11.97.66-20.11,2.82-13.31,14.21-23.64,17.42-22.09Z"/>
          <circle class="cls-16" cx="512.29" cy="243.54" r="8.61"/>
        </g>
        <g>
          <path class="cls-4" d="M541.99,200.3c3.4,1.86-5.97,14.21-1.65,31.74,2.42,9.8,7.08,12.98,5.42,19.82-1.55,6.36-6.46,7.21-13.25,14.53-12.81,13.82-11.66,28.44-15.8,28.24-4.02-.19-9.2-14.18-6.5-27.12,1.98-9.48,6.6-10.4,9.51-21.95,2.7-10.74-.48-13.2,1.89-22.03,3.86-14.44,16.95-25.12,20.38-23.24Z"/>
          <circle class="cls-4" cx="511.3" cy="242.63" r="9.46"/>
        </g>
        <g>
          <path class="cls-22" d="M546.37,196.88c3.63,2.24-7.37,15.25-3.63,34.74,2.09,10.9,7.02,14.66,4.8,22.06-2.06,6.89-7.51,7.54-15.37,15.18-14.85,14.42-14.43,30.54-18.96,30.09-4.4-.44-9.28-16.09-5.57-30.13,2.72-10.29,7.84-11.03,11.69-23.54,3.58-11.63.24-14.51,3.34-24.06,5.07-15.63,20.04-26.6,23.71-24.33Z"/>
          <circle class="cls-22" cx="510.26" cy="241.57" r="10.4"/>
        </g>
        <g>
          <path class="cls-20" d="M551.38,193.39c3.85,2.67-8.96,16.31-5.98,37.91,1.66,12.08,6.86,16.49,4,24.49-2.66,7.44-8.67,7.84-17.74,15.77-17.13,14.98-17.59,32.68-22.54,31.93-4.8-.74-9.25-18.2-4.38-33.39,3.57-11.14,9.24-11.66,14.19-25.16,4.6-12.56,1.09-15.91,5.05-26.22,6.46-16.86,23.53-28.03,27.42-25.34Z"/>
          <circle class="cls-20" cx="509.18" cy="240.35" r="11.43"/>
        </g>
        <g>
          <path class="cls-1" d="M557.08,189.84c4.07,3.15-10.77,17.38-8.75,41.26,1.13,13.35,6.58,18.49,2.98,27.1-3.35,8.01-9.96,8.1-20.38,16.29-19.66,15.45-21.19,34.86-26.57,33.74-5.23-1.08-9.11-20.5-2.89-36.89,4.56-12.02,10.81-12.26,17.01-26.79,5.77-13.52,2.11-17.4,7.04-28.48,8.06-18.13,27.43-29.41,31.54-26.23Z"/>
          <circle class="cls-1" cx="508.07" cy="238.95" r="12.56"/>
        </g>
        <g>
          <path class="cls-30" d="M563.54,186.27c4.29,3.69-12.82,18.46-11.97,44.78.47,14.71,6.16,20.67,1.72,29.91-4.14,8.6-11.4,8.32-23.3,16.7-22.46,15.82-25.26,37.03-31.1,35.5-5.67-1.49-8.82-23.02-1.05-40.65,5.7-12.92,12.57-12.83,20.21-28.42,7.11-14.5,3.32-18.97,9.37-30.85,9.89-19.43,31.79-30.7,36.12-26.97Z"/>
          <circle class="cls-30" cx="506.93" cy="237.34" r="13.8"/>
        </g>
        <g>
          <path class="cls-31" d="M570.83,182.73c4.49,4.29-15.13,19.52-15.71,48.45-.33,16.17,5.57,23.04.16,32.93-5.03,9.2-12.99,8.47-26.53,16.99-25.56,16.07-29.84,39.19-36.17,37.17-6.14-1.96-8.35-25.77,1.19-44.67,6.99-13.85,14.53-13.36,23.81-30.03,8.64-15.51,4.73-20.63,12.05-33.31,11.97-20.75,36.65-31.86,41.19-27.52Z"/>
          <circle class="cls-31" cx="505.77" cy="235.52" r="15.16"/>
        </g>
        <g>
          <path class="cls-23" d="M579.03,179.26c4.68,4.97-17.73,20.55-20.03,52.26-1.29,17.73,4.79,25.6-1.71,36.14-6.05,9.81-14.74,8.55-30.09,17.12-28.97,16.17-35.01,41.29-41.83,38.71-6.62-2.51-7.68-28.76,3.87-48.95,8.47-14.8,16.71-13.83,27.86-31.58,10.37-16.52,6.38-22.36,15.14-35.87,14.33-22.09,42.06-32.85,46.79-27.83Z"/>
          <circle class="cls-23" cx="504.6" cy="233.45" r="16.66"/>
        </g>
        <g>
          <path class="cls-28" d="M588.24,175.92c4.86,5.72-20.64,21.53-24.99,56.2-2.43,19.38,3.79,28.37-3.96,39.56-7.21,10.42-16.67,8.54-34.01,17.05-32.72,16.08-40.79,43.29-48.13,40.07-7.13-3.13-6.78-32,7.06-53.49,10.15-15.76,19.13-14.21,32.39-33.06,12.33-17.53,8.29-24.17,18.68-38.49,17-23.41,48.04-33.63,52.95-27.85Z"/>
          <circle class="cls-28" cx="503.44" cy="231.11" r="18.31"/>
        </g>
        <g>
          <path class="cls-6" d="M598.53,172.79c5,6.56-23.88,22.44-30.65,60.24-3.78,21.13,2.52,31.35-6.62,43.19-8.51,11.02-18.78,8.41-38.3,16.76-36.84,15.76-47.25,45.17-55.12,41.21-7.64-3.85-5.6-35.51,10.83-58.3,12.04-16.71,21.81-14.49,37.45-34.41,14.54-18.53,10.49-26.05,22.72-41.16,20-24.71,54.66-34.15,59.7-27.52Z"/>
          <circle class="cls-6" cx="502.3" cy="228.48" r="20.12"/>
        </g>
        <g>
          <path class="cls-29" d="M610,169.95c5.11,7.49-27.5,23.25-37.1,64.34-5.37,22.97.97,34.55-9.75,47.02-9.97,11.6-21.1,8.15-42.99,16.19-41.33,15.18-54.45,46.85-62.86,42.05-8.16-4.66-4.1-39.29,15.23-63.35,14.18-17.64,24.77-14.65,43.07-35.61,17.03-19.5,13.01-27.99,27.3-43.86,23.37-25.97,61.94-34.33,67.1-26.77Z"/>
          <circle class="cls-29" cx="501.19" cy="225.52" r="22.11"/>
        </g>
        <g>
          <path class="cls-25" d="M622.76,167.49c5.18,8.51-31.52,23.94-44.42,68.48-7.21,24.9-.93,37.97-13.4,51.03-11.61,12.16-23.62,7.73-48.11,15.29-46.23,14.28-62.45,48.28-71.4,42.53-8.69-5.58-2.24-43.35,20.36-68.65,16.57-18.54,28.03-14.65,49.32-36.6,19.81-20.42,15.88-29.96,32.48-46.57,27.14-27.16,69.95-34.11,75.18-25.52Z"/>
          <circle class="cls-25" cx="500.16" cy="222.22" r="24.3"/>
        </g>
        <g>
          <path class="cls-18" d="M636.9,165.52c5.19,9.64-35.96,24.45-52.68,72.59-9.35,26.91-3.2,41.61-17.64,55.23-13.44,12.67-26.37,7.12-53.68,14.02-51.55,13.01-71.31,49.39-80.8,42.56-9.22-6.63.03-47.7,26.29-74.16,19.25-19.4,31.6-14.47,56.22-37.33,22.91-21.27,19.15-31.97,38.32-49.23,31.34-28.24,78.72-33.41,83.97-23.68Z"/>
          <circle class="cls-18" cx="499.21" cy="218.53" r="26.7"/>
        </g>
        <g>
          <path class="cls-21" d="M652.53,164.18c5.14,10.87-40.87,24.77-61.99,76.63-11.81,29-5.9,45.48-22.54,59.6-15.48,13.13-29.34,6.3-59.71,12.29-57.32,11.31-81.09,50.1-91.11,42.06-9.73-7.8,2.78-52.35,33.12-79.87,22.24-20.18,35.51-14.06,63.85-37.73,26.36-22.02,22.86-33.98,44.88-51.83,36.02-29.19,88.31-32.14,93.51-21.16Z"/>
          <circle class="cls-21" cx="498.38" cy="214.43" r="29.35"/>
        </g>
        <g>
          <path class="cls-10" d="M669.75,163.6c5.02,12.23-46.28,24.83-72.43,80.53-14.62,31.14-9.09,49.57-28.16,64.11-17.74,13.52-32.56,5.23-66.24,10.06-63.55,9.12-91.87,50.31-102.41,40.92-10.23-9.12,6.06-57.29,40.94-85.75,25.57-20.87,39.78-13.39,72.24-37.73,30.2-22.65,27.04-35.97,52.23-54.29,41.21-29.96,98.76-30.19,103.83-17.84Z"/>
          <circle class="cls-10" cx="497.7" cy="209.88" r="32.25"/>
        </g>
        <g>
          <path class="cls-11" d="M688.69,163.96c4.8,13.71-52.21,24.59-84.12,84.21-17.84,33.33-12.83,53.88-34.59,68.73-20.24,13.82-36.04,3.86-73.26,7.23-70.27,6.35-103.71,49.93-114.73,39.02-10.7-10.6,9.95-62.52,49.86-91.74,29.26-21.43,44.42-12.41,81.44-37.25,34.44-23.12,31.74-37.92,60.44-56.58,46.95-30.51,110.12-27.45,114.97-13.6Z"/>
          <circle class="cls-11" cx="497.22" cy="204.85" r="35.44"/>
        </g>
        <g>
          <path class="cls-8" d="M709.46,165.44c4.48,15.32-58.71,23.98-97.16,87.57-21.49,35.55-17.18,58.39-41.91,73.44-23.01,14-39.77,2.17-80.82,3.72-77.48,2.93-116.69,48.83-128.15,36.22-11.13-12.25,14.51-68.03,59.99-97.81,33.34-21.83,49.46-11.06,91.52-36.2,39.12-23.39,37.01-39.79,69.58-58.61,53.27-30.78,122.42-23.79,126.95-8.32Z"/>
          <circle class="cls-8" cx="496.99" cy="199.31" r="38.94"/>
        </g>
        <g>
          <path class="cls-7" d="M732.16,168.26c4.04,17.07-65.81,22.94-111.65,90.51-25.63,37.78-22.21,63.08-50.22,78.18-26.06,14.04-43.77.09-88.9-.57-85.19-1.24-130.86,46.87-142.72,32.37-11.52-14.08,19.84-73.82,71.46-103.89,37.84-22.04,54.91-9.29,102.51-34.46,44.28-23.42,42.91-41.54,79.73-60.32,60.23-30.71,135.71-19.06,139.79-1.83Z"/>
          <circle class="cls-7" cx="497.04" cy="193.21" r="42.79"/>
        </g>
        <g>
          <path class="cls-17" d="M756.91,172.66c3.45,18.96-73.54,21.39-127.73,92.9-30.3,39.98-28,67.95-59.61,82.9-29.4,13.91-48.03-2.42-97.53-5.74-93.42-6.26-146.3,43.91-158.48,27.32-11.83-16.11,26.01-79.87,84.39-109.9,42.8-22.01,60.8-7.04,114.48-31.92,49.94-23.15,49.47-43.12,90.97-61.61,67.86-30.24,150.03-13.11,153.51,6.03Z"/>
          <circle class="cls-17" cx="497.46" cy="186.51" r="47.03"/>
        </g>
        <g>
          <path class="cls-5" d="M783.82,178.92c2.69,21.01-81.93,19.24-145.52,94.61-35.55,42.14-34.64,72.96-70.18,87.55-33.06,13.57-52.57-5.42-106.7-11.91-102.15-12.25-163.07,39.77-175.48,20.87-12.05-18.36,33.14-86.16,98.93-115.75,48.23-21.69,67.12-4.23,127.46-28.45,56.13-22.53,56.77-44.47,103.37-62.37,76.21-29.28,165.39-5.76,168.11,15.45Z"/>
          <circle class="cls-5" cx="498.3" cy="179.19" r="51.68"/>
        </g>
        <g>
          <path class="cls-26" d="M812.98,187.33c1.75,23.21-91.02,16.4-165.13,95.45-41.44,44.2-42.21,78.07-82.05,92.04-37.07,13-57.38-8.97-116.4-19.2-111.4-19.32-181.25,34.27-193.78,12.81-12.17-20.85,41.32-92.64,115.22-121.33,54.18-21.03,73.9-.78,141.51-23.89,62.9-21.5,64.86-45.54,117.02-62.5,85.32-27.75,181.83,3.19,183.6,26.62Z"/>
          <circle class="cls-26" cx="499.65" cy="171.21" r="56.79"/>
        </g>
        <g>
          <path class="cls-2" d="M844.51,198.23c.58,25.57-100.82,12.76-186.7,95.25-48.01,46.12-50.81,83.25-95.33,96.29-41.42,12.13-62.46-13.14-126.64-27.77-121.14-27.6-200.87,27.18-213.38,2.91-12.16-23.58,50.68-99.29,133.42-126.52,60.66-19.96,81.15,3.4,156.67-18.08,70.26-19.98,73.8-46.24,132.01-61.86,95.22-25.55,199.36,13.96,199.95,39.78Z"/>
          <circle class="cls-2" cx="501.58" cy="162.53" r="62.4"/>
        </g>
        <g>
          <path class="cls-14" d="M878.48,212.01c-.83,28.09-111.38,8.21-210.37,93.79-55.34,47.85-60.54,88.43-110.16,100.18-46.16,10.93-67.78-18.01-137.37-37.75-131.35-37.26-222,18.28-234.33-9.08-11.98-26.57,61.32-106.04,153.7-131.17,67.72-18.42,88.85,8.39,172.97-10.83,78.25-17.88,83.64-46.5,148.43-60.29,105.97-22.56,217.97,26.78,217.14,55.15Z"/>
          <circle class="cls-14" cx="504.2" cy="153.11" r="68.57"/>
        </g>
        <g>
          <path class="cls-15" d="M914.96,229.09c-2.53,30.78-122.7,2.6-236.25,90.83-63.48,49.32-71.53,93.57-126.65,103.6-51.28,9.34-73.35-23.67-148.58-49.33-142-48.44-244.67,7.29-256.64-23.44-11.62-29.85,73.39-112.85,176.21-135.11,75.37-16.32,97.03,14.32,190.44-1.93,86.9-15.12,94.46-46.22,166.35-57.63,117.59-18.66,237.66,41.92,235.11,73.01Z"/>
          <circle class="cls-15" cx="507.62" cy="142.92" r="75.36"/>
        </g>
        <g>
          <path class="cls-13" d="M954.02,249.93c-4.54,33.64-134.8-4.2-264.48,86.08-72.5,50.48-83.87,98.56-144.94,106.41-56.81,7.3-79.13-30.19-160.21-62.68-153.04-61.33-268.92-6.07-280.28-40.48-11.04-33.42,87.03-119.62,201.14-138.13,83.65-13.57,105.65,21.3,209.09,8.83,96.24-11.6,106.32-45.29,185.87-53.67,130.11-13.72,258.4,59.68,253.81,93.64Z"/>
          <circle class="cls-13" cx="511.96" cy="131.94" r="82.81"/>
        </g>
        <g>
          <path class="cls-12" d="M995.68,275.04c-6.92,36.65-147.69-12.36-295.19,79.26-82.47,51.22-97.71,103.34-165.18,108.44-62.76,4.74-85.1-37.68-172.21-78-164.42-76.1-294.76-22.13-305.25-60.55-10.19-37.31,102.39-126.26,228.68-140.01,92.58-10.08,114.72,29.45,228.95,21.72,106.27-7.19,119.28-43.58,207.06-48.21,143.57-7.57,280.13,80.35,273.15,117.36Z"/>
          <circle class="cls-12" cx="517.35" cy="120.14" r="91"/>
        </g>
        <g>
          <path class="cls-24" d="M1039.95,305c-9.7,39.82-161.36-22.06-328.5,70-93.45,51.47-113.17,107.79-187.5,109.5-69.15,1.59-91.22-46.24-184.5-95.5C163.39,296.03,17.26,347.77,7.95,305c-9.04-41.53,119.62-132.67,259-140.5,102.18-5.74,124.2,38.91,250,37,117.04-1.78,133.41-40.97,230-41,157.99-.05,302.8,104.29,293,144.5Z"/>
          <circle class="cls-24" cx="523.95" cy="107.5" r="100"/>
        </g>
      </g>
      <circle class="cls-32" cx="405.45" cy="155" r="7.5"/>
      <circle class="cls-32" cx="384.45" cy="88" r="7.5"/>
      <circle class="cls-32" cx="437.45" cy="18" r="7.5"/>
      <circle class="cls-32" cx="670.45" cy="119" r="7.5"/>
      <circle class="cls-32" cx="628.45" cy="31" r="7.5"/>
      <circle class="cls-32" cx="94.45" cy="185" r="7.5"/>
      <circle class="cls-32" cx="179.45" cy="165" r="7.5"/>
      <circle class="cls-32" cx="819.45" cy="138" r="7.5"/>
      <circle class="cls-32" cx="936.45" cy="185" r="7.5"/>
      <circle class="cls-32" cx="888.95" cy="146.5" r="5"/>
      <circle class="cls-32" cx="752.95" cy="102.5" r="5"/>
      <circle class="cls-32" cx="650.95" cy="86.5" r="5"/>
      <circle class="cls-32" cx="403.95" cy="122.5" r="5"/>
      <circle class="cls-32" cx="410.95" cy="66.5" r="5"/>
      <circle class="cls-32" cx="217.95" cy="136.5" r="5"/>
    </g>
  </g>
</svg>