<?xml version="1.0" encoding="UTF-8"?>
<svg id="Layer_2" xmlns="http://www.w3.org/2000/svg" viewBox="0 0 1032.5 992.65">
  <defs>
    <style>
      .cls-1 {
        stroke-dasharray: 0 23.51;
        stroke-width: 7.05px;
      }

      .cls-1, .cls-2, .cls-3, .cls-4, .cls-5, .cls-6, .cls-7, .cls-8, .cls-9, .cls-10, .cls-11, .cls-12, .cls-13, .cls-14, .cls-15, .cls-16, .cls-17, .cls-18, .cls-19, .cls-20, .cls-21, .cls-22, .cls-23, .cls-24, .cls-25, .cls-26, .cls-27, .cls-28, .cls-29, .cls-30, .cls-31 {
        fill: none;
        stroke: #ee472c;
        stroke-linecap: round;
        stroke-linejoin: round;
      }

      .cls-2 {
        stroke-dasharray: 0 41.4;
        stroke-width: 12.42px;
      }

      .cls-3 {
        stroke-dasharray: 0 3.57;
        stroke-width: 1.07px;
      }

      .cls-4 {
        stroke-dasharray: 0 13.35;
        stroke-width: 4.01px;
      }

      .cls-5 {
        stroke-dasharray: 0 12.15;
        stroke-width: 3.65px;
      }

      .cls-6 {
        stroke-dasharray: 0 25.84;
        stroke-width: 7.75px;
      }

      .cls-7 {
        stroke-dasharray: 0 31.2;
        stroke-width: 9.36px;
      }

      .cls-8 {
        stroke-dasharray: 0 37.68;
        stroke-width: 11.3px;
      }

      .cls-9 {
        stroke-dasharray: 0 19.47;
        stroke-width: 5.84px;
      }

      .cls-10 {
        stroke-dasharray: 0 3.24;
        stroke-width: .97px;
      }

      .cls-11 {
        stroke-dasharray: 0 21.4;
        stroke-width: 6.42px;
      }

      .cls-32 {
        fill: #ee472c;
      }

      .cls-12 {
        stroke-dasharray: 0 4.73;
        stroke-width: 1.42px;
      }

      .cls-13 {
        stroke-dasharray: 0 6.9;
        stroke-width: 2.07px;
      }

      .cls-14 {
        stroke-dasharray: 0 6.28;
        stroke-width: 1.88px;
      }

      .cls-15 {
        stroke-dasharray: 0 34.29;
        stroke-width: 10.29px;
      }

      .cls-16 {
        stroke-dasharray: 0 45.5;
        stroke-width: 13.65px;
      }

      .cls-17 {
        stroke-dasharray: 0 8.33;
        stroke-width: 2.5px;
      }

      .cls-18 {
        stroke-dasharray: 0 10.06;
        stroke-width: 3.02px;
      }

      .cls-19 {
        stroke-dasharray: 0 3.92;
        stroke-width: 1.18px;
      }

      .cls-20 {
        stroke-dasharray: 0 11.06;
        stroke-width: 3.32px;
      }

      .cls-21 {
        stroke-dasharray: 0 17.72;
        stroke-width: 5.32px;
      }

      .cls-22 {
        stroke-dasharray: 0 9.16;
        stroke-width: 2.75px;
      }

      .cls-23 {
        stroke-dasharray: 0 4.31;
        stroke-width: 1.29px;
      }

      .cls-24 {
        stroke-dasharray: 0 2.95;
        stroke-width: .89px;
      }

      .cls-25 {
        stroke-dasharray: 0 16.12;
        stroke-width: 4.84px;
      }

      .cls-26 {
        stroke-dasharray: 0 5.71;
        stroke-width: 1.71px;
      }

      .cls-27 {
        stroke-dasharray: 0 50;
        stroke-width: 15px;
      }

      .cls-28 {
        stroke-dasharray: 0 7.58;
        stroke-width: 2.27px;
      }

      .cls-29 {
        stroke-dasharray: 0 5.2;
        stroke-width: 1.56px;
      }

      .cls-30 {
        stroke-dasharray: 0 14.67;
        stroke-width: 4.4px;
      }

      .cls-31 {
        stroke-dasharray: 0 28.39;
        stroke-width: 8.52px;
      }
    </style>
  </defs>
  <g id="high_bad">
    <g>
      <g>
        <path class="cls-24" d="M550.46,676.19c.3-.13,7.46-3.14,13.73,1.44,5.82,4.24,5.65,11.21,5.62,11.76.23.16.69.42,1.33.52.47.07.96.04,1.42-.11l22.39-6.91c.93-.29,1.68-.98,2.04-1.89l8.56-21.81c.36-.91.28-1.93-.21-2.77l-11.72-20.29c-.49-.84-1.33-1.42-2.3-1.57-1.09.81-5.27,3.71-11.13,3.26-7.32-.57-11.42-5.92-12.04-6.75-.28-.04-.8-.08-1.42.11-.45.14-.88.38-1.23.71l-17.18,15.94c-.71.66-1.09,1.62-1.02,2.59l1.75,23.36c.07.97.58,1.86,1.39,2.41Z"/>
        <path class="cls-10" d="M551.28,681.19c.28-.22,7.12-5.33,15.03-2.12,7.33,2.98,9,10.45,9.12,11.05.29.11.85.27,1.55.2.52-.05,1.03-.21,1.49-.49l22.04-13.32c.92-.55,1.53-1.5,1.67-2.56l3.33-25.53c.14-1.06-.21-2.13-.96-2.9l-17.89-18.52c-.74-.77-1.8-1.16-2.86-1.06-.95,1.16-4.63,5.36-11,6.43-7.95,1.34-13.75-3.27-14.63-4-.31.03-.88.12-1.49.49-.45.27-.83.64-1.13,1.09l-14.08,21.56c-.59.9-.73,2.01-.39,3.03l8.08,24.45c.34,1.02,1.12,1.83,2.12,2.2Z"/>
        <path class="cls-3" d="M553.48,686.3c.24-.31,6.18-7.58,15.46-6.26,8.61,1.23,12.38,8.75,12.67,9.35.34.04.97.06,1.71-.2.54-.19,1.04-.5,1.46-.92l19.96-20.06c.83-.83,1.24-2,1.1-3.17l-3.24-28.11c-.13-1.17-.79-2.21-1.79-2.84l-23.99-14.99c-1-.62-2.23-.76-3.34-.37-.71,1.49-3.51,6.95-10.02,9.78-8.12,3.54-15.54.17-16.66-.37-.32.11-.9.37-1.46.92-.4.41-.72.9-.91,1.46l-9.28,26.73c-.39,1.11-.24,2.34.38,3.33l15.11,23.92c.63,1,1.68,1.65,2.85,1.78Z"/>
        <path class="cls-19" d="M557.19,691.16c.18-.4,4.57-9.72,14.82-10.78,9.51-.98,15.52,6.04,15.99,6.61.37-.05,1.06-.19,1.77-.66.53-.35.98-.81,1.31-1.37l15.95-26.69c.66-1.11.79-2.46.33-3.67l-10.92-29.11c-.45-1.21-1.44-2.15-2.67-2.55l-29.57-9.61c-1.23-.4-2.58-.22-3.66.5-.36,1.77-1.9,8.34-8.08,13.09-7.72,5.94-16.52,4.31-17.87,4.03-.31.2-.87.63-1.31,1.37-.32.54-.53,1.15-.58,1.8l-2.79,30.97c-.12,1.29.36,2.56,1.3,3.45l22.47,21.49c.93.89,2.23,1.31,3.51,1.14Z"/>
        <path class="cls-23" d="M562.44,695.36c.08-.47,2.29-11.58,12.94-15.43,9.88-3.57,18.16,2.31,18.81,2.79.38-.15,1.07-.49,1.71-1.18.47-.51.82-1.13,1.03-1.81l9.91-32.7c.41-1.36.18-2.83-.62-4l-19.39-28.13c-.81-1.17-2.1-1.91-3.52-2.01l-34.08-2.38c-1.42-.1-2.8.45-3.77,1.5.09,1.99.19,9.4-5.14,16.11-6.65,8.38-16.47,8.98-17.98,9.05-.28.3-.76.9-1.03,1.81-.2.66-.25,1.37-.15,2.07l5.26,33.76c.22,1.4,1.07,2.63,2.3,3.34l29.67,16.94c1.23.7,2.72.81,4.04.28Z"/>
        <path class="cls-12" d="M569.15,698.44c-.03-.52-.63-12.96,9.69-19.89,9.58-6.43,19.98-2.36,20.79-2.02.36-.26,1.02-.8,1.51-1.71.36-.67.58-1.42.62-2.2l1.87-37.5c.08-1.56-.56-3.07-1.73-4.1l-28.15-24.84c-1.17-1.03-2.75-1.48-4.29-1.21l-36.98,6.52c-1.54.27-2.87,1.23-3.62,2.6.62,2.09,2.7,9.97-1.19,18.54-4.87,10.71-15.17,13.96-16.76,14.43-.21.39-.57,1.16-.62,2.2-.04.76.09,1.53.4,2.25l14.58,34.6c.61,1.44,1.84,2.52,3.34,2.95l36.14,10.17c1.5.42,3.12.14,4.39-.77Z"/>
        <path class="cls-29" d="M577.12,699.95c-.18-.55-4.12-13.65,5.04-23.79,8.5-9.41,20.67-7.83,21.64-7.69.32-.38.87-1.13,1.16-2.23.21-.81.24-1.67.08-2.51l-7.97-40.48c-.33-1.68-1.41-3.13-2.94-3.92l-36.62-19.01c-1.52-.79-3.32-.84-4.89-.15l-37.69,16.78c-1.57.7-2.73,2.07-3.16,3.73,1.22,2.07,5.53,9.91,3.66,20.09-2.34,12.71-12.47,18.92-14.04,19.84-.12.48-.3,1.39-.08,2.51.16.82.51,1.61,1.02,2.29l24.75,33.01c1.03,1.37,2.63,2.2,4.34,2.25l41.24,1.23c1.72.05,3.36-.68,4.47-1.99Z"/>
        <path class="cls-26" d="M586.03,699.43c-.33-.54-8.02-13.46-.95-26.71,6.57-12.29,19.96-13.84,21.03-13.95.24-.49.63-1.43.64-2.68,0-.92-.19-1.84-.59-2.7l-19.26-41.04c-.8-1.71-2.34-2.96-4.17-3.4l-44.1-10.53c-1.83-.44-3.77-.02-5.26,1.14l-35.73,27.91c-1.49,1.16-2.36,2.94-2.38,4.82,1.85,1.88,8.54,9.1,9.24,20.45.88,14.17-8.27,23.49-9.69,24.89,0,.54.06,1.56.59,2.7.39.83.97,1.58,1.7,2.17l35.16,28.62c1.46,1.19,3.39,1.65,5.23,1.25l44.3-9.65c1.84-.4,3.4-1.62,4.24-3.31Z"/>
        <path class="cls-14" d="M595.38,696.51c-.5-.48-12.13-12.22-8.11-28.22,3.73-14.85,17.61-20.07,18.71-20.46.13-.58.29-1.69-.03-3.03-.23-.98-.69-1.91-1.34-2.72l-31.45-38.64c-1.31-1.61-3.28-2.53-5.35-2.51l-49.82.5c-2.07.02-4.02.98-5.3,2.62l-30.67,39.26c-1.28,1.63-1.74,3.76-1.26,5.78,2.47,1.51,11.52,7.43,15.29,19.34,4.71,14.88-2.57,27.24-3.72,29.12.14.58.47,1.65,1.34,2.72.64.78,1.45,1.43,2.39,1.87l45.1,21.17c1.88.88,4.05.86,5.91-.06l44.67-22.06c1.86-.92,3.2-2.63,3.64-4.66Z"/>
        <path class="cls-13" d="M604.58,690.91c-.66-.38-16.19-9.8-16.15-27.94.03-16.83,13.44-26.08,14.51-26.79-.02-.65-.14-1.88-.84-3.22-.51-.99-1.24-1.86-2.15-2.54l-43.81-32.84c-1.82-1.37-4.17-1.83-6.37-1.26l-52.99,13.77c-2.2.57-4.03,2.12-4.95,4.2l-22.27,50.02c-.93,2.08-.85,4.47.19,6.49,3.04.95,14.26,4.86,21.44,16.56,8.97,14.61,4.5,29.73,3.78,32.03.3.58.95,1.64,2.15,2.54.89.67,1.93,1.13,3.04,1.35l53.72,10.58c2.23.44,4.55-.16,6.29-1.63l41.77-35.4c1.74-1.47,2.71-3.66,2.64-5.93Z"/>
        <path class="cls-28" d="M612.9,682.49c-.81-.23-19.86-6.15-24.65-25.5-4.44-17.95,7.4-31.38,8.35-32.42-.19-.69-.65-1.97-1.75-3.21-.81-.92-1.82-1.65-2.97-2.14l-55.44-23.37c-2.31-.97-4.93-.84-7.13.36l-52.84,28.78c-2.2,1.2-3.73,3.33-4.17,5.8l-10.45,59.25c-.43,2.47.28,4.99,1.93,6.87,3.49.21,16.5,1.4,27.27,11.96,13.45,13.19,12.7,30.5,12.54,33.15.48.54,1.44,1.49,2.97,2.14,1.12.47,2.35.7,3.6.64l60.09-3c2.5-.12,4.81-1.38,6.27-3.41l35.12-48.85c1.46-2.03,1.92-4.62,1.24-7.03Z"/>
        <path class="cls-17" d="M619.54,671.31c-.92-.04-22.81-1.27-33.06-20.63-9.51-17.96-.46-35.42.29-36.79-.39-.69-1.22-1.93-2.72-2.96-1.1-.76-2.38-1.28-3.74-1.49l-65.33-10.18c-2.72-.42-5.48.41-7.51,2.27l-48.69,44.73c-2.03,1.86-3.09,4.54-2.9,7.29l4.61,65.96c.19,2.74,1.62,5.25,3.89,6.81,3.78-.71,17.96-2.9,32.25,5.5,17.85,10.49,21.65,29.14,22.19,32.02.65.45,1.93,1.21,3.74,1.49,1.33.21,2.7.12,4.01-.28l63.28-19.17c2.63-.8,4.76-2.75,5.78-5.31l24.46-61.43c1.02-2.56.82-5.44-.55-7.82Z"/>
        <path class="cls-22" d="M623.64,657.62c-.99.21-24.67,4.71-40.73-13.21-14.91-16.63-9.9-37.65-9.48-39.3-.6-.63-1.81-1.73-3.69-2.44-1.38-.52-2.88-.73-4.38-.59l-72.36,6.51c-3.01.27-5.73,1.9-7.4,4.42l-40.03,60.64c-1.67,2.52-2.09,5.67-1.16,8.54l22.45,69.1c.93,2.87,3.13,5.17,5.96,6.23,3.84-1.76,18.38-7.86,35.85-2.71,21.82,6.44,30.84,25.32,32.17,28.24.81.31,2.38.77,4.38.59,1.47-.13,2.91-.59,4.2-1.37l62.37-37.27c2.59-1.55,4.34-4.2,4.75-7.19l9.75-72c.41-3-.57-6.01-2.66-8.2Z"/>
        <path class="cls-18" d="M624.37,641.93c-1,.48-25.05,11.58-46.94-3.26-20.32-13.76-20.57-37.51-20.55-39.39-.81-.51-2.39-1.36-4.58-1.62-1.61-.19-3.26-.01-4.83.53l-75.43,26.18c-3.14,1.09-5.61,3.55-6.71,6.68l-26.56,75.3c-1.1,3.13-.72,6.6,1.04,9.41l42.31,67.71c1.76,2.82,4.71,4.68,8.01,5.06,3.63-2.9,17.51-13.27,37.51-12.42,24.98,1.06,39.61,18.8,41.81,21.56.95.11,2.75.19,4.83-.53,1.53-.53,2.94-1.4,4.12-2.57l56.6-56.32c2.35-2.34,3.51-5.63,3.15-8.93l-8.74-79.36c-.36-3.3-2.21-6.26-5.02-8.03Z"/>
        <path class="cls-20" d="M620.98,625.01c-.94.78-23.63,19-50.92,9.01-25.32-9.27-31.9-34.53-32.39-36.54-1-.33-2.91-.82-5.31-.51-1.76.23-3.48.85-5.01,1.85l-73.46,47.97c-3.06,2-5.04,5.27-5.38,8.91l-8.3,87.35c-.35,3.63.98,7.23,3.61,9.76l63.11,60.95c2.63,2.54,6.26,3.74,9.88,3.27,3.1-4.05,15.14-18.81,36.69-23.21,26.92-5.51,47.23,9.51,50.31,11.87,1.04-.14,2.98-.53,5.01-1.85,1.49-.97,2.76-2.28,3.71-3.84l45.38-75.09c1.89-3.12,2.25-6.94.98-10.36l-30.42-82.3c-1.27-3.42-4.02-6.08-7.49-7.23Z"/>
        <path class="cls-5" d="M612.87,607.86c-.79,1.08-20.14,26.54-51.9,23.14-29.47-3.16-43.19-28.33-44.25-30.35-1.15-.09-3.32-.1-5.8.87-1.82.71-3.48,1.83-4.85,3.3l-65.58,70.68c-2.73,2.94-3.97,6.96-3.37,10.93l14.37,95.34c.6,3.97,2.97,7.44,6.44,9.45l83.5,48.21c3.47,2.01,7.67,2.32,11.41.85,2.23-5.15,11.14-24.08,32.95-34.51,27.24-13.03,52.89-2.41,56.8-.72,1.07-.42,3.04-1.35,4.85-3.3,1.33-1.43,2.34-3.16,2.93-5.08l28.42-92.13c1.18-3.83.55-8-1.7-11.31l-54.31-79.66c-2.26-3.31-5.91-5.42-9.91-5.72Z"/>
        <path class="cls-4" d="M599.66,591.74c-.56,1.37-14.42,33.66-49.19,38.47-32.26,4.47-53.59-18.73-55.25-20.59-1.25.21-3.57.78-5.95,2.47-1.75,1.25-3.23,2.88-4.29,4.81l-51.14,92.8c-2.13,3.86-2.38,8.48-.69,12.55l40.67,97.84c1.69,4.07,5.15,7.15,9.38,8.36l101.85,29.2c4.24,1.21,8.8.43,12.39-2.12,1.01-6.08,5.48-28.64,25.96-45.55,25.58-21.13,55.75-16.63,60.37-15.86,1.03-.73,2.88-2.25,4.29-4.81,1.04-1.88,1.66-4,1.78-6.2l5.81-105.79c.24-4.4-1.53-8.67-4.82-11.61l-79.09-70.5c-3.29-2.93-7.74-4.21-12.08-3.46Z"/>
        <path class="cls-30" d="M581.29,578.06c-.23,1.61-6.43,39.72-42.22,54.1-33.21,13.34-62.12-5.72-64.38-7.27-1.27.56-3.6,1.78-5.69,4.22-1.54,1.79-2.67,3.93-3.29,6.27l-29.85,112.54c-1.24,4.68-.28,9.67,2.6,13.56l69.37,93.51c2.89,3.89,7.39,6.25,12.23,6.42l116.36,4.06c4.84.17,9.5-1.88,12.65-5.55-.54-6.75-1.77-31.99,15.57-55.48,21.66-29.33,55.02-32.56,60.15-32.97.91-1.06,2.47-3.17,3.29-6.27.61-2.28.7-4.7.25-7.08l-21.93-114.35c-.91-4.76-3.94-8.84-8.23-11.09l-103.07-54.15c-4.29-2.25-9.37-2.43-13.8-.48Z"/>
        <path class="cls-25" d="M558.07,568.36c.18,1.77,3.7,44.06-30.64,68.91-31.86,23.05-67.75,10.41-70.58,9.36-1.21.94-3.37,2.86-4.94,6.01-1.16,2.32-1.81,4.9-1.85,7.56l-1.91,127.93c-.08,5.32,2.27,10.39,6.38,13.77l98.83,81.26c4.11,3.38,9.54,4.71,14.75,3.6l125.15-26.6c5.21-1.11,9.63-4.52,12.01-9.28-2.37-7.05-10.39-33.64,1.86-63.29,15.3-37.04,50.02-49.34,55.38-51.14.68-1.37,1.79-4.03,1.85-7.56.04-2.6-.5-5.2-1.62-7.61l-53.78-116.09c-2.24-4.83-6.55-8.38-11.72-9.64l-124.3-30.33c-5.17-1.26-10.64-.1-14.85,3.16Z"/>
        <path class="cls-21" d="M530.72,564.19c.66,1.84,15.66,46-14.35,81.62-27.85,33.05-69.48,29.12-72.77,28.75-1.04,1.32-2.83,3.94-3.67,7.73-.62,2.78-.62,5.71.04,8.55l31.97,136.92c1.33,5.7,5.18,10.48,10.46,12.99l126.98,60.37c5.28,2.51,11.42,2.48,16.68-.08l126.37-61.64c5.26-2.56,9.06-7.38,10.33-13.09-4.41-6.89-20.02-33.11-14.85-67.98,6.46-43.56,40.21-65.91,45.45-69.25.37-1.64.84-4.78-.04-8.55-.65-2.78-1.91-5.41-3.75-7.69l-88.21-109.49c-3.67-4.55-9.21-7.19-15.06-7.16l-140.6.7c-5.85.03-11.37,2.72-14.99,7.31Z"/>
        <path class="cls-9" d="M500.46,567.02c1.2,1.79,28.93,44.88,6.4,90.84-20.9,42.64-66.34,49.51-69.95,50-.76,1.68-1.97,4.95-1.86,9.21.08,3.13.85,6.25,2.32,9.11l70.49,137.49c2.93,5.72,8.31,9.79,14.61,11.07l151.44,30.61c6.3,1.27,12.84-.39,17.76-4.52l118.36-99.31c4.92-4.13,7.7-10.28,7.54-16.71-6.53-6.17-30.15-29.98-33.9-68.54-4.69-48.16,25.35-80.97,30.05-85.92-.05-1.85-.37-5.32-2.32-9.11-1.43-2.79-3.48-5.26-6.04-7.2l-123.16-93.29c-5.12-3.88-11.74-5.22-17.97-3.63l-149.73,38.13c-6.23,1.59-11.4,5.92-14.04,11.78Z"/>
        <path class="cls-11" d="M468.95,578.07c1.75,1.59,42.78,40.17,30.97,95.16-10.95,51.03-57.57,70.43-61.29,71.9-.36,2-.78,5.8.46,10.32.92,3.32,2.57,6.44,4.9,9.1l111.71,127.86c4.65,5.32,11.46,8.23,18.52,7.92l169.62-7.62c7.06-.32,13.58-3.83,17.74-9.54l99.8-137.36c4.15-5.71,5.48-13.01,3.6-19.82-8.6-4.85-40.12-23.95-54.37-64.06-17.8-50.11,5.51-93.07,9.2-99.6-.54-1.96-1.81-5.57-4.89-9.1-2.27-2.59-5.11-4.68-8.36-6.07l-156.12-66.73c-6.5-2.78-13.9-2.44-20.12.9l-149.51,80.46c-6.22,3.35-10.58,9.34-11.84,16.29Z"/>
        <path class="cls-1" d="M438.28,598.23c2.29,1.23,56.29,31.45,58.32,93.23,1.89,57.32-42.66,90.4-46.24,92.96.14,2.23.71,6.4,3.24,10.88,1.86,3.3,4.45,6.18,7.64,8.4l153.1,106.64c6.37,4.44,14.41,5.73,21.85,3.52l178.83-53.21c7.44-2.21,13.47-7.7,16.37-14.89l69.89-172.99c2.91-7.2,2.38-15.33-1.43-22.09-10.46-2.88-49.14-14.87-75-53.85-32.3-48.69-18.87-100.7-16.67-108.65-1.1-1.94-3.41-5.46-7.64-8.4-3.11-2.16-6.69-3.64-10.52-4.25l-184.21-29.65c-7.66-1.23-15.47,1.09-21.21,6.31l-138.03,125.54c-5.74,5.22-8.79,12.78-8.29,20.52Z"/>
        <path class="cls-6" d="M410.95,627.89c2.77.7,68.38,18.57,86.97,83.9,17.25,60.62-21.46,107.73-24.59,111.41.75,2.33,2.46,6.63,6.34,10.74,2.86,3.02,6.39,5.41,10.38,6.92l191.6,73c7.97,3.04,16.89,2.28,24.24-2.06l176.53-104.28c7.34-4.34,12.31-11.79,13.5-20.23l28.53-203.04c1.19-8.45-1.54-16.97-7.4-23.17-11.92-.29-56.35-2.79-94.29-37.48-47.39-43.33-46.89-102.36-46.66-111.42-1.69-1.78-5.09-4.91-10.38-6.92-3.89-1.48-8.1-2.1-12.35-1.74l-204.3,17.36c-8.5.72-16.21,5.28-20.94,12.37l-113.8,170.55c-4.73,7.1-5.98,15.96-3.39,24.09Z"/>
        <path class="cls-31" d="M389.68,666.77c3.14.01,77.85,1.63,115.04,66.34,34.51,60.05,5.76,120.58,3.4,125.33,1.42,2.29,4.38,6.42,9.62,9.77,3.85,2.46,8.25,4.06,12.9,4.62l223.7,26.9c9.31,1.12,18.62-2.06,25.29-8.64l160.51-158.12c6.68-6.58,10-15.84,9.02-25.16l-23.55-224.08c-.98-9.32-6.15-17.69-14.05-22.74-12.79,2.86-60.83,12-110.5-14.9-62.05-33.61-77.21-96.68-79.37-106.4-2.27-1.45-6.73-3.88-12.9-4.62-4.54-.55-9.2-.08-13.63,1.43l-213.22,72.82c-8.87,3.03-15.88,9.93-19.04,18.76l-76,212.1c-3.16,8.82-2.13,18.61,2.79,26.58Z"/>
        <path class="cls-7" d="M377.35,713.89c3.35-.82,83.44-18.96,140.3,40.15,52.76,54.85,38.2,127.03,36.95,132.73,2.12,2.07,6.38,5.68,12.85,7.85,4.76,1.6,9.88,2.14,14.99,1.5l245.67-30.79c10.22-1.28,19.3-7.15,24.67-15.94l129.1-211.27c5.37-8.79,6.45-19.55,2.92-29.23l-84.68-232.66c-3.52-9.68-11.26-17.23-21.03-20.51-12.88,6.45-61.67,28.97-121.78,13.49-75.09-19.34-108.02-82.56-112.92-92.34-2.81-.94-8.21-2.35-14.99-1.5-4.98.62-9.83,2.36-14.16,5.15l-207.98,134.33c-8.65,5.59-14.29,14.81-15.32,25.06l-24.65,246.36c-1.03,10.25,2.67,20.41,10.05,27.6Z"/>
        <path class="cls-15" d="M376.72,767.4c3.36-1.77,83.93-42.4,160.26,5.51,70.83,44.46,74.5,125.3,74.68,131.7,2.81,1.64,8.31,4.36,15.79,4.96,5.5.44,11.1-.34,16.38-2.39l253.76-98.14c10.56-4.08,18.68-12.75,22.07-23.55l81.49-259.59c3.39-10.8,1.68-22.56-4.65-31.94l-152.15-225.56c-6.33-9.38-16.59-15.38-27.87-16.28-12.01,10.3-58.05,47.28-126.27,46.76-85.21-.66-137.13-59.31-144.95-68.44-3.24-.26-9.38-.32-16.38,2.39-5.15,1.99-9.85,5.13-13.72,9.26l-186.05,198.52c-7.74,8.26-11.3,19.59-9.67,30.79l39.21,269.24c1.63,11.2,8.27,21.05,18.05,26.76Z"/>
        <path class="cls-8" d="M390.28,824.63c3.11-2.78,78.22-67.52,172.35-36.73,87.35,28.57,112.75,113.79,114.64,120.57,3.43,1,10.02,2.44,18.16,1.09,5.98-.99,11.75-3.32,16.83-6.9l244.49-172.1c10.17-7.16,16.53-18.56,17.27-30.98l17.88-298.45c.74-12.42-4.21-24.5-13.45-32.82l-222.19-200.06c-9.24-8.32-21.77-11.98-34.05-9.95-10.07,14.18-49.33,65.85-122.2,83.42-91.03,21.95-161.98-26.78-172.75-34.45-3.53.59-10.09,2.15-16.83,6.9-4.96,3.49-9.14,8.09-12.17,13.52l-145.6,261.14c-6.06,10.86-6.84,23.9-2.12,35.41l113.38,276.66c4.72,11.51,14.42,20.24,26.36,23.73Z"/>
        <path class="cls-2" d="M419.95,882.04c2.58-3.79,65.45-92.79,174-84.98,100.73,7.25,150.47,91.36,154.29,98.08,3.92.16,11.33-.06,19.65-3.67,6.12-2.65,11.64-6.66,16.11-11.83l214.94-248.5c8.94-10.34,12.69-24.19,10.18-37.62l-60.28-322.98c-2.51-13.44-11-25-23.07-31.42l-290.1-154.25c-12.07-6.42-26.4-6.99-38.95-1.55-6.97,17.79-35.09,83.33-108.12,121.44-91.22,47.61-179.83,14.51-193.35,9.2-3.6,1.56-10.18,4.97-16.11,11.83-4.36,5.04-7.6,11.05-9.38,17.65l-85.83,317.15c-3.57,13.19-.94,27.3,7.15,38.32l194.45,264.84c8.09,11.02,20.76,17.75,34.41,18.3Z"/>
        <path class="cls-16" d="M466.85,935.38c1.74-4.72,45.12-116.34,162.94-136.87,109.33-19.05,184.73,57.41,190.59,63.56,4.23-.88,12.07-3.08,19.98-9.13,5.82-4.45,10.64-10.2,14.04-16.9l163.11-322.11c6.79-13.4,7.1-29.16.85-42.82l-150.14-328.36c-6.25-13.66-18.37-23.73-32.95-27.37L484.95,28.03c-14.57-3.63-30.01-.43-41.94,8.7-2.7,20.83-15.26,98.17-83,158.23-84.61,75.02-187.89,63.28-203.72,61.21-3.43,2.62-9.54,8.01-14.04,16.9-3.31,6.53-5.16,13.8-5.31,21.31l-7.2,360.98c-.3,15.02,6.26,29.36,17.81,38.95l277.74,230.7c11.55,9.6,26.85,13.41,41.56,10.36Z"/>
        <path class="cls-27" d="M531.03,979.77c.6-5.5,17.18-136.04,137.35-189.26,111.51-49.38,212.23,12.1,220.12,17.11,4.27-2.06,12.05-6.49,18.87-15.05,5.02-6.29,8.64-13.7,10.47-21.75l88.29-386.82c3.67-16.09-.18-32.98-10.47-45.89L748.29,27.92c-10.29-12.91-25.9-20.42-42.41-20.42h-396.76c-16.51,0-32.11,7.52-42.41,20.42,2.66,22.92,9.83,108.74-46.44,190.78-70.28,102.48-183.52,117.42-200.94,119.42-2.96,3.71-8.04,11.08-10.47,21.75-1.79,7.85-1.84,16.09,0,24.14l88.29,386.82c3.67,16.09,14.47,29.64,29.35,36.8l357.47,172.15c14.87,7.16,32.2,7.16,47.07,0Z"/>
      </g>
      <circle class="cls-32" cx="415" cy="972.5" r="7.5"/>
      <circle class="cls-32" cx="565" cy="962.5" r="5"/>
      <circle class="cls-32" cx="302" cy="950.5" r="7.5"/>
      <circle class="cls-32" cx="258" cy="914.5" r="7.5"/>
      <circle class="cls-32" cx="205" cy="911.5" r="7.5"/>
      <circle class="cls-32" cx="195" cy="964.5" r="7.5"/>
      <circle class="cls-32" cx="937" cy="204.5" r="7.5"/>
      <circle class="cls-32" cx="989" cy="248.5" r="7.5"/>
      <circle class="cls-32" cx="984" cy="199.5" r="7.5"/>
      <circle class="cls-32" cx="939" cy="153.5" r="7.5"/>
      <circle class="cls-32" cx="1016" cy="227.5" r="7.5"/>
      <circle class="cls-32" cx="1002" cy="138.5" r="7.5"/>
      <circle class="cls-32" cx="969.58" cy="174.12" r="5"/>
      <circle class="cls-32" cx="1013.49" cy="97.03" r="5"/>
      <circle class="cls-32" cx="1020.33" cy="260.97" r="5"/>
      <circle class="cls-32" cx="978.36" cy="224.87" r="5"/>
      <circle class="cls-32" cx="1027.5" cy="180" r="5"/>
      <circle class="cls-32" cx="218.5" cy="942" r="5"/>
      <circle class="cls-32" cx="333.5" cy="931" r="5"/>
      <circle class="cls-32" cx="231.5" cy="917" r="5"/>
      <circle class="cls-32" cx="296.5" cy="924" r="5"/>
      <circle class="cls-32" cx="262.5" cy="942" r="5"/>
      <circle class="cls-32" cx="225.5" cy="884" r="5"/>
      <circle class="cls-32" cx="161.5" cy="931" r="5"/>
      <circle class="cls-32" cx="910.05" cy="170.22" r="5"/>
      <circle class="cls-32" cx="972.51" cy="145.82" r="5"/>
      <circle class="cls-32" cx="895.42" cy="131.18" r="5"/>
    </g>
  </g>
</svg>