<?xml version="1.0" encoding="UTF-8"?>
<svg id="Layer_2" xmlns="http://www.w3.org/2000/svg" viewBox="0 0 1043.49 1097.24">
  <defs>
    <style>
      .cls-1 {
        stroke-dasharray: 0 41.4;
        stroke-width: 8.28px;
      }

      .cls-1, .cls-2, .cls-3, .cls-4, .cls-5, .cls-6, .cls-7, .cls-8, .cls-9, .cls-10, .cls-11, .cls-12, .cls-13, .cls-14, .cls-15, .cls-16, .cls-17, .cls-18, .cls-19, .cls-20, .cls-21, .cls-22, .cls-23, .cls-24, .cls-25, .cls-26, .cls-27, .cls-28, .cls-29, .cls-30, .cls-31 {
        fill: none;
        stroke: #ee472c;
        stroke-linecap: round;
        stroke-linejoin: round;
      }

      .cls-2 {
        stroke-dasharray: 0 23.51;
        stroke-width: 4.7px;
      }

      .cls-3 {
        stroke-dasharray: 0 3.57;
        stroke-width: .71px;
      }

      .cls-4 {
        stroke-dasharray: 0 13.35;
        stroke-width: 2.67px;
      }

      .cls-5 {
        stroke-dasharray: 0 25.84;
        stroke-width: 5.17px;
      }

      .cls-6 {
        stroke-dasharray: 0 12.15;
        stroke-width: 2.43px;
      }

      .cls-7 {
        stroke-dasharray: 0 31.2;
        stroke-width: 6.24px;
      }

      .cls-8 {
        stroke-dasharray: 0 11.06;
        stroke-width: 2.21px;
      }

      .cls-9 {
        stroke-dasharray: 0 3.24;
        stroke-width: .65px;
      }

      .cls-10 {
        stroke-dasharray: 0 37.68;
        stroke-width: 7.54px;
      }

      .cls-11 {
        stroke-dasharray: 0 21.4;
        stroke-width: 4.28px;
      }

      .cls-12 {
        stroke-dasharray: 0 19.47;
        stroke-width: 3.89px;
      }

      .cls-32 {
        fill: #ee472c;
      }

      .cls-13 {
        stroke-dasharray: 0 4.73;
        stroke-width: .95px;
      }

      .cls-14 {
        stroke-dasharray: 0 34.29;
        stroke-width: 6.86px;
      }

      .cls-15 {
        stroke-dasharray: 0 5.71;
        stroke-width: 1.14px;
      }

      .cls-16 {
        stroke-dasharray: 0 6.9;
        stroke-width: 1.38px;
      }

      .cls-17 {
        stroke-dasharray: 0 3.92;
        stroke-width: .78px;
      }

      .cls-18 {
        stroke-dasharray: 0 45.5;
        stroke-width: 9.1px;
      }

      .cls-19 {
        stroke-dasharray: 0 16.12;
        stroke-width: 3.22px;
      }

      .cls-20 {
        stroke-dasharray: 0 17.72;
        stroke-width: 3.54px;
      }

      .cls-21 {
        stroke-dasharray: 0 2.95;
        stroke-width: .59px;
      }

      .cls-22 {
        stroke-dasharray: 0 4.31;
        stroke-width: .86px;
      }

      .cls-23 {
        stroke-dasharray: 0 6.28;
        stroke-width: 1.26px;
      }

      .cls-24 {
        stroke-dasharray: 0 7.58;
        stroke-width: 1.52px;
      }

      .cls-25 {
        stroke-dasharray: 0 10.06;
        stroke-width: 2.01px;
      }

      .cls-26 {
        stroke-dasharray: 0 50;
        stroke-width: 10px;
      }

      .cls-27 {
        stroke-dasharray: 0 8.33;
        stroke-width: 1.67px;
      }

      .cls-28 {
        stroke-dasharray: 0 5.2;
        stroke-width: 1.04px;
      }

      .cls-29 {
        stroke-dasharray: 0 9.16;
        stroke-width: 1.83px;
      }

      .cls-30 {
        stroke-dasharray: 0 14.67;
        stroke-width: 2.93px;
      }

      .cls-31 {
        stroke-dasharray: 0 28.39;
        stroke-width: 5.68px;
      }
    </style>
  </defs>
  <g id="high_bad">
    <g>
      <g>
        <path class="cls-21" d="M623.78,655.64l27.82-26.89c.44-.42.41-1.13-.06-1.52-4.37-.7-15.04-3.01-24.77-11.85-8-7.27-11.51-15.46-12.98-19.63-.07-.06-.22-.17-.45-.22-.16-.03-.33-.03-.5.02l-22.18,6.6c-.4.12-.69.47-.73.89.95.96,6.29,6.57,6,15.19-.34,10.02-8,15.61-8.89,16.24-.04.39.15.76.48.97.31.19.72.22,1.08,0l26.01-16.41c.39-.24.88-.2,1.23.1l12.76,11.32c.3.26.41.67.3,1.06l-6.83,23.12c-.3,1.01.94,1.76,1.69,1.03Z"/>
        <path class="cls-9" d="M620.81,660.76l33.94-25.6c.53-.4.6-1.18.14-1.67-4.67-1.35-16-5.3-25.43-16.25-7.76-9-10.49-18.4-11.53-23.15-.07-.07-.22-.22-.46-.3-.17-.06-.36-.07-.55-.04l-25.07,4.23c-.45.08-.81.42-.91.87.91,1.18,5.98,8.01,4.51,17.38-1.71,10.88-10.82,15.96-11.87,16.52-.09.42.06.85.4,1.12.31.25.76.34,1.18.14l30.57-14.42c.45-.21.99-.1,1.32.27l12.4,14.06c.29.33.36.79.19,1.19l-10.54,24.3c-.46,1.06.79,2.04,1.71,1.35Z"/>
        <path class="cls-3" d="M616.89,665.93l40.45-23.37c.64-.37.81-1.21.38-1.8-4.91-2.09-16.74-7.92-25.56-21.13-7.25-10.86-8.97-21.47-9.47-26.79-.06-.09-.21-.26-.46-.38-.18-.09-.38-.13-.59-.12l-27.91,1.26c-.5.02-.94.35-1.11.83.83,1.41,5.45,9.54,2.59,19.56-3.33,11.64-13.94,15.95-15.16,16.43-.15.44-.04.94.29,1.27.31.31.78.47,1.27.31l35.27-11.63c.52-.17,1.1.02,1.41.47l11.64,16.99c.27.4.29.91.05,1.32l-14.75,25.09c-.64,1.09.58,2.33,1.68,1.7Z"/>
        <path class="cls-17" d="M611.92,671.06l47.25-20.08c.74-.32,1.05-1.21.65-1.91-5.08-2.94-17.2-10.88-25.05-26.46-6.46-12.82-6.91-24.62-6.74-30.49-.06-.11-.19-.32-.45-.48-.19-.12-.4-.19-.63-.21l-30.61-2.37c-.55-.04-1.08.26-1.32.75.72,1.65,4.67,11.14.21,21.68-5.19,12.25-17.34,15.53-18.74,15.89-.23.46-.17,1.02.14,1.43.29.38.79.62,1.34.51l40.03-7.97c.59-.12,1.19.17,1.47.71l10.43,20.1c.24.47.19,1.03-.13,1.45l-19.45,25.39c-.85,1.11.32,2.62,1.61,2.08Z"/>
        <path class="cls-22" d="M605.81,675.98l54.23-15.57c.85-.24,1.3-1.18.97-2-5.14-3.89-17.3-14.17-23.78-32.22-5.33-14.84-4.24-27.78-3.27-34.16-.05-.12-.17-.37-.43-.59-.19-.15-.41-.26-.66-.31l-33.07-6.68c-.6-.12-1.21.13-1.54.64.56,1.89,3.6,12.77-2.68,23.67-7.3,12.67-20.99,14.62-22.57,14.82-.31.47-.33,1.09-.04,1.58.27.46.78.78,1.4.73l44.72-3.33c.66-.05,1.28.35,1.51.97l8.68,23.31c.2.54.07,1.15-.33,1.57l-24.62,25.09c-1.07,1.09,0,2.9,1.48,2.48Z"/>
        <path class="cls-13" d="M598.49,680.53l61.23-9.72c.96-.15,1.58-1.11,1.33-2.05-5.09-4.93-16.97-17.77-21.62-38.33-3.82-16.9-.91-30.87,1.01-37.7-.04-.14-.14-.43-.39-.7-.18-.19-.41-.34-.67-.43l-35.18-11.72c-.64-.21-1.34-.02-1.77.5.36,2.14,2.22,14.41-6.09,25.46-9.66,12.84-24.86,13.14-26.6,13.14-.4.48-.5,1.14-.25,1.71.23.54.75.95,1.43.98l49.23,2.36c.73.03,1.35.55,1.52,1.26l6.34,26.59c.15.62-.08,1.27-.57,1.66l-30.21,24.07c-1.32,1.05-.39,3.17,1.28,2.9Z"/>
        <path class="cls-28" d="M589.9,684.51l68.09-2.4c1.07-.04,1.87-1,1.72-2.06-4.89-6.06-16.13-21.66-18.45-44.7-1.9-18.95,3.15-33.79,6.15-40.98-.02-.16-.09-.48-.33-.81-.17-.24-.4-.43-.68-.56l-36.8-17.49c-.67-.32-1.46-.2-2,.3.11,2.38.49,16.02-10.05,26.95-12.25,12.71-28.87,11-30.77,10.77-.5.46-.7,1.18-.5,1.83.18.62.69,1.14,1.42,1.26l53.38,9.17c.79.14,1.4.78,1.49,1.57l3.36,29.85c.08.69-.25,1.37-.85,1.74l-36.18,22.21c-1.58.97-.84,3.4,1.01,3.34Z"/>
        <path class="cls-15" d="M579.99,687.7l74.58,6.5c1.17.1,2.18-.84,2.15-2.01-4.52-7.26-14.69-25.78-14.13-51.22.46-20.92,7.96-36.43,12.2-43.88,0-.18-.03-.54-.25-.93-.16-.28-.38-.52-.66-.7l-37.79-24.01c-.68-.43-1.56-.41-2.22.06-.2,2.61-1.61,17.53-14.57,28.05-15.07,12.23-32.96,8.13-35,7.63-.61.44-.92,1.19-.8,1.93.12.7.6,1.33,1.38,1.57l56.99,17.15c.84.25,1.42,1.03,1.41,1.92l-.33,33.01c0,.77-.46,1.46-1.16,1.78l-42.43,19.38c-1.85.85-1.38,3.6.65,3.77Z"/>
        <path class="cls-23" d="M568.75,689.86l80.48,17.08c1.27.27,2.48-.62,2.62-1.91-3.96-8.53-12.58-30.09-8.56-57.76,3.3-22.76,13.56-38.67,19.18-46.22.02-.19.03-.59-.15-1.05-.13-.33-.35-.62-.63-.85l-38.01-31.24c-.69-.56-1.65-.65-2.43-.23-.57,2.82-4.11,18.91-19.65,28.64-18.07,11.32-37.04,4.45-39.2,3.63-.73.4-1.16,1.18-1.13,2,.03.78.47,1.53,1.3,1.9l59.86,26.33c.89.39,1.41,1.32,1.28,2.28l-4.79,35.96c-.11.84-.7,1.53-1.5,1.79l-48.88,15.45c-2.13.67-1.98,3.74.2,4.2Z"/>
        <path class="cls-16" d="M556.21,690.71l85.49,29.4c1.34.46,2.79-.34,3.11-1.73-3.18-9.83-9.69-34.5-1.6-64.15,6.65-24.38,19.97-40.37,27.11-47.85.05-.21.12-.64-.03-1.16-.1-.37-.3-.72-.57-1.01l-37.27-39.17c-.67-.71-1.71-.93-2.62-.57-1,3-7.01,20.07-25.27,28.61-21.22,9.92-41-.1-43.24-1.29-.84.34-1.43,1.13-1.5,2.03-.07.85.31,1.74,1.16,2.24l61.77,36.74c.91.54,1.36,1.63,1.09,2.66l-10.04,38.58c-.23.9-.96,1.58-1.88,1.75l-55.38,10.31c-2.42.45-2.66,3.81-.34,4.61Z"/>
        <path class="cls-24" d="M542.42,689.95l89.31,43.52c1.4.68,3.09,0,3.62-1.47-2.15-11.15-5.94-38.93,6.85-70.18,10.52-25.7,27.18-41.35,35.97-48.56.08-.22.21-.69.13-1.27-.06-.42-.23-.83-.49-1.18l-35.41-47.71c-.64-.86-1.74-1.25-2.78-.98-1.49,3.14-10.34,20.95-31.4,27.82-24.48,7.98-44.7-5.6-46.99-7.2-.97.25-1.71,1.04-1.91,2.02-.19.92.1,1.93.97,2.6l62.45,48.34c.92.72,1.27,1.96.83,3.04l-16.11,40.74c-.37.95-1.26,1.59-2.28,1.66l-61.79,3.83c-2.69.17-3.42,3.8-.99,4.98Z"/>
        <path class="cls-27" d="M527.48,687.28l91.58,59.43c1.44.93,3.37.41,4.15-1.12-.85-12.45-1.27-43.25,16.87-75.63,14.92-26.62,35.19-41.46,45.74-48.14.12-.23.33-.72.31-1.37-.01-.47-.14-.94-.38-1.36l-32.23-56.78c-.58-1.03-1.73-1.59-2.9-1.44-2.05,3.22-14.08,21.47-37.97,26.14-27.77,5.43-48.01-12.1-50.29-14.14-1.09.15-2,.9-2.35,1.94-.33.98-.14,2.12.71,2.97l61.64,61.09c.91.9,1.12,2.3.5,3.43l-23.03,42.28c-.54.98-1.59,1.57-2.71,1.5l-67.9-4.1c-2.96-.18-4.23,3.69-1.75,5.3Z"/>
        <path class="cls-29" d="M511.53,682.36l91.93,77.08c1.45,1.21,3.62.9,4.67-.66.74-13.69,4.41-47.35,28.53-80.23,19.84-27.04,43.93-40.51,56.34-46.38.16-.23.45-.74.52-1.46.05-.51-.02-1.04-.23-1.53l-27.55-66.25c-.5-1.2-1.67-1.97-2.97-1.95-2.67,3.24-18.23,21.53-44.91,23.43-31.01,2.2-50.74-19.62-52.96-22.16-1.21.02-2.3.72-2.82,1.81-.49,1.02-.44,2.3.37,3.33l59.05,74.89c.87,1.11.91,2.66.09,3.81l-30.78,43.03c-.72,1-1.95,1.5-3.16,1.27l-73.51-13.56c-3.21-.59-5.11,3.46-2.61,5.55Z"/>
        <path class="cls-25" d="M494.81,674.87l89.95,96.39c1.41,1.52,3.83,1.47,5.19-.1,2.64-14.84,11.15-51.05,41.86-83.69,25.26-26.84,53.34-38.3,67.66-43.05.2-.23.59-.75.76-1.52.12-.55.11-1.14-.04-1.7l-21.17-75.95c-.38-1.37-1.56-2.37-2.98-2.53-3.34,3.18-22.77,21.04-52.12,19.54-34.12-1.75-52.72-28.2-54.79-31.27-1.32-.14-2.61.47-3.32,1.59-.67,1.05-.79,2.45-.04,3.68l54.38,89.59c.81,1.33.64,3.03-.41,4.17l-39.34,42.81c-.91,1-2.32,1.37-3.61.97l-78.37-24.64c-3.42-1.07-6.04,3.09-3.59,5.7Z"/>
        <path class="cls-8" d="M477.56,664.45l85.2,117.18c1.34,1.84,3.98,2.12,5.67.59,4.86-15.83,19-54.19,56.87-85.67,31.14-25.89,63.31-34.64,79.56-37.89.25-.23.75-.74,1.04-1.55.21-.59.28-1.22.18-1.86l-12.92-85.67c-.23-1.55-1.39-2.8-2.91-3.16-4.07,3.02-27.66,19.9-59.47,14.33-36.98-6.48-53.72-37.82-55.58-41.44-1.42-.33-2.91.17-3.84,1.29-.87,1.05-1.19,2.56-.54,4.01l47.31,105c.7,1.55.29,3.39-1.01,4.49l-48.64,41.42c-1.13.96-2.72,1.19-4.07.57l-82.17-37.37c-3.58-1.63-7,2.56-4.68,5.74Z"/>
        <path class="cls-6" d="M460.15,650.78l77.23,139.22c1.21,2.19,4.06,2.84,6.11,1.4,7.43-16.61,27.98-56.56,73.5-85.83,37.43-24.07,73.69-29.3,91.85-30.67.31-.22.91-.7,1.34-1.55.31-.61.46-1.3.44-2l-2.62-95.18c-.05-1.72-1.14-3.24-2.75-3.83-4.84,2.75-32.83,18-66.78,7.66-39.47-12.02-53.53-48.44-55.07-52.64-1.5-.55-3.19-.21-4.36.9-1.09,1.03-1.64,2.64-1.12,4.3l37.54,120.86c.56,1.79-.14,3.73-1.7,4.76l-58.6,38.67c-1.36.9-3.12.93-4.52.08l-84.62-51.76c-3.69-2.26-7.98,1.85-5.88,5.63Z"/>
        <path class="cls-4" d="M443,633.54l65.6,162.19c1.03,2.55,4.05,3.64,6.47,2.34,10.32-17.13,38.09-57.95,91.66-83.77,44.05-21.24,84.3-22.09,104.29-21.15.36-.19,1.09-.65,1.67-1.52.42-.63.68-1.35.75-2.13l9.89-104.16c.18-1.88-.81-3.68-2.49-4.55-5.65,2.35-38.22,15.24-73.87-.59-41.44-18.4-51.9-60.01-53.01-64.79-1.56-.81-3.46-.65-4.87.39-1.33.98-2.14,2.66-1.8,4.54l24.76,136.85c.37,2.03-.65,4.05-2.49,4.97l-69.09,34.33c-1.61.8-3.53.6-4.94-.52l-85.37-67.79c-3.72-2.96-8.95.95-7.17,5.36Z"/>
        <path class="cls-30" d="M426.59,612.43l49.83,185.69c.78,2.92,3.93,4.52,6.75,3.42,13.55-17.3,49.31-58.1,111.19-79.1,50.89-17.26,94.91-12.8,116.59-9.11.42-.16,1.27-.56,2.02-1.43.54-.63.92-1.39,1.11-2.22l24.73-112.29c.45-2.03-.39-4.13-2.1-5.3-6.48,1.8-43.73,11.51-80.49-10.53-42.73-25.62-48.57-72.4-49.15-77.77-1.6-1.09-3.68-1.17-5.37-.22-1.58.89-2.69,2.61-2.57,4.71l8.68,152.58c.13,2.26-1.25,4.33-3.39,5.08l-79.95,28.19c-1.86.66-3.93.18-5.31-1.23l-84.03-85.38c-3.66-3.72-9.89-.16-8.53,4.88Z"/>
        <path class="cls-19" d="M411.52,587.21l29.48,209.2c.46,3.29,3.68,5.45,6.9,4.64,17.1-17.05,61.56-56.77,131.87-71.38,57.82-12.01,105.23-1.25,128.38,5.68.48-.12,1.46-.44,2.4-1.29.67-.61,1.19-1.39,1.5-2.27l42.01-119.16c.76-2.15.13-4.55-1.58-6.06-7.31,1.1-49.23,6.69-86.38-22.27-43.18-33.66-43.28-85.47-43.19-91.4-1.6-1.4-3.86-1.77-5.82-.96-1.84.76-3.29,2.49-3.44,4.8l-10.97,167.58c-.16,2.48-1.95,4.56-4.37,5.09l-90.98,20.04c-2.12.47-4.31-.33-5.63-2.05l-80.22-104.37c-3.5-4.55-10.76-1.5-9.96,4.18Z"/>
        <path class="cls-20" d="M398.46,557.69l4.13,232.13c.07,3.65,3.28,6.44,6.9,5.98,20.94-16.31,74.75-53.68,153.39-60.19,64.67-5.36,114.94,12.73,139.27,23.39.54-.07,1.66-.28,2.79-1.09.81-.58,1.49-1.35,1.94-2.27l61.78-124.34c1.12-2.25.75-4.95-.92-6.82-8.12.22-54.6.71-91.23-35.85-42.59-42.5-35.76-99.02-34.87-105.48-1.55-1.74-3.97-2.45-6.22-1.83-2.11.59-3.92,2.27-4.39,4.77l-34.4,181.32c-.51,2.68-2.73,4.71-5.45,4.97l-101.92,9.67c-2.37.22-4.66-.94-5.87-2.99l-73.52-124.58c-3.21-5.43-11.54-3.08-11.43,3.23Z"/>
        <path class="cls-12" d="M388.17,523.75l-26.58,253.74c-.42,3.99,2.72,7.46,6.73,7.45,25.02-14.98,88.71-48.53,175.37-45.11,71.26,2.82,123.66,29.28,148.77,44.16.6,0,1.84-.09,3.19-.81.96-.52,1.8-1.28,2.43-2.22l84.04-127.35c1.52-2.3,1.48-5.3-.09-7.56-8.88-.85-59.64-6.54-94.71-51.33-40.76-52.06-25.74-112.79-23.9-119.72-1.46-2.11-4-3.21-6.54-2.83-2.38.36-4.58,1.95-5.43,4.62l-61.81,193.16c-.92,2.86-3.61,4.77-6.61,4.69l-112.46-3.1c-2.62-.07-4.95-1.65-6-4.05l-63.5-145.73c-2.77-6.36-12.17-4.9-12.9,1.99Z"/>
        <path class="cls-11" d="M381.5,485.34l-62.97,273.19c-.99,4.3,1.97,8.5,6.34,9.03,29.29-12.99,103.26-41.06,197.32-25.72,77.34,12.61,130.96,48.49,156.35,68.09.66.08,2.02.15,3.58-.46,1.12-.44,2.14-1.15,2.94-2.1l108.72-127.64c1.96-2.31,2.33-5.58.92-8.26-9.58-2.11-64.18-15.12-96.42-68.66-37.48-62.24-12.97-126.47-10.04-133.78-1.31-2.49-3.94-4.03-6.76-3.96-2.64.07-5.25,1.52-6.54,4.31l-93.28,202.4c-1.38,3-4.58,4.72-7.84,4.23l-122.24-18.45c-2.84-.43-5.18-2.46-6-5.22l-49.75-167.46c-2.17-7.3-12.62-6.98-14.33.45Z"/>
        <path class="cls-2" d="M379.36,442.56l-105.27,289.54c-1.66,4.55,1,9.54,5.71,10.7,33.69-10.25,118.13-30.95,218.66-1.62,82.67,24.12,136.35,70.43,161.41,95.21.7.17,2.19.44,3.97-.02,1.28-.33,2.49-.97,3.49-1.89l135.67-124.66c2.45-2.25,3.29-5.77,2.11-8.88-10.16-3.59-67.97-25.09-95.97-87.81-32.55-72.91,2.79-139.68,6.97-147.26-1.1-2.9-3.75-4.93-6.84-5.22-2.89-.28-5.93.95-7.71,3.82l-128.85,208.27c-1.91,3.08-5.62,4.54-9.12,3.56l-130.86-36.49c-3.04-.85-5.32-3.38-5.85-6.5l-31.83-189.31c-1.39-8.26-12.83-9.3-15.69-1.43Z"/>
        <path class="cls-5" d="M382.76,395.61l-153.59,301.71c-2.42,4.74-.18,10.54,4.79,12.43,38.12-6.66,132.99-17.94,238.71,27.51,86.94,37.38,139.28,95.08,163.3,125.46.74.28,2.33.77,4.33.51,1.44-.19,2.84-.72,4.06-1.6l164.68-117.8c2.98-2.13,4.36-5.85,3.49-9.41-10.6-5.27-70.78-36.47-92.92-108.62-25.74-83.88,21.75-151.98,27.32-159.68-.81-3.31-3.44-5.88-6.76-6.61-3.12-.69-6.6.24-8.92,3.14l-168.43,209.9c-2.49,3.11-6.74,4.19-10.42,2.66l-137.84-57.32c-3.21-1.33-5.35-4.4-5.51-7.87l-9.37-210.74c-.41-9.19-12.75-11.86-16.92-3.66Z"/>
        <path class="cls-31" d="M392.75,344.85l-207.93,308.51c-3.27,4.85-1.61,11.47,3.57,14.2,42.47-2.16,147.45-1.76,256.68,61.98,89.82,52.41,139.18,122.36,161.31,158.71.77.41,2.43,1.15,4.66,1.14,1.6-.01,3.2-.41,4.64-1.2l195.39-106.43c3.53-1.92,5.54-5.8,5.06-9.79-10.86-7.17-72.32-49.25-86.8-130.92-16.84-94.93,44.07-162.85,51.18-170.51-.44-3.71-2.96-6.87-6.49-8.12-3.31-1.17-7.23-.62-10.15,2.23l-211.82,206.39c-3.14,3.06-7.91,3.67-11.72,1.51l-142.67-80.99c-3.32-1.88-5.25-5.52-4.95-9.32l18-231.11c.79-10.08-12.32-14.65-17.97-6.26Z"/>
        <path class="cls-7" d="M410.45,290.83l-268.11,308.65c-4.22,4.85-3.29,12.29,1.99,15.97,46.61,3.33,161.06,17.83,271.67,101.97,90.95,69.19,135.42,152.09,154.69,194.71.79.55,2.5,1.58,4.93,1.86,1.75.2,3.54-.02,5.22-.69l227.37-89.92c4.11-1.63,6.82-5.59,6.84-10-10.88-9.28-72.28-63.41-77.14-154.42-5.65-105.8,69.88-171.72,78.66-179.12.02-4.11-2.31-7.89-5.99-9.72-3.45-1.72-7.8-1.64-11.37,1.07l-258.67,196.74c-3.83,2.91-9.12,2.94-12.99.08l-144.77-107.44c-3.37-2.5-4.99-6.72-4.15-10.83l50.59-249.67c2.21-10.89-11.47-17.62-18.76-9.24Z"/>
        <path class="cls-14" d="M436.98,234.28L103.22,535.02c-5.25,4.73-5.24,12.97.03,17.68,50.4,9.87,173.29,41.02,282.65,147.61,89.93,87.65,127.34,184.03,142.65,233.09.79.71,2.51,2.06,5.12,2.69,1.88.45,3.86.45,5.79-.05l260.03-67.63c4.7-1.22,8.18-5.18,8.8-10-10.63-11.58-70.35-78.84-63.46-178.76,8-116.15,99.22-177.94,109.79-184.83.57-4.48-1.46-8.92-5.23-11.41-3.53-2.34-8.29-2.84-12.54-.36l-308.48,179.95c-4.57,2.66-10.35,1.99-14.18-1.66l-143.51-136.57c-3.34-3.18-4.54-8-3.08-12.37l88.61-265.54c3.86-11.58-10.15-20.76-19.22-12.59Z"/>
        <path class="cls-10" d="M473.5,176.16L69.19,459.48c-6.36,4.46-7.45,13.44-2.34,19.29,53.65,17.52,183.51,67.95,288.52,198.85,86.35,107.64,114.24,217.77,124.37,273.34.76.87,2.47,2.58,5.23,3.62,1.99.75,4.15,1.01,6.32.72l292.68-38.94c5.29-.7,9.62-4.55,10.93-9.73-10.04-14.05-66.17-95.41-45.28-203.48,24.29-125.62,132.05-180.79,144.5-186.9,1.22-4.81-.4-9.92-4.17-13.14-3.54-3.03-8.66-4.21-13.63-2.07l-360.56,154.96c-5.34,2.29-11.55.78-15.24-3.7l-138.24-168.18c-3.22-3.91-3.88-9.33-1.7-13.9l132.21-277.76c5.77-12.11-8.3-24-19.28-16.3Z"/>
        <path class="cls-1" d="M521.11,117.65L42.18,372.52c-7.53,4.01-9.92,13.66-5.13,20.72,56.17,26.29,191.06,98.69,288.06,255.53,79.77,128.97,95.44,252.83,99.05,314.79.72,1.06,2.34,3.15,5.22,4.65,2.07,1.08,4.4,1.66,6.8,1.64l324.44-3.27c5.86-.06,11.1-3.68,13.23-9.14-9.07-16.67-59.39-112.93-22.13-228,43.31-133.76,168.24-179.51,182.63-184.5,1.98-5.08.89-10.87-2.79-14.9-3.46-3.77-8.88-5.75-14.59-4.08l-414.02,120.73c-6.13,1.79-12.7-.69-16.13-6.08l-128.26-201.95c-2.98-4.7-2.98-10.7,0-15.39l181.4-285.25c7.91-12.44-5.83-27.29-18.85-20.37Z"/>
        <path class="cls-18" d="M580.88,60.21L24.37,274.06c-8.75,3.36-12.65,13.57-8.37,21.92,57.74,36.2,195.17,133.22,279.97,317.28,69.74,151.35,70.24,288.54,65.87,356.61.64,1.25,2.13,3.75,5.07,5.77,2.11,1.46,4.57,2.4,7.2,2.69l354.31,39.88c6.4.72,12.6-2.53,15.65-8.2-7.66-19.4-49.66-131.13,6.39-251.64,65.15-140.09,207.54-173.26,223.91-176.78,2.84-5.28,2.43-11.74-1.05-16.62-3.27-4.58-8.92-7.46-15.37-6.41l-467.74,76.23c-6.93,1.13-13.76-2.46-16.78-8.79l-112.84-237.44c-2.62-5.52-1.82-12.07,2.07-16.79l236.06-286.83c10.29-12.51-2.71-30.55-17.83-24.74Z"/>
        <path class="cls-26" d="M653.77,5.56L18.14,164.29c-10,2.5-15.62,13.11-12.07,22.78,58.13,47.21,195.03,171.45,262.88,383.56,55.79,174.42,37.97,324.12,24.09,397.77.53,1.45,1.83,4.38,4.75,6.98,2.1,1.87,4.66,3.23,7.49,3.9l381.11,90.95c6.89,1.64,14.08-1.07,18.17-6.85-5.76-22.18-36.6-149.67,40.67-273.61,89.83-144.07,249.57-161.18,267.89-162.83,3.8-5.38,4.22-12.48,1.08-18.27-2.95-5.43-8.73-9.33-15.91-9.05l-520.38,20.5c-7.71.3-14.68-4.52-17.12-11.84l-91.28-274.09c-2.12-6.38-.37-13.4,4.5-18.03L669.9,34.93c12.9-12.26,1.14-33.68-16.13-29.37Z"/>
      </g>
      <circle class="cls-32" cx="971.49" cy="543.24" r="5"/>
      <circle class="cls-32" cx="937.49" cy="483.24" r="5"/>
      <circle class="cls-32" cx="997.52" cy="522.38" r="5"/>
      <circle class="cls-32" cx="1038.49" cy="618.24" r="5"/>
      <circle class="cls-32" cx="298.49" cy="1007.24" r="5"/>
      <circle class="cls-32" cx="261.49" cy="876.24" r="5"/>
      <circle class="cls-32" cx="451.49" cy="1049.24" r="5"/>
      <circle class="cls-32" cx="401.99" cy="1033.74" r="3.5"/>
      <circle class="cls-32" cx="464.99" cy="1093.74" r="3.5"/>
      <circle class="cls-32" cx="241.99" cy="981.74" r="3.5"/>
      <circle class="cls-32" cx="282.99" cy="836.74" r="3.5"/>
      <circle class="cls-32" cx="276.99" cy="936.74" r="3.5"/>
      <circle class="cls-32" cx="955.99" cy="513.74" r="3.5"/>
      <circle class="cls-32" cx="970.99" cy="495.74" r="3.5"/>
      <circle class="cls-32" cx="1002.99" cy="560.74" r="3.5"/>
      <circle class="cls-32" cx="991.99" cy="665.74" r="3.5"/>
    </g>
  </g>
</svg>